<svg height="512" viewBox="0 0 444 512" width="444" xmlns="http://www.w3.org/2000/svg"><g fill="none" fill-rule="evenodd"><g transform="translate(-.017 -.51)"><path d="m.315 384.51 221.7 128 221.7-128v-256l-221.7-127.99-221.7 128z" fill="#4a9ea1"/><path d="m199.13 31.35-160.74 92.806c.32126 2.8543.32125 5.7352 0 8.5894l160.75 92.806c13.554-10.001 32.043-10.001 45.597 0l160.75-92.807c-.32126-2.8543-.32293-5.7338-.001-8.588l-160.74-92.806c-13.554 10.001-32.044 10.001-45.599 0zm221.79 127.03-160.92 93.84c1.884 16.739-7.3611 32.751-22.799 39.489l.18062 184.58c2.6325 1.1489 5.1267 2.5886 7.438 4.294l160.75-92.805c-1.884-16.739 7.3611-32.752 22.799-39.49v-185.61c-2.6325-1.1489-5.1281-2.5886-7.4394-4.294zm-397.81 1.0315c-2.3112 1.7054-4.8054 3.1465-7.438 4.2954v185.61c15.438 6.7378 24.683 22.75 22.799 39.489l160.74 92.806c2.3112-1.7054 4.8069-3.1465 7.4394-4.2954v-185.61c-15.438-6.7378-24.683-22.75-22.799-39.489l-160.74-92.81z" fill="#63d3d7" fill-rule="nonzero"/></g><g fill="#000" transform="translate(0 -.66)"><path d="m222 512.66 221.7-128v-256l-221.7 128z" fill-opacity=".25098"/><path d="m222 512.66v-256l-221.7-128v256z" fill-opacity=".039216"/><path d="m.298 128.66 221.7 128 221.7-128-221.7-128z" fill-opacity=".13018"/></g><g fill="#fff" transform="translate(39 182)"><path d="m30.09 4h-29.2v141.2h29.2z"/><path d="m80.97 145.2v-51.8c7.2.6 14.4.6 20.4.6 41.6 0 53.6-20.6 53.6-46 0-30.8-22-44-56-44h-47.2v141.2zm15.8-71.8c-5.4 0-13.4 0-15.8-.2v-48h18.2c17.6 0 27.6 8.4 27.6 23.8v.4c0 12-4.4 24-30 24z" fill-rule="nonzero"/><path d="m254.95 4h-88.6v141.2h29.2v-62.2h55.4v-21.2h-55.6v-36.4h57.6z"/><path d="m350.51 31.6 7.6-19.6c-11.4-8.2-26.8-11.2-46.2-11.2-28.2 0-51.4 13.2-51.4 40.2 0 24.2 17.8 33.8 35.6 39.6l17.8 6c12.2 4.2 22.2 8.2 22.2 21.4 0 12-10.4 16.8-26.2 16.8-16 0-33.2-4.8-43-11l-7.6 21.2c12.8 8.2 29 12.2 50.8 12.2 31 0 55-13.6 55-42.6 0-27-20.6-35.6-41.4-42.6l-19.4-6.4c-8.4-2.8-14.8-6.6-14.8-17.4 0-11 9-15.4 22.4-15.4 16.4 0 29.2 3 38.6 8.8z"/></g></g></svg>