<svg height="574" viewBox="0 0 501 574" width="501" xmlns="http://www.w3.org/2000/svg"><g fill="none"><g transform="translate(131 151)"><path d="m119.484 138.179.001-.002.005.004 1.001-.576 117.822-67.793-118.838-69.158-.001.001-.004-.001h-.001l-118.854 68.349 118.854 69.167z" fill="#e1fafb"/><path d="m119.539 275.692v-.003l.006.003v-137.505l-118.869-69.176-.004-.001v137.504l.056.034z" fill="#c3eaef"/><path d="m238.381 69.815-118.855 68.348-.014.01v137.505l.024.012h.002l.002.002 118.848-68.345v.001-.017-137.515l-.007.004z" fill="#9ddde3"/></g><g transform="translate(0 225)"><path d="m119.305 137.727.001-.002.005.004 1.001-.576 117.822-67.793-118.838-69.158-.002.001-.003-.001h-.002l-118.853 68.349 118.853 69.167z" fill="#e1fafb"/><path d="m119.36 275.24v-.003l.005.003v-137.505l-118.869-69.176-.004-.001v137.504l.057.033z" fill="#c3eaef"/><path d="m238.202 69.362-118.855 68.349-.014.01v137.504l.024.013h.001l.003.002 118.847-68.345v.001-.017-137.515l-.006.004z" fill="#9ddde3"/></g><g transform="translate(131)"><path d="m119.302 137.627.001-.001.005.003 1.001-.575 117.822-67.794-118.838-69.158-.001.002-.004-.002h-.002l-118.853 68.349 118.853 69.167z" fill="#e1fafb"/><path d="m119.357 275.14v-.003l.005.003v-137.504l-118.868-69.176-.004-.002v137.505l.056.033z" fill="#c3eaef"/><path d="m238.199 69.263-118.855 68.348-.014.011v137.504l.024.013h.002l.002.001 118.847-68.345v.001-.016-137.516l-.006.004z" fill="#9ddde3"/></g><g transform="translate(64 143)"><path d="m58.12 67.419v-.001l.003.002.486-.279 57.24-32.936-57.734-33.598h-.002-.001l-57.741 33.205 57.741 33.603z" fill="#e1fafb"/><path d="m58.147 134.226v-.002l.002.002v-66.803l-57.749-33.607h-.002v66.802l.028.016z" fill="#c3eaef"/><path d="m115.882 34.206-57.742 33.205-.007.005v66.803l.012.006h.001l.001.001 57.738-33.204v.001-.008-66.808l-.003.002z" fill="#9ddde3"/></g><g transform="translate(128 179)"><path d="m57.849 67.15.001-.001.002.002.487-.279 57.24-32.936-57.734-33.598-.001.001-.001-.001h-.001l-57.742 33.205 57.742 33.603z" fill="#e1fafb"/><path d="m57.876 133.957v-.002l.003.002v-66.803l-57.749-33.607h-.002v66.802l.027.016z" fill="#c3eaef"/><path d="m115.612 33.937-57.742 33.206-.007.005v66.802l.012.006.002.001 57.738-33.204v.001-.008-66.808l-.003.002z" fill="#9ddde3"/></g><g transform="translate(0 179)"><path d="m58.39 67.15.001-.001.002.002.487-.279 57.24-32.936-57.734-33.598-.001.001-.002-.001-57.742 33.205 57.742 33.603z" fill="#e1fafb"/><path d="m58.417 133.957v-.002l.003.002v-66.803l-57.749-33.607h-.002v66.802l.027.016z" fill="#c3eaef"/><path d="m116.153 33.937-57.742 33.206-.007.005v66.802l.012.006.001.001 57.739-33.204v.001-.008-66.808l-.003.002z" fill="#9ddde3"/></g><g transform="translate(64 215)"><path d="m58.12 66.881.003.001.486-.279 57.24-32.936-57.734-33.598v.001l-.002-.001h-.001l-57.741 33.205 57.741 33.603z" fill="#e1fafb"/><path d="m58.147 133.688v-.002l.002.002v-66.803l-57.749-33.607h-.002v66.802l.028.016z" fill="#c3eaef"/><path d="m115.882 33.668-57.742 33.206-.007.005v66.802l.012.006h.001l.001.001 57.738-33.204v.001-.008-66.808l-.003.002z" fill="#9ddde3"/></g><g transform="translate(64 69)"><path d="m57.971 67.792.001-.001.002.002.486-.279 57.241-32.936-57.734-33.598-.001.001-.002-.001-57.742 33.205 57.742 33.603z" fill="#e1fafb"/><path d="m57.998 134.599v-.002l.002.002v-66.803l-57.749-33.607h-.001v66.802l.027.016z" fill="#c3eaef"/><path d="m115.734 34.579-57.742 33.206-.007.005v66.802l.011.006h.001l.001.001 57.739-33.204v.001-.008-66.808l-.003.002z" fill="#9ddde3"/></g><g transform="translate(127 105)"><path d="m58.701 67.523.003.001.486-.279 57.24-32.936-57.734-33.598v.001l-.002-.001h-.001l-57.741 33.205 57.741 33.603z" fill="#e1fafb"/><path d="m58.728 134.33v-.002l.002.002v-66.803l-57.749-33.607h-.002v66.802l.028.016z" fill="#c3eaef"/><path d="m116.463 34.311-57.742 33.205-.007.005v66.802l.012.006h.001l.001.001 57.738-33.204v.001-.008-66.808l-.003.002z" fill="#9ddde3"/></g><g transform="translate(0 105)"><path d="m58.241 67.523h.001l.002.001.487-.279 57.24-32.936-57.734-33.598-.001.001-.001-.001h-.001l-57.742 33.205 57.742 33.603z" fill="#e1fafb"/><path d="m58.268 134.33v-.002l.003.002v-66.803l-57.749-33.607h-.002v66.802l.027.016z" fill="#c3eaef"/><path d="m116.004 34.311-57.742 33.205-.007.005v66.802l.012.006.002.001 57.738-33.204v.001-.008-66.808l-.003.002z" fill="#9ddde3"/></g><g transform="translate(64 141)"><path d="m57.971 67.254h.001l.002.001.486-.279 57.241-32.936-57.734-33.598-.001.001-.002-.001-57.742 33.205 57.742 33.603z" fill="#fcd197"/><path d="m57.998 134.061v-.001l.002.001v-66.802l-57.749-33.608h-.001v66.802l.027.016z" fill="#f9c478"/><path d="m115.734 34.042-57.742 33.205-.007.005v66.802l.011.006h.001l.001.001 57.739-33.203v-.008-66.808l-.003.002z" fill="#f7b763"/></g><g transform="translate(321 296)"><path d="m58.15 67.093v-.001l.003.002.486-.28 57.24-32.935-57.734-33.599v.001l-.002-.001h-.001l-57.741 33.206 57.741 33.602z" fill="#e1fafb"/><path d="m58.177 133.899v-.001l.002.001v-66.802l-57.749-33.607-.002-.001v66.802l.028.017z" fill="#c3eaef"/><path d="m115.912 33.88-57.742 33.205-.007.005v66.802l.012.007h.001.001l57.738-33.203v.001-.009-66.807l-.003.001z" fill="#9ddde3"/></g><g transform="translate(385 332)"><path d="m57.879 66.824.001-.001.002.002.487-.28 57.24-32.935-57.734-33.599-.001.001-.002-.001-57.742 33.206 57.742 33.602z" fill="#e1fafb"/><path d="m57.906 133.63v-.001l.003.001v-66.802l-57.749-33.607-.002-.001v66.803l.027.016z" fill="#c3eaef"/><path d="m115.642 33.611-57.742 33.205-.007.005v66.802l.012.007h.002l57.738-33.203v.001-.008-66.808l-.003.001z" fill="#9ddde3"/></g><g transform="translate(257 332)"><path d="m58.42 66.824.001-.001.002.002.486-.28 57.241-32.935-57.734-33.599-.001.001-.002-.001-57.742 33.206 57.742 33.602z" fill="#e1fafb"/><path d="m58.447 133.63v-.001l.002.001v-66.802l-57.748-33.607-.002-.001v66.803l.027.016z" fill="#c3eaef"/><path d="m116.183 33.611-57.742 33.205-.007.005v66.802l.011.007h.001.001l57.739-33.203v.001-.008-66.808l-.003.001z" fill="#9ddde3"/></g><g transform="translate(321 367)"><path d="m58.15 67.555v-.001l.003.002.486-.28 57.24-32.935-57.734-33.598h-.002-.001l-57.741 33.205 57.741 33.602z" fill="#e1fafb"/><path d="m58.177 134.361v-.001l.002.001v-66.802l-57.749-33.607-.002-.001v66.803l.028.016z" fill="#c3eaef"/><path d="m115.912 34.342-57.742 33.205-.007.005v66.802l.012.007h.001.001l57.738-33.203v.001-.008-66.808l-.003.002z" fill="#9ddde3"/></g><g transform="translate(321 222)"><path d="m58.001 67.466v-.001l.003.002.486-.28 57.241-32.935-57.734-33.599-.001.001-.002-.001h-.001l-57.741 33.206 57.741 33.602z" fill="#e1fafb"/><path d="m58.028 134.272v-.001l.002.001v-66.802l-57.749-33.607-.002-.001v66.803l.028.016z" fill="#c3eaef"/><path d="m115.764 34.253-57.743 33.205-.006.005v66.802l.011.007h.001.001l57.739-33.203v.001-.008-66.808l-.003.001z" fill="#9ddde3"/></g><g transform="translate(384 258)"><path d="m58.73 67.197.001-.001.003.002.486-.28 57.24-32.935-57.734-33.598h-.002-.001l-57.741 33.205 57.741 33.602z" fill="#e1fafb"/><path d="m58.757 134.003v-.001l.003.001v-66.802l-57.749-33.607-.002-.001v66.803l.027.016z" fill="#c3eaef"/><path d="m116.493 33.984-57.742 33.205-.007.005v66.803l.012.006h.001.001l57.738-33.203v.001-.008-66.808l-.003.002z" fill="#9ddde3"/></g><g transform="translate(257 258)"><path d="m58.271 67.197.001-.001.002.002.487-.28 57.24-32.935-57.734-33.598h-.001-.002l-57.742 33.205 57.742 33.602z" fill="#e1fafb"/><path d="m58.298 134.003v-.001l.003.001v-66.802l-57.749-33.607-.002-.001v66.803l.027.016z" fill="#c3eaef"/><path d="m116.034 33.984-57.742 33.205-.007.005v66.803l.012.006h.002l57.738-33.203v.001-.008-66.808l-.003.002z" fill="#9ddde3"/></g><g transform="translate(321 294)"><path d="m58.001 66.928v-.001l.003.002.486-.28 57.241-32.935-57.734-33.598h-.001-.002-.001l-57.741 33.205 57.741 33.603z" fill="#f9c478"/><path d="m58.028 133.734v-.001l.002.001v-66.802l-57.749-33.607-.002-.001v66.803l.028.016z" fill="#f9ab55"/><path d="m115.764 33.715-57.743 33.205-.006.005v66.803l.011.006h.001.001l57.739-33.203v.001-.008-66.808l-.003.002z" fill="#f9a035"/></g><g transform="translate(131 298)"><path d="m119.484 138.275.001-.002.005.004 1.001-.576 117.822-67.793-118.838-69.158-.001.001-.004-.001h-.001l-118.854 68.349 118.854 69.167z" fill="#f99f93"/><path d="m119.539 275.787v-.002l.006.002v-137.504l-118.869-69.176-.004-.001v137.504l.056.033z" fill="#f96a58"/><path d="m238.381 69.91-118.855 68.349-.014.01v137.504l.024.013h.002l.002.001 118.848-68.344v.001-.017-137.515l-.007.003z" fill="#ef5c43"/></g><g transform="translate(262 73)"><path d="m119.481 138.175.002-.001.005.003 1.001-.575 117.822-67.794-118.839-69.158-.001.002-.004-.002h-.001l-118.854 68.349 118.854 69.167z" fill="#5ab5bf"/><path d="m119.537 275.688v-.003l.005.003v-137.504l-118.869-69.176-.004-.002v137.504l.056.034z" fill="#46a0af"/><path d="m238.378 69.811-118.855 68.348-.014.011v137.504l.025.012h.001l.003.002 118.847-68.345v.001-.016-137.516l-.007.004z" fill="#3c8da0"/></g><g transform="translate(131 147)"><path d="m119.447 138.515.001-.002.005.004 1.001-.576 117.822-67.793-118.838-69.158-.001.001-.004-.001h-.001l-118.854 68.349 118.854 69.167z" fill="#e1fafb"/><path d="m119.502 276.028v-.003l.006.003v-137.505l-118.869-69.175-.004-.002v137.504l.056.034z" fill="#c3eaef"/><path d="m238.344 70.151-118.855 68.348-.014.01v137.505l.024.012h.002l.002.002 118.847-68.345v.001-.016-137.516l-.006.004z" fill="#9ddde3"/></g></g></svg>