<svg height="216" viewBox="0 0 192 216" width="192" xmlns="http://www.w3.org/2000/svg"><g fill="none" fill-rule="evenodd" transform="translate(-1 -1)"><path d="m192.79 153.5v-89.33c.01183-6.6697295-3.542797-12.8369306-9.32-16.17l-77.36-44.64c-5.767236-3.3297153-12.8727639-3.3297153-18.64 0l-77.36 44.64c-5.76790695 3.3277198-9.32109406 9.4809859-9.32 16.14v89.36c-.00109406 6.659014 3.55209305 12.81228 9.32 16.14l77.36 44.66c5.7672361 3.329715 12.872764 3.329715 18.64 0l77.36-44.66c5.767907-3.32772 9.321094-9.480986 9.32-16.14z" fill="#1d74f2"/><path d="m179.42 151v-83.38c1.178976.0000001 2.268396-.6289764 2.857884-1.6499999.589488-1.0210236.589488-2.2789766 0-3.3000002-.589488-1.0210235-1.678908-1.65-2.857884-1.6499999-.301728.0051209-.601272.0522402-.89.14l-78.53-44.64c.342412-1.2331476-.0613596-2.5529586-1.0351046-3.3834524-.973745-.8304937-2.3407353-1.0209412-3.5044006-.4882292-1.1636653.5327121-1.9128085 1.6919003-1.9204948 2.9716816-.0013032.3398086.0527373.6775619.16 1l-77.18 45.6c-1.0480941-1.0692683-2.6847255-1.2989061-3.9866156-.559367s-1.942732 2.2628965-1.5610054 3.710695c.3817266 1.4477986 1.6903456 2.457161 3.187621 2.458672v83.42c-1.5927018.005591-2.9541441 1.147962-3.236241 2.715492-.282097 1.567531.5956574 3.112873 2.0864819 3.673384s3.1692615-.02377 3.9897591-1.388876l76.65 44.89c-.1096167.321858-.1637207.660008-.16 1 0 1.82254 1.4774603 3.3 3.3 3.3s3.3-1.47746 3.3-3.3c.002316-.339106-.048293-.676497-.15-1l76.73-44.94c.869576 1.31523 2.548074 1.831588 4.006542 1.232537 1.458469-.599051 2.289426-2.146142 1.983479-3.692877s-1.663318-2.660971-3.240021-2.65966zm-84.51-20.76v26.19l-35.07-19.08v-26.35zm3.76 25.76v-38l27.39-17.3v38zm1.1 44.65c-.243524-.526796-.6232639-.979031-1.1-1.31v-38.9l63.16-39.89v-9c2.7517-.921554 4.429745-3.701845 3.962887-6.565961-.466859-2.864115-2.940971-4.967594-5.842887-4.967594s-5.376028 2.103479-5.842887 4.967594c-.466858 2.864116 1.211187 5.644407 3.962887 6.565961v6.91l-28.25 17.85v-38l8.46-5.34v-9c2.7517-.9215543 4.429745-3.7018455 3.962887-6.565961-.466859-2.8641155-2.940971-4.967594-5.842887-4.967594s-5.376028 2.1034785-5.842887 4.967594c-.466858 2.8641155 1.211187 5.6444067 3.962887 6.565961v6.92l-35.85 22.64v-17.44l17.5-11v-16.34c2.7517-.9215543 4.429745-3.7018455 3.962887-6.565961-.466859-2.8641155-2.940971-4.967594-5.842887-4.967594s-5.376028 2.1034785-5.842887 4.967594c-.466858 2.8641155 1.211187 5.6444067 3.962887 6.565961v14.25l-13.74 8.68v-44.13c2.7517-.9215543 4.429745-3.7018455 3.962887-6.565961-.466859-2.8641155-2.9409714-4.967594-5.842887-4.967594s-5.3760281 2.1034785-5.8428865 4.967594 1.2111866 5.6444067 3.9628865 6.565961v33.59l-14.23-9v-9.75c2.7516999-.9215543 4.4297449-3.7018455 3.9628865-6.565961s-2.9409709-4.967594-5.8428865-4.967594-5.3760281 2.1034785-5.8428865 4.967594 1.2111866 5.6444067 3.9628865 6.565961v11.83l18 11.37v40.41l-15.13-8.29v-17.57c2.7516999-.9215543 4.4297449-3.7018455 3.9628865-6.565961s-2.9409709-4.967594-5.8428865-4.967594-5.3760281 2.1034785-5.8428865 4.967594 1.2111866 5.6444067 3.9628865 6.565961v15.5l-22.66-12.42v-14c2.7516999-.9215543 4.4297449-3.7018455 3.9628865-6.565961s-2.9409709-4.967594-5.8428865-4.967594-5.3760281 2.1034785-5.8428865 4.967594 1.2111866 5.6444067 3.9628865 6.565961v16.12l6.86 3.77v26.36l-20.54-11.2v-6.87c2.7516999-.921554 4.4297449-3.701845 3.9628865-6.565961-.4668584-2.864115-2.9409709-4.967594-5.8428865-4.967594s-5.3760281 2.103479-5.8428865 4.967594c-.4668584 2.864116 1.2111866 5.644407 3.9628865 6.565961v9l62.74 34.36v38.6c-.4741656.333777-.8532654.78525-1.1 1.31l-76.6-44.87c.3871169-.938009.3182768-2.002378-.1864443-2.882705-.5047211-.880328-1.3884835-1.477475-2.3935557-1.617295v-83.51c1.1473234-.157817 2.1263807-.908985 2.5758916-1.9763168s.3028393-2.2926049-.3858916-3.2236832l77-45.56c.5348401 1.1834858 1.7176021 1.9399434 3.0162843 1.9291211 1.2986823-.0108224 2.4686733-.7868862 2.9837157-1.9791211l78.18 44.4c-1.291418.6374001-2.015996 2.0426368-1.786316 3.4643564s1.359885 2.5273144 2.786316 2.7256436v83.52c-1.038422.138289-1.947122.767184-2.442366 1.690319-.495243.923135-.516687 2.028026-.057634 2.969681z" fill="#fff" fill-rule="nonzero"/></g></svg>