<svg height="1000" viewBox="0 0 838 1000" width="838" xmlns="http://www.w3.org/2000/svg"><g fill="none" fill-rule="evenodd" opacity=".9"><g transform="translate(279 354)"><path d="m140.45 161.67h.01l1.17-.67 138.27-79.56-139.46-81.15h-.01l-139.47 80.2 139.47 81.17z" fill="#bec831"/><path d="m140.43 323.04h.01v-161.36l-139.49-81.18h-.01v161.36l.07.04z" fill="#a1a938"/><path d="m279.93 81.46-138.3 79.54-1.18.67-.01.01v161.36l.02.02h.01l139.47-80.2v-.02-161.37h-.01z" fill="#999b37"/></g><g transform="translate(419 435)"><path d="m139.96 161.84h.01l1.17-.68 138.26-79.55-139.45-81.16h-.01l-139.47 80.21 139.47 81.17z" fill="#cc2a65"/><path d="m139.94 323.21h.01v-161.36l-139.5-81.18v161.36l.06.04z" fill="#a21d4c"/><path d="m279.43 81.63-138.3 79.53-1.17.68-.02.01v161.36l.03.02v-.01l.01.01 139.46-80.21v-.02-161.37z" fill="#b62454"/></g><g transform="translate(558 516)"><path d="m140.45 162.03.01-.01v.01l1.18-.68 138.26-79.55-139.46-81.16h-.01l-139.47 80.21 139.47 81.17z" fill="#cc2a65"/><path d="m140.43 323.4h.01v-161.36l-139.49-81.18v161.36l.06.04z" fill="#a21d4c"/><path d="m279.93 81.82-138.3 79.53-1.18.68-.01.01v161.36l.03.01v.01l139.47-80.21v.01-.02-161.38l-.01.01z" fill="#b62454"/></g><g transform="translate(140 434)"><path d="m139.99 161.87 1.18-.67 138.26-79.56-139.45-81.15h-.01l-139.48 80.2 139.48 81.17z" fill="#c8d92b"/><path d="m139.97 323.24v-161.36l-139.49-81.18v.01-.01 161.37l.06.03z" fill="#c2d02f"/><path d="m279.46 81.66-138.3 79.54-1.17.67-.02.01v161.36l.03.02 139.47-80.2v-.02-161.38l-.01.01z" fill="#b9be33"/></g><g transform="translate(279 515)"><path d="m140.49 162.04v-.01l.01.01 1.17-.68 138.27-79.55-139.46-81.16h-.01l-139.47 80.21 139.47 81.17z" fill="#cc2a65"/><path d="m140.47 323.41h.01v-161.36l-139.49-81.18h-.01v161.36l.07.04z" fill="#a21d4c"/><path d="m279.97 81.83-138.3 79.53-1.18.68-.01.01v161.36l.02.01.01.01 139.46-80.21.01.01v-.02-161.38l-.01.01z" fill="#b62454"/></g><g transform="translate(419 596)"><path d="m139.99 162.23h.01l1.17-.68 138.26-79.55-139.45-81.16h-.01l-139.47 80.21 139.47 81.17z" fill="#33b4d7"/><path d="m139.97 323.6h.01v-161.36l-139.5-81.18v161.36l.06.04z" fill="#209ac5"/><path d="m279.47 82.02-138.31 79.53-1.17.68-.02.01v161.36l.03.02v-.01.01l139.47-80.21v-.02z" fill="#0f8cae"/></g><g transform="translate(1 514)"><path d="m139.52 162.08h.01l1.17-.68 138.26-79.55-139.45-81.16h-.01l-139.47 80.21 139.47 81.17z" fill="#94d6e3"/><path d="m139.5 323.45h.01v-161.36l-139.5-81.18v161.36l.06.04z" fill="#73ccdd"/><path d="m279 81.87-138.3 79.53-1.18.68-.02.01v161.36l.03.01.01.01 139.46-80.21v-.01-161.38.01z" fill="#3bafbb"/></g><g transform="translate(140 595)"><path d="m140.02 162.24h.01l1.17-.67 138.27-79.56-139.46-81.15h-.01l-139.47 80.2 139.47 81.17z" fill="#94d6e3"/><path d="m140 323.61.01.01v-161.37l-139.49-81.17-.01-.01v161.37l.07.03z" fill="#73ccdd"/><path d="m279.5 82.03-138.3 79.54-1.18.67-.01.01v161.36l.03.02 139.47-80.2v-.02-161.37h-.01z" fill="#3bafbb"/></g><g transform="translate(280 677)"><path d="m139.52 161.43h.01l1.17-.67 138.27-79.56-139.46-81.15h-.01l-139.47 80.2 139.47 81.17z" fill="#33b4d7"/><path d="m139.5 322.8.01.01v-161.37l-139.5-81.18v.01-.01 161.37l.07.03z" fill="#209ac5"/><path d="m279 81.23-138.3 79.53-1.18.67-.02.01v161.36l.03.02h.01l139.46-80.2v-.02z" fill="#0f8cae"/></g><g transform="translate(279 177)"><path d="m140.52 161.62h.01l1.17-.68 138.3-79.5-139.43-81.21-139.51 80.15 139.44 81.23z" fill="#bec831"/><path d="m140.43 322.99h.01l.07-161.36-139.46-81.24h-.01l-.06 161.36.06.04z" fill="#a1a938"/><path d="m280.03 81.47-138.33 79.47-1.18.68-.02.01-.06 161.36.02.01h.01v.01l139.5-80.15v-.02z" fill="#999b37"/></g><g transform="translate(419 258)"><path d="m139.99 161.84h.01l1.17-.67 138.3-79.5-139.43-81.22v.01-.01l-139.51 80.15 139.44 81.23z" fill="#ee539a"/><path d="m139.91 323.21.07-161.36-139.46-81.23-.01-.01-.06 161.37.06.03z" fill="#d01b68"/><path d="m279.5 81.69-138.33 79.47-1.18.68-.02.01-.06 161.36.03.02 139.5-80.15v.01-.02l.07-161.38z" fill="#ec0f68"/></g><g transform="translate(558 339)"><path d="m140.45 162.09h.01l1.18-.68 138.29-79.5-139.42-81.21h-.01l-139.5 80.15 139.43 81.23z" fill="#a159a2"/><path d="m140.37 323.46h.01l.06-161.36-139.46-81.24-.07 161.36.07.04z" fill="#772a86"/><path d="m279.96 81.94-138.33 79.47-1.18.68-.01.01-.07 161.36.03.02v-.01.01l139.5-80.15v-.02l.07-161.37z" fill="#8e3b95"/></g><g transform="translate(140 257)"><path d="m140.02 161.76h.01l1.17-.67 138.3-79.5-139.43-81.21-139.51 80.14 139.44 81.23z" fill="#c8d92b"/><path d="m139.94 323.13.07-161.36-139.46-81.23h-.01l-.06 161.36.06.04z" fill="#c2d02f"/><path d="m279.53 81.61-138.33 79.48-1.18.67-.02.01-.06 161.36.03.02 139.5-80.15v.01-.02l.07-161.38-.01.01z" fill="#b9be33"/></g><g transform="translate(279 338)"><path d="m140.49 161.98.01.01 1.17-.68 138.3-79.5-139.42-81.21h-.01l-139.51 80.15 139.44 81.22z" fill="#f7af19"/><path d="m140.41 323.36v-.01.01l.07-161.36v-.01l-139.46-81.23h-.01l-.06 161.36.06.04z" fill="#f2901f"/><path d="m280 81.83-138.33 79.48-1.18.67-.01.01-.07 161.37.03.01 139.5-80.14v-.02l.07-161.37h-.01z" fill="#f9a120"/></g><g transform="translate(419 419)"><path d="m139.96 162.23 1.18-.67 138.29-79.5-139.42-81.21h-.01l-139.5 80.15 139.44 81.22z" fill="#a159a2"/><path d="m139.87 323.6h.01l.06-161.36-139.46-81.23v-.01l-.07 161.37.07.04z" fill="#772a86"/><path d="m279.46 82.08-138.33 79.47-1.17.68-.02.01-.07 161.36.03.02h.01l139.49-80.15.01.01v-.02l.06-161.38-.01.01z" fill="#8e3b95"/></g><g transform="translate(0 337)"><path d="m140.52 161.91h.01l1.17-.67 138.3-79.5-139.43-81.22v.01-.01l-139.51 80.15 139.44 81.23z" fill="#f6dd03"/><path d="m140.44 323.28.07-161.36-139.46-81.23-.01-.01-.06 161.37.06.04z" fill="#f9bb1d"/><path d="m280.03 81.76-138.33 79.48-1.18.67-.02.01-.06 161.36.02.02h.01l139.5-80.15v-.02l.07-161.37z" fill="#e9ae20"/></g><g transform="translate(140 418)"><path d="m139.99 162.13h.01l1.17-.67 138.3-79.5-139.42-81.21h-.01l-139.51 80.15 139.44 81.22z" fill="#f7af19"/><path d="m139.91 323.5.07-161.36-139.46-81.23h-.01l-.06 161.36.06.04z" fill="#f2901f"/><path d="m279.5 81.98-138.33 79.48-1.18.67-.01.01-.07 161.36.03.02 139.5-80.14v-.02l.07-161.38-.01.01z" fill="#f9a120"/></g><g transform="translate(279 499)"><path d="m140.46 162.38 1.18-.67 138.29-79.5-139.42-81.22v.01l-.01-.01-139.5 80.15 139.44 81.23z" fill="#31838b"/><path d="m140.37 323.75h.01l.06-161.36-139.46-81.24v.01-.01l-.07 161.37.07.03z" fill="#22626c"/><path d="m279.96 82.23-138.33 79.47-1.17.68-.02.01-.07 161.36.03.02h.01l139.49-80.15h.01v-.02l.06-161.37z" fill="#1b4b56"/></g><g transform="translate(279)"><path d="m140.45 161.56h.01v.01l1.17-.68 138.27-79.55-139.46-81.16h-.01l-139.47 80.2 139.47 81.17z" fill="#bec831"/><path d="m140.43 322.94v-.01l.01.01v-161.36-.01l-139.49-81.17h-.01v161.36l.07.04z" fill="#a1a938"/><path d="m279.93 81.36-138.3 79.53-1.18.67-.01.01v161.37l.02.01h.01l139.47-80.2v-.02-161.37z" fill="#999b37"/></g><g transform="translate(419 81)"><path d="m139.96 161.73h.01l1.17-.67 138.26-79.56-139.45-81.16v.01l-.01-.01-139.47 80.21 139.47 81.17z" fill="#ee539a"/><path d="m139.94 323.1h.01v-161.36l-139.5-81.18v161.36l.06.04z" fill="#d01b68"/><path d="m279.43 81.52-138.3 79.54-1.17.67-.02.01v161.36l.03.02h.01l139.46-80.2v-.02-161.38l-.01.01z" fill="#ec0f68"/></g><g transform="translate(558 162)"><path d="m140.45 161.92h.01l1.18-.67 138.26-79.56-139.46-81.16v.01-.01h-.01l-139.47 80.21 139.47 81.17z" fill="#a159a2"/><path d="m140.43 323.29h.01v-161.36l-139.49-81.18v161.36l.06.04z" fill="#772a86"/><path d="m279.93 81.71-138.3 79.54-1.18.67-.01.01v161.36l.03.02 139.47-80.2v-.02-161.38l-.01.01z" fill="#8e3b95"/></g><g transform="translate(140 80)"><path d="m139.99 161.76v.01l1.18-.68 138.26-79.55-139.45-81.16h-.01l-139.48 80.2 139.48 81.17z" fill="#c8d92b"/><path d="m139.97 323.14v-.01.01-161.36-.01l-139.49-81.17v161.36l.06.04z" fill="#c2d02f"/><path d="m279.46 81.56-138.3 79.53-1.17.67-.02.01v161.37l.03.01 139.47-80.2v-.02-161.37z" fill="#b9be33"/></g><g transform="translate(279 161)"><path d="m140.49 161.93h.01l1.17-.67 138.27-79.56-139.46-81.15h-.01l-139.47 80.2 139.47 81.17z" fill="#c8d92b"/><path d="m140.47 323.3h.01v-161.36l-139.49-81.18h-.01v161.36l.07.04z" fill="#c2d02f"/><path d="m279.97 81.72-138.3 79.53-1.18.68-.01.01v161.36l.02.02h.01l139.46-80.2h.01v-.02-161.37h-.01z" fill="#b9be33"/></g><g transform="translate(419 242)"><path d="m139.99 162.12h.01l1.17-.68 137.87-80.22-139.84-80.48h-.01l-139.09 80.88 139.87 80.49z" fill="#833593"/><path d="m140.75 323.49h.01l-.78-161.36-139.89-80.5.78 161.36.06.04z" fill="#652977"/><path d="m279.07 81.24-137.91 80.2-1.17.68-.02.01.78 161.36.03.02h.01l139.07-80.88v-.02l-.78-161.37z" fill="#4d1f5b"/></g><g transform="translate(1 160)"><path d="m139.52 161.97h.01l1.17-.67 138.26-79.56-139.45-81.16v.01l-.01-.01-139.47 80.21 139.47 81.17z" fill="#f6dd03"/><path d="m139.5 323.34h.01v-161.36l-139.5-81.18v161.36l.06.04z" fill="#f9bb1d"/><path d="m279 81.76-138.3 79.54-1.18.67-.02.01v161.36l.03.02h.01l139.46-80.2v-.02-161.38.01z" fill="#e9ae20"/></g><g transform="translate(140 241)"><path d="m140.02 162.14.01-.01v.01l1.17-.68 138.27-79.55-139.46-81.16h-.01l-139.47 80.21 139.47 81.17z" fill="#f7af19"/><path d="m140 323.51v-.01l.01.01v-161.36l-139.49-81.18h-.01v161.36l.07.04z" fill="#f2901f"/><path d="m279.5 81.93-138.3 79.53-1.18.68-.01.01v161.36l.03.01 139.47-80.2v-.02-161.37z" fill="#f9a120"/></g><g transform="translate(280 322)"><path d="m139.52 162.33v-.01l.01.01 1.17-.68 138.27-79.55-139.46-81.16h-.01l-139.47 80.21 139.47 81.17z" fill="#f7af19"/><path d="m139.5 323.7h.01v-161.36l-139.5-81.18v161.36l.07.04z" fill="#f2901f"/><path d="m279 82.12-138.3 79.53-1.18.68-.02.01v161.36l.03.01.01.01 139.46-80.21v-.02z" fill="#f9a120"/></g></g></svg>