<svg enable-background="new 0 0 1133.385 1055.344" viewBox="0 0 1133.385 1055.344" xmlns="http://www.w3.org/2000/svg"><g fill="#00f"><path d="m566.598 498.021-101.015 58.56-.103.06-.104-.06-101.16-58.308-.145-.084v-.168l-.084-116.761v-.216l.187-.108 101.16-58.309.146-.084.146.084 101.076 58.454.104.06v.12zm0 0-.207-116.762.104.179-101.16-58.308h.291l-101.077 58.452.187-.324-.084 116.761-.145-.251 101.076 58.453h-.206z" opacity=".2"/><path d="m768.835 497.87-101.015 58.56-.103.06-.104-.06-101.16-58.308-.145-.084v-.168l-.084-116.761v-.216l.187-.108 101.16-58.309.146-.084.146.084 101.076 58.454.104.06v.12zm0 0-.207-116.762.104.179-101.16-58.308h.291l-101.077 58.452.187-.324-.084 116.761-.145-.251 101.076 58.453h-.206z" opacity=".2"/><path d="m465.479 673.01-101.015 58.56-.103.06-.104-.06-101.16-58.308-.145-.084v-.168l-.084-116.761v-.216l.187-.108 101.16-58.309.146-.084.146.084 101.076 58.454.104.06v.12zm0 0-.207-116.762.104.179-101.16-58.308h.291l-101.077 58.453.187-.324-.084 116.761-.145-.251 101.076 58.453h-.207z" opacity=".2"/><path d="m667.716 673.01-101.015 58.56-.103.06-.104-.06-101.16-58.308-.145-.084v-.168l-.084-116.761v-.216l.187-.108 101.16-58.309.146-.084.146.084 101.076 58.454.104.06v.12zm0 0-.207-116.762.104.179-101.16-58.308h.291l-101.077 58.452.187-.324-.084 116.763-.145-.251 101.076 58.453h-.206z" opacity=".2"/><path d="m870.077 673.053-101.015 58.56-.103.06-.104-.06-101.16-58.308-.145-.084v-.168l-.084-116.761v-.216l.187-.108 101.16-58.309.146-.084.146.084 101.076 58.454.104.06v.12zm0 0-.207-116.762.104.179-101.16-58.308h.291l-101.077 58.452.187-.324-.084 116.761-.145-.251 101.076 58.453h-.207z" opacity=".2"/><path d="m465.479 556.248-101.015 58.56-.103.06-.104-.06-101.16-58.308-.145-.084v-.168l-.084-116.761v-.216l.187-.108 101.16-58.309.146-.084.146.084 101.076 58.454.104.06v.12zm0 0-.207-116.761.104.179-101.16-58.308h.291l-101.077 58.453.187-.324-.084 116.761-.145-.251 101.076 58.453h-.207z"/><path d="m667.716 556.248-101.015 58.56-.103.06-.104-.06-101.16-58.308-.145-.084v-.168l-.084-116.761v-.216l.187-.108 101.16-58.309.146-.084.146.084 101.076 58.454.104.06v.12zm0 0-.207-116.761.104.179-101.16-58.308h.291l-101.077 58.452.187-.324-.084 116.761-.145-.251 101.076 58.453h-.206z"/><path d="m869.953 556.248-101.015 58.56-.103.06-.104-.06-101.16-58.308-.145-.084v-.168l-.084-116.761v-.216l.187-.108 101.16-58.309.146-.084.146.084 101.076 58.454.104.06v.12zm0 0-.207-116.761.104.179-101.16-58.308h.291l-101.077 58.452.187-.324-.084 116.761-.145-.251 101.076 58.453h-.206z"/><path d="m768.927 731.568-101.015 58.56-.103.06-.104-.06-101.16-58.308-.145-.084v-.168l-.084-116.761v-.216l.187-.108 101.16-58.309.146-.084.146.084 101.076 58.454.104.06v.12zm0 0-.207-116.761.104.179-101.16-58.308h.291l-101.078 58.452.187-.324-.084 116.761-.145-.251 101.076 58.453h-.206z"/><path d="m566.635 731.544-101.015 58.56-.103.06-.104-.06-101.16-58.308-.145-.084v-.168l-.084-116.761v-.216l.187-.108 101.16-58.309.146-.084.146.084 101.076 58.454.104.06v.12zm0 0-.207-116.762.104.179-101.16-58.308h.291l-101.077 58.452.187-.324-.084 116.761-.145-.251 101.076 58.453h-.206z"/><path d="m1072.314 673.053-101.015 58.56-.103.06-.104-.06-101.16-58.308-.145-.084v-.168l-.084-116.761v-.216l.187-.108 101.16-58.309.146-.084.146.084 101.076 58.454.104.06v.12zm0 0-.207-116.762.104.179-101.16-58.308h.291l-101.077 58.452.187-.324-.084 116.761-.145-.251 101.076 58.453h-.206z" opacity=".2"/><path d="m971.196 731.329-101.015 58.56-.103.06-.104-.06-101.16-58.308-.145-.084v-.168l-.084-116.761v-.216l.187-.108 101.16-58.309.146-.084.146.084 101.076 58.454.104.06v.12zm0 0-.207-116.761.104.179-101.16-58.308h.291l-101.077 58.452.187-.324-.084 116.761-.145-.251 101.076 58.453h-.206z"/><path d="m364.426 731.143-101.015 58.56-.103.06-.104-.06-101.16-58.308-.145-.084v-.168l-.084-116.761v-.216l.187-.108 101.16-58.309.146-.084.146.084 101.076 58.454.104.06v.12zm0 0-.207-116.762.104.179-101.16-58.308h.291l-101.077 58.452.187-.324-.084 116.761-.145-.251 101.076 58.453h-.207z" opacity=".2"/><path d="m263.307 556.062-101.015 58.56-.103.06-.104-.06-101.16-58.308-.145-.084v-.168l-.084-116.761v-.216l.187-.108 101.16-58.309.146-.084.146.084 101.076 58.454.104.06v.12zm0 0-.207-116.761.104.179-101.16-58.308h.291l-101.078 58.452.187-.324-.084 116.761-.145-.251 101.076 58.453h-.206z" opacity=".2"/><path d="m364.426 380.839-101.015 58.56-.103.06-.104-.06-101.16-58.308-.145-.084v-.168l-.084-116.761v-.216l.187-.108 101.16-58.309.146-.084.146.084 101.076 58.454.104.06v.12zm0 0-.207-116.762.104.179-101.16-58.308h.291l-101.077 58.452.187-.324-.084 116.761-.145-.251 101.076 58.453h-.206z" opacity=".2"/><path d="m870.314 907.053-101.015 58.56-.103.06-.104-.06-101.16-58.308-.145-.084v-.168l-.084-116.761v-.216l.187-.108 101.16-58.309.146-.084.146.084 101.076 58.454.104.06v.12zm0 0-.207-116.762.104.179-101.16-58.308h.291l-101.077 58.452.187-.324-.084 116.761-.145-.251 101.076 58.453h-.207z" opacity=".2"/><path d="m971.314 381.053-101.015 58.56-.103.06-.104-.06-101.16-58.308-.145-.084v-.168l-.084-116.761v-.216l.187-.108 101.16-58.309.146-.084.146.084 101.076 58.454.104.06v.12zm0 0-.207-116.762.104.179-101.16-58.308h.291l-101.077 58.452.187-.324-.084 116.761-.145-.251 101.076 58.453h-.206z" opacity=".4"/><path d="m566.314 381.053-101.015 58.56-.103.06-.104-.06-101.16-58.308-.145-.084v-.168l-.084-116.761v-.216l.187-.108 101.16-58.309.146-.084.146.084 101.076 58.454.104.06v.12zm0 0-.207-116.762.104.179-101.16-58.308h.291l-101.077 58.452.187-.324-.084 116.761-.145-.251 101.076 58.453h-.206z" opacity=".4"/><path d="m769.314 965.053-101.015 58.56-.103.06-.104-.06-101.16-58.308-.145-.084v-.168l-.084-116.761v-.216l.187-.108 101.16-58.309.146-.084.146.084 101.076 58.454.104.06v.12zm0 0-.207-116.762.104.179-101.16-58.308h.291l-101.077 58.452.187-.324-.084 116.761-.145-.251 101.076 58.453h-.207z" opacity=".4"/><path d="m1072.314 207.053-101.015 58.56-.103.06-.104-.06-101.16-58.308-.145-.084v-.168l-.084-116.761v-.216l.187-.108 101.16-58.309.146-.084.146.084 101.076 58.454.104.06v.12zm0 0-.207-116.762.104.179-101.161-58.307h.291l-101.076 58.452.187-.324-.084 116.761-.145-.251 101.076 58.453h-.206z" opacity=".4"/></g></svg>