<svg viewBox="0 0 415.77 377.92" xmlns="http://www.w3.org/2000/svg"><path d="m207.89 174.28v29.36 35.96 29.35l56.56 32.66v-29.36-35.96-29.35z" fill="#0565d8"/><path d="m151.33 206.94v29.35 35.96 29.36l56.56-32.66v-29.35-35.96-29.36z" fill="#055aad"/><path d="m264.45 76.32-56.56 32.65-56.56-32.65-56.57 32.65 56.57 32.66 56.56 32.65 56.56-32.65 56.56-32.66z" fill="#50a5f9"/><path d="m151.33 141.63-56.57-32.66v65.31 29.36 35.96 29.35l56.57 32.66v-29.36-35.96-29.35l56.56 32.66v-65.32z" fill="#2b94fc"/><path d="m264.45 141.63-56.56 32.65v65.32l56.56-32.66v29.35 35.96 29.36l56.56-32.66v-29.35-35.96-29.36-65.31z" fill="#127bf9"/></svg>