<svg height="254" viewBox="0 0 226 254" width="226" xmlns="http://www.w3.org/2000/svg"><g fill="none" fill-rule="evenodd"><path d="m225.28 180.22v-106.1c-.007996-7.3313429-3.926744-14.1014763-10.28-17.76l-91.89-53c-6.343274-3.65991087-14.156726-3.65991087-20.5 0l-91.86 53c-6.34472719 3.6631295-10.25231532 10.4337407-10.25 17.76v106.1c-.00946881 7.333403 3.89907793 14.113302 10.25 17.78l91.89 53c6.343274 3.659911 14.156726 3.659911 20.5 0l91.86-53c6.359443-3.662093 10.279151-10.441509 10.28-17.78z" fill="#c1c1c1" opacity=".4"/><g transform="translate(31 46)"><path d="m81.89 70.66v21.02 25.74 21.01l40.49 23.38v-21.02-25.73-21.02z" fill="#0565d8"/><path d="m41.4 94.04v21.02 25.73 21.02l40.49-23.38v-21.01-25.74-21.02z" fill="#055aad"/><path d="m122.38.53-40.49 23.38-40.49-23.38-40.49 23.38 40.49 23.38 40.49 23.37 40.49-23.37 40.49-23.38z" fill="#50a5f9"/><path d="m41.4 47.29-40.49-23.38v46.75 21.02 25.74 21.01l40.49 23.38v-21.02-25.73-21.02l40.49 23.38v-46.76z" fill="#2b94fc"/><path d="m122.38 47.29-40.49 23.37v46.76l40.49-23.38v21.02 25.73 21.02l40.49-23.38v-21.01-25.74-21.02-46.75z" fill="#127bf9"/></g></g></svg>