<svg enable-background="new 0 0 32 32" viewBox="0 0 32 32" xmlns="http://www.w3.org/2000/svg" xmlns:xlink="http://www.w3.org/1999/xlink"><linearGradient id="a"><stop offset="0" stop-color="#22f2ad"/><stop offset="1" stop-color="#ab21f4"/></linearGradient><linearGradient id="b" gradientUnits="userSpaceOnUse" x1="7.3282" x2="24.6718" xlink:href="#a" y1="15.9999" y2="15.9999"/><linearGradient id="c" gradientTransform="matrix(.9962 -.0872 .0872 .9962 -1.8649 28.2864)" gradientUnits="userSpaceOnUse" x1="9.5824" x2="28.1532" xlink:href="#a" y1="-10.6826" y2="-10.6826"/><linearGradient id="d" gradientTransform="matrix(.9848 -.1736 .1736 .9848 -4.7816 53.4233)" gradientUnits="userSpaceOnUse" x1="17.0649" x2="36.8638" xlink:href="#a" y1="-33.2462" y2="-33.2462"/><linearGradient id="e" gradientTransform="matrix(.9659 -.2588 .2588 .9659 -8.6647 81.6514)" gradientUnits="userSpaceOnUse" x1="30.3028" x2="51.3295" xlink:href="#a" y1="-57.0308" y2="-57.0308"/><linearGradient id="f" gradientTransform="matrix(.9397 -.342 .342 .9397 -10.8661 113.9776)" gradientUnits="userSpaceOnUse" x1="47.6289" x2="69.8837" xlink:href="#a" y1="-82.8802" y2="-82.8802"/><linearGradient id="g" gradientTransform="matrix(.9063 -.4226 .4226 .9063 -2.7907 142.8135)" gradientUnits="userSpaceOnUse" x1="58.8829" x2="82.3648" xlink:href="#a" y1="-106.9909" y2="-106.9909"/><linearGradient id="h" gradientTransform="matrix(.866 -.5 .5 .866 4.3961 164.2672)" gradientUnits="userSpaceOnUse" x1="71.7499" x2="96.6158" xlink:href="#a" y1="-122.6012" y2="-122.6012"/><path d="m28.272 23.072-12.272 7.086-12.272-7.086v-14.154l12.272-7.076 12.272 7.076z" fill="#211920"/><path d="m20.336 23.51h-8.672l-4.336-7.51 4.336-7.51h8.672l4.336 7.51zm-8.594-.135h8.516l4.257-7.375-4.258-7.375h-8.516l-4.256 7.375z" fill="url(#b)"/><path d="m12.076 24.416-.023-.032-5.303-7.575.016-.035 3.908-8.38 9.25-.809.023.032 5.303 7.574-.016.035-3.908 8.38zm-5.171-7.62 5.236 7.478 9.095-.796 3.858-8.274-5.236-7.478-9.095.796z" fill="url(#c)"/><path d="m12.614 25.302-.025-.03-6.338-7.554.014-.037 3.372-9.265.038-.006 9.711-1.712.025.03 6.338 7.554-.014.037-3.372 9.266-.039.007zm-6.209-7.61 6.263 7.464 9.595-1.692 3.332-9.156-6.263-7.464-9.595 1.692z" fill="url(#d)"/><path d="m13.279 26.155-.028-.028-7.406-7.407 2.721-10.154.038-.01 10.117-2.711.028.028 7.406 7.406-.01.038-2.711 10.118-.038.01zm-7.283-7.475 7.323 7.324 10.004-2.68 2.681-10.004-7.323-7.324-10.004 2.68z" fill="url(#e)"/><path d="m14.068 26.958-.03-.025-8.494-7.127.007-.038 1.926-10.92.036-.013 10.42-3.792.03.025 8.494 7.127-.007.038-1.926 10.92-.036.013zm-8.377-7.206 8.405 7.052 10.309-3.752 1.905-10.804-8.405-7.052-10.309 3.752z" fill="url(#f)"/><path d="m14.977 27.696-9.618-6.734.003-.039 1.02-11.658.035-.016 10.605-4.945 9.618 6.734-.003.039-1.02 11.657-.035.016zm-9.476-6.8 9.49 6.645 10.499-4.896 1.01-11.54-9.49-6.645-10.5 4.895z" fill="url(#g)"/><path d="m16 28.433-10.767-6.216v-12.434l.067-.038 10.7-6.178 10.767 6.216v12.433l-.067.039zm-10.497-6.373 10.497 6.06 10.496-6.06v-12.12l-10.496-6.06-10.497 6.06z" fill="url(#h)"/><g fill="#fff"><path d="m10.373 15.38c.117.099.176.235.176.408s-.059.309-.176.407-.28.147-.487.147h-.435v.512h-.172v-1.623h.608c.206 0 .369.05.486.149zm-.122.706c.085-.07.127-.17.127-.298 0-.131-.042-.232-.127-.303-.085-.07-.208-.105-.369-.105h-.431v.812h.431c.16-.001.283-.036.369-.106z"/><path d="m11.186 15.688c.076-.042.171-.063.284-.063v.16l-.039-.002c-.128 0-.229.039-.302.118-.072.079-.109.189-.109.332v.621h-.165v-1.22h.158v.239c.039-.081.097-.143.173-.185z"/><path d="m11.937 16.786c-.094-.053-.169-.127-.223-.221s-.081-.201-.081-.32.027-.226.081-.32.128-.168.223-.22c.094-.053.2-.079.318-.079s.223.026.318.079.168.126.221.22.08.201.08.32-.027.226-.08.32-.127.168-.221.221-.2.08-.318.08-.225-.027-.318-.08zm.55-.125c.069-.039.123-.095.161-.168.039-.073.058-.155.058-.248s-.019-.175-.058-.248c-.038-.073-.092-.129-.161-.168-.068-.039-.146-.059-.233-.059s-.164.02-.233.059-.123.096-.162.168c-.039.073-.059.155-.059.248s.019.176.059.248c.039.073.093.129.162.168s.146.059.233.059.164-.02.233-.059z"/><path d="m13.852 16.78c-.031.028-.069.049-.115.064-.045.015-.093.022-.142.022-.114 0-.203-.031-.265-.093-.061-.062-.092-.149-.092-.262v-.737h-.218v-.139h.218v-.267h.164v.267h.371v.139h-.371v.728c0 .073.018.128.054.166s.089.057.157.057c.034 0 .067-.005.098-.016.032-.011.059-.026.082-.046z"/><path d="m14.288 16.786c-.094-.053-.168-.127-.223-.221-.054-.094-.081-.201-.081-.32s.027-.226.081-.32.128-.168.223-.22c.094-.053.2-.079.318-.079s.224.026.318.079.168.126.222.22c.053.094.08.201.08.32s-.026.226-.08.32c-.053.094-.127.168-.222.221-.094.053-.2.08-.318.08s-.224-.027-.318-.08zm.55-.125c.069-.039.122-.095.161-.168.038-.073.058-.155.058-.248s-.019-.176-.057-.248c-.039-.073-.092-.129-.161-.168s-.146-.059-.233-.059c-.086 0-.164.02-.233.059s-.123.096-.162.168c-.039.073-.059.155-.059.248s.02.176.059.248c.039.073.093.129.162.168.068.039.146.059.233.059.086 0 .164-.02.232-.059z"/><path d="m15.703 16.801c-.106-.042-.187-.096-.245-.162l.042-.056c.054.062.129.112.226.152.097.039.2.059.31.059.162 0 .285-.032.368-.096s.124-.146.124-.247c0-.077-.022-.139-.065-.187-.043-.047-.097-.083-.16-.107s-.15-.049-.26-.075c-.117-.029-.212-.058-.283-.086s-.131-.07-.181-.128c-.05-.057-.074-.134-.074-.23 0-.076.02-.145.06-.209.04-.063.101-.114.184-.152.082-.038.186-.057.31-.057.088 0 .175.013.261.039s.159.063.219.109l-.035.063c-.063-.046-.134-.082-.212-.105-.078-.024-.155-.036-.231-.036-.157 0-.277.033-.358.099s-.122.149-.122.249c0 .079.022.142.066.189s.098.083.162.108.15.05.258.077c.118.029.212.058.283.085s.131.069.18.125c.048.056.073.132.073.226 0 .076-.02.145-.061.209-.041.063-.104.114-.189.151s-.19.056-.316.056c-.116 0-.228-.021-.334-.063z"/><path d="m17.143 16.784c-.09-.052-.161-.124-.213-.217-.051-.093-.077-.198-.077-.315s.026-.223.077-.315c.052-.093.123-.165.213-.217.091-.052.193-.078.308-.078.091 0 .176.017.254.052s.142.086.191.154l-.058.049c-.043-.06-.098-.106-.166-.137-.067-.031-.141-.046-.221-.046-.099 0-.188.023-.268.068-.079.046-.142.109-.186.19-.045.081-.067.174-.067.279s.022.199.067.281c.044.082.107.146.186.191.08.046.169.068.268.068.08 0 .154-.015.221-.046s.122-.077.166-.137l.058.046c-.049.068-.113.119-.191.154s-.163.052-.254.052c-.115.001-.217-.024-.308-.076z"/><path d="m19.164 15.773c.087.087.13.212.13.375v.707h-.076v-.703c0-.142-.036-.251-.108-.326s-.174-.112-.307-.112c-.15 0-.268.044-.355.133-.086.089-.13.208-.13.358v.649h-.076v-1.721h.076v.805c.04-.093.103-.165.188-.218.085-.052.186-.079.304-.079.149.001.268.044.354.132z"/><path d="m19.949 16.784c-.09-.052-.161-.124-.212-.217s-.076-.198-.076-.315.025-.223.076-.315c.051-.093.122-.165.212-.217s.191-.078.303-.078c.113 0 .214.026.304.078s.16.124.211.217.076.198.076.315-.025.223-.076.315c-.051.093-.121.165-.211.217-.089.052-.191.078-.304.078-.112-.001-.213-.026-.303-.078zm.566-.06c.078-.046.139-.109.184-.191s.067-.175.067-.281-.022-.198-.067-.279-.106-.145-.184-.19c-.078-.046-.166-.068-.263-.068s-.185.023-.263.068c-.078.046-.14.109-.184.19-.045.081-.067.174-.067.279s.022.199.067.281c.044.082.106.146.184.191.078.046.166.068.263.068s.184-.023.263-.068z"/><path d="m21.373 16.784c-.09-.052-.161-.124-.212-.217s-.076-.198-.076-.315.025-.223.076-.315c.051-.093.122-.165.212-.217s.191-.078.303-.078c.113 0 .214.026.304.078s.16.124.211.217.076.198.076.315-.025.223-.076.315c-.051.093-.121.165-.211.217-.089.052-.191.078-.304.078-.112-.001-.213-.026-.303-.078zm.566-.06c.078-.046.139-.109.184-.191s.067-.175.067-.281-.022-.198-.067-.279-.106-.145-.184-.19c-.078-.046-.166-.068-.263-.068s-.185.023-.263.068c-.078.046-.14.109-.184.19-.045.081-.067.174-.067.279s.022.199.067.281c.044.082.106.146.184.191.078.046.166.068.263.068s.184-.023.263-.068z"/><path d="m22.645 15.134h.076v1.721h-.076z"/></g></svg>