<svg viewBox="0 0 1140 622" xmlns="http://www.w3.org/2000/svg"><g fill="#fff"><circle cx="499" cy="2" opacity=".7" r="1"/><circle cx="-11" cy="311" opacity=".7" r="1"/><circle cx="39" cy="265" opacity=".7" r="1"/><circle cx="151" cy="336" opacity=".7" r="1"/><circle cx="202" cy="283" opacity=".7" r="1"/><circle cx="151" cy="165" opacity=".7" r="1"/><circle cx="204" cy="117" opacity=".7" r="1"/><circle cx="168" cy="73" opacity=".7" r="1"/><circle cx="258" cy="97" opacity=".7" r="1"/><circle cx="30" cy="97" opacity=".7" r="1"/><circle cx="62" cy="108" opacity=".7" r="1"/><circle cx="59" cy="52" opacity=".7" r="1"/><circle cx="106" cy="51" opacity=".7" r="1"/><circle cx="83" cy="10" opacity=".7" r="1"/><circle cx="152" cy="46" opacity=".7" r="1"/><circle cx="209" cy="60" opacity=".7" r="1"/><circle cx="258" cy="34" opacity=".7" r="1"/><circle cx="598" cy="70" opacity=".7" r="1"/><circle cx="627" cy="37" opacity=".7" r="1"/><circle cx="668" cy="79" opacity=".7" r="1"/><circle cx="728" cy="71" opacity=".7" r="1"/><circle cx="700" cy="41" opacity=".7" r="1"/><circle cx="922" cy="66" opacity=".7" r="1"/><circle cx="1045" cy="64" opacity=".7" r="1"/><circle cx="1059" cy="37" opacity=".7" r="1"/><circle cx="1129" cy="7" opacity=".7" r="1"/><circle cx="1109" cy="48" opacity=".7" r="1"/><circle cx="920" cy="209" opacity=".7" r="1"/><circle cx="811" cy="218" opacity=".7" r="1"/><circle cx="1131" cy="90" opacity=".7" r="1"/><circle cx="940" cy="89" opacity=".7" r="1"/><circle cx="891" cy="160" opacity=".7" r="1"/><circle cx="1105" cy="161" opacity=".7" r="1"/><circle cx="1024" cy="130" opacity=".7" r="1"/><circle cx="791" cy="284" opacity=".7" r="1"/><circle cx="288" cy="256" opacity=".7" r="1"/><circle cx="240" cy="221" opacity=".7" r="1"/><circle cx="193" cy="256" opacity=".7" r="1"/><circle cx="114" cy="271" opacity=".7" r="1"/><circle cx="98" cy="326" opacity=".7" r="1"/><circle cx="131" cy="406" opacity=".7" r="1"/><circle cx="28" cy="376" opacity=".7" r="1"/><circle cx="1" cy="221" opacity=".7" r="1"/><circle cx="73" cy="185" opacity=".7" r="1"/><circle cx="35" cy="141" opacity=".7" r="1"/><circle cx="461" cy="76" opacity=".7" r="1"/><circle cx="404" cy="90" opacity=".7" r="1"/><circle cx="355" cy="64" opacity=".7" r="1"/><circle cx="778" cy="151" opacity=".7" r="1"/><circle cx="750" cy="121" opacity=".7" r="1"/><circle cx="782" cy="26" opacity=".7" r="1"/><circle cx="870" cy="39" opacity=".7" r="1"/><circle cx="1151" cy="180" opacity=".7" r="1"/><circle cx="1125" cy="251" opacity=".7" r="1"/><circle cx="1044" cy="220" opacity=".7" r="1"/><circle cx="400" cy="336" opacity=".7" r="1"/><circle cx="350" cy="382" opacity=".7" r="1"/><circle cx="238" cy="311" opacity=".7" r="1"/><circle cx="187" cy="364" opacity=".7" r="1"/><circle cx="149" cy="426" opacity=".7" r="1"/><circle cx="129" cy="366" opacity=".7" r="1"/><circle cx="196" cy="391" opacity=".7" r="1"/><circle cx="275" cy="376" opacity=".7" r="1"/><circle cx="291" cy="321" opacity=".7" r="1"/><circle cx="388" cy="426" opacity=".7" r="1"/><circle cx="297" cy="438" opacity=".7" r="1"/><circle cx="246" cy="491" opacity=".7" r="1"/><circle cx="255" cy="518" opacity=".7" r="1"/><circle cx="334" cy="503" opacity=".7" r="1"/><circle cx="350" cy="448" opacity=".7" r="1"/><circle cx="-1" cy="506" opacity=".7" r="1"/><circle cx="49" cy="552" opacity=".7" r="1"/><circle cx="161" cy="481" opacity=".7" r="1"/><circle cx="212" cy="534" opacity=".7" r="1"/><circle cx="250" cy="596" opacity=".7" r="1"/><circle cx="203" cy="561" opacity=".7" r="1"/><circle cx="124" cy="546" opacity=".7" r="1"/><circle cx="108" cy="491" opacity=".7" r="1"/><circle cx="18" cy="449" opacity=".7" r="1"/><circle cx="11" cy="596" opacity=".7" r="1"/><circle cx="321" cy="196" opacity=".7" r="1"/><circle cx="372" cy="143" opacity=".7" r="1"/><circle cx="284" cy="131" opacity=".7" r="1"/><circle cx="268" cy="186" opacity=".7" r="1"/><circle cx="502" cy="525" opacity=".7" r="1"/><circle cx="488" cy="498" opacity=".7" r="1"/><circle cx="418" cy="468" opacity=".7" r="1"/><circle cx="438" cy="509" opacity=".7" r="1"/><circle cx="416" cy="551" opacity=".7" r="1"/><circle cx="442" cy="622" opacity=".7" r="1"/><circle cx="872" cy="360" opacity=".7" r="1"/><circle cx="995" cy="362" opacity=".7" r="1"/><circle cx="1009" cy="389" opacity=".7" r="1"/><circle cx="1059" cy="378" opacity=".7" r="1"/><circle cx="955" cy="412" opacity=".7" r="1"/><circle cx="969" cy="439" opacity=".7" r="1"/><circle cx="1019" cy="428" opacity=".7" r="1"/><circle cx="925" cy="542" opacity=".7" r="1"/><circle cx="939" cy="569" opacity=".7" r="1"/><circle cx="989" cy="558" opacity=".7" r="1"/><circle cx="870" cy="217" opacity=".7" r="1"/><circle cx="1081" cy="336" opacity=".7" r="1"/><circle cx="1131" cy="420" opacity=".7" r="1"/><circle cx="1143" cy="358" opacity=".7" r="1"/><circle cx="890" cy="337" opacity=".7" r="1"/><circle cx="841" cy="266" opacity=".7" r="1"/><circle cx="1055" cy="265" opacity=".7" r="1"/><circle cx="974" cy="296" opacity=".7" r="1"/><circle cx="815" cy="452" opacity=".7" r="1"/><circle cx="829" cy="479" opacity=".7" r="1"/><circle cx="635" cy="532" opacity=".7" r="1"/><circle cx="649" cy="559" opacity=".7" r="1"/><circle cx="879" cy="468" opacity=".7" r="1"/><circle cx="901" cy="426" opacity=".7" r="1"/><circle cx="849" cy="548" opacity=".7" r="1"/><circle cx="709" cy="507" opacity=".7" r="1"/><circle cx="871" cy="506" opacity=".7" r="1"/><circle cx="1015" cy="492" opacity=".7" r="1"/><circle cx="1029" cy="519" opacity=".7" r="1"/><circle cx="1039" cy="478" opacity=".7" r="1"/><circle cx="1061" cy="436" opacity=".7" r="1"/><circle cx="412" cy="283" opacity=".7" r="1"/><circle cx="414" cy="117" opacity=".7" r="1"/><circle cx="468" cy="97" opacity=".7" r="1"/><circle cx="498" cy="256" opacity=".7" r="1"/><circle cx="450" cy="221" opacity=".7" r="1"/><circle cx="403" cy="256" opacity=".7" r="1"/><circle cx="614" cy="90" opacity=".7" r="1"/><circle cx="610" cy="336" opacity=".7" r="1"/><circle cx="560" cy="382" opacity=".7" r="1"/><circle cx="448" cy="311" opacity=".7" r="1"/><circle cx="397" cy="364" opacity=".7" r="1"/><circle cx="406" cy="391" opacity=".7" r="1"/><circle cx="485" cy="376" opacity=".7" r="1"/><circle cx="501" cy="321" opacity=".7" r="1"/><circle cx="598" cy="426" opacity=".7" r="1"/><circle cx="507" cy="438" opacity=".7" r="1"/><circle cx="560" cy="448" opacity=".7" r="1"/><circle cx="531" cy="196" opacity=".7" r="1"/><circle cx="582" cy="143" opacity=".7" r="1"/><circle cx="494" cy="131" opacity=".7" r="1"/><circle cx="478" cy="186" opacity=".7" r="1"/><circle cx="628" cy="468" opacity=".7" r="1"/><circle cx="720" cy="386" opacity=".7" r="1"/><circle cx="670" cy="432" opacity=".7" r="1"/><circle cx="611" cy="371" opacity=".7" r="1"/><circle cx="768" cy="418" opacity=".7" r="1"/><circle cx="810" cy="382" opacity=".7" r="1"/></g></svg>