<svg enable-background="new 0 0 1679.359 1056.221" viewBox="0 0 1679.359 1056.221" xmlns="http://www.w3.org/2000/svg"><path d="m552.612 238.208c-2.647 7.414-10.651 11.317-17.931 8.742-6.925-2.452-11.67-10.13-8.656-18.504 3.261-9.056 12.082-10.781 17.895-8.76 6.894 2.398 11.433 10.466 8.692 18.522" fill="#71d5f4"/><path d="m1134.034 673.445c-2.653 7.461-10.642 11.325-17.909 8.663-7.264-2.661-11.092-10.998-8.454-18.41 2.637-7.406 10.664-11.247 17.961-8.595 7.372 2.681 11.087 10.791 8.402 18.342" fill="#f4c544"/><path d="m912.943 274.096c-6.404-2.306-9.687-9.38-7.308-15.746 2.341-6.261 9.093-9.461 15.282-7.239 6.372 2.288 9.566 9.284 7.202 15.776-2.319 6.368-8.872 9.48-15.176 7.209" fill="#ee784c"/><path d="m1063.881 303.403c-2.291 6.421-8.784 9.582-15.082 7.345-6.427-2.282-9.683-9.189-7.391-15.683 2.211-6.268 8.973-9.539 15.186-7.347 6.44 2.27 9.627 9.129 7.287 15.685" fill="#f4c544"/><path d="m978.975 202.683c-2.254 6.163-8.961 9.392-15.03 7.237-6.253-2.22-9.49-9.197-7.23-15.576 2.262-6.386 8.868-9.538 15.171-7.241 6.296 2.295 9.429 9.18 7.089 15.58" fill="#f4c544"/><path d="m1249.093 498.077c2.25-6.293 8.75-9.486 14.879-7.311 6.164 2.188 9.466 9.375 7.162 15.591-2.256 6.09-9.108 9.313-15.08 7.093-6.122-2.273-9.206-9.089-6.961-15.373" fill="#ee784c"/><path d="m498.503 203.444c-2.26 6.15-9.021 9.323-15.021 7.05-6.024-2.282-9.216-9.325-7.002-15.45 2.204-6.105 9.004-9.353 15.023-7.177 6.242 2.257 9.352 9.176 7 15.577" fill="#ee784c"/><path d="m1333.031 634.936c-6.329-2.229-9.512-9.068-7.204-15.473 2.218-6.153 9.055-9.457 14.985-7.238 6.087 2.277 9.289 9.203 7.116 15.384-2.182 6.201-8.823 9.467-14.897 7.327" fill="#71d5f4"/><path d="m1132.187 243.051c-2.261 6.251-8.835 9.449-14.901 7.246-6.015-2.185-9.289-9.268-7.119-15.395 2.227-6.29 9.014-9.496 15.192-7.244 5.745 2.096 9.429 9.219 6.828 15.393" fill="#ee784c"/><path d="m1197.636 722.044c-2.69 6.527-8.848 9.291-14.807 7.056-6.616-2.481-9.114-9.089-6.878-15.177 2.568-6.991 9.584-8.859 14.839-6.894 4.767 1.78 9.193 7.742 6.846 15.015" fill="#71d5f4"/><path d="m1406.442 337.696c5.945 2.15 8.891 8.569 6.695 14.595-2.157 5.919-8.48 8.873-14.332 6.693-5.668-2.112-8.679-8.686-6.643-14.502 2.063-5.888 8.413-8.906 14.28-6.786" fill="#ee784c"/><path d="m831.127 158.824c5.662 2.025 8.642 8.457 6.591 14.23-2.039 5.747-8.238 8.767-13.835 6.739-5.646-2.047-8.682-8.558-6.642-14.241 2.046-5.688 8.309-8.723 13.886-6.728" fill="#f4c545"/><path d="m1195.76 525.947c2.035-5.704 8.295-8.72 13.875-6.682 5.677 2.073 8.622 8.457 6.572 14.243-2.014 5.685-8.352 8.748-13.874 6.706-5.656-2.091-8.62-8.528-6.573-14.267" fill="#ee784c"/><path d="m1161.081 330.819c5.354 1.48 8.785 7.798 6.644 13.823-2.282 6.419-8.884 8.398-13.608 6.577-5.613-2.163-8.252-7.882-6.458-13.683 1.785-5.774 8.494-8.896 13.422-6.717" fill="#71d5f4"/><path d="m517.745 125.737c2-5.44 7.85-8.244 13.174-6.314 5.452 1.976 8.287 8.249 6.23 13.785-2.008 5.406-7.863 8.178-13.207 6.255-5.548-1.998-8.281-8.053-6.197-13.726" fill="#f4c545"/><path d="m1019.963 583.527c-4.74-1.742-7.19-7.179-5.377-11.936 1.791-4.695 7.094-7.122 11.686-5.348 4.554 1.761 6.942 7.099 5.281 11.802-1.676 4.736-6.897 7.206-11.59 5.482" fill="#ee794d"/><path d="m1603.712 614.218c-.745-1.584-1.819-3.1-2.172-4.767-1.134-5.357 2.798-10.436 8.168-10.856 5.172-.404 9.567 3.705 9.642 9.014.078 5.529-4.44 9.797-9.899 9.334-.552-.046-1.101-.178-1.651-.268-1.364-.82-2.726-1.638-4.088-2.457" fill="#f4c545"/><path d="m965.849 167.388c-.597-.44-1.227-.84-1.783-1.326-3.45-3.016-4.141-7.867-1.723-11.942 2.13-3.593 6.717-5.13 10.732-3.597 4.236 1.618 6.521 5.984 5.585 10.665-.826 4.126-4.806 7.194-9.191 7.076-.553-.015-1.106-.066-1.658-.1-.652-.258-1.307-.517-1.962-.776" fill="#f4c545"/><path d="m1073.229 519.554c4.754 1.709 7.251 7.178 5.436 11.912-1.757 4.585-6.896 6.999-11.46 5.384-4.728-1.67-7.167-7.109-5.355-11.937 1.762-4.691 6.733-7.031 11.379-5.359" fill="#ee784c"/><path d="m978.255 640.134c1.72-4.723 6.726-7.123 11.311-5.424 4.634 1.715 7.008 7.036 5.239 11.744-1.767 4.708-6.791 7.097-11.367 5.406-4.631-1.71-6.933-6.92-5.183-11.726" fill="#f4c545"/><path d="m865.087 161.869c4.682 1.717 7.09 7.024 5.311 11.694-1.774 4.655-6.835 6.997-11.443 5.296-4.656-1.719-6.991-6.962-5.223-11.725 1.767-4.758 6.612-7.005 11.355-5.265" fill="#ee794d"/><path d="m1295.132 303.008c-.876 2.404-3.281 3.546-5.639 2.678-2.377-.875-3.5-3.377-2.611-5.821.873-2.396 3.3-3.554 5.643-2.691 2.367.872 3.495 3.395 2.607 5.834" fill="#ee784c"/><path d="m1355.765 326.265c-1.724 4.653-6.823 7.013-11.415 5.286-4.446-1.672-6.899-7.047-5.268-11.543 1.693-4.667 6.735-7.059 11.366-5.393 4.716 1.697 7.083 6.885 5.317 11.65" fill="#71d5f4"/><path d="m843.136 424.633c1.362.819 2.724 1.637 4.088 2.457 1.559 2.176 2.587 4.493 2.287 7.281-.388 3.6-2.864 6.652-6.4 7.71-3.5 1.046-7.065-.17-9.44-3.222-2.178-2.799-2.422-6.978-.585-9.977 2.262-3.695 5.288-4.974 10.05-4.249" fill="#71d5f4"/><path d="m576.065 305.457c.654.259 1.31.518 1.963.777 1.616 1.156 2.95 2.527 3.73 4.415 1.613 3.91.52 8.088-2.888 10.753-3.053 2.387-7.416 2.345-10.624-.102-2.945-2.248-4.23-6.886-2.869-10.363 1.519-3.881 5.461-6.201 9.586-5.644.368.051.734.109 1.102.164" fill="#71d5f4"/><path d="m1018.95 655.56c-4.722-1.67-7.025-6.601-5.289-11.327 1.646-4.48 6.477-6.81 10.895-5.253 4.574 1.614 6.98 6.808 5.286 11.419-1.655 4.508-6.391 6.751-10.892 5.161" fill="#ee794d"/><path d="m1272.167 688.071c-1.647 4.366-6.662 6.671-11.024 5.062-4.361-1.607-6.717-6.627-5.159-10.992 1.594-4.468 6.771-6.835 11.216-5.126 4.347 1.673 6.607 6.703 4.967 11.056" fill="#f4c545"/><path d="m866.217 465.563c-4.46-1.601-6.758-6.454-5.188-10.953 1.583-4.537 6.49-6.97 10.866-5.388 4.322 1.562 6.687 6.612 5.178 11.059-1.547 4.553-6.361 6.895-10.856 5.282" fill="#f4c545"/><path d="m763.982 634.14c.317-5.015 5.058-10.144 10.914-10.709 5.623-.543 11.04 2.847 12.977 8.189 2.178 6.013-.504 12.493-4.67 14.839-.021-.743-.034-1.482-.067-2.223-.375-9.333-9.49-14.767-17.887-10.669-.417.201-.845.382-1.267.573" fill="#f3c544"/><path d="m763.982 634.14c.423-.191.851-.372 1.268-.574 8.397-4.098 17.513 1.336 17.887 10.669.032.741.045 1.48.067 2.223-.124.173-.246.346-.366.519-.338.151-.678.3-1.015.457-8.34 3.951-17.26-1.133-18.076-10.301-.065-.742-.119-1.488-.178-2.231.138-.253.276-.508.413-.762" fill="#3f8927"/><path d="m763.568 634.903c.059.743.112 1.487.178 2.231.814 9.168 9.736 14.252 18.076 10.301.336-.158.677-.306 1.015-.459-1.293 6.621-6.798 10.753-13.336 10.012-6.359-.722-11.132-6.332-10.806-12.83.19-3.801 1.52-7.08 4.873-9.255" fill="#70d4f2"/><path d="m1050.53 216.556c-1.628 4.503-6.6 6.868-10.94 5.201-4.323-1.659-6.593-6.695-5.017-11.122 1.601-4.492 6.542-6.821 10.945-5.158 4.387 1.656 6.629 6.61 5.012 11.079" fill="#ee794d"/><path d="m1516.848 534.145c2.48 3.833 1.359 9.369-2.361 11.662-3.958 2.44-9.286 1.188-11.824-2.777-2.449-3.83-1.252-9.25 2.562-11.59 3.829-2.348 9.156-1.108 11.623 2.705" fill="#71d5f4"/><path d="m912.247 182.143c-1.589 4.303-6.187 6.463-10.447 4.909-4.346-1.585-6.484-6.269-4.892-10.72 1.593-4.458 6.31-6.702 10.611-5.047 4.237 1.631 6.347 6.475 4.728 10.858" fill="#ee794d"/><path d="m834.024 363.256c4.311 1.518 6.564 6.101 5.125 10.42-1.43 4.296-6.157 6.585-10.411 5.042-4.271-1.548-6.393-6.16-4.835-10.506 1.563-4.352 5.859-6.457 10.121-4.956" fill="#71d5f4"/><path d="m1329.791 300.96c-1.456 3.918-5.668 5.979-9.512 4.655-3.977-1.369-6.148-6.006-4.701-10.041 1.442-4.018 5.78-6.1 9.725-4.665 4.059 1.475 6.032 5.894 4.488 10.051" fill="#f4c545"/><path d="m820.602 531.383c4.062 1.409 6.208 5.992 4.704 10.056-1.429 3.857-5.776 5.959-9.619 4.649-3.956-1.349-6.184-6.128-4.71-10.113 1.419-3.842 5.782-5.925 9.625-4.592" fill="#ee794d"/><path d="m1177.029 538.088c-1.453 4.108-5.392 6.013-9.421 4.56-4.009-1.448-5.796-5.397-4.495-9.519 1.346-4.269 5.57-6.006 9.368-4.826 3.948 1.227 5.988 5.718 4.548 9.785" fill="#71d5f4"/><path d="m1103.676 507.647c3.39-4.433 9.347-5.856 14.223-3.399 5.015 2.528 7.461 8.378 5.738 13.728-1.744 5.423-6.908 8.763-12.485 8.074.39-.744.821-1.469 1.16-2.234 1.871-4.207 1.507-8.218-1.26-11.911-1.829-2.442-4.484-3.586-7.376-4.258" fill="#f3c544"/><path d="m1110.449 526.318c-2.841 3.562-7.337 5.11-11.769 3.694-4.33-1.383-7.243-4.305-7.855-8.972-.608-4.647.928-8.549 4.895-11.177 2.172-1.437 4.551-2.655 7.361-1.952-.381.748-.796 1.48-1.138 2.243-2.237 4.986-.734 10.906 3.719 13.952 1.43.98 3.182 1.488 4.787 2.212" fill="#70d4f2"/><path d="m1110.449 526.318c-1.605-.724-3.357-1.232-4.787-2.211-4.453-3.045-5.956-8.966-3.719-13.952.343-.764.757-1.496 1.138-2.243.199-.089.399-.178.596-.266 2.891.672 5.545 1.817 7.375 4.259 2.768 3.693 3.132 7.703 1.261 11.91-.34.766-.77 1.49-1.16 2.234-.236.091-.47.18-.704.269" fill="#3f8927"/><path d="m1175.348 368.226c-1.269 3.517-5.168 5.387-8.661 4.152-3.554-1.256-5.426-5.32-4.119-8.937 1.285-3.556 5.099-5.379 8.627-4.123 3.569 1.272 5.453 5.308 4.153 8.908" fill="#f4c545"/><path d="m766.99 521.959c-3.594-1.251-5.516-5.258-4.249-8.859 1.246-3.542 5.1-5.448 8.615-4.266 3.506 1.18 5.478 5.333 4.235 8.923-1.225 3.54-5.085 5.425-8.601 4.202" fill="#ee794d"/><path d="m1423.152 420.245c3.605 1.298 5.399 5.269 4.042 8.94-1.319 3.568-5.2 5.372-8.674 4.033-3.419-1.317-5.228-5.286-4.008-8.793 1.223-3.515 5.176-5.428 8.64-4.18" fill="#f4c545"/><path d="m628.4 323.559c-1.398 3.564-5.229 5.235-8.742 3.815-3.405-1.378-5.101-5.351-3.778-8.853 1.335-3.53 5.29-5.356 8.71-4.018 3.551 1.386 5.242 5.406 3.81 9.056" fill="#f4c645"/><path d="m1293.355 479.862c1.275-3.54 5.169-5.432 8.616-4.184 3.365 1.218 5.244 5.313 4.034 8.786-1.243 3.563-5.097 5.477-8.581 4.259-3.703-1.294-5.437-5.069-4.069-8.861" fill="#71d5f4"/><path d="m1394.782 573.003c-3.482-1.301-5.274-5.172-4.025-8.699 1.248-3.535 5.108-5.379 8.613-4.118 3.61 1.297 5.47 5.329 4.104 8.894-1.358 3.543-5.14 5.25-8.692 3.923" fill="#ee794d"/><path d="m1132.752 219.357c-1.195 3.411-5.073 5.363-8.367 4.213-3.414-1.195-5.361-5.222-4.208-8.711 1.146-3.477 5.271-5.523 8.629-4.282 3.424 1.265 5.198 5.21 3.946 8.78" fill="#71d5f4"/><path d="m1165.233 651.963c.558-1.178 1.028-2.406 1.689-3.523 3.008-5.084 9.101-7.015 14.614-4.684 5.159 2.182 8.135 8.203 6.741 13.638-1.384 5.4-5.072 8.688-10.296 9.182.082-1.019.243-2.036.237-3.051-.054-7.376-6.859-12.419-12.651-11.331-.099-.094-.209-.172-.334-.231" fill="#f3c544"/><path d="m1165.233 651.963c.124.059.235.137.335.231-1.156 3.928-.078 7.368 2.405 10.426 2.468 3.036 5.877 4.097 9.646 4.277-1.645 5.673-6.414 9.282-11.842 8.592-5.411-.688-9.453-3.737-10.467-10.078-.896-5.621 2.474-11.015 7.77-12.826.705-.24 1.436-.416 2.153-.622" fill="#70d4f2"/><path d="m1177.619 666.898c-3.769-.179-7.179-1.24-9.647-4.277-2.482-3.056-3.56-6.498-2.404-10.425 5.791-1.089 12.596 3.955 12.65 11.329.007 1.017-.154 2.034-.237 3.051-.116.114-.236.221-.362.322" fill="#3f8927"/><path d="m1612.956 520.162c.642-5.292 5.851-9.816 11.893-9.124 6.057.695 10.307 5.794 10.012 11.865-.26 5.367-3.92 9.56-9.166 10.495.606-4.963-.96-8.948-5.223-11.763-2.318-1.53-4.89-1.603-7.516-1.473" fill="#f3c544"/><path d="m1625.329 533.798c-.584 4.111-4.176 7.697-8.468 8.457-6.032 1.068-11.529-2.834-12.714-8.969-1.126-5.82 3.134-12.271 8.447-12.772-.295 4.671 1.035 8.605 5.037 11.391 2.337 1.629 4.975 1.898 7.698 1.893" fill="#70d4f3"/><path d="m1625.329 533.798c-2.723.005-5.362-.263-7.699-1.893-4.002-2.787-5.331-6.72-5.037-11.391.135-.105.254-.222.363-.352 2.625-.129 5.198-.055 7.514 1.473 4.262 2.815 5.829 6.801 5.223 11.764-.119.133-.241.266-.364.399" fill="#3f8927"/><path d="m1107.691 315.007c-1.229 3.152-4.756 4.79-7.817 3.626-3.184-1.211-4.826-4.862-3.641-8.091 1.201-3.272 4.87-4.973 8.004-3.711 3.14 1.265 4.703 4.967 3.454 8.176" fill="#ee7a4f"/><path d="m881.06 220.775c-1.184 3.154-4.669 4.817-7.772 3.709-3.297-1.176-4.948-4.96-3.621-8.303 1.243-3.134 4.768-4.72 7.849-3.531 3.152 1.217 4.757 4.897 3.544 8.125" fill="#f4c645"/><path d="m1157.971 265.748c-1.177 3.369-4.653 5.064-7.891 3.848-3.131-1.174-4.795-4.927-3.599-8.118 1.174-3.132 4.699-4.828 7.779-3.743 3.209 1.13 4.866 4.709 3.711 8.013" fill="#f4c645"/><path d="m1342.632 354.623c1.165-3.36 4.647-5.061 7.897-3.858 3.115 1.152 4.814 4.943 3.641 8.119-1.136 3.074-4.766 4.82-7.8 3.756-3.18-1.117-4.873-4.746-3.738-8.017" fill="#f4c645"/><path d="m1412.295 603.57c-3.228-1.168-4.872-4.736-3.696-8.021 1.139-3.181 4.578-4.884 7.71-3.82 3.307 1.122 5.049 4.912 3.781 8.23-1.21 3.169-4.634 4.755-7.795 3.611" fill="#f4c645"/><path d="m1263.479 207.542c3.44-.014 6.196 2.543 6.296 5.84.103 3.412-2.981 6.458-6.47 6.386-3.364-.069-6.109-2.783-6.141-6.072-.032-3.381 2.8-6.14 6.315-6.154" fill="#ee7a4f"/><path d="m1410.317 403.475c3.111 1.085 4.883 4.873 3.768 8.057-1.101 3.149-4.588 4.909-7.704 3.889-3.251-1.064-4.984-4.604-3.877-7.917 1.123-3.365 4.593-5.152 7.813-4.029" fill="#f4c645"/><path d="m682.961 192.979c3.302 1.171 4.944 4.614 3.778 7.923-1.178 3.342-4.666 5.032-7.893 3.822-3.204-1.202-4.778-4.749-3.576-8.059 1.176-3.239 4.483-4.824 7.691-3.686" fill="#f4c545"/><path d="m690.476 349.375c-1.221 3.27-4.455 4.795-7.709 3.631-3.264-1.166-4.959-4.69-3.822-7.944 1.141-3.261 4.76-4.964 7.966-3.749 3.214 1.215 4.788 4.78 3.565 8.062" fill="#ee7a4f"/><path d="m830.864 396.234c3.165 1.069 4.939 4.742 3.853 7.98-1.099 3.274-4.723 5.077-7.9 3.927-3.075-1.111-4.725-4.593-3.69-7.786 1.099-3.393 4.511-5.21 7.737-4.121" fill="#f4c545"/><path d="m1206.082 269.501c-3.287-1.143-4.977-4.604-3.866-7.916 1.109-3.301 4.661-5.033 7.9-3.851 3.258 1.189 4.797 4.631 3.579 8.006-1.199 3.326-4.366 4.889-7.613 3.761" fill="#f4c545"/><path d="m770.931 460.679c-3.331-1.168-4.967-4.564-3.814-7.909 1.152-3.333 4.67-5.041 7.891-3.833 3.193 1.198 4.828 4.811 3.647 8.063-1.161 3.203-4.52 4.802-7.724 3.679" fill="#ee7a4f"/><path d="m888.063 487.826c1.163-3.23 4.506-4.897 7.669-3.822 3.247 1.104 5.023 5.017 3.752 8.271-1.2 3.067-4.848 4.755-7.842 3.627-3.17-1.195-4.763-4.787-3.579-8.076" fill="#ee794d"/><path d="m917.618 528.623c-3.315-1.181-4.876-4.549-3.677-7.935 1.169-3.297 4.385-4.933 7.589-3.859 3.365 1.127 5.105 4.829 3.836 8.158-1.218 3.199-4.567 4.769-7.748 3.636" fill="#f4c545"/><path d="m1207.866 299.954c-1.153 3.134-4.682 4.743-7.765 3.542-3.049-1.188-4.684-4.764-3.585-7.845 1.099-3.085 4.714-4.823 7.746-3.724 3.202 1.16 4.812 4.748 3.604 8.027" fill="#72d5f4"/><path d="m709.728 340.693c-3.093-1.163-4.699-4.631-3.604-7.785 1.06-3.049 4.714-4.828 7.745-3.77 3.085 1.078 4.862 4.989 3.66 8.055-1.224 3.128-4.675 4.676-7.801 3.5" fill="#72d5f4"/><path d="m1380.097 372.95c1.146-3.193 4.564-4.86 7.655-3.737 3.013 1.095 4.719 4.707 3.678 7.787-1.122 3.317-4.655 5.007-7.881 3.769-3.069-1.175-4.597-4.636-3.452-7.819" fill="#72d5f4"/><path d="m1050.571 627.457c3.084 1.025 4.823 4.587 3.77 7.729-1.011 3.024-4.45 4.768-7.451 3.778-3.153-1.041-4.787-4.46-3.676-7.691 1.099-3.193 4.276-4.841 7.357-3.816" fill="#f4c645"/><path d="m704.289 177.307c-1.045 2.889-4.723 4.593-7.625 3.534-3.101-1.133-4.765-4.747-3.599-7.82 1.118-2.949 4.701-4.619 7.62-3.547 3.078 1.131 4.731 4.72 3.604 7.833" fill="#71d5f4"/><path d="m1193.561 679.325c-3.225-1.169-4.717-4.454-3.512-7.725 1.17-3.17 4.331-4.667 7.456-3.53 3.13 1.138 4.729 4.63 3.556 7.759-1.173 3.13-4.383 4.627-7.5 3.496" fill="#ee7a4f"/><path d="m1142.709 360.607c-1.07 3.174-4.229 4.812-7.353 3.816-3.146-1.004-4.855-4.463-3.789-7.666 1.034-3.104 4.324-4.803 7.385-3.809 3.146 1.02 4.835 4.465 3.757 7.659" fill="#f4c645"/><path d="m967.047 635.128c-3.217-1.168-4.707-4.461-3.505-7.734 1.154-3.136 4.364-4.646 7.469-3.512 3.166 1.154 4.724 4.581 3.533 7.76-1.166 3.117-4.388 4.615-7.497 3.486" fill="#ee7a4f"/><path d="m946.456 197.493c-1.225 3.17-4.312 4.53-7.528 3.315-3.233-1.221-4.733-4.583-3.46-7.759 1.189-2.968 4.594-4.442 7.65-3.311 3.244 1.199 4.629 4.417 3.338 7.755" fill="#72d5f4"/><path d="m768.193 276.868c-3.076-1.094-4.713-4.379-3.726-7.472.995-3.12 4.572-4.826 7.725-3.69 3.142 1.133 4.78 4.641 3.623 7.761-1.08 2.92-4.583 4.482-7.622 3.401" fill="#72d5f4"/><path d="m1078.725 243.648c-3.024-1.065-4.68-4.39-3.707-7.44.957-2.998 4.458-4.754 7.426-3.725 2.979 1.033 4.64 4.463 3.625 7.487-1.073 3.189-4.234 4.774-7.344 3.678" fill="#72d5f4"/><path d="m1073.326 658.815c-3.201-1.142-4.66-4.247-3.506-7.458 1.152-3.2 4.46-4.808 7.459-3.623 2.954 1.165 4.475 4.671 3.334 7.692-1.15 3.052-4.224 4.482-7.287 3.389" fill="#71d5f4"/><path d="m1241.906 312.368c3.245 1.127 4.749 4.164 3.655 7.375-1.059 3.106-4.473 4.834-7.408 3.749-2.923-1.079-4.557-4.652-3.49-7.633 1.085-3.031 4.218-4.542 7.243-3.491" fill="#71d5f4"/><path d="m1434.954 564.473c-5.712-.834-9.574-3.987-11.382-9.439-1.653-4.985-.664-9.641 2.69-13.623 4.338-5.151 10.199-5.84 15.204-4.01 5.726 2.095 9.388 8.174 8.841 14.188-.117 1.274-.579 2.514-.88 3.771-.487-.279-.955-.594-1.46-.825-5.534-2.523-11.49.399-12.792 6.332-.254 1.163-.156 2.402-.221 3.606" fill="#70d4f3"/><path d="m1449.556 555.743c3.386 3.046 4.301 7.15 2.464 11.05-1.728 3.673-5.53 5.635-9.688 4.996-3.521-.54-6.167-3.179-6.999-6.982 6.607-.093 11.384-3.057 14.223-9.064" fill="#ee794d"/><path d="m1449.556 555.743c-2.839 6.006-7.616 8.97-14.222 9.064-.143-.092-.27-.204-.38-.334.065-1.204-.033-2.445.222-3.606 1.302-5.935 7.257-8.856 12.791-6.333.505.231.975.547 1.46.825.049.126.091.255.129.384" fill="#4b5e40"/><path d="m1062.768 595.205c-2.808-1.01-4.433-4.492-3.444-7.376 1.019-2.965 4.339-4.589 7.25-3.545 2.872 1.029 4.463 4.404 3.46 7.343-.996 2.925-4.407 4.604-7.266 3.578" fill="#ee7a4f"/><path d="m1004.016 197.234c-1.14 2.986-4.387 4.431-7.308 3.252-2.842-1.146-4.295-4.55-3.172-7.427 1.165-2.981 4.39-4.403 7.338-3.233 2.891 1.148 4.282 4.427 3.142 7.408" fill="#f4c645"/><path d="m1282.616 364.409c-.991 2.97-4.336 4.631-7.207 3.58-2.789-1.022-4.309-4.184-3.407-7.089.951-3.059 4.112-4.735 7.083-3.756 2.887.948 4.519 4.305 3.531 7.265" fill="#f4c645"/><path d="m1256.579 342.178c2.947.994 4.564 4.196 3.626 7.177-.94 2.985-4.182 4.635-7.13 3.629-2.956-1.009-4.571-4.205-3.632-7.184.942-2.989 4.163-4.623 7.136-3.622" fill="#ee794d"/><path d="m877.553 587.452c1.093-2.958 4.059-4.39 6.978-3.368 2.953 1.033 4.52 4.269 3.499 7.232-1.027 2.988-4.284 4.54-7.22 3.441-2.965-1.109-4.378-4.278-3.257-7.305" fill="#ee7a4f"/><path d="m1032.384 181.207c1.081-2.993 4.084-4.451 6.985-3.387 2.891 1.06 4.404 4.437 3.308 7.387-1.053 2.83-4.292 4.249-7.169 3.141-2.872-1.109-4.203-4.15-3.124-7.141" fill="#72d5f4"/><path d="m1178.87 282.173c-2.943-1.029-4.451-4.013-3.5-6.925.961-2.942 4.383-4.639 7.192-3.564 2.702 1.034 4.215 4.358 3.254 7.152-1.003 2.92-4.008 4.364-6.946 3.337" fill="#72d5f4"/><path d="m886.849 57.26c2.771 1.012 4.273 4.319 3.235 7.122-1.012 2.728-4.132 4.256-6.825 3.343-2.757-.936-4.36-4.248-3.415-7.058.961-2.856 4.2-4.431 7.005-3.407" fill="#f4c645"/><path d="m1195.149 614.089c2.902 1.028 4.332 4.047 3.312 6.996-.975 2.824-3.933 4.314-6.726 3.387-2.969-.984-4.514-4.266-3.397-7.213 1.051-2.773 4.025-4.158 6.811-3.17" fill="#ee7a4f"/><path d="m897.934 605.979c.618-4.329 3.453-7.275 7.526-7.82 4.088-.549 7.82 1.644 9.396 5.521 1.547 3.805.306 8.353-2.976 10.81-.667.5-1.408.903-2.114 1.352-.115-.068-.235-.133-.354-.199.67-3.589-.745-6.29-3.528-8.454-2.439-1.898-5.153-1.78-7.95-1.21" fill="#f3c544"/><path d="m909.412 615.644c.119.066.237.13.354.199-.875 2.841-2.199 5.335-5.071 6.665-3.259 1.509-6.364 1.285-9.163-.992-2.95-2.402-3.997-5.53-2.983-9.238.746-2.722 2.132-4.949 5.034-5.839.098.828.153 1.665.305 2.481 1.013 5.427 6.189 8.438 11.524 6.724" fill="#70d4f2"/><path d="m909.412 615.644c-5.335 1.713-10.511-1.298-11.524-6.725-.152-.816-.207-1.653-.305-2.481.117-.155.233-.308.352-.461 2.796-.57 5.51-.687 7.95 1.211 2.782 2.165 4.197 4.868 3.527 8.456" fill="#408a28"/><path d="m666.261 564.844c4.604-6.165 10.787-8.281 18.256-7.151 9.052 1.372 16.778 10.503 15.536 21.149-1.242 10.641-9.865 18.034-20.162 17.402-7.131-.438-12.26-4.086-15.684-10.249-.544-.978-.95-2.033-1.419-3.052.072-.13.141-.26.21-.391 5.102-1.316 8.152-8.703 5.789-13.743-.659-1.408-1.675-2.649-2.526-3.965" fill="#70d4f3"/><path d="m662.998 582.552c-.069.13-.139.261-.21.39-2.391.549-4.729.754-7.132-.176-4.671-1.809-7.32-6.143-6.727-11.324.534-4.69 4.2-8.501 8.903-9.088 2.991-.371 5.731.319 7.973 2.482-.317.563-.641 1.122-.948 1.69-2.743 5.096-3.93 10.372-1.859 16.026" fill="#ed784c"/><path d="m662.998 582.552c-2.071-5.654-.884-10.931 1.859-16.026.307-.568.631-1.127.948-1.69.153-.007.305-.006.457.009.851 1.316 1.866 2.556 2.526 3.963 2.362 5.041-.688 12.427-5.79 13.744" fill="#4b5e40"/><path d="m1292.124 453.778c-2.697-1.042-4.063-4.173-3.02-6.919 1.057-2.783 4.126-4.129 6.854-3.006 2.686 1.103 4.005 4.307 2.878 6.979-1.111 2.629-4.115 3.95-6.712 2.946" fill="#ee7a4f"/><path d="m801.754 496.248c-1.276-1.353-2.049-2.912-1.832-4.819.302-2.66 2.532-4.724 5.078-4.745 2.548-.021 4.72 1.753 5.212 4.257.513 2.608-.896 5.227-3.346 6.087-.696.244-1.462.284-2.194.418-.971-.399-1.945-.799-2.918-1.198" fill="#f4c645"/><path d="m801.754 496.248c.973.399 1.947.799 2.919 1.198.437.594.971 1.141 1.297 1.791 1.393 2.78.2 6.021-2.604 7.219-2.753 1.175-5.659-.138-6.753-3.05-.999-2.662.501-5.825 3.243-6.763.607-.207 1.264-.268 1.898-.395" fill="#72d5f4"/><path d="m762.13 491.422c-1.034 2.876-3.723 4.161-6.504 3.109-2.654-1.005-3.99-3.942-3.029-6.663.971-2.74 3.931-4.15 6.587-3.135 2.681 1.023 3.948 3.898 2.946 6.689" fill="#72d5f4"/><path d="m1058.064 679.274c1.26-4.749 4.992-7.337 9.73-6.748 4.211.524 7.446 4.239 7.583 8.707.144 4.687-2.849 8.289-7.626 9.177.026-.652.077-1.303.075-1.953-.01-3.328-1.381-5.894-4.148-7.801-1.736-1.197-3.657-1.276-5.614-1.382" fill="#f3c544"/><path d="m1067.284 690.696c-1.018 5.074-6.033 6.885-9.438 6.424-4.318-.587-7.697-4.62-7.536-9.078.158-4.388 2.963-7.603 7.422-8.507-.478 3.31.208 6.251 2.686 8.654 1.923 1.863 4.287 2.462 6.866 2.507" fill="#70d4f2"/><path d="m1067.284 690.696c-2.579-.045-4.944-.643-6.866-2.508-2.478-2.403-3.164-5.344-2.686-8.654.113-.085.223-.172.333-.26 1.957.106 3.877.185 5.613 1.382 2.767 1.907 4.138 4.473 4.148 7.801.001.65-.049 1.3-.075 1.952-.149.105-.305.2-.467.287" fill="#408a28"/><path d="m846.728 571.306c-3.884-.888-6.111-3.476-7.015-7.191-.906-3.727.042-7.074 2.853-9.728 2.564-2.42 5.617-3.21 9.062-2.198 3.759 1.106 5.982 3.654 6.863 7.41.213.902.239 1.848.35 2.774-.093.047-.184.102-.269.165-4.457-1.519-9.43 1.726-10.753 5.306-.418 1.134-.73 2.307-1.091 3.462" fill="#f3c544"/><path d="m858.841 562.373c.763.349 1.54.668 2.286 1.051 4.057 2.089 5.959 7.278 4.348 11.833-1.694 4.8-6.299 7.299-11.42 6.2-4.275-.919-7.306-5.174-6.986-9.805 6.805.356 11.006-2.972 11.501-9.114.086-.062.176-.117.271-.165" fill="#70d4f2"/><path d="m858.571 562.538c-.496 6.14-4.698 9.47-11.501 9.114-.105-.124-.219-.24-.342-.347.361-1.154.673-2.326 1.092-3.46 1.321-3.58 6.295-6.825 10.751-5.307" fill="#408a28"/><path d="m962.854 535.743c3.085-.52 6.055-.613 8.912 1.139 4.185 2.567 6.417 7.655 5.146 12.267-1.502 5.454-5.681 8.901-10.934 8.643-7.646-.375-11.419-6.93-10.558-11.888.536.145 1.066.341 1.61.426 2.769.426 5.193-.658 6.432-2.84 1.506-2.654 1.289-4.899-.714-7.396.051-.112.087-.23.106-.351" fill="#70d4f3"/><path d="m962.747 536.094c2.005 2.497 2.22 4.743.714 7.396-1.237 2.182-3.663 3.265-6.43 2.84-.546-.084-1.075-.28-1.612-.425-.102-.195-.205-.389-.307-.583.372-1.136.641-2.319 1.14-3.394 1.322-2.852 3.293-5.045 6.495-5.834" fill="#4b5e40"/><path d="m962.747 536.094c-3.202.79-5.173 2.983-6.495 5.834-.499 1.076-.768 2.258-1.14 3.394-3.131-2.149-3.869-5.704-1.814-8.717 1.903-2.788 5.435-3.478 8.389-1.637.397.248.779.515 1.167.774-.019.123-.055.24-.107.352" fill="#ee7a4f"/><path d="m1330.865 338.087c-.761 2.054-3.065 3.107-5.016 2.293-1.865-.779-2.817-2.938-2.161-4.894.721-2.143 2.828-3.176 4.918-2.411 2.082.763 3.042 2.894 2.259 5.012" fill="#f4c645"/><path d="m1331.856 601.308c-.718 1.984-2.819 2.982-4.759 2.26-1.971-.734-2.878-2.792-2.109-4.788.744-1.932 2.548-2.779 4.516-2.119 2.076.695 3.072 2.663 2.352 4.647" fill="#72d5f4"/><path d="m1078.568 322.4c.731-2.014 2.823-3.016 4.746-2.268 1.799.699 2.812 3.084 2.08 4.9-.698 1.734-2.893 2.757-4.63 2.159-1.919-.66-2.91-2.823-2.196-4.791" fill="#72d5f4"/><path d="m1279.777 606.989c-.043-4.829 2.673-8.75 7.137-10.3 4.201-1.458 9.038.08 11.741 3.736 2.773 3.745 2.798 9 .058 12.889-2.352 3.34-7.246 5.543-11.642 3.799.476-.575 1.026-1.105 1.414-1.735 2.034-3.291.526-7.736-3.052-9.081-2.003-.752-3.843-.127-5.656.692" fill="#ed784c"/><path d="m1279.777 606.989c1.813-.819 3.654-1.444 5.656-.691 3.578 1.344 5.086 5.79 3.052 9.081-.388.63-.938 1.16-1.414 1.735-.206.022-.411.044-.616.066-4.023-1.95-6.283-5.18-6.958-9.564z" fill="#4b5e40"/><path d="m1279.497 607.614c.674 4.384 2.934 7.615 6.958 9.564-2.781 1.65-6.056 1.083-7.884-1.362-1.896-2.539-1.535-5.736.926-8.202" fill="#70d4f2"/><path d="m612.352 232.977c-1.405-4.644 1.189-9.34 4.361-11.488 3.674-2.487 8.411-2.455 12.055.115 3.498 2.47 5.079 6.921 4.052 11.411-.939 4.101-4.399 7.208-8.773 7.877-1.981-5.469-5.786-8.248-11.695-7.915" fill="#f3c544"/><path d="m608.643 234.618c1.163-.428 2.325-.856 3.489-1.284.706 1.295 1.271 2.698 2.149 3.865 2.382 3.166 5.768 4.152 9.576 4.051 1.677 5.56-2.329 11.248-7.36 12.574-6.051 1.594-11.57-2.62-12.34-7.147.553.054 1.101.111 1.654.156 2.834.227 5.157-1.117 6.254-3.612 1.077-2.454.536-5.318-1.414-7.136-.603-.561-1.336-.981-2.008-1.467" fill="#70d4f2"/><path d="m608.643 234.618c.672.486 1.405.905 2.007 1.466 1.951 1.818 2.492 4.683 1.414 7.136-1.097 2.495-3.419 3.839-6.254 3.612-.553-.045-1.101-.103-1.654-.156-.178-.234-.355-.468-.531-.702-.577-4.561.944-8.305 4.387-11.304z" fill="#4b5e40"/><path d="m623.857 241.25c-3.807.101-7.195-.885-9.576-4.051-.878-1.167-1.442-2.57-2.149-3.865.071-.12.146-.239.221-.358 5.91-.332 9.713 2.447 11.696 7.915-.058.125-.121.243-.192.359" fill="#408a28"/><path d="m608.013 234.671c-3.442 2.999-4.964 6.743-4.387 11.304-2.912-1.669-4.011-4.47-2.93-7.466 1.109-3.069 3.665-4.41 7.317-3.838" fill="#ee7a4f"/><path d="m1272.481 415.19c-.469-3.337-.8-6.618.48-9.926 2.444-6.32 8.781-10.319 15.244-9.4 6.845.975 12.104 6.612 12.551 13.452.671 10.268-8.785 18.197-18.302 15.338-.441-.133-.845-.386-1.266-.582.713-1.389 1.629-2.714 2.092-4.181.843-2.668-.954-5.804-3.736-6.948-2.404-.986-5.074-.014-6.637 2.415-.143-.055-.286-.112-.426-.168" fill="#ee784c"/><path d="m1305.706 402.006c-3.903-1.431-5.94-5.948-4.447-9.854 1.478-3.866 5.787-5.824 9.609-4.365 3.794 1.449 5.722 5.748 4.33 9.659-1.399 3.932-5.643 5.972-9.492 4.56" fill="#f4c545"/><path d="m1272.906 415.358c1.562-2.429 4.233-3.401 6.637-2.415 2.781 1.143 4.578 4.279 3.736 6.948-.463 1.466-1.38 2.791-2.092 4.181-.199-.003-.399-.006-.597-.008-3.685-1.91-6.476-4.609-7.684-8.706" fill="#eb622b"/><path d="m1272.906 415.358c1.208 4.097 3.999 6.796 7.683 8.706-2.959 1.516-5.644 1.197-7.643-.91-2.05-2.161-2.215-4.975-.465-7.966.14.058.283.115.425.17" fill="#f4c645"/><path d="m663.943 241.935c2.352 3.787 2.212 8.42-.419 12.082-2.698 3.753-6.364 5.557-10.941 4.669-4.709-.914-7.924-3.755-8.978-8.561-1.453-6.622 2.502-12.656 8.752-13.576 2.877 3.917 6.742 5.702 11.586 5.386" fill="#70d4f3"/><path d="m672.926 226.64c2.193 6.631-1.875 13.237-7.711 14.833-.351.097-.73.081-1.097.116-2.812-4.072-6.694-5.853-11.609-5.426-2.695-4.26-2.275-8.557.404-12.509 2.729-4.027 6.725-5.634 11.613-4.637-.415.495-.862.968-1.24 1.49-1.832 2.532-1.239 6.302 1.216 7.855 3.154 1.992 6.115 1.35 8.069-1.748.118.015.236.025.355.026" fill="#f4c544"/><path d="m672.571 226.614c-1.954 3.099-4.915 3.741-8.067 1.748-2.457-1.552-3.049-5.323-1.218-7.854.378-.522.825-.994 1.24-1.49.165-.078.338-.094.517-.052 3.526 1.547 6.743 3.4 7.528 7.648" fill="#eb622b"/><path d="m652.509 236.163c4.915-.427 8.797 1.354 11.609 5.426-.054.118-.112.234-.174.347-4.844.316-8.71-1.47-11.586-5.386.051-.129.101-.258.151-.387" fill="#408a28"/><path d="m672.571 226.614c-.785-4.247-4.002-6.1-7.528-7.648 2.094-1.499 4.209-1.237 6.148.18 1.859 1.356 2.636 3.285 2.184 5.609-.124.634-.298 1.258-.448 1.886-.12-.003-.238-.012-.356-.027" fill="#ee7a4f"/><path d="m1361.835 245.103c-.903 3.262-3.357 5.096-6.467 4.829-2.946-.254-5.215-2.372-5.647-5.276-.411-2.755 1.311-5.788 4.065-6.53 1.462-.393 3.105-.117 4.665-.142.038.154.103.296.195.429-.724 3.082.852 5.066 3.189 6.69" fill="#f3c544"/><path d="m1358.646 238.413c-.092-.133-.157-.275-.195-.43.22-.402.43-.811.661-1.206 1.765-3 5.152-4.008 8.127-2.424 2.745 1.461 3.916 4.86 2.641 7.668-1.342 2.959-4.375 4.126-7.663 2.949.058-2.864-.582-5.35-3.571-6.557" fill="#70d4f2"/><path d="m1358.646 238.413c2.989 1.207 3.629 3.693 3.571 6.557-.134.024-.263.067-.382.132-2.336-1.623-3.913-3.607-3.189-6.689" fill="#408a28"/><path d="m725.705 304.118c-1.857-.833-3.912-1.39-5.534-2.552-4.734-3.392-6.052-9.63-3.445-15.034 2.377-4.925 7.89-7.455 13.393-6.145 6.377 1.516 10.227 8.546 8.31 15.186-.206.716-.468 1.416-.706 2.123-.197.097-.392.195-.59.292-4.726-.598-8.654 1.476-11.01 5.813-.136.109-.277.214-.418.317" fill="#f4c544"/><path d="m725.705 304.118c.141-.102.282-.208.418-.318 4.693.601 8.843-1.589 11.01-5.813.198-.097.393-.195.59-.292 1.69.772 3.523 1.33 5.043 2.356 4.443 2.997 6.068 9.021 3.821 14.272-2.211 5.167-7.658 7.942-13.138 6.72-6.646-1.481-10.131-8.603-8.629-13.972.276-.991.589-1.97.885-2.953" fill="#70d4f3"/><path d="m737.133 297.987c-2.167 4.222-6.317 6.413-11.01 5.813 2.357-4.337 6.284-6.411 11.01-5.813" fill="#408a28"/><path d="m454.42 487.748c6.428 2.347 9.549 9.253 7.143 15.808-2.327 6.344-8.967 9.503-15.239 7.25-6.399-2.299-9.689-9.334-7.359-15.775 2.376-6.563 9.61-9.785 15.455-7.283m-2.407 13.679c3.295 1.184 6.376-.356 7.55-3.773 1.104-3.216-.494-6.72-3.568-7.815-3.09-1.102-6.557.648-7.652 3.863-1.106 3.246.477 6.577 3.67 7.725" fill="#ed784c"/><path d="m452.013 501.427c-3.193-1.148-4.776-4.479-3.669-7.725 1.095-3.215 4.562-4.965 7.652-3.863 3.074 1.095 4.672 4.6 3.568 7.815-1.176 3.417-4.257 4.957-7.551 3.773" fill="#4b5e40"/><path d="m1362.777 582.274c.684-1.612 1.107-3.412 2.104-4.799 2.579-3.585 7.392-4.452 11.269-2.29 3.762 2.097 5.51 7.047 3.941 11.174-1.567 4.128-5.867 6.54-10.09 5.649-.637-.135-1.26-.33-1.889-.498-.113-.139-.229-.276-.344-.412.348-3.88-1.237-6.65-4.764-8.308-.075-.171-.15-.343-.227-.516" fill="#f3c544"/><path d="m1367.77 591.098c.114.136.23.275.344.413-.3.881-.562 1.776-.909 2.639-1.728 4.314-6.411 6.449-10.779 4.935-4.25-1.473-6.829-6.247-5.682-10.518 1.278-4.756 5.176-7.327 10.115-6.658.644.088 1.278.241 1.917.363.078.173.154.346.229.519-.253 3.826 1.352 6.585 4.765 8.307" fill="#70d4f2"/><path d="m1367.77 591.098c-3.413-1.722-5.018-4.48-4.764-8.306 3.526 1.658 5.111 4.427 4.764 8.306" fill="#408a28"/><path d="m946.151 617.12c-3.259 1.443-6.463 1.771-9.539-.475-3.109-2.273-4.297-5.402-3.581-9.087.7-3.594 2.987-6.011 6.578-6.888 3.613-.882 6.607.321 8.919 3.225.292.364.573.734.859 1.101-.057.128-.114.256-.172.385-5.403 1.657-6.902 7.23-3.063 11.391.009.115.009.233-.001.348" fill="#70d4f2"/><path d="m946.151 617.12c.01-.115.01-.233.001-.348 4.118-2.775 5.258-7.011 3.063-11.391.058-.129.114-.258.172-.385 1.283.179 2.636.157 3.835.578 3.619 1.265 5.367 5.421 3.918 8.971s-5.197 5.181-8.78 3.773c-.775-.304-1.475-.793-2.209-1.198" fill="#ed784c"/><path d="m949.216 605.381c2.195 4.379 1.054 8.616-3.064 11.391-3.84-4.16-2.339-9.734 3.064-11.391" fill="#4b5e40"/><path d="m734.799 455.747c2.093-5.753 5.807-8.716 11.003-8.776 5.919-.071 11.023 4.44 11.696 10.34.697 6.092-3.197 11.735-9.022 13.071-5.708 1.309-11.365-1.841-13.411-7.489-.285-.789-.481-1.61-.717-2.415.149-1.577.3-3.155.451-4.731" fill="#ee784c"/><path d="m734.799 455.747c-.151 1.577-.302 3.154-.451 4.73-1.172 1.591-2.605 2.848-4.499 3.516-.133-.092-.275-.169-.423-.231-1.194-2.675-3.341-3.526-6.108-3.193-.134-.09-.273-.171-.419-.239-.03-1.46-.316-2.972-.036-4.369.476-2.383 2.122-3.878 4.525-4.379 2.518-.526 4.566.329 6.128 2.352.453.585.857 1.208 1.283 1.813" fill="#f3c544"/><path d="m722.899 460.33c.146.07.285.149.42.24 1.22 2.623 3.332 3.542 6.106 3.192.15.062.291.139.423.232.494 1.661.505 3.28-.188 4.92-1.217 2.895-4.391 4.434-7.365 3.489-2.877-.913-4.628-4.169-3.942-7.171.579-2.54 2.24-4.001 4.546-4.902" fill="#70d4f2"/><path d="m729.426 463.762c-2.776.35-4.886-.57-6.107-3.194 2.766-.332 4.912.52 6.107 3.194" fill="#408a28"/><path d="m925.136 683.006c-1.633-4.861.297-10.338 4.635-13.163 4.253-2.77 9.947-2.272 13.696 1.197 3.942 3.65 4.855 9.478 2.25 14.358-2.313 4.339-7.215 6.572-12.025 5.482.259-.382.526-.759.775-1.147 1.847-2.883 1.46-5.953-1.001-8-2.406-2.001-4.979-1.713-7.639.842-.191.185-.46.29-.691.431" fill="#ee784c"/><path d="m926.107 690.529c.103.826.281 1.653.294 2.479.051 3.244-2.469 5.824-5.531 5.718-3.139-.11-5.582-2.709-5.498-5.852.081-3.108 2.737-5.581 5.893-5.37 1.088.073 2.156.434 3.234.663l-.003-.041c.155.269.312.538.467.807.382.532.762 1.064 1.144 1.596" fill="#72d5f4"/><path d="m925.136 683.006c.231-.141.5-.246.691-.431 2.66-2.555 5.233-2.843 7.639-.842 2.461 2.047 2.848 5.117 1.001 8-.249.389-.516.765-.775 1.147-.276.066-.549.13-.825.194-3.492-1.377-6.001-3.844-7.837-7.059.034-.335.071-.672.106-1.009" fill="#eb622b"/><path d="m925.029 684.016c1.836 3.215 4.345 5.684 7.837 7.06-2.4 1.672-4.594.78-6.757-.543-.383-.536-.765-1.068-1.147-1.601-.156-.267-.309-.537-.465-.804l.002.04c.177-1.384.354-2.769.53-4.152" fill="#f4c645"/><path d="m924.497 688.127c.155.269.311.537.466.806-.154-.268-.312-.536-.466-.806" fill="#fff"/><path d="m784.109 164.294c-3.62-2.209-5.342-5.323-4.598-9.618.659-3.804 4.135-6.793 8.023-6.888 3.893-.096 7.594 2.695 8.447 6.424 1.033 4.523-.853 7.763-4.561 10.171-.175-.004-.351-.017-.526-.037-2.047-1.351-4.107-1.598-6.188-.075z" fill="#71d5f4"/><path d="m789.585 175.068c-.245 1.174-.262 2.463-.782 3.499-1.132 2.261-3.064 3.425-5.678 3.264-2.527-.156-4.149-1.591-5.033-3.813-.947-2.384-.362-4.599 1.363-6.443.545-.581 1.377-.894 2.076-1.329-.002.001.197.091.197.091l.208.064c1.118 3.899 3.346 5.294 7.231 4.528.137.049.277.096.418.139" fill="#f4c645"/><path d="m789.585 175.068c-.141-.043-.281-.09-.417-.14-.347-.94-.554-1.967-1.071-2.803-1.412-2.285-3.493-2.813-6.161-1.724l-.208-.064s-.199-.09-.197-.091c.242-2.252.886-4.329 2.577-5.953l.599-.022c2.048 1.084 4.111 1.089 6.186.075.175.02.351.033.526.038.094.156.174.324.285.468 3.168 4.084 2.429 7.656-2.119 10.216" fill="#ee794d"/><path d="m790.894 164.346c-2.075 1.013-4.138 1.009-6.188-.075 2.081-1.522 4.141-1.276 6.188.075" fill="#4b5e40"/><path d="m781.936 170.401c2.668-1.089 4.749-.561 6.161 1.724.517.836.723 1.863 1.071 2.803-3.887.767-6.114-.628-7.232-4.527" fill="#eb622b"/><path d="m699.604 444.065c-3.251-1.186-4.884-4.719-3.695-8 1.218-3.36 4.638-4.95 7.934-3.687 3.187 1.222 4.814 4.912 3.566 8.088-1.246 3.17-4.663 4.746-7.805 3.599" fill="#ee794d"/><path d="m1454.126 496.118c-.718 1.984-2.82 2.982-4.759 2.26-1.971-.734-2.878-2.792-2.11-4.789.744-1.933 2.549-2.779 4.516-2.119 2.077.696 3.073 2.663 2.353 4.648" fill="#72d5f4"/><path d="m1151.347 528.709c-.719 1.982-2.82 2.982-4.758 2.259-1.972-.735-2.879-2.791-2.11-4.787.744-1.933 2.548-2.78 4.516-2.119 2.076.695 3.071 2.662 2.352 4.647" fill="#72d5f4"/><path d="m1070.397 168.338c-.72 1.983-2.82 2.981-4.758 2.259-1.972-.733-2.879-2.791-2.11-4.787.744-1.933 2.548-2.779 4.516-2.119 2.076.695 3.071 2.662 2.352 4.647" fill="#72d5f4"/><path d="m1436.782 516.347c-.718 1.982-2.819 2.982-4.758 2.259-1.971-.733-2.879-2.791-2.109-4.787.744-1.933 2.548-2.78 4.516-2.119 2.075.695 3.071 2.662 2.351 4.647" fill="#72d5f4"/><path d="m741.759 177.625c-2.26 6.15-9.021 9.323-15.021 7.05-6.024-2.282-9.216-9.325-7.002-15.45 2.204-6.105 9.004-9.353 15.023-7.177 6.243 2.257 9.353 9.176 7 15.577" fill="#ee784c"/><path d="m977.545 285.401c-1.163 3.198-4.583 4.884-7.706 3.8-3.15-1.094-4.918-4.806-3.824-8.032 1.09-3.218 4.84-5.039 7.963-3.866 3.191 1.198 4.773 4.785 3.567 8.098" fill="#f4c645"/><path d="m881.137 267.406c-1.225 3.17-4.312 4.53-7.528 3.315-3.233-1.221-4.733-4.583-3.46-7.759 1.189-2.968 4.594-4.442 7.65-3.311 3.244 1.198 4.629 4.416 3.338 7.755" fill="#72d5f4"/><path d="m853.182 339.697c-1.14 2.986-4.387 4.431-7.308 3.252-2.842-1.146-4.295-4.55-3.172-7.427 1.165-2.981 4.39-4.403 7.338-3.233 2.89 1.147 4.281 4.426 3.142 7.408" fill="#f4c645"/><path d="m832.226 355.727c-3.251-1.186-4.884-4.719-3.694-8 1.218-3.36 4.638-4.95 7.934-3.687 3.187 1.222 4.814 4.912 3.566 8.088-1.248 3.17-4.665 4.746-7.806 3.599" fill="#ee794d"/><path d="m1426.937 463.569c3.106-5.769 10.247-7.956 15.866-4.858 5.642 3.11 7.807 10.533 4.75 16.284-3.044 5.733-10.234 7.988-15.886 4.983-5.862-3.116-7.963-10.405-4.73-16.409" fill="#ee784c"/><path d="m1236.911 514.966c1.603-3.002 5.227-4.188 8.165-2.673 2.964 1.528 4.189 5.453 2.651 8.492-1.534 3.032-5.503 4.305-8.43 2.703-2.988-1.638-4.047-5.412-2.386-8.522" fill="#f4c645"/><path d="m1131.602 544.876c1.66-2.965 4.908-3.875 7.921-2.219 3.028 1.665 4.038 5.205 2.329 8.17-1.596 2.77-5.175 3.749-8.041 2.197-3.042-1.643-3.959-5.025-2.209-8.148" fill="#72d5f4"/><path d="m457.376 96.495c-3.155-.511-5.228-3.397-4.667-6.497.546-3.016 3.584-5.128 6.629-4.612 3.155.536 5.202 3.406 4.654 6.53-.537 3.064-3.466 5.091-6.616 4.579" fill="#f4c645"/><path d="m1122.904 331.733c3.051 1.634 4.168 5.362 2.527 8.442-1.68 3.155-5.291 4.245-8.376 2.529-2.982-1.66-4.072-5.542-2.388-8.511 1.683-2.962 5.288-4.04 8.237-2.46" fill="#ee794d"/><path d="m1030.402 108.949c-4.974-1.418-7.495-6.613-7.557-10.359-.081-4.81 2.733-9.237 7.161-11.037 4.412-1.793 8.764-.721 12.415 3.059-.198 1.083-.539 2.161-.568 3.248-.065 2.48.724 4.546 3.266 5.527.151.097.294.201.434.312-.914 2.092-1.284 4.473-3.224 6.014-.281-.477-.54-.969-.849-1.428-2.697-4.015-8.342-3.739-10.411.615-.565 1.188-.463 2.692-.667 4.049" fill="#ed784c"/><path d="m1045.553 99.7c-.14-.112-.283-.216-.432-.312.655-3.312-.622-6.087-2.415-8.722 2.583-3.346 6.289-3.951 9.113-1.487 2.828 2.467 2.939 6.833.175 9.369-1.875 1.722-4.046 2.156-6.441 1.152" fill="#f4c545"/><path d="m1030.402 108.949c.203-1.358.101-2.861.667-4.048 2.069-4.354 7.714-4.63 10.411-.615.309.459.568.952.849 1.428-.055.22-.112.438-.167.655-3.292 2.85-7.055 3.916-11.341 2.982-.139-.134-.28-.268-.419-.402" fill="#4b5e40"/><path d="m1030.822 109.351c4.288.935 8.049-.132 11.341-2.982.609 3.614-1.088 6.431-4.351 7.225-3.235.787-5.92-.843-6.99-4.243" fill="#70d4f2"/><path d="m1042.706 90.667c1.791 2.634 3.068 5.409 2.415 8.72-2.544-.982-3.333-3.047-3.267-5.528.028-1.087.37-2.164.567-3.246.111-.058.204-.041.285.054" fill="#eb622b"/><path d="m1123.275 599.311c5.925-1.537 10.472-.156 13.467 4.09 3.414 4.836 2.59 11.598-1.889 15.497-4.624 4.027-11.48 4.018-15.882-.024-4.314-3.96-4.925-10.406-1.432-15.294.488-.682 1.054-1.309 1.583-1.959 1.383-.77 2.768-1.54 4.153-2.31" fill="#ee784c"/><path d="m1123.275 599.311c-1.384.769-2.77 1.539-4.152 2.31-1.975-.064-3.823-.532-5.447-1.714 0-.162-.017-.322-.05-.479 1.527-2.5 1.012-4.751-.832-6.841-.001-.161-.014-.321-.04-.481 1.186-.853 2.27-1.945 3.579-2.506 2.233-.959 4.398-.45 6.172 1.246 1.86 1.777 2.317 3.948 1.536 6.381-.226.705-.509 1.39-.766 2.084" fill="#f3c544"/><path d="m1112.754 592.106c.025.159.039.319.04.482-1.469 2.492-1.03 4.753.831 6.84.033.159.05.319.048.48-1.089 1.349-2.416 2.275-4.16 2.634-3.075.638-6.142-1.104-7.049-4.09-.879-2.888.811-6.176 3.674-7.313 2.421-.963 4.566-.422 6.616.967" fill="#70d4f2"/><path d="m1113.626 599.428c-1.861-2.089-2.3-4.348-.83-6.842 1.842 2.091 2.355 4.342.83 6.842" fill="#408a28"/><path d="m1265.226 618.509c7.131-4.437 18.051.451 18.197 10.268.094 6.271-4.778 11.624-11.192 12.212-6.502.595-12.425-3.939-13.276-10.259-.17-1.274.029-2.598.058-3.898.083-.127.154-.261.214-.403.62-.047 1.302.06 1.849-.164 3.264-1.343 4.475-3.666 4.15-7.756" fill="#f4c544"/><path d="m1252.947 622.475c-2.578 1.971-5.376 3.293-8.728 3.263-6.599-.061-11.769-5.051-11.915-11.581-.144-6.417 4.988-11.715 11.489-12.074 6.325-.35 12.855 4.613 12.721 12.602-.091.152-.191.3-.295.442-2.982 1.715-3.785 3.443-3.114 6.705z" fill="#70d4f3"/><path d="m1256.219 615.128c.106-.142.204-.29.295-.442 4.488-.784 6.431.076 8.301 3.673-.548.475-1.106.94-1.642 1.426-1.998 1.81-3.644 3.83-3.947 6.646-.059.141-.131.275-.213.401-2.695-.514-4.856-1.77-6.067-4.354.053-.215.106-.43.159-.644 2.106-1.741 2.896-4.09 3.114-6.706" fill="#ed784c"/><path d="m1259.227 626.43c.303-2.816 1.949-4.836 3.945-6.645.538-.487 1.096-.951 1.644-1.425.143.034.28.082.41.148.325 4.091-.886 6.414-4.15 7.756-.547.226-1.229.119-1.849.166" fill="#eb622b"/><path d="m1256.219 615.128c-.218 2.617-1.008 4.965-3.114 6.705-.67-3.262.134-4.991 3.114-6.705" fill="#4b5e40"/><path d="m1332.096 446.689c-.719 1.982-2.82 2.982-4.758 2.259-1.972-.735-2.879-2.791-2.11-4.787.744-1.933 2.548-2.78 4.516-2.119 2.076.695 3.07 2.662 2.352 4.647" fill="#72d5f4"/><path d="m1120.956 157.817c-3.287-1.143-4.977-4.604-3.866-7.916 1.109-3.301 4.661-5.033 7.9-3.851 3.258 1.189 4.797 4.631 3.579 8.006-1.199 3.327-4.366 4.89-7.613 3.761" fill="#f4c545"/><path d="m816.588 261.791c-4.906-1.723-7.262-6.8-5.46-11.769 1.741-4.805 6.505-7.112 11.239-5.443 4.832 1.703 7.329 6.976 5.578 11.785-1.683 4.626-6.749 7.046-11.357 5.427" fill="#f4c545"/><path d="m819.282 110.223c-1.225 3.17-4.312 4.53-7.528 3.315-3.233-1.221-4.733-4.583-3.46-7.759 1.189-2.968 4.594-4.442 7.65-3.311 3.244 1.198 4.629 4.416 3.338 7.755" fill="#72d5f4"/><path d="m662.621 501.652c-3.251-1.186-4.884-4.719-3.694-8 1.218-3.36 4.638-4.95 7.934-3.687 3.187 1.222 4.814 4.912 3.566 8.088-1.247 3.171-4.665 4.746-7.806 3.599" fill="#ee794d"/><path d="m1030.231 298.023c-1.163 3.198-4.583 4.884-7.706 3.8-3.15-1.094-4.918-4.806-3.824-8.032 1.091-3.218 4.84-5.039 7.963-3.866 3.191 1.198 4.772 4.785 3.567 8.098" fill="#f4c645"/><path d="m739.649 51.633c-2.26 6.15-9.021 9.323-15.021 7.05-6.024-2.282-9.216-9.325-7.002-15.45 2.204-6.105 9.003-9.353 15.023-7.177 6.243 2.257 9.352 9.177 7 15.577" fill="#ee784c"/><path d="m705.707 398.171c-2.26 6.15-9.021 9.323-15.021 7.05-6.024-2.282-9.216-9.325-7.002-15.45 2.204-6.105 9.004-9.353 15.023-7.177 6.243 2.257 9.352 9.176 7 15.577" fill="#ee784c"/><path d="m1501.588 486.107c1.607 2.462.989 5.752-1.375 7.333-2.516 1.682-6.072.894-7.686-1.703-1.521-2.449-.804-5.82 1.56-7.329 2.459-1.571 5.871-.798 7.501 1.699" fill="#f4c545"/><path d="m700.935 318.299c-1.125 3.197-4.568 4.938-7.672 3.884-3.303-1.123-5.076-4.928-3.831-8.226 1.173-3.109 4.761-4.816 7.799-3.712 3.16 1.149 4.846 4.812 3.704 8.054" fill="#f4c545"/><path d="m650.806 397.566c-3.287-1.143-4.977-4.604-3.866-7.916 1.109-3.301 4.661-5.033 7.9-3.851 3.258 1.189 4.797 4.631 3.579 8.006-1.199 3.326-4.367 4.89-7.613 3.761" fill="#f4c545"/><path d="m849.797 258.117c-3.251-1.186-4.884-4.719-3.695-8 1.218-3.36 4.638-4.95 7.934-3.687 3.187 1.222 4.814 4.912 3.566 8.088-1.246 3.17-4.663 4.746-7.805 3.599" fill="#ee794d"/><path d="m697.647 368.315c-1.225 3.17-4.312 4.53-7.528 3.315-3.233-1.221-4.733-4.583-3.46-7.759 1.189-2.968 4.594-4.442 7.65-3.311 3.244 1.198 4.629 4.416 3.338 7.755" fill="#72d5f4"/><g fill="#ee794d"><path d="m1362.042 47.819c-3.482-1.301-5.273-5.172-4.025-8.699 1.248-3.535 5.108-5.379 8.613-4.118 3.61 1.297 5.47 5.329 4.104 8.894-1.358 3.542-5.14 5.249-8.692 3.923"/><path d="m20.239 148.579c-3.482-1.301-5.273-5.172-4.025-8.699 1.248-3.535 5.108-5.379 8.613-4.118 3.61 1.297 5.47 5.329 4.104 8.894-1.358 3.542-5.14 5.249-8.692 3.923"/><path d="m599.027 410.564c-3.482-1.301-5.273-5.172-4.025-8.699 1.248-3.535 5.108-5.379 8.613-4.118 3.61 1.297 5.47 5.329 4.104 8.894-1.358 3.542-5.14 5.249-8.692 3.923"/><path d="m176.866 1051.428c-3.482-1.301-5.273-5.172-4.025-8.699 1.248-3.535 5.108-5.379 8.613-4.118 3.61 1.297 5.47 5.329 4.104 8.894-1.358 3.542-5.14 5.249-8.692 3.923"/></g><path d="m465.293 909.68c-3.482-1.301-5.273-5.172-4.025-8.699 1.248-3.535 5.108-5.379 8.613-4.118 3.61 1.297 5.47 5.329 4.104 8.894-1.358 3.542-5.14 5.249-8.692 3.923" fill="#f4c545"/><path d="m276.511 274.194c-3.482-1.301-5.273-5.172-4.025-8.699 1.248-3.535 5.108-5.379 8.613-4.118 3.61 1.297 5.47 5.329 4.104 8.894-1.358 3.542-5.14 5.249-8.692 3.923" fill="#f4c545"/><path d="m1519.667 382.022c-3.482-1.301-5.274-5.172-4.025-8.699 1.248-3.535 5.108-5.379 8.613-4.118 3.61 1.297 5.47 5.329 4.104 8.894-1.358 3.543-5.14 5.25-8.692 3.923" fill="#f4c545"/><path d="m190.159 134.972c-3.093-1.163-4.699-4.631-3.604-7.785 1.06-3.049 4.714-4.828 7.745-3.77 3.085 1.078 4.862 4.989 3.66 8.055-1.224 3.128-4.675 4.675-7.801 3.5" fill="#72d5f4"/><path d="m514.223 1014.583c-3.093-1.164-4.699-4.631-3.604-7.785 1.06-3.049 4.714-4.828 7.745-3.77 3.085 1.078 4.862 4.989 3.66 8.055-1.224 3.128-4.675 4.675-7.801 3.5" fill="#72d5f4"/><path d="m1583.077 270.937c-3.093-1.163-4.699-4.631-3.604-7.785 1.06-3.049 4.714-4.828 7.745-3.77 3.085 1.078 4.862 4.989 3.66 8.055-1.224 3.128-4.675 4.675-7.801 3.5" fill="#72d5f4"/><path d="m1633.061 920.527c-3.482-1.301-5.273-5.172-4.025-8.699 1.248-3.535 5.108-5.379 8.613-4.118 3.61 1.297 5.47 5.329 4.104 8.894-1.358 3.542-5.139 5.249-8.692 3.923" fill="#ee794d"/><path d="m526.825 578.342c-3.482-1.301-5.273-5.172-4.025-8.699 1.248-3.535 5.108-5.379 8.613-4.118 3.61 1.297 5.47 5.329 4.104 8.894-1.357 3.542-5.139 5.249-8.692 3.923" fill="#ee794d"/></svg>