<?xml version="1.0" standalone="no"?>
<!DOCTYPE svg PUBLIC "-//W3C//DTD SVG 20010904//EN"
 "http://www.w3.org/TR/2001/REC-SVG-20010904/DTD/svg10.dtd">
<svg version="1.0" xmlns="http://www.w3.org/2000/svg"
 width="700.000000pt" height="700.000000pt" viewBox="0 0 700.000000 700.000000"
 preserveAspectRatio="xMidYMid meet">
<metadata>
Created by potrace 1.11, written by Peter Selinger 2001-2013
</metadata>
<g transform="translate(0.000000,700.000000) scale(0.100000,-0.100000)"
fill="#000000" stroke="none">
<path d="M2028 6042 l-1468 -847 1 -1695 0 -1695 1469 -848 1470 -847 1470
847 1469 848 0 1695 1 1695 -1469 848 c-808 466 -1471 847 -1473 847 -1 -1
-663 -382 -1470 -848z m1509 425 c10 -12 31 -30 46 -40 37 -24 49 -58 36 -97
-13 -35 -35 -50 -79 -50 -27 0 -30 -2 -24 -25 4 -16 0 -35 -11 -51 -23 -36
-83 -31 -105 9 -13 24 -13 30 0 55 11 19 25 28 46 30 31 3 31 3 19 38 -6 19
-17 40 -23 46 -17 17 -15 69 5 90 23 25 67 23 90 -5z m235 -297 c58 -45 61
-129 7 -174 -17 -14 -39 -26 -50 -26 -10 0 -19 -7 -19 -15 0 -8 -5 -24 -12
-34 -9 -15 -7 -24 10 -46 48 -61 12 -157 -65 -171 -110 -21 -177 118 -92 190
17 14 35 26 40 26 5 0 9 15 9 33 0 18 5 38 10 43 7 7 5 21 -6 43 -21 42 -6
100 33 130 34 28 101 28 135 1z m-582 -70 c64 -64 5 -168 -80 -139 -35 13 -64
65 -53 96 21 60 93 83 133 43z m845 -12 c29 -35 29 -76 -1 -109 -34 -38 -105
-25 -130 23 -28 55 10 118 72 118 24 0 39 -8 59 -32z m-1120 -3 c50 -49 15
-135 -55 -135 -41 0 -80 39 -80 80 0 41 39 80 80 80 19 0 40 -9 55 -25z m1360
-95 c15 -16 17 -26 9 -47 -13 -37 -47 -47 -78 -22 -30 24 -33 45 -9 71 21 24
55 23 78 -2z m-1397 -76 c33 -22 43 -57 30 -94 -8 -25 -7 -34 7 -50 13 -14 15
-26 9 -47 -4 -15 -9 -41 -10 -58 -3 -31 -26 -55 -55 -55 -24 0 -62 49 -53 69
4 9 10 32 13 51 6 31 3 37 -24 55 -24 17 -31 29 -33 62 -3 34 1 44 24 62 32
25 61 27 92 5z m548 -89 c15 -23 15 -27 0 -50 -31 -48 -96 -26 -96 32 0 47 68
60 96 18z m803 -27 c14 -24 14 -28 -3 -47 -23 -25 -53 -27 -78 -4 -23 20 -23
41 -1 65 24 26 64 19 82 -14z m-252 -33 c32 -36 37 -68 18 -108 -29 -62 -95
-75 -147 -28 -27 24 -33 36 -33 69 0 90 104 133 162 67z m-1573 -28 c23 -17
46 -81 46 -128 0 -26 -7 -44 -24 -60 l-24 -23 21 -27 c39 -54 1 -142 -68 -155
-60 -11 -125 45 -125 106 0 26 26 77 42 82 7 3 4 14 -12 35 -18 25 -21 38 -16
68 8 42 46 85 74 85 11 0 25 7 32 15 15 18 31 19 54 2z m2015 -32 c28 -14 61
-68 61 -99 0 -35 -30 -85 -59 -100 -87 -46 -181 20 -168 118 11 79 93 119 166
81z m-1079 -55 c52 -52 -17 -123 -72 -73 -25 22 -23 59 4 77 30 21 44 20 68
-4z m1470 -22 c26 -28 25 -53 -1 -79 -26 -26 -57 -21 -82 12 -16 23 -17 30 -7
50 24 45 58 51 90 17z m-939 -39 c52 -18 96 -55 110 -94 11 -29 18 -35 41 -35
71 0 106 -103 54 -155 -30 -30 -63 -39 -96 -27 -20 7 -31 4 -56 -14 -103 -79
-261 -3 -272 131 -8 94 32 161 114 190 48 17 62 18 105 4z m-999 -56 c24 -21
23 -55 -2 -78 -46 -41 -116 29 -75 75 22 24 52 26 77 3z m278 2 c37 -19 50
-43 50 -93 0 -94 -131 -126 -175 -43 -21 41 -19 73 6 105 36 45 73 55 119 31z
m1895 -15 c42 -46 10 -120 -51 -120 -35 0 -74 37 -74 70 0 10 9 29 21 44 26
33 77 36 104 6z m-420 -62 c74 -66 32 -188 -65 -188 -101 0 -142 136 -59 194
34 24 93 21 124 -6z m-1964 -47 c16 -16 29 -37 29 -46 0 -24 -27 -72 -45 -79
-55 -21 -115 18 -115 74 0 39 39 80 75 80 16 0 38 -12 56 -29z m-786 -16 c34
-33 34 -87 -1 -122 l-25 -25 20 -19 c46 -43 35 -110 -23 -137 -36 -18 -81 -1
-101 39 -21 40 -19 54 14 91 l29 33 -24 18 c-36 27 -34 98 2 126 36 28 79 27
109 -4z m3359 -1 c32 -31 14 -84 -29 -84 -62 0 -60 98 2 100 6 0 19 -7 27 -16z
m-255 -50 c12 -15 21 -34 21 -44 0 -29 -39 -70 -68 -70 -35 0 -72 37 -72 72 0
64 80 92 119 42z m-2814 -9 c38 -37 35 -95 -6 -129 -42 -35 -74 -33 -115 8
-41 41 -43 73 -8 115 34 41 92 44 129 6z m2174 -1 c12 -15 21 -31 21 -36 0
-13 -47 -58 -60 -58 -13 0 -60 45 -60 58 0 19 42 62 60 62 10 0 28 -12 39 -26z
m-1023 -23 c93 -57 52 -201 -58 -201 -32 0 -47 7 -74 34 -28 28 -34 42 -34 76
0 34 6 48 34 76 40 40 83 45 132 15z m328 -32 c47 -37 24 -109 -36 -109 -33 0
-68 31 -68 60 0 24 42 70 63 70 8 0 26 -9 41 -21z m1015 -43 c25 -27 31 -79
12 -114 -13 -25 -73 -46 -107 -38 -30 8 -68 83 -58 113 24 65 108 87 153 39z
m546 -70 c34 -14 65 -59 65 -93 0 -14 8 -18 31 -18 39 0 61 -29 48 -62 -11
-30 -63 -32 -81 -4 -12 19 -13 19 -42 -6 -27 -22 -31 -33 -31 -75 0 -43 -4
-53 -33 -79 -23 -21 -43 -29 -70 -29 -20 0 -46 -7 -56 -15 -59 -45 -156 14
-156 95 0 57 42 100 97 100 21 0 49 7 62 16 19 14 22 22 16 50 -8 46 19 102
59 120 40 17 49 17 91 0z m-2878 -38 c31 -34 36 -63 18 -98 -15 -29 -49 -50
-80 -50 -7 0 -27 12 -44 26 -38 31 -41 78 -10 118 27 35 86 36 116 4z m-772
-28 c27 -29 10 -74 -28 -78 -36 -4 -57 13 -57 47 0 51 50 69 85 31z m1329 -42
c20 -57 -57 -93 -90 -43 -15 23 -15 27 0 51 24 36 76 31 90 -8z m863 10 c13
-12 23 -32 23 -45 0 -30 -33 -63 -63 -63 -54 0 -80 78 -37 112 29 24 49 23 77
-4z m500 2 c8 0 28 -13 44 -29 41 -42 41 -107 0 -153 -25 -28 -36 -33 -74 -33
-93 0 -147 110 -88 179 20 23 72 47 89 41 8 -3 20 -5 29 -5z m-929 -66 c12
-14 22 -38 22 -53 0 -32 -34 -81 -55 -81 -11 0 -9 -8 6 -35 36 -60 1 -125 -66
-125 -85 0 -114 117 -39 155 20 10 20 11 2 40 -22 37 -23 64 -2 93 33 48 92
50 132 6z m-2042 2 c56 -47 20 -146 -52 -146 -34 0 -84 51 -84 85 0 34 50 85
84 85 14 0 37 -11 52 -24z m3291 -2 c15 -24 15 -29 2 -53 -11 -20 -22 -26 -49
-26 -27 0 -38 6 -49 26 -13 24 -13 29 2 53 12 18 26 26 47 26 21 0 35 -8 47
-26z m1000 0 c15 -24 15 -29 2 -53 -11 -20 -22 -26 -49 -26 -27 0 -38 6 -49
26 -13 24 -13 29 2 53 12 18 26 26 47 26 21 0 35 -8 47 -26z m230 -16 c33 -35
34 -87 3 -118 -47 -47 -140 -7 -140 60 0 69 91 107 137 58z m-2879 -43 c86
-72 11 -209 -95 -174 -39 12 -73 59 -73 99 1 85 103 130 168 75z m-815 -13
c31 -32 37 -93 12 -128 -19 -28 -69 -48 -101 -40 -110 28 -93 196 21 196 32 0
47 -6 68 -28z m1683 -21 c42 -26 60 -78 44 -126 -29 -89 -142 -102 -190 -23
-24 39 -25 69 -5 108 29 57 96 75 151 41z m-2305 -71 c23 -13 49 -61 49 -93 0
-13 -10 -37 -22 -53 -18 -22 -22 -39 -20 -76 3 -40 0 -51 -21 -72 -33 -32 -69
-41 -99 -24 -85 47 -98 60 -98 94 0 29 5 36 39 54 37 19 39 21 29 48 -23 61
23 132 87 132 20 0 45 -5 56 -10z m1043 -20 c32 -12 58 -62 50 -95 -8 -32 -49
-65 -81 -65 -33 0 -83 51 -83 85 0 29 48 85 74 85 8 0 26 -4 40 -10z m3100
-41 c54 -25 54 -103 0 -128 -72 -32 -130 69 -68 118 31 24 35 25 68 10z
m-1512 -36 c24 -21 23 -58 -2 -83 -23 -23 -33 -24 -60 -10 -31 17 -43 46 -29
73 22 41 59 49 91 20z m1872 -9 c20 -19 21 -68 2 -83 -8 -7 -30 -11 -48 -9
-40 4 -59 42 -40 83 14 29 61 35 86 9z m-4264 -4 c28 -15 40 -61 24 -98 -23
-55 -101 -56 -129 -1 -36 69 35 137 105 99z m649 -36 c59 -49 46 -145 -24
-178 -43 -21 -86 -12 -122 26 -22 23 -28 39 -28 74 0 39 5 50 33 75 43 38 98
40 141 3z m1232 5 c17 -12 33 -35 39 -58 8 -32 16 -40 49 -50 22 -6 49 -23 60
-38 23 -28 28 -91 11 -124 -14 -25 -62 -49 -101 -49 -39 0 -99 56 -99 93 0 21
-6 25 -39 31 -55 8 -91 53 -91 111 0 88 98 137 171 84z m971 -16 c29 -26 23
-71 -12 -91 -27 -16 -38 -42 -30 -77 7 -31 0 -60 -16 -72 -24 -17 -49 -17 -68
2 -8 8 -24 15 -36 15 -12 0 -35 13 -51 29 -58 58 -29 159 51 176 16 4 37 2 47
-3 13 -8 21 -4 36 14 22 28 53 31 79 7z m253 1 c20 -20 16 -53 -7 -68 -40 -24
-80 44 -42 71 23 17 29 16 49 -3z m700 -58 c57 -37 78 -110 50 -170 -25 -53
-60 -72 -168 -93 -32 -6 -57 11 -57 41 0 11 -7 40 -15 64 -25 70 0 130 70 171
25 15 88 8 120 -13z m303 12 c30 -30 0 -78 -37 -58 -32 17 -21 70 14 70 6 0
16 -5 23 -12z m-683 -43 c37 -36 34 -86 -6 -119 -34 -29 -50 -32 -82 -14 -34
17 -46 39 -47 80 0 70 85 104 135 53z m-1087 -1 c41 -28 18 -104 -31 -104 -51
0 -74 63 -37 100 24 24 38 25 68 4z m-1989 -18 c49 -26 66 -99 35 -145 -9 -13
-32 -29 -50 -37 -65 -27 -134 24 -134 99 0 76 78 119 149 83z m695 -19 c36
-26 16 -97 -27 -97 -48 0 -73 56 -40 92 19 21 42 23 67 5z m384 -59 c7 -7 12
-27 12 -45 0 -43 -37 -71 -72 -52 -28 15 -38 28 -38 53 0 44 67 75 98 44z
m2770 -95 c31 -28 35 -56 11 -86 -25 -32 -61 -35 -89 -7 -28 28 -25 64 6 89
32 26 46 26 72 4z m-4701 -38 c33 -33 35 -39 30 -81 -7 -65 -42 -99 -101 -99
-51 0 -81 22 -103 73 -29 68 23 142 99 142 32 0 47 -7 75 -35z m1311 23 c17
-17 15 -64 -4 -82 -49 -50 -124 24 -77 76 18 20 63 24 81 6z m342 -28 c11 -11
20 -29 20 -39 0 -19 -43 -61 -62 -61 -15 0 -58 48 -58 65 0 21 36 55 60 55 11
0 29 -9 40 -20z m2234 -6 c21 -8 21 -53 0 -61 -18 -7 -45 6 -51 24 -2 6 3 18
12 27 19 18 18 18 39 10z m-800 -23 c25 -27 17 -72 -15 -90 -24 -13 -29 -13
-53 2 -47 31 -27 107 28 107 13 0 31 -9 40 -19z m466 -1 c23 -23 26 -49 7 -74
-16 -21 -60 -24 -82 -6 -33 27 -6 100 37 100 10 0 27 -9 38 -20z m1009 -21
c45 -44 44 -98 -3 -145 -25 -25 -43 -34 -68 -34 -76 0 -132 78 -104 145 19 44
52 65 102 65 34 0 49 -6 73 -31z m-2337 -36 c15 -15 30 -41 34 -58 5 -27 9
-31 33 -27 52 7 69 -55 24 -85 -20 -14 -24 -13 -47 10 -24 24 -25 24 -42 6 -9
-10 -25 -21 -35 -24 -15 -5 -16 -11 -8 -32 22 -59 -32 -133 -100 -133 -20 0
-45 -7 -55 -15 -25 -19 -69 -19 -106 0 -37 19 -50 43 -50 95 0 57 42 100 97
100 21 0 49 7 61 16 18 13 21 21 16 53 -17 105 101 168 178 94z m-1857 2 c29
-28 31 -42 9 -73 -31 -44 -104 -16 -104 40 0 22 34 58 55 58 9 0 27 -11 40
-25z m2456 -35 c30 -17 52 -68 45 -106 -18 -95 -152 -100 -187 -7 -12 33 5 88
34 108 25 17 80 20 108 5z m1215 -111 c17 -19 17 -23 3 -47 -21 -38 -62 -41
-85 -7 -37 57 35 106 82 54z m-2708 -25 c42 -29 17 -104 -35 -104 -22 0 -53
38 -53 64 0 24 32 56 55 56 6 0 21 -7 33 -16z m-430 -22 c17 -22 15 -67 -4
-86 -36 -37 -104 -7 -104 45 0 56 73 84 108 41z m2490 -18 c12 -8 22 -24 22
-35 0 -17 4 -19 23 -12 47 17 89 8 119 -25 39 -45 39 -100 -1 -144 -25 -28
-36 -33 -76 -33 -40 0 -51 5 -77 34 -25 27 -29 40 -26 72 3 33 1 39 -15 39
-10 0 -30 -9 -44 -20 -46 -36 -93 -16 -93 39 0 33 16 49 51 53 13 2 32 13 42
26 22 26 44 28 75 6z m-3534 -20 c20 -20 21 -68 1 -84 -8 -7 -26 -12 -40 -12
-34 0 -55 19 -55 53 0 34 23 59 55 59 13 0 31 -7 39 -16z m2920 -18 c24 -14
51 -42 64 -65 17 -29 30 -41 46 -41 30 0 76 -43 77 -72 3 -48 -3 -64 -32 -90
-31 -29 -67 -35 -100 -18 -10 6 -19 7 -19 2 0 -4 -18 -19 -41 -31 -113 -64
-259 26 -259 159 0 141 145 226 264 156z m1583 -31 c24 -24 41 -34 54 -30 10
3 28 1 39 -5 17 -9 25 -8 40 5 28 26 83 30 119 9 32 -19 61 -67 61 -102 0 -35
-43 -86 -86 -101 -36 -12 -44 -12 -78 4 -23 11 -44 31 -53 51 -21 44 -67 52
-104 18 -69 -65 -181 -16 -181 79 0 64 46 106 116 107 30 0 45 -7 73 -35z
m-3841 0 c27 -27 26 -59 -4 -82 -57 -45 -123 36 -72 87 27 27 46 25 76 -5z
m4284 -116 c0 -24 -27 -36 -48 -22 -23 14 -25 29 -7 47 21 20 55 5 55 -25z
m-3993 10 c122 -46 153 -219 54 -302 -67 -56 -147 -59 -217 -9 -34 24 -44 27
-71 19 -81 -24 -147 59 -112 137 14 30 72 60 99 51 15 -5 22 0 29 17 11 29 58
74 91 87 34 13 92 13 127 0z m685 -66 c29 -26 23 -71 -12 -91 -20 -11 -30 -25
-31 -42 -2 -35 -2 -33 5 -57 14 -45 -54 -82 -88 -48 -8 8 -24 15 -36 15 -12 0
-35 13 -51 29 -23 23 -29 38 -29 71 0 35 6 48 35 77 32 32 39 35 74 29 30 -5
42 -2 56 14 22 24 52 26 77 3z m2471 -33 c55 -44 56 -141 1 -177 -16 -10 -24
-25 -24 -43 0 -33 -40 -76 -80 -85 -69 -15 -140 55 -126 127 3 19 17 45 31 58
14 13 25 32 25 43 0 27 30 74 54 86 35 17 91 13 119 -9z m-3914 -26 c61 -51
48 -150 -25 -180 -40 -17 -81 -8 -116 23 -17 15 -19 15 -32 -3 -10 -12 -11
-24 -5 -36 13 -24 -9 -67 -37 -74 -49 -12 -89 40 -64 86 6 11 8 34 5 50 -5 21
-1 34 14 49 23 23 43 26 72 11 16 -9 19 -7 19 12 0 77 106 116 169 62z m274
-64 c31 -35 32 -55 9 -174 -19 -97 -112 -138 -181 -80 -38 31 -58 92 -42 122
6 11 11 35 11 52 0 74 54 123 130 116 34 -3 51 -11 73 -36z m4230 -50 c39 -44
38 -110 -2 -151 -24 -23 -38 -29 -74 -29 -55 0 -92 27 -108 79 -9 32 -8 44 6
75 35 73 124 86 178 26z m-2199 14 c31 -30 11 -84 -31 -84 -28 0 -63 25 -63
44 0 6 7 22 16 34 18 26 56 29 78 6z m854 -30 c38 -26 21 -104 -23 -104 -15 0
-25 -63 -12 -85 14 -26 -18 -65 -54 -65 -16 0 -32 6 -34 13 -3 6 -17 13 -32
14 -42 2 -83 54 -83 104 0 32 7 47 30 71 25 25 37 29 73 27 33 -2 48 2 65 19
26 26 40 27 70 6z m262 -9 c26 -32 -13 -81 -47 -59 -35 22 -23 74 17 74 10 0
23 -7 30 -15z m-1630 -15 c39 -39 11 -110 -44 -110 -27 0 -66 42 -66 71 0 27
36 59 65 59 14 0 34 -9 45 -20z m858 -139 c6 -40 -39 -56 -58 -20 -9 15 -8 24
1 35 18 22 53 13 57 -15z m2069 13 c8 -22 -10 -49 -32 -49 -10 0 -22 7 -28 16
-15 24 -1 49 28 49 15 0 28 -7 32 -16z m-679 -46 c7 -7 12 -24 12 -38 0 -34
-17 -50 -52 -50 -37 0 -57 38 -40 75 13 27 58 35 80 13z m-2020 -44 c58 -40
65 -119 14 -166 -47 -44 -99 -43 -149 4 l-21 20 -8 -24 c-4 -12 -6 -36 -5 -51
3 -33 -23 -67 -51 -67 -31 0 -61 38 -53 68 4 15 7 47 8 72 2 37 6 47 29 60 22
12 32 13 47 3 22 -14 31 -8 31 19 0 11 13 33 29 49 34 33 91 40 129 13z m2459
-26 c11 -13 23 -31 26 -41 10 -26 -19 -88 -43 -94 -24 -6 -24 -11 -5 -37 39
-51 1 -126 -64 -126 -47 0 -81 32 -81 79 0 37 32 81 58 81 12 0 10 6 -6 23
-49 52 -13 137 58 137 25 0 43 -7 57 -22z m-2207 -23 c38 -20 63 -68 56 -109
-23 -136 -32 -158 -76 -181 -37 -19 -73 -19 -109 0 -37 19 -65 77 -57 119 4
17 10 53 15 80 14 89 93 131 171 91z m-2326 -11 c33 -33 9 -94 -36 -94 -28 0
-58 28 -58 53 0 48 61 74 94 41z m1447 -13 c37 -37 38 -79 3 -120 -35 -42 -84
-43 -125 -2 -37 37 -38 79 -3 120 35 42 84 43 125 2z m2672 -2 c76 -39 76
-148 0 -184 -44 -21 -85 -12 -118 27 -27 32 -33 84 -15 118 22 41 90 61 133
39z m-3704 -31 c14 -24 14 -28 -3 -47 -26 -29 -62 -27 -82 4 -15 23 -15 27 0
51 23 33 64 30 85 -8z m2529 -4 c42 -29 20 -104 -30 -104 -54 0 -79 74 -36
104 12 9 27 16 33 16 6 0 21 -7 33 -16z m476 -10 c50 -49 -24 -124 -76 -77
-20 18 -23 45 -8 74 13 23 62 26 84 3z m-2726 -30 c25 -29 29 -71 7 -100 -8
-10 -15 -29 -15 -40 0 -12 -9 -33 -21 -48 -27 -34 -82 -36 -116 -4 -27 25 -32
88 -8 108 8 7 12 16 10 21 -12 18 9 62 39 80 38 24 72 18 104 -17z m262 -1
c35 -20 50 -52 50 -104 0 -119 -172 -138 -210 -24 -32 98 71 181 160 128z
m2820 -23 c38 -38 18 -90 -33 -90 -40 0 -57 15 -57 51 0 54 52 77 90 39z m980
-150 c40 -40 15 -110 -41 -110 -35 0 -72 44 -63 74 8 27 41 56 65 56 10 0 28
-9 39 -20z m-1968 -20 c15 -11 38 -20 50 -20 25 0 64 -23 85 -50 7 -8 13 -34
13 -57 0 -91 -96 -142 -171 -90 -20 13 -51 27 -71 31 -99 18 -117 154 -26 200
39 19 81 14 120 -14z m-2725 -6 c15 -24 15 -29 2 -53 -19 -34 -61 -39 -88 -12
-26 26 -26 46 -1 71 28 28 66 26 87 -6z m1126 -15 c15 -11 32 -37 38 -58 28
-94 -85 -177 -161 -118 -60 46 -66 113 -16 163 41 41 97 47 139 13z m-548
-104 c52 -51 14 -139 -59 -139 -51 0 -81 31 -81 85 0 31 6 46 24 60 33 27 86
25 116 -6z m2795 15 c47 -25 43 -94 -6 -106 -65 -17 -103 81 -41 106 29 11 26
11 47 0z m-3508 -32 c30 -24 27 -72 -6 -93 -20 -14 -29 -14 -48 -4 -28 15 -38
28 -38 53 0 45 56 71 92 44z m2584 -6 c6 -4 16 -17 23 -29 14 -27 3 -53 -31
-77 -18 -13 -23 -26 -23 -72 -1 -43 -6 -60 -20 -70 -25 -18 -49 -18 -65 1 -7
8 -21 15 -32 15 -30 0 -56 18 -73 50 -23 45 -19 85 14 122 26 29 35 33 78 32
36 -1 51 3 61 17 13 19 48 25 68 11z m-922 -18 c19 -18 21 -65 4 -82 -17 -17
-54 -15 -72 4 -21 20 -20 53 1 76 20 22 46 23 67 2z m2654 -16 c30 -30 -1 -73
-36 -51 -23 14 -25 29 -7 47 20 19 27 20 43 4z m-454 -14 c50 -49 -24 -124
-76 -77 -36 33 -13 93 37 93 13 0 31 -7 39 -16z m-636 -10 c29 -20 31 -79 3
-94 -28 -14 -52 -12 -73 7 -24 21 -23 58 2 83 24 24 38 25 68 4z m1356 -10
c19 -18 21 -65 4 -82 -31 -31 -98 -3 -98 40 0 49 61 76 94 42z m-2540 -10 c42
-42 -2 -116 -56 -95 -59 22 -46 111 17 111 13 0 31 -7 39 -16z m-1690 -10 c19
-18 20 -38 6 -65 -21 -38 -90 -14 -90 31 0 24 26 50 50 50 10 0 26 -7 34 -16z
m3238 -91 c22 -20 23 -56 2 -77 -34 -34 -84 -11 -84 39 0 51 45 72 82 38z
m-2168 -9 c33 -33 9 -94 -36 -94 -28 0 -58 28 -58 53 0 48 61 74 94 41z m346
-24 c11 -11 20 -27 20 -35 0 -18 -44 -65 -60 -65 -16 0 -60 47 -60 65 0 21 36
55 60 55 11 0 29 -9 40 -20z m2677 -85 c52 -60 33 -128 -46 -163 -93 -43 -121
-25 -117 73 3 68 19 98 61 116 31 13 78 1 102 -26z m-4439 13 c7 -7 12 -26 12
-43 0 -37 -16 -55 -49 -55 -52 0 -78 54 -44 92 18 20 63 24 81 6z m4022 -1
c75 -58 60 -172 -26 -196 -107 -30 -183 101 -105 180 24 23 38 29 73 29 24 0
50 -6 58 -13z m722 -54 c36 -33 13 -93 -37 -93 -30 0 -55 25 -55 55 0 49 55
72 92 38z m-3614 -29 c41 -28 22 -94 -28 -94 -35 0 -60 23 -60 55 0 23 32 55
55 55 6 0 21 -7 33 -16z m1716 -3 c25 -27 17 -72 -15 -90 -24 -13 -29 -13 -53
2 -17 12 -26 26 -26 44 0 55 59 83 94 44z m-2393 -18 c16 -10 39 -37 50 -61
28 -56 19 -104 -26 -149 -28 -28 -40 -33 -80 -33 -84 0 -135 50 -135 132 1 23
6 53 14 66 31 57 119 79 177 45z m3161 -22 c29 -26 33 -36 33 -80 0 -40 -5
-55 -26 -78 -15 -15 -32 -45 -39 -66 -13 -42 -58 -77 -98 -77 -52 0 -112 62
-112 115 0 21 24 68 43 84 8 6 18 27 21 46 15 81 115 112 178 56z m-3494 -7
c45 -31 19 -114 -36 -114 -56 0 -83 69 -42 110 24 24 48 25 78 4z m2088 -28
c28 -28 34 -42 34 -76 0 -73 -76 -127 -141 -100 -45 19 -69 56 -69 107 0 98
106 139 176 69z m-771 -12 c68 -32 80 -121 23 -169 -49 -42 -126 -28 -150 27
-7 15 -16 28 -20 28 -3 0 -14 7 -22 16 -36 35 -6 94 48 94 17 0 38 5 46 10 21
14 37 12 75 -6z m1804 -38 c5 -27 -26 -48 -50 -35 -19 10 -25 39 -12 53 14 14
58 1 62 -18z m-2441 -2 c29 -20 31 -79 3 -94 -28 -14 -52 -12 -73 7 -24 21
-23 58 2 83 24 24 38 25 68 4z m1006 -40 c19 -18 21 -65 4 -82 -30 -30 -98 -1
-98 41 0 48 61 74 94 41z m671 -29 c49 -48 15 -135 -53 -135 -39 0 -82 43 -82
82 0 39 40 78 80 78 19 0 40 -9 55 -25z m1669 -35 c29 -28 25 -78 -8 -107 -15
-12 -36 -23 -46 -23 -10 0 -31 11 -46 23 -38 33 -37 81 1 114 31 28 66 25 99
-7z m475 -26 c24 -30 26 -43 10 -77 -25 -55 -103 -55 -128 -1 -16 35 -14 48
10 78 15 19 30 26 54 26 24 0 39 -7 54 -26z m-4570 -20 c59 -49 48 -144 -20
-179 -87 -45 -190 56 -145 143 34 66 110 83 165 36z m884 -35 c26 -28 28 -37
23 -78 -3 -25 -5 -67 -5 -94 0 -40 -5 -52 -30 -77 -56 -57 -149 -31 -170 46
-6 21 -6 45 -1 58 5 13 6 41 3 63 -6 48 8 77 50 104 44 28 93 19 130 -22z
m2123 7 c43 -43 46 -90 9 -134 -14 -17 -25 -37 -25 -45 0 -30 -24 -69 -51 -83
-74 -38 -149 7 -149 88 0 29 6 51 19 64 10 11 21 36 25 56 9 48 55 88 103 88
27 0 43 -8 69 -34z m-1334 -33 c39 -35 7 -98 -48 -91 -18 2 -34 13 -43 29 -13
24 -13 29 2 53 20 30 61 35 89 9z m409 0 c44 -26 64 -77 50 -125 -21 -69 -95
-97 -157 -59 -67 41 -70 135 -5 178 40 27 73 29 112 6z m1248 -9 c61 -51 28
-144 -51 -144 -82 0 -107 116 -33 158 31 18 51 14 84 -14z m-738 -53 c36 -36
37 -70 3 -110 -34 -41 -75 -42 -115 -2 -17 18 -29 40 -29 56 0 35 50 85 85 85
16 0 38 -12 56 -29z m1218 -52 c50 -47 50 -111 -1 -154 -34 -29 -66 -32 -108
-10 -37 19 -50 43 -50 90 0 79 103 126 159 74z m495 -22 c22 -16 18 -65 -5
-80 -47 -29 -101 32 -64 73 21 23 44 25 69 7z m-2922 -64 c22 -20 23 -51 1
-75 -20 -22 -56 -23 -77 -2 -19 18 -21 65 -4 82 17 17 58 15 80 -5z m-868 -49
c19 -18 21 -55 4 -72 -20 -20 -56 -14 -74 13 -15 23 -15 27 0 50 19 29 47 32
70 9z m-280 -20 c21 -20 20 -53 -1 -76 -20 -22 -56 -23 -77 -2 -19 18 -21 65
-4 82 17 17 64 15 82 -4z m911 -40 c14 -15 25 -31 25 -35 0 -5 10 -9 23 -9 26
-1 49 -17 65 -47 41 -76 -40 -159 -117 -119 -16 9 -32 25 -36 36 -4 11 -15 20
-26 20 -34 0 -60 20 -75 56 -12 29 -12 39 0 68 17 40 39 55 84 56 23 0 40 -8
57 -26z m937 -1 c27 -24 24 -79 -7 -99 -40 -26 -95 4 -95 53 0 55 62 83 102
46z m1483 -16 c62 -62 55 -158 -14 -204 -86 -58 -201 5 -201 110 0 77 52 126
134 127 41 0 53 -5 81 -33z m376 10 c23 -15 39 -37 49 -67 8 -25 25 -53 38
-63 30 -25 30 -82 0 -114 -27 -29 -87 -32 -111 -5 -11 12 -27 17 -44 15 -64
-9 -138 72 -129 141 12 100 115 148 197 93z m-980 -17 c29 -16 25 -65 -6 -86
-23 -15 -27 -15 -50 0 -29 19 -33 56 -9 80 18 19 38 20 65 6z m-421 -55 c35
-18 60 -62 60 -106 0 -47 -56 -99 -107 -99 -45 0 -77 20 -98 60 -19 37 -19 63
0 100 28 54 90 73 145 45z m-838 -7 c30 -24 31 -56 3 -83 -27 -28 -59 -27 -82
3 -41 51 28 120 79 80z m-1071 -116 c7 -18 6 -31 -6 -48 -9 -14 -11 -25 -5
-29 6 -3 10 -19 10 -35 0 -38 -32 -57 -66 -41 -26 11 -33 58 -13 78 8 8 7 16
-2 30 -7 11 -9 31 -5 46 10 43 71 43 87 -1z m1401 -17 c106 -70 102 -240 -7
-302 -67 -38 -163 -26 -209 25 -14 16 -23 19 -37 12 -60 -32 -139 16 -139 85
0 53 47 99 95 93 30 -3 36 0 45 23 38 91 163 122 252 64z m813 19 c8 -4 23
-20 31 -36 42 -81 -58 -157 -121 -93 -31 30 -32 73 -4 109 20 26 57 34 94 20z
m339 -65 c34 -40 33 -64 -3 -100 -32 -31 -50 -35 -84 -17 -52 27 -62 83 -22
123 35 35 76 33 109 -6z m-2370 1 c14 -5 32 -21 42 -35 22 -33 4 -78 -37 -95
-24 -10 -33 -10 -54 4 -49 32 -52 81 -7 116 29 23 24 22 56 10z m401 -44 c44
-19 70 -69 61 -119 -8 -44 -56 -87 -97 -87 -34 0 -85 23 -92 42 -3 9 -9 7 -20
-7 -10 -13 -12 -26 -7 -41 23 -60 -61 -102 -96 -48 -16 24 -16 29 -3 53 11 19
12 33 5 53 -15 42 16 72 66 65 32 -4 38 -2 38 13 0 23 37 69 64 80 30 12 42
12 81 -4z m293 -81 c26 -28 32 -43 32 -79 0 -25 -4 -48 -10 -51 -5 -3 -10 -20
-10 -36 0 -66 -48 -113 -116 -113 -71 0 -130 84 -104 149 7 17 13 47 14 67 2
39 33 83 71 99 38 16 88 2 123 -36z m1991 -1 c49 -35 60 -114 22 -157 -18 -21
-87 -57 -109 -57 -10 0 -12 -7 -8 -23 13 -54 -52 -88 -89 -47 -24 27 -13 67
24 83 30 12 30 12 15 52 -35 99 1 162 91 164 17 1 41 -6 54 -15z m-1134 -10
c67 -32 82 -124 29 -177 -34 -34 -73 -42 -117 -23 -70 29 -94 121 -46 172 42
46 81 54 134 28z m597 -86 c31 -24 27 -74 -7 -90 -41 -18 -75 3 -75 46 0 49
45 73 82 44z m-466 -133 c13 -21 15 -31 6 -50 -25 -55 -102 -35 -102 26 0 51
68 67 96 24z m414 -30 c18 -22 8 -68 -18 -81 -47 -23 -90 12 -78 62 10 40 69
51 96 19z m245 0 c14 -13 25 -28 25 -33 0 -19 -42 -62 -60 -62 -17 0 -60 43
-60 60 0 15 42 60 56 60 8 0 26 -11 39 -25z m-1565 -135 c11 -11 20 -27 20
-35 0 -8 -9 -24 -20 -35 -11 -11 -27 -20 -35 -20 -8 0 -24 9 -35 20 -11 11
-20 27 -20 35 0 8 9 24 20 35 11 11 27 20 35 20 8 0 24 -9 35 -20z m1398 -56
c29 -33 28 -75 -3 -104 -35 -33 -81 -31 -112 4 -27 32 -29 62 -7 94 33 47 82
49 122 6z m-1114 -5 c29 -34 33 -66 11 -95 -8 -10 -15 -27 -15 -36 -1 -60 -57
-100 -110 -78 -47 20 -63 67 -41 122 5 13 12 35 15 50 15 70 95 91 140 37z
m832 7 c35 -29 38 -84 7 -118 -11 -13 -23 -35 -27 -50 -8 -33 -58 -62 -92 -54
-59 15 -85 95 -44 136 11 11 20 29 20 40 0 31 44 70 79 70 17 0 42 -10 57 -24z
m-582 0 c72 -30 90 -119 37 -178 -25 -28 -36 -33 -75 -33 -84 0 -137 83 -101
158 15 33 62 66 93 67 7 0 28 -6 46 -14z m337 -205 c37 -37 38 -78 4 -115 -31
-33 -74 -34 -111 -2 -39 33 -39 89 0 122 37 32 71 30 107 -5z m-181 -178 c54
-7 80 -27 80 -63 0 -37 -21 -62 -56 -64 -16 -1 -39 -7 -51 -14 -77 -43 -157
45 -107 116 19 27 53 43 74 35 8 -3 35 -8 60 -10z"/>
</g>
</svg>
