<svg viewBox="0 0 532.07 525.34" xmlns="http://www.w3.org/2000/svg"><path d="m267.44 30.54a6.54 6.54 0 0 1 5.67 5.93 6.25 6.25 0 0 1 -4.39 6.71 13.67 13.67 0 0 1 -3.57.15 8 8 0 0 1 -1.37-.23l-1-.51-.21-.4a8.72 8.72 0 0 1 -2.46-6.35 1.53 1.53 0 0 1 .37-.08 2.9 2.9 0 0 0 3.52.51c2.05-.84 3.67-2.25 3.42-5.74" fill="#ff713f"/><path d="m260.5 35.77a1.53 1.53 0 0 0 -.37.08 4.73 4.73 0 0 1 -2.33-5.51 4.59 4.59 0 0 1 3.84-3.68c2.45-.5 4.65 1 5.62 3.73-.33 0-.66.08-1 .1a6 6 0 0 0 -5.77 5.28" fill="#fdc505"/><path d="m260.5 35.77a6 6 0 0 1 5.77-5.28c.33 0 .66-.07 1-.1a.2.2 0 0 1 .18.15c.25 3.49-1.37 4.9-3.42 5.74a2.9 2.9 0 0 1 -3.52-.51" fill="#fd5701"/><path d="m263.8 43.11-1-.51z" fill="#fff"/><path d="m299.22 121.34a13.58 13.58 0 0 1 -19.4 1 13.86 13.86 0 0 1 -4.54-14.34 13.36 13.36 0 0 1 9.84-10.31c8.17-2.36 15.79 3.45 17.2 9.8-.45.14-.91.25-1.35.42a7.49 7.49 0 0 0 -3.15 11.94c.43.52.93 1 1.4 1.46" fill="#ff6f3d"/><path d="m221.52 414.69c1.63-5.31 5.32-8.25 10.68-9.3 6.49-1.27 14 3.06 15.71 10.61s-2.33 14.66-9.48 16.74c-5 1.43-9.34.2-13.16-3.16-.61-.53-1.15-1.15-1.71-1.73 0-.11 0-.21.05-.32 3.15-2.13 3.42-7.9.59-10.75a25 25 0 0 0 -2.68-2.09" fill="#45d7f8"/><path d="m118.47 349.68a10.23 10.23 0 1 1 -20.47-.17 10.08 10.08 0 0 1 10-10.31 10.55 10.55 0 0 1 10.42 10.48" fill="#46d8f9"/><path d="m366.5 399.21a10.08 10.08 0 0 1 -10.08 10.25 10.48 10.48 0 0 1 -10.22-10.46 10.1 10.1 0 0 1 10.12-10.21 10.28 10.28 0 0 1 10.18 10.43" fill="#fdc503"/><path d="m409.46 189.18c-1.13-2.16-2.16-4.31-2.09-6.87a10.44 10.44 0 0 1 8.08-10.1 10.57 10.57 0 0 1 11.81 6.09c2.95 6.83-1.55 14.52-8.72 14.89a6.76 6.76 0 0 1 -1-.09 19.26 19.26 0 0 0 .4-3.35 4.35 4.35 0 0 0 -4.23-3.82 3.91 3.91 0 0 0 -3.92 3.26h-.33" fill="#ff703d"/><path d="m322.52 96.3a8.79 8.79 0 0 1 8.89-9 9.12 9.12 0 0 1 9.09 9.17 8.9 8.9 0 0 1 -9 9.15 9.07 9.07 0 0 1 -9-9.29" fill="#ff703d"/><path d="m389.52 408.94a9.54 9.54 0 0 1 -10-3.66 9.8 9.8 0 0 1 -1.48-9.92 9.52 9.52 0 0 1 9.37-6.42 10.09 10.09 0 0 1 9.46 7.5 19.54 19.54 0 0 1 .32 2.78c-.4-.07-.79-.18-1.19-.21a6.47 6.47 0 0 0 -7.16 7.42 16.57 16.57 0 0 0 .72 2.51" fill="#45d7f8"/><path d="m244.29 135.72a8.81 8.81 0 0 1 -8.8-8.94 8.66 8.66 0 0 1 8.63-8.64 8.79 8.79 0 0 1 8.74 9 8.44 8.44 0 0 1 -8.57 8.6" fill="#ff703e"/><path d="m273.18 429.71a8.39 8.39 0 0 1 -8.47 8.66 8.78 8.78 0 0 1 -8.84-8.87 8.59 8.59 0 0 1 8.54-8.69 8.7 8.7 0 0 1 8.77 8.9" fill="#fdc503"/><path d="m328.27 147.26a8.57 8.57 0 0 1 -8.46 8.58 8.78 8.78 0 0 1 -8.71-8.84 8.4 8.4 0 0 1 8.56-8.61 8.68 8.68 0 0 1 8.61 8.87" fill="#fdc503"/><path d="m237.73 350.77a8.38 8.38 0 0 1 8.35-8.6 8.83 8.83 0 0 1 8.66 8.87 8.51 8.51 0 1 1 -17-.27" fill="#ff703d"/><path d="m177 174.94a8.44 8.44 0 0 1 -8.5 8.45 8.85 8.85 0 0 1 -8.52-8.81 8.54 8.54 0 0 1 8.47-8.53 8.64 8.64 0 0 1 8.55 8.89" fill="#ff703e"/><path d="m278.54 412.77a8.62 8.62 0 0 1 -8.67-8.78 8.52 8.52 0 0 1 8.43-8.56 8.81 8.81 0 0 1 8.59 8.73 8.47 8.47 0 0 1 -8.35 8.61" fill="#46d8f9"/><path d="m289.86 158.64a8.39 8.39 0 0 1 -8.38 8.56 8.86 8.86 0 0 1 -8.58-8.74 8.53 8.53 0 0 1 8.57-8.63 8.62 8.62 0 0 1 8.39 8.81" fill="#ff703d"/><path d="m273.08 64.68a8.65 8.65 0 1 1 9.57 2.64 18.31 18.31 0 0 1 -2.77.53 1.68 1.68 0 0 0 -.32-.09 4.34 4.34 0 0 0 -.38-1.28c-1.43-2.11-3.25-2.63-6.1-1.8" fill="#fdc503"/><path d="m277.69 72.78a10 10 0 0 1 3.58 5.7 8.5 8.5 0 0 1 -6.45 10.12 8.66 8.66 0 0 1 -10.22-6.36 8.78 8.78 0 0 1 7-10.84l.36.14c1.65 1.86 3 2.18 5.2 1.22z" fill="#45d7f8"/><path d="m165.92 423c0-4.42 1.83-7.34 5.34-8.65a8.47 8.47 0 0 1 10.48 4.19 8.63 8.63 0 0 1 -3 11.09 8.31 8.31 0 0 1 -10.95-1.84c-.38-.46-.71-1-1.07-1.46l-.84-3.33" fill="#ff703d"/><path d="m437.34 212.75a8.53 8.53 0 0 1 -8.54-8.44 8.38 8.38 0 0 1 8.51-8.22 8.65 8.65 0 0 1 8.48 8.59 8.27 8.27 0 0 1 -8.45 8.07" fill="#46d8f9"/><path d="m250.27 373.29c-.25 5.1-3.76 8.47-8.36 8.4a8.48 8.48 0 0 1 .05-16.95 8.64 8.64 0 0 1 8.31 8.55" fill="#46d8f9"/><path d="m355.13 114.73a8.12 8.12 0 0 1 -8.13 8.27 8.3 8.3 0 0 1 -8.17-8.54 8.08 8.08 0 0 1 8.16-8.27 8.38 8.38 0 0 1 8.19 8.55" fill="#46d8f9"/><path d="m268.09 183.48a23.4 23.4 0 0 1 -4.38-.39 8.56 8.56 0 0 1 -6-9.39 8.44 8.44 0 0 1 7.61-7.44c4.71-.52 9 3.33 9.35 8.31v1.61l-.33.35a7.57 7.57 0 0 0 -6.08 6.63l-.21.32" fill="#fdc503"/><path d="m212.26 146.46a8.12 8.12 0 0 1 8.11 8.3 8 8 0 0 1 -8.12 8 8.33 8.33 0 0 1 -8.05-8.25 8 8 0 0 1 8.06-8.09" fill="#ff703e"/><path d="m401.85 143c-1.13 2.44-3.22 3.66-5.65 4.46a1.23 1.23 0 0 0 -.31-.14 7.68 7.68 0 0 0 -8.43-3.85l-.35-.13c-.81-2-1.45-4-.91-6.26a8.36 8.36 0 0 1 7.62-6.68 8.46 8.46 0 0 1 8.54 5.81 7.33 7.33 0 0 1 .28 4.56c-.26.74-.52 1.48-.79 2.23" fill="#fdc503"/><path d="m268.09 183.48.21-.32a7.59 7.59 0 0 0 6.08-6.63l.33-.35a25.21 25.21 0 0 1 4 .38 8.42 8.42 0 0 1 6.07 8.78 8.3 8.3 0 0 1 -7.3 7.77 8.45 8.45 0 0 1 -9.27-7.41c0-.74-.08-1.48-.12-2.22" fill="#45d7f8"/><path d="m146.28 176.63a8.07 8.07 0 0 1 7.94 8.08 7.82 7.82 0 0 1 -7.77 7.95 8.15 8.15 0 0 1 -8-8.07 7.93 7.93 0 0 1 7.81-8" fill="#fdc505"/><path d="m369.73 381a7.86 7.86 0 0 1 7.81-7.92 8.07 8.07 0 0 1 7.94 8.09 7.89 7.89 0 0 1 -7.81 7.93 8.12 8.12 0 0 1 -7.94-8.1" fill="#ff703e"/><path d="m147.44 147.29a7.79 7.79 0 0 1 .22 15.57 7.79 7.79 0 0 1 -7.72-7.73c-.19-4.37 3.62-8.12 7.5-7.84" fill="#46d8f9"/><path d="m176.42 102.75a7.73 7.73 0 0 1 2.65 8.32c-.92 3.21-3 5.33-6.3 5.84a7.67 7.67 0 0 1 -8.19-3.64c-2.6-4.15-1.38-9.22 2.65-11.37a9 9 0 0 0 9.19.85" fill="#45d7f8"/><path d="m246.18 455.65a8.73 8.73 0 0 1 8.71 9 8.53 8.53 0 0 1 -8.6 8.64 8.87 8.87 0 0 1 -8.85-8.94c0-5 4.16-9 8.74-8.71m1.69 9.89a4.08 4.08 0 0 0 4.22-4.4 4.42 4.42 0 0 0 -4.33-4.45 4.43 4.43 0 0 0 .11 8.85" fill="#fe703e"/><path d="m224.77 108.68a7.45 7.45 0 0 1 7.42-7.5 7.76 7.76 0 0 1 7.59 7.86 7.47 7.47 0 0 1 -7.46 7.47 7.59 7.59 0 0 1 -7.55-7.83" fill="#fdc505"/><path d="m303.17 89.19a7.38 7.38 0 0 1 -7.35 7.53 7.63 7.63 0 0 1 -7.68-7.72 7.55 7.55 0 0 1 7.36-7.59 7.71 7.71 0 0 1 7.67 7.77" fill="#fdc503"/><path d="m347 433a8.3 8.3 0 0 1 -.1-10 8.12 8.12 0 0 1 9.61-2.52 8.52 8.52 0 0 1 5 9.22 7.83 7.83 0 0 1 -6.84 6.65c.08-.32.17-.64.25-1a4.18 4.18 0 0 0 -2.63-5.2c-2.12-.77-3.8.05-5 2.44a3.11 3.11 0 0 1 -.37.46" fill="#ff703d"/><path d="m182.8 346.72c2-1.1 4-1.89 6.34-1.39a8.09 8.09 0 0 1 6.48 7.09c.31 4.07-1.69 7.44-5.33 8.54a7.7 7.7 0 0 1 -10.07-5.52c.4 0 .8 0 1.2-.1a4.37 4.37 0 0 0 3.68-3.5 4.26 4.26 0 0 0 -2.29-4.85.82.82 0 0 0 0-.27" fill="#45d7f8"/><path d="m336.77 187c-3.72.24-6.7-2.68-7.66-5.21a8.44 8.44 0 0 1 2.19-9.25c2.56-2.29 5.79-2.62 9.19-.94a16.47 16.47 0 0 0 .4 2.35c.56 1.7 1.6 2.91 3.57 3l.37.11c-.11 1.65.21 3.36-.73 4.88-.31-.26-.6-.53-.93-.77a4.26 4.26 0 0 0 -6.93 3 10.91 10.91 0 0 0 .53 2.92" fill="#fe703e"/><path d="m348.68 349.65c.09-.94.11-1.89.29-2.81a8.3 8.3 0 0 1 8.8-6.74 8.6 8.6 0 0 1 7.9 7.63c.38 4-1.33 7.15-4.77 8.75-.19-.71-.33-1.44-.58-2.13-1.83-5-7.68-6.78-11.36-4.63a.89.89 0 0 0 -.28-.07" fill="#fcc504"/><path d="m93.49 168.06a7.74 7.74 0 0 1 .17-8.88 7.61 7.61 0 0 1 8.23-2.85 7.81 7.81 0 0 1 5.53 6.78 7.56 7.56 0 0 1 -4 7.49c-2.68-3.24-5.94-4.21-9.88-2.54" fill="#fcc504"/><path d="m152.78 115.63a7.23 7.23 0 0 1 7.35 7.27 7.06 7.06 0 0 1 -7 6.92 7.46 7.46 0 0 1 -7.26-7.27 6.88 6.88 0 0 1 6.94-6.92" fill="#ff703e"/><path d="m192.12 274.52a7.23 7.23 0 0 1 7.09 7.14 7 7 0 0 1 -7 7.12 7.23 7.23 0 0 1 -7-7.24 7 7 0 0 1 6.93-7" fill="#fdc503"/><path d="m178.81 90.16a8.39 8.39 0 0 1 -1.64 12 4.22 4.22 0 0 1 -.71.34 8.67 8.67 0 0 0 -9.22-.87 7.73 7.73 0 0 1 -2.77-8.6 7.63 7.63 0 0 1 6.77-6c-.16.44-.35.87-.48 1.31a4.06 4.06 0 0 0 2.74 5c2.63.59 4.49-.57 5.06-3.15l.25-.07" fill="#fdc503"/><path d="m348.68 349.65a.89.89 0 0 1 .28.07 7.9 7.9 0 0 0 4.17 6.51c2.42 1.46 5 1.36 7.61.56.26 4.26-2.11 7.88-6 8.73s-7.34-.25-9.57-4.31a8.44 8.44 0 0 1 2.16-10.62c.43-.33.88-.63 1.32-.94" fill="#46d7f7"/><path d="m424.52 354.72a7.55 7.55 0 0 1 11.24-9.06 8 8 0 0 1 3.18 8.76 7.34 7.34 0 0 1 -7 5.41 10.58 10.58 0 0 0 .54-1.52 4.53 4.53 0 0 0 -4.28-5.44 5.15 5.15 0 0 0 -3.68 1.85" fill="#fe703e"/><path d="m386.74 159.84a8.9 8.9 0 0 1 -6.53 2.63 8.46 8.46 0 0 1 -8.06-8.65 8.11 8.11 0 0 1 8.23-8.16c.8 0 1.6.12 2.41.19a.83.83 0 0 0 0 .27c-4.53 5-1.11 12.41 3.87 13.44a2.74 2.74 0 0 1 .05.28" fill="#fe703e"/><path d="m305.62 370a7.82 7.82 0 0 1 5.87-9.1 8.1 8.1 0 0 1 9.7 5.64 7.9 7.9 0 0 1 -3.68 9.36 8.23 8.23 0 0 0 -6.42-6.73 8.64 8.64 0 0 0 -5.47.83" fill="#fcc504"/><path d="m281.81 381.91a6.7 6.7 0 0 1 -6.56-6.81 6.6 6.6 0 0 1 6.65-6.48 6.78 6.78 0 0 1 6.46 6.74 6.52 6.52 0 0 1 -6.55 6.55" fill="#ff713f"/><path d="m241 154.16a16.92 16.92 0 0 1 -2.64-2.72 6.48 6.48 0 1 1 7.2 3.18c-.38.1-.79.14-1.19.21z" fill="#fdc505"/><path d="m129.85 124.47c-.51-.15-1-.27-1.53-.46a6.71 6.71 0 0 1 -4.08-7.71 6.39 6.39 0 0 1 6.42-5.06 6.64 6.64 0 0 1 1.87 13c-.38.12-.77.22-1.16.33h-1.52" fill="#fdc505"/><path d="m340.65 364.86a6.7 6.7 0 0 1 6.6 6.78 6.52 6.52 0 1 1 -13-.36 6.4 6.4 0 0 1 6.43-6.42" fill="#ff703e"/><path d="m137.93 372.84a8.22 8.22 0 0 1 13.12-9.56 8.36 8.36 0 0 1 1.19 10.72c-.36-.49-.69-1-1.07-1.47a8 8 0 0 0 -8.1-3 8.75 8.75 0 0 0 -5.14 3.39" fill="#fcc504"/><path d="m166.42 145.41a6.44 6.44 0 0 1 -6.57-6.67 6.23 6.23 0 0 1 6.32-6.44 6.61 6.61 0 0 1 6.66 6.66 6.47 6.47 0 0 1 -6.41 6.45" fill="#fdc505"/><path d="m241.06 62.33a6.32 6.32 0 0 1 -6.37 6.47 6.67 6.67 0 0 1 -6.55-6.63 6.46 6.46 0 1 1 12.92.16" fill="#ff713f"/><path d="m307.22 62.32a6.32 6.32 0 0 1 -6.36 6.48 6.62 6.62 0 0 1 -6.54-6.62 6.44 6.44 0 0 1 6.41-6.49 6.55 6.55 0 0 1 6.49 6.63" fill="#ff713f"/><path d="m265.34 477a6.34 6.34 0 0 1 6.38-6.45 6.6 6.6 0 0 1 6.42 6.72 6.41 6.41 0 0 1 -6.42 6.44 6.54 6.54 0 0 1 -6.38-6.71" fill="#fdc505"/><path d="m83.56 142a6.56 6.56 0 0 1 6.44 6.7 6.46 6.46 0 0 1 -6.5 6.39 6.55 6.55 0 0 1 -6.4-6.71 6.24 6.24 0 0 1 6.46-6.38" fill="#ff713f"/><path d="m317.36 376.23a7.59 7.59 0 0 1 -3.71 7.81 7.9 7.9 0 0 1 -10.83-3c-2.18-3.69-.85-9.11 2.64-10.74.94 3.25 2.8 5.6 6.2 6.52a9.28 9.28 0 0 0 5.7-.58" fill="#45d7f8"/><path d="m369.09 171.64a3.11 3.11 0 0 1 -3.18 3.2 3.2 3.2 0 0 1 -3.19-3.33 3.11 3.11 0 0 1 3.18-3.2 3.21 3.21 0 0 1 3.19 3.33" fill="#ff703e"/><path d="m388.7 174.26a6.52 6.52 0 0 1 6.49 6.44 6.44 6.44 0 0 1 -6.36 6.54 6.59 6.59 0 0 1 -6.47-6.69 6.29 6.29 0 0 1 6.34-6.29" fill="#fdc505"/><path d="m223.61 427.53c0 .11 0 .21-.05.32a8.55 8.55 0 0 1 -4.9 1.61 7.67 7.67 0 0 1 -3.48-14.41 6.7 6.7 0 0 1 6-.25c-.08.46-.17.92-.24 1.38-.62 4.13-.15 8 2.64 11.35" fill="#fe703e"/><path d="m462.17 160.86a6.39 6.39 0 0 1 -6.47 6.37 6.69 6.69 0 0 1 -6.4-6.57 6.44 6.44 0 1 1 12.87.2" fill="#47d8f9"/><path d="m185.54 428.63c-1-3.48 1-8.13 4.82-9.94a9.12 9.12 0 0 1 10.82 2.42c2.94 3.56 2.69 8.62.43 11.23-.19-.5-.38-1-.59-1.5a8.79 8.79 0 0 0 -14.76-2.91c-.23.24-.48.47-.72.7" fill="#fcc504"/><path d="m241 154.16 3.37.67a7.45 7.45 0 0 1 3.33 4.4 6.52 6.52 0 0 1 -2.48 6.8 6.23 6.23 0 0 1 -7.2.11 6.55 6.55 0 0 1 -2.83-6.65c.64-3.06 2.39-4.67 5.81-5.33" fill="#47d8f9"/><path d="m183.69 170.91a6.49 6.49 0 0 1 -6.3-6.59 6.36 6.36 0 0 1 6.47-6.37 6.66 6.66 0 0 1 6.35 6.61 6.39 6.39 0 0 1 -6.52 6.35" fill="#47d8f9"/><path d="m129.85 124.47h1.52a7.51 7.51 0 0 1 3.62 2.1 6.49 6.49 0 0 1 .65 8 6.28 6.28 0 0 1 -7.25 2.51 6.82 6.82 0 0 1 -4.48-6.35 6.49 6.49 0 0 1 5.15-6.17l.79-.16" fill="#46d8f9"/><path d="m185.54 428.63c.24-.23.49-.46.72-.7a8.79 8.79 0 0 1 14.74 2.91c.21.5.4 1 .59 1.5l-.12.44c-.2.18-.39.37-.58.56a9 9 0 0 1 -14.8-2.61c-.23-.49-.45-1-.67-1.48 0-.2.07-.41.1-.62" fill="#148d03"/><path d="m313.18 466.77a6.32 6.32 0 0 1 -.22-12.64 6.44 6.44 0 0 1 6.37 6.48 6.11 6.11 0 0 1 -6.15 6.16" fill="#ff713f"/><path d="m206.52 62.92a6.19 6.19 0 0 1 6.19-6.37 6.48 6.48 0 0 1 6.29 6.45 6.25 6.25 0 0 1 -6.23 6.34 6.32 6.32 0 0 1 -6.23-6.38" fill="#fdc505"/><path d="m152.18 374.49a7.71 7.71 0 0 1 -1.41 8.8 7.57 7.57 0 0 1 -8.33 2.18 7.84 7.84 0 0 1 -5.64-6.77c-.23-1.87-.25-3.8 1.11-5.39.36.49.7 1 1.08 1.46a8.14 8.14 0 0 0 10.22 2.1 21.51 21.51 0 0 0 3-2.38" fill="#46d7f7"/><path d="m275.08 359a6.23 6.23 0 1 1 -6.06-6.31 6.27 6.27 0 0 1 6.06 6.31" fill="#fdc505"/><path d="m303.47 418.05a6.25 6.25 0 0 1 -.11-12.49 6.39 6.39 0 0 1 6.21 6.26 6.05 6.05 0 0 1 -6.1 6.23" fill="#fdc505"/><path d="m185.44 429.25c.22.49.44 1 .67 1.48a9 9 0 0 0 14.8 2.61c.19-.19.38-.38.58-.56a8.63 8.63 0 0 1 -6.64 10.05 8.86 8.86 0 0 1 -10.47-6.1 7.88 7.88 0 0 1 1.06-7.48" fill="#46d7f7"/><path d="m199 116a6.16 6.16 0 0 1 -6.18 6.2 6.38 6.38 0 0 1 -6.11-6.35 6.13 6.13 0 0 1 6.19-6.17 6.28 6.28 0 0 1 6.1 6.32" fill="#ff713f"/><path d="m451.83 371.76a17.37 17.37 0 0 1 .26-3.77 6.21 6.21 0 0 1 7.11-4.3 6.7 6.7 0 0 1 5.4 6.64 6.44 6.44 0 0 1 -5.49 6.3c-.46.06-.94.08-1.4.12l-.34-.2a5.55 5.55 0 0 0 -5.26-4.49z" fill="#fcc504"/><path d="m276.68 267.55a6.17 6.17 0 1 1 -12.34.09 6.17 6.17 0 1 1 12.34-.09" fill="#45d7f8"/><path d="m386.74 159.84a2.74 2.74 0 0 0 -.05-.28c4.43-4.65 1.19-12.53-3.87-13.44a.83.83 0 0 1 0-.27l4.32-2.54.36.13c1.92 3.23 4.78 4.39 8.42 3.85a1.23 1.23 0 0 1 .31.14 9.79 9.79 0 0 1 1 5.68 8.09 8.09 0 0 1 -8.6 6.89l-1.82-.16" fill="#46d7f7"/><path d="m168.1 402.53a6.48 6.48 0 0 1 -6.52-3.18 6.94 6.94 0 0 1 -.43-7.31 6.4 6.4 0 0 1 5.63-3.7 6.79 6.79 0 0 1 6.47 3.37 16.93 16.93 0 0 1 .92 1.8l-.15.18c-3.4.05-6 3.47-6 6.22 0 .87.07 1.75.1 2.62" fill="#fcc504"/><path d="m334.74 415a6.2 6.2 0 0 1 -6 6.15 6.31 6.31 0 0 1 -6.09-6.32 6.16 6.16 0 0 1 6.1-6 6.29 6.29 0 0 1 6 6.2" fill="#47d8f9"/><path d="m457.37 376.55.34.2c0 .67.05 1.34 0 2a6.15 6.15 0 0 1 -6.13 6 6.46 6.46 0 0 1 -6.42-5.77 6.28 6.28 0 0 1 5.26-7c.46-.09.92-.14 1.39-.22l.28.3a5.8 5.8 0 0 0 5.26 4.49" fill="#46d7f7"/><path d="m174.17 393.51c.6.05 1.21.08 1.81.16a7 7 0 0 1 5.83 7 6.86 6.86 0 0 1 -6.26 7 6.7 6.7 0 0 1 -7.13-5c4.71-1.41 6.76-4.69 5.6-9a1.3 1.3 0 0 1 .15-.18" fill="#46d7f7"/><path d="m210.28 83.41c-3-.62-4.93-2.32-5.46-5.42a6.14 6.14 0 0 1 3.78-6.64 6.22 6.22 0 0 1 7.31 2.32c1.8 2.82 1.3 5.49-.63 8l-.37.1a3.61 3.61 0 0 0 -4.23 1.45z" fill="#46d8f9"/><path d="m125.44 170.72a5.86 5.86 0 0 1 -5.91 5.88 6 6 0 0 1 -5.94-6.11 5.87 5.87 0 0 1 6-6 6.1 6.1 0 0 1 5.86 6.24" fill="#ff713f"/><path d="m400.5 355.5a6 6 0 0 1 6 5.84 5.85 5.85 0 1 1 -11.7 0 5.62 5.62 0 0 1 5.68-5.84" fill="#47d8f9"/><path d="m302.6 107.68a7.35 7.35 0 0 1 8.16 6.36 7.49 7.49 0 0 1 -5.88 8.39 6.47 6.47 0 0 1 -5.34-1.14c1.75-2.34 3.2-4.85 3.37-7.82a51.18 51.18 0 0 0 -.31-5.79" fill="#46d7f7"/><path d="m91.36 170.08 2.07-1.73a21.7 21.7 0 0 0 2.4 2.11c2.39 1.57 4.93 1.42 7.5.43 2.49 3.37 1.15 8.21-2 10.34-3.73 2.56-8.51 1-10.13-1.86l1.16-.3a4.31 4.31 0 0 0 3.37-4 4.52 4.52 0 0 0 -2.69-4.51 12.74 12.74 0 0 0 -1.73-.51" fill="#46d7f7"/><path d="m261.33 496.51c-1.86 1.77-4 2.77-6.6 2a6.19 6.19 0 0 1 -4.65-5.31 6.05 6.05 0 0 1 2.8-6.28 6 6 0 0 1 6.85 0l.86.54v.31c-3.27 2.44-2.93 6.59.69 8.49a2.25 2.25 0 0 1 .08.24" fill="#46d7f7"/><path d="m343.39 133.17c-1.36-2.68-.74-5.14 1-7.33a6.47 6.47 0 0 1 7.12-2.22 7.13 7.13 0 0 1 -.54 13.9c.32-.49.63-1 1-1.48a4.77 4.77 0 0 0 -.27-5.61c-2.79-2.84-6.3-1.76-7.52 1.54-.17.47 0 1.14-.78 1.2" fill="#ff703e"/><path d="m386.79 107.29a5.47 5.47 0 0 1 -5.34 5.48 5.71 5.71 0 0 1 -5.64-5.68 5.48 5.48 0 0 1 5.48-5.54 5.54 5.54 0 0 1 5.5 5.74" fill="#fdc505"/><path d="m144.36 410.71a5.65 5.65 0 0 1 5.64 5.7 5.59 5.59 0 0 1 -5.41 5.5 5.77 5.77 0 0 1 -5.66-5.73 5.57 5.57 0 0 1 5.43-5.47" fill="#ff713f"/><path d="m428.85 172.13a5.55 5.55 0 0 1 -5.42-5.62 5.4 5.4 0 0 1 5.47-5.31 5.49 5.49 0 0 1 5.3 5.52 5.35 5.35 0 0 1 -5.35 5.41" fill="#fdc505"/><path d="m381.48 120.53a5.13 5.13 0 0 1 -5.3 5.39 5.47 5.47 0 0 1 -.18-10.92 5.43 5.43 0 0 1 5.47 5.55" fill="#47d8f9"/><path d="m284.88 461.7a6.16 6.16 0 0 1 5-6.95 6.44 6.44 0 0 1 7.28 4.07 6.37 6.37 0 0 1 -3 8.1c-.14-.45-.26-.9-.42-1.35a6.48 6.48 0 0 0 -4.72-4.29 7.46 7.46 0 0 0 -4.16.42" fill="#fcc504"/><path d="m152.18 374.49a21.51 21.51 0 0 1 -3 2.38 8.14 8.14 0 0 1 -10.22-2.1c-.38-.47-.72-1-1.08-1.46v-.47a8.75 8.75 0 0 1 5.14-3.39 8 8 0 0 1 8.1 3c.38.47.71 1 1.07 1.47l-.06.54" fill="#148d03"/><path d="m293.93 467.23a6.08 6.08 0 0 1 -4.85 6.66 6.48 6.48 0 0 1 -7.34-4.34 6.3 6.3 0 0 1 3-7.59 6.8 6.8 0 0 0 3.93 5.23 6.9 6.9 0 0 0 5.28 0" fill="#46d7f7"/><path d="m218.8 462.49a6.34 6.34 0 0 1 10.95-5.68 6.71 6.71 0 0 1 .61 8.07c-.33.51-.74 1-1.11 1.44l-.29-.05a5.92 5.92 0 0 0 -4.46-4.89c-2.12-.7-3.93 0-5.7 1.11" fill="#fcc504"/><path d="m397.33 399.45a6.57 6.57 0 0 1 -1 12.67 6.15 6.15 0 0 1 -6.46-3.05 10.72 10.72 0 0 0 7.47-9.62" fill="#ff713f"/><path d="m229 466.27.29.05c.09 2.14-.2 4.16-1.83 5.77a5.89 5.89 0 0 1 -6.47 1.55 6 6 0 0 1 -4.28-5.56c-.15-2 .25-3.88 2-5.19.27.53.51 1.09.82 1.61a6.27 6.27 0 0 0 9.47 1.77" fill="#46d7f7"/><path d="m276.66 126.05a5 5 0 0 1 -4.88 4.93 5 5 0 0 1 -5-5.08 4.86 4.86 0 0 1 4.86-4.9 5.05 5.05 0 0 1 5 5" fill="#fdc505"/><path d="m243 399a5 5 0 0 1 -5.05-5 5 5 0 0 1 4.82-5 5.13 5.13 0 0 1 5 5 4.89 4.89 0 0 1 -4.82 5" fill="#ff713f"/><path d="m455 305.22a5 5 0 0 1 4.92 5.1 4.83 4.83 0 0 1 -4.92 4.85 5.07 5.07 0 0 1 -4.86-5 4.94 4.94 0 0 1 4.86-4.95" fill="#fdc505"/><path d="m88.93 347.16a4.78 4.78 0 0 1 -5 4.72 5 5 0 0 1 -4.73-5.1 4.92 4.92 0 0 1 5-4.86 5 5 0 0 1 4.79 5.24" fill="#fdc607"/><path d="m460.15 208.86a4.9 4.9 0 0 1 4.84-4.94 5.1 5.1 0 0 1 4.88 5 4.89 4.89 0 0 1 -4.8 5 4.8 4.8 0 0 1 -4.92-5" fill="#47d8f9"/><path d="m451.4 200.19a5 5 0 0 1 -4.86-4.94 4.85 4.85 0 0 1 4.86-4.89 5 5 0 0 1 5 5 4.81 4.81 0 0 1 -5 4.78" fill="#ff713f"/><path d="m262.59 42.2.21.4 1 .51c.18.63.33 1.26.52 1.88a4.94 4.94 0 0 1 -2 5.65 4.91 4.91 0 0 1 -6.8-6.64 4.65 4.65 0 0 1 5.48-2.26c.52.14 1 .31 1.55.46" fill="#48d8f9"/><path d="m284.48 142.39a4.9 4.9 0 0 1 -4.67 4.9 5.1 5.1 0 0 1 -5-4.9 4.83 4.83 0 1 1 9.65 0" fill="#47d8f9"/><path d="m360.74 356.79c-2.61.8-5.19.9-7.61-.56a7.9 7.9 0 0 1 -4.17-6.51c3.68-2.15 9.53-.37 11.36 4.63.25.69.39 1.42.58 2.13a3 3 0 0 1 -.16.31" fill="#148d03"/><path d="m302.6 107.68a51.18 51.18 0 0 1 .31 5.79c-.17 3-1.62 5.48-3.37 7.82a1.13 1.13 0 0 1 -.32 0c-.47-.49-1-.94-1.39-1.46a7.48 7.48 0 0 1 3.17-11.89c.44-.17.9-.28 1.35-.42l.28.16" fill="#465f3d"/><path d="m317.36 376.23a9.28 9.28 0 0 1 -5.7.58c-3.4-.92-5.26-3.27-6.2-6.52a1.66 1.66 0 0 0 .16-.33 8.64 8.64 0 0 1 5.47-.83 8.23 8.23 0 0 1 6.42 6.73z" fill="#148d03"/><path d="m368.05 97.83a4.46 4.46 0 0 1 -4.44 4.37 4.59 4.59 0 0 1 -4.44-4.62 4.46 4.46 0 0 1 4.54-4.47 4.6 4.6 0 0 1 4.34 4.72" fill="#ff7241"/><path d="m113.62 204.58a4.44 4.44 0 0 1 -4.38 4.41 4.56 4.56 0 0 1 -4.48-4.76 4.44 4.44 0 0 1 4.48-4.32 4.59 4.59 0 0 1 4.38 4.67" fill="#fdc607"/><path d="m312.92 167.81a4.39 4.39 0 0 1 -4.44 4.54 4.63 4.63 0 0 1 -4.42-4.65 4.43 4.43 0 1 1 8.86.11" fill="#fdc607"/><path d="m460.14 183.34a4.38 4.38 0 0 1 4.43-4.54 4.65 4.65 0 0 1 4.45 4.64 4.44 4.44 0 1 1 -8.88-.1" fill="#fdc607"/><path d="m236.66 187.44a4.42 4.42 0 0 1 -4.32 4.46 4.65 4.65 0 0 1 -4.55-4.53 4.44 4.44 0 1 1 8.87.07" fill="#fdc607"/><path d="m449.22 344.71a4.5 4.5 0 0 1 -4.46-4.55 4.43 4.43 0 0 1 4.31-4.48 4.59 4.59 0 0 1 4.58 4.68 4.4 4.4 0 0 1 -4.43 4.35" fill="#fdc607"/><path d="m474.44 295.29a4.43 4.43 0 0 1 -4.23 4.54 4.66 4.66 0 0 1 -4.6-4.69 4.42 4.42 0 1 1 8.83.15" fill="#ff7241"/><path d="m268.1 221.25a4.47 4.47 0 0 1 -4.46-4.54 4.33 4.33 0 0 1 4.5-4.44 4.55 4.55 0 0 1 4.4 4.64 4.41 4.41 0 0 1 -4.44 4.34" fill="#ff713f"/><path d="m303.7 342.32a4.44 4.44 0 0 1 -4.28 4.51 4.61 4.61 0 0 1 -4.6-4.66 4.51 4.51 0 0 1 4.4-4.42 4.6 4.6 0 0 1 4.48 4.57" fill="#fdc505"/><path d="m428.76 128.79a4.67 4.67 0 0 1 4.52 4.57 4.43 4.43 0 1 1 -8.85.07 4.42 4.42 0 0 1 4.33-4.64" fill="#fdc607"/><path d="m210.34 364.36a4.5 4.5 0 0 1 .06 9 4.48 4.48 0 0 1 -4.39-4.61 4.29 4.29 0 0 1 4.33-4.38" fill="#fdc505"/><path d="m78.78 335.83a4.24 4.24 0 0 1 -4.36 4.35 4.51 4.51 0 0 1 -4.53-4.48 4.45 4.45 0 1 1 8.89.13" fill="#ff7241"/><path d="m138.14 348.34a4.61 4.61 0 0 1 4.56 4.49 4.41 4.41 0 1 1 -8.82.19 4.4 4.4 0 0 1 4.26-4.68" fill="#fdc505"/><path d="m323.7 204.65a4.48 4.48 0 0 1 -4.56-4.44 4.41 4.41 0 1 1 8.82 0 4.21 4.21 0 0 1 -4.26 4.41" fill="#fdc505"/><path d="m97.07 394.55a4.49 4.49 0 0 1 -.08-9 4.56 4.56 0 0 1 4.44 4.6 4.34 4.34 0 0 1 -4.36 4.38" fill="#ff7241"/><path d="m183.35 384.52a4.35 4.35 0 0 1 4.28-4.46 4.65 4.65 0 0 1 4.57 4.71 4.43 4.43 0 1 1 -8.85-.25" fill="#ff713f"/><path d="m213.37 405.08a4.34 4.34 0 0 1 -4.43-4.5 4.28 4.28 0 0 1 4.23-4.47 4.51 4.51 0 0 1 4.59 4.61 4.35 4.35 0 0 1 -4.39 4.36" fill="#fdc505"/><path d="m221.65 355.67a4.19 4.19 0 0 1 -4.25 4.42 4.5 4.5 0 1 1 4.25-4.42" fill="#ff7241"/><path d="m343.39 133.17c.79-.06.61-.73.78-1.2 1.22-3.3 4.73-4.38 7.52-1.54a4.77 4.77 0 0 1 .31 5.57c-.34.49-.65 1-1 1.48a4 4 0 0 1 -.58.13c-4.06.4-5.57-.56-7-4.48" fill="#fd5701"/><path d="m348.16 146.32a4.34 4.34 0 0 1 -4.42 4.29 4.54 4.54 0 0 1 -4.35-4.46 4.39 4.39 0 1 1 8.77.17" fill="#48d8f9"/><path d="m304.72 184.35a4.45 4.45 0 0 1 -4.35-4.42 4.54 4.54 0 0 1 4.35-4.45 4.64 4.64 0 0 1 4.45 4.59 4.37 4.37 0 0 1 -4.45 4.28" fill="#48d8f9"/><path d="m418.38 146.14a4.33 4.33 0 0 1 4.3-4.41 4.57 4.57 0 0 1 4.39 4.4 4.33 4.33 0 0 1 -4.44 4.48 4.4 4.4 0 0 1 -4.25-4.47" fill="#48d8f9"/><path d="m327.85 440a4.45 4.45 0 0 1 4.44 4.34 4.35 4.35 0 0 1 -4.15 4.38 4.3 4.3 0 0 1 -4.37-4.34 4.17 4.17 0 0 1 4.08-4.38" fill="#fdc607"/><path d="m365 200.27a4.49 4.49 0 0 1 -4.33 4.26 4.36 4.36 0 1 1 4.33-4.26" fill="#47d8f9"/><path d="m275.33 445.7a4.2 4.2 0 0 1 -4.27-4.4 4.09 4.09 0 0 1 4.21-4.21 4.34 4.34 0 0 1 4.31 4.41 4.16 4.16 0 0 1 -4.25 4.2" fill="#ff7241"/><path d="m330.74 120.45a4.18 4.18 0 0 1 -4.07 4.38 4.34 4.34 0 0 1 -4.44-4.29 4.25 4.25 0 0 1 4.09-4.39 4.33 4.33 0 0 1 4.42 4.3" fill="#fdc607"/><path d="m313.09 436.34a4.21 4.21 0 0 1 -4.27-4.41 4.13 4.13 0 0 1 4.23-4.2 4.29 4.29 0 0 1 4.29 4.41 4.17 4.17 0 0 1 -4.25 4.2" fill="#ff7241"/><path d="m187.57 196.07a4 4 0 0 1 -4.32 4.09 4.22 4.22 0 0 1 -4.24-4.44 4.32 4.32 0 0 1 4.4-4.11 4.1 4.1 0 0 1 4.16 4.46" fill="#48d8f9"/><path d="m84.08 305.26a4.28 4.28 0 1 1 0-8.56 4.28 4.28 0 1 1 0 8.56" fill="#48d8f9"/><path d="m164.28 346.57a4.3 4.3 0 0 1 -4.28-4.41 4.14 4.14 0 0 1 4.07-4.15 4.33 4.33 0 0 1 4.4 4.3 4.2 4.2 0 0 1 -4.19 4.26" fill="#fdc607"/><path d="m211 109.27a4.25 4.25 0 1 1 4.1-4.29 4.08 4.08 0 0 1 -4.1 4.29" fill="#48d8f9"/><path d="m308.11 448.52a4 4 0 0 1 -4.2-4.22 4.13 4.13 0 0 1 4.2-4.27 4.37 4.37 0 0 1 4.14 4.42 4 4 0 0 1 -4.14 4.07" fill="#47d8f9"/><path d="m165.92 423 .84 3.33a6.83 6.83 0 0 1 -2.21 3.48 1.27 1.27 0 0 0 -.34 0 3.83 3.83 0 0 0 -4.93-.69 2 2 0 0 0 -.34-.06 14.7 14.7 0 0 1 -1.09-3 3.9 3.9 0 0 1 2-4.08 4.17 4.17 0 0 1 4.74.11c.45.29.88.61 1.32.92" fill="#fcc504"/><path d="m247.76 91.71a4 4 0 0 1 4.24 4.12 4.24 4.24 0 0 1 -4.13 4.35 4.43 4.43 0 0 1 -4.23-4.34 4.06 4.06 0 0 1 4.08-4.13" fill="#47d8f9"/><path d="m397.33 399.45a10.72 10.72 0 0 1 -7.47 9.62 1.4 1.4 0 0 1 -.34-.13 16.57 16.57 0 0 1 -.72-2.51 6.47 6.47 0 0 1 7.2-7.43c.4 0 .79.14 1.19.21l.18.23" fill="#465f3d"/><path d="m469.11 326.34a4.35 4.35 0 0 1 -3.48-4.68 4.44 4.44 0 0 1 3.82-4.07 4.3 4.3 0 0 1 4.71 3 14 14 0 0 1 .1 3.37.87.87 0 0 0 -.31.14c-2.23-.53-3.66.61-4.84 2.29" fill="#fcc504"/><path d="m313.1 399.65a4.33 4.33 0 0 1 -4.13-4.18 4.13 4.13 0 0 1 4.03-4.17 4.26 4.26 0 0 1 4.14 4.15 4.21 4.21 0 0 1 -4.08 4.2" fill="#ff7241"/><path d="m249.93 81a4 4 0 0 1 4-4.11 4.23 4.23 0 0 1 4.07 4.11 4.06 4.06 0 1 1 -8.11-.09" fill="#fdc607"/><path d="m206.71 182.74a4 4 0 0 1 -4.18 4 4.23 4.23 0 0 1 -4-4.28 4 4 0 0 1 4.21-4 4.12 4.12 0 0 1 3.94 4.27" fill="#fdc607"/><path d="m158.94 429a2 2 0 0 1 .34.06 3.86 3.86 0 0 0 4.93.69 1.27 1.27 0 0 1 .34 0 5 5 0 0 1 1.07 3.39 4.35 4.35 0 0 1 -4.16 4.17 4.45 4.45 0 0 1 -4.42-3.92 4.82 4.82 0 0 1 1.9-4.44" fill="#46d7f7"/><path d="m261.27 278.81a4.05 4.05 0 0 1 -4.16 4 4.21 4.21 0 0 1 -4-4.28 4.1 4.1 0 0 1 4.17-4 4.18 4.18 0 0 1 4 4.29" fill="#ff7241"/><path d="m325.42 68.46a4 4 0 1 1 -8.07.19 4 4 0 0 1 3.9-4.27 4.19 4.19 0 0 1 4.17 4.08" fill="#fdc607"/><path d="m344.83 177.05-.37-.11c-.36-2.41-1.9-4-3.76-5.34.94-2.91 3.31-4.22 5.83-3.23a4.54 4.54 0 0 1 2.4 6.33 4.09 4.09 0 0 1 -4.1 2.35" fill="#fdc505"/><path d="m398.58 211.05a4.15 4.15 0 0 1 4.21 4 4 4 0 0 1 -4 4.2 4.15 4.15 0 0 1 -4.22-4 4 4 0 0 1 4-4.2" fill="#ff713f"/><path d="m200.43 454.84a3.9 3.9 0 0 1 3.93-4 4.13 4.13 0 0 1 4.14 4.07 4 4 0 1 1 -8.07-.08" fill="#ff7241"/><path d="m349.44 437.92a16.15 16.15 0 0 1 .81 1.61 4 4 0 0 1 -2.37 5.24 4.11 4.11 0 0 1 -5.17-2.65 4 4 0 0 1 2.7-5.08 16.91 16.91 0 0 1 2.37-.34l.52.43 1.16.81" fill="#48d8f9"/><path d="m206.93 140.86a3.86 3.86 0 0 1 3.92-4 4.17 4.17 0 0 1 4.05 4.22 4 4 0 0 1 -4.11 3.88 3.93 3.93 0 0 1 -3.86-4.09" fill="#48d8f9"/><path d="m317.44 86.57a4 4 0 0 1 -4.07-3.86 4.12 4.12 0 0 1 4-4.18 4.21 4.21 0 0 1 4 4.08 3.85 3.85 0 0 1 -3.91 4" fill="#48d8f9"/><path d="m474 324.05a.87.87 0 0 1 .31-.14l.87.48a4.33 4.33 0 0 1 -3.81 7.77 4.18 4.18 0 0 1 -2.11-5.54c2.06 0 3.86-.41 4.74-2.57" fill="#46d7f7"/><path d="m261.33 496.51a2.25 2.25 0 0 0 -.08-.24 6 6 0 0 0 -.69-8.49v-.31a14.7 14.7 0 0 1 2.75-.54 4.9 4.9 0 0 1 4.84 5.15 4.79 4.79 0 0 1 -5.05 4.7 14 14 0 0 1 -1.8-.27" fill="#fe703e"/><path d="m106.71 134.86a4.07 4.07 0 0 1 3.93 4.06 4 4 0 0 1 -3.83 3.93 4.14 4.14 0 0 1 -4-4 4 4 0 0 1 3.94-4" fill="#fdc607"/><path d="m419 380.66a3.88 3.88 0 0 1 4 3.95 3.83 3.83 0 0 1 -3.75 3.94 4 4 0 0 1 -4.06-4.08 3.83 3.83 0 0 1 3.86-3.81" fill="#ff7241"/><path d="m229 466.27a6.27 6.27 0 0 1 -9.47-1.77c-.31-.52-.55-1.08-.82-1.61.05-.14.09-.27.13-.4 1.76-1.07 3.58-1.81 5.7-1.11a5.92 5.92 0 0 1 4.46 4.89" fill="#178e05"/><path d="m223.61 427.53c-2.79-3.34-3.26-7.22-2.64-11.35.07-.46.16-.92.24-1.38a1.6 1.6 0 0 1 .31-.1 23.68 23.68 0 0 1 2.68 2.08c2.83 2.85 2.56 8.62-.59 10.75" fill="#465f3d"/><path d="m401.85 143c.27-.75.53-1.49.79-2.23a15.09 15.09 0 0 1 1.49-1 3.79 3.79 0 0 1 5.18 1.57 3.87 3.87 0 0 1 -1.55 5.21 3.77 3.77 0 0 1 -5.14-1.68c-.3-.6-.51-1.23-.77-1.85" fill="#ff7241"/><path d="m397.8 119.75a3.9 3.9 0 0 1 -3.73-4 3.75 3.75 0 0 1 3.93-3.71 3.89 3.89 0 0 1 3.65 4 3.83 3.83 0 0 1 -3.85 3.64" fill="#ff7241"/><path d="m126.69 411.24a4.24 4.24 0 0 1 -2.42-2.83 3.82 3.82 0 0 1 2.3-4.46 3.78 3.78 0 0 1 4.58 1.63 3.85 3.85 0 0 1 -.79 4.95 10.78 10.78 0 0 1 -1.39.82z" fill="#fdc607"/><path d="m216.63 89.41a10.46 10.46 0 0 1 .37 2.59 4.21 4.21 0 0 1 -7.42 2.23 4.18 4.18 0 0 1 -.64-4.71 7.21 7.21 0 0 1 1.06-1.43h.31c1.71 2.38 3.56 2.78 6 1.32z" fill="#fdc607"/><path d="m126.69 411.24 2.28.11a10.11 10.11 0 0 1 1.31.9 3.78 3.78 0 0 1 0 5.55 3.6 3.6 0 0 1 -5.34-.44 3.85 3.85 0 0 1 .56-5.38 13.31 13.31 0 0 1 1.2-.74" fill="#48d8f9"/><path d="m123.44 388.37a3.49 3.49 0 0 1 -3.67 3.7 3.77 3.77 0 0 1 -3.68-3.8 3.68 3.68 0 1 1 7.35.1" fill="#48d8f9"/><path d="m293.93 467.23a6.9 6.9 0 0 1 -5.28 0 6.8 6.8 0 0 1 -3.93-5.23l.16-.26a7.37 7.37 0 0 1 4.16-.42 6.48 6.48 0 0 1 4.72 4.29c.16.45.28.9.42 1.35a3.76 3.76 0 0 1 -.25.31" fill="#178e05"/><path d="m272 71.54-.36-.14c-1.21-3.06-.88-4.56 1.39-6.41.41.32.82.64 1.25 1a7.53 7.53 0 0 0 5.27 1.82 1.68 1.68 0 0 1 .32.09 5.61 5.61 0 0 1 -2.19 4.93h-.48a6.62 6.62 0 0 0 -5.2-1.22" fill="#fe703e"/><path d="m91.36 170.08a12.74 12.74 0 0 1 1.73.51 4.52 4.52 0 0 1 2.69 4.51 4.31 4.31 0 0 1 -3.37 4l-1.16.3-.54-.35a8.79 8.79 0 0 1 .24-8.75z" fill="#465f3d"/><path d="m409.79 189.19a3.91 3.91 0 0 1 3.92-3.26 4.35 4.35 0 0 1 4.23 3.82 20.27 20.27 0 0 1 -.4 3.35l-.41.14a10.25 10.25 0 0 1 -7.34-4.05" fill="#fd5701"/><path d="m216.63 89.41h-.32a11.34 11.34 0 0 0 -1.41-1.65c-1.52-1.21-3.06-1.06-4.61.33h-.29a6.63 6.63 0 0 1 .3-4.68l.4-.16a4.69 4.69 0 0 0 4.23-1.45l.37-.1c.1.08.19.17.3.25 3.15 2 3.52 4.61 1 7.46" fill="#ff713f"/><path d="m178.56 90.23c-.57 2.58-2.43 3.74-5.06 3.15a4.06 4.06 0 0 1 -2.74-5c.13-.44.32-.87.48-1.31a.57.57 0 0 1 .34-.16c2.78.19 5.42.67 7 3.37" fill="#fd5701"/><path d="m424.52 354.72a5.15 5.15 0 0 1 3.68-1.85 4.53 4.53 0 0 1 4.28 5.44 10.58 10.58 0 0 1 -.54 1.52l-.4.2a8.7 8.7 0 0 1 -7.06-4.82z" fill="#465f3d"/><path d="m347 433a3.11 3.11 0 0 0 .37-.46c1.19-2.39 2.87-3.21 5-2.44a4.18 4.18 0 0 1 2.63 5.2c-.08.33-.17.65-.25 1l-.52.33a11.1 11.1 0 0 1 -7-2.89z" fill="#fd5701"/><path d="m174 393.69c1.16 4.29-.89 7.58-5.6 9a3.13 3.13 0 0 0 -.32-.15c0-.87-.11-1.74-.1-2.62 0-2.75 2.62-6.17 6-6.22" fill="#178e05"/><path d="m336.77 187a10.91 10.91 0 0 1 -.53-2.92 4.26 4.26 0 0 1 6.93-3c.33.24.62.51.93.77v.48a9 9 0 0 1 -7 4.79l-.39-.17" fill="#465f3d"/><path d="m182.81 347a4.25 4.25 0 0 1 2.29 4.85 4.37 4.37 0 0 1 -3.68 3.5c-.4.07-.8.07-1.2.1l-.35-.32a20.36 20.36 0 0 1 -.05-2.59 6.93 6.93 0 0 1 3-5.54" fill="#465f3d"/><path d="m182.81 347a6.93 6.93 0 0 0 -3 5.54 20.36 20.36 0 0 0 .05 2.59 4.43 4.43 0 1 1 1.95-8.64c.33.07.65.16 1 .24a.82.82 0 0 1 0 .27" fill="#ff7241"/><path d="m103.33 170.89c-2.57 1-5.11 1.14-7.5-.43a21.7 21.7 0 0 1 -2.4-2.11c0-.09 0-.19.06-.29 3.94-1.67 7.2-.7 9.88 2.54v.29" fill="#178e05"/><path d="m448.11 175a2.78 2.78 0 0 1 -2.85 2.78 2.85 2.85 0 0 1 -2.66-2.8 2.68 2.68 0 0 1 2.76-2.84 2.72 2.72 0 0 1 2.75 2.86" fill="#fdc607"/><path d="m337.16 187.2a9 9 0 0 0 7-4.79c1.29 2.31.82 4.64-1.21 6s-4.23.87-5.78-1.18" fill="#46d7f7"/><path d="m480 289.09a2.65 2.65 0 0 1 -2.68 2.7 2.59 2.59 0 0 1 -2.6-2.75 2.47 2.47 0 0 1 2.55-2.54 2.54 2.54 0 0 1 2.73 2.59" fill="#48d8f9"/><path d="m272.69 225.66a2.62 2.62 0 0 1 2.67-2.7 2.84 2.84 0 0 1 2.61 2.83 2.8 2.8 0 0 1 -2.62 2.59 2.67 2.67 0 0 1 -2.66-2.72" fill="#48d8f9"/><path d="m424.48 355.21a8.7 8.7 0 0 0 7.06 4.82 4.24 4.24 0 0 1 -5.7 1 4.38 4.38 0 0 1 -1.36-5.81" fill="#46d7f7"/><path d="m91 170.27a8.79 8.79 0 0 0 -.24 8.75 4.25 4.25 0 0 1 -3.8-4.36c0-2.36 1.42-3.9 4-4.39" fill="#ff7241"/><path d="m409.79 189.19a10.25 10.25 0 0 0 7.34 4.05c-1.64 1.75-3.55 2.19-5.42 1.24s-2.72-2.84-2.25-5.3h.33" fill="#fdc607"/><path d="m167.24 101.6a8.67 8.67 0 0 1 9.22.87 2.7 2.7 0 0 1 0 .28 9 9 0 0 1 -9.19-.85c0-.1 0-.2 0-.3" fill="#178e05"/><path d="m347.13 433.75a11.16 11.16 0 0 0 7 2.9c-1.22 1.72-2.93 1.64-4.72 1.27l-1.17-.81-.52-.43c-.21-1-.43-2-.64-2.95" fill="#fdc607"/><path d="m178.56 90.23c-1.56-2.7-4.2-3.18-7-3.37a3.52 3.52 0 0 1 4.23-1.38 3.84 3.84 0 0 1 2.85 3.29c.07.46.1.93.15 1.39l-.25.07" fill="#ff7241"/><path d="m279.56 67.76a7.53 7.53 0 0 1 -5.27-1.82c-.43-.31-.84-.63-1.25-1a1.06 1.06 0 0 1 0-.31c2.85-.83 4.67-.31 6.1 1.8a4.34 4.34 0 0 1 .38 1.28" fill="#fd5701"/><path d="m340.7 171.6c1.85 1.36 3.4 2.93 3.76 5.34-2-.05-3-1.26-3.57-3a16.47 16.47 0 0 1 -.4-2.35.16.16 0 0 1 .21 0" fill="#fd5701"/><path d="m474 324.05c-.88 2.16-2.68 2.61-4.74 2.57a.94.94 0 0 0 -.1-.28c1.18-1.68 2.61-2.82 4.84-2.29" fill="#178e05"/><path d="m272 71.54a6.62 6.62 0 0 1 5.2 1.22c-2.21 1-3.55.64-5.2-1.22" fill="#465f3d"/><path d="m274.38 176.53a7.59 7.59 0 0 1 -6.08 6.63 7.57 7.57 0 0 1 6.08-6.63" fill="#178e05"/><path d="m395.89 147.29c-3.64.54-6.5-.62-8.43-3.85a7.68 7.68 0 0 1 8.43 3.85" fill="#178e05"/><path d="m247.87 465.54a4.43 4.43 0 0 1 -.11-8.85 4.42 4.42 0 0 1 4.33 4.45 4.08 4.08 0 0 1 -4.22 4.4" fill="#465f3d"/><path d="m382.82 146.12c5.06.91 8.3 8.79 3.87 13.44-5-1-8.4-8.4-3.87-13.44" fill="#465f3d"/><path d="m457.37 376.55a5.8 5.8 0 0 1 -5.26-4.49 5.55 5.55 0 0 1 5.26 4.49" fill="#178e05"/><path d="m214.91 81.8a4.68 4.68 0 0 1 -4.23 1.45 3.61 3.61 0 0 1 4.23-1.45" fill="#465f3d"/><path d="m260.56 487.78a6 6 0 0 1 .69 8.49c-3.62-1.9-4-6-.69-8.49" fill="#465f3d"/><path d="m164.21 429.72a3.86 3.86 0 0 1 -4.93-.69 3.83 3.83 0 0 1 4.93.69" fill="#178e05"/><path d="m347.76 436.67.52.44z" fill="#fff"/><path d="m210.29 88.1c1.55-1.39 3.09-1.54 4.61-.33a10.23 10.23 0 0 1 1.41 1.65c-2.46 1.46-4.31 1.06-6-1.32" fill="#fd5701"/><g fill="#fff"><path d="m67.71 282.62h13.78v-35.52h-13.78v-9.51h38.32v9.51h-13.86v35.52h13.86v9.5h-38.32z"/><path d="m115.93 238.14a71.13 71.13 0 0 1 7.2-1c2.62-.24 5.23-.35 7.83-.35a51.05 51.05 0 0 1 8.14.66 20.11 20.11 0 0 1 7.36 2.65 15.34 15.34 0 0 1 5.34 5.53 18.26 18.26 0 0 1 2.06 9.23 18.78 18.78 0 0 1 -1.79 8.53 16.94 16.94 0 0 1 -4.75 5.84 19.38 19.38 0 0 1 -6.74 3.35 29.12 29.12 0 0 1 -7.83 1.05h-1.25c-.57 0-1.16 0-1.79 0s-1.23-.06-1.83-.11-1-.11-1.28-.16v18.77h-10.67zm15.89 7.86c-1 0-2 0-3 .11a22.65 22.65 0 0 0 -2.26.28v17.68c.2.05.52.1.93.16s.86.09 1.33.11.92 0 1.36 0h1a22.32 22.32 0 0 0 4.17-.39 10.29 10.29 0 0 0 3.7-1.44 7.49 7.49 0 0 0 2.61-2.92 10.63 10.63 0 0 0 1-4.91 8.64 8.64 0 0 0 -.94-4.24 7.57 7.57 0 0 0 -2.45-2.69 9.53 9.53 0 0 0 -3.47-1.4 20.17 20.17 0 0 0 -4-.39"/><path d="m163.52 237.59h34.59v9.51h-23.92v13.47h22.21v9.51h-22.21v22.04h-10.67z"/><path d="m208.78 274.28h8.57v7.72l.47.15a23.22 23.22 0 0 0 3.93 1.29 19.67 19.67 0 0 0 4.56.5 11.37 11.37 0 0 0 6.78-1.75 5.53 5.53 0 0 0 2.41-4.71 5.27 5.27 0 0 0 -2-4.29 20 20 0 0 0 -4.9-2.88q-2.93-1.24-6.39-2.49a30.19 30.19 0 0 1 -6.39-3.16 17.63 17.63 0 0 1 -4.91-4.79 12.93 12.93 0 0 1 -2-7.48 15 15 0 0 1 1.39-6.39 14.82 14.82 0 0 1 3.82-5 17.64 17.64 0 0 1 5.88-3.27 23.5 23.5 0 0 1 7.63-1.17 51 51 0 0 1 9.35.86 25.2 25.2 0 0 1 7.32 2.34v15.81h-8.57v-8.65a1.47 1.47 0 0 1 -.46-.07 30.56 30.56 0 0 0 -7.64-1 10.27 10.27 0 0 0 -5.88 1.48 4.6 4.6 0 0 0 -2.14 4 5.18 5.18 0 0 0 2 4.2 21.86 21.86 0 0 0 4.9 3q2.92 1.33 6.39 2.65a34.16 34.16 0 0 1 6.39 3.23 17.67 17.67 0 0 1 4.91 4.8 12.48 12.48 0 0 1 2 7.24 16.41 16.41 0 0 1 -1.56 7.36 14.81 14.81 0 0 1 -4.36 5.3 19.14 19.14 0 0 1 -6.62 3.19 31 31 0 0 1 -8.26 1 30.47 30.47 0 0 1 -5.49-.46 35.38 35.38 0 0 1 -4.67-1.17 32.15 32.15 0 0 1 -3.78-1.48c-1.09-.52-2-1-2.65-1.33z"/><path d="m315.42 273.82h8.58v15.58a19.06 19.06 0 0 1 -6.34 2.8 30.86 30.86 0 0 1 -7.91 1 31.28 31.28 0 0 1 -9.75-1.5 21.06 21.06 0 0 1 -8.14-4.91 24.11 24.11 0 0 1 -5.61-8.81 36.31 36.31 0 0 1 -2.1-13.12 33.37 33.37 0 0 1 2.38-13.44 24.56 24.56 0 0 1 6.11-8.72 22.78 22.78 0 0 1 8.34-4.76 30.06 30.06 0 0 1 9-1.44 34.29 34.29 0 0 1 7.91.78 27.52 27.52 0 0 1 5.33 1.79v16.21h-8.56v-8.88a31.41 31.41 0 0 0 -5-.39 14 14 0 0 0 -5.65 1.13 12.26 12.26 0 0 0 -4.56 3.46 16.83 16.83 0 0 0 -3 5.88 28.59 28.59 0 0 0 -1.09 8.38 27.13 27.13 0 0 0 1 7.67 17.44 17.44 0 0 0 3 6 13.44 13.44 0 0 0 4.75 3.86 14.42 14.42 0 0 0 6.39 1.36 26.2 26.2 0 0 0 5-.47z"/><path d="m334.59 255.82a42.4 42.4 0 0 1 7.2-2.41 40.49 40.49 0 0 1 9.7-1 21.44 21.44 0 0 1 6.9 1 11.6 11.6 0 0 1 4.59 2.76 10.57 10.57 0 0 1 2.53 4.29 18.74 18.74 0 0 1 .78 5.61c0 2.65-.09 4.9-.27 6.77s-.27 3.54-.27 5q0 1.63.15 3.66c.11.73.18 1.43.24 2.1h5.06v8.57h-13.08l-1-5.29h-.39a13.31 13.31 0 0 1 -4.43 4.12 14.74 14.74 0 0 1 -7.74 1.76q-5.81 0-9.22-3.12a10.66 10.66 0 0 1 -3.4-8.26 12.35 12.35 0 0 1 1.2-5.64 10 10 0 0 1 3.48-3.9 16.67 16.67 0 0 1 5.5-2.26 32.09 32.09 0 0 1 7.16-.74 27.82 27.82 0 0 1 2.94.16c1 .1 2.29.21 3.79.31a8.24 8.24 0 0 0 .15-1.56v-1.48c0-2-.56-3.39-1.7-4.24a8.22 8.22 0 0 0 -5-1.29 23.5 23.5 0 0 0 -7.12 1 45.21 45.21 0 0 0 -5.33 2zm13.26 28.59a8.42 8.42 0 0 0 8.24-4.28v-4.68c-.52-.1-1.29-.22-2.31-.35a26.64 26.64 0 0 0 -3.32-.19 16 16 0 0 0 -2.92.27 9.6 9.6 0 0 0 -2.62.86 5.07 5.07 0 0 0 -1.85 1.52 3.68 3.68 0 0 0 -.69 2.26 4.42 4.42 0 0 0 1.27 3.38c.84.81 2.24 1.21 4.2 1.21"/><path d="m393.09 292.12v-23.83a19.1 19.1 0 0 0 -.31-3.78 7.22 7.22 0 0 0 -.82-2.26 2.49 2.49 0 0 0 -1.25-1.09 4.39 4.39 0 0 0 -1.52-.27 4 4 0 0 0 -2.45.85 4.17 4.17 0 0 0 -1.52 2.18v28.2h-9.35v-39h7.4l1.09 4.29h.24a9.55 9.55 0 0 1 3.42-3.7 9.67 9.67 0 0 1 5.3-1.44 10.32 10.32 0 0 1 4.91 1.24 6.62 6.62 0 0 1 3.19 4.37 8.7 8.7 0 0 1 3.59-4.17 10 10 0 0 1 5.22-1.44 11.35 11.35 0 0 1 3.77.58 6.7 6.7 0 0 1 2.93 2.07 10.06 10.06 0 0 1 1.9 4 26.36 26.36 0 0 1 .67 6.5v26.64h-9.35v-24.86q0-3.51-1.13-4.91a3.42 3.42 0 0 0 -2.77-1.4 4.31 4.31 0 0 0 -2.41.66 3.45 3.45 0 0 0 -1.4 2.14v28.43z"/><path d="m421.06 253.17h13.24l1.17 4.68h.31q4.05-5.76 13.09-5.77a18.63 18.63 0 0 1 6.58 1.13 12.9 12.9 0 0 1 5.14 3.55 16.61 16.61 0 0 1 3.31 6.07 29.15 29.15 0 0 1 1.17 8.81 28.35 28.35 0 0 1 -1.33 9 19.09 19.09 0 0 1 -3.81 6.82 16.35 16.35 0 0 1 -6.08 4.28 21.23 21.23 0 0 1 -8.18 1.48 31.16 31.16 0 0 1 -4.75-.35 13 13 0 0 1 -3.9-1.13v16h-10.12v-46h-5.84zm24.77 7.48a10.36 10.36 0 0 0 -5.42 1.48 7.74 7.74 0 0 0 -3.39 4.44v16.21a8.41 8.41 0 0 0 3.16 1.36 17.3 17.3 0 0 0 4.17.5 10.8 10.8 0 0 0 4-.74 8.33 8.33 0 0 0 3.27-2.37 11.65 11.65 0 0 0 2.18-4.13 20.23 20.23 0 0 0 .78-6c0-3.43-.83-6.07-2.49-7.94a8.1 8.1 0 0 0 -6.31-2.81"/></g><path d="m210.44 202.28a4.48 4.48 0 0 1 -4.46-4.55 4.33 4.33 0 0 1 4.5-4.44 4.54 4.54 0 0 1 4.39 4.64 4.42 4.42 0 0 1 -4.43 4.35" fill="#ff713f"/><path d="m391.38 197.73a2.66 2.66 0 0 1 -2.69 2.7 2.59 2.59 0 0 1 -2.6-2.75 2.49 2.49 0 0 1 2.56-2.54 2.54 2.54 0 0 1 2.73 2.59" fill="#48d8f9"/><path d="m333.39 349.54a2.66 2.66 0 0 1 -2.69 2.7 2.59 2.59 0 0 1 -2.6-2.75 2.48 2.48 0 0 1 2.55-2.54 2.55 2.55 0 0 1 2.74 2.59" fill="#48d8f9"/><path d="m419 314.68a2.66 2.66 0 0 1 -2.69 2.69 2.59 2.59 0 0 1 -2.6-2.74 2.48 2.48 0 0 1 2.56-2.54 2.54 2.54 0 0 1 2.73 2.59" fill="#48d8f9"/><path d="m480 225.62a2.64 2.64 0 0 1 -2.68 2.69 2.58 2.58 0 0 1 -2.6-2.74 2.47 2.47 0 0 1 2.55-2.54 2.54 2.54 0 0 1 2.73 2.59" fill="#48d8f9"/><path d="m1.41 0h532.07v525.34h-532.07z" fill="none"/><path d="m180.1 306.83a8.44 8.44 0 0 1 -8.5 8.45 8.84 8.84 0 0 1 -8.52-8.8 8.55 8.55 0 0 1 8.47-8.54 8.66 8.66 0 0 1 8.55 8.89" fill="#ff703e"/><path d="m239.75 319.34a4.42 4.42 0 0 1 -4.31 4.46 4.67 4.67 0 0 1 -4.56-4.54 4.44 4.44 0 1 1 8.87.08" fill="#fdc607"/><path d="m190.66 328a4 4 0 0 1 -4.31 4.08 4.19 4.19 0 0 1 -4.24-4.43 4.32 4.32 0 0 1 4.39-4.12 4.11 4.11 0 0 1 4.16 4.47" fill="#48d8f9"/><path d="m209.8 314.64a4 4 0 0 1 -4.18 4 4.22 4.22 0 0 1 -4-4.28 4 4 0 0 1 4.2-4 4.12 4.12 0 0 1 3.94 4.28" fill="#fdc607"/><path d="m213.53 334.17a4.48 4.48 0 0 1 -4.46-4.54 4.32 4.32 0 0 1 4.5-4.44 4.55 4.55 0 0 1 4.4 4.63 4.42 4.42 0 0 1 -4.44 4.35" fill="#ff713f"/><path d="m382.26 338.29a8.44 8.44 0 0 1 9.61-7.16 8.85 8.85 0 0 1 7.19 9.92 8.55 8.55 0 0 1 -9.59 7.25 8.65 8.65 0 0 1 -7.21-10" fill="#ff703e"/><path d="m325 317.49a4.42 4.42 0 0 1 4.9-3.81 4.65 4.65 0 0 1 3.87 5.13 4.44 4.44 0 1 1 -8.77-1.32" fill="#fdc607"/><path d="m374.79 315.88a4 4 0 0 1 4.84-3.44 4.21 4.21 0 0 1 3.58 5 4.33 4.33 0 0 1 -4.94 3.45 4.1 4.1 0 0 1 -3.48-5" fill="#48d8f9"/><path d="m354 326.37a4 4 0 0 1 4.71-3.36 4.23 4.23 0 0 1 3.32 4.8 4 4 0 0 1 -4.73 3.35 4.14 4.14 0 0 1 -3.3-4.79" fill="#fdc607"/><path d="m353 306.5a4.48 4.48 0 0 1 3.77 5.13 4.31 4.31 0 0 1 -5.08 3.76 4.53 4.53 0 0 1 -3.69-5.21 4.42 4.42 0 0 1 5-3.68" fill="#ff713f"/><path d="m270.67 328.37c-3.73.25-6.71-2.67-7.66-5.2a8.42 8.42 0 0 1 2.18-9.25c2.57-2.3 5.79-2.62 9.19-.94a16.71 16.71 0 0 0 .4 2.35c.56 1.7 1.6 2.91 3.57 3l.37.11c-.11 1.64.22 3.35-.73 4.87-.31-.25-.6-.53-.92-.76a4.26 4.26 0 0 0 -6.94 2.95 10.49 10.49 0 0 0 .54 2.91" fill="#fe703e"/><path d="m278.72 318.4-.37-.11c-.36-2.41-1.9-4-3.76-5.34.94-2.91 3.31-4.22 5.83-3.23a4.53 4.53 0 0 1 2.4 6.33 4.1 4.1 0 0 1 -4.1 2.35" fill="#fdc505"/><path d="m270.67 328.37a10.49 10.49 0 0 1 -.54-2.91 4.26 4.26 0 0 1 6.94-2.95c.32.23.61.51.92.76 0 .17 0 .33.05.49a9 9 0 0 1 -7 4.79l-.38-.18" fill="#465f3d"/><path d="m271.05 328.55a9 9 0 0 0 7-4.79c1.29 2.31.82 4.64-1.2 6s-4.24.87-5.79-1.18" fill="#46d7f7"/><path d="m274.59 313c1.86 1.35 3.4 2.93 3.76 5.34-2-.05-3-1.26-3.57-3a16.71 16.71 0 0 1 -.4-2.35.15.15 0 0 1 .21 0" fill="#fd5701"/><path d="m352.49 223.09c3.66-2.49 7.08-2.66 10.15-.5a8.46 8.46 0 0 1 2.49 11 8.62 8.62 0 0 1 -10.81 3.85 8.29 8.29 0 0 1 -4.69-10.06c.16-.58.39-1.14.6-1.71z" fill="#ff703d"/><path d="m352.49 223.09-2.26 2.58a6.93 6.93 0 0 1 -4.13.16 1 1 0 0 0 -.15-.32 3.82 3.82 0 0 0 -2.23-4.45 2.22 2.22 0 0 0 -.14-.32 14.91 14.91 0 0 1 1.83-2.57 3.88 3.88 0 0 1 4.5-.65 4.17 4.17 0 0 1 2.59 4v1.61" fill="#fcc504"/><path d="m343.58 220.74a2.22 2.22 0 0 1 .14.32 3.87 3.87 0 0 0 2.23 4.45 1 1 0 0 1 .15.32 5.1 5.1 0 0 1 -2.18 2.8 4.36 4.36 0 0 1 -5.79-1.07 4.47 4.47 0 0 1 .72-5.87 4.86 4.86 0 0 1 4.73-.95" fill="#46d7f7"/><path d="m346 225.51a3.86 3.86 0 0 1 -2.22-4.45 3.82 3.82 0 0 1 2.22 4.45" fill="#178e05"/><path d="m436.27 227.34a8.65 8.65 0 1 1 -1.29 9.83 19.37 19.37 0 0 1 -.91-2.66 1.26 1.26 0 0 0 .05-.33 4.39 4.39 0 0 0 1.22-.56c1.89-1.71 2.15-3.58.93-6.28" fill="#fdc503"/><path d="m428.89 233a10 10 0 0 1 -5.15 4.34 8.51 8.51 0 0 1 -10.92-5 8.66 8.66 0 0 1 4.88-11 8.78 8.78 0 0 1 11.72 5.47l-.09.38c-1.61 1.89-1.74 3.26-.49 5.31z" fill="#45d7f8"/><path d="m429.33 227.23.09-.38c2.86-1.62 4.39-1.51 6.54.48-.26.46-.52.91-.77 1.37a7.56 7.56 0 0 0 -1.07 5.48 1.88 1.88 0 0 1 -.05.33 5.6 5.6 0 0 1 -5.18-1.49l-.05-.47a6.64 6.64 0 0 0 .49-5.32" fill="#fe703e"/><path d="m434.12 234.18a7.56 7.56 0 0 1 1.07-5.48c.25-.46.51-.91.77-1.37a1.08 1.08 0 0 1 .31 0c1.22 2.7 1 4.57-.93 6.28a4.39 4.39 0 0 1 -1.22.56" fill="#fd5701"/><path d="m429.33 227.23a6.64 6.64 0 0 1 -.49 5.32c-1.25-2.06-1.12-3.43.49-5.32" fill="#465f3d"/><path d="m475.37 248.53a2.66 2.66 0 0 1 -2.69 2.69 2.59 2.59 0 0 1 -2.6-2.74 2.48 2.48 0 0 1 2.56-2.54 2.54 2.54 0 0 1 2.73 2.59" fill="#48d8f9"/><path d="m473.05 267.16a4.48 4.48 0 0 1 -4.56-4.44 4.41 4.41 0 1 1 8.82 0 4.2 4.2 0 0 1 -4.26 4.41" fill="#fdc505"/><path d="m128.85 319.05a6.45 6.45 0 0 1 -6.58-6.67 6.24 6.24 0 0 1 6.32-6.44 6.61 6.61 0 0 1 6.66 6.66 6.46 6.46 0 0 1 -6.4 6.45" fill="#fdc505"/><path d="m148.56 214.42a4 4 0 0 1 -4.31 4.09 4.21 4.21 0 0 1 -4.24-4.44 4.32 4.32 0 0 1 4.4-4.11 4.1 4.1 0 0 1 4.15 4.46" fill="#48d8f9"/><path d="m185.62 222.92a4.48 4.48 0 0 1 -4.46-4.55 4.32 4.32 0 0 1 4.5-4.43 4.53 4.53 0 0 1 4.39 4.63 4.42 4.42 0 0 1 -4.43 4.35" fill="#ff713f"/><path d="m233.88 220.84a4.42 4.42 0 0 1 -4.32 4.46 4.66 4.66 0 0 1 -4.55-4.54 4.44 4.44 0 1 1 8.87.08" fill="#fdc607"/><path d="m85.63 200.38a8.45 8.45 0 0 1 -8.51 8.45 8.86 8.86 0 0 1 -8.52-8.83 8.55 8.55 0 0 1 8.48-8.53 8.65 8.65 0 0 1 8.55 8.89" fill="#ff703e"/><path d="m84.73 367.66a8.45 8.45 0 0 1 -8.5 8.45 8.85 8.85 0 0 1 -8.52-8.81 8.56 8.56 0 0 1 8.47-8.54 8.66 8.66 0 0 1 8.55 8.9" fill="#ff703e"/><path d="m106 319.58a3.84 3.84 0 0 1 -3.7 3.91 4 4 0 0 1 -4-4 3.92 3.92 0 0 1 3.82-3.84 4 4 0 0 1 3.88 4" fill="#fdc505"/><path d="m78.78 313a4.44 4.44 0 0 1 -4.27 4.51 4.62 4.62 0 0 1 -4.61-4.66 4.52 4.52 0 0 1 4.4-4.42 4.6 4.6 0 0 1 4.48 4.57" fill="#fdc505"/><path d="m68.75 227.41a4.48 4.48 0 0 1 -4.56-4.41 4.41 4.41 0 1 1 8.81 0 4.2 4.2 0 0 1 -4.26 4.41" fill="#fdc505"/></svg>