<svg viewBox="0 0 632.94 251.27" xmlns="http://www.w3.org/2000/svg"><path d="m123.54 9.18a3.09 3.09 0 0 1 2.66 2.82 2.94 2.94 0 0 1 -2.06 3.16 6.7 6.7 0 0 1 -1.68.07 3.43 3.43 0 0 1 -.64-.11l-.48-.24-.09-.18a4.12 4.12 0 0 1 -1.16-3h.17a1.38 1.38 0 0 0 1.66.25 2.39 2.39 0 0 0 1.61-2.71" fill="#ff713f"/><path d="m120.27 11.64h-.17a2.22 2.22 0 0 1 -1.1-2.55 2.16 2.16 0 0 1 1.8-1.73 2.33 2.33 0 0 1 2.64 1.75l-.46.05a2.81 2.81 0 0 0 -2.72 2.48" fill="#fdc505"/><path d="m120.27 11.64a2.81 2.81 0 0 1 2.73-2.48l.46-.05a.13.13 0 0 1 .09.07 2.4 2.4 0 0 1 -1.61 2.71 1.38 1.38 0 0 1 -1.66-.25" fill="#fd5701"/><path d="m121.83 15.09-.47-.24z" fill="#fff"/><path d="m138.48 51.87a6.39 6.39 0 0 1 -9.12.46 6.53 6.53 0 0 1 -2.14-6.72 6.29 6.29 0 0 1 4.63-4.84 6.58 6.58 0 0 1 8.09 4.61c-.22.06-.43.11-.64.19a3.52 3.52 0 0 0 -1.48 5.62c.2.24.44.45.66.68" fill="#ff6f3d"/><path d="m102 189.77a6.05 6.05 0 0 1 5-4.37 6.62 6.62 0 0 1 2.93 12.86 6.28 6.28 0 0 1 -6.19-1.49c-.28-.25-.53-.54-.8-.81 0-.05 0-.1 0-.15 1.48-1 1.61-3.72.28-5.06a13.65 13.65 0 0 0 -1.26-1" fill="#45d7f8"/><path d="m53.51 159.21a4.81 4.81 0 1 1 -9.62-.08 4.74 4.74 0 0 1 4.72-4.85 5 5 0 0 1 4.9 4.93" fill="#46d8f9"/><path d="m170.1 182.5a4.73 4.73 0 0 1 -4.73 4.81 4.93 4.93 0 0 1 -4.81-4.92 4.75 4.75 0 0 1 4.76-4.8 4.83 4.83 0 0 1 4.78 4.91" fill="#fdc503"/><path d="m190.3 83.76a6.51 6.51 0 0 1 -1-3.23 4.91 4.91 0 0 1 3.8-4.75 5 5 0 1 1 1.45 9.87 3.56 3.56 0 0 1 -.47-.05 9.35 9.35 0 0 0 .19-1.57 2.06 2.06 0 0 0 -2-1.8 1.85 1.85 0 0 0 -1.85 1.54h-.15" fill="#ff703d"/><path d="m149.43 40.1a4.14 4.14 0 0 1 4.18-4.25 4.29 4.29 0 0 1 4.27 4.32 4.18 4.18 0 0 1 -4.24 4.29 4.26 4.26 0 0 1 -4.21-4.36" fill="#ff703d"/><path d="m180.93 187.07a4.49 4.49 0 0 1 -4.72-1.72 4.58 4.58 0 0 1 -.7-4.66 4.46 4.46 0 0 1 4.4-3 4.74 4.74 0 0 1 4.45 3.52 8.08 8.08 0 0 1 .15 1.31 5 5 0 0 0 -.56-.1 3 3 0 0 0 -3.36 3.49 7.48 7.48 0 0 0 .34 1.18" fill="#45d7f8"/><path d="m112.65 58.63a4.13 4.13 0 0 1 -4.13-4.2 4.06 4.06 0 0 1 4.06-4.06 4.11 4.11 0 0 1 4.1 4.22 4 4 0 0 1 -4 4" fill="#ff703e"/><path d="m126.24 196.83a4 4 0 0 1 -4 4.07 4.12 4.12 0 0 1 -4.15-4.16 4 4 0 0 1 4-4.09 4.09 4.09 0 0 1 4.13 4.18" fill="#fdc503"/><path d="m152.13 64.05a4 4 0 0 1 -4 4 4.14 4.14 0 0 1 -4.09-4.16 4 4 0 0 1 4-4 4.08 4.08 0 0 1 4 4.17" fill="#fdc503"/><path d="m109.57 159.72a3.94 3.94 0 0 1 3.92-4 4.16 4.16 0 0 1 4.08 4.17 4 4 0 1 1 -8-.13" fill="#ff703d"/><path d="m81 77.07a4 4 0 0 1 -4 4 4.16 4.16 0 0 1 -4-4.14 4 4 0 1 1 8 .17" fill="#ff703e"/><path d="m128.75 188.87a4.06 4.06 0 0 1 -4.07-4.13 4 4 0 0 1 4-4 4.14 4.14 0 0 1 4 4.1 4 4 0 0 1 -3.93 4.05" fill="#46d8f9"/><path d="m134.08 69.41a4 4 0 0 1 -3.94 4 4.17 4.17 0 0 1 -4-4.11 4 4 0 0 1 4-4 4.05 4.05 0 0 1 4 4.14" fill="#ff703d"/><path d="m126.19 25.23a4.06 4.06 0 1 1 4.5 1.25 9.62 9.62 0 0 1 -1.3.25l-.15-.05a2.32 2.32 0 0 0 -.18-.6 2.25 2.25 0 0 0 -2.87-.85" fill="#fdc503"/><path d="m128.35 29a4.71 4.71 0 0 1 1.65 2.72 4 4 0 0 1 -3 4.76 4.08 4.08 0 0 1 -4.81-3 4.13 4.13 0 0 1 3.32-5.1l.17.07a1.82 1.82 0 0 0 2.44.58z" fill="#45d7f8"/><path d="m75.81 193.66c0-2.08.86-3.45 2.52-4.07a4 4 0 0 1 4.92 2 4 4 0 0 1 -1.39 5.21 3.89 3.89 0 0 1 -5.15-.86c-.18-.22-.33-.46-.5-.69-.13-.52-.27-1-.4-1.56" fill="#ff703d"/><path d="m203.41 94.84a4 4 0 0 1 -4-4 3.93 3.93 0 0 1 4-3.86 4.07 4.07 0 0 1 4 4 3.89 3.89 0 0 1 -4 3.79" fill="#46d8f9"/><path d="m115.46 170.31a3.85 3.85 0 0 1 -3.92 3.95 3.9 3.9 0 0 1 -3.94-4.07 3.85 3.85 0 0 1 4-3.9 4.06 4.06 0 0 1 3.9 4" fill="#46d8f9"/><path d="m164.76 48.76a3.81 3.81 0 0 1 -3.84 3.88 3.9 3.9 0 0 1 -3.85-4 3.8 3.8 0 0 1 3.84-3.89 4 4 0 0 1 3.85 4" fill="#46d8f9"/><path d="m123.85 81.08a10.92 10.92 0 0 1 -2.07-.18 4 4 0 0 1 -2.78-4.42 4 4 0 0 1 3.54-3.48 4.1 4.1 0 0 1 4.4 3.9v.76l-.15.16a3.56 3.56 0 0 0 -2.86 3.12l-.09.15" fill="#fdc503"/><path d="m97.6 63.68a3.81 3.81 0 0 1 3.81 3.9 3.75 3.75 0 0 1 -3.82 3.78 3.92 3.92 0 0 1 -3.78-3.88 3.75 3.75 0 0 1 3.79-3.8" fill="#ff703e"/><path d="m186.73 62a4.09 4.09 0 0 1 -2.66 2.09.94.94 0 0 0 -.15-.06 3.61 3.61 0 0 0 -4-1.81l-.16-.06a4.69 4.69 0 0 1 -.44-3 3.93 3.93 0 0 1 7.6-.41 3.44 3.44 0 0 1 .13 2.15l-.36 1" fill="#fdc503"/><path d="m123.85 81.08.09-.15a3.57 3.57 0 0 0 2.86-3.12l.15-.16a11.86 11.86 0 0 1 1.89.18 4 4 0 0 1 2.85 4.17 3.9 3.9 0 0 1 -3.43 3.65 4 4 0 0 1 -4.36-3.48c0-.35 0-.7-.05-1" fill="#45d7f8"/><path d="m66.58 77.86a3.81 3.81 0 0 1 3.74 3.8 3.7 3.7 0 0 1 -3.66 3.74 3.83 3.83 0 0 1 -3.75-3.8 3.73 3.73 0 0 1 3.67-3.74" fill="#fdc505"/><path d="m171.62 173.92a3.71 3.71 0 0 1 3.68-3.73 3.8 3.8 0 0 1 3.7 3.81 3.72 3.72 0 0 1 -3.67 3.74 3.84 3.84 0 0 1 -3.74-3.81" fill="#ff703e"/><path d="m67.13 64.07a3.66 3.66 0 0 1 .1 7.32 3.67 3.67 0 0 1 -3.63-3.64 3.53 3.53 0 0 1 3.53-3.68" fill="#46d8f9"/><path d="m80.75 43.13a3.63 3.63 0 0 1 1.25 3.87 3.53 3.53 0 0 1 -3 2.75 3.62 3.62 0 0 1 -3.85-1.71 3.71 3.71 0 0 1 1.25-5.35 4.23 4.23 0 0 0 4.32.4" fill="#45d7f8"/><path d="m113.55 209a4.1 4.1 0 0 1 4.09 4.23 4 4 0 0 1 -4 4.06 4.15 4.15 0 0 1 -4.15-4.2 4 4 0 0 1 4.11-4.09m.79 4.65a1.91 1.91 0 0 0 2-2.07 2 2 0 1 0 -4 0 2.05 2.05 0 0 0 2.06 2.06" fill="#fe703e"/><path d="m103.48 45.92a3.51 3.51 0 0 1 3.52-3.53 3.65 3.65 0 0 1 3.57 3.7 3.52 3.52 0 0 1 -3.57 3.51 3.57 3.57 0 0 1 -3.55-3.68" fill="#fdc505"/><path d="m140.33 36.75a3.47 3.47 0 0 1 -3.45 3.55 3.59 3.59 0 0 1 -3.61-3.63 3.54 3.54 0 0 1 3.46-3.56 3.61 3.61 0 0 1 3.6 3.64" fill="#fdc503"/><path d="m160.92 198.4a3.9 3.9 0 0 1 0-4.74 3.83 3.83 0 0 1 4.52-1.19 4 4 0 0 1 2.36 4.34 3.69 3.69 0 0 1 -3.22 3.13l.12-.46a2 2 0 0 0 -1.24-2.44c-1-.37-1.78 0-2.34 1.14 0 .08-.12.14-.17.22" fill="#ff703d"/><path d="m83.75 157.82a4.12 4.12 0 0 1 3-.65 3.81 3.81 0 0 1 3 3.33 3.67 3.67 0 0 1 -2.51 4 3.62 3.62 0 0 1 -4.74-2.59 5.48 5.48 0 0 0 .57 0 2.05 2.05 0 0 0 1.73-1.64 2 2 0 0 0 -1.07-2.29.49.49 0 0 0 0-.12" fill="#45d7f8"/><path d="m156.13 82.75a3.83 3.83 0 0 1 -3.6-2.45 4 4 0 0 1 1-4.35 3.67 3.67 0 0 1 4.32-.44 7 7 0 0 0 .19 1.11 1.73 1.73 0 0 0 1.7 1.38h.18a4.61 4.61 0 0 1 -.35 2.29c-.14-.12-.28-.25-.43-.36a2 2 0 0 0 -3.26 1.39 5.22 5.22 0 0 0 .25 1.37" fill="#fe703e"/><path d="m161.73 159.19c0-.44.05-.88.13-1.31a3.9 3.9 0 0 1 4.14-3.17 4 4 0 0 1 3.72 3.59 3.87 3.87 0 0 1 -2.25 4.11c-.09-.34-.15-.68-.27-1a3.85 3.85 0 0 0 -5.34-2.18h-.13" fill="#fcc504"/><path d="m41.76 73.83a3.63 3.63 0 0 1 .09-4.17 3.55 3.55 0 0 1 3.86-1.34 3.66 3.66 0 0 1 2.6 3.18 3.57 3.57 0 0 1 -1.9 3.5 3.67 3.67 0 0 0 -4.65-1.2" fill="#fcc504"/><path d="m69.64 49.18a3.4 3.4 0 0 1 3.45 3.42 3.31 3.31 0 0 1 -3.3 3.25 3.51 3.51 0 0 1 -3.42-3.41 3.26 3.26 0 0 1 3.27-3.26" fill="#ff703e"/><path d="m88.13 123.88a3.39 3.39 0 0 1 3.33 3.36 3.3 3.3 0 0 1 -3.31 3.34 3.4 3.4 0 0 1 -3.28-3.4 3.31 3.31 0 0 1 3.26-3.3" fill="#fdc503"/><path d="m81.87 37.21a4 4 0 0 1 -.77 5.63 2 2 0 0 1 -.33.16 4.07 4.07 0 0 0 -4.34-.41 3.65 3.65 0 0 1 -1.3-4 3.6 3.6 0 0 1 3.19-2.81 6.37 6.37 0 0 0 -.23.61 1.91 1.91 0 0 0 1.29 2.38 1.82 1.82 0 0 0 2.38-1.49.2.2 0 0 0 .11 0" fill="#fdc503"/><path d="m161.73 159.19h.13a3.7 3.7 0 0 0 2 3.06 4.2 4.2 0 0 0 3.58.26 3.76 3.76 0 0 1 -2.81 4.11 3.82 3.82 0 0 1 -4.5-2 4 4 0 0 1 1-5c.2-.16.41-.3.62-.45" fill="#46d7f7"/><path d="m193.22 155.21a3.55 3.55 0 0 1 5.28-4.21 3.77 3.77 0 0 1 1.5 4.12 3.46 3.46 0 0 1 -3.29 2.55 6.84 6.84 0 0 0 .25-.72 2.13 2.13 0 0 0 -2-2.56 2.41 2.41 0 0 0 -1.73.87" fill="#fe703e"/><path d="m179.62 70a4.21 4.21 0 0 1 -3.07 1.24 4 4 0 0 1 -3.79-4.07 3.82 3.82 0 0 1 3.87-3.84c.38 0 .75.06 1.13.09a.51.51 0 0 0 0 .13 3.89 3.89 0 0 0 1.81 6.32v.13" fill="#fe703e"/><path d="m141.49 168.74a3.67 3.67 0 0 1 2.76-4.27 3.81 3.81 0 0 1 4.56 2.65 3.71 3.71 0 0 1 -1.74 4.4 3.85 3.85 0 0 0 -3-3.16 4 4 0 0 0 -2.57.38" fill="#fcc504"/><path d="m130.29 174.36a3.14 3.14 0 0 1 -3.08-3.2 3.1 3.1 0 0 1 3.12-3 3.19 3.19 0 0 1 3 3.17 3.06 3.06 0 0 1 -3.08 3.08" fill="#ff713f"/><path d="m111.13 67.3a7.87 7.87 0 0 1 -1.24-1.3 3 3 0 1 1 3.38 1.49c-.18 0-.37.07-.56.11l-1.58-.32" fill="#fdc505"/><path d="m58.86 53.34c-.24-.07-.49-.13-.72-.22a3.14 3.14 0 0 1 -1.92-3.62 3 3 0 0 1 3-2.38 3.12 3.12 0 0 1 .88 6.09l-.55.16h-.71" fill="#fdc505"/><path d="m158 166.35a3.16 3.16 0 0 1 3.11 3.19 3.07 3.07 0 1 1 -6.13-.18 3 3 0 0 1 3-3" fill="#ff703e"/><path d="m62.66 170.1a3.89 3.89 0 1 1 6.72.52c-.16-.23-.32-.47-.5-.69a3.77 3.77 0 0 0 -3.81-1.43 4.11 4.11 0 0 0 -2.41 1.6" fill="#fcc504"/><path d="m76.05 63.19a3 3 0 0 1 -3.05-3.14 2.93 2.93 0 0 1 3-3 3.1 3.1 0 0 1 3.13 3.13 3 3 0 0 1 -3 3" fill="#fdc505"/><path d="m111.14 24.13a3 3 0 0 1 -3 3 3.14 3.14 0 0 1 -3.08-3.12 3 3 0 0 1 3-3 3.08 3.08 0 0 1 3 3.12" fill="#ff713f"/><path d="m142.24 24.13a3 3 0 0 1 -3 3 3.11 3.11 0 0 1 -3.08-3.11 3 3 0 0 1 3-3 3.08 3.08 0 0 1 3.05 3.12" fill="#ff713f"/><path d="m122.55 219.05a3 3 0 0 1 3-3 3.11 3.11 0 0 1 3 3.16 3 3 0 0 1 -3 3 3.08 3.08 0 0 1 -3-3.16" fill="#fdc505"/><path d="m37.1 61.6a3.08 3.08 0 0 1 3 3.13 3 3 0 0 1 -3.05 3 3.06 3.06 0 0 1 -3-3.15 2.94 2.94 0 0 1 3-3" fill="#ff713f"/><path d="m147 171.69a3.54 3.54 0 0 1 -1.74 3.67 3.71 3.71 0 0 1 -5.09-1.41c-1-1.73-.4-4.28 1.24-5a4 4 0 0 0 2.92 3.06 4.3 4.3 0 0 0 2.67-.27" fill="#45d7f8"/><path d="m171.32 75.52a1.45 1.45 0 0 1 -1.49 1.5 1.5 1.5 0 0 1 -1.5-1.56 1.46 1.46 0 0 1 1.49-1.46 1.51 1.51 0 0 1 1.5 1.57" fill="#ff703e"/><path d="m180.54 76.75a3.06 3.06 0 0 1 3.05 3 3 3 0 0 1 -3 3.07 3.1 3.1 0 0 1 -3-3.14 3 3 0 0 1 3-3" fill="#fdc505"/><path d="m102.93 195.81v.15a4 4 0 0 1 -2.3.76 3.56 3.56 0 0 1 -3.45-2.85 3.51 3.51 0 0 1 1.82-3.93 3.17 3.17 0 0 1 2.83-.12c0 .22-.07.44-.11.65a6.4 6.4 0 0 0 1.24 5.34" fill="#fe703e"/><path d="m85 196.33a4.19 4.19 0 0 1 2.26-4.68 4.3 4.3 0 0 1 5.29 6.42l-.27-.71a4.14 4.14 0 0 0 -6.9-1.36l-.34.33" fill="#fcc504"/><path d="m111.13 67.3 1.58.32a3.5 3.5 0 0 1 1.57 2.06 3.06 3.06 0 0 1 -1.17 3.2 2.93 2.93 0 0 1 -3.38.05 3.06 3.06 0 0 1 -1.33-3.12 3 3 0 0 1 2.73-2.51" fill="#47d8f9"/><path d="m84.17 75.17a3.05 3.05 0 0 1 -3-3.09 3 3 0 0 1 3-3 3.13 3.13 0 0 1 3 3.11 3 3 0 0 1 -3.06 3" fill="#47d8f9"/><path d="m58.86 53.34h.71a3.44 3.44 0 0 1 1.7 1 3.06 3.06 0 0 1 .31 3.77 3 3 0 0 1 -3.41 1.18 3.19 3.19 0 0 1 -2.1-3 3 3 0 0 1 2.42-2.9l.37-.08" fill="#46d8f9"/><path d="m85 196.33.34-.33a4.14 4.14 0 0 1 6.94 1.36l.27.71-.06.21-.27.26a4.21 4.21 0 0 1 -7-1.23c-.1-.23-.2-.46-.31-.69s0-.2.05-.29" fill="#148d03"/><path d="m145 214.26a3 3 0 0 1 -.11-5.95 3 3 0 0 1 3 3.05 2.87 2.87 0 0 1 -2.89 2.9" fill="#ff713f"/><path d="m94.9 24.41a2.91 2.91 0 0 1 2.91-3 3.05 3.05 0 0 1 3 3 3 3 0 0 1 -2.93 3 3 3 0 0 1 -2.93-3" fill="#fdc505"/><path d="m69.36 170.88a3.61 3.61 0 0 1 -.67 4.13 3.56 3.56 0 0 1 -3.92 1 3.71 3.71 0 0 1 -2.65-3.19 3.11 3.11 0 0 1 .53-2.53c.17.23.33.47.51.69a3.83 3.83 0 0 0 4.8 1 11.17 11.17 0 0 0 1.4-1.11" fill="#46d7f7"/><path d="m127.13 163.61a2.93 2.93 0 1 1 -2.85-3 3 3 0 0 1 2.85 3" fill="#fdc505"/><path d="m140.48 191.35a2.94 2.94 0 0 1 -.06-5.87 3 3 0 0 1 2.92 2.94 2.84 2.84 0 0 1 -2.86 2.93" fill="#fdc505"/><path d="m85 196.62c.11.23.21.46.31.69a4.21 4.21 0 0 0 7 1.23l.27-.27a4.05 4.05 0 0 1 -3.17 4.73 4.16 4.16 0 0 1 -4.92-2.87 3.72 3.72 0 0 1 .5-3.51" fill="#46d7f7"/><path d="m91.37 49.34a2.88 2.88 0 0 1 -2.9 2.91 3 3 0 0 1 -2.88-3 2.89 2.89 0 0 1 2.91-2.9 2.94 2.94 0 0 1 2.87 3" fill="#ff713f"/><path d="m179.62 70v-.13c2.09-2.19.57-5.89-1.81-6.32a.51.51 0 0 1 0-.13l2-1.19.17.06a3.61 3.61 0 0 0 4 1.81.94.94 0 0 1 .15.06 4.68 4.68 0 0 1 .45 2.68 3.8 3.8 0 0 1 -4.11 3.16l-.85-.07" fill="#46d7f7"/><path d="m76.84 184.06a3.07 3.07 0 0 1 -3.07-1.5 3.28 3.28 0 0 1 -.2-3.44 3 3 0 0 1 2.65-1.74 3.21 3.21 0 0 1 3 1.59 7.51 7.51 0 0 1 .43.85l-.07.08a3.12 3.12 0 0 0 -2.83 2.93v1.23" fill="#fcc504"/><path d="m155.18 189.93a2.92 2.92 0 0 1 -2.83 2.89 3 3 0 0 1 -2.86-3 2.9 2.9 0 0 1 2.87-2.84 3 3 0 0 1 2.82 2.92" fill="#47d8f9"/><path d="m79.69 179.82c.29 0 .57 0 .85.07a3.31 3.31 0 0 1 2.75 3.29 3.24 3.24 0 0 1 -3 3.28 3.14 3.14 0 0 1 -3.29-2.33c2.21-.67 3.18-2.21 2.63-4.23l.07-.08" fill="#46d7f7"/><path d="m96.67 34a3 3 0 0 1 -2.57-2.55 2.88 2.88 0 0 1 1.78-3.12 2.93 2.93 0 0 1 3.43 1.09 3 3 0 0 1 -.31 3.81l-.18.05a1.67 1.67 0 0 0 -2 .69z" fill="#46d8f9"/><path d="m56.78 75.08a2.74 2.74 0 0 1 -2.78 2.77 2.8 2.8 0 0 1 -2.78-2.85 2.76 2.76 0 0 1 2.78-2.85 2.86 2.86 0 0 1 2.75 2.93" fill="#ff713f"/><path d="m186.09 162a2.8 2.8 0 0 1 2.83 2.74 2.75 2.75 0 1 1 -5.5 0 2.64 2.64 0 0 1 2.67-2.74" fill="#47d8f9"/><path d="m140.07 45.45a3.45 3.45 0 0 1 3.83 3 3.52 3.52 0 0 1 -2.76 3.94 3 3 0 0 1 -2.51-.53 6.85 6.85 0 0 0 1.58-3.68 24.91 24.91 0 0 0 -.14-2.72" fill="#46d7f7"/><path d="m40.77 74.78 1-.81a11.6 11.6 0 0 0 1.13 1 3.66 3.66 0 0 0 3.53.2 3.53 3.53 0 0 1 -.96 4.83 3.38 3.38 0 0 1 -4.76-.87l.55-.14a2 2 0 0 0 1.58-1.87 2.12 2.12 0 0 0 -1.26-2.12 7.53 7.53 0 0 0 -.81-.24" fill="#46d7f7"/><path d="m120.67 228.23a3 3 0 0 1 -3.11.94 2.9 2.9 0 0 1 -2.18-2.49 2.84 2.84 0 0 1 1.32-3 2.81 2.81 0 0 1 3.22 0l.4.26a.61.61 0 0 0 0 .14 2.25 2.25 0 0 0 .32 4s0 .08 0 .11" fill="#46d7f7"/><path d="m159.24 57.43a3 3 0 0 1 .48-3.44 3.05 3.05 0 0 1 3.35-1.05 3.36 3.36 0 0 1 -.26 6.54c.16-.23.3-.47.46-.7a2.25 2.25 0 0 0 -.13-2.64 2 2 0 0 0 -3.53.73c-.08.22 0 .53-.37.56" fill="#ff703e"/><path d="m179.64 45.27a2.56 2.56 0 0 1 -2.51 2.57 2.68 2.68 0 0 1 -2.65-2.67 2.58 2.58 0 1 1 5.16.1" fill="#fdc505"/><path d="m65.68 187.9a2.65 2.65 0 0 1 2.65 2.68 2.62 2.62 0 0 1 -2.54 2.59 2.74 2.74 0 0 1 -2.67-2.7 2.63 2.63 0 0 1 2.56-2.57" fill="#ff713f"/><path d="m199.41 75.75a2.61 2.61 0 0 1 -2.54-2.65 2.53 2.53 0 0 1 2.57-2.49 2.57 2.57 0 0 1 2.49 2.59 2.52 2.52 0 0 1 -2.52 2.55" fill="#fdc505"/><path d="m177.15 51.49a2.41 2.41 0 0 1 -2.49 2.51 2.57 2.57 0 0 1 -.09-5.14 2.56 2.56 0 0 1 2.58 2.61" fill="#47d8f9"/><path d="m131.74 211.87a2.9 2.9 0 0 1 2.34-3.27 3 3 0 0 1 3.42 1.92 3 3 0 0 1 -1.39 3.8c-.07-.21-.13-.42-.2-.63a3.07 3.07 0 0 0 -2.22-2 3.5 3.5 0 0 0 -1.95.2" fill="#fcc504"/><path d="m69.36 170.88a11.17 11.17 0 0 1 -1.36 1.12 3.83 3.83 0 0 1 -4.8-1c-.18-.22-.34-.46-.51-.69v-.22a4.11 4.11 0 0 1 2.41-1.6 3.77 3.77 0 0 1 3.81 1.43c.18.22.34.46.5.69v.26" fill="#148d03"/><path d="m136 214.47a2.85 2.85 0 0 1 -2.28 3.13 3 3 0 0 1 -3.45-2 3 3 0 0 1 1.4-3.57 3.19 3.19 0 0 0 1.85 2.46 3.23 3.23 0 0 0 2.48 0" fill="#46d7f7"/><path d="m100.67 212.24a3 3 0 0 1 5.15-2.67 3.18 3.18 0 0 1 .29 3.8c-.16.23-.35.45-.53.67h-.13a2.78 2.78 0 0 0 -2.1-2.3 3.1 3.1 0 0 0 -2.68.52" fill="#fcc504"/><path d="m184.6 182.61a3.07 3.07 0 0 1 2.05 3.25 3 3 0 0 1 -2.53 2.7 2.89 2.89 0 0 1 -3-1.43 5 5 0 0 0 3.51-4.52" fill="#ff713f"/><path d="m105.45 214h.13a3.32 3.32 0 0 1 -.85 2.71 2.76 2.76 0 0 1 -3 .73 2.82 2.82 0 0 1 -2-2.61 2.57 2.57 0 0 1 .94-2.44c.13.25.24.51.38.76a3 3 0 0 0 4.46.83" fill="#46d7f7"/><path d="m127.87 54.08a2.32 2.32 0 0 1 -2.29 2.32 2.36 2.36 0 0 1 -2.34-2.4 2.28 2.28 0 0 1 2.28-2.31 2.37 2.37 0 0 1 2.35 2.37" fill="#fdc505"/><path d="m112 182.39a2.37 2.37 0 0 1 -2.37-2.35 2.32 2.32 0 0 1 2.27-2.35 2.41 2.41 0 0 1 2.37 2.37 2.29 2.29 0 0 1 -2.27 2.33" fill="#ff713f"/><path d="m211.71 133.67a2.33 2.33 0 0 1 2.31 2.4 2.27 2.27 0 0 1 -2.31 2.28 2.39 2.39 0 0 1 -2.29-2.35 2.32 2.32 0 0 1 2.29-2.33" fill="#fdc505"/><path d="m39.62 158a2.24 2.24 0 0 1 -2.36 2.21 2.35 2.35 0 0 1 -2.26-2.36 2.3 2.3 0 0 1 2.33-2.28 2.34 2.34 0 0 1 2.29 2.43" fill="#fdc607"/><path d="m210 88.94a2.33 2.33 0 0 1 -2.28-2.32 2.29 2.29 0 0 1 2.28-2.31 2.35 2.35 0 0 1 2.33 2.38 2.28 2.28 0 0 1 -2.33 2.25" fill="#ff713f"/><path d="m121.26 14.67a1.62 1.62 0 0 0 .1.18l.47.24c.09.29.16.59.25.88a2.34 2.34 0 0 1 -.94 2.66 2.31 2.31 0 0 1 -3.19-3.14 2.21 2.21 0 0 1 2.6-1l.73.22" fill="#48d8f9"/><path d="m131.55 61.77a2.3 2.3 0 0 1 -2.2 2.3 2.4 2.4 0 0 1 -2.34-2.3 2.27 2.27 0 1 1 4.54 0" fill="#47d8f9"/><path d="m167.4 162.55a4.2 4.2 0 0 1 -3.58-.26 3.7 3.7 0 0 1 -2-3.06 3.85 3.85 0 0 1 5.34 2.18c.12.32.18.66.27 1l-.07.14" fill="#148d03"/><path d="m140.07 45.45a24.91 24.91 0 0 1 .14 2.72 6.85 6.85 0 0 1 -1.58 3.68h-.15c-.22-.23-.46-.44-.66-.68a3.52 3.52 0 0 1 1.48-5.62c.21-.08.42-.13.63-.19l.14.07" fill="#465f3d"/><path d="m147 171.69a4.3 4.3 0 0 1 -2.67.27 4 4 0 0 1 -2.92-3.06.8.8 0 0 0 .08-.16 4 4 0 0 1 2.57-.38 3.85 3.85 0 0 1 3 3.16 1.22 1.22 0 0 1 -.07.17" fill="#148d03"/><path d="m170.83 40.82a2.08 2.08 0 0 1 -2.08 2 2.15 2.15 0 0 1 -2.09-2.17 2.1 2.1 0 0 1 2.13-2.1 2.15 2.15 0 0 1 2 2.22" fill="#ff7241"/><path d="m51.23 91a2.09 2.09 0 0 1 -2.06 2.07 2.14 2.14 0 0 1 -2.11-2.24 2.08 2.08 0 0 1 2.11-2 2.16 2.16 0 0 1 2.06 2.17" fill="#fdc607"/><path d="m144.92 73.72a2.06 2.06 0 0 1 -2.09 2.13 2.19 2.19 0 0 1 -2.08-2.19 2.09 2.09 0 1 1 4.17.06" fill="#fdc607"/><path d="m109.07 82.94a2.08 2.08 0 0 1 -2 2.1 2.19 2.19 0 0 1 -2.14-2.13 2.09 2.09 0 1 1 4.17 0" fill="#fdc607"/><path d="m209 156.64a2.11 2.11 0 0 1 -2.1-2.14 2.09 2.09 0 0 1 2-2.1 2.15 2.15 0 0 1 2.15 2.2 2.06 2.06 0 0 1 -2.08 2" fill="#ff703e"/><path d="m140.58 155.75a2.08 2.08 0 0 1 -2 2.12 2.16 2.16 0 0 1 -2.16-2.19 2.13 2.13 0 0 1 2.07-2.08 2.16 2.16 0 0 1 2.1 2.15" fill="#fdc505"/><path d="m96.7 166.11a2.07 2.07 0 0 1 2.11 2.11 2.05 2.05 0 0 1 -2.08 2.12 2.11 2.11 0 0 1 -2.07-2.17 2 2 0 0 1 2-2.06" fill="#fdc505"/><path d="m34.85 152.7a2 2 0 0 1 -2.05 2 2.11 2.11 0 1 1 2.05-2" fill="#ff7241"/><path d="m62.75 158.58a2.16 2.16 0 0 1 2.15 2.11 2.08 2.08 0 1 1 -4.15.09 2.07 2.07 0 0 1 2-2.2" fill="#fdc505"/><path d="m150 91a2.11 2.11 0 0 1 -2.14-2.09 2.08 2.08 0 1 1 4.14.09 2 2 0 0 1 -2 2" fill="#fdc505"/><path d="m43.45 180.3a2.11 2.11 0 0 1 0-4.22 2.15 2.15 0 0 1 2.09 2.16 2 2 0 0 1 -2 2.06" fill="#ff7241"/><path d="m84 175.59a2 2 0 0 1 2-2.1 2.19 2.19 0 0 1 2.15 2.22 2.15 2.15 0 0 1 -2.1 2 2.12 2.12 0 0 1 -2.05-2.12" fill="#ff713f"/><path d="m98.12 185.26a2 2 0 0 1 -2.12-2.12 2 2 0 0 1 2-2.1 2.11 2.11 0 0 1 2.16 2.17 2 2 0 0 1 -2.06 2" fill="#fdc505"/><path d="m102 162a2 2 0 0 1 -2 2.08 2.12 2.12 0 0 1 -2.14-2.08 2.08 2.08 0 1 1 4.15 0" fill="#ff7241"/><path d="m159.24 57.43c.37 0 .29-.34.37-.56a2 2 0 0 1 3.53-.73 2.25 2.25 0 0 1 .13 2.64c-.16.23-.3.47-.46.7a2.61 2.61 0 0 1 -.27.06c-1.9.19-2.62-.27-3.3-2.11" fill="#fd5701"/><path d="m161.48 63.61a2 2 0 0 1 -2.08 2 2.14 2.14 0 0 1 -2-2.1 2.06 2.06 0 1 1 4.12.08" fill="#48d8f9"/><path d="m141.06 81.49a2.09 2.09 0 0 1 -2-2.08 2.13 2.13 0 0 1 2-2.09 2.19 2.19 0 0 1 2.1 2.16 2.06 2.06 0 0 1 -2.1 2" fill="#48d8f9"/><path d="m194.49 63.53a2 2 0 0 1 2-2.07 2.14 2.14 0 0 1 2.07 2.07 2 2 0 0 1 -2.09 2.1 2.07 2.07 0 0 1 -2-2.1" fill="#48d8f9"/><path d="m151.94 201.65a2.1 2.1 0 0 1 2.08 2 2 2 0 1 1 -4 0 2 2 0 0 1 1.92-2.07" fill="#fdc607"/><path d="m169.41 89a2 2 0 1 1 -2-2.1 2.11 2.11 0 0 1 2 2.1" fill="#47d8f9"/><path d="m127.25 204.35a2 2 0 0 1 -2-2.07 1.92 1.92 0 0 1 2-2 2 2 0 0 1 2 2.07 1.94 1.94 0 0 1 -2 2" fill="#ff7241"/><path d="m153.29 51.45a2 2 0 0 1 -1.91 2.06 2 2 0 0 1 -2.09-2 2 2 0 0 1 1.93-2.06 2 2 0 0 1 2.07 2" fill="#fdc607"/><path d="m145 200a2 2 0 0 1 -2-2.07 1.94 1.94 0 0 1 2-2 2 2 0 0 1 2 2.08 1.94 1.94 0 0 1 -2 2" fill="#ff7241"/><path d="m86 87a1.9 1.9 0 0 1 -2 1.92 2 2 0 0 1 -2-2.08 2 2 0 0 1 2-1.94 1.93 1.93 0 0 1 2 2.1" fill="#48d8f9"/><path d="m37.34 138.33a2 2 0 1 1 0-4 2 2 0 1 1 0 4" fill="#48d8f9"/><path d="m75 157.75a2 2 0 0 1 -2-2.07 2 2 0 0 1 1.92-2 2 2 0 0 1 2.06 2 2 2 0 0 1 -2 2" fill="#fdc607"/><path d="m97 46.19a2 2 0 1 1 1.93-2 1.91 1.91 0 0 1 -1.93 2" fill="#48d8f9"/><path d="m142.66 205.68a1.91 1.91 0 0 1 -2-2 2 2 0 0 1 2-2 2.06 2.06 0 0 1 1.95 2.08 1.89 1.89 0 0 1 -1.94 1.92" fill="#47d8f9"/><path d="m75.81 193.66c.13.52.27 1 .4 1.56a3.18 3.18 0 0 1 -1 1.64h-.16a1.81 1.81 0 0 0 -2.32-.33h-.16a7 7 0 0 1 -.51-1.4 1.85 1.85 0 0 1 1-1.92 2 2 0 0 1 2.22.06 6.82 6.82 0 0 1 .62.43" fill="#fcc504"/><path d="m114.29 37.94a1.9 1.9 0 0 1 2 1.94 2 2 0 0 1 -1.94 2 2.08 2.08 0 0 1 -2-2 1.91 1.91 0 0 1 1.92-1.94" fill="#47d8f9"/><path d="m184.6 182.61a5 5 0 0 1 -3.51 4.52.44.44 0 0 1 -.16-.06 7.48 7.48 0 0 1 -.34-1.18 3 3 0 0 1 3.41-3.49 5 5 0 0 1 .56.1l.09.11" fill="#465f3d"/><path d="m145 182.7a2 2 0 0 1 -1.94-2 1.94 1.94 0 0 1 1.91-2 2 2 0 0 1 1.95 1.95 2 2 0 0 1 -1.92 2" fill="#ff7241"/><path d="m115.3 32.88a1.89 1.89 0 0 1 1.91-1.88 2 2 0 0 1 1.91 2 1.91 1.91 0 1 1 -3.82 0" fill="#fdc607"/><path d="m95 80.73a1.89 1.89 0 0 1 -2 1.88 2 2 0 0 1 -1.86-2 1.89 1.89 0 0 1 2-1.87 1.93 1.93 0 0 1 1.85 2" fill="#fdc607"/><path d="m72.53 196.49h.16a1.82 1.82 0 0 0 2.32.33h.16a2.36 2.36 0 0 1 .5 1.6 2 2 0 0 1 -2 1.95 2.09 2.09 0 0 1 -2.08-1.84 2.26 2.26 0 0 1 .89-2.08" fill="#46d7f7"/><path d="m150.79 27a1.93 1.93 0 0 1 -1.89 2 2 2 0 0 1 -1.9-1.9 1.9 1.9 0 0 1 1.83-2 2 2 0 0 1 2 1.92" fill="#fdc607"/><path d="m159.92 78.06h-.18a3.78 3.78 0 0 0 -1.74-2.56 2 2 0 0 1 2.72-1.5 2.14 2.14 0 0 1 1.13 3 1.93 1.93 0 0 1 -1.93 1.11" fill="#fdc505"/><path d="m185.19 94a2 2 0 0 1 2 1.88 1.92 1.92 0 0 1 -1.87 2 2 2 0 0 1 -2-1.88 1.9 1.9 0 0 1 1.87-2" fill="#ff713f"/><path d="m92 208.65a1.83 1.83 0 0 1 1.84-1.88 1.94 1.94 0 0 1 2 1.92 1.9 1.9 0 1 1 -3.79 0" fill="#ff7241"/><path d="m162.09 200.69a7.6 7.6 0 0 1 .37.76 1.86 1.86 0 0 1 -1.11 2.46 1.94 1.94 0 0 1 -2.43-1.24 1.88 1.88 0 0 1 1.27-2.39 8.24 8.24 0 0 1 1.11-.16l.24.2.55.38" fill="#48d8f9"/><path d="m95.09 61a1.82 1.82 0 0 1 1.85-1.88 2 2 0 0 1 1.9 2 1.88 1.88 0 0 1 -3.75-.12" fill="#48d8f9"/><path d="m147 35.52a1.85 1.85 0 0 1 -1.91-1.81 1.92 1.92 0 0 1 1.89-2 2 2 0 0 1 1.86 1.91 1.8 1.8 0 0 1 -1.84 1.9" fill="#48d8f9"/><path d="m120.67 228.23s0-.07 0-.11a2.83 2.83 0 0 0 -.32-4 .61.61 0 0 1 0-.14 7.37 7.37 0 0 1 1.29-.26 2.31 2.31 0 0 1 2.28 2.42 2.26 2.26 0 0 1 -2.38 2.21 4.88 4.88 0 0 1 -.84-.13" fill="#fe703e"/><path d="m48 58.23a1.88 1.88 0 0 1 0 3.77 1.94 1.94 0 0 1 -1.9-1.86 1.86 1.86 0 0 1 1.9-1.91" fill="#fdc607"/><path d="m194.8 171.46a1.83 1.83 0 0 1 1.86 1.86 1.81 1.81 0 0 1 -1.77 1.85 1.88 1.88 0 0 1 -1.91-1.92 1.81 1.81 0 0 1 1.82-1.79" fill="#fcc504"/><path d="m105.45 214a3 3 0 0 1 -4.46-.83c-.14-.25-.25-.51-.38-.76l.06-.19a3.1 3.1 0 0 1 2.68-.52 2.79 2.79 0 0 1 2.1 2.3" fill="#178e05"/><path d="m102.93 195.81a6.4 6.4 0 0 1 -1.24-5.34c0-.21.08-.43.11-.65h.15a13.65 13.65 0 0 1 1.26 1c1.33 1.34 1.2 4.05-.28 5.06" fill="#465f3d"/><path d="m186.73 62 .36-1c.24-.16.46-.34.7-.48a1.79 1.79 0 0 1 2.44.74 1.82 1.82 0 0 1 -.73 2.45 1.77 1.77 0 0 1 -2.42-.79 9.29 9.29 0 0 1 -.35-.87" fill="#ff7241"/><path d="m184.82 51.12a1.83 1.83 0 0 1 -1.76-1.87 1.76 1.76 0 0 1 1.85-1.74 1.82 1.82 0 0 1 1.72 1.9 1.8 1.8 0 0 1 -1.81 1.71" fill="#ff7241"/><path d="m57.37 188.15a2 2 0 0 1 -1.14-1.33 1.81 1.81 0 0 1 1.09-2.1 1.77 1.77 0 0 1 2.15.77 1.82 1.82 0 0 1 -.37 2.33 5.38 5.38 0 0 1 -.66.38h-1.07" fill="#fdc607"/><path d="m99.65 36.86a4.61 4.61 0 0 1 .15 1.21 2 2 0 0 1 -3.49 1 2 2 0 0 1 -.31-2.17 3.54 3.54 0 0 1 .51-.66h.15a1.86 1.86 0 0 0 2.83.62h.15" fill="#fdc607"/><path d="m57.37 188.15h1.07a4.55 4.55 0 0 1 .62.43 1.77 1.77 0 0 1 0 2.6 1.68 1.68 0 0 1 -2.5-.2 1.8 1.8 0 0 1 .26-2.53 5.28 5.28 0 0 1 .56-.35" fill="#48d8f9"/><path d="m55.85 177.4a1.65 1.65 0 0 1 -1.73 1.74 1.78 1.78 0 0 1 -1.73-1.79 1.73 1.73 0 1 1 3.46.05" fill="#48d8f9"/><path d="m136 214.47a3.23 3.23 0 0 1 -2.48 0 3.19 3.19 0 0 1 -1.85-2.46l.08-.12a3.5 3.5 0 0 1 1.95-.2 3.07 3.07 0 0 1 2.22 2c.07.21.13.42.2.63z" fill="#178e05"/><path d="m125.69 28.46-.17-.07c-.57-1.43-.42-2.14.65-3l.59.45a3.51 3.51 0 0 0 2.48.85l.15.05a2.65 2.65 0 0 1 -1 2.31h-.23a3.05 3.05 0 0 0 -2.44-.58" fill="#fe703e"/><path d="m40.77 74.78a7.53 7.53 0 0 1 .81.24 2.12 2.12 0 0 1 1.26 2.12 2 2 0 0 1 -1.58 1.86l-.55.14-.25-.14a4.13 4.13 0 0 1 .11-4.12z" fill="#465f3d"/><path d="m190.45 83.77a1.85 1.85 0 0 1 1.85-1.54 2.06 2.06 0 0 1 2 1.8 9.59 9.59 0 0 1 -.19 1.58l-.19.06a4.85 4.85 0 0 1 -3.46-1.9" fill="#fd5701"/><path d="m99.65 36.86h-.15a5.46 5.46 0 0 0 -.66-.77 1.52 1.52 0 0 0 -2.17.15h-.15a3.09 3.09 0 0 1 .15-2.2l.19-.07a2.19 2.19 0 0 0 2-.69l.18-.05a.81.81 0 0 0 .14.12c1.48.95 1.65 2.17.49 3.51" fill="#ff713f"/><path d="m81.76 37.24a1.82 1.82 0 0 1 -2.38 1.49 1.91 1.91 0 0 1 -1.29-2.38 6.37 6.37 0 0 1 .23-.61.23.23 0 0 1 .16-.08c1.3.09 2.54.32 3.28 1.58" fill="#fd5701"/><path d="m193.22 155.21a2.41 2.41 0 0 1 1.73-.87 2.13 2.13 0 0 1 2 2.56 6.84 6.84 0 0 1 -.25.72l-.19.09a4.1 4.1 0 0 1 -3.32-2.27z" fill="#465f3d"/><path d="m160.92 198.4c.05-.08.13-.14.17-.22.56-1.12 1.35-1.51 2.34-1.14a2 2 0 0 1 1.24 2.44l-.12.46-.24.15a5.22 5.22 0 0 1 -3.31-1.36c0-.11-.06-.22-.08-.33" fill="#fd5701"/><path d="m79.62 179.9c.55 2-.42 3.56-2.63 4.23l-.15-.07c0-.41 0-.82 0-1.23a3.12 3.12 0 0 1 2.83-2.93" fill="#178e05"/><path d="m156.13 82.75a5.22 5.22 0 0 1 -.25-1.37 2 2 0 0 1 3.26-1.38c.15.11.29.24.43.36v.23a4.23 4.23 0 0 1 -3.29 2.25l-.18-.08" fill="#465f3d"/><path d="m83.76 157.94a2 2 0 0 1 1.07 2.29 2.05 2.05 0 0 1 -1.73 1.64 5.48 5.48 0 0 1 -.57 0l-.16-.15a10 10 0 0 1 0-1.22 3.24 3.24 0 0 1 1.41-2.61" fill="#465f3d"/><path d="m83.76 157.94a3.24 3.24 0 0 0 -1.41 2.61 10 10 0 0 0 0 1.22 2.08 2.08 0 1 1 .92-4.06l.46.11a.49.49 0 0 1 0 .12" fill="#ff7241"/><path d="m46.39 75.16a3.66 3.66 0 0 1 -3.53-.2 11.6 11.6 0 0 1 -1.13-1v-.14a3.67 3.67 0 0 1 4.68 1.18.59.59 0 0 1 0 .13" fill="#178e05"/><path d="m208.47 77.08a1.3 1.3 0 0 1 -1.34 1.3 1.32 1.32 0 0 1 -1.25-1.31 1.27 1.27 0 0 1 1.3-1.34 1.28 1.28 0 0 1 1.29 1.35" fill="#fdc607"/><path d="m156.31 82.83a4.23 4.23 0 0 0 3.29-2.25 2 2 0 0 1 -.57 2.81 1.91 1.91 0 0 1 -2.72-.56" fill="#46d7f7"/><path d="m214 119.49a1.25 1.25 0 0 1 -1.27 1.27 1.22 1.22 0 0 1 -1.22-1.29 1.16 1.16 0 0 1 1.2-1.19 1.19 1.19 0 0 1 1.29 1.21" fill="#fdc607"/><path d="m193.2 155.44a4.1 4.1 0 0 0 3.32 2.27 2 2 0 0 1 -2.68.46 2 2 0 0 1 -.64-2.73" fill="#46d7f7"/><path d="m40.57 74.87a4.13 4.13 0 0 0 -.11 4.13 2 2 0 0 1 -1.79-2.06 2 2 0 0 1 1.9-2.06" fill="#ff7241"/><path d="m190.45 83.77a4.85 4.85 0 0 0 3.46 1.9 2 2 0 0 1 -2.55.58 2.11 2.11 0 0 1 -1.06-2.49h.15" fill="#fdc607"/><path d="m76.43 42.59a4.07 4.07 0 0 1 4.34.41s0 .09 0 .13a4.23 4.23 0 0 1 -4.32-.4v-.14" fill="#178e05"/><path d="m161 198.73a5.22 5.22 0 0 0 3.31 1.36 1.91 1.91 0 0 1 -2.22.6l-.55-.38-.24-.2-.3-1.39" fill="#fdc607"/><path d="m81.76 37.24c-.74-1.26-2-1.49-3.28-1.58a1.64 1.64 0 0 1 2-.65 1.81 1.81 0 0 1 1.34 1.55c0 .22 0 .43.07.65a.2.2 0 0 1 -.11 0" fill="#ff7241"/><path d="m129.24 26.68a3.51 3.51 0 0 1 -2.48-.85l-.59-.45a.77.77 0 0 1 0-.15 2.25 2.25 0 0 1 2.87.85 2.32 2.32 0 0 1 .18.6" fill="#fd5701"/><path d="m158 75.5a3.78 3.78 0 0 1 1.74 2.5 1.73 1.73 0 0 1 -1.67-1.39 7 7 0 0 1 -.19-1.11.06.06 0 0 1 .09 0" fill="#fd5701"/><path d="m125.69 28.46a3.05 3.05 0 0 1 2.44.58 1.82 1.82 0 0 1 -2.44-.58" fill="#465f3d"/><path d="m126.8 77.81a3.57 3.57 0 0 1 -2.86 3.12 3.56 3.56 0 0 1 2.86-3.12" fill="#178e05"/><path d="m183.92 64.07a3.61 3.61 0 0 1 -4-1.81 3.61 3.61 0 0 1 4 1.81" fill="#178e05"/><g fill="#465f3d"><path d="m114.34 213.68a2.09 2.09 0 0 1 0-4.17 2.08 2.08 0 0 1 2 2.1 1.91 1.91 0 0 1 -2 2.07"/><path d="m177.78 63.52c2.38.43 3.9 4.13 1.81 6.32a3.89 3.89 0 0 1 -1.81-6.32"/><path d="m98.84 33.28a2.19 2.19 0 0 1 -2 .69 1.67 1.67 0 0 1 2-.69"/><path d="m120.31 224.13a2.83 2.83 0 0 1 .32 4 2.25 2.25 0 0 1 -.32-4"/></g><path d="m75 196.84a1.82 1.82 0 0 1 -2.32-.33 1.81 1.81 0 0 1 2.32.33" fill="#178e05"/><path d="m161.3 200.11.24.2z" fill="#fff"/><path d="m96.67 36.24a1.52 1.52 0 0 1 2.17-.15 5.46 5.46 0 0 1 .66.77 1.86 1.86 0 0 1 -2.83-.62" fill="#fd5701"/><g fill="#fff"><path d="m256.06 126.69h12.17v-31.37h-12.17v-8.39h33.84v8.39h-12.24v31.37h12.24v8.4h-33.84z"/><path d="m298.64 87.41q2.88-.54 6.36-.86c2.32-.21 4.62-.31 6.92-.31a44.77 44.77 0 0 1 7.18.59 17.84 17.84 0 0 1 6.5 2.34 13.49 13.49 0 0 1 4.72 4.88 16.13 16.13 0 0 1 1.82 8.15 16.63 16.63 0 0 1 -1.58 7.54 15.08 15.08 0 0 1 -4.2 5.15 17 17 0 0 1 -5.95 3 25.66 25.66 0 0 1 -6.91.93h-1.1-1.59c-.55 0-1.09-.06-1.61-.11s-.91-.09-1.14-.13v16.57h-9.42zm14 7c-.92 0-1.79 0-2.61.1s-1.49.15-2 .24v15.62a7.27 7.27 0 0 0 .83.14c.36 0 .75.08 1.17.1h1.2.86a19.69 19.69 0 0 0 3.68-.34 9 9 0 0 0 3.27-1.27 6.63 6.63 0 0 0 2.3-2.58 9.33 9.33 0 0 0 .86-4.34 7.59 7.59 0 0 0 -.82-3.74 6.73 6.73 0 0 0 -2.17-2.38 8.5 8.5 0 0 0 -3.06-1.24 17.85 17.85 0 0 0 -3.51-.34"/><path d="m340.67 86.93h30.54v8.39h-21.11v11.9h19.6v8.4h-19.6v19.47h-9.43z"/><path d="m380.64 119.33h7.56v6.81l.42.14a19.61 19.61 0 0 0 3.47 1.13 17.31 17.31 0 0 0 4 .45 10 10 0 0 0 6-1.55 4.87 4.87 0 0 0 2.13-4.16 4.65 4.65 0 0 0 -1.75-3.78 17.68 17.68 0 0 0 -4.33-2.55c-1.72-.73-3.61-1.46-5.65-2.2a26.91 26.91 0 0 1 -5.64-2.78 15.6 15.6 0 0 1 -4.33-4.24 11.36 11.36 0 0 1 -1.75-6.6 13.28 13.28 0 0 1 1.2-5.67 13.1 13.1 0 0 1 3.37-4.44 15.65 15.65 0 0 1 5.2-2.89 20.77 20.77 0 0 1 6.74-1 45.4 45.4 0 0 1 8.26.75 22.57 22.57 0 0 1 6.46 2.04v14h-7.57v-7.67a1.47 1.47 0 0 1 -.41-.07 26.6 26.6 0 0 0 -3.27-.66 25.66 25.66 0 0 0 -3.48-.24 9 9 0 0 0 -5.19 1.31 4.06 4.06 0 0 0 -1.88 3.54 4.58 4.58 0 0 0 1.75 3.71 19.19 19.19 0 0 0 4.34 2.62q2.58 1.17 5.64 2.34a29.8 29.8 0 0 1 5.64 2.85 15.71 15.71 0 0 1 4.33 4.23 11 11 0 0 1 1.76 6.4 14.47 14.47 0 0 1 -1.38 6.5 13.13 13.13 0 0 1 -3.85 4.68 16.94 16.94 0 0 1 -5.85 2.82 27.36 27.36 0 0 1 -7.29.93 26.31 26.31 0 0 1 -4.85-.42 30 30 0 0 1 -4.13-1 29 29 0 0 1 -3.33-1.3q-1.46-.69-2.34-1.17z"/><path d="m474.81 118.92h7.57v13.76a16.91 16.91 0 0 1 -5.61 2.47 27.16 27.16 0 0 1 -7 .9 27.69 27.69 0 0 1 -8.63-1.34 18.5 18.5 0 0 1 -7.19-4.34 21.25 21.25 0 0 1 -5-7.77 32 32 0 0 1 -1.79-11.6 29.54 29.54 0 0 1 2.1-11.87 21.78 21.78 0 0 1 5.4-7.7 20 20 0 0 1 7.36-4.2 26.47 26.47 0 0 1 7.98-1.23 30.17 30.17 0 0 1 7 .69 23.25 23.25 0 0 1 4.71 1.58v14.31h-7.56v-7.88a27.64 27.64 0 0 0 -4.41-.34 12.31 12.31 0 0 0 -5 1 10.69 10.69 0 0 0 -4 3.06 14.71 14.71 0 0 0 -2.68 5.19 25 25 0 0 0 -1 7.4 24 24 0 0 0 .9 6.77 15.76 15.76 0 0 0 2.61 5.27 11.92 11.92 0 0 0 4.2 3.4 12.77 12.77 0 0 0 5.64 1.21 22.72 22.72 0 0 0 4.4-.42z"/><path d="m491.74 103a36.39 36.39 0 0 1 6.36-2.13 35.75 35.75 0 0 1 8.56-.9 19 19 0 0 1 6.09.86 10.14 10.14 0 0 1 4.06 2.44 9.37 9.37 0 0 1 2.24 3.79 16.83 16.83 0 0 1 .68 5q0 3.51-.24 6t-.24 4.41c0 1 0 2 .14 3.23q.14 1 .21 1.86h4.47v7.56h-11.55l-.9-4.67h-.34a12 12 0 0 1 -3.9 3.68 13.08 13.08 0 0 1 -6.84 1.54 11.58 11.58 0 0 1 -8.14-2.75 9.41 9.41 0 0 1 -3-7.29 11.06 11.06 0 0 1 1.05-5 9.07 9.07 0 0 1 3.08-3.44 14.8 14.8 0 0 1 4.86-2 27.9 27.9 0 0 1 6.32-.65c.82 0 1.68 0 2.59.13s2 .19 3.35.28a6.46 6.46 0 0 0 .14-1.38v-1.3a4.39 4.39 0 0 0 -1.5-3.75 7.27 7.27 0 0 0 -4.44-1.14 20.44 20.44 0 0 0 -6.28.9 40.51 40.51 0 0 0 -4.72 1.78zm11.7 25.24a8.25 8.25 0 0 0 4.9-1.2 8 8 0 0 0 2.38-2.58v-4.13c-.45-.09-1.13-.19-2-.31a24.3 24.3 0 0 0 -2.92-.17 14.1 14.1 0 0 0 -2.59.24 8.36 8.36 0 0 0 -2.31.76 4.51 4.51 0 0 0 -1.63 1.34 3.26 3.26 0 0 0 -.62 2 3.93 3.93 0 0 0 1.13 3 5.26 5.26 0 0 0 3.7 1.06"/><path d="m543.4 135.08v-21.08a15.82 15.82 0 0 0 -.28-3.33 6.29 6.29 0 0 0 -.72-2 2.23 2.23 0 0 0 -1.1-1 3.91 3.91 0 0 0 -1.34-.24 3.5 3.5 0 0 0 -2.17.76 3.66 3.66 0 0 0 -1.34 1.92v24.9h-8.26v-34.32h6.54l1 3.78h.21a8.44 8.44 0 0 1 7.7-4.54 9.14 9.14 0 0 1 4.34 1.1 5.91 5.91 0 0 1 2.82 3.85 7.72 7.72 0 0 1 3.16-3.68 8.91 8.91 0 0 1 4.61-1.27 10 10 0 0 1 3.34.52 5.92 5.92 0 0 1 2.58 1.82 9 9 0 0 1 1.68 3.54 23.29 23.29 0 0 1 .59 5.75v23.52h-8.26v-22c0-2.06-.33-3.51-1-4.33a3 3 0 0 0 -2.5-1.25 3.82 3.82 0 0 0 -2.13.58 3.09 3.09 0 0 0 -1.24 1.9v25.1z"/><path d="m568.09 100.69h11.7l1 4.13h.27q3.58-5.1 11.56-5.09a16.54 16.54 0 0 1 5.82 1 11.49 11.49 0 0 1 4.54 3.13 14.79 14.79 0 0 1 2.92 5.37 25.66 25.66 0 0 1 1 7.77 25.26 25.26 0 0 1 -1.17 8 16.88 16.88 0 0 1 -3.37 6 14.52 14.52 0 0 1 -5.36 3.78 18.83 18.83 0 0 1 -7.23 1.31 29 29 0 0 1 -4.19-.31 11.52 11.52 0 0 1 -3.44-1v14.1h-9v-40.62h-5.16zm21.88 6.6a9.09 9.09 0 0 0 -4.78 1.31 6.75 6.75 0 0 0 -3 3.92v14.31a7.29 7.29 0 0 0 2.81 1.17 15.32 15.32 0 0 0 3.68.45 9.74 9.74 0 0 0 3.58-.65 7.45 7.45 0 0 0 2.89-2.1 10.29 10.29 0 0 0 1.93-3.65 18.13 18.13 0 0 0 .68-5.29q0-4.55-2.2-7a7.13 7.13 0 0 0 -5.57-2.48"/></g><path d="m96.74 89.92a2.1 2.1 0 0 1 -2.09-2.14 2 2 0 0 1 2.11-2.08 2.13 2.13 0 0 1 2.07 2.17 2.09 2.09 0 0 1 -2.09 2" fill="#ff713f"/><path d="m181.8 87.78a1.24 1.24 0 0 1 -1.26 1.27 1.22 1.22 0 0 1 -1.22-1.29 1.17 1.17 0 0 1 1.2-1.2 1.2 1.2 0 0 1 1.28 1.22" fill="#48d8f9"/><path d="m154.54 159.15a1.24 1.24 0 0 1 -1.26 1.26 1.23 1.23 0 0 1 -1.23-1.29 1.16 1.16 0 0 1 1.2-1.19 1.2 1.2 0 0 1 1.29 1.22" fill="#48d8f9"/><path d="m194.78 142.76a1.24 1.24 0 0 1 -1.26 1.26 1.22 1.22 0 0 1 -1.22-1.29 1.16 1.16 0 0 1 1.2-1.19 1.19 1.19 0 0 1 1.28 1.22" fill="#48d8f9"/><path d="m82.48 139.07a4 4 0 0 1 -4 4 4.16 4.16 0 0 1 -4-4.14 4 4 0 0 1 4-4 4.07 4.07 0 0 1 4 4.18" fill="#ff703e"/><path d="m110.52 145a2.06 2.06 0 0 1 -2 2.09 2.19 2.19 0 0 1 -2.14-2.13 2.09 2.09 0 1 1 4.17 0" fill="#fdc607"/><path d="m87.44 149a1.89 1.89 0 0 1 -2 1.92 2 2 0 0 1 -2-2.08 2 2 0 0 1 2.07-1.93 1.92 1.92 0 0 1 2 2.09" fill="#48d8f9"/><path d="m96.44 142.74a1.88 1.88 0 0 1 -2 1.87 2 2 0 0 1 -1.87-2 1.9 1.9 0 0 1 2-1.87 1.92 1.92 0 0 1 1.85 2" fill="#fdc607"/><path d="m98.2 151.92a2.1 2.1 0 0 1 -2.1-2.14 2 2 0 0 1 2.12-2.08 2.13 2.13 0 0 1 2.06 2.18 2.08 2.08 0 0 1 -2.08 2" fill="#ff713f"/><path d="m177.51 153.86a4 4 0 0 1 4.52-3.37 4.16 4.16 0 0 1 3.38 4.66 4 4 0 0 1 -4.51 3.41 4.06 4.06 0 0 1 -3.39-4.7" fill="#ff703e"/><path d="m150.58 144.08a2.07 2.07 0 0 1 2.31-1.79 2.19 2.19 0 0 1 1.82 2.41 2.09 2.09 0 1 1 -4.13-.62" fill="#fdc607"/><path d="m174 143.32a1.89 1.89 0 0 1 2.28-1.61 2 2 0 0 1 1.68 2.34 2 2 0 0 1 -2.32 1.62 1.93 1.93 0 0 1 -1.64-2.35" fill="#48d8f9"/><path d="m164.21 148.25a1.89 1.89 0 0 1 2.21-1.58 2 2 0 0 1 1.56 2.26 1.9 1.9 0 0 1 -2.22 1.57 1.93 1.93 0 0 1 -1.55-2.25" fill="#fdc607"/><path d="m163.77 138.91a2.11 2.11 0 0 1 1.77 2.41 2 2 0 0 1 -2.39 1.77 2.13 2.13 0 0 1 -1.73-2.45 2.08 2.08 0 0 1 2.35-1.73" fill="#ff713f"/><path d="m125.05 149.2a3.83 3.83 0 0 1 -3.6-2.45 4 4 0 0 1 1-4.35 3.66 3.66 0 0 1 4.32-.44 7.89 7.89 0 0 0 .19 1.1 1.75 1.75 0 0 0 1.68 1.4h.17a4.62 4.62 0 0 1 -.34 2.29c-.15-.12-.29-.25-.44-.36a2 2 0 0 0 -3.26 1.38 5.22 5.22 0 0 0 .25 1.38" fill="#fe703e"/><path d="m128.84 144.51h-.17a3.84 3.84 0 0 0 -1.77-2.52 2 2 0 0 1 2.74-1.51 2.13 2.13 0 0 1 1.13 3 1.93 1.93 0 0 1 -1.93 1.11" fill="#fdc505"/><path d="m125.05 149.2a5.22 5.22 0 0 1 -.25-1.38 2 2 0 0 1 3.26-1.38c.15.11.29.24.44.36s0 .15 0 .23a4.27 4.27 0 0 1 -3.29 2.25l-.18-.08" fill="#465f3d"/><path d="m125.23 149.28a4.27 4.27 0 0 0 3.29-2.25 2 2 0 0 1 -.57 2.8 1.91 1.91 0 0 1 -2.72-.55" fill="#46d7f7"/><path d="m126.9 141.94a3.84 3.84 0 0 1 1.77 2.52 1.75 1.75 0 0 1 -1.68-1.4 7.89 7.89 0 0 1 -.19-1.1.08.08 0 0 1 .1 0" fill="#fd5701"/><path d="m163.52 99.7c1.72-1.17 3.33-1.25 4.77-.23a4 4 0 0 1 1.17 5.17 4 4 0 0 1 -5.08 1.81 3.92 3.92 0 0 1 -2.21-4.73c.08-.27.19-.54.29-.81.35-.4.7-.81 1.06-1.21" fill="#ff703d"/><path d="m163.52 99.7c-.36.4-.71.81-1.06 1.21a3.22 3.22 0 0 1 -1.94.08 1 1 0 0 0 -.07-.15 1.8 1.8 0 0 0 -1-2.09 1 1 0 0 0 -.07-.15 6.61 6.61 0 0 1 .86-1.21 1.83 1.83 0 0 1 2.11-.31 2 2 0 0 1 1.18 1.92v.75" fill="#fcc504"/><path d="m159.33 98.6a1 1 0 0 1 .07.15 1.8 1.8 0 0 0 1 2.09 1 1 0 0 1 .07.15 2.49 2.49 0 0 1 -1 1.32 2 2 0 0 1 -2.72-.51 2.09 2.09 0 0 1 .33-2.75 2.28 2.28 0 0 1 2.23-.45" fill="#46d7f7"/><path d="m160.45 100.84a1.8 1.8 0 0 1 -1-2.09 1.8 1.8 0 0 1 1 2.09" fill="#178e05"/><path d="m202.91 101.7a4.07 4.07 0 1 1 -.61 4.62 8.36 8.36 0 0 1 -.43-1.25.77.77 0 0 0 0-.15 2.06 2.06 0 0 0 .58-.27 2.24 2.24 0 0 0 .44-3" fill="#fdc503"/><path d="m199.43 104.37a4.68 4.68 0 0 1 -2.41 2 4 4 0 0 1 -5.14-2.34 4.07 4.07 0 0 1 2.29-5.17 4.12 4.12 0 0 1 5.51 2.57 1.16 1.16 0 0 1 0 .18 1.81 1.81 0 0 0 -.23 2.5z" fill="#45d7f8"/><path d="m199.64 101.65a1.16 1.16 0 0 0 0-.18c1.35-.76 2.07-.71 3.08.23-.12.21-.25.42-.36.64a3.55 3.55 0 0 0 -.51 2.58.77.77 0 0 1 0 .15 2.66 2.66 0 0 1 -2.44-.7v-.22a3.12 3.12 0 0 0 .23-2.5" fill="#fe703e"/><path d="m201.89 104.92a3.55 3.55 0 0 1 .51-2.58c.11-.22.24-.43.36-.64a.38.38 0 0 1 .15 0 2.24 2.24 0 0 1 -.44 3 2.06 2.06 0 0 1 -.58.27" fill="#fd5701"/><path d="m199.64 101.65a3.12 3.12 0 0 1 -.23 2.5 1.81 1.81 0 0 1 .23-2.5" fill="#465f3d"/><path d="m215.17 104.12a1.24 1.24 0 0 1 -1.26 1.27 1.23 1.23 0 0 1 -1.23-1.29 1.17 1.17 0 0 1 1.21-1.19 1.19 1.19 0 0 1 1.28 1.21" fill="#ff703e"/><path d="m58.39 144.81a3 3 0 0 1 -3.09-3.14 2.92 2.92 0 0 1 3-3 3.1 3.1 0 0 1 3.13 3.13 3 3 0 0 1 -3 3" fill="#fdc505"/><path d="m37.31 126a1.89 1.89 0 0 1 -2 1.92 2 2 0 0 1 -2-2.08 2 2 0 0 1 2.07-1.94 1.94 1.94 0 0 1 2 2.1" fill="#48d8f9"/><path d="m85.07 99.62a2.1 2.1 0 0 1 -2.07-2.13 2 2 0 0 1 2.11-2.09 2.14 2.14 0 0 1 2.07 2.18 2.08 2.08 0 0 1 -2.09 2" fill="#ff713f"/><path d="m38.07 89a4 4 0 0 1 -4 4 4.15 4.15 0 0 1 -4-4.14 4 4 0 0 1 4-4 4.06 4.06 0 0 1 4 4.18" fill="#ff703e"/><path d="m37.65 167.66a4 4 0 0 1 -4 4 4.16 4.16 0 0 1 -4-4.14 4 4 0 0 1 4-4 4.08 4.08 0 0 1 4 4.18" fill="#ff703e"/><path d="m47.66 145.06a1.8 1.8 0 0 1 -1.74 1.84 1.88 1.88 0 0 1 -1.92-1.9 1.84 1.84 0 0 1 1.79-1.8 1.86 1.86 0 0 1 1.83 1.86" fill="#fdc505"/><path d="m34.85 142a2.09 2.09 0 0 1 -2 2.12 2.19 2.19 0 0 1 -2.17-2.2 2.14 2.14 0 0 1 2.07-2.08 2.17 2.17 0 0 1 2.1 2.16" fill="#fdc505"/><path d="m30.13 101.73a2.11 2.11 0 0 1 -2.13-2.09 2.08 2.08 0 1 1 4.15 0 2 2 0 0 1 -2 2.07" fill="#fdc505"/><path d="m151 121.86a3.8 3.8 0 0 1 -3.6-2.45 3.94 3.94 0 0 1 1-4.34 3.64 3.64 0 0 1 4.32-.44 6.84 6.84 0 0 0 .19 1.1 1.73 1.73 0 0 0 1.67 1.39h.18a4.59 4.59 0 0 1 -.35 2.29l-.43-.36a2 2 0 0 0 -3.26 1.39 4.72 4.72 0 0 0 .25 1.37" fill="#fe703e"/><path d="m166.17 114.63a1.45 1.45 0 0 1 -1.5 1.5 1.51 1.51 0 0 1 -1.5-1.56 1.47 1.47 0 0 1 1.5-1.51 1.51 1.51 0 0 1 1.5 1.57" fill="#ff703e"/><path d="m144.83 130.15a2.12 2.12 0 1 1 -.05-4.23 2.08 2.08 0 0 1 2.06 2.15 2 2 0 0 1 -2 2.08" fill="#fdc505"/><path d="m164.26 128.09a2 2 0 1 1 -2-2.09 2.1 2.1 0 0 1 2 2.09" fill="#47d8f9"/><path d="m154.77 117.17h-.18a3.81 3.81 0 0 0 -1.77-2.51 2 2 0 0 1 2.75-1.52 2.14 2.14 0 0 1 1.12 3 1.91 1.91 0 0 1 -1.92 1.1" fill="#fdc505"/><path d="m151 121.86a4.72 4.72 0 0 1 -.25-1.37 2 2 0 0 1 3.25-1.39l.43.36a2 2 0 0 1 0 .23 4.2 4.2 0 0 1 -3.28 2.25l-.18-.08" fill="#465f3d"/><path d="m151.16 121.94a4.2 4.2 0 0 0 3.28-2.25 2 2 0 0 1 -.56 2.81 1.91 1.91 0 0 1 -2.72-.56" fill="#46d7f7"/><path d="m152.82 114.61a3.81 3.81 0 0 1 1.77 2.51 1.73 1.73 0 0 1 -1.67-1.39 6.84 6.84 0 0 1 -.19-1.1.06.06 0 0 1 .09 0" fill="#fd5701"/><path d="m58.54 107.94a6 6 0 0 1 5-4.37 6.61 6.61 0 0 1 2.93 12.85 6.25 6.25 0 0 1 -6.19-1.48 10.32 10.32 0 0 1 -.8-.82.59.59 0 0 1 0-.14c1.48-1 1.61-3.72.28-5.06a10.9 10.9 0 0 0 -1.26-1" fill="#45d7f8"/><path d="m32.4 111.82c0-2.07.86-3.45 2.51-4.06a4 4 0 0 1 4.93 2 4.07 4.07 0 0 1 -1.39 5.21 3.91 3.91 0 0 1 -5.15-.86c-.18-.22-.34-.46-.5-.69-.14-.52-.27-1-.4-1.57" fill="#ff703d"/><path d="m70.13 127.19a4.1 4.1 0 0 1 4.09 4.24 4 4 0 0 1 -4 4.06 4.17 4.17 0 0 1 -4.16-4.2 4 4 0 0 1 4.11-4.1m.8 4.65a1.91 1.91 0 0 0 2-2.07 2.08 2.08 0 0 0 -2-2.09 2.08 2.08 0 0 0 .05 4.16" fill="#fe703e"/><path d="m59.52 114a.59.59 0 0 0 0 .14 4 4 0 0 1 -2.31.76 3.6 3.6 0 0 1 -1.63-6.77 3.14 3.14 0 0 1 2.83-.12c0 .22-.08.43-.11.65a6.42 6.42 0 0 0 1.22 5.34" fill="#fe703e"/><path d="m41.62 114.49a4.2 4.2 0 0 1 2.27-4.67 4.3 4.3 0 0 1 5.29 6.41c-.09-.23-.18-.47-.28-.7a4.14 4.14 0 0 0 -6.9-1.37c-.11.12-.22.22-.34.33" fill="#fcc504"/><path d="m41.62 114.49c.12-.11.23-.21.34-.33a4.14 4.14 0 0 1 6.94 1.37c.1.23.19.47.28.7l-.06.21-.27.26a4.21 4.21 0 0 1 -7-1.22c-.11-.23-.21-.47-.31-.7s0-.19 0-.29" fill="#148d03"/><path d="m41.58 114.78c.1.23.2.47.31.7a4.2 4.2 0 0 0 7 1.22l.27-.26a4.06 4.06 0 0 1 -3.16 4.73 4.17 4.17 0 0 1 -4.92-2.87 3.68 3.68 0 0 1 .5-3.52" fill="#46d7f7"/><path d="m57.26 130.41a2.92 2.92 0 0 1 1.51-3.36 3 3 0 0 1 3.64.69 3.14 3.14 0 0 1 .28 3.79 8.17 8.17 0 0 1 -.52.68h-.14a2.75 2.75 0 0 0 -2.09-2.29 3.06 3.06 0 0 0 -2.68.52" fill="#fcc504"/><path d="m62 132.18h.14a3.29 3.29 0 0 1 -.86 2.71 2.77 2.77 0 0 1 -3 .73 2.82 2.82 0 0 1 -2-2.61 2.57 2.57 0 0 1 .94-2.45c.13.26.24.52.38.76a2.94 2.94 0 0 0 4.45.83" fill="#46d7f7"/><path d="m68.62 100.55a2.36 2.36 0 0 1 -2.37-2.35 2.32 2.32 0 0 1 2.26-2.34 2.4 2.4 0 0 1 2.38 2.36 2.3 2.3 0 0 1 -2.27 2.33" fill="#ff713f"/><path d="m54.71 103.42a2 2 0 0 1 -2.08-2.12 2 2 0 0 1 2-2.1 2.12 2.12 0 0 1 2.16 2.17 2 2 0 0 1 -2.06 2" fill="#fdc505"/><path d="m32.4 111.82c.13.53.26 1.05.4 1.57a3.29 3.29 0 0 1 -1 1.64.9.9 0 0 0 -.16 0 1.8 1.8 0 0 0 -2.32-.32h-.16a6.65 6.65 0 0 1 -.51-1.39 1.84 1.84 0 0 1 .94-1.92 2 2 0 0 1 2.23 0l.62.43" fill="#fcc504"/><path d="m29.12 114.65h.16a1.82 1.82 0 0 0 2.32.32.9.9 0 0 1 .16 0 2.38 2.38 0 0 1 .5 1.59 2.05 2.05 0 0 1 -2 2 2.1 2.1 0 0 1 -2.08-1.84 2.28 2.28 0 0 1 .9-2.09" fill="#46d7f7"/><path d="m48.62 126.81a1.84 1.84 0 0 1 1.85-1.87 1.94 1.94 0 0 1 2 1.91 1.9 1.9 0 1 1 -3.8 0" fill="#ff7241"/><path d="m62 132.18a2.94 2.94 0 0 1 -4.45-.83c-.14-.24-.25-.5-.38-.76l.06-.18a3.1 3.1 0 0 1 2.68-.53 2.78 2.78 0 0 1 2.09 2.3" fill="#178e05"/><path d="m59.52 114a6.42 6.42 0 0 1 -1.24-5.34c0-.22.07-.43.11-.65h.15a10.9 10.9 0 0 1 1.26 1c1.33 1.34 1.2 4-.28 5.06" fill="#465f3d"/><path d="m70.93 131.84a2.08 2.08 0 0 1 -.05-4.16 2.08 2.08 0 0 1 2 2.09 1.91 1.91 0 0 1 -2 2.07" fill="#465f3d"/><path d="m31.6 115a1.82 1.82 0 0 1 -2.32-.32 1.8 1.8 0 0 1 2.32.32" fill="#178e05"/><path d="m203.06 119.57a4.14 4.14 0 0 1 -4.14-4.19 4.08 4.08 0 0 1 4.06-4.07 4.14 4.14 0 0 1 4.11 4.22 4 4 0 0 1 -4 4" fill="#ff703e"/><path d="m188 124.62a3.81 3.81 0 0 1 3.8 3.91 3.75 3.75 0 0 1 -3.81 3.78 3.91 3.91 0 0 1 -3.78-3.88 3.76 3.76 0 0 1 3.79-3.81" fill="#ff703e"/><path d="m201.53 128.24a8.25 8.25 0 0 1 -1.24-1.27 3 3 0 1 1 3.39 1.49 5 5 0 0 1 -.56.1z" fill="#fdc505"/><path d="m201.53 128.24 1.59.32a3.47 3.47 0 0 1 1.56 2.07 3.07 3.07 0 0 1 -1.16 3.2 2.93 2.93 0 0 1 -3.39 0 3.08 3.08 0 0 1 -1.33-3.12 3 3 0 0 1 2.73-2.51" fill="#47d8f9"/><path d="m185.5 122a1.81 1.81 0 0 1 1.84-1.88 2 2 0 0 1 1.91 2 1.89 1.89 0 0 1 -1.94 1.83 1.86 1.86 0 0 1 -1.81-1.95" fill="#48d8f9"/><path d="m177.61 111.27a11.58 11.58 0 0 1 .14-1.32 3.9 3.9 0 0 1 4.13-3.17 4.06 4.06 0 0 1 3.72 3.59 3.88 3.88 0 0 1 -2.24 4.12c-.09-.34-.16-.68-.28-1a3.86 3.86 0 0 0 -5.34-2.17h-.13" fill="#fcc504"/><path d="m177.61 111.27h.13a3.72 3.72 0 0 0 2 3.06 4.27 4.27 0 0 0 3.58.26 3.75 3.75 0 0 1 -2.81 4.1 3.8 3.8 0 0 1 -4.5-2 4 4 0 0 1 1-5c.2-.16.41-.3.62-.45" fill="#46d7f7"/><path d="m183.28 114.63a4.27 4.27 0 0 1 -3.58-.26 3.73 3.73 0 0 1 -2-3.06 3.86 3.86 0 0 1 5.34 2.17c.12.33.19.67.28 1l-.08.14" fill="#148d03"/><path d="m140.93 135.87h1.33a3.91 3.91 0 0 1 3.55 3.81 4 4 0 0 1 -3.21 4.05 3.86 3.86 0 0 1 -4.31-1.83c.32-.12.66-.22 1-.37a3.87 3.87 0 0 0 1.65-5.53.59.59 0 0 0 0-.14" fill="#fcc504"/><path d="m140.93 135.87a.59.59 0 0 1 0 .14 3.71 3.71 0 0 0 -2.86 2.25 4.23 4.23 0 0 0 .09 3.58 3.76 3.76 0 0 1 -4.36-2.39 3.8 3.8 0 0 1 1.58-4.67 4 4 0 0 1 5.07.52l.5.57" fill="#46d7f7"/><path d="m138.14 141.84a4.23 4.23 0 0 1 -.09-3.58 3.73 3.73 0 0 1 2.86-2.25 3.87 3.87 0 0 1 -1.65 5.53c-.31.15-.65.25-1 .37l-.15-.07" fill="#148d03"/><path d="m87.12 114.66a3.83 3.83 0 0 1 -3.6-2.45 4 4 0 0 1 1-4.35 3.66 3.66 0 0 1 4.32-.44 6.65 6.65 0 0 0 .19 1.1 1.74 1.74 0 0 0 1.67 1.4h.18a4.61 4.61 0 0 1 -.35 2.29c-.14-.12-.28-.25-.43-.36a2 2 0 0 0 -3.26 1.39 4.84 4.84 0 0 0 .25 1.37" fill="#fe703e"/><path d="m90.91 110h-.18a3.76 3.76 0 0 0 -1.73-2.59 2 2 0 0 1 2.75-1.52 2.13 2.13 0 0 1 1.12 3 1.9 1.9 0 0 1 -1.96 1.11" fill="#fdc505"/><path d="m87.12 114.66a4.84 4.84 0 0 1 -.25-1.37 2 2 0 0 1 3.26-1.39c.15.11.29.24.43.36a1.79 1.79 0 0 1 0 .23 4.2 4.2 0 0 1 -3.28 2.25l-.18-.08" fill="#465f3d"/><path d="m87.3 114.74a4.2 4.2 0 0 0 3.28-2.25 2 2 0 0 1 -.58 2.81 1.91 1.91 0 0 1 -2.72-.56" fill="#46d7f7"/><path d="m89 107.41a3.76 3.76 0 0 1 1.77 2.51 1.75 1.75 0 0 1 -1.67-1.4 6.65 6.65 0 0 1 -.19-1.1.06.06 0 0 1 .09 0" fill="#fd5701"/><path d="m175.53 132.2a2.11 2.11 0 0 1 0-4.22 2.14 2.14 0 0 1 2.09 2.16 2 2 0 0 1 -2.05 2.06" fill="#ff7241"/><path d="m202.79 146.62a2.11 2.11 0 0 1 0-4.22 2.14 2.14 0 0 1 2.08 2.16 2 2 0 0 1 -2.05 2.06" fill="#ff7241"/><path d="m120.2 94.35a4.06 4.06 0 0 1 -2.65 2.1l-.15-.07a3.61 3.61 0 0 0 -4-1.81l-.17-.06a4.73 4.73 0 0 1 -.43-2.94 3.93 3.93 0 0 1 3.59-3.14 4 4 0 0 1 4 2.73 3.41 3.41 0 0 1 .13 2.14c-.12.35-.24.7-.37 1" fill="#fdc503"/><path d="m113.1 102.28a4.21 4.21 0 0 1 -3.07 1.24 4 4 0 0 1 -3.79-4.07 3.82 3.82 0 0 1 3.87-3.84c.37 0 .75.06 1.13.09a.27.27 0 0 0 0 .13 3.89 3.89 0 0 0 1.81 6.32v.13" fill="#fe703e"/><path d="m113.1 102.28v-.13c2.08-2.19.57-5.89-1.81-6.32a.27.27 0 0 1 0-.13l2-1.19.17.06a3.61 3.61 0 0 0 4 1.81l.14.07a4.56 4.56 0 0 1 .46 2.67 3.8 3.8 0 0 1 -4 3.23l-.85-.07" fill="#46d7f7"/><path d="m120.2 94.35c.13-.35.25-.7.37-1 .23-.16.46-.34.7-.48a1.79 1.79 0 0 1 2.44.74 1.83 1.83 0 0 1 -.71 2.39 1.77 1.77 0 0 1 -2.42-.79c-.14-.28-.24-.58-.36-.87" fill="#ff7241"/><path d="m117.4 96.38a3.61 3.61 0 0 1 -4-1.81 3.61 3.61 0 0 1 4 1.81" fill="#178e05"/><path d="m111.26 95.83c2.38.43 3.9 4.13 1.81 6.32a3.89 3.89 0 0 1 -1.81-6.32" fill="#465f3d"/><path d="m107.66 125.89c0-2.08.86-3.45 2.52-4.06a4 4 0 0 1 4.92 2 4 4 0 0 1 -1.39 5.21 3.91 3.91 0 0 1 -5.15-.86c-.18-.22-.33-.46-.5-.69l-.4-1.57" fill="#ff703d"/><path d="m116.89 128.56a4.18 4.18 0 0 1 2.26-4.67 4.3 4.3 0 0 1 5.29 6.41l-.27-.7a4.14 4.14 0 0 0 -6.94-1.37z" fill="#fcc504"/><path d="m116.89 128.56.34-.33a4.14 4.14 0 0 1 6.94 1.37l.27.7-.06.21-.27.26a4.2 4.2 0 0 1 -7-1.23c-.1-.22-.2-.46-.31-.69s0-.19 0-.29" fill="#148d03"/><path d="m116.84 128.85c.11.23.21.46.31.69a4.2 4.2 0 0 0 7 1.23l.27-.26a4.06 4.06 0 0 1 -3.12 4.73 4.18 4.18 0 0 1 -4.92-2.87 3.73 3.73 0 0 1 .5-3.52" fill="#46d7f7"/><path d="m107.66 125.89.4 1.57a3.22 3.22 0 0 1 -1 1.64.45.45 0 0 0 -.16 0 1.8 1.8 0 0 0 -2.32-.32.41.41 0 0 0 -.16 0 6.65 6.65 0 0 1 -.51-1.39 1.84 1.84 0 0 1 .95-1.92 1.94 1.94 0 0 1 2.22 0c.22.14.42.29.62.43" fill="#fcc504"/><path d="m104.38 128.72a.76.76 0 0 1 .16 0 1.82 1.82 0 0 0 2.32.32.41.41 0 0 1 .16 0 2.33 2.33 0 0 1 .5 1.59 2 2 0 0 1 -2 2 2.09 2.09 0 0 1 -2.08-1.84 2.28 2.28 0 0 1 .89-2.09" fill="#46d7f7"/><path d="m106.86 129.07a1.82 1.82 0 0 1 -2.32-.32 1.79 1.79 0 0 1 2.32.32" fill="#178e05"/><path d="m141.49 109.15a6.38 6.38 0 0 1 -9.11.46 6.54 6.54 0 0 1 -2.14-6.72 6.26 6.26 0 0 1 4.63-4.84 6.57 6.57 0 0 1 8.08 4.6c-.21.07-.42.12-.63.2a3.51 3.51 0 0 0 -1.48 5.61c.2.25.44.46.65.69" fill="#ff6f3d"/><path d="m143.35 94a3.46 3.46 0 0 1 -3.45 3.54 3.6 3.6 0 0 1 -.15-7.19 3.62 3.62 0 0 1 3.6 3.65" fill="#fdc503"/><path d="m143.09 102.73a3.45 3.45 0 0 1 3.83 3 3.52 3.52 0 0 1 -2.76 3.94 3 3 0 0 1 -2.51-.53 6.91 6.91 0 0 0 1.58-3.68 24.78 24.78 0 0 0 -.14-2.72" fill="#46d7f7"/><path d="m105.92 115.89a2.33 2.33 0 0 1 -2.3 2.32 2.37 2.37 0 0 1 -2.33-2.39 2.29 2.29 0 0 1 2.28-2.31 2.38 2.38 0 0 1 2.35 2.38" fill="#fdc505"/><path d="m143.09 102.73a24.78 24.78 0 0 1 .14 2.72 6.91 6.91 0 0 1 -1.58 3.68h-.16c-.21-.23-.45-.44-.65-.69a3.51 3.51 0 0 1 1.48-5.61c.21-.08.42-.13.63-.2l.14.08" fill="#465f3d"/><path d="m121.06 113.18a1.89 1.89 0 0 1 2.21-1.58 2 2 0 0 1 1.56 2.25 1.89 1.89 0 0 1 -2.22 1.58 1.94 1.94 0 0 1 -1.55-2.25" fill="#fdc607"/><path d="m137.26 119.55a1.24 1.24 0 0 1 -1.26 1.27 1.22 1.22 0 0 1 -1.22-1.29 1.17 1.17 0 0 1 1.2-1.2 1.19 1.19 0 0 1 1.28 1.22" fill="#48d8f9"/><path d="m212.36 76.09a2.11 2.11 0 0 1 -2.1-2.14 2.08 2.08 0 0 1 2-2.1 2.15 2.15 0 0 1 2.15 2.2 2 2 0 0 1 -2.07 2" fill="#45d7f8"/><path d="m204.84 62.2a3.08 3.08 0 0 1 3 3.13 3 3 0 0 1 -3.06 3 3.08 3.08 0 0 1 -3-3.15 2.93 2.93 0 0 1 3-3" fill="#ff713f"/><path d="m203.8 168.22a2.7 2.7 0 0 1 -2.67-2.72 2.66 2.66 0 0 1 2.58-2.68 2.74 2.74 0 0 1 2.73 2.8 2.63 2.63 0 0 1 -2.64 2.6" fill="#46d8f9"/></svg>