<svg height="223" viewBox="0 0 579 223" width="579" xmlns="http://www.w3.org/2000/svg"><g fill="none" fill-rule="evenodd" transform="translate(-1)"><path d="m96.54 2.18c1.4393737.19774792 2.5465684 1.37154078 2.66 2.82.1686315 1.41307926-.699035 2.74406277-2.06 3.16-.5548385.09378944-1.1192824.11730793-1.68.07-.216332-.01634406-.4306255-.05317575-.64-.11l-.48-.24-.09-.18c-.7771655-.80152722-1.1957742-1.88413609-1.16-3h.17c.4331992.44900284 1.1137734.55149896 1.66.25 1.1407369-.37125637 1.8295129-1.53062471 1.61-2.71" fill="#ff713f"/><path d="m93.27 4.64h-.17c-.9186936-.48741742-1.3758865-1.54727353-1.1-2.55.1722344-.90013159.8937479-1.59358627 1.8-1.73 1.202152-.19642398 2.3527251.56626652 2.64 1.75l-.46.05c-1.3972699.03514695-2.5562979 1.09190778-2.72 2.48" fill="#fdc505"/><path d="m93.27 4.64c.1642547-1.39177322 1.3288941-2.44976059 2.73-2.48l.46-.05c.0391779.00823103.0723785.03405369.09.07.214913 1.1785528-.4721853 2.33509722-1.61 2.71-.5462266.30149896-1.2268008.19900284-1.66-.25" fill="#fd5701"/><path d="m94.83 8.09-.47-.24z" fill="#fff"/><path d="m111.48 44.87c-1.138631 1.2866051-2.747398 2.0604893-4.463307 2.1470373-1.715909.0865481-3.394381-.5215324-4.656693-1.6870373-1.965623-1.6290856-2.801617-4.2542636-2.14-6.72.484609-2.3692286 2.284583-4.2508426 4.63-4.84 1.684158-.462609 3.483142-.2366706 5.0006.6280365 1.517458.8647072 2.62888 2.2972325 3.0894 3.9819635-.22.06-.43.11-.64.19-1.094972.3900292-1.926804 1.2954683-2.222814 2.419508-.296011 1.1240396-.018032 2.3217421.742814 3.200492.2.24.44.45.66.68" fill="#ff6f3d"/><path d="m75 182.77c.6468834-2.322914 2.6113979-4.039899 5-4.37 3.4003569-.467739 6.5942281 1.741029 7.3567146 5.087642.7624866 3.346613-1.1593435 6.720933-4.4267146 7.772358-2.1808352.663589-4.5500158.093302-6.19-1.49-.28-.25-.53-.54-.8-.81 0-.05 0-.1 0-.15 1.48-1 1.61-3.72.28-5.06-.3999767-.357813-.8207071-.691726-1.26-1" fill="#45d7f8"/><path d="m26.51 152.21c-.0142906 1.718448-.9442764 3.298735-2.439641 4.145582-1.4953645.846848-3.3289262.8316-4.8100001-.04-1.4810739-.871599-2.3846496-2.467134-2.3703589-4.185582-.0295511-1.272614.454013-2.503629 1.3418202-3.415888.8878071-.91226 2.105233-1.429084 3.3781798-1.434112 2.6952973.05366 4.8627925 2.234425 4.9 4.93" fill="#46d8f9"/><path d="m143.1 175.5c.021454 1.268277-.467397 2.492026-1.35678 3.396451-.889383.904426-2.104761 1.41373-3.37322 1.413549-2.671907-.065052-4.80537-2.247305-4.81-4.92-.013374-1.270155.482537-2.492751 1.376956-3.394686.894418-.901935 2.112822-1.408059 3.383044-1.405314 1.286287.013139 2.514195.538835 3.411501 1.460545s1.389872 2.163279 1.368499 3.449455" fill="#fdc503"/><path d="m163.3 76.76c-.612003-.9697974-.956972-2.0840492-1-3.23.015228-2.2717833 1.586969-4.2364592 3.8-4.75 1.826078-.3992436 3.722356.2534125 4.915913 1.6919467 1.193556 1.4385342 1.485048 3.4226866.755663 5.1437198-.729386 1.7210332-2.357828 2.8915053-4.221576 3.0343335-.157601-.0062367-.314614-.0229401-.47-.05.107557-.5170285.171118-1.0422401.19-1.57-.128609-1.0126565-.979438-1.7784024-2-1.8-.911972-.0128806-1.697259.6408176-1.85 1.54h-.15" fill="#ff703d"/><path d="m122.43 33.1c-.029929-1.1239037.398531-2.2116458 1.186904-3.0132213s1.86885-1.24804 2.993096-1.2367787c1.139525.0052846 2.230128.4637227 3.031199 1.274174s1.246782 1.9063162 1.238801 3.045826c.030082 1.1380263-.405305 2.2390905-1.20556 3.0487824-.800255.8096918-1.896139 1.2579561-3.03444 1.2412176-1.138668-.01305-2.224712-.4814416-3.01571-1.3006222-.790997-.8191806-1.221096-1.9209509-1.19429-3.0593778" fill="#ff703d"/><path d="m153.93 180.07c-1.776871.442822-3.64462-.237799-4.72-1.72-1.075827-1.304948-1.344954-3.096566-.7-4.66.643183-1.86198 2.431748-3.081456 4.4-3 2.099336.057947 3.910258 1.490407 4.45 3.52.085605.431851.135772.869976.15 1.31-.184618-.043934-.371587-.077321-.56-.1-.948694-.129245-1.902098.202106-2.566154.891855s-.958994 1.655038-.793846 2.598145c.0808.401987.194516.79665.34 1.18" fill="#45d7f8"/><path d="m85.65 51.63c-1.107581.0001591-2.1688118-.4445605-2.9453811-1.234292-.7765692-.7897314-1.2033915-1.8582861-1.1846189-2.965708 0-2.2422761 1.8177239-4.06 4.06-4.06 1.1076333.0022981 2.1674512.4515662 2.9392913 1.2459966.77184.7944305 1.1903558 1.8667646 1.1607087 2.9740034 0 2.209139-1.790861 4-4 4" fill="#ff703e"/><path d="m99.24 189.83c.0187794 1.072942-.394343 2.108434-1.1465336 2.873788s-1.78036 1.196376-2.8534664 1.196212c-1.1048489.008098-2.1666524-.427911-2.9469788-1.210117-.7803264-.782207-1.2137779-1.845057-1.2030212-2.949883-.0242246-1.076373.3864842-2.117063 1.1392714-2.886788s1.7840834-1.203485 2.8607286-1.203212c1.1074314-.011101 2.1720244.427372 2.9504101 1.215181.7783856.787809 1.2040157 1.857601 1.1795899 2.964819" fill="#fdc503"/><path d="m125.13 57.05c0 2.209139-1.790861 4-4 4-2.274723-.0274471-4.101155-1.885139-4.09-4.16 0-2.209139 1.790861-4 4-4 1.083921.020989 2.114921.4725084 2.865399 1.2548815.750477.7823731 1.158719 1.8312629 1.134601 2.9151185" fill="#fdc503"/><path d="m82.57 152.72c-.0160328-1.051851.3892376-2.066434 1.1255438-2.817767s1.7424959-1.177015 2.7944562-1.182233c2.2700983.043656 4.0858777 1.89949 4.08 4.17-.0232222 1.429062-.8070762 2.737182-2.0562916 3.431602-1.2492155.69442-2.7740069.669642-4.0000001-.065-1.2259932-.734643-1.9669306-2.06754-1.9437083-3.496602" fill="#ff703d"/><path d="m54 70.07c0 2.209139-1.790861 4-4 4-2.2270618-.0857012-3.9909334-1.9113083-4-4.14.0303676-1.4290624.8208241-2.7333695 2.0736122-3.4216016s2.7775794-.6558303 4 .085c1.2224205.7408303 1.9567554 2.0775392 1.9263878 3.5066016" fill="#ff703e"/><path d="m101.75 181.87c-1.090751.002849-2.1367703-.433313-2.9023861-1.210215-.7656158-.776903-1.1864237-1.829193-1.1676139-2.919785 0-2.209139 1.790861-4 4-4 2.216182.074894 3.979841 1.882645 4 4.1.027855 2.201517-1.728641 4.011647-3.93 4.05" fill="#46d8f9"/><path d="m107.08 62.41c.000246 2.1859181-1.754328 3.9672112-3.94 4-2.21334-.0901031-3.9699603-1.8950302-4-4.11 0-2.209139 1.790861-4 4-4 1.081207.0130804 2.112289.4579719 2.863613 1.2355916.751323.7776197 1.160495 1.8233913 1.136387 2.9044084" fill="#ff703d"/><path d="m99.19 18.23c-1.1229416-1.3688292-1.2293689-3.3075068-.2630125-4.7910318.9663565-1.483525 2.7826355-2.169767 4.4885495-1.6959019 1.705914.473865 2.908046 1.9985544 2.970814 3.7679473s-1.028303 3.3754322-2.696351 3.9689864c-.427079.1130856-.86144.1966167-1.3.25l-.15-.05c-.032599-.2072178-.093151-.4090572-.18-.6-.602142-.9708624-1.836273-1.3363717-2.87-.85" fill="#fdc503"/><path d="m101.35 22c.848822.6878568 1.432115 1.6494059 1.65 2.72.473493 2.1407031-.864486 4.2636289-3 4.76-2.1496942.4589972-4.2765926-.8675507-4.81-3-.2874943-1.1204774-.0918999-2.3101676.5391957-3.2796216.6310955-.969454 1.6398386-1.6298004 2.7808043-1.8203784l.17.07c.5290709.8123034 1.601997 1.0673432 2.44.58z" fill="#45d7f8"/><path d="m48.81 186.66c0-2.08.86-3.45 2.52-4.07 1.9098352-.675327 4.0230243.183693 4.92 2 .952776 1.834911.3501816 4.093556-1.39 5.21-1.6826457 1.079128-3.9092822.707301-5.15-.86-.18-.22-.33-.46-.5-.69-.13-.52-.27-1-.4-1.56" fill="#ff703d"/><path d="m176.41 87.84c-2.209139 0-4-1.790861-4-4 .018401-1.0423544.450206-2.0346873 1.200388-2.758613.750182-.7239256 1.757263-1.1201184 2.799612-1.101387 2.193456.0374117 3.962588 1.8065443 4 4-.026156 1.0335862-.462707 2.0142384-1.213233 2.7253614-.750525.711123-1.753273 1.0942062-2.786767 1.0646386" fill="#46d8f9"/><path d="m88.46 163.31c.0274768 1.050557-.375693 2.066687-1.1159651 2.812624-.7402721.745938-1.7532987 1.156843-2.8040349 1.137376-1.0714092.012011-2.1005682-.417309-2.845822-1.187153-.7452537-.769843-1.1409507-1.812392-1.094178-2.882847-.0145249-1.056262.4055956-2.072092 1.1619505-2.809538.756355-.737446 1.782494-1.131719 2.8380495-1.090462 2.1565162.08484 3.8697739 1.842027 3.9 4" fill="#46d8f9"/><path d="m137.76 41.76c.018919 1.0277723-.378263 2.0195809-1.101355 2.7502052-.723092.7306242-1.710732 1.138063-2.738645 1.1297948-1.043207-.0130304-2.037701-.4434928-2.761189-1.1951683-.723487-.7516754-1.115643-1.7618886-1.088811-2.8048317-.024469-1.0303014.37059-2.0263546 1.094599-2.7597915.72401-.7334369 1.714869-1.1413474 2.745401-1.1302085 2.150349.0806943 3.851514 1.8481381 3.85 4" fill="#46d8f9"/><path d="m96.85 74.08c-.6941528.0059307-1.3872897-.054342-2.07-.18-1.8931287-.5819169-3.075375-2.4616034-2.78-4.42.2304283-1.8404577 1.6958725-3.2810639 3.54-3.48 1.104422-.0822084 2.1951277.2858681 3.023905 1.0204662s1.3251271 1.7732298 1.376095 2.8795338v.76l-.15.16c-1.5351816.2988547-2.6955152 1.5646732-2.86 3.12l-.09.15" fill="#fdc503"/><path d="m70.6 56.68c1.0262634-.0002864 2.0092447.413454 2.7264027 1.1475528.717158.7340987 1.1078398 1.7264701 1.0835973 2.7524472.0082733 1.012002-.3928431 1.9843842-1.1122169 2.6962253s-1.6959243 1.1026999-2.7077831 1.0837747c-2.0946805-.0747617-3.7599458-1.7840816-3.78-3.88-.0135286-1.0101705.3811014-1.9830685 1.094522-2.6983715s1.6852754-1.1124952 2.695478-1.1016285" fill="#ff703e"/><path d="m159.73 55c-.543512 1.0478872-1.513272 1.8098413-2.66 2.09-.048185-.0242676-.098371-.0443417-.15-.06-.771073-1.4379683-2.410839-2.1799624-4-1.81l-.16-.06c-.474789-.9236983-.629547-1.9788659-.44-3 .353418-1.7573641 1.851208-3.0528936 3.641154-3.1494565 1.789947-.0965629 3.418419 1.030313 3.958846 2.7394565.272368.6842726.317936 1.4378951.13 2.15l-.36 1" fill="#fdc503"/><path d="m96.85 74.08.09-.15c1.5335159-.3018251 2.6924115-1.5660748 2.86-3.12l.15-.16c.633798.0093973 1.265822.0695901 1.89.18 1.818434.5385992 3.008689 2.2801295 2.85 4.17-.10776 1.8871029-1.553228 3.4252836-3.43 3.65-2.1558977.212012-4.088781-1.330748-4.36-3.48 0-.35 0-.7-.05-1" fill="#45d7f8"/><path d="m39.58 70.86c2.0729335.0380856 3.7349082 1.7267229 3.74 3.8.0106662.981318-.3689612 1.9266748-1.0553566 2.6280735-.6863955.7013986-1.6233242 1.101375-2.6046434 1.1119265-2.0723329-.0432356-3.7342151-1.7272763-3.75-3.8-.005735-2.0407074 1.6295484-3.7071815 3.67-3.74" fill="#fdc505"/><path d="m144.62 166.92c-.011092-2.045111 1.634926-3.713493 3.68-3.73 2.063419.05431 3.706147 1.745875 3.7 3.81.011168 2.042915-1.627239 3.712572-3.67 3.74-2.070022-.053867-3.724523-1.739335-3.74-3.81" fill="#ff703e"/><path d="m40.13 57.07c1.3075921-.0178633 2.5253869.6632224 3.194653 1.7866987s.688326 2.5186604.05 3.66-1.8370609 1.855438-3.144653 1.8733013c-1.9996148-.0217296-3.6137715-1.640333-3.63-3.64-.0409123-.9619232.3128566-1.8988193.9793461-2.5936299.6664896-.6948106 1.5878615-1.0872397 2.5506539-1.0863701" fill="#46d8f9"/><path d="m53.75 36.13c1.1680112.9135954 1.662901 2.445774 1.25 3.87-.3177828 1.4588746-1.5190495 2.5600357-3 2.75-1.5170016.312302-3.0646207-.3750821-3.85-1.71-.5943749-.8610095-.7975738-1.9329591-.559536-2.9517608.2380378-1.0188016.8951816-1.8897366 1.809536-2.3982392 1.2567762.9178724 2.9160588 1.0715097 4.32.4" fill="#45d7f8"/><path d="m86.55 202c1.108555.002146 2.1689968.453096 2.9395659 1.250042.770569.796945 1.1855855 1.871958 1.1504341 2.979958.0160702 1.071223-.3982521 2.104121-1.1501465 2.867294s-1.7785096 1.192827-2.8498535 1.192706c-1.1093665.000081-2.1725839-.444007-2.9523132-1.233131-.7797294-.789124-1.2110527-1.857583-1.1976868-2.966869-.0250828-1.095728.4005444-2.153752 1.1774322-2.926859.7768879-.773107 1.8369748-1.193568 2.9325678-1.163141m.79 4.65c.5509918.027996 1.0871748-.183627 1.4705212-.58039.3833463-.396764.5764055-.939907.5294788-1.48961 0-1.104569-.8954305-2-2-2s-2 .895431-2 2c-.0026757.547162.2135001 1.072687.6004066 1.459593.3869065.386907.9124316.603083 1.4595934.600407" fill="#fe703e" fill-rule="nonzero"/><path d="m76.48 38.92c-.0053379-.936106.3634821-1.8355603 1.0244801-2.4984362.6609981-.6628759 1.5594025-1.034246 2.4955199-1.0315638 2.0041315.0437419 3.5979377 1.6955859 3.57 3.7-.0025771.9405551-.3814654 1.8409589-1.0521529 2.5003744s-1.5773834 1.0229893-2.5178471 1.0096256c-.962719-.0049359-1.8826366-.3984898-2.5510422-1.0913723-.6684057-.6928825-1.0286345-1.6263535-.9989578-2.5886277" fill="#fdc505"/><path d="m113.33 29.75c.021475.9306241-.331861 1.830853-.980618 2.4984139-.648756.6675609-1.538524 1.0464686-2.469382 1.0515861-.962561.0054225-1.886978-.3759302-2.56574-1.0584518-.678761-.6825217-1.055-1.6090321-1.04426-2.5715482-.011408-1.9320365 1.528422-3.5163711 3.46-3.56.960918.0026286 1.881135.3882553 2.556844 1.0714728.67571.6832175 1.051145 1.6076392 1.043156 2.5685272" fill="#fdc503"/><path d="m133.92 191.4c-1.070303-1.398742-1.070303-3.341258 0-4.74 1.061933-1.376598 2.917877-1.86522 4.52-1.19 1.692758.730009 2.667395 2.52235 2.36 4.34-.241884 1.651521-1.562287 2.935019-3.22 3.13l.12-.46c.295045-1.013094-.247722-2.08112-1.24-2.44-1-.37-1.78 0-2.34 1.14 0 .08-.12.14-.17.22" fill="#ff703d"/><path d="m56.75 150.82c.8789404-.595011 1.9536055-.827855 3-.65 1.6161911.342208 2.827703 1.686986 3 3.33.246156 1.766044-.8127047 3.453472-2.51 4-.9716959.345952-2.044825.260971-2.9499594-.233607-.9051345-.494578-1.5563111-1.351781-1.7900406-2.356393.1898713.009888.3801287.009888.57 0 .8679058-.120742 1.5631057-.779776 1.73-1.64.2320266-.920538-.2150444-1.877353-1.07-2.29.0049165-.039849.0049165-.080151 0-.12" fill="#45d7f8"/><path d="m129.13 75.75c-1.592692.011319-3.026157-.9642336-3.6-2.45-.581866-1.5184688-.186556-3.238065 1-4.35 1.189443-1.0742284 2.938404-1.2523633 4.32-.44.03342.3745023.096959.7457032.19 1.11.166442.8057083.877284 1.3827452 1.7 1.38h.18c.080155.7806812-.040316 1.5689012-.35 2.29-.14-.12-.28-.25-.43-.36-.576059-.4711861-1.366103-.5835481-2.05069-.2916539-.684586.2918942-1.150482.9397644-1.20931 1.6816539.02177.4657829.105851.926549.25 1.37" fill="#fe703e"/><path d="m134.73 152.19c0-.44.05-.88.13-1.31.366978-1.959474 2.15263-3.326748 4.14-3.17 1.950619.126957 3.523766 1.645128 3.72 3.59.258807 1.719955-.661625 3.401276-2.25 4.11-.09-.34-.15-.68-.27-1-.364268-1.041184-1.157633-1.876113-2.178877-2.293025-1.021245-.416913-2.172262-.375758-3.161123.113025h-.13" fill="#fcc504"/><path d="m14.76 66.83c-.8512749-1.2702189-.8152863-2.9376925.09-4.17.8748946-1.2165758 2.419475-1.7527773 3.86-1.34 1.4358583.4279115 2.4659127 1.6877474 2.6 3.18.1366824 1.4443551-.6143216 2.8277836-1.9 3.5-1.0368577-1.499348-3.0170849-2.0103744-4.65-1.2" fill="#fcc504"/><path d="m42.64 42.18c.9138463-.0134568 1.7946298.3415641 2.4437027.9849929s1.0117725 1.5210781 1.0062973 2.4350071c-.0326392 1.8007049-1.4990067 3.2448547-3.3 3.25-1.8650959-.0470977-3.367441-1.54505-3.42-3.41-.0000041-.8663412.3448316-1.697054.9583647-2.3087109.6135331-.6116568 1.4452982-.9539466 2.3116353-.9512891" fill="#ff703e"/><path d="m61.13 116.88c1.8371611.032452 3.314026 1.522622 3.33 3.36.0107185.883861-.3335981 1.735075-.955802 2.362918s-1.4702765.979826-2.354198.977082c-1.8307453-.064654-3.2811413-1.568114-3.28-3.4.0052468-1.804819 1.4553795-3.272744 3.26-3.3" fill="#fdc503"/><path d="m54.87 30.21c.6492159.8469443.9330894 1.9181933.7884851 2.9754944-.1446042 1.0573011-.705696 2.0129865-1.5584851 2.6545056-.1048676.0633275-.2153319.1168859-.33.16-1.2453515-.9652102-2.9359266-1.1249189-4.34-.41-1.2352015-.9245573-1.7556438-2.525918-1.3-4 .3377348-1.5315273 1.628101-2.6681822 3.19-2.81-.087028.1992744-.1637952.4028743-.23.61-.1457189.4866818-.0915442 1.0113644.1505422 1.4580045.2420864.44664.6521357.7784326 1.1394578.9219955.515449.1717879 1.0806932.1043039 1.5412118-.184004.4605186-.2883078.7681467-.7672859.8387882-1.305996.0359459.0102815.0740541.0102815.11 0" fill="#fdc503"/><path d="m134.73 152.19h.13c.081046 1.301108.840817 2.463557 2 3.06 1.094335.61791 2.407867.713306 3.58.26.23443 1.882743-.970539 3.645172-2.81 4.11-1.786896.518131-3.687187-.326443-4.5-2-.909824-1.690673-.490096-3.789311 1-5 .2-.16.41-.3.62-.45" fill="#46d7f7"/><path d="m166.22 148.21c-.540687-1.440071-.092419-3.064518 1.11029-4.023496 1.202708-.958978 2.886189-1.034277 4.16971-.186504 1.329304.911487 1.932119 2.567218 1.5 4.12-.405577 1.488385-1.747495 2.528474-3.29 2.55.09665-.235167.180113-.47554.25-.72.126807-.612637-.022135-1.250044-.407296-1.74305s-.967589-.791752-1.592704-.81695c-.672938.035381-1.300326.350889-1.73.87" fill="#fe703e"/><path d="m152.62 63c-.811029.8152763-1.920261 1.2633045-3.07 1.24-2.154073-.1128599-3.830703-1.9133568-3.79-4.07-.005456-1.0253128.401497-2.0097763 1.129329-2.7319656.727831-.7221894 1.715432-1.1214694 2.740671-1.1080344.38 0 .75.06 1.13.09-.005545.0431559-.005545.0868441 0 .13-.886875.9957454-1.201925 2.3763624-.834798 3.6582649s1.365265 2.2864325 2.644798 2.6617351v.13" fill="#fe703e"/><path d="m114.49 161.74c-.374603-1.933301.843395-3.817668 2.76-4.27 1.984559-.481474 3.99582.687351 4.56 2.65.551861 1.694208-.178648 3.541471-1.74 4.4-.250409-1.572318-1.442802-2.828305-3-3.16-.875085-.162806-1.779474-.029084-2.57.38" fill="#fcc504"/><path d="m103.29 167.36c-.832829-.015762-1.625268-.361796-2.202913-.961946-.577644-.60015-.893153-1.405231-.877087-2.238054.054203-1.680698 1.438469-3.011723 3.12-3 1.679491.100193 2.992438 1.48754 3 3.17.005367.8185-.317408 1.605033-.896187 2.183813-.57878.578779-1.365313.901554-2.183813.896187" fill="#ff713f"/><path d="m84.13 60.3c-.4616008-.3845805-.8776442-.820755-1.24-1.3-.6053065-1.1283132-.4277757-2.5164391.442009-3.4560992.8697847-.9396602 2.2400856-1.2237133 3.4117192-.7072239 1.1716337.5164893 1.8863219 1.7196649 1.7794017 2.9956174-.1069203 1.2759524-1.0118792 2.3434074-2.2531299 2.6577057-.18 0-.37.07-.56.11l-1.58-.32" fill="#fdc505"/><path d="m31.86 46.34c-.24-.07-.49-.13-.72-.22-1.4476441-.5652648-2.2640145-2.1044633-1.92-3.62.2977757-1.4113991 1.5578654-2.4110702 3-2.38 1.5226476.0356876 2.7970031 1.1655305 3.0148226 2.6729403.2178194 1.5074097-.684563 2.9517895-2.1348226 3.4170597l-.55.16h-.71" fill="#fdc505"/><path d="m131 159.35c1.737408.027414 3.126713 1.452456 3.11 3.19.022205 1.132467-.580963 2.185157-1.569196 2.738665-.988232.553509-2.200957.517898-3.155009-.092643-.954051-.610541-1.494412-1.696809-1.405795-2.826022 0-1.656854 1.343146-3 3-3" fill="#ff703e"/><path d="m35.66 163.1c-.8136336-1.702782-.2877133-3.743936 1.2474604-4.841528 1.5351736-1.097593 3.6367097-.934974 4.9847537.385725 1.348044 1.320698 1.553691 3.418461.4877859 4.975803-.16-.23-.32-.47-.5-.69-.8815856-1.180045-2.3696942-1.738574-3.81-1.43-.9706812.223663-1.8271011.79224-2.41 1.6" fill="#fcc504"/><path d="m49.05 56.19c-.8291545.014731-1.6274203-.314414-2.2052266-.9092703-.5778063-.5948564-.8836042-1.402354-.8447734-2.2307297-.019387-.8014356.2904539-1.5758134.8573202-2.1426798.5668664-.5668663 1.3412442-.8767072 2.1426798-.8573202.8325834-.008097 1.6334244.3190692 2.2221776.9078224s.9159194 1.3895942.9078224 2.2221776c0 1.6568542-1.3431458 3-3 3" fill="#fdc505"/><path d="m84.14 17.13c0 1.6568542-1.3431458 3-3 3-1.7029478-.0325137-3.0694616-1.4167745-3.08-3.12 0-1.6568542 1.3431458-3 3-3 1.6853775.0436411 3.0224603 1.4342072 3 3.12" fill="#ff713f"/><path d="m115.24 17.13c0 1.6568542-1.343146 3-3 3-1.705878-.0164562-3.080079-1.4040423-3.08-3.11 0-1.6568542 1.343146-3 3-3 .818632.0079045 1.600435.3413978 2.172717.9268147.572283.585417.887953 1.374585.877283 2.1931853" fill="#ff713f"/><path d="m95.55 212.05c0-1.656854 1.3431458-3 3-3 1.69408.05972 3.028305 1.465104 3 3.16 0 1.656854-1.343146 3-3 3-.8169584-.020944-1.5921023-.365707-2.1547697-.958383-.5626673-.592676-.8667254-1.384673-.8452303-2.201617" fill="#fdc505"/><path d="m10.1 54.6c1.6893319.0436615 3.0279975 1.4403359 3 3.13.0001117.8043888-.3228131 1.5751268-.896283 2.1391956-.57347.5640687-1.3494399.8742109-2.153717.8608044-.81694291-.0156635-1.59369003-.3574048-2.15720248-.9490929-.56351246-.5916881-.86697982-1.384172-.84279752-2.2009071-.01651247-.8005974.29425268-1.5732908.86048093-2.1395191.56622825-.5662282 1.33892167-.8769934 2.13951907-.8604809" fill="#ff713f"/><path d="m120 164.69c.249269 1.467489-.446097 2.934151-1.74 3.67-.860442.494766-1.883258.624124-2.839785.359152-.956527-.264971-1.766995-.902173-2.250215-1.769152-1-1.73-.4-4.28 1.24-5 .31035 1.493277 1.442882 2.680109 2.92 3.06.896014.197139 1.831593.10253 2.67-.27" fill="#45d7f8"/><path d="m144.32 68.52c.013967.4001944-.138186.7883485-.420389 1.0724465-.282204.2840979-.669332.4388437-1.069611.4275535-.408442.0003269-.799355-.1659179-1.08245-.4603364-.283095-.2944186-.433888-.6915484-.41755-1.0996636-.000083-.3924704.157849-.7684469.438176-1.043129.280326-.274682.659436-.4249355 1.051824-.416871.409355.0023874.800198.1708744 1.082987.4668599.282788.2959854.433286.6941022.417013 1.1031401" fill="#ff703e"/><path d="m153.54 69.75c1.662944.0051149 3.017401 1.3373679 3.05 3 .018852.8077077-.288877 1.5888768-.853542 2.1667177-.564666.5778409-1.33853.9035023-2.146458.9032823-1.68855-.0543454-3.022673-1.4507277-3-3.14 0-1.6568542 1.343146-3 3-3" fill="#fdc505"/><path d="m75.93 188.81v.15c-.6696893.484962-1.4732102.750473-2.3.76-1.6779716-.018159-3.115427-1.205622-3.45-2.85-.3701743-1.572752.3811113-3.195033 1.82-3.93.8720141-.482667 1.9202565-.527116 2.83-.12 0 .22-.07.44-.11.65-.4085285 1.875887.0466485 3.836085 1.24 5.34" fill="#fe703e"/><path d="m58 189.33c-.4220023-1.895206.5133182-3.832064 2.26-4.68 1.7745446-.819686 3.8786754-.33934 5.1217109 1.169221s1.312173 3.665716.1682891 5.250779l-.27-.71c-.5060716-1.338782-1.6677387-2.321216-3.0719613-2.59799-1.4042227-.276775-2.8518016.191373-3.8280387 1.23799l-.34.33" fill="#fcc504"/><path d="m84.13 60.3 1.58.32c.767501.4606394 1.3293432 1.1978337 1.57 2.06.2948325 1.2052238-.1673034 2.4691852-1.17 3.2-1.0025058.7304274-2.3563273.7504544-3.38.05-1.0318604-.6767048-1.5562982-1.9069648-1.33-3.12.2219701-1.3662862 1.3499161-2.4033355 2.73-2.51" fill="#47d8f9"/><path d="m57.17 68.17c-1.6806034-.027407-3.0222671-1.4093206-3-3.09 0-1.6568542 1.3431458-3 3-3 1.6699658.0693939 2.9907613 1.4386186 3 3.11.0001612.8061551-.3241322 1.5784524-.8997857 2.1428186-.5756535.5643661-1.3542204.8733045-2.1602143.8571814" fill="#47d8f9"/><path d="m31.86 46.34h.71c.6521258.1602581 1.243086.5078818 1.7 1 .9607122 1.0346569 1.0887948 2.5923067.31 3.77-.7466454 1.1093625-2.1373804 1.5906139-3.41 1.18-1.2614262-.4586237-2.1008417-1.6577888-2.1-3 .0205288-1.4168887 1.0296683-2.6261881 2.42-2.9l.37-.08" fill="#46d8f9"/><path d="m58 189.33.34-.33c.9745679-1.066303 2.4344678-1.547511 3.8520755-1.269709 1.4176078.277802 2.5879017 1.274437 3.0879245 2.629709l.27.71-.06.21-.27.26c-.9712366 1.063964-2.4190626 1.557446-3.8379218 1.308132-1.4188593-.249313-2.6117285-1.206804-3.1620782-2.538132-.1-.23-.2-.46-.31-.69s0-.2.05-.29" fill="#148d03"/><path d="m118 207.26c-1.499939-.164724-2.644104-1.41792-2.671996-2.926619-.027892-1.508698 1.069171-2.803329 2.561996-3.023381.804389-.000112 1.575127.322813 2.139196.896283.564068.57347.87421 1.34944.860804 2.153717.008066.769836-.293499 1.510634-.836944 2.055959s-1.283197.849448-2.053056.844041" fill="#ff713f"/><path d="m67.9 17.41c-.0243598-.7872529.2714407-1.5507569.8198341-2.1161109s1.3025363-.8842659 2.0901659-.8838891c1.6456409.0267637 2.9732363 1.3543591 3 3 .0004438 1.6298981-1.3005456 2.9619691-2.93 3-1.6294544-.0380309-2.9304438-1.3701019-2.93-3" fill="#fdc505"/><path d="m42.36 163.88c.6785434 1.378938.4096744 3.036294-.67 4.13-.9719169 1.115521-2.5324848 1.513625-3.92 1-1.4506594-.424267-2.4989245-1.686141-2.65-3.19-.1987746-.880287-.0053727-1.803507.53-2.53.17.23.33.47.51.69 1.1490371 1.447986 3.1683261 1.868671 4.8 1 .4955563-.332025.9637202-.703212 1.4-1.11" fill="#46d7f7"/><path d="m100.13 156.61c-.028763 1.18546-.7692242 2.236704-1.8757473 2.663025s-2.3609137.143653-3.177639-.716058-1.0347361-2.126939-.552268-3.21016 1.570278-1.768835 2.7556543-1.736807c1.5980005.079999 2.852001 1.4 2.85 3" fill="#fdc505"/><path d="m113.48 184.35c-1.556431-.073529-2.785184-1.34859-2.80111-2.906675-.015926-1.558086 1.186507-2.857997 2.74111-2.963325 1.602505.042439 2.888501 1.337242 2.92 2.94.024504.772168-.266621 1.520996-.806258 2.073841-.539636.552844-1.281207.861988-2.053742.856159" fill="#fdc505"/><path d="m58 189.62c.11.23.21.46.31.69.5503497 1.331328 1.7432189 2.288819 3.1620782 2.538132 1.4188592.249314 2.8666852-.244168 3.8379218-1.308132l.27-.27c.4170272 2.178748-.996272 4.287551-3.17 4.73-2.1404851.492124-4.294771-.764542-4.92-2.87-.4374545-1.179289-.2493517-2.499771.5-3.51" fill="#46d7f7"/><path d="m64.37 42.34c.0080661.7724878-.2945533 1.5158294-.8398734 2.06303-.5453201.5472005-1.2876156.8523769-2.0601266.84697-1.6098118-.0644435-2.8812894-1.3888994-2.88-3-.0026887-.7716852.3033586-1.512395.8499642-2.0571222.5466055-.5447272 1.2883644-.8482229 2.0600358-.8428778 1.6199263.0382337 2.9035201 1.3799693 2.87 3" fill="#ff713f"/><path d="m152.62 63v-.13c2.09-2.19.57-5.89-1.81-6.32-.005545-.0431559-.005545-.0868441 0-.13l2-1.19.17.06c.771073 1.4379683 2.410839 2.1799624 4 1.81.051629.0156583.101815.0357324.15.06.411771.8291614.568375 1.7618215.45 2.68-.327193 1.969442-2.122612 3.3498613-4.11 3.16l-.85-.07" fill="#46d7f7"/><path d="m49.84 177.06c-1.2327427.168281-2.4451607-.424105-3.07-1.5-.7121223-1.016479-.7895272-2.347843-.2-3.44.4797291-1.037473 1.5073206-1.712193 2.65-1.74 1.2213993-.085518 2.385074.531229 3 1.59.1611762.273948.3047983.557853.43.85l-.07.08c-1.5387294.141136-2.7423611 1.387299-2.83 2.93v1.23" fill="#fcc504"/><path d="m128.18 182.93c-.015353 1.566515-1.264152 2.84179-2.83 2.89-1.60194-.074838-2.861747-1.396314-2.86-3 .032338-1.566552 1.303194-2.824125 2.87-2.84 1.555793.093032 2.781217 1.361911 2.82 2.92" fill="#47d8f9"/><path d="m52.69 172.82c.29 0 .57 0 .85.07 1.5991223.274445 2.7635759 1.667555 2.75 3.29.025874 1.715074-1.2894284 3.153138-3 3.28-1.5162909.122841-2.9025412-.858911-3.29-2.33 2.21-.67 3.18-2.21 2.63-4.23l.07-.08" fill="#46d7f7"/><path d="m69.67 27c-1.3308168-.1790401-2.3805685-1.2206225-2.57-2.55-.2073701-1.327937.5313366-2.6227487 1.78-3.12 1.2580524-.4644217 2.6708321-.0154625 3.43 1.09.8238929 1.1799611.6938077 2.7787494-.31 3.81l-.18.05c-.7459189-.2754757-1.5826209.0131864-2 .69z" fill="#46d8f9"/><path d="m29.78 68.08c.0081697.7388645-.2824254 1.449709-.805854 1.9712548s-1.2353157.8095774-1.974146.7987452c-.747877-.0052225-1.4625825-.309425-1.9848086-.8448007-.5222262-.5353758-.8085649-1.2574236-.7951914-2.0051993-.0245232-.7509476.2581653-1.4794368.7828023-2.0172841s1.2458725-.8385608 1.9971977-.8327159c1.563954.0596987 2.7894455 1.3654042 2.75 2.93" fill="#ff713f"/><path d="m159.09 155c1.534916-.016797 2.797199 1.205343 2.83 2.74 0 1.518783-1.231217 2.75-2.75 2.75s-2.75-1.231217-2.75-2.75c-.027443-.722571.242695-1.424771.74734-1.942646.504645-.517876 1.199621-.806092 1.92266-.797354" fill="#47d8f9"/><path d="m113.07 38.45c1.884472-.2235413 3.595688 1.1168371 3.83 3 .260911 1.8351809-.946103 3.5582376-2.76 3.94-.87382.2080041-1.794868.01352-2.51-.53.881499-1.0418824 1.431684-2.3233272 1.58-3.68.002972-.9085413-.043765-1.8165649-.14-2.72" fill="#46d7f7"/><path d="m13.77 67.78 1-.81c.3545643.3575046.7320294.6915445 1.13 1 1.0642958.6682834 2.3970313.7437925 3.53.2 1.0412681 1.6042236.6155937 3.745898-.96 4.83-.7429795.527063-1.6672491.7319158-2.5633458.5681334s-1.6881477-.6823324-2.1966542-1.4381334l.55-.14c.8912103-.1905451 1.5409042-.9594865 1.58-1.87.07652-.9033906-.4298944-1.7554529-1.26-2.12-.265296-.0950949-.5357215-.1752209-.81-.24" fill="#46d7f7"/><path d="m93.67 221.23c-.7626032.896143-1.9786957 1.263708-3.11.94-1.1754201-.293196-2.0447436-1.286139-2.18-2.49-.2396394-1.178624.2891399-2.380395 1.32-3 .9669122-.675945 2.2530878-.675945 3.22 0l.4.26c-.0053729.046512-.0053729.093488 0 .14-.7226426.442535-1.1353688 1.253544-1.0677945 2.098224.0675744.844679.6039877 1.579757 1.3877945 1.901776v.11" fill="#46d7f7"/><path d="m132.24 50.43c-.587555-1.1321122-.395017-2.5119678.48-3.44.783106-1.022006 2.123643-1.4421742 3.35-1.05 1.50642.414225 2.528565 1.8121255 2.466503 3.3732249-.062062 1.5610993-1.191954 2.8734449-2.726503 3.1667751.16-.23.3-.47.46-.7.532602-.8153907.480135-1.8808804-.13-2.64-.466519-.610815-1.241797-.9002528-1.994464-.7446021-.752668.1556508-1.349553.7288504-1.535536 1.4746021-.08.22 0 .53-.37.56" fill="#ff703e"/><path d="m152.64 38.27c.005729 1.3984385-1.111816 2.5426983-2.51 2.57-1.464507-.0163849-2.644627-1.2054116-2.65-2.67.027614-1.4248947 1.205105-2.5576142 2.63-2.53s2.557614 1.2051053 2.53 2.63" fill="#fdc505"/><path d="m38.68 180.9c.7080525-.000045 1.386677.283265 1.8845198.786743.4978429.503479.7734959 1.18525.7654802 1.893257-.0154324 1.404655-1.1359123 2.547192-2.54 2.59-1.4704511-.037429-2.6490029-1.229223-2.67-2.7.031511-1.402248 1.1578857-2.533022 2.56-2.57" fill="#ff713f"/><path d="m172.41 68.75c-1.429737-.0381832-2.562429-1.2199296-2.54-2.65.010525-.6710248.287226-1.310375.769213-1.7773585s1.129765-.7233344 1.800787-.7126415c1.395834.0434234 2.501543 1.1935389 2.49 2.59.008019.6735283-.253936 1.3222342-.7274 1.8013342-.473463.4791001-1.119024.7487135-1.7926.7486658" fill="#fdc505"/><path d="m150.15 44.49c.028234.6704461-.22434 1.3223059-.696936 1.7986972-.472595.4763914-1.122413.7341722-1.793064.7113028-1.419372.0248528-2.590147-1.1056282-2.615-2.525s1.105628-2.5901471 2.525-2.615c.691168-.0055322 1.355204.2686558 1.841116.7602183.485913.4915624.752406 1.1587234.738884 1.8497817" fill="#47d8f9"/><path d="m104.74 204.87c-.224969-1.541593.808277-2.985489 2.34-3.27 1.458442-.296983 2.914116.520238 3.42 1.92.589151 1.435528-.013637 3.083436-1.39 3.8-.07-.21-.13-.42-.2-.63-.343752-1.006108-1.183602-1.762729-2.22-2-.655781-.120431-1.332318-.051043-1.95.2" fill="#fcc504"/><path d="m42.36 163.88c-.4231378.408558-.8778853.783056-1.36 1.12-1.6316739.868671-3.6509629.447986-4.8-1-.18-.22-.34-.46-.51-.69v-.22c.5828989-.80776 1.4393188-1.376337 2.41-1.6 1.4403058-.308574 2.9284144.249955 3.81 1.43.18.22.34.46.5.69v.26" fill="#148d03"/><path d="m109 207.47c.174316 1.478735-.819057 2.842444-2.28 3.13-1.490792.304737-2.973621-.554874-3.45-2-.454048-1.371871.13443-2.872489 1.4-3.57.154109 1.08295.852349 2.01142 1.85 2.46.793733.330001 1.686267.330001 2.48 0" fill="#46d7f7"/><path d="m73.67 205.24c-.2971919-1.328916.3379541-2.691309 1.5468822-3.318074 1.2089281-.626764 2.6883594-.360667 3.6031178.648074.9290366 1.062042 1.0471151 2.609278.29 3.8-.16.23-.35.45-.53.67h-.13c-.1645329-1.123621-.9959387-2.034209-2.1-2.3-.9256765-.250523-1.9151843-.058529-2.68.52" fill="#fcc504"/><path d="m157.6 175.61c1.36064.468911 2.212914 1.820077 2.05 3.25-.121822 1.374837-1.165976 2.489152-2.53 2.7-1.201475.203488-2.401493-.368521-3-1.43 2.001809-.621943 3.403155-2.426526 3.51-4.52" fill="#ff713f"/><path d="m78.45 207h.13c.1368594.985048-.1750756 1.97957-.85 2.71-.7576355.832226-1.9446942 1.121077-3 .73-1.1573873-.351092-1.9620133-1.401129-2-2.61-.1547577-.923863.2054059-1.858756.94-2.44.13.25.24.51.38.76.4397743.751477 1.1843397 1.274818 2.0403433 1.434119s1.7389887-.061155 2.4196567-.604119" fill="#46d7f7"/><path d="m100.87 47.08c.000106 1.2696757-1.0204304 2.3035818-2.29 2.32-.6294285-.0052435-1.2306813-.2617152-1.6701007-.7124018-.4394194-.4506865-.6805898-1.0582386-.6698993-1.6875982-.0080254-.6098747.2286407-1.1975385.6570965-1.631632.4284559-.4340934 1.012976-.6784208 1.6229035-.678368 1.3010977.0109801 2.350046 1.068856 2.35 2.37" fill="#fdc505"/><path d="m85 175.39c-1.301144.000046-2.3590199-1.048902-2.37-2.35-.0167648-1.273672.9965108-2.322658 2.27-2.35 1.2999464.021403 2.3485974 1.070054 2.37 2.37.010693.610794-.2231011 1.200542-.6493932 1.638102s-1.0097418.686656-1.6206068.691898" fill="#ff713f"/><path d="m184.71 126.67c.626799.005097 1.225108.262525 1.659788.714141s.669064 1.059322.650212 1.685859c.002786.610769-.240673 1.196891-.675369 1.625942-.434697.429051-1.023951.664827-1.634631.654058-1.265418-.052833-2.269905-1.083639-2.29-2.35-.005596-1.273569 1.016525-2.313544 2.29-2.33" fill="#fdc505"/><path d="m12.62 151c-.0072948.610248-.263268 1.1911-.7087339 1.608252-.445466.417153-1.041853.634486-1.6512661.601748-1.26647806-.048523-2.26632243-1.092609-2.26-2.36.00526748-.611757.25404332-1.196208.69130308-1.624085.43725977-.427877 1.02696955-.663917 1.63869692-.655915.6277997.012948 1.2240531.277672 1.6547095.734656.4306565.456985.6595753 1.067881.6352905 1.695344" fill="#fdc607"/><path d="m183 81.94c-1.263377-.0271069-2.274867-1.0563422-2.28-2.32-.005325-.6090742.232216-1.1951754.660089-1.6286781s1.010819-.6786854 1.619911-.6813219c.625017.0052683 1.222186.259312 1.659439.7059484.437253.4466363.678562 1.0490633.670561 1.6740516-.007856.6082381-.258437 1.1881189-.696009 1.6106665-.437571.4225477-1.02585.6527239-1.633991.6393335" fill="#ff713f"/><path d="m94.26 7.67c.0294826.06205988.0628833.12218129.1.18l.47.24c.09.29.16.59.25.88.3164854.99710342-.0673002 2.083135-.94 2.66-.9036142.5454413-2.0620073.4090403-2.8142117-.3313741-.7522044-.7404143-.9068874-1.89650822-.3757883-2.8086259.5210505-.9063405 1.6058993-1.32359002 2.6-1l.73.22" fill="#48d8f9"/><path d="m104.55 54.77c.001165 1.2322056-.968959 2.2464264-2.2 2.3-1.264102-.030529-2.287682-1.0366122-2.34-2.3 0-.8109929.432659-1.5603813 1.135-1.9658778.70234-.4054965 1.56766-.4054965 2.27 0 .702341.4054965 1.135 1.1548849 1.135 1.9658778" fill="#47d8f9"/><path d="m140.4 155.55c-1.172133.453306-2.485665.35791-3.58-.26-1.159183-.596443-1.918954-1.758892-2-3.06.988861-.488783 2.139878-.529938 3.161123-.113025 1.021244.416912 1.814609 1.251841 2.178877 2.293025.12.32.18.66.27 1l-.07.14" fill="#148d03"/><path d="m113.07 38.45c.096235.9034351.142972 1.8114587.14 2.72-.148316 1.3566728-.698501 2.6381176-1.58 3.68h-.15c-.22-.23-.46-.44-.66-.68-.760846-.8787499-1.038825-2.0764524-.742814-3.200492.29601-1.1240397 1.127842-2.0294788 2.222814-2.419508.21-.08.42-.13.63-.19l.14.07" fill="#465f3d"/><path d="m120 164.69c-.838407.37253-1.773986.467139-2.67.27-1.477118-.379891-2.60965-1.566723-2.92-3.06.032564-.050175.059399-.103844.08-.16.790526-.409084 1.694915-.542806 2.57-.38 1.557198.331695 2.749591 1.587682 3 3.16-.019024.058347-.042424.115175-.07.17" fill="#148d03"/><path d="m143.83 33.82c-.043008 1.1173949-.961778 2.0008274-2.08 2-1.171727-.032657-2.101359-.9978728-2.09-2.17-.000057-.5621916.225305-1.1009321.625644-1.4956323s.942222-.612399 1.504356-.6043677c1.15598.0801353 2.040501 1.061954 2 2.22" fill="#ff7241"/><path d="m24.23 84c-.0107442 1.1348651-.9252002 2.0537602-2.06 2.07-.5800975-.0074969-1.1322936-.2501941-1.5300815-.6724902-.3977879-.4222962-.6070766-.9879999-.5799185-1.5675098.04333-1.1291235.9801752-2.0171285 2.11-2 1.157592.0536309 2.0666067 1.0111851 2.06 2.17" fill="#fdc607"/><path d="m117.92 66.72c.019228.563617-.19345 1.1104734-.588421 1.5130044-.394972.4025309-.937699.6255363-1.501579.6169956-1.166343-.0586566-2.081474-1.0221835-2.08-2.19-.04157-.7793688.354578-1.5169645 1.027279-1.9127125.672702-.395748 1.509861-.3837026 2.170898.0312359s1.035799 1.1636265.971823 1.9414766" fill="#fdc607"/><path d="m82.07 75.94c.011658 1.1259615-.874809 2.0567518-2 2.1-1.1669926-.0262203-2.1083141-.963143-2.14-2.13-.0540067-.7793641.3311597-1.5237821.99854-1.9298962.6673803-.4061142 1.5055397-.4061142 2.17292 0 .6673803.4061141 1.0525467 1.1505321.99854 1.9298962" fill="#fdc607"/><path d="m182 149.64c-.563108-.002612-1.10181-.230203-1.496217-.632123-.394408-.40192-.611795-.94482-.603783-1.507877-.006419-1.12389.877133-2.05162 2-2.1.578985-.000157 1.133562.233211 1.538234.647294s.625231.973877.611766 1.552706c-.032636 1.122019-.957564 2.011373-2.08 2" fill="#ff703e"/><path d="m113.58 148.75c.022636 1.133684-.866921 2.076614-2 2.12-.578104.000056-1.132104-.231629-1.538056-.643219s-.629973-.968733-.621944-1.546781c.026182-1.133868.936271-2.048354 2.07-2.08 1.165567.032379 2.095051.983994 2.1 2.15" fill="#fdc505"/><path d="m69.7 159.11c.562903-.010987 1.1059969.207786 1.5041052.605895.3981083.398108.6168814.941202.6058948 1.504105.0192312.560965-.1923914 1.105279-.5854884 1.505936-.3930971.400656-.9332826.622608-1.4945116.614064-.5631896-.010448-1.0988213-.245651-1.4876229-.653235-.3888016-.407585-.5984916-.953709-.5823771-1.516765-.0162299-.540751.187297-1.06501.5641432-1.453162.3768463-.388152.8948626-.607082 1.4358568-.606838" fill="#fdc505"/><path d="m7.85 145.7c.00016853.539211-.21739483 1.055645-.6033522 1.432189-.38595736.376544-.90760552.581291-1.4466478.567811-.86826667.023535-1.66224358-.487411-2.00054741-1.287405-.33830384-.799995-.15180484-1.725566.46991303-2.33212s1.55161137-.770146 2.34301026-.412196c.79139889.357951 1.28258694 1.1643 1.23762412 2.031721" fill="#ff7241"/><path d="m35.75 151.58c1.1697901.005103 2.1229324.940512 2.15 2.11.0678488.772875-.3000915 1.519272-.9544304 1.936141-.6543389.41687-1.4863026.434912-2.1580988.046803-.6717963-.38811-1.0717492-1.117854-1.0374708-1.892944-.0354726-.559193.1572617-1.108879.5341717-1.52348s.9057949-.658696 1.4658283-.67652" fill="#fdc505"/><path d="m123 84c-.561336.0080066-1.10272-.2080145-1.504349-.6002597-.401629-.3922451-.630387-.928372-.635651-1.4897403-.058405-.7885539.335354-1.542028 1.016083-1.9443171s1.530686-.3838118 2.19329.0476802c.662603.431492 1.023246 1.2013661.930627 1.9866369 0 1.1045695-.895431 2-2 2" fill="#fdc505"/><path d="m16.45 173.3c-1.1653208 0-2.11-.944679-2.11-2.11s.9446792-2.11 2.11-2.11c1.1678109.032588 2.0958884.991749 2.09 2.16.0162299.540751-.187297 1.06501-.5641432 1.453162-.3768463.388152-.8948626.607082-1.4358568.606838" fill="#ff7241"/><path d="m57 168.59c-.0274116-.547537.1711377-1.082323.5492225-1.479312s.902555-.621374 1.4507775-.620688c1.2056239.021908 2.1667172 1.014293 2.15 2.22-.0773516 1.109473-.9880751 1.976829-2.1 2-1.1434193-.037775-2.0506238-.975957-2.05-2.12" fill="#ff713f"/><path d="m71.12 178.26c-.5724086.035511-1.132519-.176417-1.5380512-.581949-.4055321-.405532-.6174598-.965642-.5819488-1.538051-.0274116-.547537.1711377-1.082323.5492225-1.479312s.902555-.621374 1.4507775-.620688c.5787824-.013958 1.1378744.210517 1.5463078.620841s.6303235.970447.6136922 1.549159c.0002435.540994-.2186864 1.059011-.6068381 1.435857-.3881516.376846-.9124111.580373-1.4531619.564143" fill="#fdc505"/><path d="m75 155c.0217838.544154-.1792735 1.07366-.5567332 1.466218s-.8986775.614218-1.4432668.613782c-1.1631708.01118-2.1181061-.916982-2.14-2.08-.0538829-.775709.3294045-1.516696.9936399-1.920947.6642355-.404251 1.4984847-.404251 2.1627202 0 .6642354.404251 1.0475228 1.145238.9936399 1.920947" fill="#ff7241"/><path d="m132.24 50.43c.37 0 .29-.34.37-.56.185983-.7457517.782868-1.3189513 1.535536-1.4746021.752667-.1556507 1.527945.1337871 1.994464.7446021.610135.7591196.662602 1.8246093.13 2.64-.16.23-.3.47-.46.7-.088876.024758-.179003.0447861-.27.06-1.9.19-2.62-.27-3.3-2.11" fill="#fd5701"/><path d="m134.48 56.61c.000436.5445893-.221224 1.0658071-.613782 1.4432668s-.922064.578517-1.466218.5567332c-1.111642-.072727-1.981554-.9861338-2-2.1.022091-1.1377066.962293-2.0420914 2.1-2.02s2.042091.9622934 2.02 2.1" fill="#48d8f9"/><path d="m114.06 74.49c-1.115123-.0480559-1.995695-.9638501-2-2.08.018821-1.1119585.889946-2.0222835 2-2.09 1.162695.047726 2.085038.9964224 2.1 2.16-.032702 1.1299226-.969827 2.0224226-2.1 2" fill="#48d8f9"/><path d="m167.49 56.53c-.018998-.5424546.183299-1.0693335.560451-1.4596853.377151-.3903519.896762-.6106473 1.439549-.6103147 1.12784.0363262 2.033674.94216 2.07 2.07.028819.5635372-.181757 1.1130268-.579805 1.5129796-.398048.3999529-.946527.6131491-1.510195.5870204-1.127543-.0380232-2.016991-.9719443-2-2.1" fill="#48d8f9"/><path d="m124.94 194.65c1.114101.009349 2.026985.887122 2.08 2 0 1.104569-.895431 2-2 2s-2-.895431-2-2c-.039416-1.101063.819085-2.026635 1.92-2.07" fill="#fdc607"/><path d="m142.41 82c-.054563 1.0898793-.972695 1.9348432-2.063348 1.8989141s-1.951184-.939487-1.933899-2.0305943c.017284-1.0911074.906004-1.9669548 1.997247-1.9683198 1.1183.058373 1.996215.9801843 2 2.1" fill="#47d8f9"/><path d="m100.25 197.35c-.542787.000333-1.0623978-.219963-1.4395493-.610315-.3771516-.390352-.5794484-.91723-.5604507-1.459685-.0228879-.537123.1804662-1.059238.5606142-1.439386s.9022628-.583502 1.4393858-.560614c.542787-.000333 1.062398.219963 1.439549.610315.377152.390352.579449.91723.560451 1.459685.016832.535416-.188472 1.053962-.567255 1.432745s-.897329.584087-1.432745.567255" fill="#ff7241"/><path d="m126.29 44.45c.033905 1.093485-.817074 2.011295-1.91 2.06-.545848.0245883-1.07799-.1752198-1.47276-.5529906-.394771-.3777707-.617794-.9006083-.61724-1.4470094-.033702-1.1009797.829162-2.0219634 1.93-2.06.542455-.0189977 1.069333.1832991 1.459685.5604507.390352.3771515.610648.8967623.610315 1.4395493" fill="#fdc607"/><path d="m118 193c-.542787.000333-1.062398-.219963-1.439549-.610315-.377152-.390352-.579449-.91723-.560451-1.459685-.016832-.535416.188472-1.053962.567255-1.432745s.897329-.584087 1.432745-.567255c.544589-.000436 1.065807.221224 1.443267.613782s.578517.922064.556733 1.466218c.016832.535416-.188472 1.053962-.567255 1.432745s-.897329.584087-1.432745.567255" fill="#ff7241"/><path d="m59 80c.0062586.5251891-.205163 1.0295404-.5840546 1.3932764-.3788917.363736-.8914489.5544044-1.4159454.5267236-.5445893.0004359-1.0658071-.2212238-1.4432668-.6137819s-.578517-.9220645-.5567332-1.4662181c.0324466-1.0810694.9184439-1.9404868 2-1.94.5547815-.0223359 1.0923087.1953394 1.4752266.5974032s.5741292.9495638.5247734 1.5025968" fill="#48d8f9"/><path d="m10.34 131.33c-1.1045695 0-2-.895431-2-2s.8954305-2 2-2 2 .895431 2 2-.8954305 2-2 2" fill="#48d8f9"/><path d="m48 150.75c-.542787.000333-1.0623978-.219963-1.4395493-.610315-.3771516-.390352-.5794484-.91723-.5604507-1.459685-.0008596-1.074067.8467922-1.957038 1.92-2 .5407508-.01623 1.0650103.187297 1.4531619.564143.3881517.376846.6070816.894863.6068381 1.435857 0 1.104569-.8954305 2-2 2" fill="#fdc607"/><path d="m70 39.19c-.814689.0285314-1.5651675-.440248-1.8969047-1.184884-.3317371-.7446359-.1783381-1.616095.3877302-2.2026944.5660684-.5865993 1.4315119-.7709355 2.1874893-.4659268.7559775.3050087 1.2511857 1.0383169 1.2516852 1.8535052.0248229.5254618-.1681718 1.0378984-.5334604 1.4164357-.3652885.3785374-.8705271.5896586-1.3965396.5835643" fill="#48d8f9"/><path d="m115.66 198.68c-.537985.026008-1.061945-.176341-1.442802-.557198s-.583206-.904817-.557198-1.442802c0-1.104569.895431-2 2-2 1.10231.058877 1.962289.976188 1.95 2.08.008361.515227-.19401 1.01153-.560262 1.374006-.366251.362476-.864625.559694-1.379738.545994" fill="#47d8f9"/><path d="m48.81 186.66c.13.52.27 1 .4 1.56-.1563141.636677-.5055855 1.209482-1 1.64h-.16c-.5881632-.663314-1.5702057-.803002-2.32-.33h-.16c-.219324-.447193-.3902923-.916518-.51-1.4-.1149981-.788582.2879211-1.562187 1-1.92.6841383-.430433 1.5601101-.406758 2.22.06.2144431.131783.4214265.275336.62.43" fill="#fcc504"/><path d="m87.29 30.94c.5280276-.0279632 1.0438241.1653785 1.423369.5335371.379545.3681586.5885029.8778286.576631 1.4064629.0004868 1.0815561-.8589306 1.9675534-1.94 2-1.0871051-.0410662-1.9589338-.9128949-2-2-.0080735-.51348.1909667-1.0085789.5522104-1.3735856.3612438-.3650066.8542535-.5691666 1.3677896-.5664144" fill="#47d8f9"/><path d="m157.6 175.61c-.106845 2.093474-1.508191 3.898057-3.51 4.52-.056742-.009352-.1111-.029736-.16-.06-.145484-.38335-.2592-.778013-.34-1.18-.169356-.953001.131501-1.929165.807952-2.621486.67645-.69232 1.645376-1.015729 2.602048-.868514.188413.022679.375382.056066.56.1l.09.11" fill="#465f3d"/><path d="m118 175.7c-1.081069-.032447-1.940487-.918444-1.94-2-.016138-.519671.176992-1.024072.536074-1.400074.359082-.376003.854063-.592137 1.373926-.599926 1.065859.026329 1.923671.884141 1.95 1.95.00086 1.074067-.846792 1.957038-1.92 2" fill="#ff7241"/><path d="m88.3 25.88c.0026332-.503008.2056729-.9842156.5641624-1.3370743.3584895-.3528588.8428509-.5482555 1.3458376-.5429257 1.0692723.0481655 1.9110843.929644 1.91 2 0 1.0548639-.8551361 1.91-1.91 1.91s-1.91-.8551361-1.91-1.91" fill="#fdc607"/><path d="m68 73.73c-.0018667.5191746-.2172204 1.0147206-.5955079 1.3703108-.3782874.3555902-.8861944.5399093-1.4044921.5096892-1.0495509-.073646-1.8625807-.9478716-1.86-2 .0045974-.5174319.2211429-1.0103506.5991147-1.3637543.3779719-.3534037.8843114-.5363824 1.4008853-.5062457 1.062265.0433364 1.8894434.9375833 1.85 2" fill="#fdc607"/><path d="m45.53 189.49h.16c.590239.659443 1.5692917.798705 2.32.33h.16c.3568461.454178.5347439 1.023451.5 1.6-.0271333 1.084995-.9146657 1.950339-2 1.95-1.0594898.002537-1.9532694-.788114-2.08-1.84-.0966994-.802611.2426717-1.595747.89-2.08" fill="#46d7f7"/><path d="m123.79 20c.018868.5170157-.170628 1.0199605-.52597 1.3959836-.355342.3760232-.846774.5936381-1.36403.6040164-1.027818-.0502258-1.849774-.8721816-1.9-1.9-.027151-.5090679.151409-1.0076922.495547-1.3837992.344138-.3761069.824981-.5981425 1.334453-.6162008 1.074067-.0008596 1.957038.8467922 2 1.92" fill="#fdc607"/><path d="m132.92 71.06h-.18c-.18801-1.0625762-.821184-1.9941436-1.74-2.56.106519-.5932514.474905-1.1068261 1.002706-1.3978927.527801-.2910667 1.158721-.3285801 1.717294-.1021073.572897.2182599 1.024674.6717433 1.240774 1.2454585.216099.5737152.175765 1.2125606-.110774 1.7545415-.343573.7411801-1.116581 1.1857596-1.93 1.11" fill="#fdc505"/><path d="m158.19 87c1.059355-.0019085 1.93644.8225522 2 1.88.021614.5143638-.164243 1.0158601-.515848 1.3919075-.351604.3760474-.839497.5951397-1.354152.6080925-1.059355.0019085-1.93644-.8225522-2-1.88-.02724-.5158331.156717-1.0205232.509506-1.3978373.352788-.3773141.843996-.5947254 1.360494-.6021627" fill="#ff713f"/><path d="m65 201.65c-.013557-.49569.1746255-.975662.5214721-1.330049.3468467-.354386.8226608-.552846 1.3185279-.549951.521383-.016158 1.0273058.17833 1.4036055.539578.3762996.361247.5912672.858814.5963945 1.380422.0516018.709878-.2978751 1.389061-.9054819 1.759741-.6076068.370679-1.3714294.370679-1.9790362 0-.6076068-.37068-.9570837-1.049863-.9054819-1.759741" fill="#ff7241"/><path d="m135.09 193.69c.137337.246273.260861.499999.37.76.193014.4724.18346 1.003353-.026425 1.468503s-.601663.823637-1.083575.991497c-1.012921.322154-2.096469-.230768-2.43-1.24-.158181-.485297-.112237-1.014053.127278-1.464794.239515-.45074.65201-.784718 1.142722-.925206.365937-.078479.736796-.131936 1.11-.16l.24.2.55.38" fill="#48d8f9"/><path d="m68.09 54c-.0165073-.4982549.1720927-.9814699.5217589-1.3368064.3496662-.3553364.8297851-.5516845 1.3282411-.5431936 1.0653337.0533326 1.9013341.933333 1.9 2-.0964784.9857638-.9412222 1.7275933-1.9311893 1.6959144-.989967-.031679-1.7855541-.8259991-1.8188107-1.8159144" fill="#48d8f9"/><path d="m120 28.52c-.494097.0161432-.974101-.1661399-1.332934-.5061857s-.566641-.8095639-.577066-1.3038143c-.021649-.5177629.166916-1.022291.522846-1.3989358.355929-.3766449.848995-.5934195 1.367154-.6010642 1.015815.0703526 1.816612.8926765 1.86 1.91.028047.5014972-.154723.9919034-.504147 1.3527211-.349423.3608176-.833714.5592243-1.335853.5472789" fill="#48d8f9"/><path d="m93.67 221.23s0-.07 0-.11c.4899067-.572041.7315831-1.315768.6715227-2.066522-.0600603-.750754-.4169025-1.446599-.9915227-1.933478-.0053729-.046512-.0053729-.093488 0-.14.4213869-.124959.8531074-.211973 1.29-.26.6269705.00743 1.2239853.269408 1.6539542.725779.4299688.45637.6559477 1.06792.6260458 1.694221-.0126732.612047-.2730961 1.19277-.7216962 1.609327s-1.0469963.633309-1.6583038.600673c-.2832481-.018819-.564314-.062317-.84-.13" fill="#fe703e"/><path d="m21 51.23c1.0410568 0 1.885.8439432 1.885 1.885s-.8439432 1.885-1.885 1.885c-1.0254307-.0202829-1.8579065-.8352329-1.9-1.86-.0138076-.5089256.1815987-1.0012663.5406497-1.3622071.3590511-.3609408.8503592-.5589288 1.3593503-.5477929" fill="#fdc607"/><path d="m167.8 164.46c.49577-.008196.973645.185134 1.324255.535745.350611.35061.543941.828485.535745 1.324255.010727.480075-.169756.944737-.50172 1.291706-.331964.346968-.7882.547802-1.26828.558294-.510798.008269-1.002966-.19169-1.363258-.553868s-.557678-.855384-.546742-1.366132c.010988-.995726.824229-1.795562 1.82-1.79" fill="#fcc504"/><path d="m78.45 207c-.680668.542964-1.5636531.76342-2.4196567.604119s-1.600569-.682642-2.0403433-1.434119c-.14-.25-.25-.51-.38-.76l.06-.19c.7648157-.578529 1.7543235-.770523 2.68-.52 1.1025978.268265 1.9328703 1.177612 2.1 2.3" fill="#178e05"/><path d="m75.93 188.81c-1.1933515-1.503915-1.6485285-3.464113-1.24-5.34 0-.21.08-.43.11-.65h.15c.4392929.308274.8600233.642187 1.26 1 1.33 1.34 1.2 4.05-.28 5.06" fill="#465f3d"/><path d="m159.73 55 .36-1c.24-.16.46-.34.7-.48.420987-.2289995.916221-.2796219 1.374834-.1405344.458613.1390876.8423.4562679 1.065166.8805344.467726.8788695.142478 1.9704565-.73 2.45-.424155.2246044-.921337.2673314-1.377594.118388-.456256-.1489433-.832467-.4767862-1.042406-.908388-.131238-.283923-.248054-.5742928-.35-.87" fill="#ff7241"/><path d="m157.82 44.12c-.998954-.0379841-1.782573-.8705789-1.76-1.87.004819-.47932.204932-.9359382.554102-1.264346.349169-.3284078.817182-.5001901 1.295898-.475654.997659.0538656 1.76537.9019182 1.72 1.9-.048172.9626802-.846138 1.7165594-1.81 1.71" fill="#ff7241"/><path d="m30.37 181.15c-.5642646-.244494-.9846817-.734981-1.14-1.33-.2077984-.873458.2561109-1.767228 1.09-2.1.8085482-.301825 1.7169012.023492 2.15.77.4648908.762281.3081644 1.749234-.37 2.33-.2107472.142098-.4312997.269083-.66.38h-1.07" fill="#fdc607"/><path d="m72.65 29.86c.1033519.3949132.153793.8018044.15 1.21-.1197107.7702524-.676032 1.400772-1.4253771 1.615484-.7493451.2147121-1.5551625-.0255099-2.0646229-.615484-.5258207-.5972551-.6475565-1.4494053-.31-2.17.1433975-.2393288.3145855-.4608662.51-.66h.15c.2510879.5037723.7168002.8667428 1.2666378.9872019.5498375.1204591 1.1246483-.0145522 1.5633622-.3672019h.15" fill="#fdc607"/><path d="m30.37 181.15h1.07c.2182151.125921.4255946.269749.62.43.3626007.335045.5687923.806305.5687923 1.3s-.2061916.964955-.5687923 1.3c-.3462599.330982-.8173388.498419-1.2948177.460221-.4774788-.038198-.9159467-.278399-1.2051823-.660221-.6259293-.77071-.509598-1.902704.26-2.53.1791808-.128237.3662132-.245132.56-.35" fill="#48d8f9"/><path d="m28.85 170.4c.0261115.467232-.1474022.923576-.4773457 1.255426-.3299435.331851-.7852795.507992-1.2526543.484574-.9673833-.027167-1.7358183-.822253-1.73-1.79.0089316-.618069.3469209-1.184424.8866506-1.485724s1.199202-.29177 1.7300001.025c.530798.31677.852281.892655.8433493 1.510724" fill="#48d8f9"/><path d="m109 207.47c-.793733.330001-1.686267.330001-2.48 0-.997651-.44858-1.695891-1.37705-1.85-2.46l.08-.12c.617682-.251043 1.294219-.320431 1.95-.2 1.036398.237271 1.876248.993892 2.22 2 .07.21.13.42.2.63z" fill="#178e05"/><path d="m98.69 21.46-.17-.07c-.57-1.43-.42-2.14.65-3l.59.45c.685857.5930051 1.574578.8976069 2.48.85l.15.05c.076979.8892751-.2989 1.7575553-1 2.31h-.23c-.692543-.5342574-1.5811266-.7454781-2.44-.58" fill="#fe703e"/><path d="m13.77 67.78c.2742785.0647791.544704.1449051.81.24.8301056.3645471 1.33652 1.2166094 1.26 2.12-.0435253.9067216-.6922527 1.6704133-1.58 1.86l-.55.14-.25-.14c-.7001658-1.2948048-.6582591-2.8644007.11-4.12z" fill="#465f3d"/><path d="m163.45 76.77c.152741-.8991824.938028-1.5528806 1.85-1.54 1.020562.0215976 1.871391.7873435 2 1.8-.01945.531021-.083003 1.0595068-.19 1.58l-.19.06c-1.370556-.1141169-2.628221-.8047424-3.46-1.9" fill="#fd5701"/><path d="m72.65 29.86h-.15c-.1956351-.2765867-.416588-.534365-.66-.77-.3055514-.272538-.7081309-.4102825-1.1165932-.3820478-.4084622.0282347-.7882603.2200607-1.0534068.5320478h-.15c-.2222699-.7268242-.1688666-1.5100715.15-2.2l.19-.07c.7409165.1286334 1.496015-.1318756 2-.69l.18-.05c.0419468.0451986.0889178.0854594.14.12 1.48.95 1.65 2.17.49 3.51" fill="#ff713f"/><path d="m54.76 30.24c-.0706415.5387101-.3782696 1.0176882-.8387882 1.305996-.4605186.2883079-1.0257628.3557919-1.5412118.184004-.4873221-.1435629-.8973714-.4753555-1.1394578-.9219955-.2420864-.4466401-.2962611-.9713227-.1505422-1.4580045.0662048-.2071257.142972-.4107256.23-.61.0403533-.0471642.0980566-.0760159.16-.08 1.3.09 2.54.32 3.28 1.58" fill="#fd5701"/><path d="m166.22 148.21c.429674-.519111 1.057062-.834619 1.73-.87.625115.025198 1.207543.323944 1.592704.81695s.534103 1.130413.407296 1.74305c-.069887.24446-.15335.484833-.25.72l-.19.09c-1.427268-.124627-2.685958-.985237-3.32-2.27z" fill="#465f3d"/><path d="m133.92 191.4c.05-.08.13-.14.17-.22.56-1.12 1.35-1.51 2.34-1.14.992278.35888 1.535045 1.426906 1.24 2.44l-.12.46-.24.15c-1.229112-.049172-2.401373-.530826-3.31-1.36 0-.11-.06-.22-.08-.33" fill="#fd5701"/><path d="m52.62 172.9c.55 2-.42 3.56-2.63 4.23l-.15-.07c0-.41 0-.82 0-1.23.0876389-1.542701 1.2912706-2.788864 2.83-2.93" fill="#178e05"/><path d="m129.13 75.75c-.144149-.443451-.22823-.9042171-.25-1.37.062189-.7400983.529377-1.3847874 1.213328-1.6743124.68395-.2895251 1.472015-.1762009 2.046672.2943124.15.11.29.24.43.36v.23c-.652451 1.2520567-1.886562 2.0960537-3.29 2.25l-.18-.08" fill="#465f3d"/><path d="m56.76 150.94c.8549556.412647 1.3020266 1.369462 1.07 2.29-.1668943.860224-.8620942 1.519258-1.73 1.64-.1898713.009888-.3801287.009888-.57 0l-.16-.15c-.0248298-.406288-.0248298-.813712 0-1.22.0207249-1.046706.5459301-2.018894 1.41-2.61" fill="#465f3d"/><path d="m56.76 150.94c-.8640699.591106-1.3892751 1.563294-1.41 2.61-.0248298.406288-.0248298.813712 0 1.22-.7252491-.164342-1.3077315-.703116-1.5280316-1.413372-.2203-.710255-.044949-1.484087.46-2.03.5049491-.545913 1.2627825-.78097 1.9880316-.616628l.46.11c.0049165.039849.0049165.080151 0 .12" fill="#ff7241"/><path d="m19.39 68.16c-1.1329687.5437925-2.4657042.4682834-3.53-.2-.3979706-.3084555-.7754357-.6424954-1.13-1v-.14c1.6356184-.8320381 3.6344088-.3280696 4.68 1.18.0047886.043201.0047886.086799 0 .13" fill="#178e05"/><path d="m181.47 70.08c.000167.3518251-.142274.6886946-.394793.9336751-.252518.2449805-.593548.3771503-.945207.3663249-.697697-.0370379-1.245689-.6113338-1.25-1.31-.019657-.3540569.109606-.7002082.35652-.9547197s.58899-.394202.94348-.3852803c.353694-.0032935.692984.1399182.937347.3956466.244362.2557283.372012.6011745.352653.9543534" fill="#fdc607"/><path d="m129.31 75.83c1.403438-.1539463 2.637549-.9979433 3.29-2.25.304505.4459724.415726.9961287.308372 1.5253638-.107353.5292351-.424158.9925676-.878372 1.2846362-.430432.3013904-.966019.4121403-1.480684.3061797-.514666-.1059605-.962945-.419271-1.239316-.8661797" fill="#46d7f7"/><path d="m187 112.49c.00546.338469-.126589.664681-.365954.904046s-.565577.371414-.904046.365954c-.336066.000554-.657476-.137546-.888394-.381713s-.350889-.572774-.331606-.908287c-.00847-.319881.115575-.629052.342789-.854373.227214-.22532.537412-.346773.857211-.335627.336054-.028411.668381.087106.91436.317831.24598.230724.382507.554986.37564.892169" fill="#fdc607"/><path d="m166.2 148.44c.634042 1.284763 1.892732 2.145373 3.32 2.27-.63567.830438-1.803796 1.030937-2.68.46-.922336-.583047-1.207109-1.797779-.64-2.73" fill="#46d7f7"/><path d="m13.57 67.87c-.7720875 1.2580878-.8140236 2.8325969-.11 4.13-1.045243-.1096922-1.8272695-1.009678-1.79-2.06-.0340463-1.0897707.8110348-2.0060166 1.9-2.06" fill="#ff7241"/><path d="m163.45 76.77c.831779 1.0952576 2.089444 1.7858831 3.46 1.9-.588362.7992416-1.673828 1.0461319-2.55.58-.909162-.4642914-1.355542-1.5128626-1.06-2.49h.15" fill="#fdc607"/><path d="m49.43 35.59c1.4040734-.7149189 3.0946485-.5552102 4.34.41v.13c-1.4039412.6715097-3.0632238.5178724-4.32-.4v-.14" fill="#178e05"/><path d="m134 191.73c.908627.829174 2.080888 1.310828 3.31 1.36-.523199.672987-1.42902.917803-2.22.6l-.55-.38-.24-.2-.3-1.39" fill="#fdc607"/><path d="m54.76 30.24c-.74-1.26-2-1.49-3.28-1.58.4217392-.6718366 1.2638673-.9455282 2-.65.7242563.1897912 1.2569049.8059146 1.34 1.55 0 .22 0 .43.07.65-.0359459.0102815-.0740541.0102815-.11 0" fill="#ff7241"/><path d="m102.24 19.68c-.905422.0476069-1.794143-.2569949-2.48-.85l-.59-.45c-.0048817-.0498808-.0048817-.1001192 0-.15 1.033727-.4863717 2.267858-.1208624 2.87.85.086849.1909428.147401.3927822.18.6" fill="#fd5701"/><path d="m131 68.5c.90494.5524333 1.536274 1.4595218 1.74 2.5-.814491-.0123839-1.510002-.5912824-1.67-1.39-.093041-.3642968-.15658-.7354977-.19-1.11.01139-.012915.02778-.0203137.045-.0203137s.03361.0073987.045.0203137" fill="#fd5701"/><path d="m98.69 21.46c.8588734-.1654781 1.747457.0457426 2.44.58-.838003.4873432-1.9109291.2323034-2.44-.58" fill="#465f3d"/><path d="m99.8 70.81c-.1675885 1.5539252-1.3264841 2.8181749-2.86 3.12.1644848-1.5553268 1.3248184-2.8211453 2.86-3.12" fill="#178e05"/><path d="m156.92 57.07c-1.589161.3699624-3.228927-.3720317-4-1.81 1.589161-.3699624 3.228927.3720317 4 1.81" fill="#178e05"/><g fill="#465f3d" transform="translate(69 26)"><path d="m18.34 180.68c-1.0955753-.075919-1.9455182-.986797-1.9455182-2.085s.8499429-2.009081 1.9455182-2.085c1.125191.043248 2.011658.974038 2 2.1.0469267.549703-.1461325 1.092846-.5294788 1.48961-.3833464.396763-.9195294.608386-1.4705212.58039"/><path d="m81.78 30.52c2.38.43 3.9 4.13 1.81 6.32-1.2795328-.3753026-2.2776708-1.3798326-2.6447979-2.6617351s-.0520772-2.6625195.8347979-3.6582649"/><path d="m2.84.28c-.50398502.55812445-1.25908351.81863342-2 .69.41737911-.67681356 1.25408108-.96547574 2-.69"/><path d="m24.31 191.13c.5746202.486879.9314624 1.182724.9915227 1.933478.0600604.750754-.181616 1.494481-.6715227 2.066522-.7838068-.322019-1.3202201-1.057097-1.3877945-1.901776-.0675743-.84468.3451519-1.655689 1.0677945-2.098224"/></g><path d="m48 189.84c-.7507083.468705-1.729761.329443-2.32-.33.7497943-.473002 1.7318368-.333314 2.32.33" fill="#178e05"/><path d="m134.3 193.11.24.2z" fill="#fff"/><path d="m69.67 29.24c.2651465-.3119871.6449446-.5038131 1.0534068-.5320478.4084623-.0282347.8110418.1095098 1.1165932.3820478.243412.235635.4643649.4934133.66.77-.4387139.3526497-1.0135247.487661-1.5633622.3672019-.5498376-.1204591-1.0155499-.4834296-1.2666378-.9872019" fill="#fd5701"/><g fill="#fff" transform="translate(229 78)"><path d="m.06 41.69h12.17v-31.37h-12.17v-8.39h33.84v8.39h-12.24v31.37h12.24v8.4h-33.84z"/><path d="m42.64 2.41c1.92-.36 4.04-.64666667 6.36-.86 2.32-.21 4.62-.31 6.92-.31 2.4052965.00347213 4.8064016.20077743 7.18.59 2.2984369.34903153 4.506496 1.14393282 6.5 2.34 1.9636289 1.19768402 3.5884173 2.87755003 4.72 4.88 1.3115703 2.509803 1.9392734 5.3206712 1.82 8.15.0707624 2.6023576-.470424 5.1849813-1.58 7.54-.9996238 2.0076243-2.4344598 3.7670066-4.2 5.15-1.7660085 1.3827198-3.7881817 2.402303-5.95 3-2.2502929.622943-4.5750819.9358307-6.91.93h-1.1-1.59c-.55 0-1.09-.06-1.61-.11s-.91-.09-1.14-.13v16.57h-9.42zm14 7c-.92 0-1.79 0-2.61.1s-1.49.15-2 .24v15.62c.2737307.0626573.5508617.1094022.83.14.36 0 .75.08 1.17.1h1.2.86c1.2346133.0022902 2.4667056-.1115444 3.68-.34 1.1627496-.2047526 2.2738518-.6362816 3.27-1.27.9812927-.6415191 1.7749288-1.5317718 2.3-2.58.6304942-1.3567883.9254537-2.8453049.86-4.34.0507706-1.2962571-.2315455-2.5838939-.82-3.74-.5200421-.9572733-1.2646982-1.7739929-2.17-2.38-.9291473-.6093663-1.9687563-1.03064573-3.06-1.24-1.1559095-.22891086-2.3316456-.34279982-3.51-.34z" fill-rule="nonzero"/><path d="m84.67 1.93h30.54v8.39h-21.11v11.9h19.6v8.4h-19.6v19.47h-9.43z"/><path d="m124.64 34.33h7.56v6.81l.42.14c1.119028.4837077 2.280723.8620121 3.47 1.13 1.311297.3050424 2.653704.4560632 4 .45 2.113672.1316989 4.214583-.4110366 6-1.55 1.372456-.9331417 2.17522-2.5009808 2.13-4.16.045194-1.4654257-.603378-2.8663408-1.75-3.78-1.31456-1.0518256-2.772617-1.9104966-4.33-2.55-1.72-.73-3.61-1.46-5.65-2.2-1.982177-.7030829-3.875096-1.6361175-5.64-2.78-1.70662-1.1166988-3.177706-2.5572088-4.33-4.24-1.246343-1.9684882-1.857281-4.2725962-1.75-6.6-.02232-1.9552975.387436-3.8913975 1.2-5.67.791807-1.70462084 1.941156-3.21889582 3.37-4.44 1.532607-1.28695372 3.297828-2.26800924 5.2-2.89 2.176299-.70209257 4.453603-1.03997154 6.74-1 2.77045-.00254926 5.535318.24849806 8.26.75 2.243703.35112225 4.421563 1.03886752 6.46 2.04v14h-7.57v-7.67c-.139294-.0037829-.277342-.0273521-.41-.07-1.075118-.28819979-2.167265-.50863317-3.27-.66-1.153213-.1588449-2.315899-.23903013-3.48-.24-1.822822-.09980675-3.632898.35707176-5.19 1.31-1.206065.7668468-1.920095 2.1113506-1.88 3.54-.034032 1.4433704.614514 2.818289 1.75 3.71 1.324437 1.0614178 2.783835 1.9424369 4.34 2.62 1.72.78 3.6 1.56 5.64 2.34 1.975696.7474216 3.866323 1.7027916 5.64 2.85 1.703899 1.1159721 3.174527 2.5526362 4.33 4.23 1.231671 1.9012161 1.846328 4.136334 1.76 6.4.050449 2.2443814-.422007 4.4697187-1.38 6.5-.900845 1.8388686-2.219292 3.441553-3.85 4.68-1.749883 1.308483-3.73638 2.2660767-5.85 2.82-2.377119.6364317-4.829234.949253-7.29.93-1.626172.0101886-3.249787-.1304131-4.85-.42-1.398573-.235293-2.778701-.5694644-4.13-1-1.135677-.3644424-2.24779-.7986004-3.33-1.3-.973333-.46-1.753333-.85-2.34-1.17z"/><path d="m218.81 33.92h7.57v13.76c-1.703915 1.1582153-3.605144 1.9952985-5.61 2.47-2.284258.6031758-4.637454.9057296-7 .9-2.929438.0126512-5.842327-.4396397-8.63-1.34-2.697684-.8763451-5.157733-2.3612704-7.19-4.34-2.21639-2.1919216-3.923403-4.8446208-5-7.77-1.306757-3.7232337-1.91363-7.6560428-1.79-11.6-.123317-4.0589497.591565-8.0997344 2.1-11.87 1.217753-2.9293027 3.060713-5.55722771 5.4-7.7 2.125174-1.90963724 4.634833-3.34177936 7.36-4.2 2.581449-.81566922 5.272752-1.23049408 7.98-1.23 2.352255-.04371729 4.701551.18785615 7 .69 1.621923.35693876 3.200935.88662846 4.71 1.58v14.31h-7.56v-7.88c-1.458557-.23095849-2.933278-.34465576-4.41-.34-1.718193-.01928449-3.421393.32135542-5 1-1.558004.6868846-2.929392 1.7359967-4 3.06-1.231283 1.5334594-2.142579 3.2982459-2.68 5.19-.701916 2.4026945-1.039009 4.8971806-1 7.4-.02426 2.2880314.278808 4.5677746.9 6.77.531638 1.9048665 1.41705 3.6926528 2.61 5.27 1.121266 1.4399057 2.558185 2.6031256 4.2 3.4 1.763106.8282191 3.692319 1.2421106 5.64 1.21 1.476831.0033361 2.950469-.1373293 4.4-.42z"/><path d="m235.74 18c2.049908-.9042758 4.178949-1.6173037 6.36-2.13 2.806675-.6436435 5.680834-.9458331 8.56-.9 2.063234-.0459783 4.120178.2444932 6.09.86 1.526988.4813967 2.91828 1.3175423 4.06 2.44 1.037069 1.0675057 1.804928 2.3666966 2.24 3.79.476651 1.6230229.705894 3.3086309.68 5 0 2.34-.08 4.34-.24 6s-.24 3.13-.24 4.41c0 1 0 2 .14 3.23.093333.6666667.163333 1.2866667.21 1.86h4.47v7.56h-11.55l-.9-4.67h-.34c-1.005786 1.5051308-2.339069 2.7632023-3.9 3.68-2.097373 1.1262241-4.46234 1.6586875-6.84 1.54-2.96559.1610972-5.879712-.8234037-8.14-2.75-2.018717-1.8738336-3.115103-4.5380511-3-7.29-.045023-1.7257727.314571-3.4381222 1.05-5 .712715-1.3931699 1.773764-2.5782376 3.08-3.44 1.487714-.95126 3.133659-1.6286035 4.86-2 2.075044-.4566055 4.195456-.6746858 6.32-.65.82 0 1.68 0 2.59.13s2 .19 3.35.28c.09606-.4536422.142997-.9163086.14-1.38v-1.3c.138834-1.4194471-.420536-2.817872-1.5-3.75-1.318337-.8488645-2.875789-1.2487507-4.44-1.14-2.127416-.0286725-4.246265.2749843-6.28.9-1.608784.4947029-3.185173 1.0891885-4.72 1.78zm11.7 25.24c1.718565.1214467 3.432032-.2981779 4.9-1.2.974545-.6732072 1.787443-1.5544158 2.38-2.58v-4.13c-.45-.09-1.13-.19-2-.31-.969037-.1152475-1.944136-.172017-2.92-.17-.868884.0000274-1.735906.0803691-2.59.24-.802927.1393894-1.581158.3954309-2.31.76-.64165.3114895-1.200272.7707245-1.63 1.34-.420969.5803525-.638881 1.2832943-.62 2-.06685 1.1151558.344058 2.2060626 1.13 3 1.055132.8080756 2.377043 1.1867852 3.7 1.06z" fill-rule="nonzero"/><path d="m287.4 50.08v-21.08c.024493-1.1167724-.069364-2.2329983-.28-3.33-.124799-.7026856-.368275-1.3790077-.72-2-.241497-.4493365-.629749-.802293-1.1-1-.429197-.1577395-.882736-.2389704-1.34-.24-.788279.0017378-1.55289.2695279-2.17.76-.644849.476011-1.115615 1.1505403-1.34 1.92v24.9h-8.26v-34.32h6.54l1 3.78h.21c1.488811-2.8598518 4.476858-4.6216356 7.7-4.54 1.515489.0011919 3.0069.3791992 4.34 1.1 1.439389.8298838 2.462969 2.2273241 2.82 3.85.630603-1.5343132 1.73865-2.8246972 3.16-3.68 1.392245-.83547 2.986321-1.2746189 4.61-1.27 1.134775-.0174523 2.264241.1583927 3.34.52 1.008903.3619173 1.900619.9909573 2.58 1.82.813195 1.042293 1.386788 2.2509353 1.68 3.54.434669 1.8847314.632861 3.8162699.59 5.75v23.52h-8.26v-22c0-2.06-.33-3.51-1-4.33-.57647-.8031344-1.51161-1.2707044-2.5-1.25-.751608-.0205029-1.492553.1812567-2.13.58-.639304.4531863-1.082544 1.1323442-1.24 1.9v25.1z"/><path d="m312.09 15.69h11.7l1 4.13h.27c2.386667-3.4 6.24-5.0966667 11.56-5.09 1.98428-.0184891 3.955694.3202419 5.82 1 1.744972.6593345 3.303178 1.7336043 4.54 3.13 1.336644 1.567143 2.331215 3.3961998 2.92 5.37.729067 2.5235494 1.06633 5.144083 1 7.77.042065 2.7121893-.352994 5.4134498-1.17 8-.699411 2.2101909-1.846579 4.252628-3.37 6-1.474981 1.6523165-3.308417 2.9452996-5.36 3.78-2.300594.9071994-4.757359 1.3523393-7.23 1.31-1.402325-.0018914-2.802666-.1054966-4.19-.31-1.191797-.1519123-2.352495-.4893244-3.44-1v14.1h-9v-40.62h-5.16zm21.88 6.6c-1.683917-.0145257-3.338769.4390006-4.78 1.31-1.459049.8810423-2.530779 2.281436-3 3.92v14.31c.843905.5833803 1.801441.9820697 2.81 1.17 1.203927.2984197 2.43964.4495259 3.68.45 1.223568.0101297 2.438089-.2103838 3.58-.65 1.119391-.4552543 2.111239-1.1759737 2.89-2.1.883326-1.0737772 1.539874-2.3154349 1.93-3.65.486216-1.720168.715362-3.5027861.68-5.29 0-3.0333333-.733333-5.3666667-2.2-7-1.391752-1.6188679-3.435682-2.5289123-5.57-2.48z" fill-rule="nonzero"/></g><path d="m69.74 82.92c-.5622188-.0025751-1.0999268-.2304845-1.492753-.6327085s-.6079619-.9451689-.597247-1.5072915c-.0234528-.5638035.1923593-1.1112789.5942199-1.5074259.4018607-.396147.9523702-.6040977 1.5157801-.5725741 1.1685814.0327158 2.0924117 1.0011755 2.07 2.17-.0482302 1.1189838-.9699777 2.0010389-2.09 2" fill="#ff713f"/><path d="m154.8 80.78c.008214.3375338-.121564.6638223-.359362.9035072-.237797.2396849-.56305.3720384-.900638.3664928-.336066.0005537-.657476-.1375455-.888394-.3817125s-.350889-.572775-.331606-.9082875c-.008335-.3207425.115414-.6308341.34229-.8577098s.536968-.3506254.85771-.3422902c.335386-.0224692.66482.0967595.908139.3286733.24332.2319139.378215.5552493.371861.8913267" fill="#48d8f9"/><path d="m127.54 152.15c.005462.335817-.125534.659486-.363024.896976s-.561159.368486-.896976.363024c-.336883.000401-.659187-.137391-.891662-.381206-.232474-.243816-.354772-.572312-.338338-.908794-.00847-.319881.115575-.629052.342789-.854373.227214-.22532.537412-.346773.857211-.335627.337052-.025415.669193.092497.914772.32475.245578.232252.381818.557305.375228.89525" fill="#48d8f9"/><path d="m167.78 135.76c.005462.335817-.125534.659486-.363024.896976s-.561159.368486-.896976.363024c-.336066.000554-.657476-.137546-.888394-.381713s-.350889-.572774-.331606-.908287c-.00847-.319881.115575-.629052.342789-.854373.227214-.22532.537412-.346773.857211-.335627.336174-.025632.667443.09254.911496.325152.244052.232612.377979.557831.368504.894848" fill="#48d8f9"/><path d="m55.48 132.07c0 2.209139-1.790861 4-4 4-2.2270618-.085701-3.9909334-1.911308-4-4.14 0-2.209139 1.790861-4 4-4 1.0865715.018289 2.1207038.470358 2.8720436 1.255509.7513397.78515 1.1574813 1.838167 1.1279564 2.924491" fill="#ff703e"/><path d="m83.52 138c.0168786 1.126307-.8740409 2.057318-2 2.09-1.1669926-.02622-2.1083141-.963143-2.14-2.13-.0540067-.779364.3311597-1.523782.99854-1.929896s1.5055397-.406114 2.17292 0 1.0525467 1.150532.99854 1.929896" fill="#fdc607"/><path d="m60.44 142c.0092488.526102-.2012409 1.032244-.5808229 1.396643-.3795819.364399-.8938905.554063-1.4191771.523357-.5445893.000436-1.0658071-.221224-1.4432668-.613782s-.578517-.922064-.5567332-1.466218c.0182437-.530544.2466644-1.032069.6349376-1.394082.3882733-.362014.9045412-.554812 1.4350624-.535918.5538388-.02533 1.0915911.189984 1.4749042.590546s.5747638.947266.5250958 1.499454" fill="#48d8f9"/><path d="m69.44 135.74c-.0017001.518373-.2173622 1.013041-.5960089 1.367076-.3786466.354035-.8866722.536015-1.4039911.502924-1.0535006-.06862-1.8722324-.944269-1.87-2 .0074373-.516498.2248486-1.007706.6021627-1.360494.3773141-.352789.8820042-.536746 1.3978373-.509506.511135.018189.9938875.239563 1.3411893.615025.3473019.375461.530445.873974.5088107 1.384975" fill="#fdc607"/><path d="m71.2 144.92c-.5639549.000102-1.1042506-.226629-1.4992472-.62915-.3949967-.40252-.6114948-.946997-.6007528-1.51085-.0236957-.565646.1934489-1.114835.5975661-1.511327.4041171-.396492.9573419-.603138 1.5224339-.568673 1.1686201.038089 2.0880675 1.011096 2.06 2.18-.0430082 1.117395-.9617781 2.000827-2.08 2" fill="#ff713f"/><path d="m150.51 146.86c.324357-2.174707 2.343185-3.679895 4.52-3.37 2.193064.39712 3.683541 2.452038 3.38 4.66-.304781 2.186447-2.323252 3.712608-4.51 3.41-1.07747-.164176-2.043685-.754669-2.681266-1.63863-.63758-.883961-.892978-1.987149-.708734-3.06137" fill="#ff703e"/><path d="m123.58 137.08c.145445-1.131126 1.178379-1.931537 2.31-1.79 1.152129.189695 1.952809 1.249937 1.82 2.41-.081843.763358-.575618 1.420394-1.286092 1.711324-.710474.290929-1.523261.168913-2.116993-.317806-.593733-.486718-.872821-1.259777-.726915-2.013518" fill="#fdc607"/><path d="m147 136.32c.066343-.526831.351243-1.001454.784993-1.307743.433751-.306288.976338-.415988 1.495007-.302257.537725.078026 1.020559.371477 1.337448.812858s.440554.992697.342552 1.527142c-.092616.522584-.389144.986928-.824285 1.290777-.435141.303848-.97321.422283-1.495715.329223-.541982-.06802-1.029759-.362517-1.342364-.810457-.312605-.447939-.420757-1.007366-.297636-1.539543" fill="#48d8f9"/><path d="m137.21 141.25c.075606-.506489.353504-.960619.77009-1.25845.416587-.297831.936199-.413867 1.43991-.32155 1.036742.220894 1.721073 1.212296 1.56 2.26-.080455.505455-.361431.957074-.779309 1.252601-.417878.295526-.937312.409963-1.440691.317399-.504164-.092341-.95089-.381432-1.241663-.803521-.290772-.422089-.401706-.942505-.308337-1.446479" fill="#fdc607"/><path d="m136.77 131.91c.554829.083777 1.053437.3851 1.385587.837349.33215.45225.470482 1.018173.384413 1.572651-.053825.564642-.344868 1.079875-.80068 1.417443-.455813.337568-1.033522.465721-1.58932.352557-1.15135-.203444-1.923488-1.296936-1.73-2.45.17956-1.121592 1.225698-1.891728 2.35-1.73" fill="#ff713f"/><path d="m98.05 142.2c-1.5926924.011319-3.0261575-.964234-3.6-2.45-.5818656-1.518469-.1865562-3.238065 1-4.35 1.1880673-1.077322 2.9391279-1.25567 4.32-.44.0372831.370693.1007753.738279.19 1.1.163579.802191.861462 1.38376 1.68 1.4h.17c.082858.779818-.034149 1.567894-.34 2.29-.15-.12-.29-.25-.44-.36-.574657-.470513-1.3627217-.583837-2.0466721-.294312-.6839505.289525-1.1511388.934214-1.2133279 1.674312.0208783.469151.1049704.93334.25 1.38" fill="#fe703e"/><path d="m101.84 137.51h-.17c-.212592-1.05015-.854268-1.963723-1.77-2.52.102449-.600309.472828-1.121234 1.006187-1.415165.533358-.293931 1.171578-.32884 1.733813-.094835.575072.21559 1.029099.668912 1.245583 1.243647.216483.574736.174352 1.214944-.115583 1.756353-.343573.74118-1.116581 1.18576-1.93 1.11" fill="#fdc505"/><path d="m98.05 142.2c-.1450296-.44666-.2291217-.910849-.25-1.38.0621891-.740098.5293774-1.384787 1.2133279-1.674312.6839504-.289525 1.4720151-.176201 2.0466721.294312.15.11.29.24.44.36s0 .15 0 .23c-.65788 1.247228-1.8890928 2.089243-3.29 2.25l-.18-.08" fill="#465f3d"/><path d="m98.23 142.28c1.4009072-.160757 2.63212-1.002772 3.29-2.25.301264.445233.410606.993.30337 1.519775-.107237.526776-.422022.988203-.87337 1.280225-.429183.302289-.9638642.414609-1.4784048.310566-.5145406-.104044-.9635769-.415276-1.2415952-.860566" fill="#46d7f7"/><path d="m99.9 134.94c.915732.556277 1.557408 1.46985 1.77 2.52-.818538-.01624-1.516421-.597809-1.68-1.4-.0892247-.361721-.1527169-.729307-.19-1.1.0292266-.0234.0707734-.0234.1 0" fill="#fd5701"/><path d="m136.52 92.7c1.72-1.17 3.33-1.25 4.77-.23 1.639777 1.180496 2.141725 3.3985063 1.17 5.17-.970934 1.8257108-3.173371 2.610437-5.08 1.81-1.832171-.7854034-2.78315-2.8207571-2.21-4.73.08-.27.19-.54.29-.81.35-.4.7-.81 1.06-1.21" fill="#ff703d"/><path d="m136.52 92.7c-.36.4-.71.81-1.06 1.21-.623031.2256446-1.300506.2535818-1.94.08-.019148-.0518486-.042561-.1020204-.07-.15.218925-.8471172-.203012-1.7289656-1-2.09-.019148-.0518486-.042561-.1020204-.07-.15.240323-.434346.528808-.8402384.86-1.21.564224-.5448298 1.412909-.6695181 2.11-.31.750795.336385 1.219004 1.0982176 1.18 1.92v.75" fill="#fcc504"/><path d="m132.33 91.6c.027439.0479796.050852.0981514.07.15-.218925.8471172.203012 1.7289656 1 2.09.027439.0479796.050852.0981514.07.15-.172971.5412045-.525829 1.0069777-1 1.32-.896918.5859676-2.096279.3610874-2.72-.51-.600369-.8684413-.458791-2.048258.33-2.75.610058-.5366185 1.459584-.7080475 2.23-.45" fill="#46d7f7"/><path d="m133.45 93.84c-.796988-.3610344-1.218925-1.2428828-1-2.09.796988.3610344 1.218925 1.2428828 1 2.09" fill="#178e05"/><path d="m175.91 94.7c1.199501-1.3115142 3.111308-1.6930197 4.722323-.9423504 1.611014.7506693 2.548625 2.4598909 2.315976 4.2219202-.232649 1.7620292-1.581748 3.1693262-3.332387 3.4761402-1.750639.306815-3.497913-.557816-4.315912-2.13571-.176102-.4046637-.319885-.8226367-.43-1.25.004882-.0498808.004882-.1001192 0-.15.206214-.0592463.401907-.1503446.58-.27.904037-.7336828 1.095281-2.0376171.44-3" fill="#fdc503"/><path d="m172.43 97.37c-.549814.9236497-1.400824 1.6298814-2.41 2-2.065409.769294-4.363946-.277122-5.14-2.34-.753794-2.0588339.258742-4.3447771 2.29-5.17 1.067986-.4433156 2.273111-.4174151 3.321064.0713761s1.842259 1.3954748 2.188936 2.4986239c.004662.0599094.004662.1200906 0 .18-.736059.6361082-.837642 1.7402713-.23 2.5z" fill="#45d7f8"/><path d="m172.64 94.65c.004662-.0599094.004662-.1200906 0-.18 1.35-.76 2.07-.71 3.08.23-.12.21-.25.42-.36.64-.494033.7629929-.676571 1.6864227-.51 2.58.004882.0498808.004882.1001192 0 .15-.879392.1948254-1.797639-.0686061-2.44-.7v-.22c.423353-.7643625.506785-1.6712248.23-2.5" fill="#fe703e"/><path d="m174.89 97.92c-.166571-.8935773.015967-1.8170071.51-2.58.11-.22.24-.43.36-.64.049503-.0099664.100497-.0099664.15 0 .655281.9623829.464037 2.2663172-.44 3-.178093.1196554-.373786.2107537-.58.27" fill="#fd5701"/><path d="m172.64 94.65c.276785.8287752.193353 1.7356375-.23 2.5-.607642-.7597287-.506059-1.8638918.23-2.5" fill="#465f3d"/><path d="m188.17 97.12c.008214.3375338-.121564.6638223-.359362.9035072-.237797.2396849-.56305.3720384-.900638.3664928-.336883.0004011-.659187-.1373914-.891662-.3812065-.232474-.2438151-.354772-.5723112-.338338-.9087935-.005674-.3208154.120656-.6298828.349425-.8548705s.539899-.3461494.860575-.3351295c.334398-.0254286.664002.0914235.907709.3218034.243708.2303799.378893.5528986.372291.8881966" fill="#ff703e"/><path d="m31.39 137.81c-.8360167.026023-1.6449394-.298153-2.2316132-.89432s-.8978247-1.410189-.8583868-2.24568c-.0222985-.802278.2866059-1.578364.854121-2.145879.567515-.567515 1.3436013-.87642 2.145879-.854121.8325834-.008097 1.6334244.319069 2.2221776.907822.5887532.588754.9159194 1.389595.9078224 2.222178 0 1.656854-1.3431458 3-3 3" fill="#fdc505"/><path d="m10.31 119c.0092488.526102-.2012409 1.032244-.58082286 1.396643-.37958198.364399-.8938905.554063-1.41917714.523357-.54458932.000436-1.06580707-.221224-1.4432668-.613782-.37745972-.392558-.57851695-.922064-.5567332-1.466218.01564165-.532304.24292738-1.03639.63148936-1.40055.38856197-.36416.90631091-.558318 1.43851064-.53945.55382329-.019054 1.08935898.19964 1.47153206.600922.38217304.401282.57449874.946842.52846794 1.499078" fill="#48d8f9"/><path d="m58.07 92.62c-.5569729-.0078999-1.0879887-.2367621-1.4762011-.6362271-.3882125-.399465-.6018125-.9368017-.5937989-1.4937729-.0263663-.5655014.1881605-1.1156863.5903664-1.5140798.402206-.3983936.9544089-.6076709 1.5196336-.5759202 1.1701622.0380803 2.0925032 1.0094346 2.07 2.18-.0431409 1.1212815-.9679061 2.0062244-2.09 2" fill="#ff713f"/><path d="m11.07 82c0 2.209139-1.790861 4-4 4-2.22932732-.0806273-3.99608215-1.9092186-4-4.14 0-2.209139 1.790861-4 4-4 1.08745143.0155939 2.12318337.466826 2.8751024 1.2525814.751919.7857554 1.1571541 1.8403338 1.1248976 2.9274186" fill="#ff703e"/><path d="m10.65 160.66c0 2.209139-1.790861 4-4 4-2.22706178-.085701-3.9909334-1.911308-4-4.14 0-2.209139 1.790861-4 4-4 1.08569493.020961 2.11824326.473859 2.86901047 1.258411.75076723.784552 1.15780703 1.836023 1.13098953 2.921589" fill="#ff703e"/><g fill="#fdc505"><path d="m20.66 138.06c.0224704.986618-.7536662 1.80736-1.74 1.84-.5089892.010862-1.0006221-.185168-1.3624936-.54327s-.5630383-.847655-.5575064-1.35673c.0209838-.981425.8087069-1.773549 1.79-1.8 1.0155149.016381 1.8301321.844353 1.83 1.86"/><path d="m7.85 135c.01728929 1.131614-.86929828 2.071397-2 2.12-1.20559457-.010998-2.17555539-.994368-2.17-2.2.03115122-1.131743.93842054-2.043395 2.07-2.08 1.16716631.03766 2.09522598.992236 2.1 2.16"/><path d="m3.13 94.73c-.55961426.0053295-1.09842268-.2118781-1.49788067-.6038345-.39945799-.3919565-.62684007-.9265508-.63211933-1.4861655-.05388292-.7757088.32940446-1.5166964.99363992-1.9209472.66423547-.4042509 1.49848469-.4042509 2.16272016 0 .66423546.4042508 1.04752284 1.1452384.99363992 1.9209472.01899765.5424546-.18329913 1.0693335-.56045068 1.4596853-.37715156.3903519-.89676229.6106473-1.43954932.6103147"/></g><path d="m124 114.86c-1.595337.020058-3.033317-.958567-3.6-2.45-.594708-1.514377-.197431-3.238558 1-4.34 1.185273-1.083578 2.940603-1.262362 4.32-.44.033258.371231.096802.739122.19 1.1.159998.798718.855509 1.377616 1.67 1.39h.18c.08105.780703-.039455 1.569148-.35 2.29l-.43-.36c-.576059-.471186-1.366103-.583548-2.05069-.291654-.684586.291894-1.150482.939765-1.20931 1.681654.015135.466516.099385.928207.25 1.37" fill="#fe703e"/><path d="m139.17 107.63c.014118.401987-.139379.791775-.423802 1.076198s-.674211.43792-1.076198.423802c-.407555-.002475-.796802-.169594-1.079287-.463378s-.434216-.689284-.420713-1.096622c-.01103-.402012.143126-.79099.426552-1.076305.283427-.285316.671371-.442054 1.073448-.433695.409355.002387.800198.170874 1.082987.46686.282788.295985.433286.694102.417013 1.10314" fill="#ff703e"/><path d="m117.83 123.15c-.789178.062865-1.54763-.319227-1.9668-.99083-.419169-.671602-.429207-1.520804-.02603-2.202127.403178-.681324 1.152387-1.081236 1.94283-1.037043.560518.005072 1.095262.236161 1.483062.640903.3878.404743.595825.948875.576938 1.509097.021784.544154-.179273 1.07366-.556733 1.466218s-.898678.614218-1.443267.613782" fill="#fdc505"/><path d="m137.26 121.09c-.049168 1.091498-.965187 1.941534-2.057311 1.909119-1.092124-.032416-1.956114-.935286-1.940458-2.027779.015657-1.092493.905165-1.970233 1.997769-1.97134 1.116713.05323 1.995944.972027 2 2.09" fill="#47d8f9"/><path d="m127.77 110.17h-.18c-.211704-1.047948-.853969-1.958729-1.77-2.51.099032-.604771.469863-1.130759 1.006212-1.427214.53635-.296455 1.179008-.33065 1.743788-.092786.571122.220309 1.020559.674648 1.234658 1.248128.214099.573479.172361 1.21119-.114658 1.751872-.340794.737808-1.111152 1.179159-1.92 1.1" fill="#fdc505"/><path d="m124 114.86c-.150615-.441793-.234865-.903484-.25-1.37.061372-.738126.525647-1.381897 1.20665-1.673157.681003-.291259 1.467211-.182311 2.04335.283157l.43.36c.004412.076603.004412.153397 0 .23-.646382 1.252989-1.87832 2.098068-3.28 2.25l-.18-.08" fill="#465f3d"/><path d="m124.16 114.94c1.40168-.151932 2.633618-.997011 3.28-2.25.305436.44474.418235.994017.312788 1.523136-.105447.529118-.420194.99319-.872788 1.286864-.430432.30139-.966019.41214-1.480684.30618-.514666-.105961-.962945-.419271-1.239316-.86618" fill="#46d7f7"/><path d="m125.82 107.61c.916031.551271 1.558296 1.462052 1.77 2.51-.814491-.012384-1.510002-.591282-1.67-1.39-.093198-.360878-.156742-.728769-.19-1.1.01139-.012915.02778-.020314.045-.020314s.03361.007399.045.020314" fill="#fd5701"/><path d="m31.54 100.94c.6351874-2.3302579 2.6056856-4.0524733 5-4.37 3.4140483-.5026784 6.6402967 1.7055249 7.4074556 5.070028.767159 3.364502-1.1829551 6.752997-4.4774556 7.779972-2.1788245.672835-4.5511617.105621-6.19-1.48-.2816437-.25831-.5487218-.532065-.8-.82-.0055563-.046501-.0055563-.093499 0-.14 1.48-1 1.61-3.72.28-5.06-.3947968-.363912-.8159433-.698155-1.26-1" fill="#45d7f8"/><path d="m5.4 104.82c0-2.07.86-3.45 2.51-4.06 1.9127617-.681224 4.0324628.178695 4.93 2 .9185665 1.838523.3223181 4.073383-1.39 5.21-1.68462178 1.069441-3.90426603.698782-5.15-.86-.18-.22-.34-.46-.5-.69-.14-.52-.27-1-.4-1.57" fill="#ff703d"/><path d="m43.13 120.19c1.1103484.002061 2.1723828.454377 2.943256 1.253522.7708731.799145 1.1846603 1.876775 1.146744 2.986478.0160702 1.071223-.3982521 2.104121-1.1501465 2.867294s-1.7785096 1.192827-2.8498535 1.192706c-1.1094361-.002632-2.1720882-.447258-2.9528177-1.235495-.7807295-.788236-1.215167-1.855095-1.2071823-2.964505-.0278699-1.097442.3965268-2.158106 1.1737309-2.933419.777204-.775313 1.8388979-1.197124 2.9362691-1.166581m.8 4.65c.5509918.027996 1.0871748-.183627 1.4705212-.58039.3833463-.396764.5764055-.939907.5294788-1.48961.0062244-1.122094-.8787185-2.046859-2-2.09-1.1487523.013807-2.0688071.956248-2.055 2.105s.9562477 2.068807 2.105 2.055" fill="#fe703e" fill-rule="nonzero"/><path d="m32.52 107c-.0055563.046501-.0055563.093499 0 .14-.6724667.486928-1.4797864.75254-2.31.76-1.6354038-.033965-3.0423354-1.166228-3.4252316-2.75654-.3828962-1.590311.3545045-3.23886 1.7952316-4.01346.870684-.487379 1.9211831-.531923 2.83-.12 0 .22-.08.43-.11.65-.4111967 1.872873.0362816 3.831508 1.22 5.34" fill="#fe703e"/><path d="m14.62 107.49c-.4114892-1.893965.5264506-3.823559 2.27-4.67 1.7716828-.812465 3.8682715-.331653 5.1088846 1.171623 1.240613 1.503275 1.3149393 3.653006.1811154 5.238377-.09-.23-.18-.47-.28-.7-.5038391-1.340323-1.6645054-2.325134-3.0689824-2.603994-1.404477-.278859-2.8533394.187828-3.8310176 1.233994-.11.12-.22.22-.34.33" fill="#fcc504"/><path d="m14.62 107.49c.12-.11.23-.21.34-.33.9760151-1.065875 2.4372174-1.545629 3.855087-1.265732 1.4178695.279896 2.587151 1.278924 3.084913 2.635732.1.23.19.47.28.7l-.06.21-.27.26c-.969783 1.064516-2.4163819 1.559512-3.8350229 1.312263-1.4186411-.247249-2.6124938-1.202437-3.1649771-2.532263-.11-.23-.21-.47-.31-.7s0-.19 0-.29" fill="#148d03"/><path d="m14.58 107.78c.1.23.2.47.31.7.5483154 1.333913 1.7426904 2.293203 3.1634844 2.540827 1.4207939.247625 2.8692721-.251054 3.8365156-1.320827l.27-.26c.4118424 2.174396-.9935786 4.27808-3.16 4.73-2.1396829.486874-4.2905955-.767825-4.92-2.87-.4487784-1.181353-.2600007-2.510348.5-3.52" fill="#46d7f7"/><path d="m30.26 123.41c-.3557425-1.336255.274578-2.738822 1.51-3.36 1.2273847-.636161 2.7305793-.351214 3.64.69.9340252 1.057033 1.0485481 2.607183.28 3.79-.1613312.235598-.3349027.462576-.52.68h-.14c-.1589727-1.120724-.988428-2.029553-2.09-2.29-.9254365-.256847-1.9177718-.064304-2.68.52" fill="#fcc504"/><path d="m35 125.18h.14c.1386053.986965-.1776567 1.983558-.86 2.71-.7590949.829763-1.9445297 1.118219-3 .73-1.1573873-.351092-1.9620133-1.401129-2-2.61-.1586279-.927151.2019252-1.86689.94-2.45.13.26.24.52.38.76.4255412.764736 1.1696537 1.300137 2.0299776 1.460602.860324.160465 1.7474121-.07069 2.4200224-.630602" fill="#46d7f7"/><path d="m41.62 93.55c-.6259126.0026578-1.2272447-.243439-1.6717071-.6841507-.4444625-.4407117-.6956463-1.0399366-.6982929-1.6658493-.0113363-1.2659914.99438-2.3073083 2.26-2.34 1.3022279.0106721 2.3583392 1.0579085 2.38 2.36.0080086.6100132-.2266645 1.1982178-.6523831 1.635189-.4257187.4369711-1.0076024.6869062-1.6176169.694811" fill="#ff713f"/><path d="m27.71 96.42c-.5656459.0236957-1.1148346-.1934489-1.5113269-.5975661-.3964923-.4041171-.6031377-.9573419-.5686731-1.5224339-.0274116-.5475372.1711377-1.0823229.5492225-1.4793119s.902555-.6213738 1.4507775-.6206881c.5779358-.0110697 1.1353311.2143307 1.5431233.6240109.4077923.4096801.6306158.9681106.6168767 1.5459891.0002435.5409942-.2186864 1.0590105-.6068381 1.4358568-.3881516.3768462-.9124111.5803731-1.4531619.5641432" fill="#fdc505"/><path d="m5.4 104.82c.13.53.26 1.05.4 1.57-.1627764.633969-.51095206 1.204977-1 1.64-.05322757-.00475-.10677243-.00475-.16 0-.58873465-.663949-1.5735095-.79978-2.32-.32h-.16c-.22121089-.442905-.39227088-.909127-.51-1.39-.12871331-.77505.2488886-1.546322.94-1.92.67435905-.452861 1.55564095-.452861 2.23 0l.62.43" fill="#fcc504"/><path d="m2.12 107.65h.16c.59288956.656139 1.5716242.791137 2.32.32.05322757-.00475.10677243-.00475.16 0 .3528701.452406.5304334 1.017058.5 1.59-.02635994 1.093465-.90653524 1.97364-2 2-1.05779595-.001936-1.94903634-.790341-2.08-1.84-.09394236-.807281.24894158-1.603533.9-2.09" fill="#46d7f7"/><path d="m21.62 119.81c-.008078-.494914.1835852-.972211.5317023-1.324091.3481172-.351881.8233251-.548665 1.3182977-.545909.5196706-.016138 1.0240719.176992 1.4000743.536074.3760025.359082.5921362.854063.5999257 1.373926 0 1.049341-.850659 1.9-1.9 1.9s-1.9-.850659-1.9-1.9" fill="#ff7241"/><path d="m35 125.18c-.6726103.559912-1.5596984.791067-2.4200224.630602-.8603239-.160465-1.6044364-.695866-2.0299776-1.460602-.14-.24-.25-.5-.38-.76l.06-.18c.7631292-.581993 1.7527879-.777709 2.68-.53 1.1001562.269322 1.9269217 1.179159 2.09 2.3" fill="#178e05"/><path d="m32.52 107c-1.1907356-1.505176-1.6456248-3.464134-1.24-5.34 0-.22.07-.43.11-.65h.15c.4440567.301845.8652032.636088 1.26 1 1.33 1.34 1.2 4-.28 5.06" fill="#465f3d"/><path d="m43.93 124.84c-.7431124.008932-1.4345416-.379261-1.8138328-1.018349-.3792913-.639089-.3888212-1.43198-.025-2.08.3638211-.64802 1.0457204-1.052719 1.7888328-1.061651 1.1212815.043141 2.0062244.967906 2 2.09.0469267.549703-.1461325 1.092846-.5294788 1.48961-.3833464.396763-.9195294.608386-1.4705212.58039" fill="#465f3d"/><path d="m4.6 108c-.7483758.471137-1.72711044.336139-2.32-.32.7464905-.47978 1.73126535-.343949 2.32.32" fill="#178e05"/><path d="m176.06 112.57c-1.106714.000081-2.167388-.442953-2.945243-1.230202-.777854-.787248-1.208123-1.853164-1.194757-2.959798.005467-2.241632 1.818388-4.059018 4.06-4.07 1.106787.007813 2.164362.458482 2.936596 1.251384s1.194819 1.862008 1.173404 2.968616c0 2.209139-1.790861 4-4 4" fill="#ff703e"/><path d="m161 117.62c1.026306.00234 2.008265.418631 2.723548 1.15462.715284.735989 1.103392 1.729425 1.076452 2.75538.008212 1.010237-.39154 1.981053-1.108727 2.692592-.717187.71154-1.691133 1.103606-2.701273 1.087408-2.096918-.069704-3.76506-1.781977-3.78-3.88-.013479-1.011072.380842-1.98496 1.093957-2.701838s1.684914-1.11632 2.696043-1.108162" fill="#ff703e"/><path d="m174.53 121.24c-.457803-.377508-.873541-.803305-1.24-1.27-.603846-1.127885-.425981-2.51461.442965-3.453591.868946-.938982 2.237756-1.22359 3.408974-.708807s1.887109 1.715676 1.782902 2.990782c-.104208 1.275105-1.005582 2.343828-2.244841 2.661616-.184618.043934-.371587.077321-.56.1z" fill="#fdc505"/><path d="m174.53 121.24 1.59.32c.76786.462592 1.326902 1.204398 1.56 2.07.294171 1.203-.163284 2.464947-1.16 3.2-1.01529.720063-2.37471.720063-3.39 0-1.027592-.680268-1.550772-1.907577-1.33-3.12.22197-1.366286 1.349916-2.403335 2.73-2.51" fill="#47d8f9"/><path d="m158.5 115c-.019322-.497305.166976-.980624.515085-1.3363.348108-.355676.82731-.552324 1.324915-.5437 1.069272.048165 1.911084.929644 1.91 2-.032655 1.040032-.899833 1.85804-1.94 1.83-.500566-.012866-.974802-.227015-1.315453-.594015-.340652-.367-.518941-.855848-.494547-1.355985" fill="#48d8f9"/><path d="m150.61 104.27c.021389-.442315.068133-.883039.14-1.32.366618-1.955394 2.146303-3.3213994 4.13-3.17 1.940101.1505479 3.500564 1.656479 3.72 3.59.261632 1.720247-.653973 3.404306-2.24 4.12-.09-.34-.16-.68-.28-1-.369055-1.037312-1.163512-1.867657-2.183516-2.282153-1.020005-.414496-2.168469-.37369-3.156484.112153h-.13" fill="#fcc504"/><path d="m150.61 104.27h.13c.084949 1.299809.843572 2.460504 2 3.06 1.097192.608381 2.406417.703464 3.58.26.233655 1.880313-.972035 3.639505-2.81 4.1-1.787485.526927-3.693322-.320111-4.5-2-.909824-1.690673-.490096-3.789311 1-5 .2-.16.41-.3.62-.45" fill="#46d7f7"/><path d="m156.28 107.63c-1.173583.443464-2.482808.348381-3.58-.26-1.155062-.601006-1.913121-1.760836-2-3.06.988015-.485843 2.136479-.526649 3.156484-.112153 1.020004.414496 1.814461 1.244841 2.183516 2.282153.12.33.19.67.28 1l-.08.14" fill="#148d03"/><path d="m113.93 128.87h1.33c1.979951.182618 3.507551 1.822098 3.55 3.81.062704 1.952786-1.294489 3.665132-3.21 4.05-1.684868.430509-3.44958-.318777-4.31-1.83.32-.12.66-.22 1-.37.997081-.468682 1.747136-1.340122 2.062142-2.395871.315006-1.055748.1651-2.195712-.412142-3.134129.005556-.046501.005556-.093499 0-.14" fill="#fcc504"/><path d="m113.93 128.87c.005556.046501.005556.093499 0 .14-1.280946.198849-2.365213 1.051856-2.86 2.25-.501535 1.147799-.468576 2.458852.09 3.58-1.847841.415077-3.715986-.608974-4.36-2.39-.6916-1.73345-.022013-3.712547 1.58-4.67 1.595979-1.065111 3.723458-.846908 5.07.52l.5.57" fill="#46d7f7"/><path d="m111.14 134.84c-.558576-1.121148-.591535-2.432201-.09-3.58.498005-1.195704 1.580668-2.04745 2.86-2.25.577242.938417.727148 2.078381.412142 3.134129-.315006 1.055749-1.065061 1.927189-2.062142 2.395871-.31.15-.65.25-1 .37l-.15-.07" fill="#148d03"/><path d="m60.12 107.66c-1.5926924.011319-3.0261575-.964234-3.6-2.45-.5818656-1.518469-.1865562-3.238065 1-4.35 1.1880673-1.0773216 2.9391279-1.2556703 4.32-.44.0323921.371344.0959493.739306.19 1.1.1593339.800635.8538442 1.382859 1.67 1.4h.18c.0801547.780681-.0403156 1.568901-.35 2.29-.14-.12-.28-.25-.43-.36-.5760593-.471186-1.3661035-.583548-2.0506899-.291654-.6845863.291894-1.1504824.939765-1.2093101 1.681654.0168553.46633.10106.927773.25 1.37" fill="#fe703e"/><path d="m63.91 103h-.18c-.1751679-1.072818-.8060571-2.017329-1.73-2.59.0990321-.6047715.4698633-1.1307594 1.0062125-1.4272142.5363492-.2964549 1.1790076-.3306503 1.7437875-.0927858.5732981.2176578 1.0249736.6718428 1.2394518 1.246338.2144782.574495.1709481 1.213557-.1194518 1.753662-.3399396.759131-1.1341322 1.208904-1.96 1.11" fill="#fdc505"/><path d="m60.12 107.66c-.14894-.442227-.2331447-.90367-.25-1.37.0588277-.741889.5247238-1.38976 1.2093101-1.681654.6845864-.291894 1.4746306-.179532 2.0506899.291654.15.11.29.24.43.36.0049306.076587.0049306.153413 0 .23-.6463819 1.252989-1.8783197 2.098068-3.28 2.25l-.18-.08" fill="#465f3d"/><path d="m60.3 107.74c1.4016803-.151932 2.6336181-.997011 3.28-2.25.3035813.447205.4132294.998244.3039677 1.527598s-.4281289.991946-.8839677 1.282402c-.4304324.30139-.9660186.41214-1.4806841.30618-.5146654-.105961-.9629451-.419271-1.2393159-.86618" fill="#46d7f7"/><path d="m62 100.41c.9203918.546569 1.564189 1.459524 1.77 2.51-.814759-.020846-1.5072615-.601387-1.67-1.4-.0940507-.360694-.1576079-.728656-.19-1.1.01139-.012915.02778-.020314.045-.020314s.03361.007399.045.020314" fill="#fd5701"/><path d="m148.53 125.2c-1.165321 0-2.11-.944679-2.11-2.11s.944679-2.11 2.11-2.11c1.170136.027293 2.101257.9896 2.09 2.16.016672.54954-.193615 1.08171-.58143 1.471417s-.918955.602581-1.46857.588583" fill="#ff7241"/><path d="m175.79 139.62c-1.165321 0-2.11-.944679-2.11-2.11s.944679-2.11 2.11-2.11c1.166204.032655 2.09136.993394 2.08 2.16.016672.54954-.193615 1.08171-.58143 1.471417s-.918955.602581-1.46857.588583" fill="#ff7241"/><path d="m93.2 87.35c-.5359645 1.0520215-1.5033386 1.8186199-2.65 2.1l-.15-.07c-.7710727-1.4379683-2.4108386-2.1799624-4-1.81l-.17-.06c-.45541-.9083711-.6061852-1.9392528-.43-2.94.3521812-1.7361697 1.8223983-3.0220977 3.59-3.14 1.7953069-.092224 3.4316057 1.02455 4 2.73.2722829.6808047.3178702 1.4312421.13 2.14-.12.35-.24.7-.37 1" fill="#fdc503"/><path d="m86.1 95.28c-.8110293.8152763-1.9202606 1.2633045-3.07 1.24-2.1540727-.1128599-3.8307025-1.9133568-3.79-4.07-.0054562-1.0253128.4014972-2.0097763 1.1293287-2.7319656.7278315-.7221894 1.715432-1.1214694 2.7406713-1.1080344.37 0 .75.06 1.13.09-.0105878.0426866-.0105878.0873134 0 .13-.8868751.9957454-1.201925 2.3763624-.8347979 3.6582649s1.3652651 2.2864325 2.6447979 2.6617351v.13" fill="#fe703e"/><path d="m86.1 95.28v-.13c2.08-2.19.57-5.89-1.81-6.32-.0105878-.0426866-.0105878-.0873134 0-.13l2-1.19.17.06c.7710727 1.4379683 2.4108386 2.1799624 4 1.81l.14.07c.4202962.8228423.5807118 1.7539504.46 2.67-.2920786 1.9521357-2.030136 3.3556171-4 3.23l-.85-.07" fill="#46d7f7"/><path d="m93.2 87.35c.13-.35.25-.7.37-1 .23-.16.46-.34.7-.48.4209874-.2289995.9162212-.2796219 1.3748342-.1405344.4586129.1390876.8423.4562679 1.0651658.8805344.4265802.8595981.1167001 1.9027153-.71 2.39-.4241548.2246044-.9213368.2673314-1.3775936.118388-.4562568-.1489433-.8324677-.4767862-1.0424064-.908388-.14-.28-.24-.58-.36-.87" fill="#ff7241"/><path d="m90.4 89.38c-1.5891614.3699624-3.2289273-.3720317-4-1.81 1.5891614-.3699624 3.2289273.3720317 4 1.81" fill="#178e05"/><path d="m84.26 88.83c2.38.43 3.9 4.13 1.81 6.32-1.2795328-.3753026-2.2776708-1.3798326-2.6447979-2.6617351s-.0520772-2.6625195.8347979-3.6582649" fill="#465f3d"/><path d="m80.66 118.89c0-2.08.86-3.45 2.52-4.06 1.9098352-.675327 4.0230243.183693 4.92 2 .952776 1.834911.3501816 4.093556-1.39 5.21-1.6846218 1.069441-3.904266.698782-5.15-.86-.18-.22-.33-.46-.5-.69l-.4-1.57" fill="#ff703d"/><path d="m89.89 121.56c-.4207425-1.892399.5148825-3.825748 2.26-4.67 1.7716828-.812465 3.8682715-.331653 5.1088846 1.171623 1.240613 1.503275 1.3149393 3.653006.1811154 5.238377l-.27-.7c-.497762-1.356808-1.6670435-2.355836-3.084913-2.635732-1.4178696-.279897-2.8790719.199857-3.855087 1.265732z" fill="#fcc504"/><path d="m89.89 121.56.34-.33c.9760151-1.065875 2.4372174-1.545629 3.855087-1.265732 1.4178695.279896 2.587151 1.278924 3.084913 2.635732l.27.7-.06.21-.27.26c-.9686998 1.069229-2.4184131 1.566399-3.8394284 1.316706s-2.6144019-1.211292-3.1605716-2.546706c-.1-.22-.2-.46-.31-.69s0-.19 0-.29" fill="#148d03"/><path d="m89.84 121.85c.11.23.21.46.31.69.5461697 1.335414 1.7395563 2.297013 3.1605716 2.546706s2.8707286-.247477 3.8394284-1.316706l.27-.26c.4140558 2.161729-.9698062 4.2597-3.12 4.73-2.1388815.481667-4.2864579-.771086-4.92-2.87-.439218-1.182401-.2511101-2.50668.5-3.52" fill="#46d7f7"/><path d="m80.66 118.89.4 1.57c-.1587211.635673-.5075802 1.207802-1 1.64-.0529051-.009558-.1070949-.009558-.16 0-.5887346-.663949-1.5735095-.79978-2.32-.32-.0528158-.010507-.1071842-.010507-.16 0-.2212109-.442905-.3922709-.909127-.51-1.39-.1269281-.777367.2550212-1.549306.95-1.92.6668751-.465242 1.5531249-.465242 2.22 0 .22.14.42.29.62.43" fill="#fcc504"/><path d="m77.38 121.72c.0531848-.00563.1068152-.00563.16 0 .5928896.656139 1.5716242.791137 2.32.32.0528158-.010507.1071842-.010507.16 0 .3570176.450218.535087 1.016479.5 1.59 0 1.104569-.8954305 2-2 2-1.0594898.002537-1.9532694-.788114-2.08-1.84-.0962096-.80538.2426954-1.601236.89-2.09" fill="#46d7f7"/><path d="m79.86 122.07c-.7483758.471137-1.7271104.336139-2.32-.32.7455067-.484215 1.733413-.347953 2.32.32" fill="#178e05"/><path d="m114.49 102.15c-1.136866 1.286002-2.743958 2.059667-4.458242 2.146228-1.714285.086561-3.391134-.521285-4.651758-1.686228-1.96346-1.630544-2.799009-4.2543244-2.14-6.72.477875-2.3727492 2.280767-4.2574138 4.63-4.84 1.681509-.4627079 3.477993-.2378672 4.993601.6249788s2.625963 2.292889 3.086399 3.9750212c-.21.07-.42.12-.63.2-1.094726.3872695-1.927068 1.2908973-2.223277 2.4136898-.296209 1.1227926-.017944 2.3194152.743277 3.1963102.2.25.44.46.65.69" fill="#ff6f3d"/><path d="m116.35 87c.021505.9296985-.332138 1.8289167-.98119 2.4949001-.649051.6659833-1.538866 1.0426609-2.46881 1.0450999-1.919772-.0529069-3.459985-1.603463-3.500042-3.5235457-.040058-1.9200827 1.434147-3.5335265 3.350042-3.6664543.961833.0052809 1.882021.3931295 2.557443 1.0779326.675423.6848032 1.050543 1.610253 1.042557 2.5720674" fill="#fdc503"/><path d="m116.09 95.73c1.884472-.2235413 3.595688 1.1168371 3.83 3 .260911 1.835181-.946103 3.558238-2.76 3.94-.87382.208004-1.794868.01352-2.51-.53.878384-1.043805 1.428145-2.3242607 1.58-3.68.003233-.9085476-.043505-1.8165855-.14-2.72" fill="#46d7f7"/><path d="m78.92 108.89c-.005351 1.271302-1.0287924 2.303642-2.3 2.32-1.301091-.021915-2.3411658-1.088772-2.33-2.39-.0053253-.609074.2322165-1.195175.6600893-1.628678s1.0108189-.678685 1.6199107-.681322c1.302707.016422 2.3501035 1.077189 2.35 2.38" fill="#fdc505"/><path d="m116.09 95.73c.096495.9034145.143233 1.8114524.14 2.72-.151855 1.3557393-.701616 2.636195-1.58 3.68h-.16c-.21-.23-.45-.44-.65-.69-.761221-.876895-1.039486-2.0735176-.743277-3.1963102.296209-1.1227925 1.128551-2.0264203 2.223277-2.4136898.21-.08.42-.13.63-.2l.14.08" fill="#465f3d"/><path d="m94.06 106.18c.0756057-.506489.3535036-.960619.7700901-1.25845s.9361984-.413867 1.4399099-.32155c1.0323152.220759 1.7152976 1.20583 1.56 2.25-.0754139.508576-.3547638.964481-.7736435 1.262602-.4188797.298122-.9411351.412729-1.4463565.317398-1.0467457-.197297-1.7386403-1.20166-1.55-2.25" fill="#fdc607"/><path d="m110.26 112.55c.008214.337534-.121564.663822-.359362.903507-.237797.239685-.56305.372039-.900638.366493-.336066.000554-.657476-.137546-.888394-.381713s-.350889-.572774-.331606-.908287c-.008335-.320742.115414-.630834.34229-.85771s.536968-.350625.85771-.34229c.336174-.025632.667443.09254.911496.325152.244052.232612.377979.557831.368504.894848" fill="#48d8f9"/><path d="m185.36 69.09c-.563108-.0026118-1.10181-.2302029-1.496217-.6321232-.394408-.4019202-.611795-.9448198-.603783-1.5078768-.011658-1.1259615.874809-2.0567518 2-2.1.578985-.0001566 1.133562.2332113 1.538234.6472941s.625231.9738773.611766 1.5527059c.000333.542787-.219963 1.0623978-.610315 1.4395493-.390352.3771516-.91723.5794484-1.459685.5604507" fill="#45d7f8"/><path d="m177.84 55.2c1.689332.0436615 3.027998 1.4403359 3 3.13.000161.8061551-.324132 1.5784524-.899786 2.1428186-.575653.5643661-1.35422.8733045-2.160214.8571814-1.697288-.0436486-3.039149-1.4526024-3-3.15-.019387-.8014356.290454-1.5758134.85732-2.1426798.566867-.5668663 1.341244-.8767072 2.14268-.8573202" fill="#ff713f"/><path d="m176.8 161.22c-1.487268-.016485-2.681109-1.232682-2.67-2.72-.011526-1.446149 1.134457-2.636551 2.58-2.68.735473.002508 1.439061.300588 1.952498.82719s.793612 1.237509.777502 1.97281c-.01647 1.444685-1.195232 2.605587-2.64 2.6" fill="#46d8f9"/></g></svg>