<svg height="473" viewBox="0 0 416 473" width="416" xmlns="http://www.w3.org/2000/svg"><g fill="none" fill-rule="evenodd"><path d="m203.44 4.54c3.049035.39795367 5.409058 2.86619682 5.67 5.93.353332 3.0043288-1.495654 5.8304556-4.39 6.71-1.178312.2059793-2.378563.25641-3.57.15-.462472-.0367973-.920866-.1137541-1.37-.23l-1-.51-.21-.4c-1.64677-1.6957549-2.534557-3.9874-2.46-6.35.119546-.04188013.243831-.06875243.37-.08.919121.9540307 2.367906 1.1639398 3.52.51 2.05-.84 3.67-2.25 3.42-5.74" fill="#ff713f"/><path d="m196.5 9.77c-.126169.01124757-.250454.03811987-.37.08-1.987018-1.04992134-2.960929-3.35303397-2.33-5.51.366469-1.9188405 1.907309-3.39547858 3.84-3.68 2.45-.5 4.65 1 5.62 3.73-.33 0-.66.08-1 .1-2.963802.09241422-5.415611 2.33601075-5.77 5.28" fill="#fdc505"/><path d="m196.5 9.77c.354389-2.94398925 2.806198-5.18758578 5.77-5.28.33 0 .66-.07 1-.1.086074.00594074.158635.06640879.18.15.25 3.49-1.37 4.9-3.42 5.74-1.152094.6539398-2.600879.4440307-3.52-.51" fill="#fd5701"/><path d="m199.8 17.11-1-.51z" fill="#fff"/><path d="m235.22 95.34c-2.417175 2.7430165-5.838273 4.395512-9.489499 4.5837196-3.651226.1882074-7.224101-1.1037739-9.910501-3.5837196-4.201036-3.4716932-5.9776-9.0831319-4.54-14.34 1.019994-5.0452973 4.847747-9.0558791 9.84-10.31 8.17-2.36 15.79 3.45 17.2 9.8-.45.14-.91.25-1.35.42-2.323361.8318821-4.087855 2.7548259-4.717369 5.140983-.629514 2.3861572-.043252 4.9292754 1.567369 6.799017.43.52.93 1 1.4 1.46" fill="#ff6f3d"/><path d="m157.52 388.69c1.63-5.31 5.32-8.25 10.68-9.3 6.49-1.27 14 3.06 15.71 10.61s-2.33 14.66-9.48 16.74c-5 1.43-9.34.2-13.16-3.16-.61-.53-1.15-1.15-1.71-1.73 0-.11 0-.21.05-.32 3.15-2.13 3.42-7.9.59-10.75-.84489-.756652-1.740292-1.454932-2.68-2.09" fill="#45d7f8"/><path d="m54.47 323.68c-.0469442 5.652634-4.6673656 10.196944-10.32 10.15s-10.1969442-4.667366-10.15-10.32c-.0616842-2.699187.9620298-5.310298 2.8417832-7.248324 1.8797535-1.938026 4.4584043-3.040953 7.1582168-3.061676 5.7486141.070718 10.3822896 4.731075 10.42 10.48" fill="#46d8f9"/><path d="m302.5 373.21c.045588 2.702715-.996249 5.310493-2.89158 7.237788-1.89533 1.927295-4.485321 3.012596-7.18842 3.012212-5.678397-.140912-10.210908-4.779862-10.22-10.46-.029426-2.701165 1.024425-5.301551 2.926076-7.220113 1.901651-1.918563 4.492604-2.995396 7.193924-2.989887 2.735237.026316 5.3472 1.141657 7.257792 3.099169s2.962247 4.59576 2.922208 7.330831" fill="#fdc503"/><path d="m345.46 163.18c-1.13-2.16-2.16-4.31-2.09-6.87.032303-4.830556 3.374353-9.008119 8.08-10.1 4.880029-1.007529 9.800943 1.530013 11.81 6.09 2.95 6.83-1.55 14.52-8.72 14.89-.335103-.00517-.669359-.035253-1-.09.231069-1.102816.364916-2.223783.4-3.35-.263274-2.148372-2.065996-3.776363-4.23-3.82-1.932893-.031799-3.598893 1.3537-3.92 3.26h-.33" fill="#ff703d"/><path d="m258.52 70.3c-.057155-2.3848722.857469-4.6905495 2.533909-6.3877328s3.970696-2.6400914 6.356091-2.6122672c2.422259.0079315 4.741858.9791596 6.447142 2.6994522 1.705285 1.7202926 2.656151 4.0483122 2.642858 6.4705478.068193 2.420891-.853131 4.7650276-2.551427 6.4916291-1.698297 1.7266014-4.026886 2.686543-6.448573 2.6583709-2.431957-.0180526-4.754783-1.0120262-6.447004-2.7587745-1.692221-1.7467482-2.612054-4.0999185-2.552996-6.5312255" fill="#ff703d"/><path d="m325.52 382.94c-3.767457.926949-7.721026-.520057-10-3.66-2.276254-2.784575-2.844338-6.592272-1.48-9.92 1.364798-3.972927 5.172301-6.581696 9.37-6.42 4.466074.129767 8.315005 3.181245 9.46 7.5.17297.917828.27991 1.846876.32 2.78-.4-.07-.79-.18-1.19-.21-2.010297-.240028-4.017051.474797-5.42289 1.931686s-2.048661 3.487853-1.73711 5.488314c.1736.854304.414347 1.693576.72 2.51" fill="#45d7f8"/><path d="m180.29 109.72c-2.357522-.002419-4.615723-.949615-6.269537-2.62974-1.653814-1.680124-2.565252-3.952993-2.530463-6.31026.010972-4.7632879 3.866728-8.6235116 8.63-8.64 2.359414.0127469 4.614645.9735032 6.258398 2.6661556 1.643754 1.6926524 2.538006 3.9750701 2.481602 6.3338444.043674 2.288747-.844212 4.497061-2.460064 6.11857-1.615852 1.621508-3.821051 2.517106-6.109936 2.48143" fill="#ff703e"/><path d="m209.18 403.71c.073705 2.285522-.788666 4.502104-2.387581 6.136887-1.598915 1.634782-3.795824 2.546105-6.082419 2.523113-2.354662.016216-4.617155-.914065-6.279369-2.58192s-2.584824-3.933486-2.560631-6.28808c-.026662-2.286845.859708-4.489912 2.462722-6.121082s3.790316-2.555761 6.077278-2.568918c2.354575-.01957 4.616528.916098 6.269227 2.593295 1.652699 1.677198 2.554984 3.952673 2.500773 6.306705" fill="#fdc503"/><path d="m264.27 121.26c.005864 4.694348-3.766035 8.519749-8.46 8.58-4.845191-.038516-8.743265-3.99477-8.71-8.84-.057748-2.292011.823884-4.508026 2.440367-6.13395 1.616482-1.625925 3.827325-2.520449 6.119633-2.47605 2.323217.018178 4.542178.966945 6.160376 2.634009s2.50055 3.913261 2.449624 6.235991" fill="#fdc503"/><path d="m173.73 324.77c-.059238-2.255188.793303-4.439005 2.364812-6.057566 1.57151-1.618561 3.729234-2.535136 5.985188-2.542434 4.82576.092872 8.682758 4.0434 8.66 8.87.093766 3.131972-1.541152 6.062106-4.255691 7.627136s-6.069507 1.511745-8.732977-.1387c-2.663469-1.650445-4.204512-4.631022-4.011332-7.758436" fill="#ff703d"/><path d="m113 148.94c.002723 2.250594-.893544 4.409063-2.489643 5.995773-1.596099 1.586711-3.759818 2.470228-6.010357 2.454227-4.742922-.176943-8.5018476-4.063813-8.52-8.81.0053291-4.685411 3.7847437-8.491598 8.47-8.53 2.319799.023191 4.532813.978318 6.140955 2.650409 1.608141 1.672091 2.476288 3.92065 2.409045 6.239591" fill="#ff703e"/><path d="m214.54 386.77c-2.322818.013875-4.552926-.910298-6.185049-2.563129-1.632124-1.652831-2.528108-3.894412-2.484951-6.216871-.022262-4.686121 3.744087-8.510551 8.43-8.56 4.748588.118434 8.548343 3.980118 8.59 8.73.037415 2.249886-.821981 4.422188-2.388534 6.03752s-3.711491 2.540911-5.961466 2.57248" fill="#46d8f9"/><path d="m225.86 132.64c.045656 2.25274-.816715 4.429167-2.392951 6.03926-1.576237 1.610094-3.733847 2.518517-5.987049 2.52074-4.737375-.149385-8.51816-4.000674-8.58-8.74-.026833-2.286525.86551-4.488081 2.476788-6.11064s3.806556-2.53024 6.093212-2.51936c4.745437.125472 8.496293 4.064095 8.39 8.81" fill="#ff703d"/><path d="m209.08 38.68c-2.404035-2.9101873-2.643351-7.0432118-.591276-10.211423s5.921608-4.6399023 9.560418-3.6360926 6.206504 4.2512876 6.343976 8.0235116c.137472 3.7722241-2.187028 7.1979891-5.743118 8.464004-.908334.2476192-1.834414.4248113-2.77.53-.103429-.040505-.21062-.0706526-.32-.09-.059883-.4437137-.188066-.875489-.38-1.28-1.43-2.11-3.25-2.63-6.1-1.8" fill="#fdc503"/><path d="m213.69 46.78c1.816138 1.4292348 3.081175 3.4434002 3.58 5.7 1.005097 4.5742023-1.879184 9.099616-6.45 10.12-4.564051.9811678-9.084418-1.8318983-10.22-6.36-.61113-2.3731995-.20261-4.8938143 1.126804-6.9525067 1.329414-2.0586925 3.458727-3.4680939 5.873196-3.8874933l.36.14c1.65 1.86 3 2.18 5.2 1.22z" fill="#45d7f8"/><path d="m101.92 397c0-4.42 1.83-7.34 5.34-8.65 4.050583-1.4733 8.561618.330253 10.48 4.19 1.963346 3.921922.672776 8.692728-3 11.09-3.584312 2.272964-8.30545 1.47964-10.95-1.84-.38-.46-.71-1-1.07-1.46l-.84-3.33" fill="#ff703d"/><path d="m373.34 186.75c-4.679961.005747-8.490625-3.760296-8.54-8.44.087592-4.616593 3.893144-8.292462 8.51-8.22 4.687504.092035 8.448383 3.901699 8.48 8.59-.1092 4.559988-3.889814 8.170586-8.45 8.07" fill="#46d8f9"/><path d="m186.27 347.29c-.25 5.1-3.76 8.47-8.36 8.4-4.567308-.169821-8.17836-3.928715-8.164878-8.499159s3.646647-8.307968 8.214878-8.450841c4.607735.175902 8.265324 3.939126 8.31 8.55" fill="#46d8f9"/><path d="m291.13 88.73c.040301 2.1811642-.798748 4.2868021-2.328104 5.8424931-1.529355 1.5556909-3.620362 2.4305658-5.801896 2.4275069-2.220883-.0338527-4.335538-.9564429-5.870968-2.5614096-1.535431-1.6049668-2.363516-3.758386-2.299032-5.9785904-.051616-2.189626.787884-4.306399 2.32621-5.8654624 1.538326-1.5590635 3.643669-2.4268314 5.83379-2.4045376 4.620685.1038164 8.284927 3.9291234 8.19 8.55" fill="#46d8f9"/><path d="m204.09 157.48c-1.469005.007774-2.935479-.122802-4.38-.39-4.042394-1.221512-6.58999-5.208499-6-9.39.456422-3.968374 3.632328-7.073334 7.61-7.44 4.71-.52 9 3.33 9.35 8.31v1.61l-.33.35c-3.262406.635584-5.728612 3.324884-6.08 6.63l-.21.32" fill="#fdc503"/><path d="m148.26 120.46c2.183376.002152 4.27389.883497 5.799792 2.445149 1.525903 1.561651 2.358609 3.672011 2.310208 5.854851.000241 2.142688-.859066 4.195918-2.385412 5.699707-1.526345 1.503789-3.592141 2.332433-5.734588 2.300293-4.459977-.149817-8.009659-3.787689-8.05-8.25-.024225-2.147725.816195-4.214979 2.332139-5.736565 1.515943-1.521586 3.580061-2.369681 5.727861-2.353435" fill="#ff703e"/><path d="m337.85 117c-1.13 2.44-3.22 3.66-5.65 4.46-.096351-.060798-.200682-.107916-.31-.14-1.631836-3.025196-5.075063-4.597725-8.43-3.85l-.35-.13c-.81-2-1.45-4-.91-6.26.747281-3.687766 3.866146-6.421888 7.62-6.68 3.835782-.227497 7.343113 2.158639 8.54 5.81.576733 1.451358.674833 3.048985.28 4.56-.26.74-.52 1.48-.79 2.23" fill="#fdc503"/><path d="m204.09 157.48.21-.32c3.259079-.641518 5.722413-3.327687 6.08-6.63l.33-.35c1.34132.020041 2.678901.147111 4 .38 3.856891 1.106514 6.397142 4.78088 6.07 8.78-.228396 4.017019-3.30502 7.291728-7.3 7.77-4.59643.480574-8.726256-2.820614-9.27-7.41 0-.74-.08-1.48-.12-2.22" fill="#45d7f8"/><path d="m82.28 150.63c4.409983.071046 7.9460376 3.669449 7.94 8.08.0347531 2.087783-.7669044 4.102755-2.2263927 5.596054-1.4594882 1.493299-3.4555755 2.340884-5.5436073 2.353946-4.4114936-.081001-7.9574333-3.657968-8-8.07-.0389885-4.360405 3.4499176-7.934188 7.81-8" fill="#fdc505"/><path d="m305.73 355c-.015969-2.08634.798225-4.093427 2.263181-5.579016s3.460459-2.327773 5.546819-2.340984c4.413884.071098 7.951513 3.675558 7.94 8.09.022236 4.342055-3.468111 7.88603-7.81 7.93-4.406339-.097691-7.930227-3.692589-7.94-8.1" fill="#ff703e"/><path d="m83.44 121.29c4.2017193.079 7.583408 3.476521 7.6427817 7.678564.0593738 4.202042-3.2249719 7.693753-7.4227817 7.891436-4.2516568-.038082-7.6874222-3.478297-7.72-7.73-.19-4.37 3.62-8.12 7.5-7.84" fill="#46d8f9"/><path d="m112.42 76.75c2.515121 1.9610942 3.567621 5.2655445 2.65 8.32-.92 3.21-3 5.33-6.3 5.84-3.228671.6737893-6.52659-.7919522-8.19-3.64-2.6-4.15-1.38-9.22 2.65-11.37 2.673853 1.9519898 6.203484 2.2784518 9.19.85" fill="#45d7f8"/><path d="m182.18 429.65c2.359417.004276 4.616638.963386 6.257461 2.65884 1.640823 1.695455 2.525515 3.982868 2.452539 6.34116.029657 2.293484-.865582 4.502271-2.483688 6.127903s-3.822716 2.531111-6.116312 2.512097c-2.361181-.00525-4.62282-.951715-6.283963-2.629751s-2.584677-3.949136-2.566037-6.310249c0-5 4.16-9 8.74-8.71m1.69 9.89c1.16399.043622 2.291124-.412343 3.097392-1.253001.806268-.840659 1.214782-1.985845 1.122608-3.146999.016913-2.418037-1.912404-4.400822-4.33-4.45-2.363628.137936-4.200999 2.110067-4.171573 4.477534.029427 2.367466 1.915247 4.293321 4.281573 4.372466" fill="#fe703e" fill-rule="nonzero"/><path d="m160.77 82.68c-.0133-1.9793232.761616-3.8825747 2.153716-5.2896836s3.286932-2.2023905 5.266284-2.2103164c4.258381.0929446 7.645903 3.6009717 7.59 7.86.000004 4.121665-3.338339 7.4644824-7.46 7.47-2.048326-.00977-4.005744-.8470278-5.427541-2.3215538s-2.187252-3.4611222-2.122459-5.5084462" fill="#fdc505"/><path d="m239.17 63.19c.040226 1.9779643-.715389 3.8892594-2.097286 5.3049994-1.381898 1.4157401-3.274355 2.2173674-5.252714 2.2250006-2.047946.0135637-4.015371-.7967346-5.459753-2.2486396-1.444382-1.4519051-2.244449-3.4235121-2.220247-5.4713604-.023088-4.1121936 3.249042-7.4865775 7.36-7.59 2.048316.0105647 4.008236.8357798 5.447222 2.2935273s2.238746 3.4281919 2.222778 5.4764727" fill="#fdc503"/><path d="m283 407c-2.263128-2.936847-2.303944-7.018483-.1-10 2.255789-2.930283 6.206559-3.966281 9.61-2.52 3.585035 1.561736 5.646679 5.363408 5 9.22-.510588 3.51006-3.316952 6.23847-6.84 6.65.08-.32.17-.64.25-1 .675124-2.159456-.490493-4.464098-2.63-5.2-2.12-.77-3.8.05-5 2.44-.108469.164718-.23236.318746-.37.46" fill="#ff703d"/><path d="m118.8 320.72c2-1.1 4-1.89 6.34-1.39 3.481064.686614 6.108486 3.561371 6.48 7.09.31 4.07-1.69 7.44-5.33 8.54-2.066877.731468-4.347564.547147-6.270151-.506744s-3.304733-2.877398-3.799849-5.013256c.4 0 .8 0 1.2-.1 1.848275-.260992 3.326723-1.667125 3.68-3.5.477898-1.954611-.47703-3.977057-2.29-4.85.014919-.089382.014919-.180618 0-.27" fill="#45d7f8"/><path d="m272.77 161c-3.72.24-6.7-2.68-7.66-5.21-1.240809-3.240368-.372005-6.909974 2.19-9.25 2.56-2.29 5.79-2.62 9.19-.94.076396.791967.210079 1.577357.4 2.35.56 1.7 1.6 2.91 3.57 3l.37.11c-.11 1.65.21 3.36-.73 4.88-.31-.26-.6-.53-.93-.77-1.23265-.998434-2.917966-1.229284-4.3737-.599096-1.455733.630188-2.440751 2.017026-2.5563 3.599096.042842.99293.221158 1.97535.53 2.92" fill="#fe703e"/><path d="m284.68 323.65c.09-.94.11-1.89.29-2.81.783476-4.163191 4.576467-7.068277 8.8-6.74 4.125954.311704 7.445062 3.517375 7.9 7.63.38 4-1.33 7.15-4.77 8.75-.19-.71-.33-1.44-.58-2.13-1.83-5-7.68-6.78-11.36-4.63-.088903-.038412-.18348-.062056-.28-.07" fill="#fcc504"/><path d="m29.49 142.06c-1.8162234-2.701268-1.7482817-6.250226.17-8.88 1.8747911-2.581118 5.1604774-3.718931 8.23-2.85 3.0550368.91849 5.2443642 3.602692 5.53 6.78.3270931 3.080377-1.2580804 6.048615-4 7.49-2.68-3.24-5.94-4.21-9.88-2.54" fill="#fcc504"/><path d="m88.78 89.63c1.9451781-.0323208 3.8213022.7206318 5.2044474 2.0887223 1.3831452 1.3680906 2.1565843 3.2358624 2.1455526 5.1812777-.0756563 3.821132-3.1782513 6.888268-7 6.92-3.9690624-.105194-7.1602695-3.300797-7.26-7.27-.0107801-1.8420564.7175815-3.6115003 2.0220126-4.9121723 1.3044312-1.300672 3.0759697-2.023924 4.9179874-2.0078277" fill="#ff703e"/><path d="m128.12 248.52c3.903493.075307 7.042126 3.236074 7.09 7.14.032186 1.877219-.691079 3.688681-2.007338 5.027504-1.31626 1.338824-3.115167 2.092772-4.992662 2.092496-3.906804-.124339-7.007384-3.331225-7-7.24-.000192-3.838821 3.091371-6.961612 6.93-7" fill="#fdc503"/><path d="m114.81 64.16c1.420703 1.7912078 2.048916 4.0846087 1.739343 6.3497768s-1.530118 4.3059055-3.379343 5.6502232c-.225556.1352082-.463256.2490367-.71.34-2.648067-2.044596-6.236221-2.3831746-9.22-.87-2.676935-1.972509-3.7924807-5.4359349-2.77-8.6.69992-3.2663531 3.443211-5.6976306 6.77-6-.16.44-.35.87-.48 1.31-.60742 2.1354959.61318 4.3628678 2.74 5 2.63.59 4.49-.57 5.06-3.15l.25-.07" fill="#fdc503"/><path d="m284.68 323.65c.09652.007944.191097.031588.28.07.160718 2.74836 1.740625 5.214835 4.17 6.51 2.42 1.46 5 1.36 7.61.56.26 4.26-2.11 7.88-6 8.73s-7.34-.25-9.57-4.31c-1.948025-3.595795-1.037849-8.070824 2.16-10.62.43-.33.88-.63 1.32-.94" fill="#46d7f7"/><path d="m360.52 328.72c-1.233376-3.079536-.312096-6.603395 2.270673-8.685236 2.582769-2.08184 6.221893-2.233893 8.969327-.374764 2.826925 1.937432 4.105771 5.460288 3.18 8.76-.862321 3.164903-3.719928 5.373425-7 5.41.218418-.492187.398943-1.00033.54-1.52.268782-1.306652-.052032-2.665347-.876893-3.713768s-2.069899-1.679969-3.403107-1.726232c-1.430598.077936-2.764068.748295-3.68 1.85" fill="#fe703e"/><path d="m322.74 133.84c-1.722716 1.736845-4.084388 2.688024-6.53 2.63-4.589946-.215983-8.168277-4.056251-8.06-8.65-.013683-2.180516.85129-4.274677 2.399748-5.809966 1.548459-1.535288 3.649933-2.382342 5.830252-2.350034.8 0 1.6.12 2.41.19-.014737.089397-.014737.180603 0 .27-4.53 5-1.11 12.41 3.87 13.44.021503.092405.038192.185864.05.28" fill="#fe703e"/><path d="m241.62 344c-.799838-4.116584 1.789856-8.131273 5.87-9.1 4.222779-1.02648 8.503149 1.462313 9.7 5.64 1.174289 3.598718-.369234 7.524636-3.68 9.36-.545691-3.353449-3.09599-6.026894-6.42-6.73-1.865021-.330378-3.786931-.038753-5.47.83" fill="#fcc504"/><path d="m217.81 355.91c-3.688726-.076584-6.621369-3.12099-6.56-6.81.065678-3.617675 3.031837-6.508007 6.65-6.48 3.603546.170227 6.442735 3.132477 6.46 6.74.008023 1.739615-.679488 3.410299-1.909594 4.640406-1.230107 1.230106-2.900791 1.917617-4.640406 1.909594" fill="#ff713f"/><path d="m177 128.16c-.979101-.804922-1.864657-1.717313-2.64-2.72-1.337314-2.43519-.973485-5.451902.904452-7.499318s4.852064-2.669903 7.393456-1.547455 4.084484 3.74004 3.836012 6.507136c-.248473 2.767097-2.233215 5.067905-4.93392 5.719637-.38.1-.79.14-1.19.21z" fill="#fdc505"/><path d="m65.85 98.47c-.51-.15-1-.27-1.53-.46-3.0728511-1.2148566-4.8038742-4.4859813-4.08-7.71.6402157-3.0138824 3.3399535-5.1417132 6.42-5.06 3.2876617.01858 6.0667198 2.4402676 6.5348266 5.6944865.4681069 3.2542189-1.5156985 6.361026-4.6648266 7.3055135-.38.12-.77.22-1.16.33h-1.52" fill="#fdc505"/><path d="m276.65 338.86c3.69257.054851 6.644503 3.087291 6.6 6.78.111427 2.441039-1.15143 4.739464-3.271595 5.954367s-4.741671 1.142307-6.791351-.188069c-2.04968-1.330375-3.183402-3.695166-2.937054-6.126298-.00535-1.70606.670698-3.343641 1.878008-4.549074 1.207311-1.205433 2.845943-1.878932 4.551992-1.870926" fill="#ff703e"/><path d="m73.93 346.84c-1.8327698-3.598648-.7799425-7.995608 2.4839684-10.373884 3.263911-2.378277 7.7719814-2.033313 10.6360316.813884 2.9569662 2.80542 3.4597146 7.33438 1.19 10.72-.36-.49-.69-1-1.07-1.47-1.8817759-2.496931-5.045742-3.66877-8.1-3-2.0674612.469947-3.8939647 1.674587-5.14 3.39" fill="#fcc504"/><path d="m102.42 119.41c-1.771047.036903-3.4790941-.657342-4.7221894-1.919358s-1.9114604-2.980354-1.8478106-4.750642c-.0576672-1.704113.5856401-3.357391 1.7799284-4.574356 1.1942882-1.216965 2.8351756-1.891252 4.5400716-1.865644 1.770429-.013443 3.472248.683915 4.724166 1.935834 1.251919 1.251918 1.949277 2.953737 1.935834 4.724166-.010797 3.542183-2.867952 6.417168-6.41 6.45" fill="#fdc505"/><path d="m177.06 36.33c.040671 1.7107137-.614093 3.3648022-1.814632 4.5841879-1.200539 1.2193858-2.844228 1.8998335-4.555368 1.8858121-3.621285-.0650994-6.528865-3.0081919-6.55-6.63.028581-2.3079358 1.28626-4.4253085 3.299282-5.5545243 2.013022-1.1292159 4.47556-1.09872 6.46.08s3.189299 3.3265885 3.160718 5.6345243" fill="#ff713f"/><path d="m243.22 36.32c.04336 1.7106779-.608828 3.36582-1.807487 4.5870957-1.19866 1.2212757-2.841324 1.9042843-4.552513 1.8929043-3.624845-.043808-6.540265-2.9948904-6.54-6.62-.013306-1.7114537.655197-3.3578103 1.857885-4.5755092 1.202689-1.2176989 2.840628-1.9065697 4.552115-1.9144908 1.740694.0158152 3.403494.723892 4.621197 1.9678631 1.217703 1.2439712 1.890136 2.9215018 1.868803 4.6621369" fill="#ff713f"/><path d="m201.34 451c-.029664-1.707409.630697-3.354591 1.831594-4.568664 1.200897-1.214072 2.840775-1.892368 4.548406-1.881336 3.621721.098187 6.487204 3.097572 6.42 6.72.007991 1.706964-.665191 3.346613-1.870332 4.555508-1.20514 1.208895-2.842687 1.887174-4.549668 1.884492-1.736465-.041895-3.384936-.772847-4.581816-2.031634-1.196879-1.258788-1.84384-2.941996-1.798184-4.678366" fill="#fdc505"/><path d="m19.56 116c1.7434503.031494 3.402623.755825 4.6109957 2.012983s1.8665026 2.943686 1.8290043 4.687017c-.0384657 3.556038-2.9438238 6.412228-6.5 6.39-1.7390928-.039307-3.3911209-.768788-4.591738-2.02756-1.2006172-1.258772-1.8511987-2.943433-1.808262-4.68244-.0396383-1.717942.6309314-3.376192 1.8535697-4.58369 1.2226384-1.207497 2.8891161-1.857352 4.6064303-1.79631" fill="#ff713f"/><path d="m253.36 350.23c.511969 3.122129-.966437 6.234353-3.71 7.81-1.831144 1.050998-4.006796 1.325283-6.041497.761654s-3.759127-1.918268-4.788503-3.761654c-2.18-3.69-.85-9.11 2.64-10.74.94 3.25 2.8 5.6 6.2 6.52 1.913616.412713 3.908735.209701 5.7-.58" fill="#45d7f8"/><path d="m305.09 145.64c.024908.852593-.301451 1.677996-.902689 2.283016-.601238.605019-1.424579.936546-2.277311.916984-.869968-.002-1.701624-.358121-2.303438-.986347-.601814-.628225-.921907-1.474401-.886562-2.343653-.024908-.852593.301451-1.677996.902689-2.283016.601238-.605019 1.424579-.936546 2.277311-.916984.869074.004807 1.699059.3618 2.300262.989388.601204.627589.922241 1.472132.889738 2.340612" fill="#ff703e"/><path d="m324.7 148.26c3.558193.016105 6.446377 2.882038 6.49 6.44.026708 1.711472-.629021 3.363167-1.822357 4.590277s-2.826092 1.928668-4.537643 1.949723c-3.631876-.065718-6.525715-3.057956-6.47-6.69-.000053-1.676911.669501-3.284421 1.859941-4.465473s2.803201-1.837857 4.480059-1.824527" fill="#fdc505"/><path d="m159.61 401.53c0 .11 0 .21-.05.32-1.428663 1.028265-3.139878 1.590521-4.9 1.61-3.475569-.080234-6.462544-2.488075-7.278652-5.867421-.816109-3.379347.742762-6.885005 3.798652-8.542579 1.848585-1.02515 4.072542-1.117815 6-.25-.08.46-.17.92-.24 1.38-.62 4.13-.15 8 2.64 11.35" fill="#fe703e"/><path d="m398.17 134.86c-.005203 1.705216-.691755 3.337617-1.906884 4.533966-1.215129 1.196348-2.858026 1.857391-4.563116 1.836034-3.535109-.152873-6.339835-3.032098-6.4-6.57-.048723-2.355929 1.193174-4.550354 3.237976-5.721489 2.044803-1.171135 4.565968-1.131956 6.573392.102151 2.007425 1.234107 3.180536 3.466061 3.058632 5.819338" fill="#47d8f9"/><path d="m121.54 402.63c-1-3.48 1-8.13 4.82-9.94 3.739255-1.729956 8.174003-.738081 10.82 2.42 2.94 3.56 2.69 8.62.43 11.23-.19-.5-.38-1-.59-1.5-1.052607-2.891391-3.540513-5.021868-6.559431-5.617061-3.018919-.595193-6.129285.431559-8.200569 2.707061-.23.24-.48.47-.72.7" fill="#fcc504"/><path d="m177 128.16 3.37.67c1.632269.986373 2.824103 2.561168 3.33 4.4.622923 2.559532-.355553 5.24245-2.48 6.8-2.133632 1.560406-5.019696 1.604498-7.2.11-2.191542-1.448579-3.305586-4.066387-2.83-6.65.64-3.06 2.39-4.67 5.81-5.33" fill="#47d8f9"/><path d="m119.69 144.91c-3.549104-.103502-6.356218-3.039832-6.3-6.59-.002941-1.707743.681025-3.344921 1.897952-4.543038 1.216926-1.198118 2.864558-1.856501 4.572048-1.826962 3.537363.164757 6.327249 3.068875 6.35 6.61-.010353 1.710553-.706108 3.345537-1.931543 4.539022-1.225436 1.193484-2.878228 1.84581-4.588457 1.810978" fill="#47d8f9"/><path d="m65.85 98.47h1.52c1.381272.3428544 2.6366897 1.0711354 3.62 2.1 2.0373538 2.196922 2.3059722 5.502995.65 8-1.5653136 2.387204-4.5437411 3.418356-7.25 2.51-2.6711822-.975628-4.4566154-3.50632-4.48-6.35.0835565-3.000045 2.2132149-5.5514995 5.15-6.17l.79-.16" fill="#46d8f9"/><path d="m121.54 402.63c.24-.23.49-.46.72-.7 2.072212-2.265526 5.176356-3.285633 8.188505-2.690968 3.01215.594664 5.495726 2.71791 6.551495 5.600968.21.5.4 1 .59 1.5l-.12.44c-.2.18-.39.37-.58.56-2.078716 2.198571-5.123058 3.205502-8.102765 2.680027-2.979706-.525476-5.495968-2.513026-6.697235-5.290027-.23-.49-.45-1-.67-1.48 0-.2.07-.41.1-.62" fill="#148d03"/><path d="m249.18 440.77c-3.49044.060751-6.369248-2.71956-6.43-6.21-.060751-3.49044 2.71956-6.369249 6.21-6.43 3.544992.038465 6.392229 2.934869 6.37 6.48.013424 1.636076-.629885 3.209185-1.785864 4.367044-1.155979 1.157858-2.728041 1.803722-4.364136 1.792956" fill="#ff713f"/><path d="m142.52 36.92c-.04866-1.6726508.581954-3.2937438 1.74812-4.493821s2.768522-1.8768866 4.44188-1.876179c3.492779.1024249 6.275324 2.9557506 6.29 6.45.024054 1.6696796-.621044 3.2795538-1.791431 4.4706053-1.170386 1.1910516-2.768724 1.8642244-4.438569 1.8693947-3.47874-.0493839-6.26338-2.9010694-6.23-6.38" fill="#fdc505"/><path d="m88.18 348.49c1.4446878 2.935389.87948 6.462927-1.41 8.8-2.0527611 2.388848-5.3702004 3.257038-8.33 2.18-3.0902758-.886791-5.3259393-3.57038-5.64-6.77-.23-1.87-.25-3.8 1.11-5.39.36.49.7 1 1.08 1.46 2.4512689 3.078241 6.7535571 3.962273 10.22 2.1 1.06877-.702564 2.0727476-1.499053 3-2.38" fill="#46d7f7"/><path d="m211.08 333c-.033394 2.527514-1.590684 4.784329-3.941843 5.712496-2.351158.928167-5.030105.343691-6.781002-1.479438-1.750898-1.82313-2.226657-4.523504-1.204252-6.835241 1.022405-2.311738 3.340298-3.776572 5.867097-3.707817 3.396125.113728 6.083582 2.912053 6.06 6.31" fill="#fdc505"/><path d="m239.47 392.05c-3.355385-.101413-6.03138-2.835319-6.060943-6.192105-.029564-3.356787 2.597865-6.1374 5.950943-6.297895 3.408749.09538 6.141958 2.850596 6.21 6.26.049003 1.644228-.573621 3.237526-1.724455 4.412886-1.150833 1.175359-2.730649 1.831439-4.375545 1.817114" fill="#fdc505"/><path d="m121.44 403.25c.22.49.44 1 .67 1.48 1.201267 2.777001 3.717529 4.764551 6.697235 5.290027 2.979707.525475 6.024049-.481456 8.102765-2.680027.19-.19.38-.38.58-.56.877139 4.596116-2.068169 9.053999-6.64 10.05-4.552271 1.04407-9.133287-1.624907-10.47-6.1-.942807-2.511233-.543414-5.329595 1.06-7.48" fill="#46d7f7"/><path d="m135 90c.010685 1.6441253-.636344 3.2242948-1.797061 4.3887682s-2.738788 1.8166047-4.382939 1.8112318c-3.406126-.1442509-6.097023-2.940846-6.11-6.35-.010801-1.6431491.638537-3.2218424 1.802323-4.3818677 1.163785-1.1600253 2.744571-1.8042512 4.387677-1.7881323 3.413448.0977993 6.123151 2.9052302 6.1 6.32" fill="#ff713f"/><path d="m387.83 345.76c-.050696-1.262383.036487-2.526528.26-3.77.920787-3.041318 3.988907-4.896862 7.11-4.3 3.163322.6255 5.432372 3.415592 5.4 6.64-.034191 3.163398-2.361 5.833507-5.49 6.3-.46.06-.94.08-1.4.12l-.34-.2c-.4926-2.539658-2.674502-4.402156-5.26-4.49z" fill="#fcc504"/><path d="m212.68 241.55c.024853 3.407597-2.717403 6.190147-6.125 6.215s-6.190147-2.717403-6.215-6.125c-.016077-2.204329 1.145063-4.249789 3.046029-5.365877 1.900966-1.116087 4.252957-1.133241 6.17-.045 1.917043 1.088242 3.107894 3.116548 3.123971 5.320877" fill="#45d7f8"/><path d="m322.74 133.84c-.011808-.094136-.028497-.187595-.05-.28 4.43-4.65 1.19-12.53-3.87-13.44-.014737-.089397-.014737-.180603 0-.27l4.32-2.54.36.13c1.92 3.23 4.78 4.39 8.42 3.85.109318.032084.213649.079202.31.14.896111 1.74997 1.244568 3.729206 1 5.68-.617544 4.195831-4.370501 7.20256-8.6 6.89l-1.82-.16" fill="#46d7f7"/><path d="m104.1 376.53c-2.61862.369773-5.1991921-.888849-6.52-3.18-1.521773-2.156635-1.6884311-4.989824-.43-7.31 1.0231527-2.2012 3.203524-3.634127 5.63-3.7 2.628218-.228976 5.151155 1.085135 6.47 3.37.342246.58114.64946 1.182211.92 1.8l-.15.18c-3.4.05-6 3.47-6 6.22 0 .87.07 1.75.1 2.62" fill="#fcc504"/><path d="m270.74 389c-.025112 3.328145-2.67349 6.042732-6 6.15-3.402593-.118696-6.097465-2.915345-6.09-6.32.086019-3.316259 2.782772-5.968803 6.1-6 3.3256.153197 5.955892 2.871165 6 6.2" fill="#47d8f9"/><path d="m393.37 350.55.34.2c0 .67.05 1.34 0 2-.081231 3.330075-2.798949 5.990158-6.13 6-3.299515-.001555-6.067575-2.48936-6.42-5.77-.430545-3.372475 1.900907-6.475167 5.26-7 .46-.09.92-.14 1.39-.22l.28.3c.571724 2.492621 2.708536 4.316629 5.26 4.49" fill="#46d7f7"/><path d="m110.17 367.51c.6.05 1.21.08 1.81.16 3.403496.576636 5.878503 3.548342 5.83 7 .087677 3.619746-2.652975 6.684373-6.26 7-3.283444.315714-6.308188-1.805426-7.13-5 4.71-1.41 6.76-4.69 5.6-9 .04448-.064393.094684-.124637.15-.18" fill="#46d7f7"/><path d="m146.28 57.41c-3-.62-4.93-2.32-5.46-5.42-.438303-2.8232137 1.128611-5.5756771 3.78-6.64 2.680252-.999616 5.696721-.042269 7.31 2.32 1.8 2.82 1.3 5.49-.63 8l-.37.1c-1.575657-.5532276-3.325101.0464635-4.23 1.45z" fill="#46d8f9"/><path d="m61.44 144.72c.005403 1.566334-.6164895 3.069639-1.7268764 4.17439-1.1103869 1.10475-2.616837 1.718984-4.1831236 1.70561-1.6001133-.015732-3.1276495-.669986-4.243081-1.81734-1.1154315-1.147355-1.7263332-2.69274-1.696919-4.29266-.0358903-1.602032.5847187-3.149097 1.7178107-4.282189 1.1330919-1.133092 2.6801573-1.753701 4.2821893-1.717811 3.3298687.130174 5.9390251 2.908525 5.86 6.24" fill="#ff713f"/><path d="m336.5 329.5c3.252217-.001157 5.913274 2.588939 6 5.84 0 3.230866-2.619134 5.85-5.85 5.85s-5.85-2.619134-5.85-5.85c-.060382-1.538731.513275-3.034835 1.586933-4.138737 1.073657-1.103901 2.553253-1.718888 4.093067-1.701263" fill="#47d8f9"/><path d="m238.6 81.68c4.004134-.4773917 7.645206 2.3605029 8.16 6.36.558326 3.9094706-2.014659 7.580787-5.88 8.39-1.861014.4265172-3.815394.00929-5.34-1.14 1.75-2.34 3.2-4.85 3.37-7.82.006164-1.9343074-.097335-3.8674089-.31-5.79" fill="#46d7f7"/><path d="m27.36 144.08 2.07-1.73c.7470543.761363 1.5492289 1.466608 2.4 2.11 2.39 1.57 4.93 1.42 7.5.43 2.49 3.37 1.15 8.21-2 10.34-3.73 2.56-8.51 1-10.13-1.86l1.16-.3c1.8964442-.42145 3.2765347-2.05954 3.37-4 .1581218-1.923453-.9224504-3.735118-2.69-4.51-.5638939-.210657-1.1420089-.381084-1.73-.51" fill="#46d7f7"/><path d="m197.33 470.51c-1.86 1.77-4 2.77-6.6 2-2.506147-.626329-4.359836-2.743121-4.65-5.31-.46253-2.471815.652212-4.972021 2.8-6.28 2.058978-1.431472 4.791022-1.431472 6.85 0l.86.54v.31c-3.27 2.44-2.93 6.59.69 8.49.031147.078436.057855.158563.08.24" fill="#46d7f7"/><path d="m279.39 107.17c-1.36-2.68-.74-5.14 1-7.33 1.665177-2.1710521 4.516005-3.059934 7.12-2.22 3.220679.8591478 5.416289 3.835089 5.286891 7.165879-.129397 3.33079-2.549266 6.127425-5.826891 6.734121.32-.49.63-1 1-1.48 1.137157-1.730394 1.028079-3.99681-.27-5.61-2.79-2.84-6.3-1.76-7.52 1.54-.17.47 0 1.14-.78 1.2" fill="#ff703e"/><path d="m322.79 81.29c.006279 2.9748343-2.365999 5.4093066-5.34 5.48-3.114526-.0381427-5.623869-2.5652822-5.64-5.68-.016027-1.4637543.554245-2.8730774 1.583686-3.9137903 1.029442-1.0407129 2.432472-1.6262974 3.896314-1.6262097 1.497664.0098362 2.927538.6256297 3.96372 1.7070275 1.036183 1.0813979 1.590381 2.5362532 1.53628 4.0329725" fill="#fdc505"/><path d="m80.36 384.71c1.5054425.002606 2.9475937.605905 4.0064568 1.676032 1.058863 1.070128 1.646868 2.518582 1.6335432 4.023968-.0465027 2.983349-2.4278238 5.404286-5.41 5.5-3.1281483-.059575-5.6388777-2.601356-5.66-5.73.0526401-2.983449 2.4470173-5.395465 5.43-5.47" fill="#ff713f"/><path d="m364.85 146.13c-3.041711-.071014-5.459203-2.577713-5.42-5.62.049328-2.974591 2.495255-5.348974 5.47-5.31 2.969268.102768 5.318013 2.549008 5.3 5.52.01603 1.429275-.540544 2.805534-1.545606 3.821868-1.005063 1.016334-2.375029 1.588222-3.804394 1.588132" fill="#fdc505"/><path d="m317.48 94.53c.073681 1.4350614-.457895 2.8352398-1.465384 3.8598362-1.007488 1.0245964-2.398517 1.5796724-3.834616 1.5301638-2.89491-.1208108-5.193427-2.478054-5.241181-5.3750904-.047753-2.8970364 2.171825-5.3287538 5.061181-5.5449096 1.468085-.0111744 2.878132.5725953 3.908691 1.6182269 1.03056 1.0456317 1.593796 2.4640051 1.561309 3.9317731" fill="#47d8f9"/><path d="m220.88 435.7c-.478756-3.28559 1.732653-6.359449 5-6.95 3.096085-.610187 6.178241 1.112941 7.28 4.07 1.262819 3.069248-.042574 6.593806-3 8.1-.14-.45-.26-.9-.42-1.35-.711918-2.158927-2.503087-3.786918-4.72-4.29-1.398353-.259403-2.841718-.113679-4.16.42" fill="#fcc504"/><path d="m88.18 348.49c-.9272524.880947-1.93123 1.677436-3 2.38-3.4664429 1.862273-7.7687311.978241-10.22-2.1-.38-.47-.72-1-1.08-1.46v-.47c1.2460353-1.715413 3.0725388-2.920053 5.14-3.39 3.054258-.66877 6.2182241.503069 8.1 3 .38.47.71 1 1.07 1.47l-.06.54" fill="#148d03"/><path d="m229.93 441.23c.363104 3.143937-1.74636 6.040644-4.85 6.66-3.18794.593672-6.3239-1.26056-7.34-4.34-.995398-2.923327.274915-6.13722 3-7.59.330247 2.300348 1.812375 4.272748 3.93 5.23 1.690393.700024 3.589607.700024 5.28 0" fill="#46d7f7"/><path d="m154.8 436.49c-.711826-2.848475.625248-5.813037 3.231541-7.164978 2.606294-1.35194 5.799863-.73752 7.718459 1.484978 1.985229 2.250864 2.234326 5.546295.61 8.07-.33.51-.74 1-1.11 1.44l-.29-.05c-.351583-2.386416-2.115927-4.320865-4.46-4.89-2.12-.7-3.93 0-5.7 1.11" fill="#fcc504"/><path d="m333.33 373.45c2.819589.983062 4.621616 3.743896 4.386668 6.720688s-2.447772 5.420748-5.386668 5.949312c-2.583608.466401-5.178404-.758697-6.46-3.05 4.246751-1.343374 7.22036-5.172841 7.47-9.62" fill="#ff713f"/><path d="m165 440.27.29.05c.09 2.14-.2 4.16-1.83 5.77-1.630438 1.801855-4.200082 2.417457-6.47 1.55-2.474588-.739061-4.198617-2.978687-4.28-5.56-.15-2 .25-3.88 2-5.19.27.53.51 1.09.82 1.61.908313 1.624219 2.491187 2.761033 4.320455 3.102934s3.715894-.146442 5.149545-1.332934" fill="#46d7f7"/><path d="m212.66 100.05c-.036867 2.687991-2.192525 4.865735-4.88 4.93-1.34006.000172-2.624106-.53758-3.564122-1.492636-.940015-.955056-1.457319-2.247475-1.435878-3.587364-.010666-1.2958687.496656-2.5423296 1.409241-3.462426.912586-.9200964 2.154846-1.4376179 3.450759-1.437574 2.750122.0270968 4.972903 2.2498783 5 5" fill="#fdc505"/><path d="m179 373c-1.334724.013348-2.619377-.507538-3.567901-1.44667-.948524-.939133-1.482166-2.218539-1.482099-3.55333-.001745-2.69263 2.129115-4.903066 4.82-5 2.732585.068412 4.931588 2.267415 5 5 .029465 1.303809-.463098 2.565372-1.368211 3.504285-.905112.938913-2.147776 1.477379-3.451789 1.495715" fill="#ff713f"/><path d="m391 279.22c1.329666.021008 2.596186.570844 3.519479 1.527915.923292.957071 1.427284 2.242522 1.400521 3.572085.00561 1.300207-.513229 2.547764-1.439186 3.460547-.925958.912783-2.18082 1.413693-3.480814 1.389453-2.690864-.111325-4.825118-2.30706-4.86-5-.005822-2.701239 2.159109-4.906261 4.86-4.95" fill="#fdc505"/><path d="m24.93 321.16c-.0148954 1.296344-.5557101 2.531036-1.4984406 3.420974s-2.2065076 1.35878-3.5015594 1.299026c-2.6945668-.145097-4.7878732-2.40215-4.73-5.1.0157829-1.308412.5521225-2.556638 1.4904195-3.468663.9382969-.912025 2.2012482-1.412709 3.5095805-1.391337 1.3319335.054397 2.5870006.638413 3.4864099 1.622318.8994092.983905 1.3686866 2.286229 1.3035901 3.617682" fill="#fdc607"/><path d="m396.15 182.86c-.022231-2.698504 2.141606-4.907048 4.84-4.94 2.692124.115768 4.829652 2.305858 4.88 5 .029474 1.300398-.460362 2.558954-1.36116 3.497286-.900799.938332-2.138322 1.479108-3.43884 1.502714-1.329159.034413-2.613049-.484037-3.545609-1.431761s-1.430237-2.239808-1.374391-3.568239" fill="#47d8f9"/><path d="m387.4 174.19c-2.68347-.074986-4.828833-2.255664-4.86-4.94-.010683-1.294952.496953-2.540397 1.409831-3.45891.912879-.918514 2.155176-1.433804 3.450169-1.43109 2.761424 0 5 2.238576 5 5-.007115 1.30409-.543445 2.549397-1.486095 3.45057-.942649.901173-2.210814 1.380963-3.513905 1.32943" fill="#ff713f"/><path d="m198.59 16.2.21.4 1 .51c.18.63.33 1.26.52 1.88.682464 2.1188381-.136493 4.4323907-2 5.65-1.914369 1.1553602-4.36757.8713824-5.967365-.6907706-1.599795-1.5621529-1.942094-4.007898-.832635-5.9492294 1.047537-1.9708938 3.34767-2.9194885 5.48-2.26.52.14 1 .31 1.55.46" fill="#48d8f9"/><path d="m220.48 116.39c.002887 2.618861-2.054024 4.777075-4.67 4.9-2.701544-.050921-4.894518-2.200036-5-4.9-.080883-1.776209.820657-3.453228 2.346832-4.365507 1.526174-.912278 3.430162-.912278 4.956336 0 1.526175.912279 2.427715 2.589298 2.346832 4.365507" fill="#47d8f9"/><path d="m296.74 330.79c-2.61.8-5.19.9-7.61-.56-2.429375-1.295165-4.009282-3.76164-4.17-6.51 3.68-2.15 9.53-.37 11.36 4.63.25.69.39 1.42.58 2.13-.047275.106349-.100699.209858-.16.31" fill="#148d03"/><path d="m238.6 81.68c.212665 1.9225911.316164 3.8556926.31 5.79-.17 3-1.62 5.48-3.37 7.82-.106127.0151797-.213873.0151797-.32 0-.47-.49-1-.94-1.39-1.46-1.5923-1.8701331-2.165014-4.4028182-1.532273-6.7760979.632742-2.3732797 2.390299-4.28469 4.702273-5.1139021.44-.17.9-.28 1.35-.42l.28.16" fill="#465f3d"/><path d="m253.36 350.23c-1.791265.789701-3.786384.992713-5.7.58-3.4-.92-5.26-3.27-6.2-6.52.065358-.103753.119019-.214428.16-.33 1.683069-.868753 3.604979-1.160378 5.47-.83 3.32401.703106 5.874309 3.376551 6.42 6.73z" fill="#148d03"/><path d="m304.05 71.83c-.048826 2.4202148-2.019315 4.3596373-4.44 4.37-2.487908-.0812854-4.457597-2.130827-4.44-4.62-.00288-1.1985909.476794-2.3478954 1.330887-3.1888196s2.010712-1.3026833 3.209113-1.2811804c2.485534.1397558 4.408868 2.2314927 4.34 4.72" fill="#ff7241"/><g fill="#fdc607"><path d="m49.62 178.58c-.0161129 2.417211-1.9629549 4.377388-4.38 4.41-1.2309085-.020406-2.4012704-.53764-3.2450076-1.434111-.8437371-.89647-1.2891562-2.096003-1.2349924-3.325889.0653439-2.420778 2.0584466-4.342699 4.48-4.32 2.4839123.113337 4.425922 2.183927 4.38 4.67"/><path d="m248.92 141.81c.041071 1.198796-.410177 2.362189-1.248854 3.219755s-1.991733 1.33461-3.191146 1.320245c-2.482476-.112677-4.43329-2.165003-4.42-4.65.019649-1.582687.88216-3.034667 2.262631-3.808993 1.380472-.774326 3.069179-.75336 4.430001.055 1.360822.808361 2.187018 2.281306 2.167368 3.863993"/><path d="m396.14 157.34c-.043874-1.197845.405077-2.361335 1.242193-3.219237.837115-.857902 1.989246-1.335249 3.187807-1.320763 2.485832.107015 4.446952 2.151867 4.45 4.64-.017863 1.586259-.880629 3.042493-2.263301 3.820153-1.382673.77766-3.075191.7586-4.44-.05-1.36481-.8086-2.194562-2.283894-2.176699-3.870153"/><path d="m172.66 161.44c.022501 2.418106-1.902406 4.405394-4.32 4.46-2.483051-.052598-4.486464-2.047205-4.55-4.53-.063636-1.634619.776716-3.171818 2.187063-4.000644 1.410346-.828826 3.162197-.815 4.559287.035981s2.213077 2.401252 2.12365 4.034663"/><path d="m385.22 318.71c-1.195239-.01055-2.337174-.496191-3.173884-1.349786-.836711-.853595-1.299444-2.005002-1.286116-3.200214-.028198-2.419906 1.890813-4.414609 4.31-4.48 1.231364.002446 2.410107.499549 3.271361 1.379608.861255.880059 1.332786 2.069263 1.308639 3.300392-.02747 2.422241-2.007661 4.366672-4.43 4.35"/></g><path d="m410.44 269.29c.062362 2.413027-1.818592 4.431829-4.23 4.54-2.561916-.032934-4.616706-2.127927-4.6-4.69-.044628-1.625375.806751-3.144011 2.216662-3.953941 1.40991-.80993 3.150665-.780359 4.532252.076992s2.180894 2.404028 2.081086 4.026949" fill="#ff7241"/><path d="m204.1 195.25c-1.196011-.002529-2.341126-.484249-3.179285-1.337442-.83816-.853194-1.299447-2.006691-1.280715-3.202558-.03137-1.197428.434695-2.354353 1.28736-3.195649s2.015741-1.29179 3.21264-1.244351c2.489468.0816 4.450606 2.149709 4.4 4.64-.038358 2.419922-2.019833 4.356768-4.44 4.34" fill="#ff713f"/><path d="m239.7 316.32c.039687 2.418078-1.863155 4.423176-4.28 4.51-1.229626-.002595-2.407259-.496323-3.271086-1.371417s-1.342253-2.059026-1.328914-3.288583c.047464-2.413429 1.986811-4.361591 4.4-4.42 2.481919.06472 4.464652 2.087285 4.48 4.57" fill="#fdc505"/><path d="m364.76 102.79c2.482107.079223 4.468087 2.087171 4.52 4.57.089341 1.629781-.724758 3.176659-2.118718 4.025801s-3.14193.862968-4.549148.035982c-1.407218-.826985-2.245683-2.360793-2.182134-3.991783-.059743-1.194417.367061-2.362067 1.182985-3.236406.815925-.874339 1.951323-1.380736 3.147015-1.403594" fill="#fdc607"/><path d="m146.34 338.36c2.485281-.016569 4.513431 1.984719 4.53 4.47s-1.984719 4.513431-4.47 4.53c-1.195354-.023508-2.331722-.523841-3.156217-1.389654-.824495-.865814-1.268707-2.025271-1.233783-3.220346-.024399-1.160263.422313-2.280912 1.2382-3.10622s1.931333-1.284857 3.0918-1.27378" fill="#fdc505"/><path d="m14.78 309.83c.0307019 1.164581-.4191242 2.29049-1.2438387 3.113313-.8247146.822823-1.9516537 1.270063-3.1161613 1.236687-2.48693143.011083-4.51348175-1.993099-4.53-4.48-.0499057-1.636969.8033711-3.169053 2.22134978-3.988501 1.41797869-.819447 3.17146272-.793806 4.56487442.066753 1.3934116.860559 2.2015253 2.416938 2.1037758 4.051748" fill="#ff7241"/><path d="m74.14 322.34c2.4804533.026067 4.4955663 2.010247 4.56 4.49.0524671 2.435576-1.8794243 4.452533-4.315 4.505s-4.4525329-1.879424-4.505-4.315c-.0764574-1.190714.3339357-2.361426 1.1371091-3.243785.8031734-.88236 1.9302532-1.400703 3.1228909-1.436215" fill="#fdc505"/><path d="m259.7 178.65c-1.195065.02139-2.349128-.435661-3.205495-1.269492s-1.344024-1.975297-1.354505-3.170508c0-2.435576 1.974424-4.41 4.41-4.41s4.41 1.974424 4.41 4.41c.055245 1.159531-.37074 2.290416-1.17726 3.125334-.806519.834919-1.921992 1.299768-3.08274 1.284666" fill="#fdc505"/><path d="m33.07 368.55c-2.4852814.022091-4.5179086-1.974719-4.54-4.46s1.9747186-4.517909 4.46-4.54c2.4870553.065368 4.4626827 2.112189 4.44 4.6.0107174 1.16143-.4445491 2.278693-1.2639573 3.10186s-1.9345762 1.283542-3.0960427 1.27814" fill="#ff7241"/><path d="m119.35 358.52c-.029502-1.160588.406151-2.284815 1.209998-3.122468.803847-.837654 1.909184-1.319225 3.070002-1.337532 2.560361.043838 4.603417 2.149481 4.57 4.71.016193 1.623-.856476 3.124909-2.274516 3.914562-1.41804.789654-3.15438.740605-4.525581-.127841-1.3712-.868446-2.157692-2.417224-2.049903-4.036721" fill="#ff713f"/><path d="m149.37 379.08c-1.194843.025606-2.347366-.442636-3.185791-1.29431-.838426-.851674-1.288543-2.011395-1.244209-3.20569-.05157-1.159044.369604-2.289366 1.167048-3.132055s1.902828-1.325538 3.062952-1.337945c1.22747-.022083 2.410898.457181 3.277102 1.327159s1.340318 2.055478 1.312898 3.282841c.002721 1.162388-.45989 2.277514-1.284638 3.096626s-1.94302 1.274066-3.105362 1.263374" fill="#fdc505"/><path d="m157.65 329.67c.063975 1.161045-.357412 2.296462-1.163363 3.134651s-1.923977 1.303761-3.086637 1.285349c-1.846636.102505-3.567948-.935295-4.339325-2.616233s-.43572-3.662674.84617-4.995839c1.28189-1.333166 3.248945-1.74625 4.958829-1.04136s2.814363 2.384197 2.784326 4.233432" fill="#ff7241"/><path d="m279.39 107.17c.79-.06.61-.73.78-1.2 1.22-3.3 4.73-4.38 7.52-1.54 1.291439 1.59641 1.416315 3.840143.31 5.57-.34.49-.65 1-1 1.48-.189842.057658-.38371.101111-.58.13-4.06.4-5.57-.56-7-4.48" fill="#fd5701"/><path d="m284.16 120.32c-.013125 1.156342-.487195 2.259627-1.317017 3.065043-.829822.805415-1.946765 1.246348-3.102983 1.224957-2.402224-.100284-4.309726-2.056021-4.35-4.46-.039123-1.613623.810401-3.118567 2.212141-3.918839s3.129578-.766779 4.499251.087215 2.160236 2.390729 2.058608 4.001624" fill="#48d8f9"/><path d="m240.72 158.35c-2.406913-.054051-4.334376-2.012531-4.35-4.42.045502-2.400093 1.951561-4.349969 4.35-4.45 2.46887.101059 4.425441 2.119184 4.45 4.59-.049225 2.409725-2.040186 4.324626-4.45 4.28" fill="#48d8f9"/><path d="m354.38 120.14c-.021407-1.157001.421201-2.274431 1.229066-3.102963.807865-.828531 1.913761-1.299217 3.070934-1.307037 2.388979.092577 4.302858 2.010817 4.39 4.4.041775 1.193495-.411228 2.351254-1.251879 3.199477-.84065.848224-1.994299 1.311592-3.188121 1.280523-2.398695-.081495-4.289567-2.070247-4.25-4.47" fill="#48d8f9"/><path d="m263.85 414c2.411456.004682 4.380395 1.929276 4.44 4.34.018594 2.338047-1.814348 4.272574-4.15 4.38-1.159481.018929-2.277455-.431257-3.10026-1.248413-.822805-.817157-1.280682-1.932004-1.26974-3.091587-.057031-1.126406.344641-2.227876 1.113386-3.053147.768746-.825271 1.838998-1.303954 2.966614-1.326853" fill="#fdc607"/><path d="m301 174.27c-.118079 2.328976-1.999409 4.179892-4.33 4.26-1.775141.011748-3.380169-1.053916-4.058246-2.694488-.678076-1.640572-.293799-3.528451.97163-4.773422 1.265429-1.244972 3.159319-1.598432 4.788623-.893709 1.629303.704723 2.668669 2.326905 2.627993 4.101619" fill="#47d8f9"/><path d="m211.33 419.7c-1.161545.020689-2.279778-.440655-3.088837-1.274345-.809058-.83369-1.236668-1.965253-1.181163-3.125655-.033566-1.126517.399198-2.21696 1.196119-3.013881s1.887364-1.229685 3.013881-1.196119c1.158061.007854 2.264951.478221 3.074399 1.306449.809447.828228 1.254306 1.945615 1.235601 3.103551.011092 1.125994-.434757 2.208385-1.235691 2.999896s-1.888525 1.22452-3.014309 1.200104" fill="#ff7241"/><path d="m266.74 94.45c.054198 1.1239833-.347075 2.2223443-1.113068 3.0466808-.765993.8243364-1.831999 1.3050123-2.956932 1.3333192-1.159645.0268005-2.281762-.4117293-3.115944-1.2177294s-1.311002-1.9123891-1.324056-3.0722706c-.078741-2.340154 1.750132-4.3031746 4.09-4.39 1.158716-.0241155 2.278737.4172902 3.10945 1.2254496.830712.8081593 1.302771 1.9156093 1.31055 3.0745504" fill="#fdc607"/><path d="m249.09 410.34c-1.162472.017888-2.280593-.445738-3.089318-1.280978s-1.236051-1.967731-1.180682-3.129022c-.019404-1.124983.421018-2.209186 1.219446-3.001951s1.885737-1.22546 3.010554-1.198049c1.158879-.000453 2.268644.467963 3.076715 1.298637.808072.830675 1.245701 1.952938 1.213285 3.111363.008302 1.125148-.438435 2.205901-1.23875 2.996801-.800315.790899-1.886279 1.224816-3.01125 1.203199" fill="#ff7241"/><path d="m123.57 170.07c.029196 1.134258-.424689 2.227548-1.24863 3.007621-.82394.780073-1.940404 1.173525-3.07137 1.082379-1.161863.007088-2.275245-.465176-3.077679-1.30546-.802433-.840284-1.222915-1.974236-1.162321-3.13454.113176-2.334779 2.062932-4.156029 4.4-4.11 1.163121-.021535 2.280635.452045 3.074118 1.302751.793483.850705 1.188227 1.998439 1.085882 3.157249" fill="#48d8f9"/><path d="m20.08 279.26c-2.3637787 0-4.28-1.916221-4.28-4.28s1.9162213-4.28 4.28-4.28 4.28 1.916221 4.28 4.28-1.9162213 4.28-4.28 4.28" fill="#48d8f9"/><path d="m100.28 320.57c-1.156275-.004999-2.2618119-.475466-3.0671081-1.305222-.8052961-.829756-1.2424821-1.948871-1.2128919-3.104778-.0057903-2.263289 1.8070267-4.111739 4.07-4.15 1.155284-.018706 2.270127.4251 3.09648 1.232672.826352.807572 1.295666 1.911919 1.30352 3.067328.016041 1.122537-.417992 2.204773-1.205223 3.005156-.787232.800383-1.862128 1.252286-2.984777 1.254844" fill="#fdc607"/><path d="m147 83.27c-1.727648.0609267-3.320056-.9306786-4.027557-2.5079938-.707501-1.5773151-.389104-3.4260078.805299-4.675761s3.026787-1.6515122 4.634513-1.0161393 2.670401 2.1812587 2.687745 3.9098941c.057821 1.1214707-.349143 2.2171916-1.125015 3.0290184s-1.852047 1.2679759-2.974985 1.2609816" fill="#48d8f9"/><path d="m244.11 422.52c-1.134389.058599-2.240196-.367864-3.041489-1.172973-.801294-.805109-1.222498-1.912929-1.158511-3.047027-.038557-1.13165.389201-2.2295 1.183219-3.036752.794018-.807251 1.884648-1.253096 3.016781-1.233248 2.342682.123277 4.170083 2.074269 4.14 4.42.019891 1.097668-.412247 2.155264-1.195134 2.924913-.782886.769649-1.847697 1.183692-2.944866 1.145087" fill="#47d8f9"/><path d="m101.92 397 .84 3.33c-.360652 1.359936-1.132486 2.575313-2.21 3.48-.112821-.015239-.227179-.015239-.34 0-1.2494348-1.412209-3.3408649-1.704925-4.93-.69-.111392-.029763-.225149-.049838-.34-.06-.4711455-.957473-.8366328-1.963401-1.09-3-.2762476-1.648025.5281064-3.288907 2-4.08 1.4491662-.95251 3.3365794-.908709 4.74.11.45.29.88.61 1.32.92" fill="#fcc504"/><path d="m183.76 65.71c1.122979-.0680726 2.222708.3399161 3.029568 1.1239401.806859.7840241 1.246245 1.8715895 1.210432 2.9960599.029555 1.1246241-.389052 2.2148907-1.163657 3.0307581-.774605.8158675-1.841699 1.2904436-2.966343 1.3192419-2.333776-.1050337-4.184901-2.0042965-4.23-4.34-.01885-1.092333.40332-2.1461677 1.171112-2.923369.767792-.7772014 1.816406-1.2121754 2.908888-1.206631" fill="#47d8f9"/><path d="m333.33 373.45c-.24964 4.447159-3.223249 8.276626-7.47 9.62-.118508-.028352-.232807-.072055-.34-.13-.305653-.816424-.5464-1.655696-.72-2.51-.317904-2.009807.328196-4.052079 1.744218-5.513335 1.416023-1.461256 3.436975-2.171235 5.455782-1.916665.4 0 .79.14 1.19.21l.18.23" fill="#465f3d"/><path d="m405.11 300.34c-2.188829-.436249-3.692365-2.458247-3.48-4.68.154728-2.087523 1.74646-3.783426 3.82-4.07 2.094088-.294178 4.091249.977899 4.71 3 .168966 1.115204.202543 2.24674.1 3.37-.111538.025815-.216885.073391-.31.14-2.23-.53-3.66.61-4.84 2.29" fill="#fcc504"/><path d="m249.1 373.65c-2.256109-.103042-4.054114-1.922814-4.13-4.18-.022529-2.257973 1.772574-4.115437 4.03-4.17 2.263688.063058 4.082403 1.886166 4.14 4.15-.004312 2.271401-1.809678 4.129866-4.08 4.2" fill="#ff7241"/><path d="m185.93 55c-.029706-1.0797942.378571-2.1256999 1.13196-2.8998074.75339-.7741075 1.787837-1.2106011 2.86804-1.2101926 2.227736.08347 4.008321 1.8815541 4.07 4.11.055812 1.4963424-.716531 2.9019348-2.009521 3.6571386-1.29299.7552039-2.896701.7374068-4.172612-.0463052-1.275912-.783712-2.016873-2.2060981-1.927867-3.7008334" fill="#fdc607"/><path d="m142.71 156.74c.001107 1.092802-.444939 2.138477-1.23448 2.894019-.78954.755541-1.853824 1.155158-2.94552 1.105981-2.265347-.123156-4.030162-2.011508-4-4.28-.001515-1.098274.448616-2.148856 1.244817-2.905342.796202-.756486 1.868423-1.152318 2.965183-1.094658 2.264209.097433 4.024607 2.005275 3.94 4.27" fill="#fdc607"/><path d="m94.94 403c.114851.010162.228608.030237.34.06 1.2557051 1.400485 3.3380543 1.69193 4.93.69.112821-.015239.227179-.015239.34 0 .759886.960779 1.140636 2.16708 1.07 3.39-.091523 2.260195-1.9000316 4.07305-4.16 4.17-2.2533088.000848-4.1516285-1.68273-4.42-3.92-.2072705-1.71343.5174179-3.406912 1.9-4.44" fill="#46d7f7"/><path d="m197.27 252.81c-.012991 1.084761-.460631 2.118964-1.242619 2.870876-.781988.751911-1.832944 1.158667-2.917381 1.129124-2.270069-.113011-4.040603-2.007482-4-4.28.05462-2.252707 1.916971-4.039134 4.17-4 2.28125.097479 4.062169 2.007515 4 4.29" fill="#ff7241"/><path d="m261.42 42.46c.03394 1.4415667-.703764 2.7917363-1.935227 3.5419128-1.231464.7501765-2.769597.7863902-4.035001.095-1.265403-.6913903-2.065832-2.0053461-2.099772-3.4469128-.074002-1.0896518.300769-2.1621774 1.037315-2.9686003.736545-.806423 1.770805-1.2766057 2.862685-1.3013997 2.264015.0100271 4.110584 1.8167422 4.17 4.08" fill="#fdc607"/><path d="m280.83 151.05-.37-.11c-.36-2.41-1.9-4-3.76-5.34.94-2.91 3.31-4.22 5.83-3.23 1.206331.463756 2.157835 1.419662 2.616018 2.628121.458184 1.208459.379613 2.554914-.216018 3.701879-.730057 1.573509-2.373277 2.515354-4.1 2.35" fill="#fdc505"/><path d="m334.58 185.05c2.257875-.034114 4.128638 1.743333 4.21 4 .054823 1.095074-.342275 2.164646-1.098445 2.958624s-1.80511 1.242747-2.901555 1.241376c-2.261737.039621-4.138585-1.739381-4.22-4-.054823-1.095074.342275-2.164646 1.098445-2.958624s1.80511-1.242747 2.901555-1.241376" fill="#ff713f"/><path d="m136.43 428.84c-.02714-1.056785.375884-2.079317 1.116763-2.833392.74088-.754076 1.756137-1.175088 2.813237-1.166608 2.261601-.005715 4.107151 1.80863 4.14 4.07-.014291 1.441567-.796562 2.766005-2.052141 3.474413-1.255579.708407-2.793712.693159-4.035-.04-1.241288-.73316-1.99715-2.072846-1.982859-3.514413" fill="#ff7241"/><path d="m285.44 411.92c.299758.521171.570179 1.058674.81 1.61.399552 1.007851.372884 2.134719-.073898 3.12254-.446782.987822-1.275403 1.751975-2.296102 2.11746-2.159337.694691-4.473213-.491339-5.17-2.65-.335014-1.031602-.236735-2.155025.272312-3.112787.509046-.957762 1.385214-1.667741 2.427688-1.967213.780974-.169189 1.572959-.282807 2.37-.34l.52.43 1.16.81" fill="#48d8f9"/><path d="m142.93 114.86c-.038547-1.05827.359376-2.0859 1.10058-2.842231.741205-.756331 1.760588-1.174932 2.81942-1.157769 2.275588.065336 4.078234 1.94365 4.05 4.22-.065335 2.20556-1.904334 3.941647-4.11 3.88-1.058425-.017971-2.064844-.462168-2.791412-1.232029s-1.111838-1.800277-1.068588-2.857971" fill="#48d8f9"/><path d="m253.44 60.57c-2.182684.0395283-3.993951-1.6782829-4.07-3.86-.033757-2.2526138 1.748082-4.1146354 4-4.18 2.193389.108577 3.934873 1.8848914 4 4.08.041367 1.0573173-.354252 2.0850541-1.093899 2.8417264-.739647.7566724-1.758116 1.1755728-2.816101 1.1582736" fill="#48d8f9"/><path d="m410 298.05c.093115-.066609.198462-.114185.31-.14l.87.48c2.049993 1.102957 2.861073 3.629363 1.836189 5.719483-1.024885 2.090119-3.518916 2.995872-5.646189 2.050517-1.016632-.452353-1.810944-1.291385-2.206992-2.331245s-.36114-2.194714.096992-3.208755c2.06 0 3.86-.41 4.74-2.57" fill="#46d7f7"/><path d="m197.33 470.51c-.022145-.081437-.048853-.161564-.08-.24 1.040273-1.214781 1.552503-2.79461 1.422949-4.388685s-.890168-3.070457-2.112949-4.101315v-.31c.897377-.267169 1.818228-.44799 2.75-.54 1.333613.01459 2.603659.572156 3.517018 1.544016.913359.971859 1.391107 2.274033 1.322982 3.605984-.02252 1.301051-.573393 2.536951-1.525929 3.42347-.952537.886519-2.224754 1.347356-3.524071 1.27653-.605221-.05086-1.206492-.141051-1.8-.27" fill="#fe703e"/><path d="m42.71 108.86c2.1890708.075341 3.9259144 1.869637 3.93 4.06-.0351564 2.117271-1.7143385 3.840295-3.83 3.93-2.1784018-.0725-3.9274996-1.821598-4-4-.0002459-2.185918 1.7543278-3.967211 3.94-4" fill="#fdc607"/><path d="m355 354.66c1.061932-.033041 2.090958.370825 2.846931 1.117348s1.172751 1.770388 1.153069 2.832652c.029549 1.020969-.349934 2.011447-1.054112 2.751303-.704177.739855-1.674705 1.16779-2.695888 1.188697-1.08524.0165-2.130596-.408716-2.896177-1.178069-.765582-.769352-1.185656-1.816785-1.163823-2.901931.005282-1.017528.415256-1.991129 1.139441-2.705934.724186-.714804 1.703049-1.11205 2.720559-1.104066" fill="#ff7241"/><path d="m165 440.27c-1.433651 1.186492-3.320277 1.674835-5.149545 1.332934s-3.412142-1.478715-4.320455-3.102934c-.31-.52-.55-1.08-.82-1.61.05-.14.09-.27.13-.4 1.76-1.07 3.58-1.81 5.7-1.11 2.344073.569135 4.108417 2.503584 4.46 4.89" fill="#178e05"/><path d="m159.61 401.53c-2.79-3.34-3.26-7.22-2.64-11.35.07-.46.16-.92.24-1.38.099662-.043792.203534-.077299.31-.1.941913.628369 1.837544 1.323485 2.68 2.08 2.83 2.85 2.56 8.62-.59 10.75" fill="#465f3d"/><path d="m337.85 117c.27-.75.53-1.49.79-2.23.47639-.362596.973936-.696519 1.49-1 .893046-.489052 1.945309-.598206 2.919722-.302873.974413.295334 1.789013.970314 2.260278 1.872873.995177 1.868307.304605 4.189517-1.55 5.21-.901707.473864-1.956794.562675-2.925026.24621s-1.767196-1.011269-2.214974-1.92621c-.3-.6-.51-1.23-.77-1.85" fill="#ff7241"/><path d="m333.8 93.75c-2.126573-.0920317-3.786569-1.872188-3.73-4 .009699-1.0195881.434159-1.9912685 1.175603-2.6912072.741445-.6999386 1.73594-1.0677814 2.754397-1.0187928 2.097317.1286852 3.713363 1.8996941 3.65 4-.101703 2.0484638-1.799056 3.6532333-3.85 3.64" fill="#ff7241"/><path d="m62.69 385.24c-1.1998941-.519704-2.0928725-1.563972-2.42-2.83-.4542366-1.852379.5274367-3.755971 2.3-4.46 1.7199321-.640619 3.6515078.046819 4.58 1.63.9939786 1.61893.6585154 3.720882-.79 4.95-.4421937.30768-.9068288.581782-1.39.82z" fill="#fdc607"/><path d="m152.63 63.41c.231243.8444458.355548 1.714584.37 2.59-.185861 1.6778609-1.355988 3.0824553-2.972677 3.5683335-1.61669.4858783-3.367278-.0409266-4.447323-1.3383335-1.172104-1.2841167-1.426958-3.1596838-.64-4.71.292911-.5186203.648957-.9989466 1.06-1.43h.31c1.71 2.38 3.56 2.78 6 1.32z" fill="#fdc607"/><path d="m62.69 385.24 2.28.11c.4596078.265158.8976276.566088 1.31.9.7735347.715461 1.2133339 1.72132 1.2133339 2.775s-.4397992 2.059539-1.2133339 2.775c-.7429799.70207-1.7493931 1.055181-2.7681545.971239-1.0187613-.083943-1.9538029-.597025-2.5718455-1.411239-1.3167227-1.644507-1.0671777-4.041921.56-5.38.3866462-.267693.787208-.514706 1.2-.74" fill="#48d8f9"/><path d="m59.44 362.37c.0613215.993544-.3045365 1.965993-1.0055441 2.672731-.7010077.706738-1.6704454 1.0805-2.6644559 1.027269-2.058599-.049088-3.6969713-1.740886-3.68-3.8-.0498964-1.358035.6526937-2.633034 1.8274189-3.316239s2.6303565-.663401 3.7860597.051511 1.8233458 2.008553 1.7365214 3.364728" fill="#48d8f9"/><path d="m229.93 441.23c-1.690393.700024-3.589607.700024-5.28 0-2.117625-.957252-3.599753-2.929652-3.93-5.23l.16-.26c1.317046-.538654 2.761864-.684525 4.16-.42 2.216913.503082 4.008082 2.131073 4.72 4.29.16.45.28.9.42 1.35-.077799.107677-.161249.211156-.25.31" fill="#178e05"/><path d="m208 45.54-.36-.14c-1.21-3.06-.88-4.56 1.39-6.41.41.32.82.64 1.25 1 1.45909 1.2586176 3.345171 1.9099779 5.27 1.82.10938.0193474.216571.049495.32.09.159866 1.9095036-.665947 3.7685254-2.19 4.93h-.48c-1.485078-1.1189011-3.372251-1.5616609-5.2-1.22" fill="#fe703e"/><path d="m27.36 144.08c.5879911.128916 1.1661061.299343 1.73.51 1.7675496.774882 2.8481218 2.586547 2.69 4.51-.0934653 1.94046-1.4735558 3.57855-3.37 4l-1.16.3-.54-.35c-1.4811957-2.751938-1.3898186-6.083393.24-8.75z" fill="#465f3d"/><path d="m345.79 163.19c.321107-1.9063 1.987107-3.291799 3.92-3.26 2.164004.043637 3.966726 1.671628 4.23 3.82-.04001 1.125842-.173806 2.246389-.4 3.35l-.41.14c-2.912115-.242008-5.582492-1.715445-7.34-4.05" fill="#fd5701"/><path d="m152.63 63.41h-.32c-.416165-.5938157-.888327-1.1463457-1.41-1.65-1.52-1.21-3.06-1.06-4.61.33h-.29c-.473481-1.5444543-.366803-3.2086408.3-4.68l.4-.16c1.564491.2632134 3.155998-.2823387 4.23-1.45l.37-.1c.1.08.19.17.3.25 3.15 2 3.52 4.61 1 7.46" fill="#ff713f"/><path d="m114.56 64.23c-.57 2.58-2.43 3.74-5.06 3.15-2.12682-.6371322-3.34742-2.8645041-2.74-5 .13-.44.32-.87.48-1.31.09199-.0902309.21184-.1466305.34-.16 2.78.19 5.42.67 7 3.37" fill="#fd5701"/><path d="m360.52 328.72c.915932-1.101705 2.249402-1.772064 3.68-1.85 1.333208.046263 2.578246.677811 3.403107 1.726232s1.145675 2.407116.876893 3.713768c-.141057.51967-.321582 1.027813-.54 1.52l-.4.2c-3.034837-.260001-5.712692-2.088225-7.06-4.82z" fill="#465f3d"/><path d="m283 407c.13764-.141254.261531-.295282.37-.46 1.19-2.39 2.87-3.21 5-2.44 2.139507.735902 3.305124 3.040544 2.63 5.2-.08.33-.17.65-.25 1l-.52.33c-2.599972-.112963-5.077596-1.135868-7-2.89z" fill="#fd5701"/><path d="m110 367.69c1.16 4.29-.89 7.58-5.6 9-.103757-.055987-.210593-.106067-.32-.15 0-.87-.11-1.74-.1-2.62 0-2.75 2.62-6.17 6-6.22" fill="#178e05"/><path d="m272.77 161c-.308842-.94465-.487158-1.92707-.53-2.92.115549-1.58207 1.100567-2.968908 2.5563-3.599096 1.455734-.630188 3.14105-.399338 4.3737.599096.33.24.62.51.93.77v.48c-1.387504 2.665017-4.013394 4.461876-7 4.79l-.39-.17" fill="#465f3d"/><path d="m118.81 321c1.815861.870071 2.771953 2.894981 2.29 4.85-.353277 1.832875-1.831725 3.239008-3.68 3.5-.4.07-.8.07-1.2.1l-.35-.32c-.071628-.861397-.088329-1.726481-.05-2.59.054274-2.220759 1.169871-4.280896 3-5.54" fill="#465f3d"/><path d="m118.81 321c-1.830129 1.259104-2.945726 3.319241-3 5.54-.038329.863519-.021628 1.728603.05 2.59-1.57744-.315453-2.859905-1.461245-3.350374-2.993324-.49047-1.53208-.111854-3.209639.989114-4.38254 1.100969-1.1729 2.751244-1.65679 4.31126-1.264136.33.07.65.16 1 .24.014919.089382.014919.180618 0 .27" fill="#ff7241"/><path d="m39.33 144.89c-2.57 1-5.11 1.14-7.5-.43-.8507711-.643392-1.6529457-1.348637-2.4-2.11 0-.09 0-.19.06-.29 3.94-1.67 7.2-.7 9.88 2.54v.29" fill="#178e05"/><path d="m384.11 149c.000238.749592-.302244 1.467515-.838834 1.990926-.53659.52341-1.261812.807949-2.011166.789074-1.480294-.098731-2.637261-1.316591-2.66-2.8-.045366-.75219.228037-1.488725.753217-2.029127.525179-.540403 1.253604-.834734 2.006783-.810873.751508-.009288 1.473366.292783 1.994282.834537.520916.541753.794459 1.274897.755718 2.025463" fill="#fdc607"/><path d="m273.16 161.2c2.986606-.328124 5.612496-2.124983 7-4.79 1.29 2.31.82 4.64-1.21 6s-4.23.87-5.78-1.18" fill="#46d7f7"/><path d="m416 263.09c.013572.71668-.263767 1.408288-.768739 1.917029s-1.1945.791214-1.911261.782971c-.717288.00414-1.404171-.289374-1.896964-.810597-.492793-.521224-.74736-1.223474-.703036-1.939403-.019681-.681244.242992-1.340346.725851-1.821311.482859-.480966 1.142988-.741047 1.824149-.718689.714702-.053795 1.418868.196865 1.938825.690158.519957.493292.807305 1.1833.791175 1.899842" fill="#48d8f9"/><path d="m208.69 199.66c-.022052-.717385.251158-1.412408.755822-1.922742.504665-.510335 1.196591-.791294 1.914178-.777258 1.47419.119782 2.60965 1.350952 2.61 2.83-.10241 1.397209-1.221705 2.503687-2.62 2.59-.715141-.002553-1.399367-.291887-1.89938-.803179-.500014-.511293-.774017-1.201801-.76062-1.916821" fill="#48d8f9"/><path d="m360.48 329.21c1.347308 2.731775 4.025163 4.559999 7.06 4.82-1.341831 1.779693-3.832494 2.216652-5.7 1-1.90644-1.280606-2.49999-3.816288-1.36-5.81" fill="#46d7f7"/><path d="m27 144.27c-1.6298186 2.666607-1.7211957 5.998062-.24 8.75-2.2127111-.234498-3.869982-2.135999-3.8-4.36 0-2.36 1.42-3.9 4-4.39" fill="#ff7241"/><path d="m345.79 163.19c1.757508 2.334555 4.427885 3.807992 7.34 4.05-1.64 1.75-3.55 2.19-5.42 1.24s-2.72-2.84-2.25-5.3h.33" fill="#fdc607"/><path d="m103.24 75.6c2.983779-1.5131746 6.571933-1.174596 9.22.87.004843.0932705.004843.1867295 0 .28-2.986516 1.4284518-6.516147 1.1019898-9.19-.85 0-.1 0-.2 0-.3" fill="#178e05"/><path d="m283.13 407.75c1.923739 1.753418 4.399872 2.779244 7 2.9-1.22 1.72-2.93 1.64-4.72 1.27l-1.17-.81-.52-.43c-.21-1-.43-2-.64-2.95" fill="#fdc607"/><path d="m114.56 64.23c-1.56-2.7-4.2-3.18-7-3.37.903635-1.4058126 2.671184-1.98246 4.23-1.38 1.539838.4003462 2.673311 1.7088108 2.85 3.29.07.46.1.93.15 1.39l-.25.07" fill="#ff7241"/><path d="m215.56 41.76c-1.924829.0899779-3.81091-.5613824-5.27-1.82-.43-.31-.84-.63-1.25-1-.015192-.102775-.015192-.207225 0-.31 2.85-.83 4.67-.31 6.1 1.8.191934.404511.320117.8362863.38 1.28" fill="#fd5701"/><path d="m276.7 145.6c1.85 1.36 3.4 2.93 3.76 5.34-2-.05-3-1.26-3.57-3-.189921-.772643-.323604-1.558033-.4-2.35.060207-.052364.149793-.052364.21 0" fill="#fd5701"/><path d="m410 298.05c-.88 2.16-2.68 2.61-4.74 2.57-.018268-.098047-.052024-.192563-.1-.28 1.18-1.68 2.61-2.82 4.84-2.29" fill="#178e05"/><path d="m208 45.54c1.827749-.3416609 3.714922.1010989 5.2 1.22-2.21 1-3.55.64-5.2-1.22" fill="#465f3d"/><path d="m210.38 150.53c-.357587 3.302313-2.820921 5.988482-6.08 6.63.351388-3.305116 2.817594-5.994416 6.08-6.63" fill="#178e05"/><path d="m331.89 121.29c-3.64.54-6.5-.62-8.43-3.85 3.354937-.747725 6.798164.824804 8.43 3.85" fill="#178e05"/><path d="m183.87 439.54c-2.366326-.079145-4.252146-2.005-4.281573-4.372466-.029426-2.367467 1.807945-4.339598 4.171573-4.477534 2.417596.049178 4.346913 2.031963 4.33 4.45.092174 1.161154-.31634 2.30634-1.122608 3.146999-.806268.840658-1.933402 1.296623-3.097392 1.253001" fill="#465f3d"/><path d="m318.82 120.12c5.06.91 8.3 8.79 3.87 13.44-5-1-8.4-8.4-3.87-13.44" fill="#465f3d"/><path d="m393.37 350.55c-2.551464-.173371-4.688276-1.997379-5.26-4.49 2.585498.087844 4.7674 1.950342 5.26 4.49" fill="#178e05"/><path d="m150.91 55.8c-1.072964 1.1692496-2.665355 1.7151048-4.23 1.45.904899-1.4035365 2.654343-2.0032276 4.23-1.45" fill="#465f3d"/><path d="m196.56 461.78c1.222781 1.030858 1.983395 2.50724 2.112949 4.101315s-.382676 3.173904-1.422949 4.388685c-3.62-1.9-4-6-.69-8.49" fill="#465f3d"/><path d="m100.21 403.72c-1.5919457 1.00193-3.6742949.710485-4.93-.69 1.5891351-1.014925 3.6805652-.722209 4.93.69" fill="#178e05"/><path d="m283.76 410.67.52.44z" fill="#fff"/><path d="m146.29 62.1c1.55-1.39 3.09-1.54 4.61-.33.527179.4984454.999839 1.0515575 1.41 1.65-2.46 1.46-4.31 1.06-6-1.32" fill="#fd5701"/><g fill="#fff" transform="translate(3 210)"><path d="m.71 46.62h13.78v-35.52h-13.78v-9.51h38.32v9.51h-13.86v35.52h13.86v9.5h-38.32z"/><path d="m48.93 2.14c2.3813878-.45582933 4.784525-.78959838 7.2-1 2.62-.24 5.23-.35 7.83-.35 2.7266049.00226626 5.448646.2229723 8.14.66 2.6031418.39306001 5.1037762 1.29342431 7.36 2.65 2.2205148 1.36021432 4.058219 3.26330496 5.34 5.53 1.4852988 2.84238 2.1957947 6.0258158 2.06 9.23.0805138 2.9443626-.5326649 5.8663817-1.79 8.53-1.1252881 2.2782831-2.7487006 4.2742261-4.75 5.84-2.0061544 1.5463986-4.2959976 2.6845254-6.74 3.35-2.5501852.7040578-5.1844209 1.0573077-7.83 1.05h-1.25c-.57 0-1.16 0-1.79 0s-1.23-.06-1.83-.11-1-.11-1.28-.16v18.77h-10.67zm15.89 7.86c-1 0-2 0-3 .11-.7575517.0553795-1.5118382.1488309-2.26.28v17.68c.2.05.52.1.93.16s.86.09 1.33.11.92 0 1.36 0h1c1.3991514.0009877 2.7952962-.129587 4.17-.39 1.3151196-.235255 2.5718419-.7243578 3.7-1.44 1.1135788-.7246243 2.0143742-1.7324108 2.61-2.92.7198304-1.5335969 1.0626886-3.2170306 1-4.91.0527814-1.4703147-.2707733-2.9297532-.94-4.24-.5858275-1.0825144-1.4267842-2.0058505-2.45-2.69-1.052788-.6913844-2.2321837-1.1672213-3.47-1.4-1.3170244-.2628435-2.6570079-.39349193-4-.39z" fill-rule="nonzero"/><path d="m96.52 1.59h34.59v9.51h-23.92v13.47h22.21v9.51h-22.21v22.04h-10.67z"/><path d="m141.78 38.28h8.57v7.72l.47.15c1.269016.5460548 2.584233.9777672 3.93 1.29 1.495297.3439459 3.025701.5117535 4.56.5 2.387822.144429 4.760368-.4679538 6.78-1.75 1.550981-1.0589298 2.458543-2.8326302 2.41-4.71.049139-1.6657897-.692527-3.2566635-2-4.29-1.4879-1.1883725-3.137891-2.1581629-4.9-2.88-1.953333-.8266667-4.083333-1.6566667-6.39-2.49-2.247322-.7972799-4.392271-1.858006-6.39-3.16-1.934492-1.2598001-3.602729-2.8872658-4.91-4.79-1.415073-2.2305057-2.113041-4.8409078-2-7.48-.012256-2.2063053.462355-4.3881488 1.39-6.39.900761-1.92088442 2.203452-3.62597751 3.82-5 1.732053-1.45715007 3.728358-2.56733983 5.88-3.27 2.461456-.8079013 5.039562-1.20323342 7.63-1.17 3.136481-.00145399 6.266409.28643244 9.35.86 2.545283.40117708 5.013982 1.19035144 7.32 2.34v15.81h-8.57v-8.65c-.156077.0012356-.311355-.0223936-.46-.07-2.494277-.6543328-5.061343-.99033614-7.64-1-2.064282-.1096869-4.113619.4061326-5.88 1.48-1.366908.8644243-2.179442 2.3831784-2.14 4-.034806 1.637455.70684 3.1949098 2 4.2 1.494233 1.211223 3.141793 2.2199333 4.9 3 1.946667.8866667 4.076667 1.77 6.39 2.65 2.237266.849853 4.379027 1.932465 6.39 3.23 1.934787 1.2635493 3.602944 2.8943342 4.91 4.8 1.39432 2.1506947 2.092622 4.6785479 2 7.24.056997 2.5410386-.477037 5.0605834-1.56 7.36-1.018306 2.0836778-2.511733 3.8990828-4.36 5.3-1.979912 1.480936-4.228005 2.5642316-6.62 3.19-2.695888.7029911-5.47424 1.0393533-8.26 1-1.840136.0127605-3.677645-.141202-5.49-.46-1.581426-.2835131-3.141704-.6744178-4.67-1.17-1.289918-.4132146-2.552434-.9075331-3.78-1.48-1.09-.52-2-1-2.65-1.33z"/><path d="m248.42 37.82h8.58v15.58c-1.924454 1.3129537-4.073307 2.2619738-6.34 2.8-2.582333.6739673-5.241185 1.0101053-7.91 1-3.308881.018846-6.599796-.4874486-9.75-1.5-3.052084-.9948925-5.83634-2.6743395-8.14-4.91-2.491264-2.4914792-4.406191-5.4986996-5.61-8.81-1.501025-4.20694-2.212942-8.654727-2.1-13.12-.141138-4.5961288.669142-9.1718288 2.38-13.44 1.374515-3.318488 3.460189-6.29509638 6.11-8.72 2.410195-2.16124456 5.253357-3.78396019 8.34-4.76 2.909368-.93466757 5.944246-1.42024804 9-1.44 2.657988-.04749965 5.312483.21425841 7.91.78 1.833119.41313269 3.619104 1.01292894 5.33 1.79v16.21h-8.56v-8.88c-1.653608-.263062-3.325602-.3934776-5-.39-1.941311-.01915562-3.865388.3656597-5.65 1.13-1.771719.7773684-3.334306 1.963015-4.56 3.46-1.378341 1.74275-2.39795 3.7411829-3 5.88-.776431 2.7239185-1.143776 5.5480951-1.09 8.38-.034708 2.5913058.302047 5.1742172 1 7.67.602309 2.1752903 1.621153 4.2129785 3 6 1.265384 1.6348685 2.890864 2.9557846 4.75 3.86 1.997904.9362263 4.184004 1.4014996 6.39 1.36 1.677871.0037974 3.352228-.1535921 5-.47z"/><path d="m267.59 19.82c2.323099-1.0170351 4.732758-1.8236015 7.2-2.41 3.181241-.7228878 6.438188-1.0586556 9.7-1 2.339156-.0453735 4.669967.2924253 6.9 1 1.72435.5493556 3.296245 1.4945474 4.59 2.76 1.173004 1.2080658 2.040414 2.6788928 2.53 4.29.542724 1.8196819.805727 3.711282.78 5.61 0 2.65-.09 4.9-.27 6.77s-.27 3.54-.27 5c0 1.0866667.05 2.3066667.15 3.66.11.73.18 1.43.24 2.1h5.06v8.57h-13.08l-1-5.29h-.39c-1.140846 1.6951677-2.656664 3.1049128-4.43 4.12-2.37053 1.2833716-5.047603 1.8921117-7.74 1.76-3.873333 0-6.946667-1.04-9.22-3.12-2.287866-2.1228497-3.530492-5.1417001-3.4-8.26-.050641-1.9483512.360567-3.8810262 1.2-5.64.79373-1.5855311 1.994758-2.9315109 3.48-3.9 1.683074-1.0768648 3.546039-1.842374 5.5-2.26 2.351361-.5144109 4.753134-.7626388 7.16-.74.982137.0014001 1.963511.0548082 2.94.16 1 .1 2.29.21 3.79.31.099449-.5140534.149676-1.0364153.15-1.56v-1.48c0-2-.56-3.39-1.7-4.24-1.484831-.9559196-3.238035-1.4082463-5-1.29-2.410577-.0338528-4.812011.3034271-7.12 1-1.816918.5540339-3.597113 1.2220246-5.33 2zm13.26 28.59c3.356192.3535589 6.599246-1.3309402 8.24-4.28v-4.68c-.52-.1-1.29-.22-2.31-.35-1.10163-.1324107-2.210456-.1958677-3.32-.19-.979546.0004267-1.956984.0908061-2.92.27-.910169.1590898-1.792603.4487439-2.62.86-.729177.3516989-1.363532.8728987-1.85 1.52-.472186.6569992-.714693 1.4512987-.69 2.26-.077144 1.2560882.384796 2.4855041 1.27 3.38.84.81 2.24 1.21 4.2 1.21z" fill-rule="nonzero"/><path d="m326.09 56.12v-23.83c.022332-1.2671643-.081514-2.5334054-.31-3.78-.145106-.7938671-.422281-1.5577889-.82-2.26-.279868-.4954981-.721019-.8801814-1.25-1.09-.48674-.1790804-1.001362-.2704936-1.52-.27-.888399.0033973-1.750387.3024542-2.45.85-.730861.541446-1.264647 1.3070073-1.52 2.18v28.2h-9.35v-39h7.4l1.09 4.29h.24c.788232-1.5172452 1.969341-2.7950525 3.42-3.7 1.590362-.9821509 3.431289-1.4823275 5.3-1.44 1.714252-.0008814 3.401724.4252825 4.91 1.24 1.637227.9358165 2.797633 2.5254645 3.19 4.37.714013-1.7417857 1.973708-3.2049969 3.59-4.17 1.574454-.9509339 3.38068-1.4492031 5.22-1.44 1.280388-.0207247 2.55505.1753772 3.77.58 1.146671.4108378 2.159652 1.1264934 2.93 2.07.922575 1.1756587 1.571631 2.5420933 1.9 4 .492058 2.1304923.71712 4.3139309.67 6.5v26.64h-9.35v-24.86c0-2.34-.376667-3.9766667-1.13-4.91-.646232-.8828887-1.67588-1.4032883-2.77-1.4-.850881-.0228033-1.689463.2068498-2.41.66-.723572.5076547-1.224699 1.2736634-1.4 2.14v28.43z"/><path d="m354.06 17.17h13.24l1.17 4.68h.31c2.7-3.84 7.063333-5.7633333 13.09-5.77 2.243483-.0226184 4.472603.360194 6.58 1.13 1.978298.744361 3.74338 1.9634354 5.14 3.55 1.516882 1.7687651 2.644643 3.8368942 3.31 6.07.838009 2.8596029 1.232594 5.8307937 1.17 8.81.044058 3.0520367-.405057 6.0911602-1.33 9-.786298 2.5116631-2.083454 4.8336071-3.81 6.82-1.671068 1.8746756-3.751526 3.3392086-6.08 4.28-2.602497 1.0275552-5.382446 1.5305288-8.18 1.48-1.589944.0046895-3.177915-.1123189-4.75-.35-1.351162-.1700681-2.667211-.5513849-3.9-1.13v16h-10.12v-46h-5.84zm24.77 7.48c-1.908503-.0153326-3.784149.4968367-5.42 1.48-1.643305 1.0064024-2.852101 2.5896053-3.39 4.44v16.21c.948369.6662326 2.024208 1.1292518 3.16 1.36 1.364536.3353974 2.764852.503301 4.17.5 1.36817.0089304 2.725577-.2421899 4-.74 1.267901-.5098142 2.390904-1.3237334 3.27-2.37.997973-1.2154163 1.739537-2.6203049 2.18-4.13.559306-1.9495909.822246-3.9722074.78-6 0-3.43-.83-6.07-2.49-7.94-1.578517-1.831495-3.892692-2.8620546-6.31-2.81z" fill-rule="nonzero"/></g><path d="m146.44 176.28c-1.196927-.005197-2.342003-.489144-3.17987-1.343919s-1.298843-2.009289-1.28013-3.206081c-.03137-1.197428.434695-2.354353 1.28736-3.195649s2.015741-1.29179 3.21264-1.244351c2.487925.081611 4.446168 2.151371 4.39 4.64-.038286 2.417616-2.012087 4.355774-4.43 4.35" fill="#ff713f"/><g fill="#48d8f9"><path d="m327.38 171.73c.010839.717613-.268762 1.409156-.775306 1.917584-.506545.508428-1.197045.790592-1.914694.782416-.717288.00414-1.404171-.289374-1.896964-.810597-.492793-.521224-.74736-1.223474-.703036-1.939403-.013958-.681329.25194-1.338606.7357-1.818586.483759-.47998 1.143101-.740715 1.8243-.721414.714702-.053795 1.418868.196865 1.938825.690158.519957.493292.807305 1.1833.791175 1.899842"/><path d="m269.39 323.54c.010839.717613-.268762 1.409156-.775306 1.917584-.506545.508428-1.197045.790592-1.914694.782416-.717288.00414-1.404171-.289374-1.896964-.810597-.492793-.521224-.74736-1.223474-.703036-1.939403-.016743-.680393.246872-1.337766.729073-1.818076s1.140605-.74134 1.820927-.721924c.715586-.05359 1.420633.196808 1.94212.689746.521486.492938.81114 1.182786.79788 1.900254"/><path d="m355 288.68c.008121.715891-.272681 1.404831-.778925 1.911075s-1.195184.787046-1.911075.778925c-.715442.003964-1.400656-.288194-1.893125-.807181s-.748321-1.218567-.706875-1.932819c-.016871-.682183.248095-1.341176.732507-1.821803.484413-.480628 1.145463-.740418 1.827493-.718197.714702-.053795 1.418868.196865 1.938825.690158.519957.493292.807305 1.1833.791175 1.899842"/><path d="m416 199.62c.013643.715786-.264 1.406422-.769286 1.913593-.505285.507171-1.194882.787384-1.910714.776407-.716371.006935-1.403371-.284306-1.896495-.803983s-.747967-1.220994-.703505-1.936017c-.019681-.681244.242992-1.340346.725851-1.821311.482859-.480966 1.142988-.741047 1.824149-.718689.714702-.053795 1.418868.196865 1.938825.690158.519957.493292.807305 1.1833.791175 1.899842"/></g><path d="m116.1 280.83c.002723 2.250594-.893544 4.409063-2.489643 5.995773-1.596099 1.586711-3.759818 2.470228-6.010357 2.454227-4.741327-.171709-8.5016402-4.0556-8.52-8.8.0052768-4.68707 3.783132-8.496147 8.47-8.54 2.318048.028624 4.527843.985444 6.134812 2.656317 1.60697 1.670872 2.476934 3.916281 2.415188 6.233683" fill="#ff703e"/><path d="m175.75 293.34c.022595 2.414303-1.896336 4.400019-4.31 4.46-2.486428-.057637-4.491434-2.05385-4.56-4.54-.061452-1.634486.780717-3.170394 2.191866-3.997423 1.411149-.82703 3.162723-.811233 4.558726.041115 1.396002.852349 2.210331 2.403196 2.119408 4.036308" fill="#fdc607"/><path d="m126.66 302c.026044 1.130656-.427762 2.219495-1.249083 2.996986-.82132.777492-1.933386 1.170963-3.060917 1.083014-1.162774.015792-2.279812-.452361-3.08388-1.29246s-1.222836-1.976574-1.15612-3.13754c.107858-2.334779 2.053079-4.160362 4.39-4.12 1.16404-.018651 2.281382.457237 3.074506 1.309464s1.187616 2.000834 1.085494 3.160536" fill="#48d8f9"/><path d="m145.8 288.64c.001107 1.092802-.444939 2.138477-1.23448 2.894019-.78954.755541-1.853824 1.155158-2.94552 1.105981-2.267701-.118106-4.035359-2.0095-4-4.28-.001371-1.096445.447398-2.145385 1.241376-2.901555s1.86355-1.153268 2.958624-1.098445c2.268263.097395 4.030259 2.011442 3.94 4.28" fill="#fdc607"/><path d="m149.53 308.17c-1.195168-.005228-2.338699-.487803-3.176273-1.340401s-1.299745-2.004527-1.283727-3.199599c-.034361-1.198298.43075-2.356994 1.284093-3.198959.853343-.841966 2.018178-1.291483 3.215907-1.241041 2.485499.081575 4.445063 2.143571 4.4 4.63-.038329 2.421525-2.018198 4.361262-4.44 4.35" fill="#ff713f"/><path d="m318.26 312.29c.3163-2.227898 1.509178-4.237243 3.313641-5.581671s4.071088-1.912611 6.296359-1.578329c4.668052.845159 7.839453 5.220722 7.19 9.92-.671204 4.635498-4.947119 7.868072-9.59 7.25-2.290521-.352978-4.343599-1.610341-5.698997-3.490228-1.355399-1.879887-1.899741-4.225048-1.511003-6.509772" fill="#ff703e"/><path d="m261 291.49c.3169-2.396116 2.499684-4.093343 4.9-3.81 2.454117.400234 4.159097 2.660324 3.87 5.13-.162249 1.631493-1.210389 3.040791-2.726213 3.665586-1.515825.624795-3.252599.363388-4.517352-.679921-1.264753-1.043308-1.851617-2.698696-1.526435-4.305665" fill="#fdc607"/><path d="m310.79 289.88c.131534-1.124089.733101-2.139846 1.655594-2.795502s2.079559-.889837 3.184406-.644498c1.155489.151754 2.196378.775693 2.874835 1.723258.678457.947566.933775 2.133973.705165 3.276742-.445312 2.295015-2.631992 3.82215-4.94 3.45-1.152352-.145219-2.189042-.772375-2.852538-1.725674-.663495-.953298-.891532-2.143277-.627462-3.274326" fill="#48d8f9"/><path d="m290 300.37c.155436-1.081721.746687-2.052745 1.636343-2.687404s2.000243-.877684 3.073657-.672596c2.209998.458065 3.671103 2.570506 3.32 4.8-.157444 1.084103-.752622 2.056194-1.646595 2.689346-.893972.633151-2.0085.871952-3.083405.660654-2.225308-.424809-3.695878-2.559363-3.3-4.79" fill="#fdc607"/><path d="m289 280.5c1.182835.174887 2.246679.815355 2.954746 1.778852.708066.963496 1.001595 2.170063.815254 3.351148-.1324 1.192027-.75551 2.274977-1.719532 2.988505-.964021.713528-2.18176.993096-3.360468.771495-2.452733-.427559-4.10072-2.754391-3.69-5.21.379705-2.387696 2.607369-4.027258 5-3.68" fill="#ff713f"/><path d="m206.67 302.37c-3.73.25-6.71-2.67-7.66-5.2-1.249094-3.237954-.383543-6.910592 2.18-9.25 2.57-2.3 5.79-2.62 9.19-.94.077218.791857.210891 1.577188.4 2.35.56 1.7 1.6 2.91 3.57 3l.37.11c-.11 1.64.22 3.35-.73 4.87-.31-.25-.6-.53-.92-.76-1.225541-1.000722-2.904754-1.239777-4.360875-.620821-1.456121.618957-2.449247 1.993948-2.579125 3.570821.041568.990646.223378 1.970395.54 2.91" fill="#fe703e"/><path d="m214.72 292.4-.37-.11c-.36-2.41-1.9-4-3.76-5.34.94-2.91 3.31-4.22 5.83-3.23 1.208463.461149 2.162159 1.416891 2.620718 2.626339s.378238 2.557235-.220718 3.703661c-.73237 1.571386-2.37394 2.512286-4.1 2.35" fill="#fdc505"/><path d="m206.67 302.37c-.316622-.939605-.498432-1.919354-.54-2.91.129878-1.576873 1.123004-2.951864 2.579125-3.570821 1.456121-.618956 3.135334-.379901 4.360875.620821.32.23.61.51.92.76 0 .17 0 .33.05.49-1.387504 2.665017-4.013394 4.461876-7 4.79l-.38-.18" fill="#465f3d"/><path d="m207.05 302.55c2.986606-.328124 5.612496-2.124983 7-4.79 1.29 2.31.82 4.64-1.2 6s-4.24.87-5.79-1.18" fill="#46d7f7"/><path d="m210.59 287c1.86 1.35 3.4 2.93 3.76 5.34-2-.05-3-1.26-3.57-3-.189109-.772812-.322782-1.558143-.4-2.35.058327-.057171.151673-.057171.21 0" fill="#fd5701"/><path d="m288.49 197.09c3.66-2.49 7.08-2.66 10.15-.5 3.509472 2.497988 4.581565 7.234141 2.49 11-2.101546 3.843749-6.751858 5.499966-10.81 3.85-3.908794-1.657579-5.933445-6.000433-4.69-10.06.16-.58.39-1.14.6-1.71z" fill="#ff703d"/><path d="m288.49 197.09-2.26 2.58c-1.328346.472175-2.769105.527991-4.13.16-.030605-.114726-.081398-.223085-.15-.32.457706-1.830509-.489656-3.720985-2.23-4.45-.03819-.110178-.085002-.217176-.14-.32.517393-.918976 1.130826-1.780464 1.83-2.57 1.202637-1.164902 3.016872-1.426959 4.5-.65 1.615176.660144 2.648564 2.256109 2.59 4v1.61" fill="#fcc504"/><path d="m279.58 194.74c.054998.102824.10181.209822.14.32-.435693 1.828022.504825 3.70484 2.23 4.45.068602.096915.119395.205274.15.32-.368063 1.1642-1.141587 2.157716-2.18 2.8-1.915752 1.197192-4.428652.732804-5.79-1.07-1.273644-1.858503-.96505-4.374403.72-5.87 1.297097-1.132124 3.096362-1.493498 4.73-.95" fill="#46d7f7"/><path d="m282 199.51c-1.724236-.745528-2.661404-2.624086-2.22-4.45 1.736407.732615 2.67904 2.622128 2.22 4.45" fill="#178e05"/><path d="m372.27 201.34c2.54833-2.786718 6.609877-3.598279 10.033432-2.004838 3.423554 1.59344 5.417785 5.22357 4.926442 8.96768s-3.354689 6.736776-7.073459 7.392922c-3.718771.656147-7.433396-1.175889-9.176415-4.525764-.367363-.863454-.671497-1.752462-.91-2.66.031227-.107296.048041-.218269.05-.33.43297-.123019.844447-.311894 1.22-.56 1.89-1.71 2.15-3.58.93-6.28" fill="#fdc503"/><path d="m364.89 207c-1.163222 1.998613-2.983163 3.532311-5.15 4.34-4.3958 1.62437-9.277622-.610897-10.92-5-1.602695-4.382595.555332-9.246999 4.88-11 2.272532-.937504 4.834014-.87934 7.06165.16035s3.917365 2.965666 4.65835 5.30965l-.09.38c-1.61 1.89-1.74 3.26-.49 5.31z" fill="#45d7f8"/><path d="m365.33 201.23.09-.38c2.86-1.62 4.39-1.51 6.54.48-.26.46-.52.91-.77 1.37-1.04286 1.623212-1.42566 3.583719-1.07 5.48-.00685.111265-.023583.2217-.05.33-1.86785.421613-3.821635-.140383-5.18-1.49l-.05-.47c.901005-1.626506 1.078747-3.55628.49-5.32" fill="#fe703e"/><path d="m370.12 208.18c-.35566-1.896281.02714-3.856788 1.07-5.48.25-.46.51-.91.77-1.37.102796-.014907.207204-.014907.31 0 1.22 2.7 1 4.57-.93 6.28-.375553.248106-.78703.436981-1.22.56" fill="#fd5701"/><path d="m365.33 201.23c.588747 1.76372.411005 3.693494-.49 5.32-1.25-2.06-1.12-3.43.49-5.32" fill="#465f3d"/><path d="m411.37 222.53c.008121.715891-.272681 1.404831-.778925 1.911075s-1.195184.787046-1.911075.778925c-.715442.003964-1.400656-.288194-1.893125-.807181s-.748321-1.218567-.706875-1.932819c-.016871-.682183.248095-1.341176.732507-1.821803.484413-.480628 1.145463-.740418 1.827493-.718197.714702-.053795 1.418868.196865 1.938825.690158.519957.493292.807305 1.1833.791175 1.899842" fill="#48d8f9"/><path d="m409.05 241.16c-1.195065.02139-2.349128-.435661-3.205495-1.269492s-1.344024-1.975297-1.354505-3.170508c0-2.435576 1.974424-4.41 4.41-4.41s4.41 1.974424 4.41 4.41c.05823 1.160327-.36677 2.292942-1.173943 3.128538-.807174.835595-1.92441 1.299519-3.086057 1.281462" fill="#fdc505"/><path d="m64.85 293.05c-1.7718999.036765-3.4808615-.657182-4.7255126-1.918857-1.2446512-1.261675-1.9153187-2.979906-1.8544874-4.751143-.0547728-1.703301.5894787-3.354896 1.7831314-4.571213 1.1936528-1.216317 2.8328389-1.891516 4.5368686-1.868787 1.7704288-.013443 3.472248.683915 4.7241664 1.935834 1.2519183 1.251918 1.9492771 2.953737 1.9358336 4.724166-.0053281 3.54056-2.8595883 6.41712-6.4 6.45" fill="#fdc505"/><path d="m84.56 188.42c.0289224 1.132374-.423624 2.223917-1.2452908 3.003642-.8216668.779726-1.9354011 1.174515-3.0647092 1.086358-1.1627778.010025-2.2779201-.461327-3.081-1.302288-.8030798-.840961-1.2225703-1.97663-1.159-3.137712.1131763-2.334779 2.0629323-4.156029 4.4-4.11 1.1613956-.018665 2.2762054.456167 3.0674575 1.306525s1.1846818 1.996429 1.0825425 3.153475" fill="#48d8f9"/><path d="m121.62 196.92c-1.196927-.005197-2.342003-.489144-3.17987-1.343919s-1.298843-2.009289-1.28013-3.206081c-.031536-1.196586.434821-2.352619 1.287837-3.192366.853017-.839748 2.016218-1.287925 3.212163-1.237634 2.486348.076245 4.446081 2.143116 4.39 4.63-.038286 2.417616-2.012087 4.355774-4.43 4.35" fill="#ff713f"/><path d="m169.88 194.84c.022501 2.418106-1.902406 4.405394-4.32 4.46-2.48467-.05786-4.486673-2.055464-4.55-4.54-.061452-1.634486.780717-3.170394 2.191866-3.997423 1.411149-.82703 3.162723-.811233 4.558726.041115 1.396002.852349 2.210331 2.403196 2.119408 4.036308" fill="#fdc607"/><path d="m21.63 174.38c.0000568 2.251514-.8984401 4.409947-2.4961231 5.996366-1.597683 1.586418-3.7624198 2.469621-6.0138769 2.453634-4.74837277-.182335-8.50740964-4.078144-8.52-8.83.01080686-4.687033 3.79311123-8.491639 8.48-8.53 2.3189229.025913 4.5303234.981889 6.1378773 2.653369s2.4766116 3.91846 2.4121227 6.236631" fill="#ff703e"/><path d="m20.73 341.66c.0000394 2.249769-.8970862 4.406672-2.4925991 5.9928-1.595513 1.586127-3.7576709 2.470512-6.0074009 2.4572-4.74292205-.176943-8.50184759-4.063813-8.52-8.81.01068709-4.684837 3.78540988-8.490756 8.47-8.54 2.3198299.028573 4.5311902.986768 6.138455 2.659827s2.4760167 3.921063 2.411545 6.240173" fill="#ff703e"/><path d="m42 293.58c.0395642 2.094354-1.606651 3.834003-3.7 3.91-2.209139 0-4-1.790861-4-4 .0420997-2.095354 1.7248941-3.786959 3.82-3.84 2.1621387.064893 3.8809736 1.836888 3.88 4" fill="#fdc505"/><path d="m14.78 287c.039827 2.414331-1.8570989 4.417875-4.27 4.51-1.230528-.002617-2.40916838-.496027-3.27457927-1.370824-.86541088-.874797-1.34607746-2.058691-1.33542073-3.289176.05252451-2.411278 1.98898528-4.356541 4.4-4.42 2.4819185.06472 4.4646518 2.087285 4.48 4.57" fill="#fdc505"/><path d="m4.75 201.41c-1.1899288.021394-2.33946899-.43156-3.19496472-1.258914s-1.34663195-1.961107-1.36503528-3.151086c-.07739095-1.623828.74486084-3.158548 2.13965286-3.993629 1.39479202-.835082 3.13590226-.835082 4.53069428 0 1.39479202.835081 2.21704381 2.369801 2.13965286 3.993629.0582297 1.160327-.3667695 2.292942-1.17394341 3.128538-.80717391.835595-1.92440968 1.299519-3.08605659 1.281462" fill="#fdc505"/></g></svg>