<svg width="324" height="102" xmlns="http://www.w3.org/2000/svg"><g fill="none" fill-rule="evenodd"><path d="M89 70.7a9.63 9.63 0 0 1-4.8 8.33L50.3 98.7a9.54 9.54 0 0 1-9.58 0L6.78 79.03A9.62 9.62 0 0 1 2 70.7V31.3c0-3.44 1.82-6.61 4.78-8.33L40.7 3.3a9.54 9.54 0 0 1 9.58 0L84.2 22.97A9.63 9.63 0 0 1 89 31.3v39.4z" fill="#1B2033" stroke="#FFF" stroke-width="4"/><g fill="#FFF"><path d="M106 56.47h6.47V39.53H106V35h18v4.53h-6.51v16.94H124V61h-18z"/><path d="M129 35.62a41.57 41.57 0 0 1 7.13-.62c1.3 0 2.58.1 3.86.31 1.23.19 2.42.61 3.49 1.25a7.2 7.2 0 0 1 2.53 2.6 8.5 8.5 0 0 1 .98 4.32 8.03 8.03 0 0 1-3.1 6.75 9.17 9.17 0 0 1-3.2 1.6c-1.2.33-2.45.5-3.7.49h-1.45c-.3 0-.59-.03-.87-.06l-.61-.07V61H129V35.62zm7.52 3.72c-.5 0-.96 0-1.4.06l-1.08.12v8.3c.15.04.3.07.45.08.2 0 .4.04.63.05h1.1c.67 0 1.33-.05 1.98-.18.62-.1 1.22-.33 1.76-.67.52-.34.95-.82 1.23-1.37.34-.72.5-1.52.46-2.31a3.6 3.6 0 0 0-1.6-3.25 4.6 4.6 0 0 0-1.65-.66 9.68 9.68 0 0 0-1.88-.18v.01z" fill-rule="nonzero"/><path d="M151 35h16v4.53h-11.06v6.42h10.27v4.54h-10.27V61H151zM172 51.97h4.12v3.67l.23.08a10.77 10.77 0 0 0 4.07.85 5.5 5.5 0 0 0 3.27-.84 2.62 2.62 0 0 0 1.16-2.24 2.5 2.5 0 0 0-.95-2.04 9.66 9.66 0 0 0-2.36-1.37c-.94-.4-1.97-.79-3.08-1.19a14.73 14.73 0 0 1-3.08-1.5 8.46 8.46 0 0 1-2.36-2.28 6.07 6.07 0 0 1-.95-3.56 7.1 7.1 0 0 1 2.5-5.45c.83-.7 1.79-1.22 2.83-1.56 1.18-.38 2.42-.56 3.67-.54a25 25 0 0 1 4.5.4c1.22.2 2.41.57 3.52 1.1v7.55h-4.12v-4.13a4.95 4.95 0 0 0-6.73.18 2.18 2.18 0 0 0-1.03 1.91c-.02.78.34 1.52.95 2 .73.57 1.52 1.05 2.37 1.41.94.42 1.96.84 3.07 1.26 1.08.4 2.11.92 3.08 1.54.93.6 1.73 1.38 2.36 2.28.67 1.03 1 2.23.96 3.45a7.1 7.1 0 0 1-2.85 6.03 9.28 9.28 0 0 1-3.2 1.52c-1.29.34-2.62.51-3.97.5a16.5 16.5 0 0 1-7.98-2.1v-6.93zM221.13 51.76H225v7.42a8.42 8.42 0 0 1-2.87 1.33 13.46 13.46 0 0 1-7.98-.24 9.37 9.37 0 0 1-3.67-2.33c-1.14-1.19-2-2.62-2.56-4.2-.67-2-.98-4.12-.91-6.25-.06-2.2.3-4.37 1.07-6.4.62-1.58 1.56-3 2.76-4.16a10.1 10.1 0 0 1 3.76-2.26 14.63 14.63 0 0 1 7.65-.3c.83.2 1.64.48 2.4.86v7.72h-3.85V38.7c-.75-.13-1.5-.19-2.26-.19a5.5 5.5 0 0 0-4.6 2.19 8.1 8.1 0 0 0-1.36 2.8 14.2 14.2 0 0 0-.51 4c-.02 1.23.14 2.46.46 3.64.27 1.03.72 2 1.33 2.85.57.77 1.3 1.4 2.14 1.83.9.45 1.89.67 2.89.65.75 0 1.5-.07 2.24-.22v-4.49z"/><path d="M230.22 43.61a18.13 18.13 0 0 1 7.74-1.61 9.64 9.64 0 0 1 3.16.46c.8.26 1.52.7 2.11 1.3.54.57.94 1.26 1.16 2.01.25.87.37 1.76.36 2.66 0 1.25-.04 2.31-.13 3.2-.08.88-.12 1.66-.12 2.34 0 .53 0 1.06.07 1.72.05.35.09.68.11.99H247v4.02h-6l-.46-2.49h-.18a6.3 6.3 0 0 1-2.02 1.96c-1.1.6-2.32.88-3.55.82a5.92 5.92 0 0 1-4.23-1.46 5.07 5.07 0 0 1-1.56-3.88 6 6 0 0 1 .55-2.66c.37-.74.92-1.37 1.6-1.83.77-.5 1.62-.86 2.52-1.06a14.15 14.15 0 0 1 4.63-.28c.47.07 1.03.1 1.73.15.05-.24.08-.49.08-.73v-.7c.07-.75-.22-1.5-.78-1.99a3.7 3.7 0 0 0-2.3-.6c-1.11-.02-2.21.14-3.27.47-.83.27-1.65.58-2.45.95l-1.1-3.76zm6.07 13.43a4.2 4.2 0 0 0 2.55-.64c.5-.36.92-.83 1.23-1.37v-2.2a12.31 12.31 0 0 0-2.55-.26c-.45 0-.9.05-1.35.13-.41.08-.82.21-1.2.4-.33.17-.62.42-.84.72-.22.31-.33.68-.32 1.06-.04.6.17 1.18.58 1.6.55.43 1.24.63 1.92.56h-.02z" fill-rule="nonzero"/><path d="M257.89 61V49.6a8.9 8.9 0 0 0-.15-1.8 3.5 3.5 0 0 0-.37-1.07 1.18 1.18 0 0 0-.57-.55 1.77 1.77 0 0 0-1.82.28c-.34.26-.58.63-.7 1.04v13.46H250V42.41h3.4l.5 2.05h.12A4.35 4.35 0 0 1 258 42c.79 0 1.56.2 2.25.6.75.44 1.28 1.2 1.46 2.08.33-.83.9-1.53 1.64-2a4.48 4.48 0 0 1 2.4-.68 5 5 0 0 1 1.72.28c.53.2.99.54 1.34.99.42.56.72 1.21.87 1.91.23 1.02.33 2.06.3 3.1V61h-4.28V49.1c0-1.1-.17-1.89-.51-2.33-.3-.44-.79-.69-1.3-.68-.39 0-.77.1-1.1.32-.34.24-.57.6-.65 1.02V61h-4.26z"/><path d="M271.06 42.5h6l.52 2.2h.14c1.23-1.8 3.2-2.7 5.94-2.7a8.28 8.28 0 0 1 2.99.53c.9.35 1.7.92 2.33 1.66a7.9 7.9 0 0 1 1.5 2.84c.38 1.33.55 2.72.52 4.1.02 1.44-.19 2.87-.6 4.24a9 9 0 0 1-1.74 3.17 7.47 7.47 0 0 1-2.75 2 9.43 9.43 0 0 1-3.72.7c-.72 0-1.43-.06-2.15-.17a5.8 5.8 0 0 1-1.77-.53V68h-4.62V46.51H271l.06-4zM282.3 46c-.87 0-1.72.23-2.46.7-.75.46-1.3 1.2-1.54 2.07v7.57c.43.3.93.52 1.44.61.62.16 1.26.24 1.9.24.62 0 1.25-.1 1.83-.34a3.83 3.83 0 0 0 1.49-1.11 5.5 5.5 0 0 0 1-1.93c.24-.91.36-1.86.34-2.8 0-1.6-.38-2.84-1.13-3.7a3.62 3.62 0 0 0-2.86-1.32l-.01.01z" fill-rule="nonzero"/></g><path d="M45.13 12c.47.07.83.45.86.93.06.46-.22.9-.67 1.04a2.16 2.16 0 0 1-.76-.01l-.15-.08-.03-.06a1.36 1.36 0 0 1-.38-.99h.06c.14.15.36.18.54.08.37-.12.6-.5.52-.89" fill="#FF713F"/><path d="M44.6 13h-.08c-.4-.23-.6-.72-.48-1.18.07-.42.4-.74.8-.8.52-.1 1.03.26 1.16.8l-.2.03c-.62.02-1.13.5-1.2 1.15" fill="#FDC505"/><path d="M44 12.86c.05-.47.4-.83.82-.84l.14-.02.03.02c.06.4-.14.8-.49.92a.38.38 0 0 1-.5-.08" fill="#FD5701"/><path d="M45.08 14.04l-.16-.08.16.08z" fill="#FFF"/><path d="M51.44 27.2a2.53 2.53 0 0 1-3.52.17 2.36 2.36 0 0 1-.83-2.49c.18-.88.88-1.57 1.78-1.8a2.64 2.64 0 0 1 1.94.24c.58.32 1.01.85 1.19 1.48l-.25.07c-.42.14-.74.48-.86.9-.11.41 0 .85.3 1.18.07.09.16.17.25.25" fill="#FF6F3D"/><path d="M38.01 75.68c.2-.88.83-1.53 1.6-1.66 1.08-.17 2.1.66 2.34 1.93.24 1.27-.37 2.55-1.41 2.95-.7.25-1.45.03-1.97-.57-.1-.1-.17-.2-.26-.3v-.06c.47-.38.51-1.41.1-1.92a4.57 4.57 0 0 0-.41-.38" fill="#45D7F8"/><path d="M21 64.52c0 .54-.3 1.02-.76 1.29-.47.26-1.04.25-1.5-.02A1.49 1.49 0 0 1 18 64.5a1.48 1.48 0 0 1 1.47-1.5c.84.02 1.52.7 1.53 1.52" fill="#46D8F9"/><path d="M62 73.52c0 .39-.15.76-.43 1.04a1.5 1.5 0 0 1-1.06.44A1.54 1.54 0 0 1 59 73.48c0-.4.15-.77.43-1.05A1.5 1.5 0 0 1 62 73.52" fill="#FDC503"/><path d="M69.3 38.24c-.18-.39-.29-.83-.3-1.3 0-.9.48-1.69 1.16-1.9.55-.15 1.13.1 1.49.68.36.58.45 1.38.23 2.06-.22.7-.72 1.16-1.28 1.22-.05 0-.1 0-.15-.02.04-.2.06-.42.06-.63-.04-.4-.3-.71-.6-.72-.28 0-.52.26-.57.62h-.05M55 22.48c-.01-.4.14-.77.42-1.05a1.54 1.54 0 0 1 2.14.01c.28.29.44.67.44 1.07.01.4-.14.78-.43 1.06a1.53 1.53 0 0 1-2.15-.02 1.47 1.47 0 0 1-.42-1.07" fill="#FF703D"/><path d="M65.85 74.96a1.45 1.45 0 0 1-1.51-.54 1.42 1.42 0 0 1-.23-1.47c.2-.59.78-.97 1.41-.95.68.02 1.26.47 1.43 1.11.03.14.05.27.05.41a1.63 1.63 0 0 0-.18-.03.97.97 0 0 0-.82.28.93.93 0 0 0-.26.82c.03.13.06.25.11.37" fill="#45D7F8"/><path d="M41.52 29c-.4 0-.8-.16-1.08-.45a1.5 1.5 0 0 1-.44-1.08c0-.81.67-1.47 1.5-1.47.4 0 .79.16 1.07.45.29.3.44.68.43 1.08 0 .8-.66 1.46-1.47 1.46" fill="#FF703E"/><path d="M47 78.52c0 .39-.15.77-.42 1.04a1.53 1.53 0 0 1-2.13 0 1.49 1.49 0 0 1-.45-1.07c0-.4.14-.77.42-1.05a1.51 1.51 0 0 1 2.14 0c.28.29.44.68.43 1.08M56 31.53c0 .81-.66 1.47-1.48 1.47A1.53 1.53 0 0 1 53 31.47a1.48 1.48 0 0 1 2.55-1c.27.28.43.66.42 1.06" fill="#FDC503"/><path d="M41 65.48c0-.39.15-.76.42-1.04.28-.28.66-.44 1.05-.44.85.02 1.53.7 1.53 1.54 0 .53-.3 1.02-.77 1.27-.47.26-1.04.25-1.5-.02a1.48 1.48 0 0 1-.73-1.3" fill="#FF703D"/><path d="M31 35.51A1.5 1.5 0 0 1 29.5 37a1.55 1.55 0 0 1-1.5-1.54 1.5 1.5 0 0 1 2.28-1.24c.46.27.73.77.72 1.3" fill="#FF703E"/><path d="M47.53 75c-.41 0-.8-.17-1.1-.45A1.49 1.49 0 0 1 47.5 72c.84.03 1.5.7 1.51 1.5.01.82-.65 1.49-1.47 1.5" fill="#46D8F9"/><path d="M48.98 33.52c0 .8-.66 1.47-1.48 1.48a1.55 1.55 0 0 1-1.5-1.52 1.49 1.49 0 0 1 2.57-1.02c.29.28.44.67.43 1.07" fill="#FF703D"/><path d="M46.34 17.45a1.5 1.5 0 0 1 1.56-2.4 1.5 1.5 0 0 1 .1 2.86c-.15.04-.32.07-.48.09l-.05-.02a.85.85 0 0 0-.07-.22.83.83 0 0 0-1.06-.31" fill="#FDC503"/><path d="M47.35 19.23c.32.25.53.6.61 1 .18.78-.32 1.55-1.12 1.74-.8.16-1.6-.32-1.8-1.1-.1-.41-.03-.85.21-1.2.24-.36.61-.6 1.04-.67l.06.03c.2.3.6.39.91.2h.09z" fill="#45D7F8"/><path d="M29 77.6c0-.77.33-1.28.96-1.51.72-.26 1.53.06 1.87.74.36.68.13 1.52-.53 1.94a1.5 1.5 0 0 1-1.96-.32l-.19-.26-.15-.58" fill="#FF703D"/><path d="M73.5 42a1.51 1.51 0 1 1-1.05-2.58c.28-.28.66-.43 1.05-.42.82.01 1.49.69 1.5 1.53-.01.4-.17.77-.45 1.04-.29.27-.66.41-1.05.4M42.98 68.51c.02.4-.14.78-.42 1.06-.28.28-.66.44-1.06.43-.41 0-.8-.16-1.08-.45a1.46 1.46 0 0 1-.42-1.08c0-.4.16-.78.44-1.06a1.53 1.53 0 0 1 2.56 1.1M60 25.52c0 .4-.15.77-.43 1.05a1.5 1.5 0 0 1-1.07.43c-.4 0-.8-.17-1.07-.45a1.46 1.46 0 0 1-.43-1.07c0-.4.15-.77.43-1.05A1.5 1.5 0 0 1 58.5 24c.84.03 1.5.7 1.5 1.52" fill="#46D8F9"/><path d="M45.84 37c-.26 0-.52-.02-.78-.07a1.48 1.48 0 0 1-1.04-1.64A1.5 1.5 0 0 1 45.35 34c.41-.03.82.11 1.13.38.31.27.5.66.52 1.07v.28l-.06.06c-.57.11-1 .58-1.07 1.15l-.03.06" fill="#FDC503"/><path d="M36.5 31c.4 0 .79.16 1.07.45.28.29.44.67.43 1.07 0 .4-.16.78-.44 1.06-.28.27-.67.43-1.07.42A1.54 1.54 0 0 1 35 32.48c0-.39.15-.77.43-1.05S36.1 31 36.5 31" fill="#FF703E"/><path d="M67.84 30.22c-.21.4-.58.68-1.01.78a.36.36 0 0 0-.06-.02c-.29-.54-.91-.81-1.51-.67l-.06-.03a1.7 1.7 0 0 1-.17-1.1c.13-.66.7-1.14 1.38-1.18.68-.03 1.3.38 1.5 1.02.1.25.12.53.05.8l-.14.37" fill="#FDC503"/><path d="M46 37.28l.03-.05a1.35 1.35 0 0 0 1.1-1.17l.05-.06c.25 0 .49.03.73.07a1.5 1.5 0 0 1-.23 2.92c-.82.08-1.56-.5-1.66-1.3 0-.13 0-.26-.02-.37" fill="#45D7F8"/><path d="M25.49 36c.84.02 1.5.69 1.51 1.51 0 .4-.15.77-.43 1.05s-.65.44-1.05.44A1.54 1.54 0 0 1 24 37.49c0-.81.66-1.48 1.49-1.49" fill="#FDC505"/><path d="M62.01 70.48c0-.81.66-1.47 1.5-1.48.83.02 1.5.7 1.49 1.51A1.5 1.5 0 0 1 63.51 72c-.83-.02-1.5-.7-1.51-1.51" fill="#FF703E"/><path d="M25.46 31c.54 0 1.05.27 1.33.73.27.46.28 1.03.02 1.5-.27.47-.76.76-1.3.77-.83 0-1.5-.67-1.5-1.5-.03-.39.12-.77.4-1.05.27-.29.65-.45 1.05-.45" fill="#46D8F9"/><path d="M30.45 23.19c.46.38.66 1.02.5 1.62-.13.62-.6 1.08-1.18 1.16-.6.13-1.2-.16-1.51-.72a1.65 1.65 0 0 1-.22-1.24c.1-.43.35-.8.7-1.01.5.39 1.15.45 1.7.17" fill="#45D7F8"/><path d="M42.5 83c.4 0 .8.16 1.08.45.28.3.43.68.42 1.08 0 .39-.15.76-.42 1.04-.28.27-.66.43-1.05.43-.41 0-.8-.16-1.09-.45a1.49 1.49 0 0 1-.44-1.07c0-.4.15-.78.43-1.06.29-.28.68-.43 1.08-.42m.3 1.68a.68.68 0 0 0 .74-.75c-.01-.4-.34-.72-.75-.72a.73.73 0 0 0-.51 1.25c.14.14.33.22.54.22" fill="#FE703E" fill-rule="nonzero"/><path d="M38.01 24.47c0-.4.16-.76.43-1.04.28-.28.66-.43 1.06-.43.84.02 1.51.7 1.5 1.54 0 .4-.16.77-.44 1.04a1.51 1.51 0 0 1-2.14-.03 1.48 1.48 0 0 1-.42-1.08" fill="#FDC505"/><path d="M51 21.52c0 .39-.1.76-.28 1.04-.18.28-.43.44-.7.44-.27 0-.53-.16-.72-.44-.2-.29-.3-.67-.3-1.07 0-.81.43-1.47.98-1.49.27 0 .53.16.72.45.2.28.3.67.3 1.07" fill="#FDC503"/><path d="M58.31 78.4a1.49 1.49 0 1 1 1.75-2.29c.66.29 1.04.98.92 1.68-.1.64-.6 1.13-1.25 1.21l.05-.18c.11-.39-.1-.8-.48-.94-.4-.14-.7 0-.91.44 0 .03-.05.05-.07.09" fill="#FF703D"/><path d="M31.51 64.28c.37-.24.8-.33 1.24-.26.67.14 1.16.67 1.24 1.32.1.7-.34 1.36-1.04 1.58-.4.13-.84.1-1.21-.1-.38-.19-.64-.53-.74-.93h.23c.36-.04.65-.3.72-.64a.78.78 0 0 0-.44-.9v-.05" fill="#45D7F8"/><path d="M56.51 38a1.5 1.5 0 0 1-1.4-.95 1.54 1.54 0 0 1 .38-1.68 1.44 1.44 0 0 1 1.7-.17c0 .14.03.28.07.43.06.3.34.53.66.53h.07c.03.3-.02.6-.14.89l-.16-.14a.79.79 0 0 0-.8-.12.78.78 0 0 0-.48.66 2 2 0 0 0 .1.53" fill="#FE703E"/><path d="M59 64.75c0-.17.02-.34.05-.51.14-.76.8-1.3 1.54-1.24.73.05 1.32.64 1.4 1.4.09.67-.25 1.32-.85 1.6-.03-.13-.05-.26-.1-.39-.13-.4-.43-.73-.81-.9a1.39 1.39 0 0 0-1.18.05H59M16.26 34.66c-.36-.38-.34-.87.03-1.23a1.86 1.86 0 0 1 1.62-.39c.6.13 1.03.5 1.08.93.06.43-.25.83-.79 1.03-.43-.44-1.26-.59-1.94-.35" fill="#FCC504"/><path d="M26.97 26A1 1 0 0 1 28 27.03a.99.99 0 0 1-.98.97c-.56-.01-1-.46-1.02-1.02a.98.98 0 0 1 .97-.98" fill="#FF703E"/><path d="M32.99 53c.56.01 1 .45 1.01 1 0 .27-.1.52-.29.7-.19.2-.45.3-.71.3-.56-.02-1-.47-1-1.01a1 1 0 0 1 .99-.99M30.68 21.6a1.75 1.75 0 0 1-.3 2.33.76.76 0 0 1-.13.07 1.5 1.5 0 0 0-1.68-.17 1.58 1.58 0 0 1-.5-1.66c.12-.64.63-1.11 1.23-1.17l-.09.25c-.05.2-.03.42.06.6.1.2.25.33.44.4.2.06.42.04.6-.08s.3-.32.33-.55h.04" fill="#FDC503"/><path d="M58.8 65h.05c.03.52.32.98.76 1.22.42.24.93.28 1.38.1.09.74-.37 1.44-1.08 1.62-.69.2-1.41-.13-1.73-.79a1.6 1.6 0 0 1 .39-1.97c.07-.07.15-.12.24-.18" fill="#46D7F7"/><path d="M70.1 63.98c-.23-.6-.04-1.26.46-1.66a1.51 1.51 0 0 1 2.38 1.63A1.45 1.45 0 0 1 71.56 65c.04-.1.08-.2.1-.3a.87.87 0 0 0-.17-.72.9.9 0 0 0-.66-.34c-.29.02-.55.15-.73.36M65 33.53c-.24.3-.56.48-.9.47-.62-.04-1.11-.73-1.1-1.54 0-.4.12-.77.33-1.04a1 1 0 0 1 .8-.42l.33.03v.05c-.26.38-.35.9-.25 1.4.11.48.4.86.78 1v.05" fill="#FE703E"/><path d="M52.03 68.83c-.15-.8.33-1.6 1.1-1.78a1.5 1.5 0 0 1 1.8 1.1 1.6 1.6 0 0 1-.7 1.85 1.58 1.58 0 0 0-1.18-1.32 1.5 1.5 0 0 0-1.02.15" fill="#FCC504"/><path d="M48 69.98a1 1 0 0 1-1-1.02 1 1 0 0 1 1.02-.96c.55.03.98.48.98 1.01 0 .27-.1.52-.3.7-.18.19-.44.3-.7.29" fill="#FF713F"/><path d="M41.53 31.9c-.15-.13-.29-.27-.41-.43a1 1 0 0 1 1.28-1.39 1 1 0 0 1-.15 1.88c-.06 0-.13.03-.2.04l-.52-.1M22.89 26.99l-.24-.07a1 1 0 0 1-.62-1.16c.1-.45.5-.77.98-.76a1 1 0 1 1 .29 1.95l-.19.05h-.23" fill="#FDC505"/><path d="M57.99 68c.56 0 1.02.46 1.01 1 0 .37-.19.7-.51.88-.32.17-.72.16-1.03-.03a.96.96 0 0 1-.46-.9c0-.52.44-.95.98-.95" fill="#FF703E"/><path d="M24.15 68.83c-.32-.56-.11-1.23.48-1.6.59-.35 1.4-.3 1.92.14.52.43.6 1.12.19 1.63l-.2-.23a1.6 1.6 0 0 0-1.46-.47c-.38.08-.7.26-.93.53" fill="#FCC504"/><path d="M29 31a.98.98 0 0 1-1-1.02.95.95 0 0 1 .98-.98A1.01 1.01 0 0 1 30 30.02c0 .54-.44.98-.98.98" fill="#FDC505"/><path d="M41 17.02c0 .54-.44.98-.99.98A1.03 1.03 0 0 1 39 16.98c0-.54.44-.98.99-.98.55.01 1 .47.98 1.02M52 17.02c0 .54-.44.98-.99.98-.56 0-1.01-.46-1.01-1.02a.98.98 0 0 1 1.7-.68c.19.2.3.45.29.72" fill="#FF713F"/><path d="M45 85.97c0-.53.45-.97 1-.97.56.02 1 .48 1 1.03 0 .53-.45.97-1 .97-.27 0-.53-.12-.72-.31a.99.99 0 0 1-.28-.72" fill="#FDC505"/><path d="M15 30a1 1 0 0 1 1 1.02c0 .27-.1.52-.3.7a1 1 0 0 1-.7.28.99.99 0 0 1-1-1.02c0-.26.1-.52.28-.7A.98.98 0 0 1 15 30" fill="#FF713F"/><path d="M53.98 69.8c.1.42-.18.84-.7 1.06-.36.14-.78.18-1.17.1a1.53 1.53 0 0 1-.91-.51c-.4-.5-.16-1.24.5-1.45.13.43.6.78 1.2.89.36.05.74.03 1.08-.08" fill="#45D7F8"/><path d="M62 35.5c0 .14-.05.26-.14.36-.1.1-.22.14-.36.14a.5.5 0 0 1-.36-.15.5.5 0 0 1-.14-.37c0-.13.05-.25.15-.34a.5.5 0 0 1 .71.02c.1.1.15.22.14.36" fill="#FF703E"/><path d="M65.98 36.02A1 1 0 0 1 67 37c0 .26-.1.52-.28.7-.2.2-.45.3-.72.3-.56-.02-1-.47-1-1.02 0-.54.45-.98 1-.98" fill="#FDC505"/><path d="M37.99 77.62v.06c-.23.2-.5.32-.78.32-.57 0-1.06-.5-1.18-1.2-.12-.65.13-1.33.62-1.63a.9.9 0 0 1 .97-.05c0 .09-.03.18-.04.27-.14.78.01 1.6.42 2.23" fill="#FE703E"/><path d="M32.04 77.49c-.15-.56.18-1.12.8-1.37.63-.24 1.37-.1 1.81.34.44.44.47 1.07.06 1.54l-.1-.2c-.17-.4-.59-.69-1.08-.77-.5-.08-1.01.06-1.36.36l-.12.1" fill="#FCC504"/><path d="M40.92 32l.53.1c.25.15.44.4.52.68a.99.99 0 0 1-1.51 1.06.99.99 0 0 1-.44-1.02.99.99 0 0 1 .9-.82M32 35a1 1 0 0 1-1-1.02 1 1 0 0 1 1-.98c.56.02 1 .47 1 1.02 0 .26-.1.51-.3.7-.2.18-.45.29-.72.28" fill="#47D8F9"/><path d="M22.93 27.01h.23c.22.05.42.17.57.33a.99.99 0 0 1-1.03 1.61c-.42-.15-.7-.54-.7-.98 0-.46.34-.85.8-.94l.13-.03" fill="#46D8F9"/><path d="M32.05 77.64l.14-.13a1.64 1.64 0 0 1 2.7.52l.11.27-.02.08-.1.1a1.67 1.67 0 0 1-2.74-.47l-.12-.26c-.04-.09 0-.08.02-.11" fill="#148D03"/><path d="M52.96 84a1.04 1.04 0 0 1-.96-.98c-.01-.51.38-.95.92-1.02.29 0 .57.1.77.3a.97.97 0 0 1 0 1.42c-.19.18-.45.28-.73.28" fill="#FF713F"/><path d="M36 17c0-.26.1-.52.28-.7a1 1 0 0 1 .7-.3c.56 0 1.01.45 1.02 1a1 1 0 0 1-1 1 1 1 0 0 1-.98-1" fill="#FDC505"/><path d="M26.86 69.2a1.1 1.1 0 0 1-.27 1.39c-.38.37-.98.5-1.53.34-.56-.15-.97-.57-1.03-1.08-.08-.3 0-.6.2-.85l.2.23c.45.49 1.24.63 1.88.34.2-.11.37-.24.55-.37" fill="#46D7F7"/><path d="M47 66.02a1 1 0 1 1-.97-1.02c.54.03.97.48.97 1.02M50.99 76a1.02 1.02 0 0 1-.99-.99c0-.53.42-.97.97-1.01.56.01 1.02.46 1.03 1 0 .26-.1.52-.29.7-.19.2-.45.3-.72.3" fill="#FDC505"/><path d="M32.27 78l.1.21c.2.41.63.7 1.14.79.5.07 1.02-.08 1.37-.4l.1-.1c.14.68-.36 1.33-1.14 1.47-.76.15-1.53-.24-1.76-.89-.15-.36-.09-.77.18-1.08" fill="#46D7F7"/><path d="M34 26.01c0 .27-.1.52-.3.7a1 1 0 0 1-.7.29c-.56-.02-1-.47-1-1.02 0-.26.1-.51.3-.7.18-.18.44-.28.7-.28a1 1 0 0 1 1 1.02" fill="#FF713F"/><path d="M65.53 33v-.06c.62-.84.17-2.27-.53-2.43v-.05l.59-.46.05.02c.22.56.7.84 1.17.7l.05.02c.12.32.16.68.13 1.04-.1.75-.62 1.29-1.2 1.21l-.26-.02" fill="#46D7F7"/><path d="M29.13 74a.96.96 0 0 1-.95-.46.95.95 0 0 1-.06-1.02c.15-.3.47-.5.82-.52a1 1 0 0 1 .93.48c.05.08.1.16.13.25l-.02.02a.95.95 0 0 0-.88.88v.36" fill="#FCC504"/><path d="M57 76.01c0 .54-.44.97-1 .99-.56-.03-1-.48-1-1.03a1 1 0 0 1 1-.97c.56.03.99.47 1 1" fill="#47D8F9"/><path d="M29.86 72c.09 0 .18 0 .27.02.5.08.87.5.87.99a1 1 0 0 1-.95.99 1 1 0 0 1-1.05-.7c.7-.2 1.01-.67.84-1.28l.02-.02" fill="#46D7F7"/><path d="M35.9 21a1.03 1.03 0 0 1-.89-.87.98.98 0 0 1 .62-1.07 1.02 1.02 0 0 1 1.08 1.68l-.07.01a.58.58 0 0 0-.69.24l-.05.01z" fill="#46D8F9"/><path d="M22 35.03c0 .26-.1.5-.29.69a1.02 1.02 0 0 1-1.42-.02.97.97 0 0 1-.29-.7c0-.26.1-.52.28-.7A1 1 0 0 1 21 34c.56.02 1 .48.99 1.03" fill="#FF713F"/><path d="M67.97 66c.56 0 1.02.44 1.03 1a1 1 0 1 1-2 0 .96.96 0 0 1 .97-1" fill="#47D8F9"/><path d="M51.54 25c.71-.06 1.36.32 1.45.86.1.52-.36 1-1.04 1.12-.33.06-.68 0-.95-.15.33-.3.54-.66.6-1.05 0-.26-.02-.51-.06-.77M17.02 35.24l.32-.24.36.3c.33.2.76.22 1.12.06.33.48.2 1.13-.3 1.45a1.12 1.12 0 0 1-1.52-.26l.17-.04a.61.61 0 0 0 .5-.56.63.63 0 0 0-.4-.64 2.5 2.5 0 0 0-.25-.07M45 89.65c-.29.3-.74.42-1.16.31-.44-.1-.77-.42-.82-.81-.09-.39.11-.78.5-.98.36-.23.84-.23 1.2 0l.15.08v.05a.71.71 0 0 0-.4.68c.02.28.23.52.52.63v.03" fill="#46D7F7"/><path d="M58.1 28.39a.9.9 0 0 1 .15-1.03.92.92 0 0 1 1-.32 1 1 0 0 1-.07 1.96l.14-.2a.67.67 0 0 0-.04-.8.6.6 0 0 0-1.07.22c-.02.06 0 .16-.1.17" fill="#FF703E"/><path d="M65 25.01c0 .54-.43.98-.97.99-.57 0-1.03-.46-1.03-1.03a1 1 0 0 1 1.02-.97 1 1 0 0 1 .98 1.01" fill="#FDC505"/><path d="M24.98 75c.27 0 .53.1.73.3a1 1 0 0 1-.68 1.7A1.05 1.05 0 0 1 24 75.98a1 1 0 0 1 .98-.98" fill="#FF713F"/><path d="M72 35a1.02 1.02 0 0 1-1-1.03c0-.26.11-.51.3-.7a1 1 0 0 1 1.4 1.43 1 1 0 0 1-.7.3" fill="#FDC505"/><path d="M64 27.02a.93.93 0 0 1-.98.98 1 1 0 0 1-1.02-.98 1 1 0 0 1 1.71-.72c.19.19.3.45.29.72" fill="#47D8F9"/><path d="M48.01 83.15a1 1 0 0 1 .78-1.13 1 1 0 0 1 1.14.67c.2.5 0 1.06-.47 1.31l-.06-.22c-.12-.35-.4-.6-.74-.69a1.12 1.12 0 0 0-.65.07" fill="#FCC504"/><path d="M25.99 68.61c-.13.1-.27.2-.41.28a1.3 1.3 0 0 1-1.43-.25l-.15-.17v-.05c.17-.2.43-.34.72-.4.43-.08.87.06 1.13.35l.15.18v.06" fill="#148D03"/><path d="M50 84.87a1 1 0 0 1-.78 1.1c-.5.12-1-.19-1.17-.7-.15-.49.05-1.02.48-1.27.05.38.28.71.62.87.27.12.57.12.84 0" fill="#46D7F7"/><path d="M38.02 83.34c-.1-.49.12-.99.52-1.22.4-.23.9-.13 1.2.24.3.39.35.96.1 1.4l-.18.24h-.04a.99.99 0 0 0-.7-.84.96.96 0 0 0-.9.19" fill="#FCC504"/><path d="M67.25 73c.5.16.8.6.74 1.09-.04.45-.42.83-.9.9-.44.06-.87-.13-1.09-.48A1.7 1.7 0 0 0 67.26 73" fill="#FF713F"/><path d="M38.95 84.62h.04c.05.37-.06.75-.29 1.03a.86.86 0 0 1-1.01.28c-.4-.13-.67-.53-.68-1-.05-.35.07-.7.32-.93l.13.3c.15.28.4.48.69.54.29.06.59-.02.82-.23" fill="#46D7F7"/><path d="M47 28.01a1 1 0 0 1-1.71.69 1 1 0 0 1-.29-.72c0-.26.1-.5.28-.7A1.01 1.01 0 0 1 47 28" fill="#FDC505"/><path d="M41.02 73c-.56 0-1.02-.45-1.02-1a1 1 0 0 1 .98-1c.56 0 1.01.46 1.02 1 0 .27-.1.52-.28.7a1 1 0 0 1-.7.3" fill="#FF713F"/><path d="M76 56c.27 0 .53.11.72.3.19.2.29.46.28.73a1 1 0 0 1-1 .97 1.03 1.03 0 0 1-1-1 1 1 0 0 1 1-1" fill="#FDC505"/><path d="M16 64.05a.96.96 0 0 1-1.02.95 1.01 1.01 0 0 1-.98-1.02.99.99 0 0 1 1-.98 1.01 1.01 0 0 1 1 1.05" fill="#FDC607"/><path d="M75.99 40a1 1 0 0 1-.7-1.7 1 1 0 0 1 1.42 0c.19.2.3.46.29.73a.98.98 0 0 1-1.01.97" fill="#FF713F"/><path d="M44.6 13.13a.7.7 0 0 0 .04.07l.2.1.11.4c.14.43-.03.9-.41 1.15-.4.24-.9.18-1.24-.14a1 1 0 0 1-.16-1.23c.23-.4.7-.57 1.14-.43l.32.1" fill="#48D8F9"/><path d="M49 30c0 .53-.43.98-.97 1-.56-.01-1-.45-1.03-1a1 1 0 0 1 .5-.87 1 1 0 0 1 1 0c.3.18.5.5.5.86" fill="#47D8F9"/><path d="M60.99 65.93c-.42.11-.89.09-1.28-.07-.41-.14-.68-.44-.71-.76.35-.12.76-.13 1.13-.03.36.1.64.31.77.57.05.08.07.17.1.25l-.02.04" fill="#148D03"/><path d="M50.96 25.03c.03.28.04.56.04.84-.05.41-.22.8-.49 1.13h-.04l-.2-.21a1.09 1.09 0 0 1 .45-1.73c.06-.03.13-.04.2-.06l.04.02" fill="#465F3D"/><path d="M53.98 68.9a2 2 0 0 1-.95.07c-.52-.1-.92-.41-1.03-.8a.2.2 0 0 0 .03-.05c.28-.11.6-.15.9-.1.56.09.98.42 1.07.84l-.02.04" fill="#148D03"/><path d="M62 23.06c-.01.53-.23.94-.5.94-.28-.02-.5-.47-.5-1.02 0-.26.05-.51.15-.7.1-.18.23-.28.36-.28.28.04.49.5.48 1.04" fill="#FF7241"/><path d="M20 41.02c0 .54-.22.97-.5.98-.13 0-.27-.12-.36-.32-.1-.2-.15-.46-.14-.74.01-.53.24-.95.5-.94.28.03.5.48.5 1.02M53 35.03c0 .26-.05.5-.14.69-.1.18-.23.28-.36.28-.28-.03-.5-.47-.5-1 0-.35.09-.69.25-.87.16-.18.36-.17.52.02.15.18.24.53.23.88M40 38.04c0 .51-.22.94-.49.96-.28-.01-.5-.44-.5-.98-.02-.35.07-.7.23-.88.16-.19.36-.19.52 0 .16.19.25.53.24.88" fill="#FDC607"/><path d="M75.5 64c-.13 0-.26-.1-.35-.3-.1-.19-.15-.44-.15-.7 0-.54.21-.98.48-1 .14 0 .27.11.37.3.1.2.15.46.15.74 0 .53-.23.95-.5.94" fill="#FF703E"/><path d="M51 64c0 .54-.21.98-.48 1-.14 0-.27-.1-.37-.3-.1-.2-.15-.46-.15-.73 0-.53.22-.96.5-.97.28.02.5.46.5 1M36.5 68a.5.5 0 0 1 .35.14c.1.1.15.23.15.36 0 .13-.05.26-.14.35a.5.5 0 0 1-.36.15.51.51 0 0 1-.36-.15.5.5 0 0 1-.14-.36c0-.13.05-.25.14-.35.09-.09.21-.14.34-.14" fill="#FDC505"/><path d="M14 62.53a.47.47 0 0 1-.49.47.5.5 0 1 1 .49-.47" fill="#FF7241"/><path d="M24.48 64c.28 0 .51.43.52.97.01.35-.07.69-.23.88-.16.2-.36.2-.52.02-.16-.18-.26-.5-.25-.86 0-.26.04-.51.13-.7.09-.19.22-.3.35-.31M54.52 41c-.14 0-.27-.1-.37-.28-.1-.18-.15-.43-.15-.69-.01-.36.08-.71.25-.9.16-.18.36-.17.52.03.16.2.25.55.23.91 0 .52-.22.93-.48.93" fill="#FDC505"/><path d="M17.5 72a.5.5 0 1 1 0-1c.28 0 .5.24.5.51a.47.47 0 0 1-.48.49" fill="#FF7241"/><path d="M32 70.5c0-.13.04-.26.13-.35.1-.1.22-.15.35-.15.3 0 .52.24.52.53a.51.51 0 0 1-.5.47.5.5 0 0 1-.5-.5" fill="#FF713F"/><path d="M36.51 74a.48.48 0 0 1-.37-.14.47.47 0 0 1-.14-.36c0-.13.04-.26.13-.35a.51.51 0 0 1 .72 0c.1.1.15.23.15.36 0 .13-.05.25-.15.34a.48.48 0 0 1-.34.14" fill="#FDC505"/><path d="M38 66.03c0 .26-.05.5-.14.68-.09.19-.21.29-.34.29-.28 0-.51-.43-.52-.97-.01-.36.08-.7.24-.89.16-.19.36-.19.52 0 .16.19.25.53.24.9" fill="#FF7241"/><path d="M58 28.5c.17 0 .13-.09.17-.14.08-.18.35-.31.7-.35.34-.04.7.03.9.18.28.18.3.43.06.62l-.2.17-.13.01c-.86.05-1.2-.06-1.5-.5" fill="#FD5701"/><path d="M58.99 31.51a.49.49 0 0 1-.5.49.52.52 0 0 1-.49-.51.5.5 0 0 1 1 .02M51.49 37a.5.5 0 0 1-.49-.5c0-.27.22-.48.49-.5.28.01.5.24.51.52a.5.5 0 0 1-.51.48M71 31.5c0-.13.05-.26.14-.35a.5.5 0 0 1 .35-.15c.28 0 .5.23.5.5.02.13-.04.26-.13.36a.5.5 0 0 1-.37.14.5.5 0 0 1-.49-.5" fill="#48D8F9"/><path d="M55.48 80.02c.28 0 .5.22.52.49a.5.5 0 0 1-.5.49.5.5 0 0 1-.5-.5.5.5 0 0 1 .48-.5" fill="#FDC607"/><path d="M61 40.52a.5.5 0 1 1-.5-.52c.28.01.5.25.5.52" fill="#47D8F9"/><path d="M46.5 81a.5.5 0 0 1-.36-.15.49.49 0 0 1-.14-.36c0-.13.05-.26.14-.35.1-.1.23-.15.36-.14a.5.5 0 0 1 .36.15c.1.1.14.23.14.36 0 .13-.05.26-.14.35-.1.1-.23.14-.36.14" fill="#FF7241"/><path d="M56 26.5a.5.5 0 1 1-.85.37.49.49 0 0 1-.15-.36c0-.27.2-.5.48-.51a.5.5 0 0 1 .37.14c.1.1.15.22.15.35" fill="#FDC607"/><path d="M53.5 79a.5.5 0 0 1-.36-.15.48.48 0 0 1-.14-.36c0-.13.05-.26.14-.35.1-.1.23-.14.36-.14a.5.5 0 0 1 .36.15c.1.1.15.23.14.36 0 .13-.05.26-.14.35-.1.1-.23.14-.36.14" fill="#FF7241"/><path d="M32 39.52a.47.47 0 0 1-.5.48.5.5 0 1 1 0-1 .48.48 0 0 1 .5.52M15.5 57a.5.5 0 1 1 0-1 .5.5 0 0 1 0 1" fill="#48D8F9"/><path d="M28.5 64a.5.5 0 0 1-.36-.15.49.49 0 0 1-.14-.36.5.5 0 0 1 .48-.49.5.5 0 0 1 .37.14c.1.1.15.22.15.35a.5.5 0 0 1-.5.5" fill="#FDC607"/><path d="M36.52 25a.5.5 0 1 1 .48-.5.48.48 0 0 1-.48.5" fill="#48D8F9"/><path d="M52.5 81a.49.49 0 0 1-.36-.14.47.47 0 0 1-.14-.36c0-.28.23-.5.5-.5.29.01.5.24.5.52 0 .13-.05.25-.14.34-.1.1-.22.14-.35.14" fill="#47D8F9"/><path d="M28.9 77.2l.1.39a.81.81 0 0 1-.24.41h-.04a.42.42 0 0 0-.55-.08h-.04c-.06-.12-.1-.24-.13-.36-.02-.2.07-.4.24-.48.17-.11.38-.1.54.01l.15.11" fill="#FCC504"/><path d="M42.5 22a.48.48 0 0 1 .5.5.5.5 0 0 1-.5.5.53.53 0 0 1-.5-.5.48.48 0 0 1 .49-.5" fill="#47D8F9"/><path d="M66.99 73.1c-.03.88-.37 1.64-.86 1.9a.09.09 0 0 1-.04-.03 5 5 0 0 1-.08-.49c-.04-.4.03-.81.2-1.1.16-.3.4-.43.63-.37l.14.05.02.04" fill="#465F3D"/><path d="M53.5 73a.5.5 0 0 1-.5-.5c0-.13.05-.26.14-.35.1-.1.22-.15.35-.15.28 0 .5.22.51.49a.5.5 0 0 1-.5.5" fill="#FF7241"/><path d="M43 20.48c0-.13.05-.25.15-.34a.5.5 0 0 1 .35-.14c.28.01.5.24.5.51a.5.5 0 0 1-.5.49.5.5 0 0 1-.5-.49M35 37.51a.49.49 0 0 1-.52.49.52.52 0 0 1-.48-.52.49.49 0 0 1 .52-.48.5.5 0 0 1 .48.52" fill="#FDC607"/><path d="M28.23 78.01h.04c.15.17.38.2.57.08h.04c.08.12.13.27.12.41a.5.5 0 0 1-.49.5.52.52 0 0 1-.5-.47c-.03-.2.05-.4.21-.53" fill="#46D7F7"/><path d="M54.99 18.49a.5.5 0 0 1-.5.51.52.52 0 0 1-.49-.49c0-.13.04-.26.13-.35a.5.5 0 0 1 .35-.16c.28 0 .5.22.52.5" fill="#FDC607"/><path d="M58.47 35.97h-.05c-.04-.5-.2-.93-.42-1.2.03-.28.12-.52.24-.65.13-.14.29-.16.42-.05.14.1.25.31.3.58.06.27.05.57-.02.83-.08.34-.27.55-.47.52" fill="#FDC505"/><path d="M67.48 42c.28 0 .5.21.52.48a.5.5 0 0 1-.48.52.52.52 0 0 1-.52-.48.49.49 0 0 1 .48-.52" fill="#FF713F"/><path d="M35 82.48c0-.13.05-.25.14-.34a.48.48 0 0 1 .34-.14c.13 0 .27.05.36.14.1.09.16.21.16.35a.48.48 0 0 1-.24.44.5.5 0 0 1-.51 0 .48.48 0 0 1-.24-.44" fill="#FF7241"/><path d="M58.87 80.15l.1.2c.04.11.04.25-.01.37a.49.49 0 0 1-.3.26.52.52 0 0 1-.64-.32.47.47 0 0 1 .04-.38.5.5 0 0 1 .3-.24l.3-.04.06.05.15.1M36 30.5a.5.5 0 0 1 .14-.35c.1-.1.22-.15.35-.15.29.01.51.25.51.54a.5.5 0 0 1-.51.46.5.5 0 0 1-.49-.5M53.5 21a.5.5 0 0 1-.35-.13.5.5 0 0 1-.01-.7c.1-.11.23-.17.36-.17.27.02.49.23.5.5a.48.48 0 0 1-.49.5" fill="#48D8F9"/><path d="M45.1 89.95v-.05c.13-.25.2-.57.18-.9a1.52 1.52 0 0 0-.28-.83.4.4 0 0 1 0-.06c.12-.05.24-.09.36-.11.18 0 .34.12.46.31.12.2.19.46.18.73 0 .27-.08.52-.2.7-.13.18-.3.27-.47.26a.93.93 0 0 1-.23-.06" fill="#FE703E"/><path d="M19.5 29a.5.5 0 0 1 0 1 .51.51 0 0 1-.5-.5.5.5 0 0 1 .5-.5" fill="#FDC607"/><path d="M70.5 69a.5.5 0 0 1 .5.5.49.49 0 0 1-.48.5.51.51 0 0 1-.52-.52c0-.27.22-.48.5-.48" fill="#FCC504"/><path d="M39 84.79a1.5 1.5 0 0 1-1 .2 1.27 1.27 0 0 1-.84-.47l-.16-.25.02-.07c.32-.18.73-.25 1.11-.16.46.08.8.38.87.75" fill="#178E05"/><path d="M38.54 77.98a1.88 1.88 0 0 1-.48-1.77c0-.06.03-.14.04-.21h.06c.17.1.33.21.48.33.52.44.47 1.34-.1 1.67" fill="#465F3D"/><path d="M68 30.47l.1-.28c.06-.04.12-.1.19-.13a.47.47 0 0 1 .37-.04c.12.04.22.13.28.25.13.24.04.54-.2.67a.47.47 0 0 1-.37.04.48.48 0 0 1-.28-.26 2.61 2.61 0 0 1-.09-.24M67.5 26a.5.5 0 0 1-.5-.52c0-.13.06-.26.16-.35a.5.5 0 0 1 .84.4.5.5 0 0 1-.5.47" fill="#FF7241"/><path d="M22.33 74.99a.56.56 0 0 1-.32-.37.5.5 0 0 1 .31-.59.5.5 0 0 1 .6.22.5.5 0 0 1-.1.64l-.18.11h-.3M36.96 21.18c.03.1.04.22.04.34a.55.55 0 0 1-.36.46.47.47 0 0 1-.51-.18.63.63 0 0 1-.08-.61 1 1 0 0 1 .13-.19h.03c.07.14.18.25.32.28.14.03.28 0 .4-.1h.03" fill="#FDC607"/><path d="M22.35 75.01h.3l.19.13a.5.5 0 0 1 0 .73.49.49 0 0 1-.72-.06.5.5 0 0 1 .07-.71l.16-.1M22 71.5a.48.48 0 0 1-.5.5.51.51 0 0 1-.5-.51.5.5 0 0 1 .76-.42c.15.09.24.26.24.43" fill="#48D8F9"/><path d="M49.95 84.92c-.36.1-.76.1-1.12 0-.45-.15-.76-.45-.83-.8l.04-.04c.27-.08.58-.1.87-.06.47.08.85.32 1 .65l.09.2-.05.05z" fill="#178E05"/><path d="M46.12 18.84l-.04-.02c-.14-.4-.1-.59.15-.82l.14.12c.17.16.38.25.6.24H47a.78.78 0 0 1-.24.64h-.05a.65.65 0 0 0-.58-.16" fill="#FE703E"/><path d="M16.28 35l.28.11c.29.17.46.56.44.97-.02.42-.24.77-.55.86l-.2.06-.08-.06c-.24-.6-.23-1.32.04-1.9l.07-.04z" fill="#465F3D"/><path d="M69 38.45c.04-.26.24-.45.48-.45.27 0 .49.23.52.52 0 .16-.02.31-.05.46l-.05.02a1.23 1.23 0 0 1-.9-.55" fill="#FD5701"/><path d="M36.8 21h-.03c-.05-.08-.1-.15-.16-.21a.35.35 0 0 0-.28-.1c-.1 0-.2.05-.26.14h-.04a.94.94 0 0 1 .04-.6l.05-.03c.18.04.37-.03.5-.19l.04-.01a.2.2 0 0 0 .03.03c.37.26.4.6.12.97" fill="#FF713F"/><path d="M31 21.5a.6.6 0 0 1-.22.41.42.42 0 0 1-.41.06.54.54 0 0 1-.3-.3.7.7 0 0 1-.05-.45l.06-.2a.06.06 0 0 1 .05-.02c.34.03.67.1.87.5" fill="#FD5701"/><path d="M70 63.26a.61.61 0 0 1 .46-.26c.17 0 .32.1.42.24.1.15.14.34.1.52l-.06.21-.05.03c-.37-.04-.7-.3-.87-.67v-.07z" fill="#465F3D"/><path d="M59 78.47l.04-.07c.15-.35.36-.47.62-.36.25.12.4.45.32.77l-.03.14-.06.05a1.25 1.25 0 0 1-.87-.43l-.02-.1" fill="#FD5701"/><path d="M29.95 73c.19.47-.14.84-.9 1l-.05-.02v-.29c.03-.36.44-.66.97-.69" fill="#178E05"/><path d="M57.07 37.97a1.76 1.76 0 0 1-.07-.41.6.6 0 0 1 .33-.51.5.5 0 0 1 .55.09l.12.1v.08c-.18.38-.51.63-.9.68l-.04-.02M31.55 65.01c.34.1.52.35.43.58-.07.21-.34.38-.69.4h-.22l-.06-.03a1.6 1.6 0 0 1 0-.3c0-.27.21-.51.55-.66" fill="#465F3D"/><path d="M32 65.07c-.29.14-.46.38-.47.63v.3c-.23-.04-.43-.17-.5-.34-.07-.18-.01-.36.15-.5a.85.85 0 0 1 .66-.15l.15.03v.03" fill="#FF7241"/><path d="M18.99 34.83c-.48.26-1.05.22-1.5-.1-.18-.14-.34-.3-.49-.47v-.07c.7-.4 1.55-.16 2 .56v.06" fill="#178E05"/><path d="M75 35.5c0 .14-.06.27-.15.36a.5.5 0 0 1-.85-.36c0-.13.04-.26.14-.35a.5.5 0 0 1 .36-.15.5.5 0 0 1 .36.15c.1.1.15.23.14.36" fill="#FDC607"/><path d="M57 37.71c.39-.05.72-.31.9-.71.09.14.12.32.09.48a.64.64 0 0 1-.24.41.47.47 0 0 1-.4.1.53.53 0 0 1-.35-.28" fill="#46D7F7"/><path d="M77 50.49a.5.5 0 0 1-.87.36.5.5 0 0 1-.13-.37.47.47 0 0 1 .48-.48.48.48 0 0 1 .52.49" fill="#FDC607"/><path d="M70.08 64c.18.42.52.7.92.74-.18.28-.5.34-.74.15-.26-.19-.34-.58-.18-.89" fill="#46D7F7"/><path d="M17 35c-.4.3-.43.69-.06 1-.55-.03-.96-.24-.94-.5-.02-.26.43-.48 1-.5" fill="#FF7241"/><path d="M69.07 38c.22.4.56.66.93.7-.16.3-.45.39-.69.21-.24-.17-.37-.55-.29-.91h.05" fill="#FDC607"/><path d="M29 23.9c.65-.24 1.43-.19 2 .15v.05c-.65.24-1.41.18-2-.14v-.05" fill="#178E05"/><path d="M59 79c.27.4.63.63 1 .65-.16.32-.43.44-.67.28l-.17-.18-.07-.1L59 79" fill="#FDC607"/><path d="M30.96 22c-.22-.54-.58-.63-.96-.67.12-.29.37-.4.59-.28.2.08.37.34.39.66 0 .1 0 .18.02.28h-.03" fill="#FF7241"/><path d="M48 18c-.3.03-.58-.16-.8-.51l-.2-.27v-.1c.34-.28.74-.06.93.52.03.11.05.23.06.36M57.06 35c.5.23.83.59.94 1-.44 0-.81-.23-.9-.55-.05-.15-.08-.3-.1-.44l.02-.01h.03" fill="#FD5701"/><path d="M46 18.86c.35-.06.72.02 1 .2-.34.18-.78.1-1-.2" fill="#465F3D"/><path d="M47 36c-.06.5-.46.9-1 1 .06-.5.46-.9 1-1M67 30.95c-.4.19-.8-.18-1-.9.4-.19.8.18 1 .9" fill="#178E05"/><g fill="#465F3D"><path d="M42.47 83.6a.74.74 0 0 1 0-1.46c.4.01.71.34.7.74a.67.67 0 0 1-.7.73M64.86 30.74c.84.16 1.38 1.46.64 2.23a1.37 1.37 0 0 1-.64-2.23M37 20.1a.77.77 0 0 1-.7.24.59.59 0 0 1 .7-.24M44.58 87.29a1 1 0 0 1 .11 1.4.8.8 0 0 1-.11-1.4"/></g><path d="M29 78.06a.91.91 0 0 1-1-.12.9.9 0 0 1 1 .12" fill="#178E05"/><path d="M58.96 78.96l.08.08-.08-.08z" fill="#FFF"/><path d="M36 21.34c.1-.2.23-.32.37-.34.15-.02.29.07.4.25.08.15.16.31.23.49-.16.22-.36.3-.55.23-.2-.07-.36-.3-.45-.63" fill="#FD5701"/><path d="M36.5 40a.5.5 0 0 1-.36-.15.5.5 0 0 1-.14-.36c0-.13.05-.26.14-.35.1-.1.23-.15.36-.14.28 0 .5.24.5.51a.5.5 0 0 1-.5.48" fill="#FF713F"/><path d="M66 39.49a.5.5 0 0 1-.5.51.5.5 0 0 1-.5-.52.47.47 0 0 1 .48-.48.48.48 0 0 1 .52.49M56 64.5a.5.5 0 1 1-1-.02.47.47 0 0 1 .48-.48.48.48 0 0 1 .52.5M71 59.5a.5.5 0 0 1-.5.5.5.5 0 0 1-.5-.52.47.47 0 0 1 .48-.48.48.48 0 0 1 .52.5" fill="#48D8F9"/><path d="M31 57.53c0 .81-.67 1.47-1.5 1.47-.84-.03-1.5-.7-1.5-1.53 0-.81.67-1.47 1.5-1.47.4 0 .8.17 1.08.46.28.3.43.68.42 1.08" fill="#FF703E"/><path d="M41 60.04c0 .52-.22.95-.49.96-.28-.01-.5-.44-.5-.98-.02-.35.07-.7.23-.88.16-.19.36-.19.52 0 .16.19.25.53.24.88" fill="#FDC607"/><path d="M32.98 61.52c0 .13-.05.26-.14.35-.1.09-.22.14-.35.13a.49.49 0 0 1-.35-.15.5.5 0 0 1-.14-.37.5.5 0 0 1 .16-.35c.1-.09.22-.13.35-.13.13 0 .27.05.36.15.1.1.14.23.13.37" fill="#48D8F9"/><path d="M36 59.52a.48.48 0 0 1-.52.48.52.52 0 0 1-.48-.52.49.49 0 0 1 .52-.48.5.5 0 0 1 .47.52" fill="#FDC607"/><path d="M36.5 62a.5.5 0 0 1-.36-.15.5.5 0 0 1-.14-.36c0-.13.05-.26.14-.35.1-.1.23-.15.37-.14.28.01.5.24.49.52a.5.5 0 0 1-.5.47" fill="#FF713F"/><path d="M64.02 63.26a1.5 1.5 0 0 1 1.7-1.25c.82.15 1.38.9 1.27 1.72a1.5 1.5 0 0 1-2.7.65 1.47 1.47 0 0 1-.27-1.12" fill="#FF703E"/><path d="M55 59.84c.04-.53.3-.9.56-.83.28.09.47.58.44 1.12-.02.36-.14.66-.31.8-.17.13-.37.08-.5-.15-.15-.23-.22-.59-.18-.94" fill="#FDC607"/><path d="M63.01 59.41a.47.47 0 0 1 .57-.4.5.5 0 0 1 .41.58.5.5 0 0 1-.57.4.48.48 0 0 1-.4-.58" fill="#48D8F9"/><path d="M60 61.41c.03-.13.1-.24.21-.32a.5.5 0 0 1 .38-.08c.27.05.45.3.4.58a.49.49 0 0 1-.2.32.5.5 0 0 1-.78-.5" fill="#FDC607"/><path d="M59.57 57.01c.13.04.25.18.33.4.08.2.11.48.1.74-.02.26-.09.5-.2.66-.1.16-.25.22-.38.17-.27-.1-.46-.61-.41-1.15.04-.53.3-.9.56-.82" fill="#FF713F"/><path d="M46.52 62a1.5 1.5 0 0 1-1.42-.95 1.54 1.54 0 0 1 .4-1.68 1.45 1.45 0 0 1 1.69-.17c.01.14.04.28.07.42.07.31.34.54.66.54H48c.03.3-.01.61-.13.9l-.18-.15a.8.8 0 0 0-.8-.11.78.78 0 0 0-.47.65 2 2 0 0 0 .1.53" fill="#FE703E"/><path d="M47.47 59.96h-.04c-.05-.5-.2-.92-.43-1.18.02-.28.11-.53.24-.66.13-.14.29-.16.42-.05.14.1.25.32.3.58.06.27.05.57-.02.83-.08.34-.27.55-.47.52" fill="#FDC505"/><path d="M46.07 60.98a1.8 1.8 0 0 1-.07-.42.6.6 0 0 1 .32-.51c.18-.09.4-.06.55.09l.11.1c.04.04 0 .05 0 .08-.17.38-.5.63-.87.68l-.05-.02" fill="#465F3D"/><path d="M46 61.71c.39-.05.72-.31.9-.71.09.14.12.32.09.48a.64.64 0 0 1-.24.4.47.47 0 0 1-.4.1.53.53 0 0 1-.35-.27" fill="#46D7F7"/><path d="M47.05 59c.5.22.84.58.95 1-.44 0-.81-.24-.9-.56a2.4 2.4 0 0 1-.1-.43h.05" fill="#FD5701"/><path d="M59.57 43.35c.65-.44 1.26-.47 1.8-.08.62.44.81 1.27.44 1.93-.36.69-1.2.98-1.91.68a1.47 1.47 0 0 1-.84-1.77l.11-.3.4-.46" fill="#FF703D"/><path d="M59 43.67l-.26.28a.79.79 0 0 1-.47.02.23.23 0 0 0-.01-.03.42.42 0 0 0-.24-.5.23.23 0 0 0-.02-.03l.2-.29a.45.45 0 0 1 .52-.07c.18.08.29.26.28.45v.18" fill="#FCC504"/><path d="M57.72 44.03l.02.03c-.06.2.05.42.24.5l.02.04a.6.6 0 0 1-.24.32.5.5 0 0 1-.67-.12.5.5 0 0 1 .08-.66.56.56 0 0 1 .55-.11" fill="#46D7F7"/><path d="M58.18 44c-.28-.17-.43-.6-.36-1 .28.17.43.6.36 1" fill="#178E05"/><path d="M73.38 44.49a1.5 1.5 0 0 1 2.6 1.2 1.5 1.5 0 0 1-2.82.5 3.07 3.07 0 0 1-.16-.52.76.76 0 0 0 .21-.1c.34-.27.4-.75.17-1.1" fill="#FDC503"/><path d="M71.9 45.16c-.2.35-.52.6-.9.75a1.5 1.5 0 0 1-1.05-2.8 1.54 1.54 0 0 1 2.05.96v.07a.67.67 0 0 0-.09.93v.1z" fill="#45D7F8"/><path d="M72.07 45.17v-.04c.4-.19.62-.17.93.05-.04.05-.08.1-.1.15a.7.7 0 0 0-.16.62v.03a.95.95 0 0 1-.74-.16v-.05a.6.6 0 0 0 .07-.6" fill="#FE703E"/><path d="M73.04 45.98c-.11-.27.01-.55.35-.78l.24-.2h.1c.45.3.32.7-.3.92l-.39.08" fill="#FD5701"/><path d="M72.08 44c.1.33.07.7-.08 1a.8.8 0 0 1 .08-1" fill="#465F3D"/><path d="M78 45.49a.5.5 0 1 1-1 0 .47.47 0 0 1 .49-.49.48.48 0 0 1 .51.49" fill="#FF703E"/><path d="M23 60a.98.98 0 0 1-1-1.02.95.95 0 0 1 .98-.98A1.01 1.01 0 0 1 24 59.02c0 .54-.44.98-.98.98" fill="#FDC505"/><path d="M14.98 53.52c0 .13-.05.26-.14.35-.1.09-.22.14-.35.13a.49.49 0 0 1-.35-.15.5.5 0 0 1-.14-.37.5.5 0 0 1 .16-.35c.1-.09.22-.13.35-.13.13 0 .27.05.36.15.1.1.14.23.13.37" fill="#48D8F9"/><path d="M32.5 44a.5.5 0 0 1-.36-.15.5.5 0 0 1-.14-.35c0-.14.05-.27.14-.36.1-.1.23-.15.36-.14.28.01.5.24.5.52a.5.5 0 0 1-.5.47" fill="#FF713F"/><path d="M16 40.53c0 .81-.67 1.47-1.5 1.47-.84-.03-1.5-.7-1.5-1.53 0-.81.67-1.47 1.5-1.47.4 0 .8.17 1.08.46.28.3.43.68.42 1.08M15 67.53c0 .81-.67 1.47-1.5 1.47-.84-.03-1.5-.7-1.5-1.53a1.49 1.49 0 0 1 2.58-1c.28.28.43.67.42 1.07" fill="#FF703E"/><path d="M55.52 52a1.51 1.51 0 0 1-1.02-2.63 1.44 1.44 0 0 1 1.7-.17c0 .14.03.29.07.43.06.3.33.53.65.53h.07c.03.3-.02.61-.14.9l-.17-.15a.8.8 0 0 0-.8-.11.78.78 0 0 0-.47.65c0 .18.04.36.1.53" fill="#FE703E"/><path d="M60 49.51c0 .13-.05.26-.14.35-.1.1-.23.14-.36.14a.5.5 0 0 1-.36-.15.49.49 0 0 1-.14-.36c0-.13.05-.26.14-.35a.5.5 0 0 1 .36-.14.5.5 0 0 1 .36.15c.1.1.15.23.14.36" fill="#FF703E"/><path d="M53.06 55a.98.98 0 0 1-.91-.47c-.2-.32-.2-.72-.01-1.04a.98.98 0 0 1 .9-.49c.26 0 .51.11.7.3.17.2.27.45.26.72 0 .25-.08.5-.26.69a.92.92 0 0 1-.67.29" fill="#FDC505"/><path d="M60 53.52a.5.5 0 1 1-.5-.52c.28.01.5.24.5.52" fill="#47D8F9"/><path d="M56.47 49.96h-.04A2.2 2.2 0 0 0 56 48.8c.02-.29.11-.53.24-.67s.29-.16.43-.05c.14.1.25.32.3.59.05.27.04.57-.03.82-.08.35-.27.55-.47.52" fill="#FDC505"/><path d="M55.07 51.98a1.6 1.6 0 0 1-.07-.42.6.6 0 0 1 .33-.51.5.5 0 0 1 .55.09l.12.1v.07c-.18.39-.51.64-.9.69l-.04-.02" fill="#465F3D"/><path d="M55 51.71c.39-.05.73-.31.9-.71.09.14.12.32.09.48a.64.64 0 0 1-.24.41.47.47 0 0 1-.4.1.53.53 0 0 1-.35-.28" fill="#46D7F7"/><path d="M56.05 49c.5.22.84.58.95 1-.44 0-.81-.24-.9-.55A2.1 2.1 0 0 1 56 49l.02-.01h.03" fill="#FD5701"/><path d="M23.01 46.68c.2-.88.83-1.53 1.59-1.65 1.08-.2 2.1.64 2.35 1.92.24 1.27-.38 2.56-1.42 2.94-.7.26-1.45.04-1.97-.56l-.25-.3v-.06c.47-.38.51-1.4.09-1.92a3.64 3.64 0 0 0-.4-.38" fill="#45D7F8"/><path d="M13 48.6c0-.77.33-1.29.96-1.51.73-.26 1.53.06 1.88.74a1.5 1.5 0 0 1-.53 1.94c-.65.4-1.5.26-1.97-.32l-.19-.25-.15-.59" fill="#FF703D"/><path d="M26.5 54c.4 0 .8.16 1.08.45.28.3.43.68.42 1.08 0 .39-.15.76-.42 1.04-.28.27-.66.43-1.05.43-.4 0-.8-.16-1.09-.45a1.5 1.5 0 0 1-.44-1.07c-.01-.4.15-.78.43-1.06.29-.28.68-.43 1.08-.42m.3 1.68c.2.01.4-.07.54-.2a.68.68 0 0 0 .19-.55c0-.4-.32-.74-.74-.75a.76.76 0 0 0-.75.76c0 .41.35.75.77.74" fill="#FE703E" fill-rule="nonzero"/><path d="M23 48.62a.3.3 0 0 0 0 .06c-.23.2-.5.32-.8.32-.55-.01-1.03-.49-1.17-1.15-.13-.67.13-1.36.62-1.68a.9.9 0 0 1 .97-.05c0 .09-.03.18-.04.27-.14.78.01 1.6.42 2.23" fill="#FE703E"/><path d="M17.03 48.49c-.14-.56.2-1.13.8-1.37.64-.24 1.38-.1 1.82.34.44.44.47 1.07.07 1.54l-.1-.2c-.18-.4-.6-.69-1.1-.77-.5-.08-1 .05-1.35.36l-.12.1" fill="#FCC504"/><path d="M17.05 48.64l.13-.13a1.64 1.64 0 0 1 2.71.52l.11.27-.02.08-.1.1a1.67 1.67 0 0 1-2.74-.47l-.12-.26c-.04-.09 0-.08 0-.11" fill="#148D03"/><path d="M16.26 49l.12.22c.2.4.62.7 1.13.78.5.07 1.02-.08 1.37-.4l.1-.09c.14.67-.36 1.32-1.14 1.46-.76.15-1.53-.24-1.75-.89a1 1 0 0 1 .17-1.08" fill="#46D7F7"/><path d="M22.03 54.35c-.12-.5.1-1 .5-1.23.41-.23.9-.13 1.2.25.32.39.36.95.1 1.38-.05.09-.1.17-.17.25h-.05a.97.97 0 0 0-.69-.83.94.94 0 0 0-.89.19" fill="#FCC504"/><path d="M23.94 55.62H24c.05.38-.06.76-.3 1.04a.86.86 0 0 1-1 .27 1.07 1.07 0 0 1-.68-1c-.05-.35.07-.7.32-.93l.13.3c.14.28.4.49.68.55a.9.9 0 0 0 .82-.24" fill="#46D7F7"/><path d="M26.02 44c-.27 0-.53-.1-.72-.3a1 1 0 0 1 .67-1.7c.57 0 1.02.45 1.03 1 0 .27-.1.52-.28.7a1 1 0 0 1-.7.3" fill="#FF713F"/><path d="M21.5 45a.48.48 0 0 1-.36-.14.47.47 0 0 1-.14-.36c0-.13.04-.26.13-.35a.51.51 0 0 1 .72 0 .5.5 0 0 1 0 .7.48.48 0 0 1-.34.14" fill="#FDC505"/><path d="M12.9 48.2l.1.39a.84.84 0 0 1-.24.41.2.2 0 0 0-.04 0 .42.42 0 0 0-.55-.08h-.04c-.05-.11-.1-.23-.12-.35a.47.47 0 0 1 .22-.48.46.46 0 0 1 .54 0l.14.1" fill="#FCC504"/><path d="M12.23 49h.04c.15.17.39.2.57.09h.04c.08.11.13.26.12.4 0 .28-.22.5-.49.51a.52.52 0 0 1-.5-.47.6.6 0 0 1 .21-.53" fill="#46D7F7"/><path d="M19 53.5c0-.14.05-.26.14-.36.09-.09.21-.14.34-.14a.5.5 0 0 1 .36.14c.1.1.16.23.16.36a.5.5 0 0 1-.5.5.5.5 0 0 1-.49-.5" fill="#FF7241"/><path d="M24 55.78c-.28.18-.65.26-1 .2a1.24 1.24 0 0 1-.84-.47l-.16-.25.02-.05c.32-.2.73-.26 1.11-.18.46.1.8.39.87.75" fill="#178E05"/><path d="M23.54 48.98a1.89 1.89 0 0 1-.48-1.77c0-.07.02-.14.04-.21h.06c.17.1.33.21.48.33.52.44.47 1.32-.1 1.67M27.52 55a.51.51 0 0 1-.45-.25.49.49 0 0 1 0-.5.51.51 0 0 1 .44-.25c.27.01.49.23.49.5a.45.45 0 0 1-.13.36c-.1.1-.23.15-.36.14" fill="#465F3D"/><path d="M13 49.06a.91.91 0 0 1-1-.12.9.9 0 0 1 1 .12" fill="#178E05"/><path d="M73.52 51c-.4 0-.8-.16-1.08-.45a1.5 1.5 0 1 1 2.13-2.1c.28.3.44.68.43 1.08 0 .8-.66 1.46-1.47 1.46M68.5 53c.4 0 .8.16 1.07.45.29.29.44.68.43 1.08 0 .39-.16.77-.44 1.05a1.5 1.5 0 0 1-1.07.42A1.53 1.53 0 0 1 67 54.49c0-.4.15-.78.43-1.06A1.5 1.5 0 0 1 68.5 53" fill="#FF703E"/><path d="M72.53 53.9c-.15-.13-.29-.27-.41-.43a1 1 0 1 1 .94.53l-.53-.1z" fill="#FDC505"/><path d="M72.92 54.01l.53.1c.26.16.44.4.52.68.1.39-.05.8-.38 1.03a1 1 0 0 1-1.13 0 .99.99 0 0 1-.44-1 .99.99 0 0 1 .9-.82" fill="#47D8F9"/><path d="M67 51.5c0-.14.05-.27.14-.36.1-.1.22-.14.35-.14.29.01.51.24.51.52a.5.5 0 0 1-.52.48.5.5 0 0 1-.35-.16.48.48 0 0 1-.13-.35" fill="#48D8F9"/><path d="M64 47.75c0-.17.03-.34.05-.51.14-.76.8-1.3 1.54-1.24.73.06 1.31.65 1.4 1.4.1.67-.25 1.32-.84 1.6l-.1-.39c-.15-.4-.44-.72-.82-.89a1.39 1.39 0 0 0-1.18.05H64" fill="#FCC504"/><path d="M64.8 48.01h.05c.03.51.32.97.76 1.2.43.25.93.29 1.38.11.09.74-.37 1.44-1.08 1.62-.69.2-1.42-.13-1.73-.79a1.6 1.6 0 0 1 .39-1.97c.07-.07.15-.12.24-.18" fill="#46D7F7"/><path d="M66.99 48.93a2.1 2.1 0 0 1-1.28-.06c-.4-.15-.68-.45-.71-.77a1.9 1.9 0 0 1 1.12-.03c.37.1.65.31.78.57l.1.25-.03.04" fill="#148D03"/><path d="M52.05 57h.53c.8.07 1.4.69 1.42 1.43.02.74-.52 1.38-1.28 1.52a1.58 1.58 0 0 1-1.72-.68c.13-.05.26-.08.4-.14.4-.18.7-.5.82-.9.13-.4.07-.83-.16-1.18a.2.2 0 0 0 0-.05" fill="#FCC504"/><path d="M52 56.68v.05c-.53.08-.96.4-1.16.86-.2.44-.2.94.03 1.37-.74.16-1.5-.23-1.76-.91-.28-.67 0-1.42.64-1.8.64-.4 1.5-.32 2.05.2l.2.23" fill="#46D7F7"/><path d="M51.12 58.98a1.8 1.8 0 0 1-.03-1.22c.13-.4.42-.7.76-.76.15.32.2.7.1 1.06-.08.36-.27.66-.54.81-.08.06-.17.09-.26.13l-.04-.02" fill="#148D03"/><path d="M32.52 49a1.5 1.5 0 0 1-1.42-.95 1.53 1.53 0 0 1 .4-1.68 1.45 1.45 0 0 1 1.69-.17c.01.14.04.28.07.42.07.31.34.54.66.54h.07c.03.3-.02.61-.14.9-.05-.06-.1-.1-.17-.15a.8.8 0 0 0-.8-.11.78.78 0 0 0-.47.65c0 .18.04.36.1.53" fill="#FE703E"/><path d="M34.46 48h-.04c-.04-.5-.2-.95-.42-1.22.02-.28.11-.52.24-.66s.29-.16.43-.05c.14.1.25.32.3.59.05.26.04.56-.03.82-.08.35-.28.56-.48.51" fill="#FDC505"/><path d="M33.07 48.98a1.63 1.63 0 0 1-.07-.42.6.6 0 0 1 .33-.51.5.5 0 0 1 .55.09l.12.1v.08c-.18.38-.51.63-.89.68l-.05-.02" fill="#465F3D"/><path d="M33 48.71c.39-.05.73-.31.9-.71.09.14.12.32.09.48a.64.64 0 0 1-.24.41.47.47 0 0 1-.41.1.53.53 0 0 1-.34-.28" fill="#46D7F7"/><path d="M33.05 47c.5.22.84.58.95 1-.44 0-.81-.24-.9-.56a2.02 2.02 0 0 1-.1-.43l.02-.01h.03" fill="#FD5701"/><path d="M63.5 55a.5.5 0 1 1 0-1c.28 0 .5.23.5.51a.47.47 0 0 1-.49.49M73.5 60a.5.5 0 0 1-.5-.5c0-.28.23-.5.5-.5.28 0 .5.24.5.51a.47.47 0 0 1-.49.49" fill="#FF7241"/><path d="M44.84 42.21c-.2.4-.58.68-1.01.79l-.06-.03c-.29-.53-.91-.81-1.52-.67l-.06-.03a1.74 1.74 0 0 1-.16-1.1c.13-.64.69-1.12 1.36-1.17.68-.03 1.3.38 1.52 1.02.1.26.12.54.05.8l-.14.38" fill="#FDC503"/><path d="M42 44.53c-.24.3-.56.48-.9.47-.62-.04-1.11-.73-1.1-1.54 0-.4.12-.77.33-1.04a1 1 0 0 1 .8-.42l.33.03v.05c-.26.38-.35.9-.25 1.4.11.48.4.86.78 1v.05" fill="#FE703E"/><path d="M41.53 44.97v-.05c.61-.84.17-2.25-.53-2.42v-.05l.59-.45.05.02c.23.55.7.84 1.17.7l.04.02c.13.32.17.67.14 1.02-.09.75-.6 1.29-1.17 1.24l-.25-.03" fill="#46D7F7"/><path d="M45 41.48l.1-.28.19-.14a.47.47 0 0 1 .37-.04c.12.04.23.13.29.25.11.24.03.53-.2.67a.46.46 0 0 1-.37.04.48.48 0 0 1-.28-.26l-.1-.25" fill="#FF7241"/><path d="M43 42.95c-.4.19-.8-.18-1-.9.4-.19.8.18 1 .9" fill="#178E05"/><path d="M41.26 43c.63.14 1.03 1.3.48 2-.34-.12-.6-.44-.7-.84-.1-.4-.01-.84.22-1.16" fill="#465F3D"/><path d="M40 53.6c0-.78.33-1.29.96-1.51.72-.26 1.53.06 1.87.74.36.68.13 1.53-.53 1.94a1.5 1.5 0 0 1-1.96-.32l-.19-.25-.15-.59" fill="#FF703D"/><path d="M43.04 53.49c-.15-.56.18-1.13.8-1.37.63-.24 1.37-.1 1.81.34.44.44.47 1.07.07 1.54l-.1-.2c-.18-.4-.6-.7-1.1-.78-.5-.08-1.02.06-1.36.37l-.12.1z" fill="#FCC504"/><path d="M43.05 53.64l.14-.13a1.64 1.64 0 0 1 2.7.52l.11.27-.02.08-.1.1a1.66 1.66 0 0 1-2.74-.47l-.12-.26c-.04-.1 0-.08 0-.11" fill="#148D03"/><path d="M43.25 54l.11.21c.2.41.63.71 1.14.79.5.07 1.03-.08 1.38-.4l.1-.09c.14.67-.35 1.31-1.13 1.46-.77.15-1.54-.24-1.77-.89-.15-.36-.09-.77.18-1.08" fill="#46D7F7"/><path d="M39.9 53.2l.1.39a.82.82 0 0 1-.24.41.1.1 0 0 0-.04 0 .42.42 0 0 0-.55-.08.1.1 0 0 0-.04 0c-.06-.11-.1-.23-.12-.35a.47.47 0 0 1 .22-.48.45.45 0 0 1 .54 0l.14.1" fill="#FCC504"/><path d="M39.23 54h.04c.15.17.39.2.57.09a.1.1 0 0 1 .04 0c.08.11.13.26.12.4a.5.5 0 0 1-.49.51.52.52 0 0 1-.5-.47.6.6 0 0 1 .21-.53" fill="#46D7F7"/><path d="M40 54.06a.91.91 0 0 1-1-.12.9.9 0 0 1 1 .12" fill="#178E05"/><path d="M52.44 47.2a2.53 2.53 0 0 1-3.52.17 2.37 2.37 0 0 1-.83-2.49c.18-.88.88-1.58 1.79-1.8a2.64 2.64 0 0 1 1.93.24c.58.32 1.01.85 1.19 1.47l-.24.08c-.43.14-.75.47-.86.9-.12.4-.01.85.28 1.18l.26.25" fill="#FF6F3D"/><path d="M52 41.52c0 .4-.1.77-.28 1.04-.19.28-.45.44-.71.44-.56-.02-1-.67-1.01-1.47-.01-.8.41-1.47.96-1.53.28 0 .55.16.74.45.2.29.3.67.3 1.07" fill="#FDC503"/><path d="M52.54 45c.71-.06 1.36.32 1.45.86.1.52-.36 1-1.04 1.12-.33.06-.68 0-.95-.15.33-.3.54-.66.6-1.05 0-.26-.02-.51-.06-.77" fill="#46D7F7"/><path d="M40 50.01a1 1 0 0 1-1 .99c-.56 0-1-.46-1-1.02a1 1 0 0 1 .98-.98c.57 0 1.02.46 1.02 1.01" fill="#FDC505"/><path d="M51.96 45.03c.03.28.04.56.04.84-.05.41-.22.8-.49 1.13h-.05l-.2-.21a1.08 1.08 0 0 1 .46-1.73l.2-.06.04.02" fill="#465F3D"/><path d="M45 48.41c.03-.13.1-.24.21-.32a.5.5 0 0 1 .38-.08c.27.05.44.3.4.58a.48.48 0 0 1-.2.32.5.5 0 0 1-.38.08.5.5 0 0 1-.4-.58" fill="#FDC607"/><path d="M50 50.5a.5.5 0 0 1-.5.5.5.5 0 0 1-.5-.52.47.47 0 0 1 .48-.48.48.48 0 0 1 .52.5" fill="#48D8F9"/><path d="M76.5 36c-.13 0-.26-.1-.35-.3-.1-.19-.15-.44-.15-.7 0-.54.21-.98.48-1 .14 0 .27.11.37.3.1.2.15.46.15.74 0 .25-.05.5-.15.68-.1.17-.22.27-.35.26" fill="#45D7F8"/><path d="M74.01 31a1 1 0 0 1 .99 1.02c0 .27-.1.52-.3.7a1 1 0 0 1-1.7-.75c0-.25.1-.5.28-.7A.97.97 0 0 1 74 31" fill="#FF713F"/><path d="M74 68a1 1 0 0 1-1-1 1 1 0 0 1 .97-1A1 1 0 0 1 75 67.04c0 .53-.45.96-1 .96" fill="#46D8F9"/></g></svg>