<svg height="473" width="416" xmlns="http://www.w3.org/2000/svg"><g fill="none" fill-rule="evenodd"><path d="M203.44 4.54c3.05.4 5.4 2.87 5.67 5.93.35 3-1.5 5.83-4.39 6.71-1.18.2-2.38.26-3.57.15a8 8 0 0 1-1.37-.23l-1-.51-.21-.4a8.72 8.72 0 0 1-2.46-6.35c.12-.04.24-.07.37-.08a2.9 2.9 0 0 0 3.52.51c2.05-.84 3.67-2.25 3.42-5.74" fill="#ff713f"/><path d="M196.5 9.77c-.13.01-.25.04-.37.08a4.73 4.73 0 0 1-2.33-5.51 4.59 4.59 0 0 1 3.84-3.68c2.45-.5 4.65 1 5.62 3.73-.33 0-.66.08-1 .1a6 6 0 0 0-5.77 5.28" fill="#fdc505"/><path d="M196.5 9.77a6 6 0 0 1 5.77-5.28c.33 0 .66-.07 1-.1a.2.2 0 0 1 .18.15c.25 3.49-1.37 4.9-3.42 5.74a2.9 2.9 0 0 1-3.52-.51" fill="#fd5701"/><path d="M199.8 17.11l-1-.51z" fill="#fff"/><path d="M235.22 95.34a13.58 13.58 0 0 1-19.4 1A13.86 13.86 0 0 1 211.28 82a13.36 13.36 0 0 1 9.84-10.31c8.17-2.36 15.79 3.45 17.2 9.8-.45.14-.91.25-1.35.42a7.49 7.49 0 0 0-3.15 11.94c.43.52.93 1 1.4 1.46" fill="#ff6f3d"/><path d="M157.52 388.69c1.63-5.31 5.32-8.25 10.68-9.3 6.49-1.27 14 3.06 15.71 10.61s-2.33 14.66-9.48 16.74c-5 1.43-9.34.2-13.16-3.16-.61-.53-1.15-1.15-1.71-1.73 0-.11 0-.21.05-.32 3.15-2.13 3.42-7.9.59-10.75a25 25 0 0 0-2.68-2.09" fill="#45d7f8"/><path d="M54.47 323.68a10.24 10.24 0 0 1-20.47-.17 10.08 10.08 0 0 1 10-10.31 10.55 10.55 0 0 1 10.42 10.48" fill="#46d8f9"/><path d="M302.5 373.21a10.08 10.08 0 0 1-10.08 10.25A10.48 10.48 0 0 1 282.2 373a10.1 10.1 0 0 1 17.38-7.11 10.28 10.28 0 0 1 2.92 7.33" fill="#fdc503"/><path d="M345.46 163.18c-1.13-2.16-2.16-4.31-2.09-6.87.03-4.83 3.37-9 8.08-10.1 4.88-1 9.8 1.53 11.81 6.09 2.95 6.83-1.55 14.52-8.72 14.89-.34 0-.67-.04-1-.09.23-1.1.36-2.22.4-3.35a4.35 4.35 0 0 0-4.23-3.82 3.91 3.91 0 0 0-3.92 3.26h-.33M258.52 70.3a8.79 8.79 0 0 1 8.89-9 9.12 9.12 0 0 1 9.09 9.17 8.9 8.9 0 0 1-9 9.15 9.07 9.07 0 0 1-9-9.29" fill="#ff703d"/><path d="M325.52 382.94a9.54 9.54 0 0 1-10-3.66 9.8 9.8 0 0 1-1.48-9.92 9.52 9.52 0 0 1 9.37-6.42c4.47.13 8.32 3.18 9.46 7.5.17.92.28 1.85.32 2.78-.4-.07-.79-.18-1.19-.21a6.47 6.47 0 0 0-7.16 7.42c.17.85.41 1.7.72 2.51" fill="#45d7f8"/><path d="M180.29 109.72a8.81 8.81 0 0 1-8.8-8.94 8.66 8.66 0 0 1 14.89-5.97 8.79 8.79 0 0 1 2.48 6.33 8.44 8.44 0 0 1-8.57 8.6" fill="#ff703e"/><path d="M209.18 403.71a8.39 8.39 0 0 1-8.47 8.66 8.78 8.78 0 0 1-8.84-8.87 8.59 8.59 0 0 1 8.54-8.69 8.7 8.7 0 0 1 8.77 8.9M264.27 121.26c0 4.7-3.77 8.52-8.46 8.58a8.78 8.78 0 0 1-8.71-8.84 8.4 8.4 0 0 1 8.56-8.61 8.68 8.68 0 0 1 8.61 8.87" fill="#fdc503"/><path d="M173.73 324.77a8.38 8.38 0 0 1 8.35-8.6 8.83 8.83 0 0 1 8.66 8.87 8.51 8.51 0 1 1-17-.27" fill="#ff703d"/><path d="M113 148.94a8.44 8.44 0 0 1-8.5 8.45 8.85 8.85 0 0 1-8.52-8.81c0-4.69 3.78-8.5 8.47-8.53a8.64 8.64 0 0 1 8.55 8.89" fill="#ff703e"/><path d="M214.54 386.77a8.62 8.62 0 0 1-8.67-8.78 8.52 8.52 0 0 1 8.43-8.56 8.81 8.81 0 0 1 8.59 8.73 8.47 8.47 0 0 1-8.35 8.61" fill="#46d8f9"/><path d="M225.86 132.64a8.39 8.39 0 0 1-8.38 8.56 8.86 8.86 0 0 1-8.58-8.74 8.53 8.53 0 0 1 8.57-8.63 8.62 8.62 0 0 1 8.39 8.81" fill="#ff703d"/><path d="M209.08 38.68a8.65 8.65 0 1 1 9.57 2.64c-.9.25-1.83.42-2.77.53-.1-.04-.21-.07-.32-.09a4.34 4.34 0 0 0-.38-1.28c-1.43-2.11-3.25-2.63-6.1-1.8" fill="#fdc503"/><path d="M213.69 46.78a10 10 0 0 1 3.58 5.7 8.5 8.5 0 0 1-6.45 10.12 8.66 8.66 0 0 1-10.22-6.36 8.78 8.78 0 0 1 7-10.84l.36.14c1.65 1.86 3 2.18 5.2 1.22z" fill="#45d7f8"/><path d="M101.92 397c0-4.42 1.83-7.34 5.34-8.65a8.47 8.47 0 0 1 10.48 4.19 8.63 8.63 0 0 1-3 11.09 8.31 8.31 0 0 1-10.95-1.84c-.38-.46-.71-1-1.07-1.46l-.84-3.33" fill="#ff703d"/><path d="M373.34 186.75a8.53 8.53 0 0 1-8.54-8.44 8.38 8.38 0 0 1 8.51-8.22c4.69.1 8.45 3.9 8.48 8.59a8.27 8.27 0 0 1-8.45 8.07M186.27 347.29c-.25 5.1-3.76 8.47-8.36 8.4a8.48 8.48 0 0 1 .05-16.95 8.64 8.64 0 0 1 8.31 8.55M291.13 88.73A8.12 8.12 0 0 1 283 97a8.3 8.3 0 0 1-8.17-8.54 8.08 8.08 0 0 1 8.16-8.27 8.38 8.38 0 0 1 8.19 8.55" fill="#46d8f9"/><path d="M204.09 157.48a23.4 23.4 0 0 1-4.38-.39 8.56 8.56 0 0 1-6-9.39 8.44 8.44 0 0 1 7.61-7.44c4.71-.52 9 3.33 9.35 8.31v1.61l-.33.35a7.57 7.57 0 0 0-6.08 6.63l-.21.32" fill="#fdc503"/><path d="M148.26 120.46a8.12 8.12 0 0 1 8.11 8.3 8 8 0 0 1-8.12 8 8.33 8.33 0 0 1-8.05-8.25 8 8 0 0 1 8.06-8.09" fill="#ff703e"/><path d="M337.85 117c-1.13 2.44-3.22 3.66-5.65 4.46-.1-.06-.2-.1-.31-.14a7.68 7.68 0 0 0-8.43-3.85l-.35-.13c-.81-2-1.45-4-.91-6.26a8.36 8.36 0 0 1 7.62-6.68 8.46 8.46 0 0 1 8.54 5.81c.58 1.45.67 3.05.28 4.56l-.79 2.23" fill="#fdc503"/><path d="M204.09 157.48l.21-.32a7.59 7.59 0 0 0 6.08-6.63l.33-.35c1.34.02 2.68.15 4 .38a8.42 8.42 0 0 1 6.07 8.78 8.3 8.3 0 0 1-7.3 7.77 8.45 8.45 0 0 1-9.27-7.41c0-.74-.08-1.48-.12-2.22" fill="#45d7f8"/><path d="M82.28 150.63a8.07 8.07 0 0 1 7.94 8.08 7.82 7.82 0 0 1-7.77 7.95 8.15 8.15 0 0 1-8-8.07 7.93 7.93 0 0 1 7.81-8" fill="#fdc505"/><path d="M305.73 355a7.86 7.86 0 0 1 7.81-7.92 8.07 8.07 0 0 1 7.94 8.09 7.89 7.89 0 0 1-7.81 7.93 8.12 8.12 0 0 1-7.94-8.1" fill="#ff703e"/><path d="M83.44 121.29a7.79 7.79 0 0 1 .22 15.57 7.79 7.79 0 0 1-7.72-7.73c-.19-4.37 3.62-8.12 7.5-7.84" fill="#46d8f9"/><path d="M112.42 76.75a7.73 7.73 0 0 1 2.65 8.32c-.92 3.21-3 5.33-6.3 5.84a7.67 7.67 0 0 1-8.19-3.64c-2.6-4.15-1.38-9.22 2.65-11.37a9 9 0 0 0 9.19.85" fill="#45d7f8"/><path d="M182.18 429.65a8.73 8.73 0 0 1 8.71 9 8.53 8.53 0 0 1-8.6 8.64 8.87 8.87 0 0 1-8.85-8.94c0-5 4.16-9 8.74-8.71m1.69 9.89a4.08 4.08 0 0 0 4.22-4.4 4.42 4.42 0 0 0-4.33-4.45 4.43 4.43 0 0 0 .11 8.85" fill="#fe703e" fill-rule="nonzero"/><path d="M160.77 82.68a7.45 7.45 0 0 1 7.42-7.5c4.26.1 7.65 3.6 7.59 7.86a7.47 7.47 0 0 1-12.89 5.15 7.59 7.59 0 0 1-2.12-5.51" fill="#fdc505"/><path d="M239.17 63.19a7.38 7.38 0 0 1-7.35 7.53 7.63 7.63 0 0 1-7.68-7.72 7.55 7.55 0 0 1 7.36-7.59 7.71 7.71 0 0 1 7.67 7.77" fill="#fdc503"/><path d="M283 407a8.3 8.3 0 0 1-.1-10 8.12 8.12 0 0 1 9.61-2.52 8.52 8.52 0 0 1 5 9.22 7.83 7.83 0 0 1-6.84 6.65l.25-1a4.18 4.18 0 0 0-2.63-5.2c-2.12-.77-3.8.05-5 2.44-.1.16-.23.32-.37.46" fill="#ff703d"/><path d="M118.8 320.72c2-1.1 4-1.89 6.34-1.39a8.09 8.09 0 0 1 6.48 7.09c.31 4.07-1.69 7.44-5.33 8.54a7.7 7.7 0 0 1-10.07-5.52c.4 0 .8 0 1.2-.1a4.37 4.37 0 0 0 3.68-3.5 4.26 4.26 0 0 0-2.29-4.85.82.82 0 0 0 0-.27" fill="#45d7f8"/><path d="M272.77 161c-3.72.24-6.7-2.68-7.66-5.21a8.44 8.44 0 0 1 2.19-9.25c2.56-2.29 5.79-2.62 9.19-.94.08.8.21 1.58.4 2.35.56 1.7 1.6 2.91 3.57 3l.37.11c-.11 1.65.21 3.36-.73 4.88-.31-.26-.6-.53-.93-.77a4.26 4.26 0 0 0-6.93 3c.04 1 .22 1.98.53 2.92" fill="#fe703e"/><path d="M284.68 323.65c.09-.94.11-1.89.29-2.81a8.3 8.3 0 0 1 8.8-6.74 8.6 8.6 0 0 1 7.9 7.63c.38 4-1.33 7.15-4.77 8.75-.19-.71-.33-1.44-.58-2.13-1.83-5-7.68-6.78-11.36-4.63a.89.89 0 0 0-.28-.07M29.49 142.06a7.74 7.74 0 0 1 .17-8.88 7.61 7.61 0 0 1 8.23-2.85 7.81 7.81 0 0 1 5.53 6.78 7.56 7.56 0 0 1-4 7.49c-2.68-3.24-5.94-4.21-9.88-2.54" fill="#fcc504"/><path d="M88.78 89.63a7.23 7.23 0 0 1 7.35 7.27 7.06 7.06 0 0 1-7 6.92 7.46 7.46 0 0 1-7.26-7.27 6.88 6.88 0 0 1 6.94-6.92" fill="#ff703e"/><path d="M128.12 248.52a7.23 7.23 0 0 1 7.09 7.14 7 7 0 0 1-7 7.12c-3.9-.12-7-3.33-7-7.24a7 7 0 0 1 6.93-7M114.81 64.16a8.39 8.39 0 0 1-1.64 12c-.23.14-.46.25-.71.34a8.67 8.67 0 0 0-9.22-.87 7.73 7.73 0 0 1-2.77-8.6 7.63 7.63 0 0 1 6.77-6c-.16.44-.35.87-.48 1.31a4.06 4.06 0 0 0 2.74 5c2.63.59 4.49-.57 5.06-3.15l.25-.07" fill="#fdc503"/><path d="M284.68 323.65c.1 0 .2.03.28.07a7.9 7.9 0 0 0 4.17 6.51c2.42 1.46 5 1.36 7.61.56.26 4.26-2.11 7.88-6 8.73s-7.34-.25-9.57-4.31a8.44 8.44 0 0 1 2.16-10.62c.43-.33.88-.63 1.32-.94" fill="#46d7f7"/><path d="M360.52 328.72a7.55 7.55 0 0 1 11.24-9.06 8 8 0 0 1 3.18 8.76 7.34 7.34 0 0 1-7 5.41c.22-.5.4-1 .54-1.52a4.53 4.53 0 0 0-4.28-5.44 5.15 5.15 0 0 0-3.68 1.85M322.74 133.84a8.9 8.9 0 0 1-6.53 2.63 8.46 8.46 0 0 1-8.06-8.65 8.11 8.11 0 0 1 8.23-8.16c.8 0 1.6.12 2.41.19a.83.83 0 0 0 0 .27c-4.53 5-1.11 12.41 3.87 13.44l.05.28" fill="#fe703e"/><path d="M241.62 344a7.82 7.82 0 0 1 5.87-9.1 8.1 8.1 0 0 1 9.7 5.64 7.9 7.9 0 0 1-3.68 9.36 8.23 8.23 0 0 0-6.42-6.73 8.64 8.64 0 0 0-5.47.83" fill="#fcc504"/><path d="M217.81 355.91a6.7 6.7 0 0 1-6.56-6.81 6.6 6.6 0 0 1 6.65-6.48 6.78 6.78 0 0 1 6.46 6.74 6.52 6.52 0 0 1-6.55 6.55" fill="#ff713f"/><path d="M177 128.16c-.98-.8-1.86-1.72-2.64-2.72a6.48 6.48 0 1 1 7.2 3.18c-.38.1-.79.14-1.19.21zM65.85 98.47c-.51-.15-1-.27-1.53-.46a6.71 6.71 0 0 1-4.08-7.71 6.39 6.39 0 0 1 6.42-5.06 6.64 6.64 0 0 1 1.87 13c-.38.12-.77.22-1.16.33h-1.52" fill="#fdc505"/><path d="M276.65 338.86a6.7 6.7 0 0 1 6.6 6.78 6.52 6.52 0 1 1-13-.36 6.4 6.4 0 0 1 6.43-6.42" fill="#ff703e"/><path d="M73.93 346.84a8.22 8.22 0 0 1 13.12-9.56A8.36 8.36 0 0 1 88.24 348c-.36-.49-.69-1-1.07-1.47a8 8 0 0 0-8.1-3 8.75 8.75 0 0 0-5.14 3.39" fill="#fcc504"/><path d="M102.42 119.41a6.44 6.44 0 0 1-6.57-6.67 6.23 6.23 0 0 1 6.32-6.44 6.61 6.61 0 0 1 6.66 6.66 6.47 6.47 0 0 1-6.41 6.45" fill="#fdc505"/><path d="M177.06 36.33a6.32 6.32 0 0 1-6.37 6.47 6.67 6.67 0 0 1-6.55-6.63 6.46 6.46 0 1 1 12.92.16M243.22 36.32a6.32 6.32 0 0 1-6.36 6.48 6.62 6.62 0 0 1-4.68-11.2 6.44 6.44 0 0 1 4.55-1.91 6.55 6.55 0 0 1 6.49 6.63" fill="#ff713f"/><path d="M201.34 451a6.34 6.34 0 0 1 6.38-6.45 6.6 6.6 0 0 1 6.42 6.72 6.41 6.41 0 0 1-6.42 6.44 6.54 6.54 0 0 1-6.38-6.71" fill="#fdc505"/><path d="M19.56 116a6.56 6.56 0 0 1 6.44 6.7 6.46 6.46 0 0 1-6.5 6.39 6.55 6.55 0 0 1-6.4-6.71 6.24 6.24 0 0 1 6.46-6.38" fill="#ff713f"/><path d="M253.36 350.23a7.59 7.59 0 0 1-3.71 7.81 7.9 7.9 0 0 1-10.83-3c-2.18-3.69-.85-9.11 2.64-10.74.94 3.25 2.8 5.6 6.2 6.52 1.91.41 3.9.21 5.7-.58" fill="#45d7f8"/><path d="M305.09 145.64a3.11 3.11 0 0 1-3.18 3.2 3.2 3.2 0 0 1-3.19-3.33 3.11 3.11 0 0 1 3.18-3.2 3.21 3.21 0 0 1 3.19 3.33" fill="#ff703e"/><path d="M324.7 148.26a6.52 6.52 0 0 1 4.67 11.03 6.44 6.44 0 0 1-4.54 1.95 6.59 6.59 0 0 1-4.61-11.16 6.29 6.29 0 0 1 4.48-1.82" fill="#fdc505"/><path d="M159.61 401.53c0 .11 0 .21-.05.32a8.55 8.55 0 0 1-4.9 1.61 7.67 7.67 0 0 1-3.48-14.41 6.7 6.7 0 0 1 6-.25l-.24 1.38c-.62 4.13-.15 8 2.64 11.35" fill="#fe703e"/><path d="M398.17 134.86a6.39 6.39 0 0 1-6.47 6.37 6.69 6.69 0 0 1-6.4-6.57 6.44 6.44 0 1 1 12.87.2" fill="#47d8f9"/><path d="M121.54 402.63c-1-3.48 1-8.13 4.82-9.94a9.12 9.12 0 0 1 10.82 2.42c2.94 3.56 2.69 8.62.43 11.23-.19-.5-.38-1-.59-1.5a8.79 8.79 0 0 0-14.76-2.91c-.23.24-.48.47-.72.7" fill="#fcc504"/><path d="M177 128.16l3.37.67a7.45 7.45 0 0 1 3.33 4.4 6.52 6.52 0 0 1-2.48 6.8 6.23 6.23 0 0 1-7.2.11 6.55 6.55 0 0 1-2.83-6.65c.64-3.06 2.39-4.67 5.81-5.33M119.69 144.91a6.49 6.49 0 0 1-6.3-6.59 6.36 6.36 0 0 1 6.47-6.37 6.66 6.66 0 0 1 6.35 6.61 6.39 6.39 0 0 1-6.52 6.35" fill="#47d8f9"/><path d="M65.85 98.47h1.52a7.51 7.51 0 0 1 3.62 2.1c2.04 2.2 2.3 5.5.65 8a6.28 6.28 0 0 1-7.25 2.51 6.82 6.82 0 0 1-4.48-6.35c.08-3 2.21-5.55 5.15-6.17l.79-.16" fill="#46d8f9"/><path d="M121.54 402.63c.24-.23.49-.46.72-.7a8.79 8.79 0 0 1 14.74 2.91c.21.5.4 1 .59 1.5l-.12.44-.58.56a9 9 0 0 1-14.8-2.61l-.67-1.48c0-.2.07-.41.1-.62" fill="#148d03"/><path d="M249.18 440.77a6.32 6.32 0 0 1-.22-12.64 6.44 6.44 0 0 1 6.37 6.48 6.11 6.11 0 0 1-6.15 6.16" fill="#ff713f"/><path d="M142.52 36.92a6.19 6.19 0 0 1 6.19-6.37 6.48 6.48 0 0 1 4.5 10.92 6.25 6.25 0 0 1-4.44 1.87 6.32 6.32 0 0 1-6.23-6.38" fill="#fdc505"/><path d="M88.18 348.49a7.71 7.71 0 0 1-1.41 8.8 7.57 7.57 0 0 1-8.33 2.18 7.84 7.84 0 0 1-5.64-6.77c-.23-1.87-.25-3.8 1.11-5.39.36.49.7 1 1.08 1.46a8.14 8.14 0 0 0 10.22 2.1c1.07-.7 2.07-1.5 3-2.38" fill="#46d7f7"/><path d="M211.08 333a6.23 6.23 0 1 1-12.46-.16 6.23 6.23 0 0 1 12.46.16M239.47 392.05a6.25 6.25 0 0 1-.11-12.49c3.4.1 6.14 2.85 6.21 6.26a6.05 6.05 0 0 1-6.1 6.23" fill="#fdc505"/><path d="M121.44 403.25c.22.49.44 1 .67 1.48a9 9 0 0 0 14.8 2.61l.58-.56a8.63 8.63 0 0 1-6.64 10.05 8.86 8.86 0 0 1-10.47-6.1 7.88 7.88 0 0 1 1.06-7.48" fill="#46d7f7"/><path d="M135 90a6.16 6.16 0 0 1-6.18 6.2 6.38 6.38 0 0 1-6.11-6.35 6.13 6.13 0 0 1 6.19-6.17c3.41.1 6.12 2.9 6.1 6.32" fill="#ff713f"/><path d="M387.83 345.76c-.05-1.26.04-2.53.26-3.77a6.21 6.21 0 0 1 7.11-4.3 6.7 6.7 0 0 1 5.4 6.64 6.44 6.44 0 0 1-5.49 6.3c-.46.06-.94.08-1.4.12l-.34-.2a5.55 5.55 0 0 0-5.26-4.49z" fill="#fcc504"/><path d="M212.68 241.55a6.17 6.17 0 1 1-12.34.09 6.17 6.17 0 0 1 12.34-.09" fill="#45d7f8"/><path d="M322.74 133.84l-.05-.28c4.43-4.65 1.19-12.53-3.87-13.44a.83.83 0 0 1 0-.27l4.32-2.54.36.13c1.92 3.23 4.78 4.39 8.42 3.85.1.03.21.08.31.14a9.79 9.79 0 0 1 1 5.68 8.09 8.09 0 0 1-8.6 6.89l-1.82-.16" fill="#46d7f7"/><path d="M104.1 376.53a6.48 6.48 0 0 1-6.52-3.18 6.94 6.94 0 0 1-.43-7.31 6.4 6.4 0 0 1 5.63-3.7 6.79 6.79 0 0 1 6.47 3.37c.34.58.65 1.18.92 1.8l-.15.18c-3.4.05-6 3.47-6 6.22 0 .87.07 1.75.1 2.62" fill="#fcc504"/><path d="M270.74 389a6.2 6.2 0 0 1-6 6.15 6.31 6.31 0 0 1-6.09-6.32 6.16 6.16 0 0 1 6.1-6 6.29 6.29 0 0 1 6 6.2" fill="#47d8f9"/><path d="M393.37 350.55l.34.2c0 .67.05 1.34 0 2a6.15 6.15 0 0 1-6.13 6 6.46 6.46 0 0 1-6.42-5.77 6.28 6.28 0 0 1 5.26-7c.46-.09.92-.14 1.39-.22l.28.3a5.8 5.8 0 0 0 5.26 4.49M110.17 367.51c.6.05 1.21.08 1.81.16a7 7 0 0 1 5.83 7 6.86 6.86 0 0 1-6.26 7 6.7 6.7 0 0 1-7.13-5c4.71-1.41 6.76-4.69 5.6-9l.15-.18" fill="#46d7f7"/><path d="M146.28 57.41c-3-.62-4.93-2.32-5.46-5.42a6.14 6.14 0 0 1 3.78-6.64c2.68-1 5.7-.04 7.31 2.32 1.8 2.82 1.3 5.49-.63 8l-.37.1a3.61 3.61 0 0 0-4.23 1.45z" fill="#46d8f9"/><path d="M61.44 144.72a5.86 5.86 0 0 1-5.91 5.88 6 6 0 0 1-5.94-6.11 5.87 5.87 0 0 1 6-6 6.1 6.1 0 0 1 5.86 6.24" fill="#ff713f"/><path d="M336.5 329.5a6 6 0 0 1 6 5.84 5.85 5.85 0 1 1-11.7 0 5.62 5.62 0 0 1 5.68-5.84" fill="#47d8f9"/><path d="M238.6 81.68c4-.48 7.65 2.36 8.16 6.36a7.49 7.49 0 0 1-5.88 8.39c-1.86.43-3.82 0-5.34-1.14 1.75-2.34 3.2-4.85 3.37-7.82 0-1.93-.1-3.87-.31-5.79M27.36 144.08l2.07-1.73a21.7 21.7 0 0 0 2.4 2.11c2.39 1.57 4.93 1.42 7.5.43 2.49 3.37 1.15 8.21-2 10.34-3.73 2.56-8.51 1-10.13-1.86l1.16-.3a4.31 4.31 0 0 0 3.37-4 4.52 4.52 0 0 0-2.69-4.51c-.56-.21-1.14-.38-1.73-.51M197.33 470.51c-1.86 1.77-4 2.77-6.6 2a6.19 6.19 0 0 1-4.65-5.31 6.05 6.05 0 0 1 2.8-6.28 6 6 0 0 1 6.85 0l.86.54v.31c-3.27 2.44-2.93 6.59.69 8.49l.08.24" fill="#46d7f7"/><path d="M279.39 107.17c-1.36-2.68-.74-5.14 1-7.33a6.47 6.47 0 0 1 7.12-2.22 7.13 7.13 0 0 1-.54 13.9c.32-.49.63-1 1-1.48a4.77 4.77 0 0 0-.27-5.61c-2.79-2.84-6.3-1.76-7.52 1.54-.17.47 0 1.14-.78 1.2" fill="#ff703e"/><path d="M322.79 81.29c0 2.97-2.37 5.4-5.34 5.48a5.71 5.71 0 0 1-5.64-5.68 5.48 5.48 0 0 1 9.44-3.83 5.54 5.54 0 0 1 1.54 4.03" fill="#fdc505"/><path d="M80.36 384.71a5.65 5.65 0 0 1 5.64 5.7 5.59 5.59 0 0 1-5.41 5.5 5.77 5.77 0 0 1-5.66-5.73 5.57 5.57 0 0 1 5.43-5.47" fill="#ff713f"/><path d="M364.85 146.13a5.55 5.55 0 0 1-5.42-5.62 5.4 5.4 0 0 1 5.47-5.31 5.49 5.49 0 0 1 5.3 5.52 5.35 5.35 0 0 1-5.35 5.41" fill="#fdc505"/><path d="M317.48 94.53a5.13 5.13 0 0 1-5.3 5.39A5.47 5.47 0 0 1 312 89a5.43 5.43 0 0 1 5.47 5.55" fill="#47d8f9"/><path d="M220.88 435.7a6.16 6.16 0 0 1 5-6.95 6.44 6.44 0 0 1 7.28 4.07 6.37 6.37 0 0 1-3 8.1c-.14-.45-.26-.9-.42-1.35a6.48 6.48 0 0 0-4.72-4.29 7.46 7.46 0 0 0-4.16.42" fill="#fcc504"/><path d="M88.18 348.49c-.93.88-1.93 1.68-3 2.38a8.14 8.14 0 0 1-10.22-2.1c-.38-.47-.72-1-1.08-1.46v-.47a8.75 8.75 0 0 1 5.14-3.39 8 8 0 0 1 8.1 3c.38.47.71 1 1.07 1.47l-.06.54" fill="#148d03"/><path d="M229.93 441.23a6.08 6.08 0 0 1-4.85 6.66 6.48 6.48 0 0 1-7.34-4.34 6.3 6.3 0 0 1 3-7.59 6.8 6.8 0 0 0 3.93 5.23c1.69.7 3.59.7 5.28 0" fill="#46d7f7"/><path d="M154.8 436.49a6.34 6.34 0 0 1 10.95-5.68 6.71 6.71 0 0 1 .61 8.07c-.33.51-.74 1-1.11 1.44l-.29-.05a5.92 5.92 0 0 0-4.46-4.89c-2.12-.7-3.93 0-5.7 1.11" fill="#fcc504"/><path d="M333.33 373.45a6.57 6.57 0 0 1-1 12.67 6.15 6.15 0 0 1-6.46-3.05 10.72 10.72 0 0 0 7.47-9.62" fill="#ff713f"/><path d="M165 440.27l.29.05c.09 2.14-.2 4.16-1.83 5.77a5.89 5.89 0 0 1-6.47 1.55 6 6 0 0 1-4.28-5.56c-.15-2 .25-3.88 2-5.19.27.53.51 1.09.82 1.61a6.27 6.27 0 0 0 9.47 1.77" fill="#46d7f7"/><path d="M212.66 100.05a5 5 0 0 1-4.88 4.93 5 5 0 0 1-5-5.08 4.86 4.86 0 0 1 4.86-4.9 5.05 5.05 0 0 1 5 5" fill="#fdc505"/><path d="M179 373a5 5 0 0 1-.23-10 5.13 5.13 0 0 1 5 5 4.89 4.89 0 0 1-4.82 5" fill="#ff713f"/><path d="M391 279.22a5 5 0 0 1 4.92 5.1 4.83 4.83 0 0 1-4.92 4.85 5.07 5.07 0 0 1-4.86-5c0-2.7 2.16-4.9 4.86-4.95" fill="#fdc505"/><path d="M24.93 321.16a4.78 4.78 0 0 1-5 4.72 5 5 0 0 1-3.24-8.57 4.92 4.92 0 0 1 3.51-1.39 5 5 0 0 1 4.79 5.24" fill="#fdc607"/><path d="M396.15 182.86a4.9 4.9 0 0 1 4.84-4.94 5.1 5.1 0 0 1 4.88 5 4.89 4.89 0 0 1-8.35 3.57 4.8 4.8 0 0 1-1.37-3.57" fill="#47d8f9"/><path d="M387.4 174.19a5 5 0 0 1-4.86-4.94 4.85 4.85 0 0 1 4.86-4.89 5 5 0 0 1 5 5 4.81 4.81 0 0 1-5 4.78" fill="#ff713f"/><path d="M198.59 16.2l.21.4 1 .51c.18.63.33 1.26.52 1.88a4.94 4.94 0 0 1-2 5.65 4.91 4.91 0 0 1-6.8-6.64 4.65 4.65 0 0 1 5.48-2.26c.52.14 1 .31 1.55.46" fill="#48d8f9"/><path d="M220.48 116.39a4.9 4.9 0 0 1-4.67 4.9 5.1 5.1 0 0 1-5-4.9 4.83 4.83 0 1 1 9.65 0" fill="#47d8f9"/><path d="M296.74 330.79c-2.61.8-5.19.9-7.61-.56a7.9 7.9 0 0 1-4.17-6.51c3.68-2.15 9.53-.37 11.36 4.63.25.69.39 1.42.58 2.13a3 3 0 0 1-.16.31" fill="#148d03"/><path d="M238.6 81.68c.21 1.92.32 3.86.31 5.79-.17 3-1.62 5.48-3.37 7.82-.1.02-.21.02-.32 0-.47-.49-1-.94-1.39-1.46A7.48 7.48 0 0 1 237 81.94c.44-.17.9-.28 1.35-.42l.28.16" fill="#465f3d"/><path d="M253.36 350.23c-1.8.79-3.79 1-5.7.58-3.4-.92-5.26-3.27-6.2-6.52.07-.1.12-.21.16-.33a8.64 8.64 0 0 1 5.47-.83 8.23 8.23 0 0 1 6.42 6.73z" fill="#148d03"/><path d="M304.05 71.83a4.46 4.46 0 0 1-4.44 4.37 4.59 4.59 0 0 1-3.1-7.8 4.46 4.46 0 0 1 3.2-1.29 4.6 4.6 0 0 1 4.34 4.72" fill="#ff7241"/><g fill="#fdc607"><path d="M49.62 178.58a4.44 4.44 0 0 1-4.38 4.41 4.56 4.56 0 0 1-4.48-4.76 4.44 4.44 0 0 1 4.48-4.32 4.59 4.59 0 0 1 4.38 4.67M248.92 141.81a4.39 4.39 0 0 1-4.44 4.54 4.63 4.63 0 0 1-4.42-4.65 4.43 4.43 0 1 1 8.86.11M396.14 157.34a4.38 4.38 0 0 1 4.43-4.54 4.65 4.65 0 0 1 4.45 4.64 4.44 4.44 0 0 1-8.88-.1M172.66 161.44a4.42 4.42 0 0 1-4.32 4.46 4.65 4.65 0 0 1-4.55-4.53 4.44 4.44 0 1 1 8.87.07M385.22 318.71a4.5 4.5 0 0 1-4.46-4.55 4.43 4.43 0 0 1 4.31-4.48 4.59 4.59 0 0 1 4.58 4.68 4.4 4.4 0 0 1-4.43 4.35"/></g><path d="M410.44 269.29a4.43 4.43 0 0 1-4.23 4.54 4.66 4.66 0 0 1-4.6-4.69 4.42 4.42 0 1 1 8.83.15" fill="#ff7241"/><path d="M204.1 195.25a4.47 4.47 0 0 1-4.46-4.54 4.33 4.33 0 0 1 4.5-4.44 4.55 4.55 0 0 1 4.4 4.64 4.41 4.41 0 0 1-4.44 4.34" fill="#ff713f"/><path d="M239.7 316.32a4.44 4.44 0 0 1-4.28 4.51 4.61 4.61 0 0 1-4.6-4.66 4.51 4.51 0 0 1 4.4-4.42 4.6 4.6 0 0 1 4.48 4.57" fill="#fdc505"/><path d="M364.76 102.79a4.67 4.67 0 0 1 4.52 4.57 4.43 4.43 0 1 1-8.85.07 4.42 4.42 0 0 1 4.33-4.64" fill="#fdc607"/><path d="M146.34 338.36a4.5 4.5 0 0 1 .06 9 4.48 4.48 0 0 1-4.39-4.61 4.29 4.29 0 0 1 4.33-4.38" fill="#fdc505"/><path d="M14.78 309.83a4.24 4.24 0 0 1-4.36 4.35c-2.49.01-4.51-2-4.53-4.48a4.45 4.45 0 1 1 8.89.13" fill="#ff7241"/><path d="M74.14 322.34a4.61 4.61 0 0 1 4.56 4.49 4.41 4.41 0 1 1-8.82.19 4.4 4.4 0 0 1 4.26-4.68M259.7 178.65a4.48 4.48 0 0 1-4.56-4.44 4.41 4.41 0 1 1 8.82 0 4.21 4.21 0 0 1-4.26 4.41" fill="#fdc505"/><path d="M33.07 368.55a4.5 4.5 0 0 1-.08-9 4.56 4.56 0 0 1 3.18 7.7 4.34 4.34 0 0 1-3.1 1.28" fill="#ff7241"/><path d="M119.35 358.52a4.35 4.35 0 0 1 4.28-4.46 4.65 4.65 0 0 1 2.3 8.62 4.43 4.43 0 0 1-6.58-4.16" fill="#ff713f"/><path d="M149.37 379.08a4.34 4.34 0 0 1-4.43-4.5 4.28 4.28 0 0 1 4.23-4.47 4.51 4.51 0 0 1 4.59 4.61 4.35 4.35 0 0 1-4.39 4.36" fill="#fdc505"/><path d="M157.65 329.67a4.19 4.19 0 0 1-4.25 4.42 4.5 4.5 0 1 1 4.25-4.42" fill="#ff7241"/><path d="M279.39 107.17c.79-.06.61-.73.78-1.2 1.22-3.3 4.73-4.38 7.52-1.54A4.77 4.77 0 0 1 288 110c-.34.49-.65 1-1 1.48a4 4 0 0 1-.58.13c-4.06.4-5.57-.56-7-4.48" fill="#fd5701"/><path d="M284.16 120.32a4.34 4.34 0 0 1-4.42 4.29 4.54 4.54 0 0 1-4.35-4.46 4.39 4.39 0 1 1 8.77.17M240.72 158.35a4.45 4.45 0 0 1-4.35-4.42 4.54 4.54 0 0 1 4.35-4.45 4.64 4.64 0 0 1 4.45 4.59 4.37 4.37 0 0 1-4.45 4.28M354.38 120.14a4.33 4.33 0 0 1 4.3-4.41c2.39.1 4.3 2.01 4.39 4.4a4.33 4.33 0 0 1-4.44 4.48 4.4 4.4 0 0 1-4.25-4.47" fill="#48d8f9"/><path d="M263.85 414a4.45 4.45 0 0 1 4.44 4.34 4.35 4.35 0 0 1-4.15 4.38 4.3 4.3 0 0 1-4.37-4.34 4.17 4.17 0 0 1 4.08-4.38" fill="#fdc607"/><path d="M301 174.27a4.49 4.49 0 0 1-4.33 4.26 4.36 4.36 0 1 1 4.33-4.26" fill="#47d8f9"/><path d="M211.33 419.7a4.2 4.2 0 0 1-4.27-4.4 4.09 4.09 0 0 1 4.21-4.21 4.34 4.34 0 0 1 4.31 4.41 4.16 4.16 0 0 1-4.25 4.2" fill="#ff7241"/><path d="M266.74 94.45a4.18 4.18 0 0 1-4.07 4.38 4.34 4.34 0 0 1-4.44-4.29 4.25 4.25 0 0 1 4.09-4.39 4.33 4.33 0 0 1 4.42 4.3" fill="#fdc607"/><path d="M249.09 410.34a4.21 4.21 0 0 1-4.27-4.41 4.13 4.13 0 0 1 4.23-4.2 4.29 4.29 0 0 1 4.29 4.41 4.17 4.17 0 0 1-4.25 4.2" fill="#ff7241"/><path d="M123.57 170.07a4 4 0 0 1-4.32 4.09 4.22 4.22 0 0 1-4.24-4.44 4.32 4.32 0 0 1 4.4-4.11 4.1 4.1 0 0 1 4.16 4.46M20.08 279.26a4.28 4.28 0 1 1 0-8.56 4.28 4.28 0 0 1 0 8.56" fill="#48d8f9"/><path d="M100.28 320.57a4.3 4.3 0 0 1-4.28-4.41c0-2.26 1.8-4.11 4.07-4.15a4.33 4.33 0 0 1 3.2 7.3 4.2 4.2 0 0 1-2.99 1.26" fill="#fdc607"/><path d="M147 83.27a4.25 4.25 0 1 1 4.1-4.29 4.08 4.08 0 0 1-4.1 4.29" fill="#48d8f9"/><path d="M244.11 422.52a4 4 0 0 1-4.2-4.22 4.13 4.13 0 0 1 4.2-4.27 4.37 4.37 0 0 1 2.94 7.34 4 4 0 0 1-2.94 1.15" fill="#47d8f9"/><path d="M101.92 397l.84 3.33a6.83 6.83 0 0 1-2.21 3.48 1.27 1.27 0 0 0-.34 0 3.83 3.83 0 0 0-4.93-.69 2 2 0 0 0-.34-.06 14.7 14.7 0 0 1-1.09-3 3.9 3.9 0 0 1 2-4.08 4.17 4.17 0 0 1 4.74.11c.45.29.88.61 1.32.92" fill="#fcc504"/><path d="M183.76 65.71a4 4 0 0 1 4.24 4.12 4.24 4.24 0 0 1-4.13 4.35c-2.33-.1-4.18-2-4.23-4.34a4.06 4.06 0 0 1 4.08-4.13" fill="#47d8f9"/><path d="M333.33 373.45a10.72 10.72 0 0 1-7.47 9.62 1.4 1.4 0 0 1-.34-.13c-.3-.82-.55-1.66-.72-2.51A6.47 6.47 0 0 1 332 373c.4 0 .79.14 1.19.21l.18.23" fill="#465f3d"/><path d="M405.11 300.34a4.35 4.35 0 0 1-3.48-4.68 4.44 4.44 0 0 1 3.82-4.07c2.1-.3 4.1.98 4.71 3a14 14 0 0 1 .1 3.37.87.87 0 0 0-.31.14c-2.23-.53-3.66.61-4.84 2.29" fill="#fcc504"/><path d="M249.1 373.65a4.33 4.33 0 0 1-4.13-4.18 4.13 4.13 0 0 1 4.03-4.17 4.26 4.26 0 0 1 4.14 4.15 4.21 4.21 0 0 1-4.08 4.2" fill="#ff7241"/><path d="M185.93 55a4 4 0 0 1 4-4.11c2.23.08 4 1.88 4.07 4.11a4.06 4.06 0 1 1-8.11-.09M142.71 156.74a4 4 0 0 1-4.18 4 4.23 4.23 0 0 1-4-4.28 4 4 0 0 1 4.21-4c2.26.1 4.02 2 3.94 4.27" fill="#fdc607"/><path d="M94.94 403a2 2 0 0 1 .34.06 3.86 3.86 0 0 0 4.93.69c.11-.02.23-.02.34 0a5 5 0 0 1 1.07 3.39 4.35 4.35 0 0 1-4.16 4.17 4.45 4.45 0 0 1-4.42-3.92c-.2-1.71.52-3.4 1.9-4.44" fill="#46d7f7"/><path d="M197.27 252.81a4.05 4.05 0 0 1-4.16 4 4.21 4.21 0 0 1-4-4.28 4.1 4.1 0 0 1 4.17-4c2.28.1 4.06 2 4 4.29" fill="#ff7241"/><path d="M261.42 42.46a4.04 4.04 0 1 1-8.07.19 4 4 0 0 1 3.9-4.27 4.19 4.19 0 0 1 4.17 4.08" fill="#fdc607"/><path d="M280.83 151.05l-.37-.11c-.36-2.41-1.9-4-3.76-5.34.94-2.91 3.31-4.22 5.83-3.23a4.54 4.54 0 0 1 2.4 6.33 4.09 4.09 0 0 1-4.1 2.35" fill="#fdc505"/><path d="M334.58 185.05a4.15 4.15 0 0 1 3.11 6.96 4.15 4.15 0 0 1-6.02-5.72 4 4 0 0 1 2.9-1.24" fill="#ff713f"/><path d="M136.43 428.84a3.9 3.9 0 0 1 3.93-4c2.26 0 4.1 1.8 4.14 4.07a4.04 4.04 0 0 1-8.07-.08" fill="#ff7241"/><path d="M285.44 411.92c.3.52.57 1.06.81 1.61a4 4 0 0 1-2.37 5.24c-2.16.7-4.47-.5-5.17-2.65a4 4 0 0 1 2.7-5.08c.78-.17 1.57-.28 2.37-.34l.52.43 1.16.81M142.93 114.86a3.86 3.86 0 0 1 3.92-4 4.17 4.17 0 0 1 4.05 4.22 4 4 0 0 1-6.9 2.65 3.93 3.93 0 0 1-1.07-2.86M253.44 60.57a4 4 0 0 1-4.07-3.86 4.12 4.12 0 0 1 4-4.18c2.2.1 3.93 1.88 4 4.08a3.85 3.85 0 0 1-3.91 4" fill="#48d8f9"/><path d="M410 298.05c.1-.07.2-.11.31-.14l.87.48a4.33 4.33 0 0 1-3.81 7.77 4.18 4.18 0 0 1-2.11-5.54c2.06 0 3.86-.41 4.74-2.57" fill="#46d7f7"/><path d="M197.33 470.51a2.25 2.25 0 0 0-.08-.24 6 6 0 0 0-.69-8.49v-.31c.9-.27 1.82-.45 2.75-.54a4.9 4.9 0 0 1 4.84 5.15 4.79 4.79 0 0 1-5.05 4.7 14 14 0 0 1-1.8-.27" fill="#fe703e"/><path d="M42.71 108.86a4.07 4.07 0 0 1 3.93 4.06 4 4 0 0 1-3.83 3.93 4.14 4.14 0 0 1-4-4 4 4 0 0 1 3.94-4" fill="#fdc607"/><path d="M355 354.66a3.88 3.88 0 0 1 4 3.95 3.83 3.83 0 0 1-3.75 3.94 4 4 0 0 1-2.92-6.79 3.83 3.83 0 0 1 2.72-1.1" fill="#ff7241"/><path d="M165 440.27a6.27 6.27 0 0 1-9.47-1.77c-.31-.52-.55-1.08-.82-1.61l.13-.4c1.76-1.07 3.58-1.81 5.7-1.11 2.34.57 4.1 2.5 4.46 4.89" fill="#178e05"/><path d="M159.61 401.53c-2.79-3.34-3.26-7.22-2.64-11.35l.24-1.38c.1-.04.2-.08.31-.1.94.63 1.84 1.32 2.68 2.08 2.83 2.85 2.56 8.62-.59 10.75" fill="#465f3d"/><path d="M337.85 117l.79-2.23c.48-.36.97-.7 1.49-1a3.79 3.79 0 0 1 5.18 1.57c1 1.87.3 4.19-1.55 5.21a3.77 3.77 0 0 1-5.14-1.68c-.3-.6-.51-1.23-.77-1.85M333.8 93.75a3.9 3.9 0 0 1-2.55-6.7 3.75 3.75 0 0 1 2.75-1.01c2.1.13 3.71 1.9 3.65 4a3.83 3.83 0 0 1-3.85 3.64" fill="#ff7241"/><path d="M62.69 385.24a4.24 4.24 0 0 1-2.42-2.83 3.82 3.82 0 0 1 2.3-4.46 3.78 3.78 0 0 1 4.58 1.63c1 1.62.66 3.72-.79 4.95-.44.3-.9.58-1.39.82zM152.63 63.41c.23.84.36 1.71.37 2.59a4.21 4.21 0 0 1-7.42 2.23 4.18 4.18 0 0 1-.64-4.71c.3-.52.65-1 1.06-1.43h.31c1.71 2.38 3.56 2.78 6 1.32z" fill="#fdc607"/><path d="M62.69 385.24l2.28.11c.46.27.9.57 1.31.9a3.78 3.78 0 0 1 0 5.55 3.6 3.6 0 0 1-5.34-.44 3.85 3.85 0 0 1 .56-5.38c.39-.27.79-.51 1.2-.74M59.44 362.37a3.49 3.49 0 0 1-3.67 3.7 3.77 3.77 0 0 1-3.68-3.8 3.68 3.68 0 1 1 7.35.1" fill="#48d8f9"/><path d="M229.93 441.23a6.9 6.9 0 0 1-5.28 0 6.8 6.8 0 0 1-3.93-5.23l.16-.26a7.37 7.37 0 0 1 4.16-.42c2.22.5 4 2.13 4.72 4.29.16.45.28.9.42 1.35l-.25.31" fill="#178e05"/><path d="M208 45.54l-.36-.14c-1.21-3.06-.88-4.56 1.39-6.41.41.32.82.64 1.25 1a7.53 7.53 0 0 0 5.27 1.82c.1.02.22.05.32.09a5.61 5.61 0 0 1-2.19 4.93h-.48a6.62 6.62 0 0 0-5.2-1.22" fill="#fe703e"/><path d="M27.36 144.08c.59.13 1.17.3 1.73.51a4.52 4.52 0 0 1 2.69 4.51 4.31 4.31 0 0 1-3.37 4l-1.16.3-.54-.35a8.79 8.79 0 0 1 .24-8.75z" fill="#465f3d"/><path d="M345.79 163.19a3.91 3.91 0 0 1 3.92-3.26 4.35 4.35 0 0 1 4.23 3.82 20.27 20.27 0 0 1-.4 3.35l-.41.14a10.25 10.25 0 0 1-7.34-4.05" fill="#fd5701"/><path d="M152.63 63.41h-.32c-.42-.6-.89-1.15-1.41-1.65-1.52-1.21-3.06-1.06-4.61.33H146a6.63 6.63 0 0 1 .3-4.68l.4-.16a4.69 4.69 0 0 0 4.23-1.45l.37-.1.3.25c3.15 2 3.52 4.61 1 7.46" fill="#ff713f"/><path d="M114.56 64.23c-.57 2.58-2.43 3.74-5.06 3.15a4.06 4.06 0 0 1-2.74-5c.13-.44.32-.87.48-1.31.1-.09.21-.15.34-.16 2.78.19 5.42.67 7 3.37" fill="#fd5701"/><path d="M360.52 328.72a5.15 5.15 0 0 1 3.68-1.85 4.53 4.53 0 0 1 4.28 5.44c-.14.52-.32 1.03-.54 1.52l-.4.2a8.7 8.7 0 0 1-7.06-4.82z" fill="#465f3d"/><path d="M283 407c.14-.14.26-.3.37-.46 1.19-2.39 2.87-3.21 5-2.44a4.18 4.18 0 0 1 2.63 5.2l-.25 1-.52.33a11.1 11.1 0 0 1-7-2.89z" fill="#fd5701"/><path d="M110 367.69c1.16 4.29-.89 7.58-5.6 9-.1-.06-.21-.1-.32-.15 0-.87-.11-1.74-.1-2.62 0-2.75 2.62-6.17 6-6.22" fill="#178e05"/><path d="M272.77 161c-.3-.94-.49-1.93-.53-2.92a4.26 4.26 0 0 1 6.93-3c.33.24.62.51.93.77v.48a9 9 0 0 1-7 4.79l-.39-.17M118.81 321a4.25 4.25 0 0 1 2.29 4.85 4.37 4.37 0 0 1-3.68 3.5c-.4.07-.8.07-1.2.1l-.35-.32c-.07-.86-.09-1.73-.05-2.59a6.93 6.93 0 0 1 3-5.54" fill="#465f3d"/><path d="M118.81 321a6.93 6.93 0 0 0-3 5.54c-.04.86-.02 1.73.05 2.59a4.43 4.43 0 1 1 1.95-8.64l1 .24v.27" fill="#ff7241"/><path d="M39.33 144.89c-2.57 1-5.11 1.14-7.5-.43a21.7 21.7 0 0 1-2.4-2.11c0-.09 0-.19.06-.29 3.94-1.67 7.2-.7 9.88 2.54v.29" fill="#178e05"/><path d="M384.11 149a2.78 2.78 0 0 1-2.85 2.78 2.85 2.85 0 0 1-2.66-2.8 2.68 2.68 0 0 1 2.76-2.84 2.72 2.72 0 0 1 2.75 2.86" fill="#fdc607"/><path d="M273.16 161.2a9 9 0 0 0 7-4.79c1.29 2.31.82 4.64-1.21 6s-4.23.87-5.78-1.18" fill="#46d7f7"/><path d="M416 263.09a2.65 2.65 0 0 1-2.68 2.7 2.59 2.59 0 0 1-2.6-2.75 2.47 2.47 0 0 1 2.55-2.54 2.54 2.54 0 0 1 2.73 2.59M208.69 199.66a2.62 2.62 0 0 1 2.67-2.7 2.84 2.84 0 0 1 2.61 2.83 2.8 2.8 0 0 1-2.62 2.59 2.67 2.67 0 0 1-2.66-2.72" fill="#48d8f9"/><path d="M360.48 329.21a8.7 8.7 0 0 0 7.06 4.82 4.24 4.24 0 0 1-5.7 1 4.38 4.38 0 0 1-1.36-5.81" fill="#46d7f7"/><path d="M27 144.27a8.79 8.79 0 0 0-.24 8.75 4.25 4.25 0 0 1-3.8-4.36c0-2.36 1.42-3.9 4-4.39" fill="#ff7241"/><path d="M345.79 163.19a10.25 10.25 0 0 0 7.34 4.05c-1.64 1.75-3.55 2.19-5.42 1.24s-2.72-2.84-2.25-5.3h.33" fill="#fdc607"/><path d="M103.24 75.6a8.67 8.67 0 0 1 9.22.87v.28a9 9 0 0 1-9.19-.85v-.3" fill="#178e05"/><path d="M283.13 407.75a11.16 11.16 0 0 0 7 2.9c-1.22 1.72-2.93 1.64-4.72 1.27l-1.17-.81-.52-.43-.64-2.95" fill="#fdc607"/><path d="M114.56 64.23c-1.56-2.7-4.2-3.18-7-3.37a3.52 3.52 0 0 1 4.23-1.38c1.54.4 2.67 1.7 2.85 3.29.07.46.1.93.15 1.39l-.25.07" fill="#ff7241"/><path d="M215.56 41.76a7.53 7.53 0 0 1-5.27-1.82 14.4 14.4 0 0 1-1.25-1c-.02-.1-.02-.2 0-.31 2.85-.83 4.67-.31 6.1 1.8.2.4.32.84.38 1.28M276.7 145.6c1.85 1.36 3.4 2.93 3.76 5.34-2-.05-3-1.26-3.57-3-.19-.77-.32-1.56-.4-2.35a.16.16 0 0 1 .21 0" fill="#fd5701"/><path d="M410 298.05c-.88 2.16-2.68 2.61-4.74 2.57a.94.94 0 0 0-.1-.28c1.18-1.68 2.61-2.82 4.84-2.29" fill="#178e05"/><path d="M208 45.54c1.83-.34 3.71.1 5.2 1.22-2.21 1-3.55.64-5.2-1.22" fill="#465f3d"/><path d="M210.38 150.53a7.59 7.59 0 0 1-6.08 6.63c.35-3.3 2.82-6 6.08-6.63M331.89 121.29c-3.64.54-6.5-.62-8.43-3.85 3.35-.75 6.8.82 8.43 3.85" fill="#178e05"/><path d="M183.87 439.54a4.43 4.43 0 0 1-.11-8.85 4.42 4.42 0 0 1 4.33 4.45 4.08 4.08 0 0 1-4.22 4.4M318.82 120.12c5.06.91 8.3 8.79 3.87 13.44-5-1-8.4-8.4-3.87-13.44" fill="#465f3d"/><path d="M393.37 350.55a5.8 5.8 0 0 1-5.26-4.49 5.55 5.55 0 0 1 5.26 4.49" fill="#178e05"/><path d="M150.91 55.8a4.68 4.68 0 0 1-4.23 1.45c.9-1.4 2.65-2 4.23-1.45M196.56 461.78a6 6 0 0 1 .69 8.49c-3.62-1.9-4-6-.69-8.49" fill="#465f3d"/><path d="M100.21 403.72c-1.6 1-3.67.71-4.93-.69a3.83 3.83 0 0 1 4.93.69" fill="#178e05"/><path d="M283.76 410.67l.52.44z" fill="#fff"/><path d="M146.29 62.1c1.55-1.39 3.09-1.54 4.61-.33.53.5 1 1.05 1.41 1.65-2.46 1.46-4.31 1.06-6-1.32" fill="#fd5701"/><g fill="#fff"><path d="M3.71 256.62h13.78V221.1H3.71v-9.51h38.32v9.51H28.17v35.52h13.86v9.5H3.71z"/><path d="M51.93 212.14c2.38-.46 4.78-.79 7.2-1 2.62-.24 5.23-.35 7.83-.35 2.73 0 5.45.22 8.14.66 2.6.4 5.1 1.3 7.36 2.65a15.34 15.34 0 0 1 5.34 5.53 18.26 18.26 0 0 1 2.06 9.23c.08 2.94-.53 5.87-1.79 8.53a16.94 16.94 0 0 1-4.75 5.84c-2 1.55-4.3 2.68-6.74 3.35-2.55.7-5.18 1.06-7.83 1.05h-3.04c-.63 0-1.23-.06-1.83-.11s-1-.11-1.28-.16v18.77H51.93zM67.82 220c-1 0-2 0-3 .11-.76.06-1.51.15-2.26.28v17.68c.2.05.52.1.93.16s.86.09 1.33.11.92 0 1.36 0h1c1.4 0 2.8-.13 4.17-.39 1.32-.24 2.57-.72 3.7-1.44a7.49 7.49 0 0 0 2.61-2.92 10.63 10.63 0 0 0 1-4.91 8.64 8.64 0 0 0-.94-4.24 7.57 7.57 0 0 0-2.45-2.69 9.53 9.53 0 0 0-3.47-1.4c-1.32-.26-2.66-.4-4-.39z" fill-rule="nonzero"/><path d="M99.52 211.59h34.59v9.51h-23.92v13.47h22.21v9.51h-22.21v22.04H99.52zM144.78 248.28h8.57V256l.47.15c1.27.55 2.58.98 3.93 1.29 1.5.34 3.03.51 4.56.5 2.39.14 4.76-.47 6.78-1.75a5.53 5.53 0 0 0 2.41-4.71 5.27 5.27 0 0 0-2-4.29 20 20 0 0 0-4.9-2.88c-1.95-.83-4.08-1.66-6.39-2.49-2.25-.8-4.4-1.86-6.39-3.16a17.63 17.63 0 0 1-4.91-4.79 12.93 12.93 0 0 1-2-7.48 14.82 14.82 0 0 1 5.21-11.39 17.64 17.64 0 0 1 5.88-3.27 23.5 23.5 0 0 1 7.63-1.17 51 51 0 0 1 9.35.86 25.2 25.2 0 0 1 7.32 2.34v15.81h-8.57v-8.65c-.16 0-.31-.02-.46-.07-2.5-.65-5.06-.99-7.64-1-2.06-.11-4.11.4-5.88 1.48a4.6 4.6 0 0 0-2.14 4c-.03 1.64.7 3.2 2 4.2a21.86 21.86 0 0 0 4.9 3c1.95.89 4.08 1.77 6.39 2.65 2.24.85 4.38 1.93 6.39 3.23 1.93 1.26 3.6 2.9 4.91 4.8 1.4 2.15 2.1 4.68 2 7.24.06 2.54-.48 5.06-1.56 7.36a14.81 14.81 0 0 1-4.36 5.3 19.14 19.14 0 0 1-6.62 3.19 31 31 0 0 1-8.26 1c-1.84.01-3.68-.14-5.49-.46a35.38 35.38 0 0 1-8.45-2.65c-1.09-.52-2-1-2.65-1.33zM251.42 247.82H260v15.58a19.06 19.06 0 0 1-6.34 2.8 30.86 30.86 0 0 1-7.91 1c-3.3.02-6.6-.49-9.75-1.5-3.05-1-5.84-2.67-8.14-4.91-2.5-2.5-4.4-5.5-5.61-8.81a36.31 36.31 0 0 1-2.1-13.12c-.14-4.6.67-9.17 2.38-13.44a24.56 24.56 0 0 1 6.11-8.72 22.78 22.78 0 0 1 8.34-4.76c2.9-.93 5.94-1.42 9-1.44 2.66-.05 5.31.21 7.91.78 1.83.41 3.62 1.01 5.33 1.79v16.21h-8.56v-8.88c-1.65-.26-3.33-.4-5-.39a14 14 0 0 0-5.65 1.13 12.26 12.26 0 0 0-4.56 3.46 16.83 16.83 0 0 0-3 5.88 28.59 28.59 0 0 0-1.09 8.38c-.03 2.6.3 5.17 1 7.67.6 2.18 1.62 4.21 3 6a13.44 13.44 0 0 0 11.14 5.22c1.68 0 3.35-.15 5-.47z"/><path d="M270.59 229.82a42.4 42.4 0 0 1 7.2-2.41 40.49 40.49 0 0 1 9.7-1c2.34-.05 4.67.3 6.9 1 1.72.55 3.3 1.5 4.59 2.76a10.57 10.57 0 0 1 2.53 4.29c.54 1.82.8 3.71.78 5.61 0 2.65-.09 4.9-.27 6.77s-.27 3.54-.27 5c0 1.09.05 2.3.15 3.66.11.73.18 1.43.24 2.1h5.06v8.57h-13.08l-1-5.29h-.39a13.31 13.31 0 0 1-4.43 4.12 14.74 14.74 0 0 1-7.74 1.76c-3.87 0-6.95-1.04-9.22-3.12a10.66 10.66 0 0 1-3.4-8.26c-.05-1.95.36-3.88 1.2-5.64a10 10 0 0 1 3.48-3.9 16.67 16.67 0 0 1 5.5-2.26 32.09 32.09 0 0 1 10.1-.58c1 .1 2.29.21 3.79.31.1-.51.15-1.04.15-1.56v-1.48c0-2-.56-3.39-1.7-4.24a8.22 8.22 0 0 0-5-1.29 23.5 23.5 0 0 0-7.12 1c-1.82.55-3.6 1.22-5.33 2zm13.26 28.59a8.42 8.42 0 0 0 8.24-4.28v-4.68a39.2 39.2 0 0 0-2.31-.35c-1.1-.13-2.21-.2-3.32-.19a16 16 0 0 0-2.92.27 9.6 9.6 0 0 0-2.62.86c-.73.35-1.36.87-1.85 1.52a3.68 3.68 0 0 0-.69 2.26 4.42 4.42 0 0 0 1.27 3.38c.84.81 2.24 1.21 4.2 1.21z" fill-rule="nonzero"/><path d="M329.09 266.12v-23.83a19.1 19.1 0 0 0-.31-3.78 7.22 7.22 0 0 0-.82-2.26c-.28-.5-.72-.88-1.25-1.09-.49-.18-1-.27-1.52-.27a4 4 0 0 0-2.45.85 4.17 4.17 0 0 0-1.52 2.18v28.2h-9.35v-39h7.4l1.09 4.29h.24a9.55 9.55 0 0 1 8.72-5.14c1.71 0 3.4.43 4.91 1.24a6.62 6.62 0 0 1 3.19 4.37 8.7 8.7 0 0 1 3.59-4.17 10 10 0 0 1 5.22-1.44c1.28-.02 2.56.18 3.77.58a6.7 6.7 0 0 1 2.93 2.07 10.06 10.06 0 0 1 1.9 4c.5 2.13.72 4.31.67 6.5v26.64h-9.35V241.2c0-2.34-.38-3.98-1.13-4.91a3.42 3.42 0 0 0-2.77-1.4c-.85-.02-1.69.2-2.41.66a3.45 3.45 0 0 0-1.4 2.14v28.43z"/><path d="M357.06 227.17h13.24l1.17 4.68h.31c2.7-3.84 7.06-5.76 13.09-5.77 2.24-.02 4.47.36 6.58 1.13a12.9 12.9 0 0 1 5.14 3.55 16.61 16.61 0 0 1 3.31 6.07 29.15 29.15 0 0 1 1.17 8.81c.04 3.05-.4 6.1-1.33 9a19.09 19.09 0 0 1-3.81 6.82 16.35 16.35 0 0 1-6.08 4.28 21.23 21.23 0 0 1-8.18 1.48c-1.59 0-3.18-.11-4.75-.35a13 13 0 0 1-3.9-1.13v16H362.9v-46h-5.84zm24.77 7.48c-1.9-.02-3.78.5-5.42 1.48a7.74 7.74 0 0 0-3.39 4.44v16.21a8.41 8.41 0 0 0 3.16 1.36c1.36.34 2.76.5 4.17.5 1.37 0 2.73-.24 4-.74a8.33 8.33 0 0 0 3.27-2.37c1-1.22 1.74-2.62 2.18-4.13.56-1.95.82-3.97.78-6 0-3.43-.83-6.07-2.49-7.94a8.1 8.1 0 0 0-6.31-2.81z" fill-rule="nonzero"/></g><path d="M146.44 176.28a4.48 4.48 0 0 1-4.46-4.55 4.33 4.33 0 0 1 4.5-4.44 4.54 4.54 0 0 1 4.39 4.64 4.42 4.42 0 0 1-4.43 4.35" fill="#ff713f"/><g fill="#48d8f9"><path d="M327.38 171.73a2.66 2.66 0 0 1-4.59 1.89 2.59 2.59 0 0 1-.7-1.94 2.49 2.49 0 0 1 2.56-2.54 2.54 2.54 0 0 1 2.73 2.59M269.39 323.54a2.66 2.66 0 0 1-4.59 1.89 2.59 2.59 0 0 1-.7-1.94 2.48 2.48 0 0 1 2.55-2.54 2.55 2.55 0 0 1 2.74 2.59M355 288.68a2.66 2.66 0 0 1-4.58 1.88 2.59 2.59 0 0 1-.71-1.93 2.48 2.48 0 0 1 2.56-2.54 2.54 2.54 0 0 1 2.73 2.59M416 199.62a2.64 2.64 0 0 1-2.68 2.69 2.58 2.58 0 0 1-2.6-2.74 2.47 2.47 0 0 1 2.55-2.54 2.54 2.54 0 0 1 2.73 2.59"/></g><path d="M116.1 280.83a8.44 8.44 0 0 1-8.5 8.45 8.84 8.84 0 0 1-8.52-8.8c0-4.69 3.78-8.5 8.47-8.54a8.66 8.66 0 0 1 8.55 8.89" fill="#ff703e"/><path d="M175.75 293.34a4.42 4.42 0 0 1-4.31 4.46 4.67 4.67 0 0 1-4.56-4.54 4.44 4.44 0 1 1 8.87.08" fill="#fdc607"/><path d="M126.66 302a4 4 0 0 1-4.31 4.08 4.19 4.19 0 0 1-4.24-4.43 4.32 4.32 0 0 1 4.39-4.12 4.11 4.11 0 0 1 4.16 4.47" fill="#48d8f9"/><path d="M145.8 288.64a4 4 0 0 1-4.18 4 4.22 4.22 0 0 1-2.76-7.18 4.12 4.12 0 0 1 6.9 3.18" fill="#fdc607"/><path d="M149.53 308.17a4.48 4.48 0 0 1-4.46-4.54 4.32 4.32 0 0 1 4.5-4.44 4.55 4.55 0 0 1 4.4 4.63 4.42 4.42 0 0 1-4.44 4.35" fill="#ff713f"/><path d="M318.26 312.29a8.44 8.44 0 0 1 9.61-7.16 8.85 8.85 0 0 1 7.19 9.92 8.55 8.55 0 0 1-9.59 7.25 8.65 8.65 0 0 1-7.21-10" fill="#ff703e"/><path d="M261 291.49c.32-2.4 2.5-4.1 4.9-3.81a4.65 4.65 0 0 1 3.87 5.13 4.44 4.44 0 1 1-8.77-1.32" fill="#fdc607"/><path d="M310.79 289.88a4 4 0 0 1 4.84-3.44 4.21 4.21 0 0 1 3.58 5 4.33 4.33 0 0 1-4.94 3.45 4.1 4.1 0 0 1-3.48-5" fill="#48d8f9"/><path d="M290 300.37a4 4 0 0 1 4.71-3.36 4.23 4.23 0 0 1 3.32 4.8 4 4 0 0 1-4.73 3.35 4.14 4.14 0 0 1-3.3-4.79" fill="#fdc607"/><path d="M289 280.5a4.48 4.48 0 0 1 3.77 5.13 4.31 4.31 0 0 1-5.08 3.76 4.53 4.53 0 0 1-3.69-5.21 4.42 4.42 0 0 1 5-3.68" fill="#ff713f"/><path d="M206.67 302.37c-3.73.25-6.71-2.67-7.66-5.2a8.42 8.42 0 0 1 2.18-9.25c2.57-2.3 5.79-2.62 9.19-.94.08.8.21 1.58.4 2.35.56 1.7 1.6 2.91 3.57 3l.37.11c-.11 1.64.22 3.35-.73 4.87-.31-.25-.6-.53-.92-.76a4.26 4.26 0 0 0-6.94 2.95c.04 1 .22 1.97.54 2.91" fill="#fe703e"/><path d="M214.72 292.4l-.37-.11c-.36-2.41-1.9-4-3.76-5.34.94-2.91 3.31-4.22 5.83-3.23a4.53 4.53 0 0 1 2.4 6.33 4.1 4.1 0 0 1-4.1 2.35" fill="#fdc505"/><path d="M206.67 302.37c-.32-.94-.5-1.92-.54-2.91a4.26 4.26 0 0 1 6.94-2.95c.32.23.61.51.92.76 0 .17 0 .33.05.49a9 9 0 0 1-7 4.79l-.38-.18" fill="#465f3d"/><path d="M207.05 302.55a9 9 0 0 0 7-4.79c1.29 2.31.82 4.64-1.2 6s-4.24.87-5.79-1.18" fill="#46d7f7"/><path d="M210.59 287c1.86 1.35 3.4 2.93 3.76 5.34-2-.05-3-1.26-3.57-3-.19-.77-.32-1.56-.4-2.35a.15.15 0 0 1 .21 0" fill="#fd5701"/><path d="M288.49 197.09c3.66-2.49 7.08-2.66 10.15-.5a8.46 8.46 0 0 1 2.49 11 8.62 8.62 0 0 1-10.81 3.85 8.29 8.29 0 0 1-4.69-10.06c.16-.58.39-1.14.6-1.71z" fill="#ff703d"/><path d="M288.49 197.09l-2.26 2.58a6.93 6.93 0 0 1-4.13.16 1 1 0 0 0-.15-.32 3.82 3.82 0 0 0-2.23-4.45 2.22 2.22 0 0 0-.14-.32c.52-.92 1.13-1.78 1.83-2.57a3.88 3.88 0 0 1 4.5-.65 4.17 4.17 0 0 1 2.59 4v1.61" fill="#fcc504"/><path d="M279.58 194.74l.14.32c-.44 1.83.5 3.7 2.23 4.45.07.1.12.2.15.32a5.1 5.1 0 0 1-2.18 2.8 4.36 4.36 0 0 1-5.79-1.07 4.47 4.47 0 0 1 .72-5.87 4.86 4.86 0 0 1 4.73-.95" fill="#46d7f7"/><path d="M282 199.51a3.86 3.86 0 0 1-2.22-4.45 3.82 3.82 0 0 1 2.22 4.45" fill="#178e05"/><path d="M372.27 201.34a8.65 8.65 0 1 1-1.29 9.83c-.37-.86-.67-1.75-.91-2.66.03-.1.05-.22.05-.33.43-.12.84-.31 1.22-.56 1.89-1.71 2.15-3.58.93-6.28" fill="#fdc503"/><path d="M364.89 207a10 10 0 0 1-5.15 4.34 8.51 8.51 0 0 1-10.92-5 8.66 8.66 0 0 1 4.88-11 8.78 8.78 0 0 1 11.72 5.47l-.09.38c-1.61 1.89-1.74 3.26-.49 5.31z" fill="#45d7f8"/><path d="M365.33 201.23l.09-.38c2.86-1.62 4.39-1.51 6.54.48l-.77 1.37a7.56 7.56 0 0 0-1.07 5.48c0 .11-.02.22-.05.33a5.6 5.6 0 0 1-5.18-1.49l-.05-.47a6.64 6.64 0 0 0 .49-5.32" fill="#fe703e"/><path d="M370.12 208.18a7.56 7.56 0 0 1 1.07-5.48l.77-1.37h.31c1.22 2.7 1 4.57-.93 6.28-.38.25-.79.44-1.22.56" fill="#fd5701"/><path d="M365.33 201.23c.59 1.76.41 3.7-.49 5.32-1.25-2.06-1.12-3.43.49-5.32" fill="#465f3d"/><path d="M411.37 222.53a2.66 2.66 0 0 1-4.58 1.88 2.59 2.59 0 0 1-.71-1.93 2.48 2.48 0 0 1 2.56-2.54 2.54 2.54 0 0 1 2.73 2.59" fill="#48d8f9"/><path d="M409.05 241.16a4.48 4.48 0 0 1-4.56-4.44 4.41 4.41 0 1 1 8.82 0 4.2 4.2 0 0 1-4.26 4.41M64.85 293.05a6.45 6.45 0 0 1-6.58-6.67 6.24 6.24 0 0 1 6.32-6.44 6.61 6.61 0 0 1 6.66 6.66 6.46 6.46 0 0 1-6.4 6.45" fill="#fdc505"/><path d="M84.56 188.42a4 4 0 0 1-4.31 4.09 4.21 4.21 0 0 1-4.24-4.44 4.32 4.32 0 0 1 4.4-4.11 4.1 4.1 0 0 1 4.15 4.46" fill="#48d8f9"/><path d="M121.62 196.92a4.48 4.48 0 0 1-4.46-4.55 4.32 4.32 0 0 1 4.5-4.43 4.53 4.53 0 0 1 4.39 4.63 4.42 4.42 0 0 1-4.43 4.35" fill="#ff713f"/><path d="M169.88 194.84a4.42 4.42 0 0 1-4.32 4.46 4.66 4.66 0 0 1-4.55-4.54 4.44 4.44 0 1 1 8.87.08" fill="#fdc607"/><path d="M21.63 174.38a8.45 8.45 0 0 1-8.51 8.45A8.86 8.86 0 0 1 4.6 174a8.55 8.55 0 0 1 8.48-8.53 8.65 8.65 0 0 1 8.55 8.89M20.73 341.66a8.45 8.45 0 0 1-8.5 8.45 8.85 8.85 0 0 1-8.52-8.81 8.56 8.56 0 0 1 8.47-8.54 8.66 8.66 0 0 1 8.55 8.9" fill="#ff703e"/><path d="M42 293.58a3.84 3.84 0 0 1-3.7 3.91 4 4 0 0 1-4-4 3.92 3.92 0 0 1 3.82-3.84 4 4 0 0 1 3.88 4M14.78 287a4.44 4.44 0 0 1-4.27 4.51 4.62 4.62 0 0 1-4.61-4.66 4.52 4.52 0 0 1 4.4-4.42 4.6 4.6 0 0 1 4.48 4.57M4.75 201.41A4.48 4.48 0 0 1 .19 197 4.41 4.41 0 1 1 9 197a4.2 4.2 0 0 1-4.26 4.41" fill="#fdc505"/></g></svg>