<svg height="79" viewBox="0 0 266 79" width="266" xmlns="http://www.w3.org/2000/svg"><g fill="none"><g fill="#fff" transform="translate(80 22)"><path d="m0 23.47h6.47v-16.94h-6.47v-4.53h18v4.53h-6.51v16.94h6.51v4.53h-18z"/><path d="m23 2.62c2.3544239-.4112524 4.7399291-.61868764 7.13-.62 1.3 0 2.58.1 3.86.31 1.23.19 2.42.61 3.49 1.25 1.0514282.63651681 1.9224088 1.53159567 2.53 2.6.7027472 1.32807246 1.0408973 2.81869337.98 4.32.1319439 2.6214217-1.0255932 5.1418653-3.1 6.75-.9512708.7382606-2.0386291 1.2819397-3.2 1.6-1.2.33-2.45.5-3.7.49h-1.45c-.3 0-.59-.03-.87-.06l-.61-.07v8.81h-5.06zm7.52 3.72c-.5 0-.96 0-1.4.06l-1.08.12v8.3c.15.04.3.07.45.08.2 0 .4.04.63.05h1.1c.67 0 1.33-.05 1.98-.18.62-.1 1.22-.33 1.76-.67.52-.34.95-.82 1.23-1.37.34-.72.5-1.52.46-2.31.0902664-1.29230333-.5207611-2.53345312-1.6-3.25-.5018716-.32515851-1.0623285-.54934125-1.65-.66-.6193016-.12113499-1.2489643-.18142185-1.88-.18z"/><path d="m45 2h16v4.53h-11.06v6.42h10.27v4.54h-10.27v10.51h-4.94zm21 16.97h4.12v3.67l.23.08c1.2885781.5450036 2.6710013.833716 4.07.85 1.1511085.0697451 2.2950195-.2241036 3.27-.84.7443208-.4991337 1.1818833-1.344082 1.16-2.24.0245826-.7921399-.3278852-1.5490182-.95-2.04-.7178774-.5660375-1.5124702-1.0273054-2.36-1.37-.94-.4-1.97-.79-3.08-1.19-1.081514-.3785028-2.1151698-.8819066-3.08-1.5-.927934-.5986877-1.72968-1.3732558-2.36-2.28-.677879-1.0595705-1.0098439-2.30356527-.95-3.56-.0122761-2.09669084.9028168-4.09159323 2.5-5.45.83-.7 1.79-1.22 2.83-1.56 1.18-.38 2.42-.56 3.67-.54 1.5089979-.00274996 3.0151461.13112988 4.5.4 1.22.2 2.41.57 3.52 1.1v7.55h-4.12v-4.13c-1.9450513-1.70965913-4.8791169-1.63118486-6.73.18-.6583303.40841683-1.0504449 1.13554209-1.03 1.91-.02.78.34 1.52.95 2 .73.57 1.52 1.05 2.37 1.41.94.42 1.96.84 3.07 1.26 1.08.4 2.11.92 3.08 1.54.93.6 1.73 1.38 2.36 2.28.67 1.03 1 2.23.96 3.45.1119433 2.3588902-.9562932 4.6190539-2.85 6.03-.9591622.7074556-2.0456224 1.2235242-3.2 1.52-1.29.34-2.62.51-3.97.5-2.7949284-.0128303-5.5407935-.7354264-7.98-2.1zm49.13-.21h3.87v7.42c-.864053.6206644-1.837901 1.07196-2.87 1.33-2.62306.7288649-5.405483.645183-7.98-.24-1.389074-.4782241-2.646238-1.2763693-3.67-2.33-1.14-1.19-2-2.62-2.56-4.2-.67-2-.98-4.12-.91-6.25-.06-2.2.3-4.37 1.07-6.4.62-1.58 1.56-3 2.76-4.16 1.072615-1.01971489 2.356223-1.79124543 3.76-2.26 2.478166-.7772627 5.118576-.88080817 7.65-.3.83.2 1.64.48 2.4.86v7.72h-3.85v-4.25c-.75-.13-1.5-.19-2.26-.19-1.799377-.06699966-3.517599.75102331-4.6 2.19-.630095.83662886-1.091956 1.78751769-1.36 2.8-.359412 1.3022844-.531143 2.6491948-.51 4-.02 1.23.14 2.46.46 3.64.27 1.03.72 2 1.33 2.85.57.77 1.3 1.4 2.14 1.83.9.45 1.89.67 2.89.65.75 0 1.5-.07 2.24-.22z"/><path d="m124.22 10.61c2.430156-1.09949213 5.072979-1.64922677 7.74-1.61 1.071581-.02340747 2.139564.13205838 3.16.46.8.26 1.52.7 2.11 1.3.54.57.94 1.26 1.16 2.01.25.87.37 1.76.36 2.66 0 1.25-.04 2.31-.13 3.2-.08.88-.12 1.66-.12 2.34 0 .53 0 1.06.07 1.72.05.35.09.68.11.99h2.32v4.02h-6l-.46-2.49h-.18c-.516907.797308-1.207473 1.4673615-2.02 1.96-1.1.6-2.32.88-3.55.82-1.546712.0855046-3.065323-.4386495-4.23-1.46-1.054011-1.0086549-1.622448-2.4224598-1.56-3.88-.022418-.9170527.165736-1.8270356.55-2.66.37-.74.92-1.37 1.6-1.83.77-.5 1.62-.86 2.52-1.06 1.517425-.3473772 3.081772-.4419813 4.63-.28.47.07 1.03.1 1.73.15.05-.24.08-.49.08-.73v-.7c.07-.75-.22-1.5-.78-1.99-.679809-.4475221-1.488209-.6584092-2.3-.6-1.11-.02-2.21.14-3.27.47-.83.27-1.65.58-2.45.95l-1.1-3.76zm6.07 13.43c.896588.065058 1.790394-.1592699 2.55-.64.5-.36.92-.83 1.23-1.37v-2.2c-.838637-.1751663-1.693268-.2623052-2.55-.26-.45 0-.9.05-1.35.13-.41.08-.82.21-1.2.4-.33.17-.62.42-.84.72-.22.31-.33.68-.32 1.06-.04.6.17 1.18.58 1.6.55.43 1.24.63 1.92.56z"/><path d="m151.89 28v-11.4c.011171-.6035343-.039087-1.2066394-.15-1.8-.064447-.374383-.189415-.7357768-.37-1.07-.120955-.2435317-.322305-.4378171-.57-.55-.611285-.2544245-1.313457-.1463981-1.82.28-.34.26-.58.63-.7 1.04v13.46h-4.28v-18.55h3.4l.5 2.05h.12c.735159-1.52441648 2.287746-2.48405555 3.98-2.46.79 0 1.56.2 2.25.6.75.44 1.28 1.2 1.46 2.08.33-.83.9-1.53 1.64-2 .71949-.44930798 1.551756-.68511665 2.4-.68.585303-.00806795 1.167477.0867045 1.72.28.53.2.99.54 1.34.99.42.56.72 1.21.87 1.91.23 1.02.33 2.06.3 3.1v12.72h-4.28v-11.9c0-1.1-.17-1.89-.51-2.33-.3-.44-.79-.69-1.3-.68-.39 0-.77.1-1.1.32-.34.24-.57.6-.65 1.02v13.57h-4.26z"/><path d="m165.06 9.5h6l.52 2.2h.14c1.23-1.8 3.2-2.7 5.94-2.7 1.020817-.00916554 2.034528.17052231 2.99.53.9.35 1.7.92 2.33 1.66.689192.8339685 1.199741 1.8006091 1.5 2.84.38 1.33.55 2.72.52 4.1.02 1.44-.19 2.87-.6 4.24-.359559 1.1635045-.951506 2.2419359-1.74 3.17-.750725.8692108-1.691771 1.5536073-2.75 2-1.179942.4823667-2.445433.7204967-3.72.7-.72 0-1.43-.06-2.15-.17-.61453-.0809528-1.212111-.2598894-1.77-.53v7.46h-4.62v-21.49h-2.65l.06-4zm11.24 3.5c-.87 0-1.72.23-2.46.7-.75.46-1.3 1.2-1.54 2.07v7.57c.43.3.93.52 1.44.61.62.16 1.26.24 1.9.24.62 0 1.25-.1 1.83-.34.580246-.2420939 1.091969-.6233109 1.49-1.11.458408-.5704022.798379-1.2265476 1-1.93.24-.91.36-1.86.34-2.8 0-1.6-.38-2.84-1.13-3.7-.701902-.8534461-1.755168-1.339569-2.86-1.32z"/></g><path d="m33.13 1c.47.07.83.45.86.93.06.46-.22.9-.67 1.04-.251933.04161501-.5092492.03822927-.76-.01l-.15-.08-.03-.06c-.255403-.26498956-.3925052-.62217699-.38-.99h.06c.14.15.36.18.54.08.37-.12.6-.5.52-.89" fill="#ff713f"/><path d="m32.6 2h-.08c-.4-.23-.6-.72-.48-1.18.07-.42.4-.74.8-.8.52-.1 1.03.26 1.16.8l-.2.03c-.62.02-1.13.5-1.2 1.15" fill="#fdc505"/><path d="m32 1.86c.05-.47.4-.83.82-.84l.14-.02.03.02c.06.4-.14.8-.49.92-.1627448.10443612-.3779651.07000087-.5-.08" fill="#fd5701"/><path d="m33.08 3.04-.16-.08z" fill="#fff"/><path d="m39.44 16.2c-.9344581.9988943-2.4936313 1.0741953-3.52.17-.7552617-.5854193-1.0829578-1.5685076-.83-2.49.18-.88.88-1.57 1.78-1.8.653554-.1711787 1.3478642-.0852847 1.94.24.58.32 1.01.85 1.19 1.48l-.25.07c-.42.14-.74.48-.86.9-.11.41 0 .85.3 1.18.07.09.16.17.25.25" fill="#ff6f3d"/><path d="m26.01 64.68c.2-.88.83-1.53 1.6-1.66 1.08-.17 2.1.66 2.34 1.93s-.37 2.55-1.41 2.95c-.7.25-1.45.03-1.97-.57-.1-.1-.17-.2-.26-.3v-.06c.47-.38.51-1.41.1-1.92-.1287842-.1349146-.265707-.2618186-.41-.38" fill="#45d7f8"/><path d="m9 53.52c0 .54-.3 1.02-.76 1.29-.47.26-1.04.25-1.5-.02-.4589668-.2673628-.74089856-.7588384-.74-1.29-.0053369-.3942465.14685975-.7743255.42282941-1.0559272s.65289675-.4414448 1.04717059-.4440728c.84.02 1.52.7 1.53 1.52" fill="#46d8f9"/><path d="m50 62.52c0 .39-.15.76-.43 1.04-.2810347.281385-.6623093.4396499-1.06.44-.8310613-.0161245-1.4993614-.6888504-1.51-1.52 0-.4.15-.77.43-1.05.4317773-.4399144 1.0887252-.5708984 1.6562013-.3302179.5674762.2406806.929943.8040234.9137987 1.4202179" fill="#fdc503"/><path d="m57.3 27.24c-.18-.39-.29-.83-.3-1.3 0-.9.48-1.69 1.16-1.9.55-.15 1.13.1 1.49.68s.45 1.38.23 2.06c-.22.7-.72 1.16-1.28 1.22-.05 0-.1 0-.15-.02.04-.2.06-.42.06-.63-.04-.4-.3-.71-.6-.72-.28 0-.52.26-.57.62h-.05m-14.29-15.77c-.01-.4.14-.77.42-1.05.5995132-.57380002 1.5458755-.56937776 2.14.01.28.29.44.67.44 1.07.01.4-.14.78-.43 1.06-.6013551.5828882-1.5595925.5739744-2.15-.02-.2794263-.284877-.4310323-.6711112-.42-1.07" fill="#ff703d"/><path d="m53.85 63.96c-.5661277.1400403-1.1610607-.0727172-1.51-.54-.3477905-.407398-.4367305-.9758402-.23-1.47.2-.59.78-.97 1.41-.95.68.02 1.26.47 1.43 1.11.03.14.05.27.05.41-.0593927-.0133534-.1194869-.0233691-.18-.03-.3021476-.0407195-.6058587.0629867-.82.28-.2154694.2144162-.3125524.5206012-.26.82.03.13.06.25.11.37" fill="#45d7f8"/><path d="m29.52 18c-.4 0-.8-.16-1.08-.45-.2863343-.2859163-.4450082-.6753886-.44-1.08 0-.81.67-1.47 1.5-1.47.4 0 .79.16 1.07.45.29.3.44.68.43 1.08 0 .8-.66 1.46-1.47 1.46" fill="#ff703e"/><path d="m35 67.52c0 .39-.15.77-.42 1.04-.593441.5753499-1.536559.5753499-2.13 0-.2884744-.2811717-.4508089-.6671671-.45-1.07 0-.4.14-.77.42-1.05.2833624-.2845704.66841-.4445424 1.07-.4445424s.7866376.159972 1.07.4445424c.28.29.44.68.43 1.08m9.01-46.99c0 .81-.66 1.47-1.48 1.47-.8410878-.0054974-1.520018-.6888942-1.52-1.53.0090595-.6006321.3802661-1.1362113.9395021-1.3555196.559236-.2193082 1.1955597-.0788389 1.6104979.3555196.27.28.43.66.42 1.06" fill="#fdc503"/><path d="m29 54.48c0-.39.15-.76.42-1.04.28-.28.66-.44 1.05-.44.85.02 1.53.7 1.53 1.54 0 .53-.3 1.02-.77 1.27-.47.26-1.04.25-1.5-.02-.459771-.2701702-.7386455-.766796-.73-1.3" fill="#ff703d"/><path d="m19 24.51c-.0054969.8245192-.6754625 1.4900183-1.5 1.49-.8325891-.026857-1.4950587-.7069925-1.5-1.54.0145894-.5347379.3128506-1.0212385.7827841-1.2768163.4699335-.2555779 1.040412-.2415499 1.4972159.0368163.46.27.73.77.72 1.3" fill="#ff703e"/><path d="m35.53 64c-.41 0-.8-.17-1.1-.45-.433-.4276009-.5624498-1.075547-.3269871-1.6366965.2354628-.5611496.7885111-.9227141 1.3969871-.9133035.84.03 1.5.7 1.51 1.5.01.82-.65 1.49-1.47 1.5" fill="#46d8f9"/><path d="m36.98 22.52c0 .8-.66 1.47-1.48 1.48-.8249497-.0264785-1.4844498-.694772-1.5-1.52.0026474-.6083573.3748764-1.1540056.9403322-1.3784278.5654558-.2244221 1.2105571-.0825391 1.6296678.3584278.29.28.44.67.43 1.07" fill="#ff703d"/><path d="m34.34 6.45c-.4174434-.5053452-.4584253-1.22321395-.1012052-1.77278336.3572201-.54956942 1.0299066-.80355376 1.6612052-.62721664.6313337.17460406 1.0763584.7386796 1.0992477 1.39331302.0228893.65463341-.3816509 1.24841402-.9992477 1.46668698-.15.04-.32.07-.48.09l-.05-.02c-.0132194-.07617558-.0367699-.15019146-.07-.22-.2233423-.35752172-.6792117-.49084204-1.06-.31" fill="#fdc503"/><path d="m35.35 8.23c.32.25.53.6.61 1 .18.78-.32 1.55-1.12 1.74-.8.16-1.6-.32-1.8-1.1-.1-.41-.03-.85.21-1.2.24-.36.61-.6 1.04-.67l.06.03c.2.3.6.39.91.2z" fill="#45d7f8"/><path d="m17 66.6c0-.77.33-1.28.96-1.51.72-.26 1.53.06 1.87.74.36.68.13 1.52-.53 1.94-.6405156.4030221-1.4809267.2658121-1.96-.32l-.19-.26-.15-.58" fill="#ff703d"/><path d="m61.5 31c-.4853825.4832509-1.2352344.5792781-1.8267281.2339337-.5914938-.3453443-.8764624-1.0455529-.6942173-1.705791.182245-.6602381.7860521-1.1151185 1.4709454-1.1081427.28-.28.66-.43 1.05-.42.82.01 1.49.69 1.5 1.53-.01.4-.17.77-.45 1.04-.29.27-.66.41-1.05.4m-30.52 26.54c.02.4-.14.78-.42 1.06s-.66.44-1.06.43c-.41 0-.8-.16-1.08-.45-.2829875-.2866491-.4349758-.6774763-.42-1.08 0-.4.16-.78.44-1.06.4437419-.4042092 1.08285-.5116072 1.6343375-.2746399s.913468.7745205.9256625 1.3746399m17-42.99c0 .4-.15.77-.43 1.05-.2851212.2801833-.670285.4349688-1.07.43-.4 0-.8-.17-1.07-.45-.2840835-.2825533-.4395613-.6694399-.43-1.07 0-.4.15-.77.43-1.05.2851212-.2801833.670285-.4349688 1.07-.43.84.03 1.5.7 1.5 1.52" fill="#46d8f9"/><path d="m33.84 26c-.26 0-.52-.02-.78-.07-.7069917-.2110151-1.1505823-.9105233-1.04-1.64.0930331-.6851402.6423391-1.2179257 1.33-1.29.41-.03.82.11 1.13.38s.5.66.52 1.07v.28l-.06.06c-.57.11-1 .58-1.07 1.15z" fill="#fdc503"/><path d="m24.5 20c.4 0 .79.16 1.07.45s.44.67.43 1.07c0 .4-.16.78-.44 1.06-.28.27-.67.43-1.07.42-.8232319-.0266784-1.4797352-.6963999-1.49-1.52 0-.39.15-.77.43-1.05s.67-.43 1.07-.43" fill="#ff703e"/><path d="m55.84 19.22c-.21.4-.58.68-1.01.78-.0193745-.008414-.039452-.0151065-.06-.02-.29-.54-.91-.81-1.51-.67l-.06-.03c-.1784978-.3372015-.2383755-.7246454-.17-1.1.13-.66.7-1.14 1.38-1.18.68-.03 1.3.38 1.5 1.02.1.25.12.53.05.8l-.14.37" fill="#fdc503"/><path d="m34 26.28.03-.05c.5839851-.105808 1.0303755-.5806051 1.1-1.17l.05-.06c.25 0 .49.03.73.07.6727637.2055553 1.1123017.8510265 1.0570628 1.55232s-.5904133 1.2699895-1.2870628 1.36768c-.82.08-1.56-.5-1.66-1.3 0-.13 0-.26-.02-.37" fill="#45d7f8"/><path d="m13.49 25c.84.02 1.5.69 1.51 1.51 0 .4-.15.77-.43 1.05s-.65.44-1.05.44c-.8311496-.0106386-1.5038755-.6789387-1.52-1.51 0-.81.66-1.48 1.49-1.49" fill="#fdc505"/><path d="m50.01 59.48c0-.81.66-1.47 1.5-1.48.83.02 1.5.7 1.49 1.51-.0054529.820635-.669365 1.4845471-1.49 1.49-.83-.02-1.5-.7-1.51-1.51" fill="#ff703e"/><path d="m13.46 20c.54 0 1.05.27 1.33.73.27.46.28 1.03.02 1.5-.27.47-.76.76-1.3.77-.83 0-1.5-.67-1.5-1.5-.03-.39.12-.77.4-1.05.27-.29.65-.45 1.05-.45" fill="#46d8f9"/><path d="m18.45 12.19c.46.38.66 1.02.5 1.62-.13.62-.6 1.08-1.18 1.16-.6.13-1.2-.16-1.51-.72-.2343916-.3679904-.3134933-.8138364-.22-1.24.1-.43.35-.8.7-1.01.5.39 1.15.45 1.7.17" fill="#45d7f8"/><path d="m30.5 72c.4 0 .8.16 1.08.45.28.3.43.68.42 1.08 0 .39-.15.76-.42 1.04-.28.27-.66.43-1.05.43-.41 0-.8-.16-1.09-.45-.284802-.2828421-.4434427-.6686274-.44-1.07 0-.4.15-.78.43-1.06.29-.28.68-.43 1.08-.42m.3 1.68c.2033352.0192019.4045329-.0540079.5479798-.1993933.1434469-.1453853.2139495-.3475476.1920202-.5506067-.01-.4-.34-.72-.75-.72-.2958153.0009497-.5618137.1803291-.6735637.454226-.1117499.2738969-.0471566.5881577.1635637.795774.14.14.33.22.54.22" fill="#fe703e"/><path d="m26.01 13.47c0-.4.16-.76.43-1.04.28-.28.66-.43 1.06-.43.84.02 1.51.7 1.5 1.54 0 .4-.16.77-.44 1.04-.2873327.2806349-.6746306.4352342-1.0762328.4296043-.4016022-.00563-.7844141-.1710252-1.0637672-.4596043-.2809731-.2879502-.4326116-.677878-.42-1.08" fill="#fdc505"/><path d="m39 10.52c0 .39-.1.76-.28 1.04s-.43.44-.7.44-.53-.16-.72-.44c-.2-.29-.3-.67-.3-1.07 0-.81.43-1.47.98-1.49.27 0 .53.16.72.45.2.28.3.67.3 1.07" fill="#fdc503"/><path d="m46.31 67.4c-.5764291-.2406645-.9415518-.8153313-.9145425-1.439399.0270093-.6240676.4404163-1.1650401 1.0354827-1.3550029.5950663-.1899629 1.2454535.011415 1.6290598.5044019.66.29 1.04.98.92 1.68-.1.64-.6 1.13-1.25 1.21l.05-.18c.11-.39-.1-.8-.48-.94-.4-.14-.7 0-.91.44 0 .03-.05.05-.07.09" fill="#ff703d"/><path d="m19.51 53.28c.37-.24.8-.33 1.24-.26.67.14 1.16.67 1.24 1.32.1.7-.34 1.36-1.04 1.58-.4.13-.84.1-1.21-.1-.38-.19-.64-.53-.74-.93h.23c.36-.04.65-.3.72-.64.090827-.3669885-.0946028-.7462767-.44-.9v-.05" fill="#45d7f8"/><path d="m44.51 27c-.6177696.0018405-1.1734862-.375253-1.4-.95-.2276237-.5851055-.0772735-1.2498117.38-1.68.4682147-.4230135 1.1572919-.4919212 1.7-.17 0 .14.03.28.07.43.06.3.34.53.66.53h.07c.03.3-.02.6-.14.89l-.16-.14c-.2244059-.1838539-.5315277-.2299222-.8-.12-.271507.1120732-.4570325.3671708-.48.66.0092498.1803715.0428889.3586589.1.53" fill="#fe703e"/><path d="m47 53.75c0-.17.02-.34.05-.51.14-.76.8-1.3 1.54-1.24.73.05 1.32.64 1.4 1.4.09.67-.25 1.32-.85 1.6-.03-.13-.05-.26-.1-.39-.13-.4-.43-.73-.81-.9-.3812091-.1595749-.8136564-.1412508-1.18.05h-.05m-42.74-30.1c-.36-.38-.34-.87.03-1.23.44831261-.3781369 1.04871347-.5226779 1.62-.39.6.13 1.03.5 1.08.93.06.43-.25.83-.79 1.03-.43-.44-1.26-.59-1.94-.35" fill="#fcc504"/><path d="m14.97 15c.2756628-.0084017.5425573.0974155.7375709.2924291s.3008308.4619081.2924291.7375709c-.0107855.5350702-.4448473.9647028-.98.97-.56-.01-1-.46-1.02-1.02-.000028-.5373577.4326702-.9745168.97-.98" fill="#ff703e"/><path d="m20.99 42c.56.01 1 .45 1.01 1 0 .27-.1.52-.29.7-.19.2-.45.3-.71.3-.56-.02-1-.47-1-1.01.0054183-.5445018.4454982-.9845817.99-.99m-2.31-31.4c.5136252.7383572.3839075 1.7458315-.3 2.33-.0409587.0274973-.0844975.0509412-.13.07-.4718988-.3964183-1.1382529-.463847-1.68-.17-.4824651-.4043266-.6788935-1.056469-.5-1.66.12-.64.63-1.11 1.23-1.17l-.09.25c-.05.2-.03.42.06.6.1.2.25.33.44.4.2.06.42.04.6-.08s.3-.32.33-.55h.04" fill="#fdc503"/><path d="m46.8 54h.05c.03.52.32.98.76 1.22.42.24.93.28 1.38.1.09.74-.37 1.44-1.08 1.62-.69.2-1.41-.13-1.73-.79-.3496019-.6666496-.1872302-1.4868349.39-1.97.07-.07.15-.12.24-.18" fill="#46d7f7"/><path d="m58.1 52.98c-.23-.6-.04-1.26.46-1.66.5188028-.410847 1.2446745-.4360044 1.7906767-.0620617.5460023.3739427.7848913 1.0598397.5893233 1.6920617-.176989.6167987-.7383392 1.0439129-1.38 1.05.04-.1.08-.2.1-.3.053279-.2533395-.0090324-.5172465-.17-.72-.1608279-.2030221-.4013257-.3269149-.66-.34-.29.02-.55.15-.73.36m-5.1-30.47c-.24.3-.56.48-.9.47-.62-.04-1.11-.73-1.1-1.54 0-.4.12-.77.33-1.04.1846103-.2593599.4816815-.4153223.8-.42l.33.03v.05c-.26.38-.35.9-.25 1.4.11.48.4.86.78 1v.05" fill="#fe703e"/><path d="m40.03 57.83c-.15-.8.33-1.6 1.1-1.78.8000385-.1884153 1.602707.3021044 1.8 1.1.2214454.7043117-.0677813 1.4686964-.7 1.85-.0867088-.6397575-.5539235-1.1624045-1.18-1.32-.3470435-.0720837-.7084015-.0189428-1.02.15" fill="#fcc504"/><path d="m36 58.98c-.2687184.0000537-.5261508-.1080441-.7142729-.2999286-.188122-.1918845-.2911015-.4514068-.2857271-.7200714.0216774-.5444475.4752389-.971329 1.02-.96.55.03.98.48.98 1.01 0 .27-.1.52-.3.7-.18.19-.44.3-.7.29" fill="#ff713f"/><path d="m29.53 20.9c-.15-.13-.29-.27-.41-.43-.2015016-.3753101-.1431277-.8370705.1454326-1.150429s.7439542-.4095177 1.1345674-.239571c.3873173.172464.6237787.5704268.5900577.9930631s-.3302938.7780698-.7400577.8869369c-.06 0-.13.03-.2.04zm-18.64-4.91-.24-.07c-.4676571-.1772315-.7324753-.6726978-.62-1.16.1-.45.5-.77.98-.76.3780765-.1239561.7936681-.0119853 1.058297.2851318.2646288.297117.3279424.7228461.1612269 1.0841118-.1667156.3612657-.5317381.5893279-.9295239.5807564l-.19.05h-.23" fill="#fdc505"/><path d="m45.99 57c.56 0 1.02.46 1.01 1 0 .37-.19.7-.51.88-.32.17-.72.16-1.03-.03-.3116338-.1884607-.4897927-.5370324-.46-.9 0-.52.44-.95.98-.95" fill="#ff703e"/><path d="m12.15 57.83c-.32-.56-.11-1.23.48-1.6.59-.35 1.4-.3 1.92.14.52.43.6 1.12.19 1.63l-.2-.23c-.3749691-.3949213-.9250612-.5720057-1.46-.47-.38.08-.7.26-.93.53" fill="#fcc504"/><path d="m17 20c-.270447.0057485-.5312421-.1005462-.7206171-.2937087s-.2904851-.4560111-.2793829-.7262913c-.008426-.2624046.0921155-.5165971.2777592-.7022408s.4398362-.2861852.7022408-.2777592c.2713396-.0027001.5323523.1038966.7242279.2957721.1918755.1918756.2984722.4528883.2957721.7242279 0 .54-.44.98-.98.98" fill="#fdc505"/><path d="m29 6.02c0 .54-.44.98-.99.98-.5571606-.01079542-1.0046942-.46276005-1.01-1.02 0-.54.44-.98.99-.98.55.01 1 .47.98 1.02m11.03 0c0 .54-.44.98-.99.98-.56 0-1.01-.46-1.01-1.02-.0063428-.40626306.238666-.774305.6159177-.9252057.3772518-.1509007.808494-.05335917 1.0840823.2452057.19.2.3.45.29.72" fill="#ff713f"/><path d="m33 74.97c0-.53.45-.97 1-.97.56.02 1 .48 1 1.03 0 .53-.45.97-1 .97-.27 0-.53-.12-.72-.31-.1869858-.1921788-.2880215-.451985-.28-.72" fill="#fdc505"/><path d="m3 19c.26871836-.0000537.52615081.1080441.71427286.2999286s.29110151.4514068.28572714.7200714c0 .27-.1.52-.3.7-.18786656.1810851-.43907239.2815675-.7.28-.26957641.0028474-.52865517-.1043662-.71738844-.2968741-.18873326-.1925079-.29079604-.4536587-.28261156-.7231259 0-.26.1-.52.28-.7.19153702-.1879819.45178522-.2891895.72-.28" fill="#ff713f"/><path d="m41.98 58.8c.1.42-.18.84-.7 1.06-.36.14-.78.18-1.17.1-.3537108-.0581506-.6757755-.2386483-.91-.51-.4-.5-.16-1.24.5-1.45.13.43.6.78 1.2.89.36.05.74.03 1.08-.08" fill="#45d7f8"/><path d="m50 24.5c0 .14-.05.26-.14.36-.1.1-.22.14-.36.14-.1353569.0007906-.2652509-.0533319-.36-.15-.0955478-.0988424-.1461833-.2326648-.14-.37 0-.13.05-.25.15-.34.0965248-.0920617.2258333-.1417384.3591685-.1379825s.2596423.0606331.3508315.1579825c.1.1.15.22.14.36" fill="#ff703e"/><path d="m53.98 25.02c.2652317-.0053577.5217232.0948944.7130221.2786913.1912988.183797.3017263.4360749.3069779.7013087 0 .26-.1.52-.28.7-.2.2-.45.3-.72.3-.56-.02-1-.47-1-1.02 0-.54.45-.98 1-.98" fill="#fdc505"/><path d="m25.99 66.62v.06c-.23.2-.5.32-.78.32-.57 0-1.06-.5-1.18-1.2-.12-.65.13-1.33.62-1.63.2858182-.2046823.6646512-.2242097.97-.05 0 .09-.03.18-.04.27-.14.78.01 1.6.42 2.23" fill="#fe703e"/><path d="m20.04 66.49c-.15-.56.18-1.12.8-1.37.63-.24 1.37-.1 1.81.34s.47 1.07.06 1.54l-.1-.2c-.17-.4-.59-.69-1.08-.77-.5-.08-1.01.06-1.36.36l-.12.1" fill="#fcc504"/><path d="m28.92 21 .53.1c.25.15.44.4.52.68.0972069.396312-.0587089.8116661-.3926921 1.0461179-.3339831.2344518-.7776028.2399636-1.1173079.0138821-.3415733-.2179277-.5158772-.6219956-.44-1.02.0765961-.447306.4475154-.7852547.9-.82m-8.92 3c-.2687184.0000537-.5261508-.1080441-.7142729-.2999286-.188122-.1918845-.2911015-.4514068-.2857271-.7200714.0108913-.5444587.4554324-.9801089 1-.98.56.02 1 .47 1 1.02 0 .26-.1.51-.3.7-.2.18-.45.29-.72.28" fill="#47d8f9"/><path d="m10.93 16.01h.23c.22.05.42.17.57.33.3006822.3310063.3421365.8224861.1011458 1.1991802-.2409906.3766941-.7045868.5450672-1.1311458.4108198-.42-.15-.7-.54-.7-.98 0-.46.34-.85.8-.94l.13-.03" fill="#46d8f9"/><path d="m20.05 66.64.14-.13c.3850818-.3995947.9461228-.5773427 1.4910535-.4723931s.9998228.4783589 1.2089465.9923931l.11.27-.02.08-.1.1c-.3838154.4059665-.9452098.5931158-1.4958474.4986634-.5506376-.0944525-1.0175704-.4579937-1.2441526-.9686634l-.12-.26c-.04-.09 0-.08.02-.11" fill="#148d03"/><path d="m40.96 73c-.5206304-.039377-.9313648-.4586684-.96-.98-.01-.51.38-.95.92-1.02.29 0 .57.1.77.3.1971261.1834962.3090915.4406869.3090915.71s-.1119654.5265038-.3090915.71c-.19.18-.45.28-.73.28" fill="#ff713f"/><path d="m24 6c0-.26.1-.52.28-.7.1846305-.18841426.4362307-.29624295.7-.3.56 0 1.01.45 1.02 1 0 .55228475-.4477153 1-1 1-.5444587-.01089134-.9801089-.45543239-.98-1" fill="#fdc505"/><path d="m14.86 58.2c.2598181.4673703.1458913 1.0538826-.27 1.39-.38.37-.98.5-1.53.34-.56-.15-.97-.57-1.03-1.08-.08-.3 0-.6.2-.85l.2.23c.45.49 1.24.63 1.88.34.2-.11.37-.24.55-.37" fill="#46d7f7"/><path d="m35 55.02c-.0082862.4052286-.2603567.7653779-.6382536.9119138-.377897.1465359-.8068714.0504732-1.086182-.2432349-.2793106-.293708-.3537091-.7269654-.1883803-1.0970265s.5376825-.6037271.9428159-.5916524c.54.03.97.48.97 1.02m3.99 9.98c-.5401398-.015666-.974334-.4498602-.99-.99 0-.53.42-.97.97-1.01.56.01 1.02.46 1.03 1 0 .26-.1.52-.29.7-.19.2-.45.3-.72.3" fill="#fdc505"/><path d="m20.27 67 .1.21c.2.41.63.7 1.14.79.5.07 1.02-.08 1.37-.4l.1-.1c.14.68-.36 1.33-1.14 1.47-.76.15-1.53-.24-1.76-.89-.15-.36-.09-.77.18-1.08" fill="#46d7f7"/><path d="m22 15.01c0 .27-.1.52-.3.7-.1862606.1847442-.4376601.2888954-.7.29-.56-.02-1-.47-1-1.02 0-.26.1-.51.3-.7.18-.18.44-.28.7-.28.2687184-.0000537.5261508.1080441.7142729.2999286.188122.1918845.2911015.4514068.2857271.7200714" fill="#ff713f"/><path d="m53.53 22v-.06c.62-.84.17-2.27-.53-2.43v-.05l.59-.46.05.02c.22.56.7.84 1.17.7l.05.02c.12.32.16.68.13 1.04-.1.75-.62 1.29-1.2 1.21l-.26-.02" fill="#46d7f7"/><path d="m17.13 63c-.3801122.0501286-.7536019-.130719-.95-.46-.2167051-.2993836-.2401104-.6972743-.06-1.02.15-.3.47-.5.82-.52.3756638-.0279374.7351528.1576053.93.48.05.08.1.16.13.25l-.02.02c-.4713815.0336239-.8463761.4086185-.88.88v.36" fill="#fcc504"/><path d="m45 65.01c0 .54-.44.97-1 .9899999-.56-.0299999-1-.4799999-1-1.0299999.0162233-.5405347.459222-.9702434 1-.9700001.56.0300001.99.4700001 1 1" fill="#47d8f9"/><path d="m17.86 61c.09 0 .18 0 .27.02.5.08.87.5.87.99-.0046336.5294645-.4211764.963546-.95.99-.4716267.0448457-.9100011-.2474039-1.05-.7.7-.2 1.01-.67.84-1.28z" fill="#46d7f7"/><path d="m23.9 10c-.4581443-.05771354-.8218903-.41328552-.89-.87-.0728656-.45849829.185978-.90521227.62-1.07.4511931-.17299519.9618609-.00565353 1.2231664.40082161.2613054.40647514.2015339.94052777-.1431664 1.27917839l-.07.01c-.257816-.09309949-.5456091.00700245-.69.24z" fill="#46d8f9"/><path d="m10 24.03c0 .26-.1.5-.29.69-.40100897.3780477-1.02979721.3691915-1.42-.02-.18756933-.1843682-.29223117-.4370002-.29-.7 0-.26.1-.52.28-.7.18949829-.1933362.44928618-.3015811.72-.3.56.02 1 .48.99 1.03" fill="#ff713f"/><path d="m55.97 55c.56 0 1.02.44 1.03 1 0 .5522847-.4477153 1-1 1s-1-.4477153-1-1c-.0109935-.2632107.0866614-.5193736.2700837-.7084688.1834224-.1890952.4364929-.2945048.6999163-.2915312" fill="#47d8f9"/><path d="m39.54 14c.71-.06 1.36.32 1.45.86.1.52-.36 1-1.04 1.12-.33.06-.68 0-.95-.15.33-.3.54-.66.6-1.05 0-.26-.02-.51-.06-.77m-34.52 10.23.32-.24.36.3c.33.2.76.22 1.12.06.33.48.2 1.13-.3 1.45-.4951608.3314696-1.16316524.2172057-1.52-.26l.17-.04c.27539914-.0498598.48153638-.2807335.5-.56.02333988-.2784306-.13949773-.5389708-.4-.64-.08206474-.0276474-.16551055-.0510123-.25-.07m27.98 54.41c-.29.3-.74.42-1.16.31-.44-.1-.77-.42-.82-.81-.09-.39.11-.78.5-.98.36-.23.84-.23 1.2 0l.15.08v.05c-.2585836.124914-.4164564.3932978-.4.68.02.28.23.52.52.63v.03" fill="#46d7f7"/><path d="m46.1 17.39c-.1737394-.3403608-.1135984-.7533292.15-1.03.2337675-.3050768.6325482-.4326867 1-.32.4638969.1100235.7856088.5322378.7685923 1.0086997s-.3680285.8746504-.8385923.9513003l.14-.2c.165084-.2461599.1488153-.5715351-.04-.8-.1385123-.1901634-.3753809-.2818305-.6058215-.2344501-.2304407.0473803-.4119286.2250645-.4641785.4544501-.02.06 0 .16-.1.17" fill="#ff703e"/><path d="m53 14.01c0 .54-.43.98-.97.99-.57 0-1.03-.46-1.03-1.03.0163444-.5483933.4714778-.9812162 1.02-.97.5483718.0109411.9855939.4615476.98 1.01" fill="#fdc505"/><path d="m12.98 64c.27 0 .53.1.73.3.2779026.2830695.3622121.7036431.2148874 1.071955-.1473247.3683118-.4984272.6147207-.8948874.628045-.5606026-.0104539-1.0140775-.4595261-1.03-1.02.0106323-.5367733.4432267-.9693677.98-.98" fill="#ff713f"/><path d="m60 24c-.5594176-.0109431-1.0055926-.4705033-1-1.03 0-.26.11-.51.3-.7.2554449-.2500859.624905-.3448966.9692082-.2487178s.6111417.3687353.7.715-.0137633.7136319-.2692082.9637178c-.1846305.1884143-.4362307.296243-.7.3" fill="#fdc505"/><path d="m52 16.02c.0146267.2641252-.0839171.5219812-.2709679.7090321-.1870509.1870508-.4449069.2855946-.7090321.2709679-.2652317.0053577-.5217232-.0948944-.7130221-.2786913-.1912988-.183797-.3017263-.4360749-.3069779-.7013087-.0065002-.4080911.2356573-.7791789.6118162-.9375616.3761588-.1583827.8108211-.0722716 1.0981838.2175616.19.19.3.45.29.72" fill="#47d8f9"/><path d="m36.01 72.15c-.0805365-.5238521.2616289-1.0195532.78-1.13.494504-.0956238.9829514.1914461 1.14.67.2.5 0 1.06-.47 1.31l-.06-.22c-.12-.35-.4-.6-.74-.69-.2188066-.0418287-.4451164-.0174568-.65.07" fill="#fcc504"/><path d="m13.99 57.61c-.13.1-.27.2-.41.28-.483137.2153558-1.0485862.116501-1.43-.25l-.15-.17v-.05c.17-.2.43-.34.72-.4.43-.08.87.06 1.13.35l.15.18v.06" fill="#148d03"/><path d="m38 73.87c.0635122.5131862-.2747006.9901529-.78 1.1-.5.12-1-.19-1.17-.7-.15-.49.05-1.02.48-1.27.05.38.28.71.62.87.27.12.57.12.84 0" fill="#46d7f7"/><path d="m26.02 72.34c-.1-.49.12-.99.52-1.22s.9-.13 1.2.24c.3.39.35.96.1 1.4l-.18.24h-.04c-.0435183-.3951473-.3191781-.7259391-.7-.84-.312789-.0938692-.6518448-.0222908-.9.19" fill="#fcc504"/><path d="m55.25 62c.5.16.8.6.74 1.09-.04.45-.42.83-.9.9-.44.06-.87-.13-1.09-.48.698064-.1846613 1.203309-.7901534 1.26-1.51" fill="#ff713f"/><path d="m26.95 73.62h.04c.05.37-.06.75-.29 1.03-.2343342.3113998-.64878.4262956-1.01.28-.4-.13-.67-.53-.68-1-.05-.35.07-.7.32-.93l.13.3c.15.28.4.48.69.54s.59-.02.82-.23" fill="#46d7f7"/><path d="m35 17.01c-.0056782.4026282-.252292.762573-.6257065.913249-.3734146.1506761-.8007742.0626855-1.0842935-.223249-.1896681-.1911631-.294221-.4507427-.29-.72 0-.26.1-.5.28-.7.2899913-.286629.7238856-.3707789 1.1000008-.2133354.3761153.1574436.6206734.5255969.6199992.9333354" fill="#fdc505"/><path d="m29.02 62c-.56 0-1.02-.45-1.02-1-.0001089-.5445676.4355413-.9891087.98-1 .56 0 1.01.46 1.02 1 0 .27-.1.52-.28.7-.1846305.1884143-.4362307.296243-.7.3" fill="#ff713f"/><path d="m64 45c.27 0 .53.11.72.3.19.2.29.46.28.73-.0162233.5405347-.459222.9702434-1 .97-.5456603-.0156745-.9843255-.4543397-1-1 0-.5522847.4477153-1 1-1" fill="#fdc505"/><path d="m4 53.05c-.00223008.263612-.11276625.5147073-.30567666.6943787-.1929104.1796715-.45121789.2721071-.71432334.2556213-.54996322-.0163133-.98568947-.4698243-.98-1.02.00263881-.2625686.1094814-.5133332.29702071-.6971217s.44041099-.2855439.70297929-.2828783c.27320587.0024903.5337477.1155594.72217336.3134063.18842567.197847.28865847.4635913.27782664.7365937" fill="#fdc607"/><path d="m63.99 29c-.4000752-.0056201-.7582884-.2491743-.910632-.6191515-.1523435-.3699773-.0694877-.7951482.210632-1.0808485.1877666-.1893127.4433625-.2957983.71-.2957983s.5222334.1064856.71.2957983c.19.2.3.46.29.73-.0025646.2634554-.1111019.5147814-.3011267.6972804-.1900248.1824991-.4455293.2807974-.7088733.2727196" fill="#ff713f"/><path d="m32.6 2.13c.0119774.02408243.0253329.04745452.04.07l.2.1.11.4c.14.43-.03.9-.41 1.15-.4.24-.9.18-1.24-.14-.331879-.32340525-.3980964-.8324516-.16-1.23.23-.4.7-.57 1.14-.43l.32.1" fill="#48d8f9"/><path d="m37 19c0 .53-.43.98-.97 1-.56-.01-1-.45-1.03-1-.001424-.3586848.1893658-.690659.5-.87.3094011-.1786328.6905989-.1786328 1 0 .3.18.5.5.5.86" fill="#47d8f9"/><path d="m48.99 54.93c-.42.11-.89.09-1.28-.07-.41-.14-.68-.44-.71-.76.35-.12.76-.13 1.13-.03.36.1.64.31.77.57.05.08.07.17.1.25l-.02.04" fill="#148d03"/><path d="m38.96 14.03c.03.28.04.56.04.84-.05.41-.22.8-.49 1.13h-.04l-.2-.21c-.2313397-.2708361-.3157567-.6376181-.2260903-.9823356.0896664-.3447176.3421033-.6238786.6760903-.7476644.06-.03.13-.04.2-.06l.04.02" fill="#465f3d"/><path d="m41.98 57.9c-.3064071.0995056-.6323173.1235201-.95.07-.52-.1-.92-.41-1.03-.8.0123889-.0151116.0224963-.0319573.03-.05.28-.11.6-.15.9-.1.56.09.98.42 1.07.84z" fill="#148d03"/><path d="m50 12.06c-.01.53-.23.94-.5.94-.28-.02-.5-.47-.5-1.02 0-.26.05-.51.15-.7.1-.18.23-.28.36-.28.28.04.49.5.48 1.04" fill="#ff7241"/><path d="m8 30.02c0 .54-.22.97-.5.98-.13 0-.27-.12-.36-.32-.1-.2-.15-.46-.14-.74.01-.53.24-.95.5-.94.28.03.5.48.5 1.02m33-5.99c0 .26-.05.5-.14.69-.1.18-.23.28-.36.28-.28-.03-.5-.47-.5-1 0-.35.09-.69.25-.87s.36-.17.52.02c.15.18.24.53.23.88m-13 3.01c0 .51-.22.94-.49.96-.28-.01-.5-.44-.5-.98-.02-.35.07-.7.23-.88.16-.19.36-.19.52 0s.25.53.24.88" fill="#fdc607"/><path d="m63.5 53c-.13 0-.26-.1-.35-.3-.1-.19-.15-.44-.15-.7 0-.54.21-.98.48-1 .14 0 .27.11.37.3.1.2.15.46.15.74 0 .53-.23.95-.5.94" fill="#ff703e"/><path d="m39 53c0 .54-.21.98-.48 1-.14 0-.27-.1-.37-.3s-.15-.46-.15-.73c0-.53.22-.96.5-.97.28.02.5.46.5 1m-14.5 4c.1304638-.0007837.2560667.0494574.35.14.1.1.15.23.15.36s-.05.26-.14.35c-.0947491.0966681-.2246431.1507906-.36.15-.1351336-.000331-.2646117-.0542803-.36-.15-.0930056-.0964019-.1434404-.2260913-.14-.36 0-.13.05-.25.14-.35.09-.09.21-.14.34-.14" fill="#fdc505"/><path d="m2 51.53c.00011612.1281956-.05213751.2508758-.14465397.3396161s-.21726647.1358391-.34534603.1303839c-.20575497.0037471-.39279143-.1189536-.47129429-.3091809-.07850285-.1902274-.03243666-.4091246.11607753-.551577.1485142-.1424524.36914007-.1793618.55593285-.0930044s.30159714.2783419.28928391.4837623" fill="#ff7241"/><path d="m12.48 53c.28 0 .51.43.52.97.01.35-.07.69-.23.88-.16.2-.36.2-.52.02s-.26-.5-.25-.86c0-.26.04-.51.13-.7s.22-.3.35-.31m30.04-23c-.14 0-.27-.1-.37-.28s-.15-.43-.15-.69c-.01-.36.08-.71.25-.9.16-.18.36-.17.52.03s.25.55.23.91c0 .52-.22.93-.48.93" fill="#fdc505"/><path d="m5.5 61c-.27614237 0-.5-.2238576-.5-.5s.22385763-.5.5-.5c.28 0 .5.24.5.51.00556197.1298351-.0428815.2561784-.1338208.3490123-.0909393.0928338-.21625705.1438718-.3461792.1409877" fill="#ff7241"/><path d="m20 59.5c0-.13.04-.26.13-.35.1-.1.22-.15.35-.15.3 0 .52.24.52.53-.0205869.2621349-.2370939.4656514-.5.47-.2761424 0-.5-.2238576-.5-.5" fill="#ff713f"/><path d="m24.51 63c-.1377239.0086896-.2725254-.0423163-.37-.14-.0960991-.0943932-.1470782-.2254823-.14-.36 0-.13.04-.26.13-.35.1990237-.1983362.5209763-.1983362.72 0 .1.1.15.23.15.36s-.05.25-.15.34c-.0902581.089946-.2125766.1403125-.34.14" fill="#fdc505"/><path d="m26 55.03c0 .26-.05.5-.14.68-.09.19-.21.29-.34.29-.28 0-.51-.43-.52-.97-.01-.36.08-.7.24-.89s.36-.19.52 0 .25.53.24.9" fill="#ff7241"/><path d="m46 17.5c.17 0 .13-.09.17-.14.08-.18.35-.31.7-.35.34-.04.7.03.9.18.28.18.3.43.06.62l-.2.17-.13.01c-.86.05-1.2-.06-1.5-.5" fill="#fd5701"/><path d="m46.99 20.51c.0000274.1317074-.0529679.2578806-.147035.3500663-.0940671.0921858-.221285.1426216-.352965.1399337-.2715936-.0156529-.4852191-.2379977-.49-.51.0055229-.2761424.2338576-.4955228.51-.49.2761424.0055229.4955228.2338576.49.51m-7.51 5.49c-.2722294-.0054457-.4900545-.2277162-.49-.5 0-.27.22-.48.49-.5.28.01.5.24.51.52-.0108387.2722237-.2376195.4856645-.51.48m19.51-5.5c0-.13.05-.26.14-.35.0923152-.0942071.2181154-.1481215.35-.15.28 0 .5.23.5.5.02.13-.04.26-.13.36-.0988424.0955478-.2326648.1461833-.37.14-.2722294-.0054457-.4900545-.2277162-.49-.5" fill="#48d8f9"/><path d="m43.48 69.02c.28 0 .5.22.52.49-.0054457.2722294-.2277162.4900545-.5000002.49-.2761422 0-.4999998-.2238576-.5-.5-.0002147-.2685168.2116982-.4892594.4800002-.5" fill="#fdc607"/><path d="m49 29.52c-.0109397.2732709-.2394075.4870468-.5128019.4798255-.2733945-.0072213-.4902585-.2327598-.486757-.5062272.0035016-.2734674.2260692-.4933794.4995589-.4935983.28.01.5.25.5.52" fill="#47d8f9"/><path d="m34.5 70c-.1353569.0007906-.2652509-.0533319-.36-.15-.0939909-.0957685-.1445948-.2258926-.14-.36 0-.13.05-.26.14-.35.1-.1.23-.15.36-.14.1353569-.0007906.2652509.0533319.36.15.1.1.14.23.14.36s-.05.26-.14.35c-.1.1-.23.14-.36.14" fill="#ff7241"/><path d="m44 15.5c.1607992.1577664.1962421.4035798.0865615.6003456s-.3373974.2958896-.5561484.2420882c-.2187511-.0538014-.3745125-.247241-.3804131-.4724338-.0976584-.0940756-.1519661-.2244142-.15-.36 0-.27.2-.5.48-.51.1373352-.0061833.2711576.0444522.37.14.1.1.15.22.15.35" fill="#fdc607"/><path d="m41.5 68c-.1353569.0007906-.2652509-.0533319-.36-.15-.095021-.0951-.1458059-.2256896-.14-.36 0-.13.05-.26.14-.35.1-.1.23-.14.36-.14.1353569-.0007906.2652509.0533319.36.15.1.1.15.23.14.36 0 .13-.05.26-.14.35-.1.1-.23.14-.36.14" fill="#ff7241"/><path d="m20 28.52c.0030751.1317555-.0493094.2587489-.1443821.3500187-.0950726.0912697-.2240975.1384294-.3556179.1299813-.2761424 0-.5-.2238576-.5-.5s.2238576-.5.5-.5c.1379852-.0062476.271974.0472503.3677108.1468166.0957367.0995662.1439411.2355491.1322892.3731834m-16.5 17.48c-.27614237 0-.5-.2238576-.5-.5s.22385763-.5.5-.5.5.2238576.5.5-.22385763.5-.5.5" fill="#48d8f9"/><path d="m16.5 53c-.1353569.0007906-.2652509-.0533319-.36-.15-.0939909-.0957685-.1445948-.2258926-.14-.36.0050838-.2646356.2155255-.4794614.48-.49.1373352-.0061833.2711576.0444522.37.14.1.1.15.22.15.35 0 .2761424-.2238576.5-.5.5" fill="#fdc607"/><path d="m24.52 14c-.2038533.0081606-.3922187-.1083507-.4759497-.2943933-.0837311-.1860427-.0460317-.4042975.0952562-.5514725.1412879-.1471749.357823-.1937475.5471268-.1176766.1893039.0760709.3134034.2595259.3135667.4635424.005452.1307325-.0427021.2580247-.1333172.3524155-.0906152.0943907-.2158367.1476981-.3466828.1475845" fill="#48d8f9"/><path d="m40.5 70c-.1341074.0045948-.2642315-.0460091-.36-.14-.0960991-.0943932-.1470782-.2254823-.14-.36 0-.28.23-.5.5-.5.29.01.5.24.5.52 0 .13-.05.25-.14.34-.1.1-.22.14-.35.14" fill="#47d8f9"/><path d="m16.9 66.2.1.39c-.0372222.1575828-.1208187.3003933-.24.41h-.04c-.1369534-.1615007-.372713-.195793-.55-.08h-.04c-.06-.12-.1-.24-.13-.36-.02-.2.07-.4.24-.48.17-.11.38-.1.54.01l.15.11" fill="#fcc504"/><path d="m30.5 11c.1342807-.005722.2648095.0451166.3598464.1401536.095037.0950369.1458756.2255657.1401536.3598464 0 .2761424-.2238576.5-.5.5-.2697381-.0148812-.4851188-.2302619-.5-.5-.0055564-.1324876.0439429-.2613714.1367563-.3560789.0928133-.0947075.2206709-.1468001.3532437-.1439211" fill="#47d8f9"/><path d="m54.99 62.1c-.03.88-.37 1.64-.86 1.9-.0158992-.0060212-.0297678-.0164227-.04-.03-.0347645-.1619078-.0614641-.3254427-.08-.49-.04-.4.03-.81.2-1.1.16-.3.4-.43.63-.37l.14.05.02.04" fill="#465f3d"/><path d="m41.5 62c-.2761424 0-.5-.2238576-.5-.5 0-.13.05-.26.14-.35.1-.1.22-.15.35-.15.28 0 .5.22.51.49 0 .2761424-.2238576.5-.5.5" fill="#ff7241"/><path d="m31 9.48c0-.13.05-.25.15-.34.0939333-.09054257.2195362-.14078374.35-.14000903.28.01000903.5.24000903.5.51000903-.0054457.27222935-.2277162.4900545-.5.48999097-.2722838.00006353-.4945543-.21776162-.5-.48999097m-8 17c.0002539.1353249-.0554684.2647297-.1539566.3575359-.0984881.0928061-.2309722.1407496-.3660434.1324641-.2714602-.0209424-.4808066-.2477343-.48-.52.0024746-.1335802.0593866-.2603577.1575587-.3509781.098172-.0906203.2290902-.1372246.3624413-.1290219.132645.0051995.2577778.0629334.3478174.1604763.0900395.0975428.1375943.2268872.1321826.3595237" fill="#fdc607"/><path d="m16.23 67.01h.04c.15.17.38.2.57.08h.04c.08.12.13.27.12.41.0000545.2722838-.2177706.4945543-.49.5-.2610563-.0088505-.475034-.2099895-.5-.47-.03-.2.05-.4.21-.53" fill="#46d7f7"/><path d="m42.99 7.49c.0026872.13433231-.0488025.26409347-.1428636.36003572-.094061.09594224-.2227772.14999115-.3571364.14996428-.2642239-.01485073-.4751493-.22577613-.49-.49 0-.13.04-.26.13-.35.0906475-.09789321.2166592-.15549855.35-.16.28 0 .5.22.52.5" fill="#fdc607"/><path d="m46.47 24.97h-.05c-.04-.5-.2-.93-.42-1.2.03-.28.12-.52.24-.65.13-.14.29-.16.42-.05.14.1.25.31.3.58.06.27.05.57-.02.83-.08.34-.27.55-.47.52" fill="#fdc505"/><path d="m55.48 31c.28 0 .5.21.52.48.0054117.1326365-.0421431.2619809-.1321826.3595237-.0900396.0975429-.2151724.1552768-.3478174.1604763-.2722657.0008066-.4990576-.2085398-.52-.48-.0082027-.1333511.0384016-.2642693.1290219-.3624413.0906204-.0981721.2173979-.1550841.3509781-.1575587" fill="#ff713f"/><path d="m23 71.48c0-.13.05-.25.14-.34.0902581-.089946.2125766-.1403125.34-.14.13 0 .27.05.36.14.1.09.16.21.16.35.0090025.180105-.0837002.3500599-.24.44-.1572214.0932171-.3527786.0932171-.51 0-.1562998-.0899401-.2490025-.259895-.24-.44" fill="#ff7241"/><path d="m46.87 69.15.1.2c.04.11.04.25-.01.37-.0588419.1251087-.1677981.2195374-.3.26-.2644772.0803977-.5456318-.0601796-.64-.32-.04108-.1266159-.0265435-.2647129.04-.38.0640482-.1167595.1720289-.2031441.3-.24l.3-.04.06.05zm-22.870009-49.65c-.0007747-.1304638.0494664-.2560667.140009-.35.1-.1.22-.15.35-.15.29.01.51.25.51.54-.0211406.2643042-.2449229.4661471-.51.46-.2722294-.0054457-.4900545-.2277162-.490009-.5m17.500009-9.5c-.1290761.0034854-.2544959-.04309917-.35-.13-.193376-.1916878-.1978214-.50286653-.01-.7.1-.11.23-.17.36-.17.27.02.49.23.5.5.0055564.13248759-.0439429.26137135-.1367563.35607887-.0928133.09470751-.2206709.14680013-.3532437.14392113" fill="#48d8f9"/><path d="m33.1 78.95v-.05c.13-.25.2-.57.18-.9-.0098643-.2981485-.1072419-.5868036-.28-.83-.0015021-.0199718-.0015021-.0400282 0-.06.12-.05.24-.09.36-.11.18 0 .34.12.46.31.12.2.19.46.18.73 0 .27-.08.52-.2.7-.13.18-.3.27-.47.26-.0789175-.0100798-.1562153-.0302444-.23-.06" fill="#fe703e"/><path d="m7.5 18c.27614237 0 .5.2238576.5.5s-.22385763.5-.5.5c-.27390845-.0053201-.49467989-.2260915-.5-.5 0-.2761424.22385763-.5.5-.5" fill="#fdc607"/><path d="m58.5 58c.2761424 0 .5.2238576.5.5.0026794.1299638-.0463929.2556664-.1364161.3494405-.0900232.0937742-.213619.1479342-.3435839.1505595-.1387368.0027481-.2726035-.0511546-.3707245-.1492755-.0981209-.098121-.1520236-.2319877-.1492755-.3707245 0-.27.22-.48.5-.48" fill="#fcc504"/><path d="m27 73.79c-.2997458.1814097-.6535386.2521683-1 .2-.3308232-.0403798-.6325161-.2091841-.84-.47l-.16-.25.02-.07c.32-.18.73-.25 1.11-.16.46.08.8.38.87.75" fill="#178e05"/><path d="m26.54 66.98c-.4564357-.4666578-.6381362-1.1366787-.48-1.77 0-.06.03-.14.04-.21h.06c.17.1.33.21.48.33.52.44.47 1.34-.1 1.67" fill="#465f3d"/><path d="m56 19.47.1-.28c.06-.04.12-.1.19-.13.1125762-.0636743.2464165-.0781435.37-.04.12.04.22.13.28.25.13.24.04.54-.2.67-.1125762.0636743-.2464165.0781435-.37.04-.125293-.0441827-.2266701-.1383186-.28-.26-.0339125-.0784777-.0639488-.1585743-.09-.24m-.5-4.48c-.1361473.000109-.2664518-.055306-.3608167-.1534455s-.1446292-.2305161-.1391833-.3665545c0-.13.06-.26.16-.35.1501399-.1401557.3707189-.1742378.5561587-.0859332.1854397.0883046.2980145.2810315.2838413.4859332-.0158899.2643619-.2351614.4704771-.5.47" fill="#ff7241"/><path d="m10.33 63.99c-.1577437-.067761-.2756889-.2041352-.32-.37-.06191621-.2469051.0715471-.500916.31-.59.226883-.0807251.4790761.0117457.6.22.1280426.2090065.0856975.4800154-.1.64l-.18.11h-.3m14.62-53.82c.03.1.04.22.04.34-.0219338.2096516-.1617642.3883239-.36.46-.1909506.0536177-.3950077-.0184025-.51-.18-.1308853-.1756046-.1611777-.4065839-.08-.61.0358743-.0681268.0794966-.1318825.13-.19h.03c.07.14.18.25.32.28s.28 0 .4-.1z" fill="#fdc607"/><path d="m10.35 64.01h.3l.19.13c.1009752.0945359.1582764.2266779.1582764.365s-.0573012.2704641-.1582764.365c-.1009026.0932186-.2363019.1398002-.3731993.1283921s-.2627192-.0797581-.3468007-.1883921c-.0860353-.1029518-.12708506-.2361613-.113921-.3696824.013164-.133521.0794372-.2561494.183921-.3403176l.16-.1m-.35-3.5c.005722.1342807-.04511656.2648095-.14015355.3598464-.09503699.095037-.2255657.1458756-.35984645.1401536-.27775234-.0054472-.50005341-.2321943-.5-.51.00253141-.1794425.10103605-.3437654.2581072-.4305679s.3486147-.0827693.5018928.0105679c.15.09.24.26.24.43" fill="#48d8f9"/><path d="m37.95 73.92c-.36.1-.76.1-1.12 0-.45-.15-.76-.45-.83-.8l.04-.04c.27-.08.58-.1.87-.06.47.08.85.32 1 .65l.09.2z" fill="#178e05"/><path d="m34.12 7.84-.04-.02c-.14-.4-.1-.59.15-.82l.14.12c.17.16.38.25.6.24h.03c.0227088.23889373-.0658098.47494339-.24.64h-.05c-.1555271-.14498722-.3721342-.2047409-.58-.16" fill="#fe703e"/><path d="m4.28 24 .28.11c.29.17.46.56.44.97-.02.42-.24.77-.55.86l-.2.06-.08-.06c-.24-.6-.23-1.32.04-1.9z" fill="#465f3d"/><path d="m57 27.45c.04-.26.24-.45.48-.45.27 0 .49.23.52.52 0 .16-.02.31-.05.46l-.05.02c-.3673723-.0388758-.6978171-.2408143-.9-.55" fill="#fd5701"/><path d="m24.8 10h-.03c-.05-.08-.1-.15-.16-.21-.0738333-.07328974-.1764432-.10993616-.28-.1-.1 0-.2.05-.26.14h-.04c-.0527235-.19898467-.0386708-.40977495.04-.6l.05-.03c.18.04.37-.03.5-.19l.04-.01c.0089081.01103538.0189646.02109194.03.03.37.26.4.6.12.97" fill="#ff713f"/><path d="m19 10.5c-.0151987.1606953-.0945028.3084892-.22.41-.1166025.0907169-.2722924.1135008-.41.06-.136741-.0548832-.2451168-.163259-.3-.3-.0660569-.1403193-.083644-.2986028-.05-.45l.06-.2c.0125709-.0141917.0311096-.02160719.05-.02.34.03.67.1.87.5" fill="#fd5701"/><path d="m58 52.26c.1058931-.1520257.2751391-.2476865.46-.26.17 0 .32.1.42.24.1.15.14.34.1.52l-.06.21-.05.03c-.37-.04-.7-.3-.87-.67z" fill="#465f3d"/><path d="m47 67.47.04-.07c.15-.35.36-.47.62-.36.25.12.4.45.32.77l-.03.14-.06.05c-.3360758-.0203161-.6497453-.1753481-.87-.43z" fill="#fd5701"/><path d="m17.95 62c.19.47-.14.84-.9 1l-.05-.02v-.29c.03-.36.44-.66.97-.69" fill="#178e05"/><path d="m45.07 26.97c-.039457-.1334194-.0629544-.2710469-.07-.41.0094599-.2172378.135713-.4123562.33-.51.184605-.0844291.4019343-.0488662.55.09l.12.1v.08c-.18.38-.51.63-.9.68l-.04-.02m-25.51 27.03c.34.1.52.35.43.58-.07.21-.34.38-.69.4h-.22l-.06-.03c-.0093957-.0997793-.0093957-.2002207 0-.3 0-.27.21-.51.55-.66" fill="#465f3d"/><path d="m20 54.07c-.29.14-.46.38-.47.63v.3c-.23-.04-.43-.17-.5-.34-.07-.18-.01-.36.15-.5.1897486-.1392107.4287211-.1935226.66-.15l.15.03v.03" fill="#ff7241"/><path d="m6.99 23.83c-.48.26-1.05.22-1.5-.1-.18-.14-.34-.3-.49-.47v-.07c.7-.4 1.55-.16 2 .56v.06" fill="#178e05"/><path d="m62.9999913 24.4999915c.0000087.1400085-.0599913.2700085-.1499913.3600085-.1441519.141304-.359131.1820691-.5450053.1033459-.1858743-.0787233-.3061804-.2614915-.3050034-.4633544.0000087-.1299915.0400087-.2599915.1400087-.3499915.0947491-.0966681.2246431-.1507906.3599913-.1500085.1353656-.0007821.2652596.0533404.3600087.1500085.1.1.15.23.14.36" fill="#fdc607"/><path d="m45 26.71c.39-.05.72-.31.9-.71.09.14.12.32.09.48-.0244337.1623971-.1103597.3091873-.24.41-.1108161.0931594-.2583814.1300507-.4.1-.1523336-.0369809-.280482-.1394996-.35-.28" fill="#46d7f7"/><path d="m65 39.49c.0102855.2109469-.1130808.4056071-.3082308.4863589-.1951501.0807517-.4199925.0301779-.5617692-.1263589-.0919115-.1004839-.138861-.2341096-.13-.37-.0027564-.1281291.0469292-.251827.1375511-.3424489s.2143198-.1403075.3424489-.1375511c.1358385-.0114.2701174.0354941.3693267.1289798s.1539907.2247445.1506733.3610202" fill="#fdc607"/><path d="m58.08 53c.18.42.52.7.92.74-.18.28-.5.34-.74.15-.26-.19-.34-.58-.18-.89" fill="#46d7f7"/><path d="m5 24c-.4.3-.43.69-.06 1-.55-.03-.96-.24-.94-.5-.02-.26.43-.48 1-.5" fill="#ff7241"/><path d="m57.07 27c.22.4.56.66.93.7-.16.3-.45.39-.69.21-.24-.17-.37-.55-.29-.91z" fill="#fdc607"/><path d="m17 12.9c.65-.24 1.43-.19 2 .15v.05c-.65.24-1.41.18-2-.14v-.05" fill="#178e05"/><path d="m47 68c.27.4.63.63 1 .65-.16.32-.43.44-.67.28l-.17-.18-.07-.1z" fill="#fdc607"/><path d="m18.96 11c-.22-.54-.58-.63-.96-.67.12-.29.37-.4.59-.28.2.08.37.34.39.66 0 .1 0 .18.02.28h-.03" fill="#ff7241"/><path d="m36 7c-.3.03-.58-.16-.8-.51l-.2-.27v-.1c.34-.28.74-.06.93.52.03.11.05.23.06.36m9.07 17c.5.23.83.59.94 1-.44 0-.81-.23-.9-.55-.05-.15-.08-.3-.1-.44l.02-.01h.03" fill="#fd5701"/><path d="m34 7.86c.35-.06.72.02 1 .2-.34.18-.78.1-1-.2" fill="#465f3d"/><path d="m35 25c-.06.5-.46.9-1 1 .06-.5.46-.9 1-1m20-5.05c-.4.19-.8-.18-1-.9.4-.19.8.18 1 .9" fill="#178e05"/><path d="m6.47 63.6c-.35700827-.0592945-.61875644-.3681012-.61875644-.73s.26174817-.6707055.61875644-.73c.4.01.71.34.7.74.01760356.1931811-.04938281.3845097-.18364127.5245221-.13425847.1400124-.32260936.214964-.51635873.2054779m22.39-52.87c.84.16 1.38 1.46.64 2.23-.4526442-.1309035-.8062544-.4852333-.9362373-.9381426-.129983-.4529094-.0180963-.9408348.2962373-1.2918574m-27.86-10.64c-.17707988.19422641-.44099815.28471267-.7.24.14793145-.23457057.43925991-.33445462.7-.24m7.58 67.19c.4132902.3580925.46229223.9817546.11 1.4-.26704151-.1196865-.44742451-.3756284-.47034672-.6673656s.11527461-.5727104.36034672-.7326344" fill="#465f3d" transform="translate(24 9)"/><path d="m17 67.06c-.3271019.1649251-.721205.1176327-1-.12.3266062-.1677181.7223474-.1202292 1 .12" fill="#178e05"/><path d="m46.96 67.96.08.08z" fill="#fff"/><path d="m24 10.34c.1-.2.23-.32.37-.34.15-.02.29.07.4.25.08.15.16.31.23.49-.16.22-.36.3-.55.23-.2-.07-.36-.3-.45-.63" fill="#fd5701"/><path d="m24.5 29c-.1353569.0007906-.2652509-.0533319-.36-.15-.0930056-.0964019-.1434404-.2260913-.14-.36 0-.13.05-.26.14-.35.1-.1.23-.15.36-.14.28 0 .5.24.5.51-.0107406.268302-.2314832.4802149-.5.48" fill="#ff713f"/><path d="m54 28.49c.0026872.1343323-.0488025.2640935-.1428636.3600357-.094061.0959423-.2227772.1499912-.3571364.1499643-.1361473.000109-.2664518-.055306-.3608167-.1534455s-.1446292-.2305161-.1391833-.3665545c-.0027564-.1281291.0469292-.251827.1375511-.3424489s.2143198-.1403075.3424489-.1375511c.1358385-.0114.2701174.0354941.3693267.1289798s.1539907.2247445.1506733.3610202m-10 25.01c-.0035727.1786328-.1021734.3417903-.2586603.4280127-.1564868.0862224-.3470857.0824104-.5-.01-.1529142-.0924104-.2449124-.2593799-.2413397-.4380127-.0027564-.1281291.0469292-.251827.1375511-.3424489s.2143198-.1403075.3424489-.1375511c.1376343-.0116519.2736172.0365525.3731834.1322892.0995663.0957368.1530642.2297256.1468166.3677108m15-5c0 .2761424-.2238576.5-.5.5-.1361473.000109-.2664518-.055306-.3608167-.1534455s-.1446292-.2305161-.1391833-.3665545c-.0027564-.1281291.0469292-.251827.1375511-.3424489s.2143198-.1403075.3424489-.1375511c.1376343-.0116519.2736172.0365525.3731834.1322892.0995663.0957368.1530642.2297256.1468166.3677108" fill="#48d8f9"/><path d="m19 46.53c0 .81-.67 1.47-1.5 1.47-.84-.03-1.5-.7-1.5-1.53 0-.81.67-1.47 1.5-1.47.4 0 .8.17 1.08.46.28.3.43.68.42 1.08" fill="#ff703e"/><path d="m29 49.04c0 .52-.22.95-.49.96-.28-.01-.5-.44-.5-.98-.02-.35.07-.7.23-.88.16-.19.36-.19.52 0s.25.53.24.88" fill="#fdc607"/><path d="m20.98 50.52c0 .13-.05.26-.14.35-.1.09-.22.14-.35.13-.1321181-.0007694-.2583269-.0548589-.35-.15-.0955478-.0988424-.1461833-.2326648-.14-.37.0045014-.1333408.0621068-.2593525.16-.35.1-.09.22-.13.35-.13s.27.05.36.15c.1.1.14.23.13.37" fill="#48d8f9"/><path d="m24 48.52c.0004681.1345473-.0555562.2631141-.1544226.3543755-.0988665.0912613-.2314973.1368377-.3655774.1256245-.2714602-.0209424-.4808066-.2477343-.48-.52.0024746-.1335802.0593866-.2603577.1575587-.3509781.098172-.0906203.2290902-.1372246.3624413-.1290219.2722735.0161272.4813872.2474871.47.52" fill="#fdc607"/><path d="m24.5 51c-.1353569.0007906-.2652509-.0533319-.36-.15-.0930056-.0964019-.1434404-.2260913-.14-.36 0-.13.05-.26.14-.35.1-.1.23-.15.37-.14.28.01.5.24.49.52-.0158899.2643619-.2351614.4704771-.5.47" fill="#ff713f"/><path d="m52.02 52.26c.1282821-.8121819.8865092-1.3697019 1.7-1.25.82.15 1.38.9 1.27 1.72-.0920413.6023338-.5393067 1.0891388-1.1317074 1.2317538s-1.2122102-.0873016-1.5682926-.5817538c-.2386415-.3210453-.3361393-.7254807-.27-1.12" fill="#ff703e"/><path d="m43 48.84c.04-.53.3-.9.56-.83.28.09.47.58.44 1.12-.02.36-.14.66-.31.8-.17.13-.37.08-.5-.15-.15-.23-.22-.59-.18-.94" fill="#fdc607"/><path d="m51.01 48.41c.0164881-.1315995.08781-.2501071.1963738-.3262923.1085639-.0761851.2442629-.1029554.3736262-.0737077.1315642.0219828.2488907.0956236.3258871.2045453s.1072789.2440937.0841129.3754547c-.0506694.2654706-.3031203.4426291-.57.4-.1323832-.0190584-.2508113-.0924869-.3267445-.20259-.0759331-.1101031-.1024845-.2468949-.0732555-.37741" fill="#48d8f9"/><path d="m48 50.41c.03-.13.1-.24.21-.32.1107149-.0767749.2477283-.1056199.38-.08.27.05.45.3.4.58-.0212731.1290894-.0932865.2443108-.2.32-.1662084.1173973-.3869832.1223565-.5582955.012541-.1713123-.1098156-.2589841-.312497-.2217045-.512541" fill="#fdc607"/><path d="m47.57 46.01c.13.04.25.18.33.4.08.2.11.48.1.74-.02.26-.09.5-.2.66-.1.16-.25.22-.38.17-.27-.1-.46-.61-.41-1.15.04-.53.3-.9.56-.82" fill="#ff713f"/><path d="m34.52 51c-.6250481.010166-1.190868-.3683755-1.42-.95-.222745-.5891083-.0643233-1.2544794.4-1.68.4677176-.4152092 1.1489566-.4837362 1.69-.17.01.14.04.28.07.42.07.31.34.54.66.54h.08c.03.3-.01.61-.13.9l-.18-.15c-.227238-.1784389-.5330348-.2204859-.8-.11-.2646051.1133413-.4452764.3632059-.47.65.0092498.1803715.0428889.3586589.1.53" fill="#fe703e"/><path d="m35.47 48.96h-.04c-.05-.5-.2-.92-.43-1.18.02-.28.11-.53.24-.66.13-.14.29-.16.42-.05.14.1.25.32.3.58.06.27.05.57-.02.83-.08.34-.27.55-.47.52" fill="#fdc505"/><path d="m34.07 49.98c-.0398681-.1367374-.0633658-.2777236-.07-.42.0074792-.215088.1295855-.4096949.32-.51.18-.09.4-.06.55.09l.11.1c.04.04 0 .05 0 .08-.17.38-.5.63-.87.68l-.05-.02" fill="#465f3d"/><path d="m34 50.71c.39-.05.72-.31.9-.71.09.14.12.32.09.48-.0268296.1587783-.1125272.3016076-.24.4-.1108161.0931594-.2583814.1300507-.4.1-.1504217-.0347305-.2782242-.133321-.35-.27" fill="#46d7f7"/><path d="m35.05 48c.5.22.84.58.95 1-.44 0-.81-.24-.9-.56-.0464735-.1399566-.0799484-.2838988-.1-.43h.05" fill="#fd5701"/><path d="m47.57 32.35c.65-.44 1.26-.47 1.8-.08.62.44.81 1.27.44 1.93-.36.69-1.2.98-1.91.68-.6896687-.2902281-1.0512832-1.0522015-.84-1.77l.11-.3z" fill="#ff703d"/><path d="m47 32.67-.26.28c-.1510007.0542398-.3149374.0612158-.47.02-.0026411-.0102176-.0059823-.0202413-.01-.03.0570632-.2033008-.0456854-.4173606-.24-.5-.0058714-.0105079-.0125586-.0205388-.02-.03l.2-.29c.1403897-.1324256.3495894-.1605871.52-.07.18.08.29.26.28.45v.18" fill="#fcc504"/><path d="m45.72 33.03.02.03c-.06.2.05.42.24.5l.02.04c-.0410428.1309784-.1257528.243925-.24.32-.2202935.1416491-.5125635.0893022-.67-.12-.1446404-.2084352-.1102498-.4921576.08-.66.1504363-.1324533.3601921-.1744044.55-.11" fill="#46d7f7"/><path d="m46.18 33c-.28-.17-.43-.6-.36-1 .28.17.43.6.36 1" fill="#178e05"/><path d="m61.38 33.49c.4400835-.4866879 1.1454172-.6308542 1.7411788-.3558873.5957615.2749669.9436612.9052409.8588212 1.5558873-.0830077.6511445-.579752 1.1726813-1.2260852 1.2872794-.6463333.1145981-1.2921024-.2043655-1.5939148-.7872794-.0686174-.1682566-.1221609-.3422731-.16-.52.0747163-.0223609.1455456-.0560891.21-.1.34-.27.4-.75.17-1.1" fill="#fdc503"/><path d="m59.9 34.16c-.2.35-.52.6-.9.75-.7517504.2151559-1.5426765-.1832655-1.8172318-.9154131-.2745554-.7321475.0593721-1.5523891.7672318-1.8845869.3980295-.1625113.8458712-.1512391 1.235221.0310906.3893498.1823296.6847561.519115.814779.9289094v.07c-.2768612.2344957-.3167584.6467669-.09.93v.1z" fill="#45d7f8"/><path d="m60.07 34.17v-.04c.4-.19.62-.17.93.05-.04.05-.08.1-.1.15-.1502695.1687325-.2098541.3996227-.16.62v.03c-.2581809.0515068-.5261591-.0064344-.74-.16v-.05c.1296522-.1728121.1563888-.4019831.07-.6" fill="#fe703e"/><path d="m61.04 34.98c-.11-.27.01-.55.35-.78l.24-.2h.1c.45.3.32.7-.3.92l-.39.08" fill="#fd5701"/><path d="m60.08 33c.1.33.07.7-.08 1-.2116051-.3107256-.1783137-.7268679.08-1" fill="#465f3d"/><path d="m66 34.49c0 .2761424-.2238576.5-.5.5s-.5-.2238576-.5-.5c-.0057313-.1316295.0440506-.2596208.1372149-.3527851s.2211556-.1429462.3527851-.1372149c.134174-.0084374.2657368.0397806.3626814.1329235.0969445.0931428.1503844.2226725.1473186.3570765" fill="#ff703e"/><path d="m11 49c-.270447.0057485-.5312421-.1005462-.7206171-.2937087s-.29048513-.4560111-.2793829-.7262913c-.00842598-.2624046.0921155-.5165971.2777592-.7022408s.4398362-.2861852.7022408-.2777592c.2713396-.0027001.5323523.1038966.7242279.2957721.1918755.1918756.2984722.4528883.2957721.7242279 0 .54-.44.98-.98.98" fill="#fdc505"/><path d="m2.98 42.52c0 .13-.05.26-.14.35-.1.09-.22.14-.35.13-.13211809-.0007694-.25832691-.0548589-.35-.15-.09554776-.0988424-.14618325-.2326648-.14-.37.00450145-.1333408.06210679-.2593525.16-.35.1-.09.22-.13.35-.13s.27.05.36.15c.1.1.14.23.13.37" fill="#48d8f9"/><path d="m20.5 33c-.1353569.0007906-.2652509-.0533319-.36-.15-.0905426-.0939333-.1407837-.2195362-.14-.35 0-.14.05-.27.14-.36.1-.1.23-.15.36-.14.28.01.5.24.5.52-.0158899.2643619-.2351614.4704771-.5.47" fill="#ff713f"/><path d="m4 29.53c0 .81-.67 1.47-1.5 1.47-.84-.03-1.5-.7-1.5-1.53 0-.81.67-1.47 1.5-1.47.4 0 .8.17 1.08.46.28.3.43.68.42 1.08m-1 26.99c0 .81-.67 1.47-1.5 1.47-.84-.03-1.5-.7-1.5-1.53.0064551-.609312.38326987-1.1532907.95143096-1.3735081.56816108-.2202175 1.21315678-.0722894 1.62856904.3735081.28.28.43.67.42 1.07" fill="#ff703e"/><path d="m43.52 41c-.6258931.0030055-1.1887598-.3804306-1.4150795-.9639806-.2263198-.5835499-.0691717-1.2462313.3950795-1.6660194.4682147-.4230135 1.1572919-.4919212 1.7-.17 0 .14.03.29.07.43.06.3.33.53.65.53h.07c.03.3-.02.61-.14.9l-.17-.15c-.227238-.1784389-.5330348-.2204859-.8-.11-.2646051.1133413-.4452764.3632059-.47.65 0 .18.04.36.1.53" fill="#fe703e"/><path d="m48 38.51c0 .13-.05.26-.14.35-.1.1-.23.14-.36.14-.1353569.0007906-.2652509-.0533319-.36-.15-.0939909-.0957685-.1445948-.2258926-.14-.36 0-.13.05-.26.14-.35.0964019-.0930056.2260913-.1434404.36-.14.1353569-.0007906.2652509.0533319.36.15.1.1.15.23.14.36" fill="#ff703e"/><path d="m41.06 44c-.3675802.026917-.7191803-.1546786-.91-.47-.2-.32-.2-.72-.01-1.04.1839047-.3196653.5316997-.5090204.9-.49.26 0 .51.11.7.3.17.2.27.45.26.72 0 .25-.08.5-.26.69-.1737783.1849354-.4162285.2898765-.67.29" fill="#fdc505"/><path d="m48 42.52c-.0109397.2732709-.2394075.4870468-.5128019.4798255-.2733945-.0072213-.4902585-.2327598-.486757-.5062272.0035016-.2734674.2260692-.4933794.4995589-.4935983.28.01.5.24.5.52" fill="#47d8f9"/><path d="m44.47 38.96h-.04c-.0294269-.419837-.1786614-.8224234-.43-1.16.02-.29.11-.53.24-.67s.29-.16.43-.05c.14.1.25.32.3.59s.04.57-.03.82c-.08.35-.27.55-.47.52" fill="#fdc505"/><path d="m43.07 40.98c-.0419408-.1362562-.0654825-.2775066-.07-.42.0094599-.2172378.135713-.4123562.33-.51.184605-.0844291.4019343-.0488662.55.09l.12.1v.07c-.18.39-.51.64-.9.69l-.04-.02" fill="#465f3d"/><path d="m43 40.71c.39-.05.73-.31.9-.71.09.14.12.32.09.48-.0244337.1623971-.1103597.3091873-.24.41-.1108161.0931594-.2583814.1300507-.4.1-.1523336-.0369809-.280482-.1394996-.35-.28" fill="#46d7f7"/><path d="m44.05 38c.5.22.84.58.95 1-.44 0-.81-.24-.9-.55-.0497457-.1458759-.083281-.2967849-.1-.45l.02-.01h.03" fill="#fd5701"/><path d="m11.01 35.68c.2-.88.83-1.53 1.59-1.65 1.08-.2 2.1.64 2.35 1.92.24 1.27-.38 2.56-1.42 2.94-.7.26-1.45.04-1.97-.56l-.25-.3v-.06c.47-.38.51-1.4.09-1.92-.1235279-.1366037-.2572452-.2636351-.4-.38" fill="#45d7f8"/><path d="m1 37.6c0-.77.33-1.29.96-1.51.73-.26 1.53.06 1.88.74.34719259.6868742.11820266 1.5250637-.53 1.94-.65.4-1.5.26-1.97-.32l-.19-.25-.15-.59" fill="#ff703d"/><path d="m14.5 43c.4 0 .8.16 1.08.45.28.3.43.68.42 1.08 0 .39-.15.76-.42 1.04-.28.27-.66.43-1.05.43-.4 0-.8-.16-1.09-.45-.2838465-.2834802-.4423147-.668846-.44-1.07-.01-.4.15-.78.43-1.06.29-.28.68-.43 1.08-.42m.3 1.68c.2.01.4-.07.54-.2.1425379-.1456072.2122687-.3474596.19-.55 0-.4-.32-.74-.74-.75-.415826.0054719-.750036.344138-.75.76 0 .41.35.75.77.74" fill="#fe703e"/><path d="m11 37.62c-.002005.0199497-.002005.0400503 0 .06-.23.2-.5.32-.8.32-.55-.01-1.03-.49-1.17-1.15-.13-.67.13-1.36.62-1.68.28581824-.2046823.6646512-.2242097.97-.05 0 .09-.03.18-.04.27-.14.78.01 1.6.42 2.23" fill="#fe703e"/><path d="m5.03 37.49c-.14-.56.2-1.13.8-1.37.64-.24 1.38-.1 1.82.34s.47 1.07.07 1.54l-.1-.2c-.18-.4-.6-.69-1.1-.77s-1 .05-1.35.36l-.12.1" fill="#fcc504"/><path d="m5.05 37.64.13-.13c.38481002-.4042997.94882775-.5851299 1.49698281-.4799489.54815505.1051811 1.00518315.4819315 1.21301719.9999489l.11.27-.02.08-.1.1c-.38381539.4059665-.94520975.5931158-1.49584736.4986634-.55063762-.0944525-1.01757047-.4579937-1.24415264-.9686634l-.12-.26c-.04-.09 0-.08 0-.11" fill="#148d03"/><path d="m4.26 38 .12.22c.2.4.62.7 1.13.78.5.07 1.02-.08 1.37-.4l.1-.09c.14.67-.36 1.32-1.14 1.46-.76.15-1.53-.24-1.75-.89-.16256252-.3618526-.0958639-.7855849.17-1.08" fill="#46d7f7"/><path d="m10.03 43.35c-.12-.5.1-1 .5-1.23.41-.23.9-.13 1.2.25.32.39.36.95.1 1.38-.05.09-.1.17-.17.25h-.05c-.0406211-.3909003-.3130961-.7186601-.69-.83-.3095949-.0940674-.6458076-.0222916-.89.19" fill="#fcc504"/><path d="m11.94 44.62h.06c.05.38-.06.76-.3 1.04-.235676.3031564-.6437695.4133416-1 .27-.4113585-.1610076-.681488-.5582568-.68-1-.05-.35.07-.7.32-.93l.13.3c.14.28.4.49.68.55.2963057.0631104.6044815-.0270873.82-.24" fill="#46d7f7"/><path d="m14.02 33c-.27 0-.53-.1-.72-.3-.2768897-.2817449-.361971-.7000865-.2171263-1.0676027.1448446-.3675162.4924663-.615322.8871263-.6323973.57 0 1.02.45 1.03 1 0 .27-.1.52-.28.7-.1846305.1884143-.4362307.296243-.7.3" fill="#ff713f"/><path d="m9.5 34c-.1343104.0058059-.26490005-.044979-.36-.14-.09609913-.0943932-.14707824-.2254823-.14-.36 0-.13.04-.26.13-.35.19902369-.1983362.52097631-.1983362.72 0 .1905714.1944218.1905714.5055782 0 .7-.0902581.089946-.21257664.1403125-.34.14" fill="#fdc505"/><path d="m.9 37.2.1.39c-.03888086.1569135-.12221423.2992747-.24.41-.01329983-.0013367-.02670017-.0013367-.04 0-.13695342-.1615007-.37271296-.195793-.55-.08h-.04c-.05-.11-.1-.23-.12-.35-.03196377-.1899661.05522867-.3802042.22-.48.16106304-.1167673.37893696-.1167673.54 0l.14.1" fill="#fcc504"/><path d="m.23 38h.04c.15.17.39.2.57.09h.04c.08.11.13.26.12.4 0 .28-.22.5-.49.51-.26105634-.0088505-.47503399-.2099895-.5-.47-.02375955-.2007635.05518088-.3999941.21-.53" fill="#46d7f7"/><path d="m7 42.5c0-.14.05-.26.14-.36.09-.09.21-.14.34-.14.13390869-.0034404.26359811.0469944.36.14.1.1.16.23.16.36 0 .2761424-.22385763.5-.5.5-.27222935-.0054457-.49005446-.2277162-.49-.5" fill="#ff7241"/><path d="m12 44.78c-.28.18-.65.26-1 .2-.331864-.0371671-.6347095-.2066163-.84-.47l-.16-.25.02-.05c.32-.2.73-.26 1.11-.18.46.1.8.39.87.75" fill="#178e05"/><path d="m11.54 37.98c-.4547065-.4676452-.6361451-1.1367002-.48-1.77 0-.07.02-.14.04-.21h.06c.17.1.33.21.48.33.52.44.47 1.32-.1 1.67m3.98 6c-.1841383.0040373-.3561473-.0915233-.45-.25-.0914318-.154127-.0914318-.345873 0-.5.0920621-.1553554.2594161-.2504429.44-.25.27.01.49.23.49.5.0124032.1333671-.0352492.2653275-.13.36-.1.1-.23.15-.36.14" fill="#465f3d"/><path d="m1 38.06c-.3271019.1649251-.72120504.1176327-1-.12.32660624-.1677181.72234744-.1202292 1 .12" fill="#178e05"/><path d="m61.52 40c-.4 0-.8-.16-1.08-.45-.4252448-.3696731-.6074486-.9464782-.471727-1.493352s.5664722-.9715575 1.1152161-1.0995088c.5487438-.1279513 1.1229065.0624155 1.4865109.4928608.28.3.44.68.43 1.08 0 .8-.66 1.46-1.47 1.46m-5.03 2.01c.4 0 .8.16 1.07.45.29.29.44.68.43 1.08 0 .39-.16.77-.44 1.05-.2867463.2765277-.6717128.427636-1.07.42-.8216265-.0214211-1.4795353-.6881609-1.49-1.51 0-.4.15-.78.43-1.06.2851212-.2801833.670285-.4349688 1.07-.43" fill="#ff703e"/><path d="m60.53 42.9c-.15-.13-.29-.27-.41-.43-.2079775-.3922926-.1323772-.8747429.1856298-1.1846134.318007-.3098704.8022543-.3729435 1.1890258-.1548702s.5834309.6650619.4828795 1.0975403-.4742303.7468631-.9175351.7719433z" fill="#fdc505"/><path d="m60.92 43.01.53.1c.26.16.44.4.52.68.1.39-.05.8-.38 1.03-.3405685.2332121-.7894315.2332121-1.13 0-.3339652-.214908-.5071838-.6085865-.44-1 .0765961-.447306.4475154-.7852547.9-.82" fill="#47d8f9"/><path d="m55 40.5c0-.14.05-.27.14-.36.1-.1.22-.14.35-.14.29.01.51.24.51.52-.0051995.132645-.0629334.2577778-.1604763.3478174-.0975428.0900395-.2268872.1375943-.3595237.1321826-.1333408-.0045014-.2593525-.0621068-.35-.16-.0887909-.0943422-.1356756-.2205702-.13-.35" fill="#48d8f9"/><path d="m52 36.75c0-.17.03-.34.05-.51.14-.76.8-1.3 1.54-1.24.73.06 1.31.65 1.4 1.4.1.67-.25 1.32-.84 1.6l-.1-.39c-.15-.4-.44-.72-.82-.89-.3812091-.1595749-.8136564-.1412508-1.18.05h-.05" fill="#fcc504"/><path d="m52.8 37.01h.05c.03.51.32.97.76 1.2.43.25.93.29 1.38.11.09.74-.37 1.44-1.08 1.62-.69.2-1.42-.13-1.73-.79-.3496019-.6666496-.1872302-1.4868349.39-1.97.07-.07.15-.12.24-.18" fill="#46d7f7"/><path d="m54.99 37.93c-.4224978.113842-.8700041.0928651-1.28-.06-.4-.15-.68-.45-.71-.77.3618311-.1223495.752138-.1328041 1.12-.03.37.1.65.31.78.57l.1.25-.03.04" fill="#148d03"/><path d="m40.05 46h.53c.8.07 1.4.69 1.42 1.43s-.52 1.38-1.28 1.52c-.6599632.1676425-1.3530921-.1063852-1.72-.68.13-.05.26-.08.4-.14.4-.18.7-.5.82-.9.13-.4.07-.83-.16-1.18.0020915-.016601.0020915-.033399 0-.05" fill="#fcc504"/><path d="m40 45.68v.05c-.53.08-.96.4-1.16.86-.2.44-.2.94.03 1.37-.74.16-1.5-.23-1.76-.91-.28-.67 0-1.42.64-1.8.64-.4 1.5-.32 2.05.2z" fill="#46d7f7"/><path d="m39.12 47.98c-.1517572-.3907666-.1623673-.8222468-.03-1.22.13-.4.42-.7.76-.76.15.32.2.7.1 1.06-.08.36-.27.66-.54.81-.08.06-.17.09-.26.13l-.04-.02" fill="#148d03"/><path d="m20.52 38c-.6250481.010166-1.190868-.3683755-1.42-.95-.2256619-.5889184-.0668416-1.2559633.4-1.68.4677176-.4152092 1.1489566-.4837362 1.69-.17.01.14.04.28.07.42.07.31.34.54.66.54h.07c.03.3-.02.61-.14.9-.05-.06-.1-.1-.17-.15-.227238-.1784389-.5330348-.2204859-.8-.11-.2646051.1133413-.4452764.3632059-.47.65 0 .18.04.36.1.53" fill="#fe703e"/><path d="m22.46 37h-.04c-.04-.5-.2-.95-.42-1.22.02-.28.11-.52.24-.66s.29-.16.43-.05c.14.1.25.32.3.59.05.26.04.56-.03.82-.08.35-.28.56-.48.51" fill="#fdc505"/><path d="m21.07 37.98c-.0415972-.1363371-.0651313-.2775415-.07-.42.0094599-.2172378.135713-.4123562.33-.51.184605-.0844291.4019343-.0488662.55.09l.12.1v.08c-.18.38-.51.63-.89.68l-.05-.02" fill="#465f3d"/><path d="m21 37.71c.39-.05.73-.31.9-.71.09.14.12.32.09.48-.0244337.1623971-.1103597.3091873-.24.41-.1131775.0962661-.2652096.1333471-.41.1-.1485855-.0395917-.2726514-.1417635-.34-.28" fill="#46d7f7"/><path d="m21.05 36c.5.22.84.58.95 1-.44 0-.81-.24-.9-.56-.0489431-.1392494-.0824767-.2834437-.1-.43l.02-.01z" fill="#fd5701"/><path d="m51.5 44c-.2761424 0-.5-.2238576-.5-.5s.2238576-.5.5-.5c.28 0 .5.23.5.51.0057313.1316295-.0440506.2596208-.1372149.3527851s-.2211556.1429462-.3527851.1372149m9.99 5c-.2761424 0-.5-.2238576-.5-.5 0-.28.23-.5.5-.5.28 0 .5.24.5.51.0057313.1316295-.0440506.2596208-.1372149.3527851s-.2211556.1429462-.3527851.1372149" fill="#ff7241"/><path d="m32.84 31.21c-.2.4-.58.68-1.01.79l-.06-.03c-.29-.53-.91-.81-1.52-.67l-.06-.03c-.1721691-.3393104-.2283715-.7257019-.16-1.1.13-.64.69-1.12 1.36-1.17.68-.03 1.3.38 1.52 1.02.1.26.12.54.05.8l-.14.38" fill="#fdc503"/><path d="m30 33.53c-.24.3-.56.48-.9.47-.62-.04-1.11-.73-1.1-1.54 0-.4.12-.77.33-1.04.1846103-.2593599.4816815-.4153223.8-.42l.33.03v.05c-.26.38-.35.9-.25 1.4.11.48.4.86.78 1v.05" fill="#fe703e"/><path d="m29.53 33.97v-.05c.61-.84.17-2.25-.53-2.42v-.05l.59-.45.05.02c.23.55.7.84 1.17.7l.04.02c.13.32.17.67.14 1.02-.09.75-.6 1.29-1.17 1.24l-.25-.03" fill="#46d7f7"/><path d="m33 30.48.1-.28.19-.14c.1125762-.0636743.2464165-.0781435.37-.04.12.04.23.13.29.25.11.24.03.53-.2.67-.1121931.0648558-.2465382.0793796-.37.04-.125293-.0441827-.2266701-.1383186-.28-.26l-.1-.25" fill="#ff7241"/><path d="m31 31.95c-.4.19-.8-.18-1-.9.4-.19.8.18 1 .9" fill="#178e05"/><path d="m29.26 32c.63.14 1.03 1.3.48 2-.34-.12-.6-.44-.7-.84s-.01-.84.22-1.16" fill="#465f3d"/><path d="m28 42.6c0-.78.33-1.29.96-1.51.72-.26 1.53.06 1.87.74.36.68.13 1.53-.53 1.94-.6405156.4030221-1.4809267.2658121-1.96-.32l-.19-.25-.15-.59" fill="#ff703d"/><path d="m31.04 42.49c-.15-.56.18-1.13.8-1.37.63-.24 1.37-.1 1.81.34s.47 1.07.07 1.54l-.1-.2c-.18-.4-.6-.7-1.1-.78s-1.02.06-1.36.37z" fill="#fcc504"/><path d="m31.05 42.64.14-.13c.3850818-.3995947.9461228-.5773427 1.4910535-.4723931s.9998228.4783589 1.2089465.9923931l.11.27-.02.08-.1.1c-.3814727.4109226-.9446042.6015051-1.497228.506712s-1.0200503-.4621502-1.242772-.976712l-.12-.26c-.04-.1 0-.08 0-.11" fill="#148d03"/><path d="m31.25 43 .11.21c.2.41.63.71 1.14.79.5.07 1.03-.08 1.38-.4l.1-.09c.14.67-.35 1.31-1.13 1.46-.77.15-1.54-.24-1.77-.89-.15-.36-.09-.77.18-1.08" fill="#46d7f7"/><path d="m27.9 42.2.1.39c-.0377901.1573548-.1212954.3000098-.24.41-.0131973-.0026939-.0268027-.0026939-.04 0-.1369534-.1615007-.372713-.195793-.55-.08-.0131973-.0026939-.0268027-.0026939-.04 0-.06-.11-.1-.23-.12-.35-.0319638-.1899661.0552287-.3802042.22-.48.16-.12.38-.12.54 0l.14.1" fill="#fcc504"/><path d="m27.23 43h.04c.15.17.39.2.57.09.0131973-.0026939.0268027-.0026939.04 0 .08.11.13.26.12.4.0026789.1326158-.0474472.2608616-.1393457.356511-.0918984.0956494-.2180374.1508632-.3506543.153489-.2610563-.0088505-.475034-.2099895-.5-.47-.0237595-.2007635.0551809-.3999941.21-.53" fill="#46d7f7"/><path d="m28 43.06c-.3271019.1649251-.721205.1176327-1-.12.3266062-.1677181.7223474-.1202292 1 .12" fill="#178e05"/><path d="m40.44 36.2c-.9344581.9988943-2.4936313 1.0741953-3.52.17-.752964-.5870453-1.080144-1.5685853-.83-2.49.18-.88.88-1.58 1.79-1.8.6504339-.1685183 1.3406488-.0826884 1.93.24.58.32 1.01.85 1.19 1.47l-.24.08c-.43.14-.75.47-.86.9-.12.4-.01.85.28 1.18z" fill="#ff6f3d"/><path d="m40 30.52c0 .4-.1.77-.28 1.04-.19.28-.45.44-.71.44-.56-.02-1-.67-1.01-1.47s.41-1.47.96-1.53c.28 0 .55.16.74.45.2.29.3.67.3 1.07" fill="#fdc503"/><path d="m40.54 34c.71-.06 1.36.32 1.45.86.1.52-.36 1-1.04 1.12-.33.06-.68 0-.95-.15.33-.3.54-.66.6-1.05 0-.26-.02-.51-.06-.77" fill="#46d7f7"/><path d="m28 39.01c-.005484.5483755-.451597.9900274-1 .99-.56 0-1-.46-1-1.02.0106323-.5367733.4432267-.9693677.98-.98.57 0 1.02.46 1.02 1.01" fill="#fdc505"/><path d="m39.96 34.03c.03.28.04.56.04.84-.05.41-.22.8-.49 1.13h-.05l-.2-.21c-.2358021-.2704868-.3218589-.6404291-.2296489-.9872188s.3506434-.6251334.6896489-.7427812l.2-.06.04.02" fill="#465f3d"/><path d="m33 37.41c.03-.13.1-.24.21-.32.1107149-.0767749.2477283-.1056199.38-.08.27.05.44.3.4.58-.0201838.1294979-.0924419.245111-.2.32-.1107149.0767749-.2477283.1056199-.38.08-.2700369-.0506042-.4486586-.3096058-.4-.58" fill="#fdc607"/><path d="m38 39.5c0 .2761424-.2238576.5-.5.5-.1361473.000109-.2664518-.055306-.3608167-.1534455s-.1446292-.2305161-.1391833-.3665545c-.0027564-.1281291.0469292-.251827.1375511-.3424489s.2143198-.1403075.3424489-.1375511c.1376343-.0116519.2736172.0365525.3731834.1322892.0995663.0957368.1530642.2297256.1468166.3677108" fill="#48d8f9"/><path d="m64.5 25c-.13 0-.26-.1-.35-.3-.1-.19-.15-.44-.15-.7 0-.54.21-.98.48-1 .14 0 .27.11.37.3.1.2.15.46.15.74 0 .25-.05.5-.15.68-.1.17-.22.27-.35.26" fill="#45d7f8"/><path d="m62.01 20c.2669801.0026163.5218277.1118877.7077817.3034766.185954.191589.287571.4495842.2822183.7165234 0 .27-.1.52-.3.7-.2921479.2868978-.7296811.3667053-1.104307.2014291-.3746259-.1652761-.6106431-.5422381-.595693-.9514291 0-.25.1-.5.28-.7.1925543-.1853481.4530521-.2830348.72-.27" fill="#ff713f"/><path d="m62 57c-.5522847 0-1-.4477153-1-1-.0002434-.540778.4294653-.9837767.97-1 .2774622-.0085553.5459958.0986078.7413339.2958424s.2999017.466791.2886661.7441576c0 .53-.45.96-1 .96" fill="#46d8f9"/></g></svg>