<svg viewBox="0 0 532.07 525.34" xmlns="http://www.w3.org/2000/svg"><path d="m266 30.54a6.52 6.52 0 0 1 5.66 5.93 6.24 6.24 0 0 1 -4.38 6.71 13.73 13.73 0 0 1 -3.58.15 8.34 8.34 0 0 1 -1.37-.23l-1-.5-.21-.4a8.8 8.8 0 0 1 -2.46-6.35 1.63 1.63 0 0 1 .37-.08 2.92 2.92 0 0 0 3.53.51c2.1-.84 3.72-2.28 3.44-5.74z" fill="#ff713f"/><path d="m259.08 35.77a1.63 1.63 0 0 0 -.37.08 4.74 4.74 0 0 1 -2.32-5.51 4.59 4.59 0 0 1 3.84-3.68c2.45-.5 4.64 1 5.61 3.73-.33 0-.66.08-1 .1a6 6 0 0 0 -5.76 5.28z" fill="#fdc505"/><path d="m259.08 35.77a6 6 0 0 1 5.77-5.28c.33 0 .66-.07 1-.1a.21.21 0 0 1 .19.15c.25 3.49-1.37 4.9-3.42 5.74a2.92 2.92 0 0 1 -3.54-.51z" fill="#fd5701"/><path d="m262.38 43.1-1-.5z" fill="#fff"/><path d="m297.81 121.34a13.58 13.58 0 0 1 -19.4 1 13.84 13.84 0 0 1 -4.54-14.34 13.35 13.35 0 0 1 9.83-10.31c8.17-2.36 15.8 3.45 17.21 9.8-.45.14-.91.25-1.35.42a7.48 7.48 0 0 0 -3.15 11.94c.43.55.93 1 1.4 1.49z" fill="#ff6f3d"/><path d="m220.1 414.69c1.64-5.31 5.33-8.25 10.68-9.3a13.87 13.87 0 0 1 15.71 10.61c1.75 7.54-2.32 14.66-9.48 16.74-4.95 1.43-9.33.2-13.16-3.16-.61-.53-1.14-1.15-1.71-1.73 0-.11 0-.21.05-.32 3.15-2.13 3.43-7.9.6-10.75a25.09 25.09 0 0 0 -2.69-2.09z" fill="#45d7f8"/><path d="m117.06 349.68a10.23 10.23 0 1 1 -20.46-.17 10.07 10.07 0 0 1 10-10.31 10.56 10.56 0 0 1 10.46 10.48z" fill="#46d8f9"/><path d="m365.09 399.21a10.08 10.08 0 0 1 -10.09 10.25 10.48 10.48 0 0 1 -10.22-10.46 10.12 10.12 0 0 1 10.13-10.21 10.28 10.28 0 0 1 10.18 10.42z" fill="#fdc503"/><path d="m408 189.18c-1.13-2.16-2.15-4.31-2.09-6.87a10.46 10.46 0 0 1 8.09-10.1 10.57 10.57 0 0 1 11.81 6.09c2.95 6.83-1.55 14.52-8.72 14.89a7 7 0 0 1 -1-.09 20.3 20.3 0 0 0 .41-3.35 4.36 4.36 0 0 0 -4.23-3.82 3.91 3.91 0 0 0 -3.93 3.26z" fill="#ff703d"/><path d="m321.1 96.3a8.8 8.8 0 0 1 8.89-9 9.12 9.12 0 0 1 9.09 9.17 8.9 8.9 0 0 1 -9 9.15 9.08 9.08 0 0 1 -8.98-9.32z" fill="#ff703d"/><path d="m388.11 408.94a9.54 9.54 0 0 1 -10-3.66 9.75 9.75 0 0 1 -1.48-9.92 9.5 9.5 0 0 1 9.36-6.42 10.09 10.09 0 0 1 9.47 7.5 19.54 19.54 0 0 1 .32 2.78c-.4-.07-.8-.18-1.2-.21a6.47 6.47 0 0 0 -7.16 7.42 16.62 16.62 0 0 0 .69 2.51z" fill="#45d7f8"/><path d="m242.88 135.72a8.82 8.82 0 0 1 -8.81-8.94 8.67 8.67 0 0 1 8.64-8.64 8.78 8.78 0 0 1 8.73 9 8.42 8.42 0 0 1 -8.56 8.58z" fill="#ff703e"/><path d="m271.77 429.71a8.4 8.4 0 0 1 -8.47 8.66 8.79 8.79 0 0 1 -8.85-8.87 8.6 8.6 0 0 1 8.55-8.69 8.7 8.7 0 0 1 8.77 8.9z" fill="#fdc503"/><path d="m326.86 147.26a8.58 8.58 0 0 1 -8.47 8.58 8.79 8.79 0 0 1 -8.71-8.84 8.41 8.41 0 0 1 8.56-8.61 8.68 8.68 0 0 1 8.62 8.87z" fill="#fdc503"/><path d="m236.32 350.77a8.37 8.37 0 0 1 8.34-8.6 8.84 8.84 0 0 1 8.67 8.87 8.51 8.51 0 1 1 -17-.27z" fill="#ff703d"/><path d="m175.59 174.94a8.45 8.45 0 0 1 -8.5 8.45 8.85 8.85 0 0 1 -8.52-8.81 8.54 8.54 0 0 1 8.47-8.53 8.64 8.64 0 0 1 8.55 8.89z" fill="#ff703e"/><path d="m277.12 412.77a8.62 8.62 0 0 1 -8.66-8.78 8.53 8.53 0 0 1 8.43-8.57 8.81 8.81 0 0 1 8.58 8.74 8.46 8.46 0 0 1 -8.35 8.61z" fill="#46d8f9"/><path d="m288.44 158.64a8.38 8.38 0 0 1 -8.37 8.56 8.87 8.87 0 0 1 -8.59-8.74 8.48 8.48 0 1 1 17 .18z" fill="#ff703d"/><path d="m271.67 64.68a8.65 8.65 0 1 1 9.56 2.64 18 18 0 0 1 -2.76.53 1.92 1.92 0 0 0 -.32-.09 4.35 4.35 0 0 0 -.39-1.28c-1.42-2.11-3.24-2.63-6.09-1.8z" fill="#fdc503"/><path d="m276.27 72.78a10 10 0 0 1 3.59 5.7 8.51 8.51 0 0 1 -6.45 10.12 8.65 8.65 0 0 1 -10.22-6.36 8.77 8.77 0 0 1 7.05-10.84l.36.14c1.65 1.86 3 2.18 5.2 1.23z" fill="#45d7f8"/><path d="m53.43 304.79a8.36 8.36 0 0 1 8.34-8.59 8.56 8.56 0 1 1 -8.34 8.59z" fill="#ff703e"/><path d="m164.5 423c0-4.42 1.83-7.34 5.35-8.65a8.47 8.47 0 0 1 10.47 4.19 8.63 8.63 0 0 1 -2.95 11.09 8.31 8.31 0 0 1 -11-1.84c-.38-.46-.72-1-1.07-1.46-.23-1.15-.52-2.26-.8-3.33z" fill="#ff703d"/><path d="m435.93 212.75a8.53 8.53 0 0 1 -8.54-8.44 8.37 8.37 0 0 1 8.5-8.22 8.64 8.64 0 0 1 8.48 8.59 8.26 8.26 0 0 1 -8.44 8.07z" fill="#46d8f9"/><path d="m248.85 373.29c-.24 5.1-3.76 8.47-8.35 8.4a8.29 8.29 0 0 1 -8.37-8.65 8.2 8.2 0 0 1 8.41-8.3 8.63 8.63 0 0 1 8.31 8.55z" fill="#46d8f9"/><path d="m353.72 114.73a8.12 8.12 0 0 1 -8.18 8.26 8.3 8.3 0 0 1 -8.17-8.54 8.07 8.07 0 0 1 8.15-8.27 8.39 8.39 0 0 1 8.2 8.55z" fill="#46d8f9"/><path d="m266.68 183.48a23.32 23.32 0 0 1 -4.38-.39 8.56 8.56 0 0 1 -6-9.39 8.44 8.44 0 0 1 7.61-7.44c4.71-.52 9 3.33 9.35 8.31v1.61l-.33.35a7.55 7.55 0 0 0 -6.07 6.63z" fill="#fdc503"/><path d="m210.85 146.46a8.1 8.1 0 0 1 8.1 8.3 8 8 0 0 1 -8.12 8 8.32 8.32 0 0 1 -8-8.25 8 8 0 0 1 8.02-8.05z" fill="#ff703e"/><path d="m400.44 143c-1.13 2.44-3.23 3.66-5.65 4.46a1.23 1.23 0 0 0 -.31-.14 7.69 7.69 0 0 0 -8.43-3.85l-.35-.13c-.82-2-1.46-4-.92-6.26a8.36 8.36 0 0 1 7.63-6.68 8.47 8.47 0 0 1 8.54 5.81 7.26 7.26 0 0 1 .27 4.56z" fill="#fdc503"/><path d="m266.68 183.48.21-.32a7.57 7.57 0 0 0 6.07-6.63l.33-.35a25.34 25.34 0 0 1 4 .38 8.42 8.42 0 0 1 6.07 8.78 8.3 8.3 0 0 1 -7.31 7.77 8.44 8.44 0 0 1 -9.26-7.41c-.05-.7-.07-1.48-.11-2.22z" fill="#45d7f8"/><path d="m144.87 176.63a8.07 8.07 0 0 1 7.94 8.08 7.83 7.83 0 0 1 -7.77 7.95 8.14 8.14 0 0 1 -8-8.07 7.92 7.92 0 0 1 7.83-7.96z" fill="#fdc505"/><path d="m368.32 381a7.85 7.85 0 0 1 7.81-7.92 8.06 8.06 0 0 1 7.93 8.09 7.87 7.87 0 0 1 -7.8 7.93 8.11 8.11 0 0 1 -7.94-8.1z" fill="#ff703e"/><path d="m146 147.29a7.79 7.79 0 0 1 .22 15.57 7.79 7.79 0 0 1 -7.72-7.73c-.16-4.37 3.64-8.13 7.5-7.84z" fill="#46d8f9"/><path d="m175 102.75a7.73 7.73 0 0 1 2.65 8.32c-.92 3.21-3 5.33-6.31 5.84a7.66 7.66 0 0 1 -8.18-3.64c-2.6-4.15-1.38-9.22 2.65-11.37a9 9 0 0 0 9.19.85z" fill="#45d7f8"/><path d="m244.77 455.65a8.74 8.74 0 0 1 8.71 9 8.54 8.54 0 0 1 -8.61 8.64 8.86 8.86 0 0 1 -8.84-8.94c.02-5.03 4.16-8.98 8.74-8.7zm1.69 9.89a4.08 4.08 0 0 0 4.22-4.41 4.42 4.42 0 0 0 -4.33-4.44 4.43 4.43 0 0 0 .11 8.85z" fill="#fe703e"/><path d="m223.36 108.68a7.44 7.44 0 0 1 7.42-7.5 7.76 7.76 0 0 1 7.59 7.86 7.47 7.47 0 0 1 -7.46 7.47 7.59 7.59 0 0 1 -7.55-7.83z" fill="#fdc505"/><path d="m301.75 89.19a7.37 7.37 0 0 1 -7.34 7.53 7.65 7.65 0 0 1 -.32-15.3 7.7 7.7 0 0 1 7.66 7.77z" fill="#fdc503"/><path d="m345.54 433a8.3 8.3 0 0 1 -.05-10.08 8.12 8.12 0 0 1 9.61-2.52 8.52 8.52 0 0 1 5 9.22 7.85 7.85 0 0 1 -6.85 6.65c.09-.32.18-.64.25-1a4.16 4.16 0 0 0 -2.62-5.2c-2.13-.77-3.81.05-5 2.43a3.32 3.32 0 0 1 -.34.5z" fill="#ff703d"/><path d="m181.39 346.72c2-1.1 4-1.89 6.34-1.39a8.1 8.1 0 0 1 6.48 7.09c.31 4.08-1.7 7.44-5.33 8.54a7.71 7.71 0 0 1 -10.08-5.52 11.89 11.89 0 0 0 1.2-.1 4.38 4.38 0 0 0 3.69-3.5 4.26 4.26 0 0 0 -2.29-4.84.82.82 0 0 0 -.01-.28z" fill="#45d7f8"/><path d="m335.36 187c-3.73.24-6.71-2.68-7.66-5.21a8.42 8.42 0 0 1 2.19-9.25c2.56-2.29 5.78-2.62 9.19-.94a14.07 14.07 0 0 0 .4 2.35c.56 1.7 1.6 2.91 3.56 3l.38.11c-.12 1.65.21 3.36-.73 4.88-.31-.26-.61-.53-.93-.77a4.26 4.26 0 0 0 -6.93 3 10.53 10.53 0 0 0 .53 2.83z" fill="#fe703e"/><path d="m347.26 349.65c.1-.94.12-1.89.3-2.81a8.3 8.3 0 0 1 8.8-6.74 8.6 8.6 0 0 1 7.9 7.63c.37 4-1.34 7.15-4.77 8.75-.19-.71-.33-1.44-.58-2.13-1.83-5-7.69-6.78-11.36-4.63a1 1 0 0 0 -.29-.07z" fill="#fcc504"/><path d="m92.07 168.06a7.74 7.74 0 0 1 .18-8.88 7.6 7.6 0 0 1 8.22-2.85 7.81 7.81 0 0 1 5.53 6.77 7.57 7.57 0 0 1 -4.05 7.5c-2.67-3.24-5.95-4.21-9.88-2.54z" fill="#fcc504"/><path d="m151.37 115.63a7.23 7.23 0 0 1 7.35 7.26 7.07 7.07 0 0 1 -7 6.93 7.48 7.48 0 0 1 -7.26-7.27 6.89 6.89 0 0 1 6.91-6.92z" fill="#ff703e"/><path d="m190.7 274.52a7.24 7.24 0 0 1 7.1 7.14 7 7 0 0 1 -7 7.12 7.23 7.23 0 0 1 -7-7.24 7.05 7.05 0 0 1 6.9-7.02z" fill="#fdc503"/><path d="m177.4 90.16a8.41 8.41 0 0 1 -1.64 12 4.32 4.32 0 0 1 -.72.34 8.65 8.65 0 0 0 -9.21-.87 7.73 7.73 0 0 1 -2.77-8.6 7.62 7.62 0 0 1 6.77-6c-.16.44-.35.87-.48 1.31a4.06 4.06 0 0 0 2.74 5c2.63.59 4.48-.57 5.06-3.15z" fill="#fdc503"/><path d="m347.26 349.65a1 1 0 0 1 .29.07 7.9 7.9 0 0 0 4.17 6.51c2.42 1.46 5 1.36 7.6.56.26 4.26-2.1 7.87-6 8.73s-7.34-.25-9.57-4.31a8.44 8.44 0 0 1 2.25-10.62c.37-.33.83-.59 1.26-.94z" fill="#46d7f7"/><path d="m423.1 354.72a7.56 7.56 0 0 1 11.25-9.06 8 8 0 0 1 3.17 8.76 7.33 7.33 0 0 1 -7 5.41 12 12 0 0 0 .54-1.52 4.54 4.54 0 0 0 -4.29-5.44 5.19 5.19 0 0 0 -3.67 1.85z" fill="#fe703e"/><path d="m385.33 159.84a8.92 8.92 0 0 1 -6.54 2.63 8.45 8.45 0 0 1 -8.05-8.65 8.11 8.11 0 0 1 8.22-8.16c.81 0 1.61.12 2.41.19a.84.84 0 0 0 0 .27c-4.53 5-1.12 12.41 3.86 13.44z" fill="#fe703e"/><path d="m304.21 370a7.82 7.82 0 0 1 5.87-9.1 8.1 8.1 0 0 1 9.7 5.64 7.89 7.89 0 0 1 -3.69 9.36 8.22 8.22 0 0 0 -6.41-6.73 8.63 8.63 0 0 0 -5.47.83z" fill="#fcc504"/><path d="m280.4 381.91a6.7 6.7 0 0 1 -6.56-6.81 6.59 6.59 0 0 1 6.64-6.48 6.79 6.79 0 0 1 6.47 6.74 6.52 6.52 0 0 1 -6.55 6.55z" fill="#ff713f"/><path d="m239.62 154.16a16.85 16.85 0 0 1 -2.63-2.72 6.47 6.47 0 1 1 7.2 3.18c-.39.1-.79.14-1.19.21z" fill="#fdc505"/><path d="m128.44 124.47c-.52-.15-1-.27-1.54-.46a6.71 6.71 0 0 1 -4.08-7.71 6.39 6.39 0 0 1 6.43-5 6.64 6.64 0 0 1 1.86 12.94c-.38.12-.76.22-1.15.33z" fill="#fdc505"/><path d="m339.24 364.86a6.68 6.68 0 0 1 6.59 6.78 6.58 6.58 0 0 1 -6.48 6.45 6.66 6.66 0 0 1 -6.55-6.81 6.41 6.41 0 0 1 6.44-6.42z" fill="#ff703e"/><path d="m136.52 372.84a8.22 8.22 0 0 1 13.12-9.56 8.35 8.35 0 0 1 1.18 10.72c-.35-.49-.68-1-1.06-1.47a8 8 0 0 0 -8.11-3 8.73 8.73 0 0 0 -5.13 3.31z" fill="#fcc504"/><path d="m165 145.41a6.45 6.45 0 0 1 -6.58-6.67 6.24 6.24 0 0 1 6.32-6.44 6.6 6.6 0 0 1 6.66 6.66 6.46 6.46 0 0 1 -6.4 6.45z" fill="#fdc505"/><path d="m239.65 62.33a6.34 6.34 0 0 1 -6.38 6.47 6.67 6.67 0 0 1 -6.54-6.63 6.47 6.47 0 0 1 6.43-6.48 6.55 6.55 0 0 1 6.49 6.64z" fill="#ff713f"/><path d="m305.81 62.32a6.33 6.33 0 0 1 -6.37 6.48 6.61 6.61 0 0 1 -6.53-6.62 6.44 6.44 0 0 1 6.4-6.49 6.55 6.55 0 0 1 6.5 6.63z" fill="#ff713f"/><path d="m263.93 477a6.34 6.34 0 0 1 6.37-6.45 6.6 6.6 0 0 1 6.42 6.72 6.4 6.4 0 0 1 -6.41 6.44 6.54 6.54 0 0 1 -6.38-6.71z" fill="#fdc505"/><path d="m82.15 142a6.54 6.54 0 0 1 6.45 6.66 6.44 6.44 0 0 1 -6.49 6.39 6.55 6.55 0 0 1 -6.41-6.71 6.26 6.26 0 0 1 6.45-6.34z" fill="#ff713f"/><path d="m315.94 376.23a7.56 7.56 0 0 1 -3.7 7.81 7.9 7.9 0 0 1 -10.83-3c-2.18-3.69-.85-9.11 2.64-10.74.94 3.25 2.8 5.6 6.2 6.52a9.26 9.26 0 0 0 5.69-.59z" fill="#45d7f8"/><path d="m367.68 171.64a3.11 3.11 0 0 1 -3.18 3.2 3.2 3.2 0 0 1 -3.2-3.33 3.11 3.11 0 0 1 3.19-3.2 3.21 3.21 0 0 1 3.19 3.33z" fill="#ff703e"/><path d="m387.29 174.26a6.53 6.53 0 0 1 6.49 6.44 6.44 6.44 0 0 1 -6.36 6.54 6.59 6.59 0 0 1 -6.47-6.69 6.29 6.29 0 0 1 6.34-6.29z" fill="#fdc505"/><path d="m222.19 427.53c0 .11 0 .21-.05.32a8.49 8.49 0 0 1 -4.89 1.61 7.67 7.67 0 0 1 -3.48-14.41 6.68 6.68 0 0 1 6-.25c-.08.46-.16.92-.23 1.38-.61 4.13-.13 8.01 2.65 11.35z" fill="#fe703e"/><path d="m460.76 160.86a6.39 6.39 0 0 1 -6.48 6.37 6.69 6.69 0 0 1 -6.39-6.57 6.41 6.41 0 0 1 6.42-6.43 6.48 6.48 0 0 1 6.45 6.63z" fill="#47d8f9"/><path d="m184.13 428.63c-1-3.48 1-8.13 4.81-9.93a9.1 9.1 0 0 1 10.82 2.41c3 3.56 2.7 8.62.44 11.23l-.59-1.5a8.79 8.79 0 0 0 -14.76-2.91z" fill="#fcc504"/><path d="m239.62 154.16 3.38.67a7.49 7.49 0 0 1 3.33 4.4 6.52 6.52 0 0 1 -2.48 6.8 6.23 6.23 0 0 1 -7.2.11 6.53 6.53 0 0 1 -2.83-6.65c.64-3.06 2.39-4.67 5.8-5.33z" fill="#47d8f9"/><path d="m182.28 170.91a6.5 6.5 0 0 1 -6.31-6.59 6.37 6.37 0 0 1 6.48-6.37 6.66 6.66 0 0 1 6.34 6.61 6.39 6.39 0 0 1 -6.51 6.35z" fill="#47d8f9"/><path d="m128.44 124.47h1.52a7.48 7.48 0 0 1 3.61 2.1 6.47 6.47 0 0 1 .65 8 6.27 6.27 0 0 1 -7.25 2.51 6.81 6.81 0 0 1 -4.47-6.35 6.49 6.49 0 0 1 5.15-6.17z" fill="#46d8f9"/><path d="m184.13 428.63.72-.7a8.79 8.79 0 0 1 14.76 2.91l.59 1.5c0 .14-.09.29-.13.44s-.39.37-.57.56a9 9 0 0 1 -14.81-2.61l-.66-1.48z" fill="#148d03"/><path d="m311.76 466.77a6.32 6.32 0 0 1 -.22-12.64 6.44 6.44 0 0 1 6.38 6.48 6.11 6.11 0 0 1 -6.16 6.16z" fill="#ff713f"/><path d="m205.11 62.92a6.18 6.18 0 0 1 6.19-6.37 6.46 6.46 0 0 1 6.26 6.45 6.26 6.26 0 0 1 -6.23 6.35 6.33 6.33 0 0 1 -6.22-6.43z" fill="#fdc505"/><path d="m150.77 374.49a7.72 7.72 0 0 1 -1.41 8.8 7.59 7.59 0 0 1 -8.34 2.18 7.85 7.85 0 0 1 -5.64-6.77c-.23-1.87-.24-3.8 1.12-5.39.36.49.7 1 1.08 1.46a8.14 8.14 0 0 0 10.22 2.1 21.51 21.51 0 0 0 2.97-2.38z" fill="#46d7f7"/><path d="m72.53 160.88a6.09 6.09 0 0 1 -6.12 6.2 6.45 6.45 0 0 1 -6.32-6.36 6.23 6.23 0 1 1 12.44.16z" fill="#46d8f9"/><path d="m273.67 359a6.23 6.23 0 1 1 -6.07-6.31 6.28 6.28 0 0 1 6.07 6.31z" fill="#fdc505"/><path d="m302.06 418.05a6.25 6.25 0 0 1 -.11-12.49 6.39 6.39 0 0 1 6.21 6.26 6.05 6.05 0 0 1 -6.1 6.23z" fill="#fdc505"/><path d="m184 429.25.66 1.48a9 9 0 0 0 14.81 2.61c.18-.19.38-.38.57-.56a8.61 8.61 0 0 1 -6.63 10.05 8.86 8.86 0 0 1 -10.47-6.1 7.88 7.88 0 0 1 1.06-7.48z" fill="#46d7f7"/><path d="m197.61 116a6.16 6.16 0 0 1 -6.18 6.2 6.4 6.4 0 0 1 -6.12-6.35 6.13 6.13 0 0 1 6.19-6.17 6.28 6.28 0 0 1 6.11 6.32z" fill="#ff713f"/><path d="m450.42 371.76a17.37 17.37 0 0 1 .26-3.77 6.19 6.19 0 0 1 7.11-4.3 6.7 6.7 0 0 1 5.4 6.64 6.45 6.45 0 0 1 -5.49 6.3c-.47.06-.94.08-1.41.12l-.33-.2a5.55 5.55 0 0 0 -5.26-4.49z" fill="#fcc504"/><path d="m275.27 267.55a6.18 6.18 0 1 1 -12.35.09 6.18 6.18 0 1 1 12.35-.09z" fill="#fdc505"/><path d="m385.33 159.84-.06-.28c4.43-4.65 1.2-12.53-3.86-13.44a.84.84 0 0 1 0-.27l4.33-2.54.35.13c1.92 3.23 4.79 4.39 8.43 3.85a1.23 1.23 0 0 1 .31.14 9.87 9.87 0 0 1 1 5.68 8.1 8.1 0 0 1 -8.61 6.89z" fill="#46d7f7"/><path d="m166.69 402.53a6.48 6.48 0 0 1 -6.52-3.18 6.92 6.92 0 0 1 -.43-7.31 6.4 6.4 0 0 1 5.63-3.7 6.79 6.79 0 0 1 6.47 3.37 19 19 0 0 1 .91 1.8.86.86 0 0 0 -.14.18c-3.4.05-6 3.47-6 6.22-.03.88.04 1.75.08 2.62z" fill="#fcc504"/><path d="m333.33 415a6.2 6.2 0 0 1 -6 6.15 6.3 6.3 0 0 1 -6.08-6.32 6.14 6.14 0 0 1 6.09-6 6.3 6.3 0 0 1 5.99 6.17z" fill="#47d8f9"/><path d="m456 376.55.33.2v2a6.16 6.16 0 0 1 -6.14 6 6.48 6.48 0 0 1 -6.42-5.77 6.29 6.29 0 0 1 5.26-7c.46-.09.93-.14 1.4-.22l.28.3a5.79 5.79 0 0 0 5.29 4.49z" fill="#46d7f7"/><path d="m172.75 393.51c.61.05 1.21.08 1.81.16a7 7 0 0 1 5.84 7 6.87 6.87 0 0 1 -6.26 7 6.71 6.71 0 0 1 -7.14-5c4.72-1.41 6.77-4.7 5.61-9a.86.86 0 0 1 .14-.16z" fill="#46d7f7"/><path d="m208.87 83.41c-3-.62-4.93-2.32-5.47-5.42a6.14 6.14 0 0 1 3.78-6.64 6.22 6.22 0 0 1 7.31 2.32c1.8 2.82 1.31 5.49-.63 8l-.36.1a3.61 3.61 0 0 0 -4.23 1.45z" fill="#46d8f9"/><path d="m124 170.72a5.87 5.87 0 0 1 -5.92 5.88 6 6 0 0 1 -5.93-6.11 5.87 5.87 0 0 1 6-6 6.1 6.1 0 0 1 5.85 6.23z" fill="#ff713f"/><path d="m399.08 355.5a6 6 0 0 1 6 5.84 5.85 5.85 0 1 1 -11.7 0 5.62 5.62 0 0 1 5.7-5.84z" fill="#47d8f9"/><path d="m60.16 381.78a17.81 17.81 0 0 1 -2.72-1.7 6.34 6.34 0 0 1 -1.81-6.85 6 6 0 0 1 5.37-4.55 6.32 6.32 0 0 1 6.24 3c.26.39.51.79.76 1.19v.52c-1.32.84-1.11 2.36-1.6 3.57-3 .31-5.22 1.56-6 4.69a.6.6 0 0 0 -.24.13z" fill="#fe703e"/><path d="m301.19 107.68a7.36 7.36 0 0 1 8.16 6.36 7.49 7.49 0 0 1 -5.88 8.39 6.47 6.47 0 0 1 -5.34-1.14c1.75-2.34 3.2-4.85 3.36-7.82a51.16 51.16 0 0 0 -.3-5.79z" fill="#46d7f7"/><path d="m90 170.08 2-1.73a22.65 22.65 0 0 0 2.4 2.11c2.39 1.57 4.94 1.42 7.5.43 2.5 3.37 1.16 8.21-2 10.34-3.72 2.56-8.5 1-10.13-1.86.39-.1.78-.19 1.17-.3a4.32 4.32 0 0 0 3.37-4 4.53 4.53 0 0 0 -2.7-4.5 12.2 12.2 0 0 0 -1.61-.49z" fill="#46d7f7"/><path d="m68 373.36v-.52c1.9-1.77 4-2.66 6.67-1.88a6.65 6.65 0 0 1 4.63 7.39 6.23 6.23 0 0 1 -6.53 5.35 15.25 15.25 0 0 0 -.33-1.79c-.66-2.28-1.94-4-4.4-4.53a2.38 2.38 0 0 0 0-.26 4.09 4.09 0 0 0 -.04-3.76z" fill="#fcc504"/><path d="m259.92 496.51c-1.86 1.77-4 2.77-6.6 2a6.19 6.19 0 0 1 -4.65-5.31 6 6 0 0 1 2.8-6.28 6 6 0 0 1 6.85 0l.85.54v.31c-3.27 2.44-2.94 6.59.69 8.49a2.25 2.25 0 0 1 .06.25z" fill="#46d7f7"/><path d="m342 133.17c-1.37-2.68-.74-5.14 1-7.33a6.47 6.47 0 0 1 7.12-2.22 7.13 7.13 0 0 1 -.53 13.9c.32-.49.63-1 1-1.48a4.75 4.75 0 0 0 -.28-5.61c-2.78-2.84-6.29-1.77-7.51 1.54-.21.47-.03 1.14-.8 1.2z" fill="#ff703e"/><path d="m385.37 107.29a5.46 5.46 0 0 1 -5.33 5.48 5.71 5.71 0 0 1 -5.64-5.68 5.47 5.47 0 0 1 5.48-5.54 5.53 5.53 0 0 1 5.49 5.74z" fill="#fdc505"/><path d="m142.94 410.71a5.66 5.66 0 0 1 5.65 5.7 5.59 5.59 0 0 1 -5.41 5.5 5.78 5.78 0 0 1 -5.67-5.73 5.58 5.58 0 0 1 5.43-5.47z" fill="#ff713f"/><path d="m427.43 172.13a5.55 5.55 0 0 1 -5.42-5.62 5.41 5.41 0 0 1 5.48-5.31 5.47 5.47 0 0 1 5.29 5.52 5.34 5.34 0 0 1 -5.35 5.41z" fill="#fdc505"/><path d="m380.07 120.53a5.13 5.13 0 0 1 -5.3 5.39 5.47 5.47 0 0 1 -.18-10.94 5.43 5.43 0 0 1 5.48 5.55z" fill="#47d8f9"/><path d="m283.47 461.7a6.16 6.16 0 0 1 5-6.95 6.43 6.43 0 0 1 7.27 4.07 6.36 6.36 0 0 1 -3 8.1c-.14-.45-.27-.9-.43-1.35a6.45 6.45 0 0 0 -4.72-4.29 7.34 7.34 0 0 0 -4.12.42z" fill="#fcc504"/><path d="m150.77 374.49a21.51 21.51 0 0 1 -3 2.38 8.14 8.14 0 0 1 -10.22-2.1c-.38-.47-.72-1-1.08-1.46 0-.16 0-.31 0-.47a8.73 8.73 0 0 1 5.13-3.39 8 8 0 0 1 8.11 3c.38.47.71 1 1.06 1.47z" fill="#148d03"/><path d="m292.52 467.23a6.07 6.07 0 0 1 -4.86 6.66 6.46 6.46 0 0 1 -7.33-4.34 6.29 6.29 0 0 1 3-7.59 6.8 6.8 0 0 0 3.93 5.23 6.9 6.9 0 0 0 5.26.04z" fill="#46d7f7"/><path d="m217.39 462.49a6.24 6.24 0 0 1 3.21-7.15 6.31 6.31 0 0 1 7.74 1.47 6.69 6.69 0 0 1 .6 8.07c-.33.51-.73 1-1.1 1.44l-.29-.05a5.92 5.92 0 0 0 -4.46-4.89c-2.09-.7-3.94.04-5.7 1.11z" fill="#fcc504"/><path d="m60.16 381.78a.6.6 0 0 1 .22-.16 5.69 5.69 0 0 0 5.25-.88c.49-.31 1-.6 1.49-.91 1 2.45 3 3.53 5.38 4.09a5.94 5.94 0 0 1 -5.5 5.92 6.3 6.3 0 0 1 -6.63-4.48 17.67 17.67 0 0 1 -.21-3.58z" fill="#46d7f7"/><path d="m395.92 399.45a6.54 6.54 0 0 1 4.36 6.91 6.46 6.46 0 0 1 -5.37 5.76 6.15 6.15 0 0 1 -6.46-3.05 10.72 10.72 0 0 0 7.47-9.62z" fill="#ff713f"/><path d="m227.55 466.27.29.05c.09 2.14-.2 4.16-1.83 5.77a5.9 5.9 0 0 1 -6.48 1.55 6 6 0 0 1 -4.27-5.56c-.16-2 .24-3.88 2-5.19.27.54.51 1.09.81 1.61a6.28 6.28 0 0 0 9.48 1.77z" fill="#46d7f7"/><path d="m275.24 126.05a4.94 4.94 0 0 1 -4.88 4.93 5 5 0 0 1 -5-5.08 4.85 4.85 0 0 1 4.86-4.9 5 5 0 0 1 5.02 5.05z" fill="#fdc505"/><path d="m241.55 399a5 5 0 0 1 -5-5 5 5 0 0 1 4.82-5 5.13 5.13 0 0 1 5 5 4.89 4.89 0 0 1 -4.82 5z" fill="#ff713f"/><path d="m453.58 305.22a5 5 0 0 1 4.93 5.1 4.83 4.83 0 0 1 -4.92 4.85 5.08 5.08 0 0 1 -4.87-5 4.94 4.94 0 0 1 4.86-4.95z" fill="#fdc505"/><path d="m87.52 347.16a4.78 4.78 0 0 1 -5 4.72 5 5 0 0 1 -4.72-5.1 4.91 4.91 0 0 1 5-4.86 5 5 0 0 1 4.72 5.24z" fill="#fdc607"/><path d="m458.73 208.86a4.92 4.92 0 0 1 4.84-4.94 5.11 5.11 0 0 1 4.89 5 4.91 4.91 0 0 1 -4.81 5 4.82 4.82 0 0 1 -4.92-5.06z" fill="#47d8f9"/><path d="m450 200.19a5 5 0 0 1 -4.85-4.94 4.86 4.86 0 0 1 4.86-4.9 5 5 0 0 1 4.95 5.06 4.82 4.82 0 0 1 -4.96 4.78z" fill="#ff713f"/><path d="m261.17 42.2.21.4 1 .5c.17.62.33 1.26.52 1.88a5 5 0 0 1 -2 5.65 4.91 4.91 0 0 1 -6.8-6.63 4.67 4.67 0 0 1 5.53-2.22c.52.1 1.03.27 1.54.42z" fill="#48d8f9"/><path d="m283.06 142.39a4.88 4.88 0 0 1 -4.66 4.9 5.1 5.1 0 0 1 -5-4.9 4.82 4.82 0 1 1 9.64 0z" fill="#47d8f9"/><path d="m359.32 356.79c-2.61.8-5.18.9-7.6-.56a7.9 7.9 0 0 1 -4.17-6.51c3.67-2.15 9.53-.37 11.36 4.63.25.69.39 1.42.58 2.13a3.07 3.07 0 0 1 -.17.31z" fill="#148d03"/><path d="m301.19 107.68a51.16 51.16 0 0 1 .3 5.79c-.16 3-1.61 5.48-3.36 7.82a1.26 1.26 0 0 1 -.33 0c-.46-.49-1-.94-1.39-1.46a7.48 7.48 0 0 1 3.15-11.94c.44-.17.9-.28 1.35-.42z" fill="#465f3d"/><path d="m315.94 376.23a9.26 9.26 0 0 1 -5.69.58c-3.4-.92-5.26-3.27-6.2-6.52a1.66 1.66 0 0 0 .16-.33 8.63 8.63 0 0 1 5.47-.83 8.22 8.22 0 0 1 6.41 6.73c-.04.14-.09.25-.15.37z" fill="#148d03"/><path d="m366.63 97.83a4.45 4.45 0 0 1 -4.43 4.37 4.6 4.6 0 0 1 -4.45-4.62 4.47 4.47 0 0 1 4.55-4.47 4.59 4.59 0 0 1 4.33 4.72z" fill="#ff7241"/><path d="m112.21 204.58a4.45 4.45 0 0 1 -4.38 4.41 4.57 4.57 0 0 1 -4.49-4.76 4.45 4.45 0 0 1 4.48-4.32 4.6 4.6 0 0 1 4.39 4.67z" fill="#fdc607"/><path d="m311.5 167.81a4.37 4.37 0 0 1 -4.43 4.54 4.63 4.63 0 0 1 -4.42-4.65 4.43 4.43 0 1 1 8.85.11z" fill="#fdc607"/><path d="m458.73 183.34a4.38 4.38 0 0 1 4.43-4.54 4.66 4.66 0 0 1 4.45 4.64 4.44 4.44 0 1 1 -8.88-.1z" fill="#fdc607"/><path d="m235.24 187.44a4.4 4.4 0 0 1 -4.31 4.46 4.66 4.66 0 0 1 -4.56-4.53 4.44 4.44 0 1 1 8.87.07z" fill="#fdc607"/><path d="m447.81 344.71a4.51 4.51 0 0 1 -4.47-4.55 4.45 4.45 0 0 1 4.32-4.48 4.57 4.57 0 0 1 4.57 4.68 4.39 4.39 0 0 1 -4.42 4.35z" fill="#fdc607"/><path d="m473 295.29a4.43 4.43 0 0 1 -4.24 4.54 4.67 4.67 0 0 1 -4.6-4.69 4.42 4.42 0 1 1 8.84.15z" fill="#ff7241"/><path d="m266.69 221.25a4.47 4.47 0 0 1 -4.46-4.54 4.32 4.32 0 0 1 4.5-4.44 4.53 4.53 0 0 1 4.39 4.64 4.39 4.39 0 0 1 -4.43 4.34z" fill="#ff713f"/><path d="m302.28 342.32a4.43 4.43 0 0 1 -4.27 4.51 4.62 4.62 0 0 1 -4.61-4.66 4.52 4.52 0 0 1 4.4-4.42 4.6 4.6 0 0 1 4.48 4.57z" fill="#fdc505"/><path d="m427.35 128.79a4.68 4.68 0 0 1 4.52 4.57 4.43 4.43 0 1 1 -8.86.07 4.43 4.43 0 0 1 4.34-4.64z" fill="#fdc607"/><path d="m208.93 364.36a4.5 4.5 0 0 1 .06 9 4.48 4.48 0 0 1 -4.39-4.61 4.28 4.28 0 0 1 4.33-4.39z" fill="#fdc505"/><path d="m77.37 335.83a4.24 4.24 0 0 1 -4.37 4.35 4.51 4.51 0 0 1 -4.53-4.48 4.45 4.45 0 1 1 8.89.13z" fill="#ff7241"/><path d="m136.72 348.34a4.61 4.61 0 0 1 4.57 4.49 4.42 4.42 0 1 1 -8.83.2 4.41 4.41 0 0 1 4.26-4.69z" fill="#fdc505"/><path d="m322.28 204.65a4.47 4.47 0 0 1 -4.55-4.44 4.41 4.41 0 1 1 8.82 0 4.21 4.21 0 0 1 -4.27 4.44z" fill="#fdc505"/><path d="m61.86 197.77a4.38 4.38 0 0 1 4.24-4.5 4.6 4.6 0 0 1 4.59 4.45 4.42 4.42 0 1 1 -8.83.05z" fill="#ff713f"/><path d="m95.66 394.55a4.49 4.49 0 0 1 -.09-9 4.56 4.56 0 0 1 4.45 4.6 4.34 4.34 0 0 1 -4.36 4.4z" fill="#ff7241"/><path d="m181.93 384.52a4.37 4.37 0 0 1 4.29-4.46 4.64 4.64 0 0 1 4.56 4.71 4.43 4.43 0 1 1 -8.85-.25z" fill="#ff713f"/><path d="m212 405.08a4.34 4.34 0 0 1 -4.43-4.5 4.27 4.27 0 0 1 4.22-4.47 4.51 4.51 0 0 1 4.6 4.61 4.35 4.35 0 0 1 -4.39 4.36z" fill="#fdc505"/><path d="m220.24 355.67a4.2 4.2 0 0 1 -4.25 4.42 4.5 4.5 0 1 1 4.25-4.42z" fill="#ff7241"/><path d="m342 133.17c.79-.06.61-.73.78-1.2 1.22-3.31 4.73-4.38 7.51-1.54a4.75 4.75 0 0 1 .28 5.61c-.34.49-.65 1-1 1.48a4.35 4.35 0 0 1 -.58.13c-4.05.4-5.56-.56-6.99-4.48z" fill="#fd5701"/><path d="m346.74 146.32a4.33 4.33 0 0 1 -4.42 4.29 4.55 4.55 0 0 1 -4.35-4.46 4.39 4.39 0 1 1 8.77.17z" fill="#48d8f9"/><path d="m303.3 184.35a4.45 4.45 0 0 1 -4.34-4.42 4.54 4.54 0 0 1 4.35-4.45 4.64 4.64 0 0 1 4.45 4.59 4.38 4.38 0 0 1 -4.46 4.28z" fill="#48d8f9"/><path d="m417 146.14a4.33 4.33 0 0 1 4.29-4.41 4.57 4.57 0 0 1 4.4 4.4 4.34 4.34 0 0 1 -4.44 4.48 4.39 4.39 0 0 1 -4.25-4.47z" fill="#48d8f9"/><path d="m326.44 440a4.47 4.47 0 0 1 4.44 4.34 4.36 4.36 0 0 1 -4.15 4.38 4.3 4.3 0 0 1 -4.37-4.34 4.17 4.17 0 0 1 4.08-4.38z" fill="#fdc607"/><path d="m363.61 200.27a4.34 4.34 0 1 1 -4.35-4.45 4.47 4.47 0 0 1 4.35 4.45z" fill="#47d8f9"/><path d="m273.91 445.7a4.19 4.19 0 0 1 -4.26-4.4 4.09 4.09 0 0 1 4.21-4.21 4.35 4.35 0 0 1 4.31 4.41 4.16 4.16 0 0 1 -4.26 4.2z" fill="#ff7241"/><path d="m329.33 120.45a4.19 4.19 0 0 1 -4.08 4.38 4.35 4.35 0 0 1 -4.44-4.29 4.25 4.25 0 0 1 4.1-4.39 4.34 4.34 0 0 1 4.42 4.3z" fill="#fdc607"/><path d="m311.67 436.34a4.21 4.21 0 0 1 -4.26-4.41 4.12 4.12 0 0 1 4.22-4.2 4.28 4.28 0 0 1 4.29 4.41 4.15 4.15 0 0 1 -4.25 4.2z" fill="#ff7241"/><path d="m186.15 196.07a4 4 0 0 1 -4.31 4.09 4.2 4.2 0 0 1 -4.24-4.44 4.31 4.31 0 0 1 4.4-4.11 4.1 4.1 0 0 1 4.15 4.46z" fill="#48d8f9"/><path d="m82.67 305.26a4.28 4.28 0 1 1 0-8.56 4.28 4.28 0 1 1 0 8.56z" fill="#48d8f9"/><path d="m162.87 346.57a4.3 4.3 0 0 1 -4.28-4.41 4.15 4.15 0 0 1 4.07-4.16 4.36 4.36 0 0 1 4.4 4.31 4.2 4.2 0 0 1 -4.19 4.26z" fill="#fdc607"/><path d="m209.55 109.27a4.25 4.25 0 1 1 4.1-4.29 4.07 4.07 0 0 1 -4.1 4.29z" fill="#48d8f9"/><path d="m306.7 448.52a4 4 0 0 1 -4.2-4.22 4.14 4.14 0 0 1 4.19-4.28 4.38 4.38 0 0 1 4.14 4.43 4 4 0 0 1 -4.13 4.07z" fill="#47d8f9"/><path d="m164.5 423c.28 1.11.57 2.22.85 3.33a6.83 6.83 0 0 1 -2.21 3.48 1.33 1.33 0 0 0 -.34 0 3.83 3.83 0 0 0 -4.93-.69 2.14 2.14 0 0 0 -.35-.06 15.29 15.29 0 0 1 -1.08-3 3.9 3.9 0 0 1 2-4.08 4.17 4.17 0 0 1 4.74.11c.46.24.89.56 1.32.91z" fill="#fcc504"/><path d="m246.35 91.7a4 4 0 0 1 4.28 4.13 4.24 4.24 0 0 1 -4.13 4.35 4.43 4.43 0 0 1 -4.23-4.34 4.07 4.07 0 0 1 4.08-4.14z" fill="#47d8f9"/><path d="m395.92 399.45a10.72 10.72 0 0 1 -7.47 9.62 1.4 1.4 0 0 1 -.34-.13 16.62 16.62 0 0 1 -.73-2.51 6.47 6.47 0 0 1 7.16-7.42c.4 0 .8.14 1.2.21z" fill="#465f3d"/><path d="m467.7 326.34a4.34 4.34 0 0 1 -3.48-4.68 4.43 4.43 0 0 1 3.82-4.07 4.31 4.31 0 0 1 4.71 3 14.51 14.51 0 0 1 .1 3.37.8.8 0 0 0 -.31.14c-2.23-.58-3.67.56-4.84 2.24z" fill="#fcc504"/><path d="m311.69 399.65a4.34 4.34 0 0 1 -4.14-4.18 4.15 4.15 0 0 1 4.07-4.17 4.25 4.25 0 0 1 4.14 4.15 4.2 4.2 0 0 1 -4.07 4.2z" fill="#ff7241"/><path d="m248.51 81a4 4 0 0 1 4.05-4.11 4.23 4.23 0 0 1 4.07 4.2 4.06 4.06 0 1 1 -8.12-.09z" fill="#fdc607"/><path d="m205.29 182.74a4 4 0 0 1 -4.18 4 4.22 4.22 0 0 1 -4-4.28 4 4 0 0 1 4.21-4 4.11 4.11 0 0 1 3.97 4.28z" fill="#fdc607"/><path d="m157.52 429a2.14 2.14 0 0 1 .35.06 3.86 3.86 0 0 0 4.93.69 1.33 1.33 0 0 1 .34 0 5.1 5.1 0 0 1 1.07 3.4 4.36 4.36 0 0 1 -4.16 4.16 4.47 4.47 0 0 1 -4.43-3.92 4.85 4.85 0 0 1 1.9-4.39z" fill="#46d7f7"/><path d="m259.85 278.81a4 4 0 0 1 -4.15 4 4.2 4.2 0 0 1 -4-4.28 4.09 4.09 0 0 1 4.17-4 4.17 4.17 0 0 1 3.98 4.28z" fill="#ff7241"/><path d="m324 68.46a4 4 0 1 1 -8.08.19 4.05 4.05 0 0 1 3.91-4.28 4.21 4.21 0 0 1 4.17 4.09z" fill="#fdc607"/><path d="m343.42 177.05-.37-.11c-.36-2.41-1.91-4-3.77-5.34.94-2.91 3.32-4.22 5.84-3.23a4.54 4.54 0 0 1 2.4 6.33 4.09 4.09 0 0 1 -4.1 2.35z" fill="#fdc505"/><path d="m397.17 211.05a4.16 4.16 0 0 1 4.21 4 4.05 4.05 0 0 1 -4 4.2 4.16 4.16 0 0 1 -4.22-4 4.06 4.06 0 0 1 4.01-4.2z" fill="#ff713f"/><path d="m199 454.84a3.89 3.89 0 0 1 3.92-4 4.11 4.11 0 0 1 4.14 4.07 4 4 0 1 1 -8.06-.08z" fill="#ff7241"/><path d="m348 437.92a16.07 16.07 0 0 1 .8 1.61 4 4 0 0 1 -2.37 5.24 4.11 4.11 0 0 1 -5.16-2.65 4 4 0 0 1 2.73-5.12 16.77 16.77 0 0 1 2.36-.34l.51.44z" fill="#48d8f9"/><path d="m205.51 140.85a3.87 3.87 0 0 1 3.93-4 4.17 4.17 0 0 1 4.05 4.22 4 4 0 0 1 -4.11 3.88 3.94 3.94 0 0 1 -3.87-4.1z" fill="#48d8f9"/><path d="m316 86.57a3.94 3.94 0 0 1 -4-3.86 4.12 4.12 0 0 1 4-4.18 4.22 4.22 0 0 1 3.95 4.08 3.85 3.85 0 0 1 -3.95 3.96z" fill="#48d8f9"/><path d="m472.54 324.05a.8.8 0 0 1 .31-.14l.87.48a4.33 4.33 0 0 1 -3.81 7.77 4.18 4.18 0 0 1 -2.12-5.54c2.07.04 3.87-.41 4.75-2.57z" fill="#46d7f7"/><path d="m259.92 496.51a2.25 2.25 0 0 0 -.08-.24 6 6 0 0 0 -.69-8.49c0-.1 0-.21 0-.31a14.85 14.85 0 0 1 2.75-.54 4.91 4.91 0 0 1 4.85 5.15 4.8 4.8 0 0 1 -5 4.7 13.72 13.72 0 0 1 -1.83-.27z" fill="#fe703e"/><path d="m105.29 134.86a4.06 4.06 0 0 1 3.93 4.06 4 4 0 0 1 -3.82 3.93 4.13 4.13 0 0 1 -4-4 4 4 0 0 1 3.89-3.99z" fill="#fdc607"/><path d="m417.62 380.66a3.89 3.89 0 0 1 3.95 3.95 3.84 3.84 0 0 1 -3.75 3.94 4 4 0 0 1 -4.07-4.08 3.84 3.84 0 0 1 3.87-3.81z" fill="#ff7241"/><path d="m227.55 466.27a6.28 6.28 0 0 1 -9.48-1.77c-.3-.52-.54-1.07-.81-1.61 0-.14.09-.27.13-.4 1.76-1.07 3.58-1.81 5.7-1.11a5.92 5.92 0 0 1 4.46 4.89z" fill="#178e05"/><path d="m222.19 427.53c-2.78-3.34-3.26-7.22-2.63-11.35.07-.46.15-.92.23-1.38l.31-.11a25.09 25.09 0 0 1 2.69 2.09c2.83 2.85 2.55 8.62-.6 10.75z" fill="#465f3d"/><path d="m400.44 143 .78-2.23a17.88 17.88 0 0 1 1.49-1 3.8 3.8 0 0 1 5.19 1.57 3.88 3.88 0 0 1 -1.56 5.21 3.77 3.77 0 0 1 -5.14-1.68c-.3-.65-.51-1.28-.76-1.87z" fill="#ff7241"/><path d="m396.39 119.75a3.9 3.9 0 0 1 -3.74-4 3.75 3.75 0 0 1 3.93-3.71 3.89 3.89 0 0 1 3.66 4 3.84 3.84 0 0 1 -3.85 3.71z" fill="#ff7241"/><path d="m125.27 411.24a4.22 4.22 0 0 1 -2.41-2.83 3.78 3.78 0 1 1 6.08 2.12 9.58 9.58 0 0 1 -1.39.82z" fill="#fdc607"/><path d="m215.21 89.41a10 10 0 0 1 .32 2.57 4.2 4.2 0 0 1 -7.41 2.23 4.19 4.19 0 0 1 -.65-4.71 7.21 7.21 0 0 1 1.09-1.41h.32c1.71 2.38 3.56 2.78 6 1.32z" fill="#fdc607"/><path d="m125.27 411.24 2.28.11a10.22 10.22 0 0 1 1.32.9 3.78 3.78 0 0 1 0 5.55 3.6 3.6 0 0 1 -5.34-.44 3.83 3.83 0 0 1 .56-5.38 11.89 11.89 0 0 1 1.18-.74z" fill="#48d8f9"/><path d="m122 388.37a3.49 3.49 0 0 1 -3.67 3.7 3.77 3.77 0 0 1 -3.68-3.8 3.66 3.66 0 0 1 3.72-3.73 3.7 3.7 0 0 1 3.63 3.83z" fill="#48d8f9"/><path d="m292.52 467.23a6.9 6.9 0 0 1 -5.28 0 6.8 6.8 0 0 1 -3.93-5.23l.16-.26a7.34 7.34 0 0 1 4.15-.42 6.45 6.45 0 0 1 4.72 4.29c.16.45.29.9.43 1.35a3.76 3.76 0 0 1 -.25.27z" fill="#178e05"/><path d="m270.6 71.54-.36-.14c-1.21-3.06-.89-4.56 1.38-6.41l1.25 1a7.54 7.54 0 0 0 5.28 1.82 1.92 1.92 0 0 1 .32.09 5.61 5.61 0 0 1 -2.2 4.93h-.47a6.63 6.63 0 0 0 -5.2-1.29z" fill="#fe703e"/><path d="m90 170.08a12.2 12.2 0 0 1 1.72.51 4.53 4.53 0 0 1 2.7 4.5 4.32 4.32 0 0 1 -3.37 4c-.39.11-.78.2-1.17.3l-.58-.39a8.77 8.77 0 0 1 .24-8.75z" fill="#465f3d"/><path d="m408.37 189.19a3.91 3.91 0 0 1 3.93-3.26 4.36 4.36 0 0 1 4.23 3.82 20.3 20.3 0 0 1 -.41 3.35l-.4.14a10.29 10.29 0 0 1 -7.35-4.05z" fill="#fd5701"/><path d="m215.21 89.41h-.31a11.34 11.34 0 0 0 -1.41-1.65c-1.52-1.21-3.06-1.06-4.61.33h-.32a6.63 6.63 0 0 1 .31-4.68l.4-.16a4.69 4.69 0 0 0 4.23-1.45l.36-.1.31.25c3.15 2.05 3.51 4.61 1.04 7.46z" fill="#ff713f"/><path d="m177.15 90.23c-.58 2.58-2.43 3.74-5.06 3.15a4.06 4.06 0 0 1 -2.74-5c.13-.44.32-.87.48-1.31a.54.54 0 0 1 .34-.16c2.77.14 5.41.62 6.98 3.32z" fill="#fd5701"/><path d="m423.1 354.72a5.19 5.19 0 0 1 3.68-1.85 4.54 4.54 0 0 1 4.29 5.44 12 12 0 0 1 -.54 1.52l-.41.2a8.68 8.68 0 0 1 -7.05-4.82z" fill="#465f3d"/><path d="m345.54 433a3.32 3.32 0 0 0 .37-.47c1.18-2.38 2.86-3.2 5-2.43a4.16 4.16 0 0 1 2.62 5.2c-.07.33-.16.65-.25 1l-.51.33a11.12 11.12 0 0 1 -7.05-2.89z" fill="#fd5701"/><path d="m172.61 393.69c1.16 4.29-.89 7.58-5.61 9a3 3 0 0 0 -.31-.15c0-.87-.11-1.74-.1-2.62.03-2.76 2.62-6.18 6.02-6.23z" fill="#178e05"/><path d="m335.36 187a10.53 10.53 0 0 1 -.53-2.92 4.26 4.26 0 0 1 6.93-3c.32.24.62.51.93.77v.48a9 9 0 0 1 -7 4.79z" fill="#465f3d"/><path d="m181.4 347a4.26 4.26 0 0 1 2.29 4.85 4.38 4.38 0 0 1 -3.69 3.5 11.89 11.89 0 0 1 -1.2.1l-.35-.32a22.39 22.39 0 0 1 0-2.59 6.94 6.94 0 0 1 2.95-5.54z" fill="#465f3d"/><path d="m181.4 347a6.94 6.94 0 0 0 -3 5.54 22.39 22.39 0 0 0 0 2.59 4.43 4.43 0 1 1 2-8.64c.33.07.65.16 1 .24a.82.82 0 0 1 0 .27z" fill="#ff7241"/><path d="m101.91 170.89c-2.56 1-5.11 1.14-7.5-.43a22.65 22.65 0 0 1 -2.4-2.11l.06-.29c3.94-1.67 7.21-.7 9.89 2.54.04.09-.03.19-.05.29z" fill="#178e05"/><path d="m446.7 175a2.78 2.78 0 0 1 -2.85 2.78 2.85 2.85 0 0 1 -2.66-2.8 2.68 2.68 0 0 1 2.75-2.84 2.72 2.72 0 0 1 2.76 2.86z" fill="#fdc607"/><path d="m335.74 187.2a9 9 0 0 0 7-4.79c1.29 2.31.83 4.64-1.2 6s-4.24.84-5.8-1.21z" fill="#46d7f7"/><path d="m478.63 289.09a2.66 2.66 0 0 1 -2.69 2.7 2.6 2.6 0 0 1 -2.6-2.74 2.49 2.49 0 0 1 2.56-2.55 2.54 2.54 0 0 1 2.73 2.59z" fill="#48d8f9"/><path d="m271.27 225.66a2.63 2.63 0 0 1 2.73-2.66 2.85 2.85 0 0 1 2.61 2.83 2.8 2.8 0 0 1 -2.63 2.59 2.68 2.68 0 0 1 -2.71-2.76z" fill="#48d8f9"/><path d="m72.5 383.92c-2.4-.56-4.41-1.64-5.38-4.08l.94-2.46c2.46.55 3.74 2.25 4.4 4.53a15.25 15.25 0 0 1 .33 1.79z" fill="#178e05"/><path d="m423.07 355.21a8.68 8.68 0 0 0 7.05 4.82 4.23 4.23 0 0 1 -5.69 1 4.36 4.36 0 0 1 -1.36-5.82z" fill="#46d7f7"/><path d="m89.54 170.27a8.77 8.77 0 0 0 -.24 8.73 4.25 4.25 0 0 1 -3.81-4.36c.01-2.34 1.42-3.88 4.05-4.37z" fill="#ff7241"/><path d="m408.37 189.19a10.29 10.29 0 0 0 7.35 4.05c-1.65 1.75-3.55 2.19-5.42 1.24s-2.72-2.84-2.26-5.3z" fill="#fdc607"/><path d="m165.83 101.6a8.65 8.65 0 0 1 9.21.87v.28a9 9 0 0 1 -9.19-.85c-.03-.1-.03-.2-.02-.3z" fill="#178e05"/><path d="m345.71 433.75a11.12 11.12 0 0 0 7.05 2.89c-1.22 1.73-2.93 1.65-4.73 1.28l-1.17-.81-.51-.44c-.2-.95-.42-1.94-.64-2.92z" fill="#fdc607"/><path d="m177.15 90.23c-1.57-2.7-4.21-3.18-7-3.37a3.51 3.51 0 0 1 4.22-1.38 3.81 3.81 0 0 1 2.85 3.29c.07.46.11.93.16 1.39z" fill="#ff7241"/><path d="m278.15 67.76a7.54 7.54 0 0 1 -5.28-1.82l-1.25-1a1.54 1.54 0 0 1 .05-.31c2.85-.83 4.67-.31 6.09 1.8a4.35 4.35 0 0 1 .39 1.33z" fill="#fd5701"/><path d="m339.28 171.6c1.86 1.35 3.41 2.93 3.77 5.34-2-.05-3-1.26-3.57-3a14.07 14.07 0 0 1 -.4-2.35.13.13 0 0 1 .2.01z" fill="#fd5701"/><path d="m472.54 324.05c-.88 2.16-2.68 2.61-4.75 2.57a1.31 1.31 0 0 0 -.09-.28c1.17-1.68 2.61-2.82 4.84-2.29z" fill="#178e05"/><path d="m270.6 71.54a6.63 6.63 0 0 1 5.2 1.23c-2.21.95-3.55.63-5.2-1.23z" fill="#465f3d"/><path d="m273 176.53a7.57 7.57 0 0 1 -6.07 6.63 7.55 7.55 0 0 1 6.07-6.63z" fill="#178e05"/><path d="m394.48 147.29c-3.64.54-6.51-.62-8.43-3.85a7.69 7.69 0 0 1 8.43 3.85z" fill="#178e05"/><path d="m246.46 465.54a4.43 4.43 0 0 1 -.11-8.85 4.42 4.42 0 0 1 4.33 4.44 4.08 4.08 0 0 1 -4.22 4.41z" fill="#465f3d"/><path d="m381.41 146.12c5.06.91 8.29 8.79 3.86 13.44-4.98-1.03-8.39-8.4-3.86-13.44z" fill="#465f3d"/><path d="m456 376.55a5.79 5.79 0 0 1 -5.26-4.49 5.55 5.55 0 0 1 5.26 4.49z" fill="#178e05"/><path d="m213.5 81.8a4.69 4.69 0 0 1 -4.23 1.45 3.61 3.61 0 0 1 4.23-1.45z" fill="#465f3d"/><path d="m68.06 377.38-.94 2.46c-.5.3-1 .59-1.49.9a5.69 5.69 0 0 1 -5.25.88c.78-3.13 3-4.38 6-4.69l1.62.19a2.38 2.38 0 0 1 .06.26z" fill="#465f3d"/><path d="m68 377.12-1.62-.19c.48-1.21.27-2.73 1.59-3.57a4.09 4.09 0 0 1 .03 3.76z" fill="#fd5701"/><path d="m259.15 487.78a6 6 0 0 1 .69 8.49c-3.63-1.9-3.96-6.05-.69-8.49z" fill="#465f3d"/><path d="m162.8 429.72a3.86 3.86 0 0 1 -4.93-.69 3.83 3.83 0 0 1 4.93.69z" fill="#178e05"/><path d="m346.35 436.67.51.44z" fill="#fff"/><path d="m208.88 88.1c1.55-1.39 3.09-1.54 4.61-.33a11.34 11.34 0 0 1 1.41 1.65c-2.46 1.46-4.31 1.06-6.02-1.32z" fill="#fd5701"/><g fill="#fff"><path d="m66.29 262.62h13.79v-35.52h-13.79v-9.51h38.33v9.51h-13.87v35.52h13.87v9.5h-38.33z"/><path d="m114.51 218.14a71.35 71.35 0 0 1 7.21-1c2.62-.24 5.23-.35 7.83-.35a51.05 51.05 0 0 1 8.14.66 20.17 20.17 0 0 1 7.36 2.65 15.23 15.23 0 0 1 5.33 5.53 18.15 18.15 0 0 1 2.07 9.23 18.78 18.78 0 0 1 -1.79 8.53 17.06 17.06 0 0 1 -4.75 5.84 19.38 19.38 0 0 1 -6.74 3.35 29.12 29.12 0 0 1 -7.83 1h-1.25c-.57 0-1.17 0-1.79 0s-1.23-.06-1.83-.11-1-.11-1.29-.16v18.77h-10.67zm15.89 7.86c-1 0-2 0-3 .11s-1.68.17-2.26.28v17.68c.21 0 .52.1.94.16s.86.09 1.32.11.92 0 1.37 0h1a22.47 22.47 0 0 0 4.23-.34 10.36 10.36 0 0 0 3.7-1.44 7.49 7.49 0 0 0 2.61-2.92 10.64 10.64 0 0 0 1-4.91 8.64 8.64 0 0 0 -.93-4.24 7.6 7.6 0 0 0 -2.46-2.69 9.48 9.48 0 0 0 -3.46-1.4 20.27 20.27 0 0 0 -4.06-.4z"/><path d="m162.11 217.59h34.59v9.51h-23.92v13.47h22.22v9.51h-22.2v22h-10.69z"/><path d="m207.37 254.28h8.57v7.72l.46.15a23.64 23.64 0 0 0 3.94 1.29 19.59 19.59 0 0 0 4.55.5 11.37 11.37 0 0 0 6.78-1.75 5.54 5.54 0 0 0 2.42-4.71 5.27 5.27 0 0 0 -2-4.29 19.93 19.93 0 0 0 -4.91-2.88c-1.94-.83-4.08-1.66-6.39-2.49a29.88 29.88 0 0 1 -6.38-3.16 17.5 17.5 0 0 1 -4.91-4.79 12.86 12.86 0 0 1 -2-7.48 15 15 0 0 1 1.37-6.42 14.79 14.79 0 0 1 3.81-5 17.79 17.79 0 0 1 5.89-3.27 23.45 23.45 0 0 1 7.63-1.17 51.06 51.06 0 0 1 9.35.86 25.2 25.2 0 0 1 7.32 2.34v15.81h-8.57v-8.65a1.53 1.53 0 0 1 -.47-.07 27.2 27.2 0 0 0 -3.7-.74 27.54 27.54 0 0 0 -3.93-.28 10.27 10.27 0 0 0 -5.88 1.48 4.61 4.61 0 0 0 -2.14 4 5.2 5.2 0 0 0 2 4.2 21.94 21.94 0 0 0 4.91 3q2.92 1.34 6.39 2.65a33.76 33.76 0 0 1 6.38 3.23 17.53 17.53 0 0 1 4.91 4.8 12.41 12.41 0 0 1 2 7.24 16.41 16.41 0 0 1 -1.56 7.36 14.92 14.92 0 0 1 -4.36 5.3 19.14 19.14 0 0 1 -6.62 3.19 31.09 31.09 0 0 1 -8.26 1 30.39 30.39 0 0 1 -5.49-.46 35.54 35.54 0 0 1 -4.68-1.17 32 32 0 0 1 -3.8-1.52c-1.1-.52-2-1-2.65-1.33z"/><path d="m314 253.82h8.57v15.58a19.12 19.12 0 0 1 -6.35 2.8 30.8 30.8 0 0 1 -7.91 1 31.26 31.26 0 0 1 -9.77-1.51 21.06 21.06 0 0 1 -8.14-4.91 24.15 24.15 0 0 1 -5.61-8.8 36.4 36.4 0 0 1 -2.1-13.13 33.56 33.56 0 0 1 2.37-13.44 24.58 24.58 0 0 1 6.12-8.72 22.82 22.82 0 0 1 8.33-4.76 30.17 30.17 0 0 1 9-1.44 34.29 34.29 0 0 1 7.91.78 27.52 27.52 0 0 1 5.33 1.79v16.21h-8.57v-8.87a31.2 31.2 0 0 0 -5-.39 13.94 13.94 0 0 0 -5.65 1.13 12.15 12.15 0 0 0 -4.53 3.46 16.84 16.84 0 0 0 -3 5.88 28.93 28.93 0 0 0 -1.09 8.38 27.12 27.12 0 0 0 1 7.67 17.44 17.44 0 0 0 3 6 13.35 13.35 0 0 0 4.75 3.86 14.42 14.42 0 0 0 6.39 1.36 26.28 26.28 0 0 0 5-.47z"/><path d="m333.17 235.82a42.53 42.53 0 0 1 7.21-2.41 40.49 40.49 0 0 1 9.7-1 21.37 21.37 0 0 1 6.89 1 11.57 11.57 0 0 1 4.6 2.76 10.57 10.57 0 0 1 2.53 4.29 18.74 18.74 0 0 1 .78 5.61c0 2.65-.09 4.9-.27 6.77a49.93 49.93 0 0 0 -.28 5c0 1.09.05 2.31.16 3.66.1.73.18 1.43.23 2.1h5.07v8.57h-13.08l-1-5.29h-.39a13.31 13.31 0 0 1 -4.41 4.16 14.75 14.75 0 0 1 -7.75 1.76q-5.81 0-9.21-3.12a10.66 10.66 0 0 1 -3.4-8.26 12.35 12.35 0 0 1 1.19-5.64 10 10 0 0 1 3.49-3.9 16.7 16.7 0 0 1 5.49-2.26 32.15 32.15 0 0 1 7.16-.74 27.68 27.68 0 0 1 2.94.16c1 .1 2.3.21 3.8.31a8.24 8.24 0 0 0 .15-1.56v-1.48c0-2-.56-3.39-1.7-4.24a8.24 8.24 0 0 0 -5-1.29 23.44 23.44 0 0 0 -7.11 1 45.43 45.43 0 0 0 -5.34 2zm13.26 28.59a9.33 9.33 0 0 0 5.55-1.36 9.11 9.11 0 0 0 2.69-2.92v-4.68c-.51-.1-1.28-.22-2.31-.35a26.48 26.48 0 0 0 -3.31-.19 16.13 16.13 0 0 0 -2.93.27 9.53 9.53 0 0 0 -2.61.86 5 5 0 0 0 -1.85 1.52 3.62 3.62 0 0 0 -.7 2.26 4.46 4.46 0 0 0 1.27 3.38 6 6 0 0 0 4.2 1.21z"/><path d="m391.67 272.12v-23.83a18.37 18.37 0 0 0 -.31-3.78 7.5 7.5 0 0 0 -.81-2.26 2.49 2.49 0 0 0 -1.25-1.09 4.39 4.39 0 0 0 -1.52-.27 4 4 0 0 0 -2.45.85 4.12 4.12 0 0 0 -1.52 2.18v28.2h-9.35v-39h7.4l1.09 4.29h.23a9.5 9.5 0 0 1 3.43-3.7 9.65 9.65 0 0 1 5.3-1.44 10.32 10.32 0 0 1 4.91 1.24 6.65 6.65 0 0 1 3.19 4.37 8.68 8.68 0 0 1 3.58-4.17 10 10 0 0 1 5.22-1.44 11.41 11.41 0 0 1 3.78.58 6.62 6.62 0 0 1 2.92 2.07 10.06 10.06 0 0 1 1.91 4 26.42 26.42 0 0 1 .66 6.5v26.64h-9.35v-24.86c0-2.34-.37-4-1.13-4.91a3.4 3.4 0 0 0 -2.76-1.4 4.28 4.28 0 0 0 -2.41.66 3.46 3.46 0 0 0 -1.41 2.14v28.43z"/><path d="m419.64 233.17h13.24l1.17 4.68h.31q4-5.76 13.09-5.77a18.59 18.59 0 0 1 6.58 1.13 12.94 12.94 0 0 1 5.15 3.55 16.76 16.76 0 0 1 3.31 6.07 29.54 29.54 0 0 1 1.16 8.81 28.65 28.65 0 0 1 -1.32 9 19 19 0 0 1 -3.82 6.82 16.31 16.31 0 0 1 -6.07 4.28 21.23 21.23 0 0 1 -8.18 1.48 31.29 31.29 0 0 1 -4.76-.35 13 13 0 0 1 -3.89-1.13v16h-10.13v-46h-5.84zm24.77 7.48a10.32 10.32 0 0 0 -5.41 1.48 7.66 7.66 0 0 0 -3.39 4.44v16.21a8.41 8.41 0 0 0 3.16 1.36 17.22 17.22 0 0 0 4.16.5 10.92 10.92 0 0 0 4.05-.73 8.42 8.42 0 0 0 3.28-2.38 11.65 11.65 0 0 0 2.18-4.13 20.23 20.23 0 0 0 .78-6c0-3.43-.84-6.07-2.5-7.94a8.07 8.07 0 0 0 -6.31-2.81z"/><path d="m114.33 301.4a7.19 7.19 0 0 1 -.34 2.15 7.07 7.07 0 0 1 -1 2 6.49 6.49 0 0 1 -1.72 1.66 7.92 7.92 0 0 1 -2.48 1.1v.17a10.53 10.53 0 0 1 2.42.71 6.68 6.68 0 0 1 2 1.4 6.92 6.92 0 0 1 1.43 2.14 7.65 7.65 0 0 1 .54 3 7.84 7.84 0 0 1 -.94 3.94 8.11 8.11 0 0 1 -2.48 2.72 11.19 11.19 0 0 1 -3.51 1.56 16.62 16.62 0 0 1 -4 .5h-1.68c-.65 0-1.32 0-2-.06s-1.41-.1-2.11-.17a11.06 11.06 0 0 1 -1.85-.32v-29c1-.16 2.25-.3 3.62-.42s2.87-.17 4.5-.17a21.3 21.3 0 0 1 3.34.28 9.11 9.11 0 0 1 3.09 1.05 6.51 6.51 0 0 1 2.29 2.17 6.42 6.42 0 0 1 .88 3.59zm-12.06 6.23h1.73s1.24-.07 1.69-.12a11.61 11.61 0 0 0 1.9-.83 7.32 7.32 0 0 0 1.58-1.16 5.33 5.33 0 0 0 1.09-1.51 4.25 4.25 0 0 0 .4-1.86 4.66 4.66 0 0 0 -.52-2.32 4.17 4.17 0 0 0 -1.42-1.47 5.69 5.69 0 0 0 -2-.76 12.75 12.75 0 0 0 -2.32-.21q-1.39 0-2.55.06a12.66 12.66 0 0 0 -1.75.19v10zm2.32 13.83a10 10 0 0 0 2.62-.34 7 7 0 0 0 2.23-1 5 5 0 0 0 1.54-1.69 4.79 4.79 0 0 0 .57-2.4 4.61 4.61 0 0 0 -2.51-4.43 7.69 7.69 0 0 0 -2.51-.79 17.36 17.36 0 0 0 -2.78-.22h-3.67v10.58a4.37 4.37 0 0 0 .85.13l1.18.09 1.3.06z"/><path d="m122.21 304.73a13.22 13.22 0 0 1 4.09-1.52 22.35 22.35 0 0 1 4.47-.47 8 8 0 0 1 3.52.68 5.7 5.7 0 0 1 2.15 1.75 6.08 6.08 0 0 1 1.05 2.44 14.19 14.19 0 0 1 .27 2.76c0 1.07 0 2.21-.08 3.42s-.1 2.41-.13 3.62a30.14 30.14 0 0 0 .26 4h2.82v2.74h-5.57l-.37-3.17h-.21a9.63 9.63 0 0 1 -.77 1 6.22 6.22 0 0 1 -1.33 1.16 8.56 8.56 0 0 1 -2 1 8.3 8.3 0 0 1 -2.79.43 7.2 7.2 0 0 1 -4.94-1.61 5.54 5.54 0 0 1 -1.82-4.38 6.36 6.36 0 0 1 1-3.58 6 6 0 0 1 2.73-2.2 12.77 12.77 0 0 1 4.29-.88 29.11 29.11 0 0 1 5.64.34 14.36 14.36 0 0 0 .07-3.23 4.5 4.5 0 0 0 -.68-2 2.88 2.88 0 0 0 -1.48-1.08 7.56 7.56 0 0 0 -2.35-.31 12.08 12.08 0 0 0 -3.63.53c-1.16.35-2.19.71-3.09 1.07zm6.24 17a6.46 6.46 0 0 0 4-1.35 6.4 6.4 0 0 0 1.27-1.28 6.29 6.29 0 0 0 .75-1.33v-2.97a24.13 24.13 0 0 0 -4-.38 11.26 11.26 0 0 0 -3.21.4 4.49 4.49 0 0 0 -2.1 1.24 3.16 3.16 0 0 0 -.76 2.19 3.45 3.45 0 0 0 1 2.43 4.15 4.15 0 0 0 3.05 1.03z"/><path d="m145.73 324.16v-2.83h5.69v-15.42h-5.69v-2.83h7.88l.68 2.74h.21a15.13 15.13 0 0 1 3.2-2.23 9 9 0 0 1 4.22-.93 4.23 4.23 0 0 1 2.3.55 3.61 3.61 0 0 1 1.34 1.6 8.32 8.32 0 0 1 .66 2.55 31.18 31.18 0 0 1 .17 3.39l-2.95.05a10.9 10.9 0 0 0 -.53-3.94 1.92 1.92 0 0 0 -1.92-1.25 7 7 0 0 0 -2.36.38 7.83 7.83 0 0 0 -1.83.92 9.73 9.73 0 0 0 -1.33 1.1 6.2 6.2 0 0 0 -.8.92v12.4h8.09v2.83z"/><path d="m186.74 306.33a15 15 0 0 0 -2.08-.57 10.55 10.55 0 0 0 -2.22-.24q-4.12 0-6.15 2c-1.35 1.3-2 3.35-2 6.17a8.66 8.66 0 0 0 .59 3.32 6.7 6.7 0 0 0 1.68 2.47 7.4 7.4 0 0 0 2.64 1.56 9.88 9.88 0 0 0 3.39.55 11.33 11.33 0 0 0 3.86-.68 9.84 9.84 0 0 0 3.14-1.8l1.41 2.39a10.84 10.84 0 0 1 -1.47 1.05 13.49 13.49 0 0 1 -2 1 14.66 14.66 0 0 1 -2.57.78 15.41 15.41 0 0 1 -3 .29 13.74 13.74 0 0 1 -4.83-.78 9.19 9.19 0 0 1 -3.48-2.23 9.57 9.57 0 0 1 -2.1-3.5 13.54 13.54 0 0 1 -.72-4.53 13.8 13.8 0 0 1 .74-4.72 8.92 8.92 0 0 1 5.5-5.59 12.61 12.61 0 0 1 4.42-.73 19.6 19.6 0 0 1 5.08.54 19.92 19.92 0 0 1 3.31 1.22v.13 5.86h-3z"/><path d="m215.83 321.5a10.89 10.89 0 0 1 -1.79 1.26 12.94 12.94 0 0 1 -2.26 1 17.3 17.3 0 0 1 -2.55.65 16.07 16.07 0 0 1 -2.68.23 11.87 11.87 0 0 1 -4.46-.78 8.54 8.54 0 0 1 -3.25-2.23 9.76 9.76 0 0 1 -2-3.48 14.31 14.31 0 0 1 -.68-4.55 14 14 0 0 1 .74-4.72 9.12 9.12 0 0 1 2.13-3.46 9.37 9.37 0 0 1 3.37-2.13 12.67 12.67 0 0 1 4.43-.73 13.46 13.46 0 0 1 3.5.46 6.86 6.86 0 0 1 3.05 1.75 8.23 8.23 0 0 1 2 3.54 16.69 16.69 0 0 1 .5 5.84h-16.2c0 2.52.68 4.42 2 5.67a7.74 7.74 0 0 0 5.45 1.87 9.61 9.61 0 0 0 2.25-.27 21.05 21.05 0 0 0 2.12-.65 12 12 0 0 0 1.79-.85 8.36 8.36 0 0 0 1.19-.84zm-8.83-16.14a11.62 11.62 0 0 0 -2.62.29 6.09 6.09 0 0 0 -2.19 1 5.47 5.47 0 0 0 -1.55 1.81 7.24 7.24 0 0 0 -.78 2.77h13.07a6.51 6.51 0 0 0 -1.79-4.33 5.69 5.69 0 0 0 -4.14-1.54z"/><path d="m223.83 294.65h7v22.42a5.78 5.78 0 0 0 .87 3.63 3.09 3.09 0 0 0 2.55 1.05 6.12 6.12 0 0 0 2.25-.42 10 10 0 0 0 2.38-1.43l1.52 2.32a9.38 9.38 0 0 1 -1.48 1 10.35 10.35 0 0 1 -1.65.78 12 12 0 0 1 -1.69.49 8.16 8.16 0 0 1 -1.56.17 8.81 8.81 0 0 1 -2.79-.41 4.72 4.72 0 0 1 -2.06-1.28 5.67 5.67 0 0 1 -1.24-2.34 12.79 12.79 0 0 1 -.43-3.61v-19.54h-3.71z"/><path d="m246.51 313.62a11.67 11.67 0 0 1 2.66-8.07c1.77-2 4.3-3 7.58-3a11 11 0 0 1 4.58.86 8.9 8.9 0 0 1 3.18 2.34 9.6 9.6 0 0 1 1.88 3.5 15.17 15.17 0 0 1 .61 4.34 14.48 14.48 0 0 1 -.68 4.57 9.51 9.51 0 0 1 -2 3.48 8.86 8.86 0 0 1 -3.22 2.21 11.54 11.54 0 0 1 -4.37.78 11.19 11.19 0 0 1 -4.55-.86 9 9 0 0 1 -3.2-2.34 9.68 9.68 0 0 1 -1.88-3.5 14.83 14.83 0 0 1 -.59-4.31zm3.5 0a12.4 12.4 0 0 0 .36 2.95 8.11 8.11 0 0 0 1.15 2.65 6 6 0 0 0 2.08 1.9 6.33 6.33 0 0 0 3.13.72 6.18 6.18 0 0 0 5.07-2.09q1.69-2.08 1.7-6.13a12.32 12.32 0 0 0 -.36-3 7.89 7.89 0 0 0 -1.14-2.62 6.07 6.07 0 0 0 -2.1-1.89 6.3 6.3 0 0 0 -3.13-.72 6.11 6.11 0 0 0 -5 2.07q-1.77 2.06-1.77 6.16z"/><path d="m273.32 310.46c0-.25 0-.58 0-1s0-.83-.06-1.27-.07-.86-.11-1.28-.09-.79-.15-1.1h-2.82v-2.74h5.65l.38 3.41h.21a7.6 7.6 0 0 1 1.11-1.41 9.15 9.15 0 0 1 1.63-1.26 8.4 8.4 0 0 1 4.46-1.24 12.76 12.76 0 0 1 3.38.43 5.26 5.26 0 0 1 2.49 1.49 6.9 6.9 0 0 1 1.51 2.91 17.78 17.78 0 0 1 .51 4.66v12.1h-3.31v-11.44a9.8 9.8 0 0 0 -1.14-5.26q-1.12-1.77-4.11-1.77a5.21 5.21 0 0 0 -2.12.45 7.3 7.3 0 0 0 -1.87 1.15 8.06 8.06 0 0 0 -1.47 1.66 6.83 6.83 0 0 0 -.92 2v13.21h-3.25z"/><path d="m299.24 304.73a13.22 13.22 0 0 1 4.09-1.52 22.35 22.35 0 0 1 4.47-.47 8 8 0 0 1 3.52.68 5.7 5.7 0 0 1 2.15 1.75 6.08 6.08 0 0 1 1 2.44 14.19 14.19 0 0 1 .27 2.76c0 1.07 0 2.21-.08 3.42s-.1 2.41-.12 3.62a30.18 30.18 0 0 0 .25 4h2.82v2.74h-5.57l-.37-3.17h-.21a10.9 10.9 0 0 1 -.76 1 6.55 6.55 0 0 1 -1.34 1.16 8.67 8.67 0 0 1 -2 1 8.36 8.36 0 0 1 -2.8.43 7.2 7.2 0 0 1 -4.94-1.61 5.54 5.54 0 0 1 -1.82-4.38 6.36 6.36 0 0 1 .95-3.58 6.07 6.07 0 0 1 2.73-2.2 12.77 12.77 0 0 1 4.29-.88 29.11 29.11 0 0 1 5.64.34 14.36 14.36 0 0 0 .07-3.23 4.5 4.5 0 0 0 -.68-2 2.84 2.84 0 0 0 -1.48-1.08 7.56 7.56 0 0 0 -2.35-.31 12.12 12.12 0 0 0 -3.63.53c-1.16.35-2.19.71-3.09 1.07zm6.24 17a6.46 6.46 0 0 0 4-1.35 6.4 6.4 0 0 0 1.27-1.28 6.29 6.29 0 0 0 .75-1.33v-2.97a24.13 24.13 0 0 0 -4-.38 11.3 11.3 0 0 0 -3.21.4 4.49 4.49 0 0 0 -2.1 1.24 3.16 3.16 0 0 0 -.76 2.19 3.49 3.49 0 0 0 .95 2.43 4.15 4.15 0 0 0 3.1 1.03z"/><path d="m357.53 302.11q0 3.88-3.67 8.64a71.36 71.36 0 0 1 -10.28 10.37h14.88v3h-18.76v-3c.54-.5 1.27-1.16 2.2-2s1.92-1.72 3-2.72 2.16-2.07 3.27-3.22a37.44 37.44 0 0 0 3-3.54 20.61 20.61 0 0 0 2.19-3.63 8.3 8.3 0 0 0 .84-3.5 5.71 5.71 0 0 0 -1.32-4 5.15 5.15 0 0 0 -4-1.46 12.46 12.46 0 0 0 -3.83.51 9.44 9.44 0 0 0 -2.83 1.48l-1.43-2.32a13.55 13.55 0 0 1 4-2 16.08 16.08 0 0 1 4.67-.63c2.64 0 4.64.71 6 2.15a8.12 8.12 0 0 1 2.07 5.87z"/><path d="m364 309.4a30 30 0 0 1 .63-6.43 14.78 14.78 0 0 1 1.9-4.8 8.65 8.65 0 0 1 3.21-3 9.67 9.67 0 0 1 4.6-1 10.32 10.32 0 0 1 4.8 1 8.13 8.13 0 0 1 3.19 2.95 13.61 13.61 0 0 1 1.77 4.78 34.32 34.32 0 0 1 .55 6.51 29.88 29.88 0 0 1 -.63 6.43 14.74 14.74 0 0 1 -1.9 4.81 8.73 8.73 0 0 1 -3.21 3 9.68 9.68 0 0 1 -4.61 1 9.43 9.43 0 0 1 -4.75-1.12 8.85 8.85 0 0 1 -3.21-3.14 14.18 14.18 0 0 1 -1.79-4.82 31.92 31.92 0 0 1 -.55-6.17zm3.5 0c0 .71 0 1.38.06 2s.09 1.28.15 1.89l12.56-11.38a8.38 8.38 0 0 0 -2.13-3.62 5.29 5.29 0 0 0 -3.82-1.35 5.43 5.43 0 0 0 -5.29 3.1c-1.03 2.09-1.5 5.21-1.5 9.36zm13.65 0a34 34 0 0 0 -.25-4.25l-12.52 11.42a8.84 8.84 0 0 0 2.15 3.83 5.07 5.07 0 0 0 3.75 1.44 5.49 5.49 0 0 0 5.29-3.08c1.09-2.05 1.61-5.17 1.61-9.36z"/><path d="m392.35 321.12h6.65v-22.12l-6.74 4.72-1.65-2.4 9.27-6.62h2.37v26.47h6.49v3h-16.39z"/><path d="m414.86 303.55a10.45 10.45 0 0 1 .63-3.65 8.35 8.35 0 0 1 1.92-3 9.28 9.28 0 0 1 3.19-2 12.3 12.3 0 0 1 4.44-.73 11.18 11.18 0 0 1 4.22.75 8.7 8.7 0 0 1 5.11 5.46 13.1 13.1 0 0 1 .68 4.37 26.77 26.77 0 0 1 -1.18 8.3 18 18 0 0 1 -3.3 6.07 15.11 15.11 0 0 1 -5 3.88 18.19 18.19 0 0 1 -6.27 1.68l-.64-2.65a15.2 15.2 0 0 0 5-1.35 13.18 13.18 0 0 0 3.79-2.7 13.76 13.76 0 0 0 2.61-3.79 16.94 16.94 0 0 0 1.4-4.6 8.72 8.72 0 0 1 -1.37 1.2 6 6 0 0 1 -1.54.78 9.22 9.22 0 0 1 -1.86.43 19.88 19.88 0 0 1 -2.32.12 11.06 11.06 0 0 1 -3.66-.59 8.79 8.79 0 0 1 -3-1.71 8.24 8.24 0 0 1 -2-2.69 8.11 8.11 0 0 1 -.85-3.58zm3.5-.34a5.57 5.57 0 0 0 1.83 4.55 7.33 7.33 0 0 0 4.85 1.52 10.63 10.63 0 0 0 4.14-.74 5.3 5.3 0 0 0 2.46-1.83 8.19 8.19 0 0 0 .08-.95v-.83a10.57 10.57 0 0 0 -.4-2.9 7.86 7.86 0 0 0 -1.24-2.57 6.35 6.35 0 0 0 -2.16-1.84 6.82 6.82 0 0 0 -3.18-.69 6.46 6.46 0 0 0 -4.7 1.64 6.2 6.2 0 0 0 -1.68 4.64z"/></g><path d="m209 202.28a4.47 4.47 0 0 1 -4.45-4.55 4.33 4.33 0 0 1 4.5-4.44 4.55 4.55 0 0 1 4.39 4.64 4.42 4.42 0 0 1 -4.44 4.35z" fill="#ff713f"/><path d="m390 197.73a2.66 2.66 0 0 1 -2.69 2.7 2.59 2.59 0 0 1 -2.6-2.75 2.48 2.48 0 0 1 2.55-2.54 2.55 2.55 0 0 1 2.74 2.59z" fill="#48d8f9"/><path d="m332 349.54a2.65 2.65 0 0 1 -2.68 2.7 2.61 2.61 0 0 1 -2.61-2.75 2.49 2.49 0 0 1 2.56-2.54 2.54 2.54 0 0 1 2.73 2.59z" fill="#48d8f9"/><path d="m332 286.45a2.65 2.65 0 0 1 -2.68 2.7 2.61 2.61 0 0 1 -2.61-2.75 2.49 2.49 0 0 1 2.56-2.54 2.54 2.54 0 0 1 2.73 2.59z" fill="#48d8f9"/><path d="m478.63 225.62a2.67 2.67 0 0 1 -2.69 2.7 2.6 2.6 0 0 1 -2.6-2.75 2.49 2.49 0 0 1 2.56-2.57 2.54 2.54 0 0 1 2.73 2.62z" fill="#48d8f9"/><path d="m59.38 184.3a2.64 2.64 0 0 1 -2.68 2.7 2.59 2.59 0 0 1 -2.6-2.74 2.47 2.47 0 0 1 2.55-2.54 2.54 2.54 0 0 1 2.73 2.58z" fill="#48d8f9"/></svg>