<svg height="600" viewBox="0 0 600.00001 600.00001" width="600" xmlns="http://www.w3.org/2000/svg" xmlns:xlink="http://www.w3.org/1999/xlink"><clipPath id="a"><path d="m3199.0914-716.607 109.8752 20.4269-8.1238 96.44883-128.2619-54.60372z"/></clipPath><clipPath id="b"><path d="m1149 422.36221h260v237h-260z"/></clipPath><clipPath id="c"><path d="m1419.8523 875.87024c2.2489 34.47013-6.1506 74.26444 44.626 84.47071 37.612-1.10712 57.4578-27.08649 52.5949-87.65828z"/></clipPath><clipPath id="d"><path d="m1460.8331 612.89541-25.9159 70.12659h20.1567l-24.4761 54.18876 23.0364-1.5937-24.4763 51.0012 322.5099-1.59386-23.0363-49.40734 25.9159-1.59386c-42.0797-79.90008-67.6035-102.78028-136.6539-100.49693z"/></clipPath><clipPath id="e"><path d="m1402.3264 423.23978c-103.1832 23.75251-104.0639 102.10969 0 106.77767z"/></clipPath><g transform="matrix(.27665485 0 0 .27665485 -3055.7068 309.14703)"><g fill-rule="evenodd"><path d="m12583.487-534.82231c286.505 65.95286 288.951 283.52479 0 296.48623z" fill="#ff009e"/><path d="m11726.433 39.21557c-105.572 20.06484-156.444 111.50924-151.328 179.09513 0 0-47.648.83039-52.757 0-5.713-65.54043 11.743-156.7093 119.397-208.25016-53.029-27.844793-102.434-27.912932-144.387 29.15503l-37.485-34.7083598c39.235-44.5282212 81.963-85.5624992 208.25-43.0383712-32.85-89.741079-90.595-101.688689-152.716-99.960079l1.388-54.14504c165.956 1.84185 190.583 90.48172 207.345 186.9342852z" fill="#8c00f1"/><path d="m12384.022-500.89566c191.51-266.879 292.865-393.14734 223.655-451.24561-72.573-60.92243-189.243 60.06498-456.52 272.24099l116.433 89.5025z" fill="#008298"/><path d="m12583.487-534.82231c286.505 65.95286 288.951 283.52479 0 296.48623z" fill="#98005e"/><path d="m11946.243 726.40819c-6.245 95.71213 17.078 206.20771-123.912 234.54721-104.436-3.0741-159.541-75.21024-146.039-243.39804z" fill="#580098"/><path d="m11919.69 398.92723 97.36 212.41994-70.807 4.42521 70.807 146.03906-411.564-4.42562 70.806-141.61344h-75.232l132.763-247.82319z" fill="#98005e"/><path d="m12534.823 721.98257c-6.244 95.71213 17.078 206.20773-123.912 234.54723-104.436-3.0742-159.541-75.21026-146.038-243.39806z" fill="#580098"/><path d="m12596.779 757.38582h-398.288l70.807-137.18782-70.807-4.42562 115.061-252.2484 199.144 22.12683 79.658 225.69636h-57.531z" fill="#98005e"/><path d="m12508.271-8.2114368 79.657 194.7183168h-61.956l75.232 150.46424-70.806-4.42518 75.232 141.61344-991.293-4.42562 70.806-137.18782-79.657-4.42562c129.339-221.85606 172.772-285.14137 385.011-278.80126z" fill="#988400"/><path d="m12592.354 49.31906h-606.283l70.807-141.613443h-75.232l101.785-199.143487h446.967l70.806 199.143487h-75.232z" fill="#008298"/><path clip-path="url(#c)" d="m1441.0655 875.87024c1.7618 34.47013-4.8185 74.26444 34.9608 84.47071 29.4659-1.10712 45.0135-27.08649 41.2038-87.65828z" fill="#8c00f1" transform="matrix(-2.7766688 0 0 2.7766688 16477.283 -1710.019)"/><path d="m12504.734 757.38582h-306.243l54.444-137.18782-54.444-4.42562 88.47-252.2484 153.121 22.12683 61.249 225.69636h-44.235z" fill="#ff009e"/><path clip-path="url(#c)" d="m1441.0655 875.87024c1.7618 34.47013-4.8185 74.26444 34.9608 84.47071 29.4659-1.10712 45.0135-27.08649 41.2038-87.65828z" fill="#8c00f1" transform="matrix(-2.7766688 0 0 2.7766688 15888.702 -1705.5934)"/><path d="m11915.632 760.16249h-314.572l55.924-138.15496-55.924-4.45684 90.876-254.02671 157.286 22.28283 62.915 227.28747h-45.438z" fill="#ff009e"/><path d="m12421.033-8.2114368 71.96 194.7183168h-55.969l67.962 150.46424-63.964-4.42518 67.962 141.61344-895.503-4.42562 63.964-137.18782-71.959-4.42562c116.841-221.85606 187.712-285.3868 379.442-279.04669z" fill="#ffe001"/><path d="m12484.055 49.31906h-498.769l58.251-141.613443h-61.891l83.735-199.143487h367.705l58.249 199.143487h-61.89z" fill="#00bedd"/></g><circle cx="-12395.332" cy="-435.58624" fill="#fff" r="65.714096" transform="scale(-1 1)"/><circle cx="-12395.332" cy="-435.58624" r="32.857044" transform="scale(-1 1)"/><rect clip-path="url(#a)" height="5.656854" ry="5" transform="matrix(-4.0308679 -1.7160236 -1.7160236 4.0308679 24248.903 7843.429)" width="67.882248" x="3135.6299" y="-656.79797"/><path clip-path="url(#b)" d="m1329.5042 470.16035 28.6881 58.12659h-22.3129l27.0943 54.18876-25.5005-1.5937 27.0944 51.0012-357.0082-1.59386 25.5005-49.40734-28.6881-1.59386c46.5809-79.90008 62.2228-90.69189 138.6595-88.40854l92.7062-8.06153z" fill="#ffe000" fill-rule="evenodd" transform="matrix(-2.7766688 0 0 2.7766688 15416.651 -1291.4777)"/><path clip-path="url(#d)" d="m1480.962 715.35987-16.9935-16.99352-14.4964 14.42116-14.4966 14.42116-4.6965-4.9022-4.6967-4.9022 19.177-19.11753 19.1771-19.11751 16.1902 16.12304c8.9047 8.86768 16.947 16.12307 17.8714 16.12307.9243 0 8.9654-7.25432 17.8688-16.12071l16.188-16.1207 16.5919 16.52283 16.5917 16.52284 16.1881-16.12071c8.9033-8.86638 16.9445-16.1207 17.8689-16.1207s8.9656 7.25432 17.8689 16.1207l16.1881 16.12071 16.5917-16.52284 16.5919-16.52283 16.188 16.1207c8.9034 8.86639 16.9445 16.12071 17.8688 16.12071.9244 0 8.9667-7.25539 17.8714-16.12307l16.1902-16.12304 19.1771 19.11751 19.177 19.11753-4.6966 4.9022-4.6966 4.9022-14.4857-14.41042-14.4856-14.4104-17.0468 16.98279-17.0468 16.98277-16.9955-16.99558-16.9955-16.99556-16.4845 16.41587-16.4844 16.41589-17.0257-16.11293-17.0254-16.11292-16.6926 16.69262-16.6926 16.69261-17.0498-16.98567-17.0496-16.98569-17.0496 16.98569-17.0497 16.98567z" transform="matrix(-2.7766688 0 0 2.7766688 16477.283 -1710.019)"/><path clip-path="url(#e)" d="m1412.3359 394.73978c-119.1278 27.42291-120.1445 117.88836 0 123.27767z" fill="#ff009e" fill-rule="evenodd" transform="matrix(-2.7766688 0 0 2.7766688 16477.283 -1710.019)"/><path d="m12364.749-521.35177c53.834-324.04039 88.944-482.10283 1.183-503.62923-92.027-22.5733-143.209 137.52114-289.185 445.97892l144.001 28.82535z" fill="#00bedd" fill-rule="evenodd"/><path d="m12508.271-8.2114368 79.657 194.7183168h-61.956l75.232 150.46424-70.806-4.42518 75.232 141.61344-991.293-4.42562 70.806-137.18782-79.657-4.42562c129.339-221.85606 172.772-285.14137 385.011-278.80126z" fill="#988400" fill-rule="evenodd"/><path d="m12592.354 49.31906h-606.283l70.807-141.613443h-75.232l101.785-199.143487h446.967l70.806 199.143487h-75.232z" fill="#008298" fill-rule="evenodd"/><path d="m12421.033-8.2114368 71.96 194.7183168h-55.969l67.962 150.46424-63.964-4.42518 67.962 141.61344-895.503-4.42562 63.964-137.18782-71.959-4.42562c116.841-221.85606 187.712-285.3868 379.442-279.04669z" fill="#ffe001" fill-rule="evenodd"/><path d="m12484.055 49.31906h-498.769l58.251-141.613443h-61.891l83.735-199.143487h367.705l58.249 199.143487h-61.89z" fill="#00bedd" fill-rule="evenodd"/><path d="m12583.503-534.83589-477.945-106.21019-119.336 237.51106 66.096 1.29309-79.523 163.90879h610.708v-148.25137-74.1257z" fill="#ffe000" fill-rule="evenodd"/><circle cx="-12395.332" cy="-435.58624" fill="#fff" r="65.714096" transform="scale(-1 1)"/><circle cx="-12395.332" cy="-435.58624" r="32.857044" transform="scale(-1 1)"/><rect clip-path="url(#a)" height="5.656854" ry="5" transform="matrix(-4.0308679 -1.7160236 -1.7160236 4.0308679 24248.903 7843.429)" width="67.882248" x="3135.6299" y="-656.79797"/><path clip-path="url(#b)" d="m1329.5042 470.16035 28.6881 58.12659h-22.3129l27.0943 54.18876-25.5005-1.5937 27.0944 51.0012-357.0082-1.59386 25.5005-49.40734-28.6881-1.59386c46.5809-79.90008 62.2228-90.69189 138.6595-88.40854l92.7062-8.06153z" fill="#ffe000" fill-rule="evenodd" transform="matrix(-2.7766688 0 0 2.7766688 15416.651 -1291.4777)"/><path clip-path="url(#d)" d="m1480.962 715.35987-16.9935-16.99352-14.4964 14.42116-14.4966 14.42116-4.6965-4.9022-4.6967-4.9022 19.177-19.11753 19.1771-19.11751 16.1902 16.12304c8.9047 8.86768 16.947 16.12307 17.8714 16.12307.9243 0 8.9654-7.25432 17.8688-16.12071l16.188-16.1207 16.5919 16.52283 16.5917 16.52284 16.1881-16.12071c8.9033-8.86638 16.9445-16.1207 17.8689-16.1207s8.9656 7.25432 17.8689 16.1207l16.1881 16.12071 16.5917-16.52284 16.5919-16.52283 16.188 16.1207c8.9034 8.86639 16.9445 16.12071 17.8688 16.12071.9244 0 8.9667-7.25539 17.8714-16.12307l16.1902-16.12304 19.1771 19.11751 19.177 19.11753-4.6966 4.9022-4.6966 4.9022-14.4857-14.41042-14.4856-14.4104-17.0468 16.98279-17.0468 16.98277-16.9955-16.99558-16.9955-16.99556-16.4845 16.41587-16.4844 16.41589-17.0257-16.11293-17.0254-16.11292-16.6926 16.69262-16.6926 16.69261-17.0498-16.98567-17.0496-16.98569-17.0496 16.98569-17.0497 16.98567z" transform="matrix(-2.7766688 0 0 2.7766688 16477.283 -1710.019)"/></g></svg>