<svg height="45" viewBox="0 0 138 45" width="138" xmlns="http://www.w3.org/2000/svg" xmlns:xlink="http://www.w3.org/1999/xlink"><mask id="a" fill="#fff"><path d="m42.56 29.72h3.02c0-.86-.44-3.42-4.76-3.42-2.64 0-4.74 1.18-4.74 3.46 0 2.58 2.08 3.12 4.46 3.44l.6.08c.86.12 1.66.3 1.66.98 0 .8-.86 1.12-1.84 1.12-1.06 0-2-.32-2-1.38h-3.1c0 .58.26 3.64 4.92 3.64 4.14 0 5.14-2.02 5.14-3.72 0-4.46-6.76-2.68-6.76-4.38 0-.76.84-1 1.62-1 1.06 0 1.78.42 1.78 1.18zm-13.18-.92c1.34 0 2.34.9 2.34 3.18 0 2.26-1 3.16-2.34 3.16-1.5 0-2.32-.7-2.32-3.16 0-2.48.82-3.18 2.32-3.18zm-2.34 8.7v-1.08c.56.7 1.54 1.22 2.76 1.22 3 0 5.06-1.92 5.06-5.66 0-3.76-2.1-5.68-4.88-5.68-1.22 0-2.38.52-2.94 1.22v-4.82h-3.08v14.8zm-14.94-7.44h2.98c0-.44.12-1.36 1.94-1.36 1.48 0 1.84.52 1.84 1.28v.38l-3.64.52c-1.02.14-3.48.76-3.48 3.28 0 2.22 1.7 3.48 3.98 3.48 1.9 0 2.74-.64 3.22-1.14v1h3.26s-.24-.84-.24-1.64v-5.96c0-1.6-.88-3.6-4.94-3.6-4.2 0-4.88 2.14-4.92 3.76zm6.76 3.2c0 .94-.64 2.14-2.46 2.14-1.18 0-1.5-.74-1.5-1.24 0-.7.54-1.14 1.28-1.28.76-.16 2.68-.4 2.68-.4zm-8.34 4.24v-2.76h-6.76v-11.24h-3.16v14zm68.46-22v-14.8h-3.08v14.8zm-10.06-8.7c1.34 0 2.34.9 2.34 3.18 0 2.26-1 3.16-2.34 3.16-1.3 0-2.32-.9-2.32-3.16 0-2.28 1.02-3.18 2.32-3.18zm0 8.84c3.2 0 5.48-1.92 5.48-5.66 0-3.76-2.28-5.68-5.48-5.68-3.18 0-5.46 1.92-5.46 5.68 0 3.74 2.28 5.66 5.46 5.66zm-9.44-4.32c-.2 1.32-1.1 1.82-2.08 1.82-1.26 0-2.26-.9-2.26-3.16 0-2.28.98-3.18 2.3-3.18 1.04 0 1.84.52 2 1.88h3.1c-.26-2.92-2.34-4.38-5.12-4.38-3.18 0-5.46 1.98-5.46 5.72 0 3.76 2.34 5.62 5.52 5.62 2.84 0 4.76-1.46 5.08-4.32zm-14-4.52c1.34 0 2.34.9 2.34 3.18 0 2.26-1 3.16-2.34 3.16-1.3 0-2.32-.9-2.32-3.16 0-2.28 1.02-3.18 2.32-3.18zm0 8.84c3.2 0 5.48-1.92 5.48-5.66 0-3.76-2.28-5.68-5.48-5.68-3.18 0-5.46 1.92-5.46 5.68 0 3.74 2.28 5.66 5.46 5.66zm-6.4-.18v-2.56s-.7.06-1.34.06c-.66 0-.86-.18-.86-.86v-5.18h2.34v-2.48h-2.34v-2.94h-3.1v2.94h-1.6v2.48h1.6v5.34c0 2.06.3 3.32 2.88 3.32 1.4 0 2.42-.12 2.42-.12zm-13.08-8.66c1.34 0 2.34.9 2.34 3.18 0 2.26-1 3.16-2.34 3.16-1.3 0-2.32-.9-2.32-3.16 0-2.28 1.02-3.18 2.32-3.18zm0 8.84c3.2 0 5.48-1.92 5.48-5.66 0-3.76-2.28-5.68-5.48-5.68-3.18 0-5.46 1.92-5.46 5.68 0 3.74 2.28 5.66 5.46 5.66zm-6.26-8.12v-3.08h-.96c-1.1 0-2.16.48-2.7 1.4v-1.4h-2.98v11.06h3.08v-5.88c0-1.54.9-2.12 2.42-2.12.42 0 1.14.02 1.14.02zm-11.54-1.42c0 1.2-.78 2-1.84 2h-2.62v-3.96h2.62c1.06 0 1.84.68 1.84 1.96zm3.3-.2c0-2.86-2.16-4.4-4.72-4.4h-6.18v14h3.16v-4.76h2.68c3.28 0 5.06-2.2 5.06-4.84z" fill="#fff" fill-rule="evenodd"/></mask><mask id="b" fill="#fff"><path d="m0 0h177v85h-177z" fill="#fff" fill-rule="evenodd"/></mask><g fill="none" fill-rule="evenodd"><g mask="url(#a)" transform="translate(59 3)"><path d="m74.6 18.7h88.38v46.94h-88.38z" fill="#252a2e" fill-rule="evenodd" mask="url(#b)" transform="translate(-79 -23)"/></g><g fill="#252a2e"><path d="m11 .358-9.66 5.573 21.502 12.399 9.566-5.573z"/><path d="m34.545.358-9.66 5.666 9.66 5.479 9.705-5.572z"/><path d="m23.817 20.188v11.145l9.752-5.573v-11.099z"/><path d="m35.52 13.477 9.706-5.782v24.799l-21.409 12.492v-11.145l11.738-6.943z"/><path d="m21.82 20.188-.046 11.285-11.796-6.734v13.514l-9.752-5.62v-24.798z"/><path d="m11.998 28.071 9.822 5.677v11.238l-9.822-5.596z"/></g></g></svg>