<svg enable-background="new 0 0 144 144" viewBox="0 0 144 144" xmlns="http://www.w3.org/2000/svg"><path d="m109.47 102.63s-1.35 2.67-.08 4.55 4.35 6.43 5.02 7.31c.66.88 2.06 2.89-.58 5.18s-22.03 13.01-25.95 14.16-4.05-.42-4.59-1.77-2.31-7.49-2.99-8.93-2.14-1.32-2.14-1.32l8.12-4.07z" fill="#fff"/><path d="m140.93 59.89c-.02-13.31-5.45-19.6-10.18-24.56s-10-7.14-17.59-9.47c-7.59-2.32-13.13-8.22-15.81-10.45s-5.14-3.39-7.32-4.29-6.88-2.32-13.31-.71c-3.61.9-6.21 2.57-7.79 3.85-2.9-1.42-7.73-3.25-13.45-3.31-8.65-.26-12.91 1.96-12.91 1.96s-4.9-4.7-9.74-7.28c-4.83-2.58-16.82-3.97-23.58 4.7-6.75 8.68-6.62 20.67.93 27.16s9.54 6.09 9.67 10.4c.13 4.3-1.19 11.19-6.49 16.16s-9.62 11.1-9.1 20.91c.53 9.8 5.78 15.25 12.54 20.16 6 4.35 22.29 4.99 30.26-3.6.87 2.38 1.33 4.7-.31 6.45-4.31 4.22-6.11 16 2.43 22.29 9.44 6.74 20.31-.36 21.84-4.4 1.44-2.97 5.84-4.22 9.89-4.22 19.49.08 31.36-17 31.55-32.13 17.49-1.85 28.63-14.74 28.47-29.62z" fill="#fff"/><path d="m78.23 57.13c-17.11 0-30.98 13.87-30.98 30.98 0 4.25.86 8.3 2.41 11.99-.02 0-.04.01-.04.01.12.25.28.56.45.91.09.19.17.38.26.57.73 1.7 1.35 4.19-.63 6.94-.33.36-.64.74-.92 1.14-.03.04-.06.08-.08.11-1.44 2.04-2.28 4.53-2.28 7.21 0 6.94 5.62 12.56 12.56 12.56 4.73 0 8.86-2.62 11-6.49.07-.09.14-.19.21-.3 2.19-3.53 5.49-3.63 7.4-3.67 0 0 0-.01-.01-.02.22 0 .44.02.66.02 17.11 0 30.98-13.87 30.98-30.98s-13.88-30.98-30.99-30.98z" fill="#fdc503"/><path d="m137.51 59.33c0-14.86-10.4-27.28-24.31-30.4-2.29-.76-4.97-1.86-8.96-4.35-5.56-3.59-8.31-7.33-11.37-8.92-2.88-1.75-6.27-2.75-9.89-2.75-5.49 0-10.43 2.33-13.92 6.04.28.28 1.12 1.12 2.4 2.33 1.58 1.49 6.02 5.12 8.72 15.26s-6.28 25.42-6.28 25.42c3.02-.79 10.42 1.48 13.53 2.86 12.16 5.41 18.7 14.09 20.74 18.7.93 1.55 1.02 2.64 1.02 2.96 15.82-1.14 28.32-10.97 28.32-27.15z" fill="#45d7f8"/><g fill="#ec325a"><path d="m8.47 30.44c-.12-.31-.23-.63-.34-.95.11.32.21.64.34.95z"/><path d="m7.54 27.29c-.07-.37-.12-.75-.17-1.13.05.37.1.75.17 1.13z"/><path d="m7.93 28.89c-.1-.33-.17-.67-.25-1.01.08.34.15.68.25 1.01z"/><path d="m9.95 33.32c-.18-.28-.34-.57-.5-.86.15.29.32.58.5.86z"/><path d="m10.87 34.64c-.2-.26-.39-.54-.58-.81.19.27.38.55.58.81z"/><path d="m7.3 25.63c-.05-.56-.08-1.13-.08-1.7-.01.57.02 1.14.08 1.7z"/><path d="m9.14 31.92c-.15-.3-.29-.6-.42-.91.14.31.27.61.42.91z"/><path d="m16.63 39.49c-.98-.51-1.91-1.12-2.77-1.8.87.68 1.79 1.28 2.77 1.8z"/><path d="m11.91 35.86c-.23-.24-.44-.5-.65-.75.21.26.42.51.65.75z"/><path d="m22.45 48.8c.02.15.02.31.04.46-.02-.15-.03-.31-.04-.46z"/></g><path d="m70.04 18.17c.43.25.85.51 1.27.78-.56-.43-1.04-.68-1.27-.78z" fill="#4fc7f3"/><path d="m11.25 35.11c-.13-.16-.26-.31-.38-.47.13.16.26.31.38.47z" fill="#ec325a"/><path d="m10.29 33.83c-.11-.17-.23-.33-.34-.51.11.17.22.34.34.51z" fill="#ec325a"/><path d="m7.37 26.15c-.02-.18-.06-.35-.07-.52.01.18.05.35.07.52z" fill="#ec325a"/><path d="m9.44 32.46c-.1-.18-.2-.36-.3-.54z" fill="#ec325a"/><path d="m7.68 27.88c-.05-.2-.1-.39-.14-.6.04.21.09.4.14.6z" fill="#ec325a"/><path d="m11.91 35.86c.06.06.1.13.16.19.33.54.91 1.09 1.78 1.63.01 0 .01.01.02.01-.71-.56-1.35-1.17-1.96-1.83z" fill="#ec325a"/><path d="m8.13 29.49c-.07-.2-.14-.39-.2-.59.06.19.14.39.2.59z" fill="#ec325a"/><path d="m8.72 31.01c-.08-.19-.17-.38-.25-.57.08.19.17.38.25.57z" fill="#ec325a"/><path d="m80.68 35.51c-1.93-7.24-6.16-14.33-8.81-16.09-.19-.18-.37-.33-.55-.47-.42-.27-.84-.53-1.27-.78-.08-.04-.13-.06-.13-.06l-.02-.01-.08-.06c-4.64-2.64-10-4.16-15.73-4.16-4.29 0-8.38.85-12.12 2.4-.2-.19-1.66-1.62-2.35-2.44-.49-.58-1.71-1.71-2.48-2.41-3.18-3.14-7.54-5.08-12.36-5.08-9.71 0-17.58 7.87-17.58 17.58 0 .57.03 1.14.08 1.7.02.18.05.35.07.52.05.38.1.76.17 1.13.04.2.1.4.14.6.08.34.15.68.25 1.01.06.2.13.4.2.59.11.32.21.64.34.95.08.19.17.38.25.57.14.31.27.61.42.91.09.18.2.36.3.54.16.29.33.58.5.86.11.17.23.34.34.51.19.28.38.55.58.81.12.16.25.32.38.47.21.26.43.51.65.75.61.65 1.26 1.27 1.96 1.83.86.68 1.79 1.29 2.77 1.8.01.01.02.02.04.02 5.41 3.85 5.35 6.29 5.75 9.11.01.06.02.12.03.18.01.15.02.31.04.46-.13 8.03-4.61 13.85-7.22 16.07-.04.03-.06.06-.09.09-4.79 4.13-7.83 10.24-7.83 17.06 0 12.43 10.08 22.51 22.51 22.51 7.53 0 14.19-3.7 18.27-9.37-.08-.39-.16-.78-.23-1.17-1.2-6.8-.25-13.8 3.52-18.57 3.98-5.05 13.6-8.28 18.19-11.16 1.3-.77 2.23-1.32 3.02-1.85.87-.59 1.58-1.17 2.4-2.02 1.07-1.11 2-2.36 2.8-3.7 3.86-6.39 4.66-14.94 2.88-21.63z" fill="#ff0b3d"/><path d="m99.89 52.39c-1.46 0-2.63-1.01-2.63-2.26v-5.89c0-1.25 1.18-2.26 2.63-2.26s2.63 1.01 2.63 2.26v5.89c.01 1.24-1.17 2.26-2.63 2.26z"/><path d="m121.73 52.67c-1.46 0-2.63-1.01-2.63-2.26v-5.89c0-1.25 1.18-2.26 2.63-2.26 1.46 0 2.63 1.01 2.63 2.26v5.89c0 1.24-1.18 2.26-2.63 2.26z"/><path d="m69.2 84.2c-1.46 0-2.63-1.01-2.63-2.26v-5.89c0-1.25 1.18-2.26 2.63-2.26 1.46 0 2.63 1.01 2.63 2.26v5.89c0 1.25-1.18 2.26-2.63 2.26z"/><path d="m91.03 84.48c-1.46 0-2.63-1.01-2.63-2.26v-5.89c0-1.25 1.18-2.26 2.63-2.26 1.46 0 2.63 1.01 2.63 2.26v5.89c.01 1.25-1.17 2.26-2.63 2.26z"/><path d="m49.2 44.95c-1.46 0-2.63-1.01-2.63-2.26v-5.89c0-1.25 1.18-2.26 2.63-2.26 1.46 0 2.63 1.01 2.63 2.26v5.89c0 1.24-1.18 2.26-2.63 2.26z"/><path d="m71.03 45.23c-1.46 0-2.63-1.01-2.63-2.26v-5.89c0-1.25 1.18-2.26 2.63-2.26 1.46 0 2.63 1.01 2.63 2.26v5.89c.01 1.24-1.17 2.26-2.63 2.26z"/><path d="m75.37 23.44s-4.12-6.91-.28-8.79c0 0-3.19 1.21-5.19 3.47.01-.01 2.68 1.62 5.47 5.32z" opacity=".1"/><path d="m80.47 34.76c.19 2.6 1.81 4.42 2.6 9.49 1.65 12.95 16.84 25.32 19.35 31.02-6.14-6.07-11.43-8.83-10.23-7.95 0 0-5.95-3.91-12.09-4.84s-8.09 1.3-14.23 4.28c-6.14 3.07-18.7 6.51-18.51 22.14.74 11.16.79 6.74.79 6.74s-6.56 9.44-18.28 9.35-19.07-8.42-21.07-14.65c0 0 10.98 13.02 24.93 5.58s11.58-14.09 11.39-16.14c-.47-4.84-9.95-7.91-8.19-10.98 1.77-3.07 2.51-1.86 19.07-4.46s26.14-16.93 24.47-29.58z" opacity=".1"/><path d="m109.21 86.53c-.37-2.14-2.42-6.74-5.02-9.16 0 0 9.49 18.14-15.44 32.84-23.91 13.12-38.05-7.63-38.05-7.63s1.26 2.93-.98 5.86c1.1-.15 9.53 4.58 13.35 9.05.88 1.03 2.88 5.36-1.26 7.02-4.06 1.78-10.93 1.88-13.28-.49l-.04-.01c2.25 3.4 6.1 5.63 10.48 5.63 4.73 0 8.85-2.62 10.99-6.49.07-.09.14-.19.21-.3 2.19-3.53 5.49-3.63 7.4-3.67 0 0 0-.01-.01-.01.22 0 .44.01.66.01 16.37 0 29.78-12.7 30.9-28.79z" opacity=".1"/><path d="m42 16.3s-3.91 2.05-5.58 3.21 3.53-5.4 1.12-7.72c1.63 1.62 4.46 4.51 4.46 4.51z" opacity=".1"/><path d="m92.32 129.77c.06.14-.04.26-.13.3l-1.12.45c-.1.04-.25.01-.3-.13l-.68-1.7c-.46.43-.96.63-1.22.73-.92.36-2.43.25-3.3-1.94-1-2.52-.3-3.67 1.19-4.26.77-.31 2.68-.71 2.79-.44zm-3.97-5.46s-.56.07-.9.2c-.47.19-.94.61-.69 1.35 0 0 .14.43.29.79.14.36.31.71.31.71.32.71.94.69 1.43.5.34-.13.79-.48.79-.48z"/><path d="m93.83 121.75c-.82.38-.84.69-.84.69l1.87 4.05c.07.14-.02.26-.11.31l-1.1.51c-.09.04-.25.03-.31-.11l-2.34-5.07c-.1-.21.74-1.03 2.04-1.63.2-.09.55-.23.8-.28.1 0 .18.02.22.11l.46.99c.04.08.04.17-.06.21-.13.03-.42.12-.63.22z"/><path d="m94.42 118.5c-.3-.58-.03-.9.41-1.13s.88-.26 1.18.31c.27.53 0 .91-.44 1.13-.44.23-.88.22-1.15-.31zm4.91 5.79c.07.14-.01.27-.1.31l-1.07.55c-.09.05-.24.04-.32-.1l-2.68-5.22c-.07-.14.01-.27.1-.31l1.07-.55c.09-.05.24-.04.31.1z"/><path d="m100.76 121.77c.44-.25 1.02-.08 1.27.36.25.45.08 1.02-.36 1.27-.45.25-1.02.09-1.27-.36-.25-.44-.1-1.02.36-1.27z"/><path d="m99.75 115.58c-.34-.55-.1-.9.32-1.16s.86-.33 1.2.22c.31.51.07.9-.35 1.16s-.86.29-1.17-.22zm5.35 5.39c.08.13.01.27-.08.32l-1.03.63c-.09.06-.24.06-.32-.08l-3.08-4.99c-.08-.13-.01-.27.08-.32l1.03-.63c.09-.05.24-.06.32.08z"/><path d="m108.98 114.18.48.65c1.29 1.76.74 3.01-.42 3.86s-2.52 1-3.81-.76l-.48-.65c-1.29-1.76-.74-3.01.42-3.86 1.16-.86 2.52-1 3.81.76zm-.62 1.98-.98-1.34c-.35-.48-.91-.54-1.34-.22-.43.31-.54.86-.19 1.35l.98 1.34c.35.48.91.54 1.34.23.43-.32.54-.87.19-1.36z"/></svg>