<svg height="1500" viewBox="0 0 3892.5 1500" width="3892.5" xmlns="http://www.w3.org/2000/svg" xmlns:xlink="http://www.w3.org/1999/xlink"><clipPath id="a"><path d="m0 1200h3114v-1200h-3114z"/></clipPath><g transform="matrix(1.25 0 0 -1.25 0 1500)"><g fill="#ffce00"><path d="m0 0h232.181l-232.181 232.181z" transform="translate(437.1167 425.0898)"/><path d="m0 0v-232.181l232.181 232.181z" transform="translate(785.3877 541.1807)"/><path d="m0 0h116.09v116.09" transform="translate(437.1167 773.3613)"/></g><path d="m0 0h-116.09l-116.091-116.09h116.091zm116.09 0h-116.09v-116.09h116.09zm116.091-580.452v116.09l-116.091 116.091v-116.091zm0 348.271h-116.09v-116.09h116.09zm-348.271-348.271h116.09l116.09 116.09h-116.09zm-116.091 0h116.09v116.09h-116.09z" fill="#ffb6d5" transform="translate(553.207 889.4517)"/><path d="m0 0 232.181 232.181h-232.181zm0 464.361-116.09-116.09h232.18zm464.361-464.361-232.18 232.181v-232.181zm-348.271 116.09-116.09-116.09 116.09-116.091zm-232.18 0-232.181-232.181h232.181zm0-464.361 116.09 116.09h-232.181z" fill="#2935ff" transform="translate(553.207 541.1807)"/><path d="m0 0v232.181h-232.181zm116.09 232.181h116.091l-116.091 116.09zm0-116.091h116.091v116.091zm116.091-232.181v116.091h-116.091zm-464.362-116.09v116.09h-116.09zm116.091 0 116.09 116.09h-116.09z" fill="#ff1c3f" transform="translate(553.207 541.1807)"/><g clip-path="url(#a)"><path d="m0 0c6.283 50.307 37.097 77.343 82.365 77.343 44.656 0 75.471-25.146 78.619-77.343zm236.438-24.532c0 99.355-60.37 164.134-152.183 164.134-94.317 0-155.945-67.283-155.945-164.765 0-98.097 62.887-162.858 154.686-162.858 64.149 0 118.234 32.058 141.491 86.775l-62.243 24.532c-13.841-28.941-40.246-47.174-79.248-47.174-41.491 0-79.233 20.752-84.256 71.691h237.698zm-441.448-155.317h74.21v467.231h-74.21zm-267.867 406.863h-72.949v-96.845h-60.37v-61.628h60.37v-248.39h72.949v248.39h111.938v-248.39h74.192v310.018h-186.13zm149.663 57.857c-26.405 0-46.528-20.753-46.528-47.165 0-26.414 20.123-47.167 46.528-47.167 26.406 0 47.158 20.753 47.158 47.167 0 26.412-20.752 47.165-47.158 47.165m-388.59-154.702-66.651-106.898c-23.272 37.097-47.174 74.825-70.43 106.898h-88.052l111.308-157.834-108.158-152.184h84.271l65.393 103.135c20.122-32.074 46.544-73.58 67.911-103.135h87.421l-107.545 152.813 110.048 157.205zm-465.054-130.169c6.283 50.307 37.097 77.343 82.366 77.343 44.663 0 75.478-25.146 78.627-77.343zm84.263 139.602c-94.324 0-155.954-67.283-155.954-164.765 0-98.097 62.889-162.858 154.688-162.858 64.155 0 118.242 32.058 141.498 86.775l-62.242 24.532c-13.841-28.941-40.247-47.174-79.256-47.174-41.492 0-79.234 20.752-84.256 71.691h237.706v27.665c0 99.355-60.37 164.134-152.184 164.134m-242.728 87.412h-73.58v-96.845h-60.369v-61.628h60.369v-248.39h73.58v248.39h59.74v61.628h-59.74z" fill="#2935ff" transform="translate(2673.2813 561.1533)"/></g></g></svg>